<?xml version="1.0" encoding="UTF-8" standalone="no"?>
<svg
   xmlns:dc="http://purl.org/dc/elements/1.1/"
   xmlns:cc="http://creativecommons.org/ns#"
   xmlns:rdf="http://www.w3.org/1999/02/22-rdf-syntax-ns#"
   xmlns:svg="http://www.w3.org/2000/svg"
   xmlns="http://www.w3.org/2000/svg"
   version="1.1"
   id="svg2484"
   width="1056"
   height="816"
   viewBox="0 0 1056 816">
  <metadata
     id="metadata2490">
    <rdf:RDF>
      <cc:Work
         rdf:about="">
        <dc:format>image/svg+xml</dc:format>
        <dc:type
           rdf:resource="http://purl.org/dc/dcmitype/StillImage" />
        <dc:title></dc:title>
      </cc:Work>
    </rdf:RDF>
  </metadata>
  <defs
     id="defs2488" />
  <path
     id="path3059"
     d="M 809.05469 34.660156 C 807.37549 34.660156 806.5694 38.221014 807.5918 41.121094 C 808.0458 42.408974 808.85465 43.517852 810.93555 45.701172 C 813.62215 48.520012 814.75 49.913339 814.75 50.412109 C 814.75 50.548939 814.25855 50.660156 813.65625 50.660156 C 813.05405 50.660156 810.78503 50.960592 808.61523 51.326172 C 805.48243 51.854032 803.68289 51.964588 799.87109 51.867188 C 795.33939 51.751417 794.93334 51.688759 792.61914 50.724609 C 789.25774 49.324189 784.85694 48.309729 783.14844 48.542969 C 781.48594 48.769919 780.30906 49.502689 779.69336 50.693359 C 778.73826 52.540319 779.17583 52.880451 783.64062 53.775391 L 786.42969 54.333984 L 783.72656 54.5625 C 780.25716 54.85402 776.1805 55.670958 774.75 56.361328 C 773.2912 57.065348 772.25814 59.029778 772.80664 60.054688 C 773.10244 60.607298 773.0769 60.999581 772.6875 61.931641 C 771.7803 64.102731 772.90873 65.48075 775.32812 65.15625 C 776.54522 64.993 776.66992 65.040326 776.66992 65.666016 C 776.66992 67.057306 777.91575 67.098644 783.84375 65.902344 C 786.85025 65.295614 791.54348 64.565867 794.27148 64.279297 L 799.23047 63.757812 L 801.4707 64.519531 C 802.7027 64.938941 804.47059 65.382026 805.40039 65.503906 C 806.82599 65.690776 818.81367 69.92539 820.60547 70.875 C 820.98827 71.07505 821.11468 71.389209 820.98828 71.787109 C 820.58288 73.064559 821.22925 74.771981 822.71875 76.363281 L 824.19141 77.935547 L 824.44922 81.337891 C 824.88162 87.039256 825.01982 142.35777 824.60742 144.61914 C 824.30412 146.28376 823.89127 147.49441 824.23047 148.99023 C 824.65527 150.8631 825.90667 152.27363 826.25977 152.76953 C 826.01167 153.36856 825.6005 154.56712 825.6875 155.58398 C 825.7959 156.85487 826.48357 157.97145 826.98047 158.77539 C 827.56317 159.71746 827.67566 160.30716 827.59766 162.01367 C 827.47396 164.72506 826.98714 165.87193 829.33594 167.92969 C 830.69584 169.12116 832.14844 170.06836 832.14844 170.06836 L 831.76562 174.76367 C 831.31782 180.28318 830.60089 183.7355 828.80469 189.01367 C 825.39869 199.02174 820.52205 207.77366 813.43945 216.58789 C 812.20329 218.12632 811.01363 219.48902 809.78516 220.76953 C 808.60563 220.42036 807.4334 220.06781 806.39844 219.72656 L 803.03711 218.61914 L 803.01367 216.78125 C 802.97591 213.88895 801.27563 211.11164 798.57227 209.52734 C 796.65771 208.40534 793.54981 207.6398 791.98438 207.9043 C 790.30889 208.1874 786.91913 206.66845 786.89453 205.62305 C 786.87705 204.88315 785.87411 204.54297 783.71289 204.54297 C 782.55904 204.54297 782.54412 204.52557 781.98047 202.54297 C 780.16735 196.16547 779.04894 187.17962 779.29492 180.98242 L 779.46094 176.78125 L 781.00977 175.32812 C 782.89697 173.55863 784.55312 170.88208 785.49609 168.08008 C 785.88451 166.92588 786.31934 166.02322 786.46094 166.07422 C 786.73544 166.17302 786.73706 166.16453 787.04688 162.86133 C 787.25289 160.66493 787.8348 159.84559 787.8418 161.74219 C 787.8466 163.05919 788.52745 165.63449 789.30469 167.27539 C 790.06514 168.88079 792.42392 171.26172 793.25391 171.26172 C 793.88179 171.26172 793.88214 171.25194 793.26953 169.90234 C 792.92338 169.13984 792.65234 167.83851 792.65234 166.94141 C 792.65234 164.22571 793.52872 162.8692 798.25195 158.2793 C 800.61963 155.9785 802.55859 154.14698 802.55859 154.20898 C 802.55859 154.27148 802.34367 154.83474 802.08203 155.46094 C 801.41768 157.05094 799.33543 159.58584 797.61133 160.90234 C 795.40944 162.58364 795.79475 163.18577 798.55859 162.38477 C 802.46703 161.20987 806.33451 159.24556 809.1543 153.84766 C 809.65338 153.08396 810.41822 152.25425 810.7793 151.81055 C 814.5916 146.85065 815.67976 142.54928 815.12305 135.36328 C 815.25162 134.47718 815.64475 133.93652 815.79297 133.54102 C 816.80147 130.85062 816.19729 126.36668 814.36328 122.92578 C 813.14737 120.64448 810.65022 117.81028 808.6875 116.48438 C 807.86843 115.93097 807.14222 115.43486 807.07422 115.38086 C 807.00629 115.32676 807.74954 114.41858 808.72656 113.36328 C 812.11428 109.63478 813.39913 102.77436 809.66406 97.947266 C 808.62044 96.758666 806.55734 95.475794 806.22461 95.808594 C 806.11558 95.917594 806.26832 96.373266 806.5625 96.822266 C 806.85668 97.271266 807.17358 98.486837 807.26758 99.523438 C 807.56598 102.81445 806.4488 104.90119 803.70312 106.17969 C 801.65021 107.13559 798.7798 107.19513 796.32422 106.33203 C 794.04803 105.53203 790.05687 102.90274 786.07812 99.582031 C 777.97073 92.815631 774.15166 90.496059 769.07617 89.255859 L 766.15625 88.542969 L 765.99023 86.724609 C 765.50386 81.422809 760.48655 77.638919 755.59766 78.886719 C 754.70662 79.114119 754.55686 79.069859 754.55664 78.568359 C 754.55622 77.582159 752.69328 73.975331 751.01172 71.707031 C 747.71034 67.253631 743.15486 63.819394 738.79297 62.496094 C 733.40507 60.861494 725.80439 60.908081 719.44727 62.613281 C 708.29751 65.604181 702.13196 74.091614 701.54492 87.261719 C 701.31449 92.431519 701.85454 95.853635 704.79492 107.90234 C 707.2275 117.87024 707.58118 120.10101 707.60938 125.66211 C 707.6342 130.56121 707.12359 132.98936 705.23828 136.94336 C 704.17502 139.17326 703.64994 139.85567 701.86719 141.32617 C 700.706 142.28397 698.80229 143.47114 697.63672 143.96484 C 695.64428 144.80904 695.24923 144.85975 691.03711 144.84375 C 685.69944 144.82295 683.68254 144.33308 681.34375 142.48438 C 676.28807 138.48807 678.73336 130.51456 685.91016 127.59766 C 686.87896 127.20386 687.57655 126.78748 687.46094 126.67188 C 687.09623 126.30707 683.42491 126.45198 681.75781 126.89648 C 677.61793 128.00038 673.7882 130.93624 672.17383 134.24414 C 669.70461 139.30384 670.61905 144.02021 674.89062 148.25781 L 677.02344 150.37305 L 674.43164 150.56055 C 671.14131 150.79795 667.14341 151.95623 664.75586 153.36523 C 662.00728 154.98733 658.58838 158.53408 657.375 161.02148 C 656.008 163.82378 655.15084 167.0722 654.87109 170.5 C 654.66725 172.9976 654.4894 173.59457 653.41602 175.42188 C 650.18552 180.92148 649.53485 186.50954 651.49414 191.90234 C 652.06966 193.48634 652.60725 195.00494 652.68945 195.27734 C 652.82056 195.71164 651.80289 195.66665 644.41797 194.90625 C 639.78677 194.42935 635.40403 193.93901 634.67773 193.81641 C 633.28647 193.58171 632.76801 193.49925 632.10156 191.53125 C 631.99097 191.18275 631.04418 190.72609 630.70117 190.61719 C 630.33218 190.50009 630.02863 190.12804 630.07812 189.71484 C 630.24246 188.34194 629.81237 188.51836 629.48828 187.91406 C 628.97497 186.95696 628.95259 186.66763 629.30664 185.67773 C 630.31375 182.86203 634.99629 168.05169 636.33984 163.43359 C 637.15734 160.62369 638.40236 156.73507 639.10547 154.79297 C 639.80857 152.85097 641.43405 148.09466 642.71875 144.22266 C 645.37014 136.23156 647.00298 132.1848 648.44336 130.0332 C 649.25228 128.8249 649.81059 128.39674 651.43164 127.74414 C 653.89497 126.75254 654.44913 126.21182 654.49023 124.76172 C 654.52099 123.67712 654.61812 123.58451 656.57227 122.75391 C 658.70161 121.84901 659.18026 121.94741 659.19336 123.28711 C 659.19957 123.92791 660.38029 125.0411 661.50391 125.4668 C 662.27709 125.7597 666.3518 126.59856 668.98047 127.00586 C 669.72092 127.12066 670.21273 126.94873 670.98047 126.30273 C 671.54044 125.83153 671.99805 125.32273 671.99805 125.17383 C 671.99805 125.02493 672.13333 124.54848 672.29883 124.11328 C 672.5741 123.38928 672.70087 123.3447 673.79688 123.5918 C 675.65393 124.0107 676.77105 123.34809 678.91406 120.55859 C 679.95035 119.20969 681.08053 117.75246 681.42578 117.31836 C 681.83493 116.80386 682.03611 116.09712 682.00391 115.29102 C 681.9585 114.15212 682.03155 114.04018 682.93555 113.85938 C 683.47542 113.75108 684.40406 113.66211 684.99805 113.66211 C 686.07284 113.66211 686.07708 113.66894 686.08008 115.18164 C 686.08261 117.32874 686.58196 118.87233 687.78516 120.45312 C 689.0762 122.14973 690.61998 122.76686 691.91406 122.10156 C 692.3955 121.85396 692.85329 121.32835 692.93359 120.93555 C 693.01384 120.54275 693.17127 117.22369 693.28125 113.55859 C 693.51351 105.81819 693.49528 105.75758 690.69141 104.51758 C 689.73804 104.09588 688.95703 103.69209 688.95703 103.62109 C 688.95703 103.54969 688.72884 102.3852 688.44922 101.0332 C 687.96487 98.690904 687.96873 98.553706 688.5293 98.128906 C 689.38469 97.480706 689.45508 97.525784 689.90234 99.021484 C 690.95623 102.54578 692.92197 104.96969 695.30469 105.68359 C 696.23502 105.95709 696.71302 105.95839 697.22656 105.68359 C 698.3783 105.06719 698.39965 103.93644 697.32617 100.26562 C 696.77785 98.390626 696.1785 95.777031 695.99414 94.457031 C 695.49907 90.912731 695.11681 89.764203 694.1875 89.033203 C 692.99262 88.093303 691.8596 88.210247 688.47852 89.623047 C 685.74853 90.763647 685.48174 90.820256 685.3418 90.285156 C 685.13972 89.512456 683.05714 88.964228 681.59766 89.298828 C 679.76546 89.718928 678.47704 90.536691 675.92773 92.900391 C 671.37976 97.117391 670.92491 97.367254 662.87695 100.06445 C 644.58857 106.19366 639.20162 108.6099 635.63477 112.2793 C 633.8987 114.0653 630.38313 119.26324 627.66992 124.05664 C 626.47446 126.16864 624.34422 129.76864 622.9375 132.05664 C 611.62354 150.45834 602.57387 166.99544 598.87695 176.02344 C 597.11663 180.32214 596.31617 183.39127 595.50391 188.95117 C 594.88609 193.18007 594.80831 193.42798 593.77734 194.45898 C 592.39097 195.84538 591.29312 198.68983 591.11328 201.36133 C 590.9124 204.53833 592.6 207.79496 595.33008 210.31836 C 596.35392 211.01566 596.47256 211.24661 596.47656 212.53711 C 596.48309 214.89351 597.0552 216.33055 598.59766 217.87305 C 600.65721 219.93265 603.63725 221.24153 606.68164 221.42383 C 608.62135 221.53993 609.28088 221.71661 609.91797 222.28711 C 612.15777 224.29261 617.27916 224.35353 621.75586 222.42773 C 623.40137 221.71983 623.44145 221.71826 631.30273 222.09766 C 646.46894 222.82946 654.94218 223.09375 663.57617 223.09375 C 671.58318 223.09655 672.28678 223.14075 672.4375 223.65625 C 673.28909 226.56915 673.51261 231.69444 672.94141 235.21484 C 672.36099 238.79174 670.22553 242.11517 667.04492 244.38477 C 664.45078 246.23587 662.85449 246.77734 659.99414 246.77734 C 655.56755 246.77734 652.39227 245.02197 650.19336 241.35938 L 648.95703 239.30078 L 648.96094 240.55859 C 648.96788 243.35499 651.95522 247.58867 655.03711 249.16797 C 660.84245 252.14297 669.02122 251.29114 674.39844 247.15234 C 675.10244 246.61044 676.0926 245.84698 676.59961 245.45508 C 677.5165 244.74618 677.51971 244.74678 677.15625 245.42578 C 675.69747 248.15158 670.56554 252.14246 663.67773 255.91016 C 653.78717 261.32036 649.62421 265.35637 648.16797 270.94727 C 647.50691 273.48527 647.55063 275.09679 648.34961 277.68359 C 648.91873 279.52619 649.323 280.1585 650.99023 281.8125 C 653.22527 284.0297 655.30063 284.98987 658.99414 285.51367 C 661.65423 285.89097 664.21961 285.6785 667.5 284.8125 C 670.23161 284.0913 674.2321 282.10953 675.85156 280.67383 C 676.8674 279.77323 676.89238 279.70899 676.1582 279.90039 C 669.52744 280.88349 656.60975 279.09044 660.99805 267.90234 C 664.09497 261.71204 669.38924 257.85271 680.43945 254.44531 C 687.20959 252.35781 688.52159 251.60858 692.85742 248.42188 C 694.01287 247.34107 695.03255 246.45703 695.12305 246.45703 C 695.21355 246.45703 695.37407 246.79679 695.47852 247.21289 C 695.70972 248.13419 700.41474 255.96154 701.75391 257.65234 C 702.28409 258.32174 702.7168 259.01341 702.7168 259.19141 C 702.7168 259.36931 702.10564 259.874 701.35742 260.3125 C 700.60919 260.7509 699.72179 261.4129 699.38672 261.7832 C 698.80993 262.4205 698.80807 262.48975 699.32812 263.06445 C 699.63027 263.39835 701.30537 264.58287 703.05078 265.69727 L 706.22461 267.72266 L 708.59766 273.49023 C 709.9032 276.66203 711.2146 279.97742 711.51172 280.85742 C 712.24055 283.01592 712.95703 286.8366 712.95703 288.5625 L 712.95703 289.97266 L 710.81445 288.50391 C 704.30502 284.14481 696.72954 281.22979 688.8125 281.49609 L 687.8125 283.16211 C 685.70469 286.67491 684.18581 293.87217 683.92773 301.57617 L 683.75 306.93555 L 682.31055 306.93555 C 680.01477 306.93555 673.16963 308.45818 668.45117 310.01758 C 663.82464 311.54658 662.07812 312.40488 662.07812 313.14648 C 662.07812 313.39878 663.13496 315.16913 664.42773 317.08203 C 666.49473 320.14053 668.80192 324.96273 668.79492 326.20703 C 668.79357 326.43273 668.23692 326.93301 667.55859 327.32031 C 666.10116 328.15235 660.54446 332.31153 656.46289 335.55469 C 654.36498 332.24069 652.31659 329.03115 650.98438 327.00195 C 647.02302 320.96815 640.66517 310.47055 635.57422 301.56055 C 634.11605 299.00855 632.05817 295.57981 631.00195 293.94141 C 629.90431 292.23881 629.20421 290.84766 629.36719 290.69336 C 631.51893 288.65616 634.12723 286.89754 635.26953 286.71484 C 637.99724 286.27864 640.43472 284.35546 641.51172 281.78906 C 641.78592 281.13556 642.20378 279.37686 642.44141 277.88086 C 642.67908 276.38486 643.19843 274.36839 643.59375 273.40039 C 644.13785 272.06819 644.31527 270.98068 644.32617 268.92188 C 644.34323 265.73847 643.55564 263.64785 641.42969 261.24023 C 640.73036 260.44823 639.79403 258.99689 639.34766 258.01367 C 637.78427 254.57001 635.34829 253.06641 630.34961 252.45703 C 628.76138 252.26342 627.92917 251.86879 624.68555 249.77539 C 622.59407 248.42556 618.82822 246.02541 616.31836 244.44141 C 610.2824 240.63204 600.8139 233.88966 600.24219 232.99414 C 598.36205 228.94233 597.29457 224.89155 595.57031 220.76172 C 592.97527 214.13821 587.90848 200.16254 586.98633 197.08203 C 586.45945 195.32203 584.87326 190.06439 583.46094 185.40039 C 582.04862 180.73639 580.52916 175.4807 580.08398 173.7207 C 578.10132 165.88208 576.00561 156.65075 575.07031 151.64062 L 574.05469 146.20117 L 574.65234 143.96094 C 575.446 140.9925 575.37518 136.74365 574.48242 133.74219 C 574.11938 132.52172 573.88027 131.46543 573.95117 131.39453 C 574.15171 131.19399 576.27065 135.7915 576.71875 137.40039 C 577.30323 139.49899 577.50047 139.53911 577.92578 137.63867 C 579.33772 131.32949 578.79445 126.19112 576.26953 121.99805 C 575.63474 120.94393 575.07206 119.41935 574.82422 118.07422 C 574.16485 114.60232 572.33636 111.93022 569.20117 109.86133 L 567.78906 109.11133 L 569.18555 107.55859 C 572.46565 103.91033 573.88498 98.292584 572.81836 93.177734 C 571.05935 84.742664 562.34397 78.874847 554.07617 80.560547 C 547.89994 81.819812 543.19569 85.961666 541.46484 91.660156 L 540.80273 93.835938 L 539.55859 93.396484 C 535.8302 92.081034 530.08496 92.233384 524.21094 93.802734 C 520.56528 94.776754 520.09164 94.785421 517.76953 93.925781 C 513.92092 92.501021 508.52888 92.288441 504.29883 93.394531 C 503.37051 93.637271 502.52674 93.738711 502.42383 93.619141 C 502.32091 93.499571 501.97558 92.680781 501.65625 91.800781 C 499.16333 84.930791 491.61872 80.533393 484.2832 81.673828 C 475.94797 82.969688 469.94369 90.413441 470.56445 98.681641 C 470.8689 102.73659 472.18457 105.77667 474.89062 108.68555 C 475.67084 109.52426 476.25029 110.25188 476.17969 110.30078 C 476.10906 110.34967 474.90019 110.70743 473.49219 111.09766 C 471.86329 111.54912 467.96361 113.3058 462.77148 115.92773 C 458.28348 118.1941 453.34055 120.59145 451.78711 121.25391 C 448.30484 122.73891 447.1349 123.85039 437.49023 134.83984 C 429.05736 144.44853 429.99482 143.48166 417.17188 155.78906 C 405.72814 166.77269 400.58659 171.96026 398.04688 175.08203 C 397.15197 176.18203 396.26065 177.08203 396.06641 177.08203 C 395.14021 177.08203 391.10256 179.37521 389.89453 180.58789 C 387.36493 183.12729 385.68344 187.83197 386.08398 191.25195 C 386.20949 192.32363 386.06508 193.42723 385.59961 194.93164 C 384.5351 198.37236 385.15074 202.52322 387.02734 204.55664 C 387.41496 204.97663 388.52419 205.907 389.49219 206.625 C 390.46019 207.34299 392.29537 209.03681 393.57031 210.38867 C 396.29783 213.28074 397.13842 213.73648 400.54102 214.16602 C 402.36188 214.39589 407.3541 215.90236 417.97266 219.42773 C 426.15666 222.14483 433.26089 224.52909 433.75977 224.72656 L 434.66602 225.08594 L 432.82422 228.52344 C 431.81114 230.41414 430.39549 233.08121 429.67773 234.44922 C 429.08288 235.58297 427.45339 238.13252 425.36719 241.28125 C 421.39101 238.29797 417.32847 235.3264 413.62305 232.72266 C 400.90635 223.78676 397.22428 220.91478 391.20508 215.23828 C 389.26448 213.40828 386.26256 210.61525 384.53516 209.03125 C 379.28286 204.21485 367.54022 191.10803 361.51172 183.33203 C 353.16902 172.57103 344.94505 160.51739 337.71875 148.46289 C 328.06605 132.3606 323.47686 125.92784 318.72266 121.83594 C 312.06816 116.10864 305.84333 113.50787 298.58203 113.42188 C 294.80483 113.37697 292.4766 113.73518 289.1875 114.86328 C 287.5562 115.42278 287.0799 115.45904 285.5332 115.14844 C 278.8592 113.90214 274.17591 114.32568 267.57031 117.20508 C 262.62371 119.54878 259.30672 122.44248 252.01172 130.77148 C 249.30392 133.86308 245.12265 138.19259 242.71875 140.39258 C 231.48705 150.67168 227.77933 156.76594 227.73633 165.02734 C 227.70903 170.30204 229.38134 174.81788 233.27734 179.98828 C 236.69974 184.53008 241.75108 188.48133 244.70508 188.92773 L 245.94336 189.11328 L 244.63477 187.71289 C 242.39127 185.30899 241.04447 183.4699 240.20117 181.6582 C 239.04857 179.1822 239.18769 178.19517 240.36719 180.48047 C 241.63109 182.92937 245.37729 186.84549 248.27539 188.74609 C 249.55869 189.58769 251.79163 190.73146 253.23633 191.28906 C 255.73373 192.25296 259.55098 193.23753 259.83398 192.99023 C 259.90658 192.92673 259.10258 191.97375 258.04688 190.87305 C 256.99118 189.77225 255.94631 188.53113 255.72461 188.11523 L 255.32227 187.35938 L 256.39258 187.95508 C 256.98138 188.28298 259.00533 190.07169 260.89062 191.92969 C 264.54163 195.52769 265.15676 196.52323 267.03516 201.86133 C 268.10066 204.88923 270.9431 208.56075 274.2793 211.21875 C 277.059 213.43335 279.47925 214.70742 282.37305 215.47852 L 284.50195 216.04492 L 284.50195 217.49805 C 284.49585 219.24755 283.38345 227.11414 282.90625 228.77734 C 282.59165 229.87364 282.25107 230.13533 278.41797 232.23633 C 273.87767 234.72493 272.64122 235.63079 271.79102 237.08789 C 271.48162 237.61819 270.66677 238.34116 269.98047 238.69336 C 268.67977 239.36106 265.14497 242.69739 264.29688 244.05859 L 263.80859 244.84375 L 261.91797 244.00391 C 258.48837 242.47981 255.90332 241.76146 253.26562 241.59766 L 250.54492 241.66797 L 249.36719 243.63477 C 247.65009 246.54957 245.83339 251.02507 245.30859 253.63867 C 244.23619 258.98037 244.44383 264.7406 245.86133 268.9668 L 246.61133 271.20312 L 244.73047 273.39844 C 242.28707 276.24934 238.10742 281.77645 238.10742 282.15625 C 238.10742 282.55305 241.04662 284.72491 243.22852 285.94141 C 244.71232 286.76871 247.41066 287.98182 250.47656 289.19922 C 251.14816 289.46592 251.1067 289.60526 248.8418 294.85156 C 247.5644 297.81036 245.73368 301.96027 244.77148 304.07227 C 243.80928 306.18427 242.75453 308.53232 242.42773 309.29102 C 241.81073 310.72382 240.8668 311.61085 239.8418 311.96875 C 236.8467 313.01455 235.93191 315.01642 236.50391 317.16992 C 236.61661 318.54302 236.35832 318.56429 235.35742 319.21289 C 231.80922 320.77859 232.51306 323.01105 232.75586 324.28125 C 232.87636 324.91155 232.60563 325.40184 231.51562 326.52344 C 229.79453 328.29424 229.37204 329.71619 229.65234 332.80859 C 229.82688 334.2322 229.78697 335.01924 229.16211 336.20703 C 225.83158 331.82727 224.02979 329.65878 219.93164 325.01172 C 218.20334 323.05192 216.78906 321.23501 216.78906 320.97461 C 216.78906 320.71411 216.50044 320.135 216.14844 319.6875 C 215.79644 319.24 215.50781 318.48933 215.50781 318.01953 C 215.50781 317.07313 213.95781 315.29492 213.13281 315.29492 C 212.84451 315.29492 212.62891 315.02532 212.62891 314.66602 C 212.62891 314.32012 212.21012 313.56052 211.69922 312.97852 L 210.77148 311.91992 L 212.84961 306.32812 C 213.99271 303.25192 215.23739 299.89715 215.61719 298.87305 C 216.12969 297.49115 216.78767 296.55117 218.16797 295.23047 L 220.0293 293.45117 L 219.16992 292.55469 L 218.3125 291.6582 L 219.47656 287.55664 C 220.60806 283.56984 222.2057 276.13381 222.2207 274.78711 C 222.2248 274.42041 222.78163 273.52252 223.45703 272.79102 C 225.14283 270.96492 227.88519 265.90591 228.33789 263.78711 C 228.81319 261.56231 228.53298 258.19392 227.70898 256.20312 C 227.48338 255.65792 227.10547 254.33984 227.10547 254.33984 C 227.10547 254.33984 226.99503 252.64152 226.95703 251.60352 C 226.85633 248.86162 226.72298 248.29463 225.64258 246.01953 C 224.22768 243.04023 222.66723 241.42976 220.20703 240.41016 C 219.08323 239.94426 218.37623 239.44306 218.26953 239.03516 C 218.10513 238.40646 217.92332 238.39718 209.44922 238.58398 L 200.79492 238.77539 L 198.57031 237.66016 C 197.34611 237.04766 195.41329 235.70308 194.27539 234.67188 C 193.13529 233.63868 191.7616 232.69978 191.2168 232.58008 C 190.2992 232.37858 190.22852 232.26403 190.22852 230.99023 C 190.22852 229.65253 190.25833 229.61322 191.42773 229.41992 C 192.08773 229.31102 193.13205 229.22094 193.74805 229.21094 C 196.26965 229.18724 199.02671 227.01526 199.75781 224.47656 C 199.94501 223.82646 200.43405 221.63923 200.84375 219.61523 C 201.58515 215.95233 201.5902 215.94256 201.7832 217.53516 C 201.8902 218.41516 201.8594 219.99357 201.7168 221.04297 C 201.5722 222.09247 201.51303 223.00622 201.58203 223.07422 C 201.65053 223.14282 202.46778 222.94707 203.39648 222.63867 C 204.55868 222.25267 205.54505 221.60314 206.56445 220.55664 C 209.19415 217.85674 210.04039 215.11476 210.30859 208.41406 L 210.49414 203.77344 L 210.94922 205.375 C 211.19902 206.255 211.49813 208.392 211.61523 210.125 L 211.82812 213.27539 L 213.4082 212.20508 C 214.2764 211.61608 215.46117 210.43638 216.04297 209.58398 C 217.69737 207.16028 218.13954 205.30833 218.24414 200.36133 C 218.29574 197.91833 218.49587 195.69085 218.69727 195.31445 C 219.43467 193.93675 220.30469 189.67852 220.30469 187.48242 C 220.29889 184.38932 219.0596 180.94879 216.3457 176.49609 C 213.597 171.98629 213.02607 170.43988 212.75977 166.76758 C 212.13687 156.07208 207.89693 149.58026 199.42773 145.09766 C 197.25443 144.06726 192.71335 142.66464 190.50195 142.49414 C 189.40435 142.49404 189.14419 141.99529 187.99609 140.87109 C 185.91949 138.83769 182.12557 136.34405 179.73438 135.43945 C 173.98778 133.26545 166.6138 133.50967 158.7207 136.13477 C 154.7033 137.47087 148.50835 140.73952 142.31055 144.79492 C 138.43645 147.32992 136.4458 148.42464 134.8418 148.90234 C 131.7432 149.82514 127.31287 152.13498 125.38867 153.83008 C 123.31887 155.65348 121.92765 157.81227 121.00195 160.63867 C 120.82045 161.19267 120.86068 161.7592 120.58008 162.3418 C 120.24378 163.0398 119.57674 163.73548 119.27734 164.11328 C 118.72814 164.80638 117.83943 166.24851 117.30273 167.31641 C 114.77873 172.33861 115.27334 177.94124 118.58984 181.90234 C 119.95264 183.53054 119.972 183.58849 119.875 185.67969 C 119.7652 188.05609 120.55934 190.9179 121.93164 193.0918 C 122.79584 194.4612 123.34961 194.47631 123.34961 193.13281 C 123.34961 192.35691 123.42111 192.40459 124.25781 193.71289 C 124.75811 194.49529 125.90183 195.81729 126.79883 196.65039 C 128.47383 198.20619 131.16713 199.74303 131.54883 199.36133 C 131.66683 199.24333 131.37273 198.58258 130.89453 197.89258 C 130.05233 196.67718 129.10133 194.12358 129.11133 193.08398 C 129.11303 192.80388 129.54843 193.33031 130.07812 194.25391 C 132.00162 197.60791 136.30975 200.91072 139.62695 201.57422 C 140.59305 201.76742 140.60265 201.78895 140.37695 203.25195 C 140.25115 204.06715 140.1543 206.96731 140.1543 209.69531 C 140.1613 215.51811 140.497 216.74575 143.1582 220.68945 C 144.7883 223.10515 145.69929 223.83636 145.30469 222.41406 C 145.19479 222.01806 145.02247 220.83139 144.92188 219.77539 L 144.73828 217.85547 L 145.8418 220.31445 C 148.0995 225.34895 150.38074 228.29311 152.96484 229.50781 C 154.97984 230.45491 155.16039 230.35401 154.24219 228.78711 C 153.79479 228.02371 153.42969 227.30154 153.42969 227.18164 C 153.42969 227.06184 154.37505 227.96571 155.53125 229.19141 C 158.05315 231.86471 160.20698 233.05469 162.52148 233.05469 L 164.12695 233.05469 L 162.37891 234.83398 C 159.01711 238.25208 160.20763 238.0265 145.95312 237.9375 C 145.95312 237.9375 134.06858 237.32507 133.51758 237.85938 C 133.28598 238.08398 133.6582 238.81641 133.6582 238.81641 C 133.797 239.76221 133.78001 239.77539 132.31641 239.77539 C 130.37861 239.77539 127.9401 240.99517 126.2793 242.79688 C 125.8433 243.26988 125.01758 244.07422 125.01758 244.07422 C 125.01758 244.07422 124.05568 244.48908 123.77148 244.58008 C 121.83728 245.19758 119.32686 246.73343 118.25586 247.95312 C 115.30866 251.30983 114.87483 255.62109 117.14453 258.99219 L 117.91016 260.13086 L 113.20312 265.07227 C 107.25412 271.31617 98.607987 279.73879 97.304688 280.55859 C 96.757288 280.90299 95.949766 281.20261 95.509766 281.22461 C 95.069766 281.24681 94.564672 281.30833 94.388672 281.36133 C 94.212672 281.41443 93.609628 281.2665 93.048828 281.0332 C 92.193828 280.6775 91.771894 280.06462 90.433594 277.23242 C 83.288494 262.11122 78.491213 249.19386 77.257812 241.75586 C 77.036312 240.41976 77.085281 239.82937 77.488281 238.98438 C 77.959481 237.99587 77.956937 237.74052 77.460938 235.76562 L 76.921875 233.61914 L 78.697266 231.75781 C 80.763666 229.59141 81.549497 227.93901 82.279297 224.22461 C 82.704797 222.05911 82.919353 221.53516 83.376953 221.53516 C 84.177153 221.53516 84.368687 220.65905 84.304688 217.28125 C 84.198987 211.68855 84.282016 210.33398 84.728516 210.33398 C 85.863716 210.33398 86.314531 209.50978 86.269531 207.52148 C 86.228331 205.69808 86.356262 205.32265 88.101562 202.12695 C 89.202463 200.11115 89.913266 198.44916 89.822266 198.10156 C 89.471866 196.76166 85.858819 196.03809 84.449219 197.02539 C 83.842619 197.45029 83.736625 197.34034 82.578125 195.08984 C 80.822125 191.67854 79.868175 190.81445 77.859375 190.81445 C 75.800775 190.81445 74.549869 191.92787 74.230469 194.04297 C 73.966969 195.78777 73.217084 196.74906 71.896484 197.03906 C 70.860384 197.26666 69.472575 198.62904 69.109375 199.77344 C 68.997375 200.12634 68.633481 200.41406 68.300781 200.41406 C 67.968181 200.41406 67.294234 200.91916 66.802734 201.53516 C 66.117734 202.39366 65.669872 202.6543 64.888672 202.6543 C 62.744472 202.6543 61.169119 203.83464 60.636719 205.83984 C 60.180419 207.55744 60.154822 238.54263 60.607422 240.89453 C 60.810722 241.95053 61.755131 246.77523 62.707031 251.61523 C 63.658831 256.45523 64.883988 263.00583 65.429688 266.17383 C 68.779387 285.62233 71.269581 294.38989 74.988281 299.83789 C 76.099681 301.46599 76.256187 301.9168 76.242188 303.4668 C 76.208388 307.2268 79.47535 310.66759 83.71875 311.33789 C 84.54075 311.46779 85.288981 311.81079 85.550781 312.17969 C 86.213581 313.11409 88.434819 313.99781 90.136719 314.00781 C 92.139118 314.01711 94.825037 312.97575 96.773438 311.43555 C 97.757437 310.65775 98.550434 310.25615 98.865234 310.37695 C 99.613134 310.66395 101.99665 309.65284 102.93945 308.64844 C 103.39085 308.16754 104.24348 306.81668 104.83398 305.64648 C 105.69328 303.94368 106.64269 302.83217 109.58789 300.07617 C 111.61189 298.18227 115.64673 294.31422 118.55273 291.48242 C 125.24443 284.96152 134.76778 275.93555 134.95508 275.93555 C 135.03368 275.93555 135.17362 277.52726 135.26562 279.47266 C 135.41282 282.57936 135.55135 283.24786 136.40625 284.97266 L 137.37891 286.9375 L 135.88477 288.22266 C 135.06207 288.92966 133.60704 290.27358 132.65234 291.20898 L 130.91602 292.9082 L 131.98828 294.01562 C 132.57788 294.62383 135.19549 296.81306 137.80469 298.88086 L 142.54883 302.64062 L 142.54883 304.04102 C 142.54883 305.88052 143.29104 308.68369 144.64844 311.96289 C 145.25294 313.42329 145.74805 314.69316 145.74805 314.78516 C 145.74805 314.87716 144.53513 313.98042 143.05273 312.79102 C 141.57023 311.60162 139.11425 309.98577 137.59375 309.20117 L 134.82812 307.77539 L 133.86328 308.89453 C 131.34088 311.81983 127.66048 321.00326 127.39258 325.03906 L 127.24414 327.26172 L 120.25586 329.37109 C 116.41256 330.53029 113.08914 331.58861 112.86914 331.72461 C 112.08804 332.20731 112.50392 334.37236 114.95312 342.53906 L 115.87891 345.62109 L 114.89258 346.19336 C 113.79048 346.83306 102.01753 355.11881 98.548828 357.69531 C 96.270028 359.38791 93.587891 361.89443 93.587891 362.33203 C 93.587891 363.08423 101.12427 373.63046 103.51367 376.22266 L 104.76367 377.57812 L 102.67773 379.63672 C 101.53113 380.76872 100.29905 382.16744 99.939453 382.74414 L 99.285156 383.79102 L 100.09375 384.82227 C 102.39345 387.75367 105.9125 390.91985 109.2207 393.03125 C 110.872 394.08525 110.92709 394.16523 110.74219 395.26953 C 109.72059 401.37003 108.79912 410.59809 108.29492 419.77539 C 108.10162 423.29539 107.81038 427.90167 107.64648 430.01367 C 107.48268 432.12567 107.21022 440.55037 107.04102 448.73438 C 106.41022 479.25238 105.95715 484.01408 103.18945 489.33398 C 101.74045 492.11918 99.553797 494.96984 93.091797 502.49414 C 83.818498 513.29204 79.868787 518.65252 76.867188 524.51172 C 75.743387 526.70532 74.941578 527.84687 74.080078 528.48047 C 73.150878 529.16377 72.273116 530.50055 70.291016 534.25195 C 67.784316 538.99615 66.05834 542.70321 64.369141 546.97461 C 63.592941 548.93741 62.584147 551.59198 59.623047 559.45508 C 58.060547 563.60448 55.281844 572.57628 53.777344 578.33398 C 51.068344 588.70178 46.932459 607.35363 44.943359 618.17383 C 42.173159 633.24293 40.484547 637.58506 35.123047 643.41016 C 32.677347 646.06746 32.422691 646.54654 32.150391 649.02734 C 31.963691 650.72804 31.444644 652.26072 29.902344 655.66602 C 27.493444 660.98502 23.403144 669.12245 20.277344 674.81445 C 16.977344 680.82375 13.734769 687.66754 12.980469 690.21094 C 11.708669 694.49864 10.174775 705.57359 9.859375 712.74609 C 9.663575 717.49399 11.622669 722.58365 18.292969 719.43945 C 21.132469 717.99965 26.815891 713.65241 30.337891 710.22461 C 32.943891 707.68811 38.341997 701.07059 40.404297 697.88672 C 42.898397 694.03622 47.718644 682.04829 50.839844 671.93359 C 53.863644 662.13439 54.352366 660.831 56.259766 657.4668 L 58.197266 654.05273 L 58.447266 649.8125 C 58.756066 644.5994 59.443122 642.29705 63.732422 632.09375 C 69.014121 619.53005 73.502653 610.02004 80.876953 595.77344 C 92.797652 572.74334 97.703331 564.61983 112.89453 542.73633 C 116.84363 537.04753 116.94922 536.83553 116.94922 534.61523 C 116.94922 532.81513 117.01349 532.68525 120.74609 526.99805 C 132.68859 508.80165 135.29416 503.75986 140.03516 489.69336 C 143.01146 480.86296 144.79695 474.83843 149.37305 458.17383 C 154.55135 439.31633 156.6319 430.97079 157.7168 424.71289 L 157.91602 423.57227 L 165.88086 423.71289 C 170.26166 423.79149 174.50711 423.75617 175.31641 423.63477 L 176.78906 423.41406 L 176.78906 421.5332 C 176.78906 420.4984 176.90041 419.58205 177.03711 419.49805 C 177.17381 419.41355 177.98856 422.17657 178.84766 425.63867 C 180.34189 431.66075 182.13658 437.93349 184.21289 444.48047 C 182.8801 446.99534 182.86616 447.78113 183.6875 448.2207 C 184.14849 448.4674 184.80825 448.56312 185.51562 448.52734 C 187.97354 455.97763 190.80226 463.79819 194.04883 472.09375 L 199.24609 485.375 C 203.81339 497.0452 208.66685 506.08336 213.81445 512.50586 C 214.87253 513.82601 216.87588 516.22618 218.99414 518.74609 C 219.09133 520.92337 219.35949 523.13642 219.83594 525.40039 C 220.56349 528.71879 222.29781 532.76562 223.93164 534.95312 L 224.85156 536.18359 L 223.31836 537.83203 C 221.33922 539.95853 218.58786 544.05663 217.31836 546.76953 C 216.02962 549.52343 215.28862 553.73743 215.50977 557.05273 C 215.65186 559.18273 215.88912 560.00997 217.00586 562.26367 C 217.31854 562.87643 217.65941 563.45278 218.01562 564.00977 C 217.80995 564.65141 217.74257 564.87206 217.53711 565.51172 C 215.50201 571.84772 212.7298 580.56105 211.375 584.87305 C 210.0202 589.18505 207.11352 597.75211 204.91602 603.91211 C 202.71852 610.07211 200.16122 617.27211 199.23242 619.91211 C 197.59172 624.57531 195.47188 630.32605 191.39258 641.18945 C 185.87908 655.87255 178.10533 672.80963 172.42383 682.51953 C 171.46103 684.16503 168.32954 689.90348 165.46484 695.27148 C 159.50014 706.44843 151.86957 719.96819 151.10547 720.71289 C 150.82037 720.99079 149.68884 721.7515 148.58984 722.4043 C 143.01814 725.7138 135.81017 730.44006 132.24219 735.53516 C 130.69176 737.74916 130.89622 738.75485 132.9043 739.49805 C 133.73782 739.80644 135.31842 740.19596 136.41992 740.36523 L 136.42383 740.36523 C 139.54327 740.84234 153.85815 740.54756 157.46289 739.93164 C 162.17549 739.12644 166.33685 737.92623 169.18555 736.54883 C 172.67145 734.86323 174.12229 733.20682 176.11719 728.64062 C 178.39269 723.43192 182.76999 717.02679 186.55469 713.36719 L 187.86328 712.10156 L 187.86328 713.00195 C 187.86328 713.49685 187.70547 717.42748 187.51367 721.73828 L 187.16602 729.57617 L 188.05469 730.50391 C 188.79079 731.27231 189.20234 731.43164 190.46094 731.43164 C 193.21804 731.43164 193.49186 731.18387 193.91406 728.29688 C 194.11836 726.89927 194.71112 724.04422 195.23242 721.95312 C 196.19452 718.09382 196.53889 717.33761 202.86719 705.07031 C 205.98299 699.03026 204.47087 692.43448 204.66797 685.70898 C 204.67027 679.63518 203.603 673.06258 205.5918 667.27148 C 208.062 660.37938 210.88467 654.56891 218.23047 641.25391 C 228.81667 622.06521 234.5258 612.18403 245.625 593.83203 C 249.26512 587.81333 252.26941 582.55341 254.82617 577.78711 C 256.61486 580.34601 258.75998 583.45561 260.80664 586.49414 C 265.58534 593.58884 269.10581 598.66589 278.44531 611.93359 C 282.18861 617.25139 288.12178 627.29394 291.01758 633.21484 C 297.10488 645.66134 297.74805 647.14861 297.74805 648.75781 C 297.74805 650.88731 298.18202 651.84426 299.98242 653.69336 C 301.19162 654.93536 301.65876 655.72454 302.06836 657.21484 C 302.99976 660.60354 304.219 664.21926 304.875 665.53516 C 305.5732 666.93566 308.4868 670.75197 311.3457 674.01367 C 316.283 679.64677 318.87787 683.80512 321.44727 690.19922 C 323.65717 695.69862 324.531 697.22618 326.9668 699.83008 C 330.3792 703.47795 336.13128 706.65228 343.83398 709.14258 C 346.19243 709.88836 350.11461 710.77582 354.17383 711.23242 C 352.69938 714.5181 351.53774 716.68338 351.04102 716.94922 C 350.31936 717.33542 349.64322 718.63292 349.36523 720.16992 C 349.2413 720.85502 348.08638 722.90641 346.57422 725.12891 C 341.84302 732.08271 341.22359 733.10756 340.57422 735.03516 C 339.35198 738.66336 338.92577 746.63544 339.58203 753.58594 C 339.77373 755.57674 339.35049 761.83312 343.37305 762.04102 C 346.78103 762.04102 354.54385 757.2842 360.80859 752.5 C 365.49851 748.9185 372.85491 741.31249 374.7793 738.05469 C 376.76519 734.69269 380.41197 724.36978 385.01562 709.08008 C 387.79012 699.86542 389.0877 696.30294 391.25391 691.96094 C 392.94971 688.56174 393.01852 688.23322 393.30469 682.10352 L 393.53906 677.08008 L 395.39453 671.64062 C 397.20128 666.34053 401.45068 655.85358 404.53711 649.08008 C 404.53817 649.07776 404.5458 649.06289 404.54688 649.06055 C 407.38195 656.46519 407.85665 659.06044 408.82031 665.41602 C 409.43941 669.49922 410.5895 678.64353 411.375 685.73633 C 412.1605 692.82903 413.09562 700.61918 413.45312 703.04883 C 413.81052 705.47843 414.10156 707.82327 414.10156 708.25977 C 414.10156 708.76957 413.8807 709.48118 412.5957 710.98828 C 410.1041 713.91068 407.59685 717.81491 406.31055 721.44141 C 402.86595 731.47491 404.64334 732.70433 413.39844 729.70703 C 418.96164 727.78033 426.28677 723.6604 432.82227 718.7793 C 436.74387 715.8505 438.98231 713.629 440.84961 710.8125 C 442.04501 709.0099 442.10041 708.80799 442.06641 706.49609 C 442.04701 705.16239 441.63564 702.05575 441.15234 699.5918 C 440.44524 695.9878 440.24198 693.89109 440.10938 688.87109 C 440.01938 685.43909 439.99845 682.35006 440.06445 682.00586 C 440.15705 681.52496 440.88634 682.23018 443.21094 685.04688 C 448.32424 691.24228 449.19939 692.07227 450.61719 692.07227 C 452.00709 692.07227 454.10352 690.52244 454.10352 689.49414 C 454.10352 689.16874 453.46665 687.34757 452.68945 685.44727 C 451.08235 681.51777 450.86292 680.45352 449.94922 672.16602 C 449.24932 665.81782 448.22951 661.12209 446.94141 658.30859 C 445.91511 656.06679 442.14194 652.14459 436.02344 646.96289 C 430.52904 642.30969 428.20567 639.9044 425.88867 636.4707 C 423.45747 632.8677 421.67467 628.81898 420.07617 623.27148 C 419.78865 622.27366 419.43598 620.94153 419.05469 619.45898 C 422.5772 612.29866 425.736 605.83386 426.59961 603.96094 C 427.77635 601.40894 432.31063 592.33678 436.67578 583.80078 C 449.67393 558.38298 450.27606 557.20229 455.99609 545.99609 C 459.87379 538.39929 461.49219 534.91465 461.49219 534.15625 C 461.49286 533.56525 461.80273 532.57694 462.17969 531.96094 C 464.83998 527.61364 468.18279 521.40852 470.2832 516.91992 C 473.75076 509.50962 475.31026 507.26158 487.42383 492.20898 C 494.68076 483.19148 495.71586 481.78074 500.26367 474.68164 C 508.03292 462.55394 512.29137 454.7944 519.85547 439 C 528.1323 421.7173 529.457 418.71856 532.38477 410.60156 L 533.625 407.16016 L 535.5918 407.16016 L 537.55859 407.16016 L 537.75781 409.16016 C 538.96178 421.31156 539.56221 426.43816 541.34375 439.75586 C 546.12039 475.46356 546.34479 481.31579 543.55273 497.21289 C 542.93724 500.71739 541.35314 507.84523 540.03125 513.05273 C 535.96296 529.07933 535.08394 535.0317 534.94922 547.5 C 534.89031 552.9527 535.22623 555.74532 533.83789 557.01172 C 532.67748 559.18002 535.3175 579.27158 537.76953 590.52148 C 538.58685 594.27128 540.45947 601.54541 543.41211 612.44141 C 545.24052 619.18871 546.91562 625.46069 549.00977 633.40039 C 549.77572 636.30439 551.06703 641.11344 551.87891 644.08594 C 554.96927 655.40044 558.77148 677.18115 558.77148 683.56445 C 558.77148 685.37975 558.91354 686.10144 559.39844 686.77344 L 560.02344 687.64062 L 559.0957 691.40234 C 557.95032 696.04444 556.97191 701.83024 556.51367 706.68164 C 556.4921 706.91008 556.4891 707.05132 556.4707 707.25977 C 552.32517 713.91167 549.60073 720.01089 549.22461 723.60938 C 548.94534 726.28138 549.42014 727.20396 551.63477 728.28906 C 553.34718 729.12806 553.65608 729.17162 557.75781 729.14062 C 558.06501 729.1383 558.36728 729.12367 558.67188 729.11523 C 558.82425 731.10016 558.97731 732.73791 559.06836 732.91992 C 559.20039 733.18392 561.52785 734.1639 564.24023 735.0957 C 568.91726 736.7018 568.48124 736.89538 571.55078 736.61328 C 576.45187 736.12288 577.93368 735.79487 578.46484 735.26367 C 578.79179 734.93677 578.93164 734.07515 578.93164 732.40625 C 578.93164 730.10695 578.95611 730.03133 579.58008 730.36523 C 580.65777 730.94203 586.57154 736.76505 588.60156 739.24805 C 591.32476 742.57885 591.91002 742.8156 601.01172 744.2793 C 607.2586 745.2839 614.32408 745.71484 624.53125 745.71484 C 635.75541 745.71424 641.96328 745.12686 642.91797 743.97656 C 643.59365 743.16246 642.3812 741.36803 639.125 738.36133 C 630.53563 730.42983 619.57659 721.60796 615.80469 721.00586 C 615.44341 720.91146 614.78567 720.2626 614.34375 719.5625 C 613.59505 718.3765 611.71619 717.24023 610.50195 717.24023 C 609.76499 717.24023 609.02975 716.23347 602.10352 704.10938 C 603.06275 702.584 604.04734 700.9606 605.11719 699.0957 C 608.4194 693.3395 613.04317 686.82309 617.60352 681.49609 C 620.1144 678.56319 623.18609 674.33223 624.68945 671.73633 C 625.58727 670.18603 627.7455 665.02335 629.4375 660.37695 C 631.54659 654.58515 634.039 650.20301 640.42578 641.06641 C 644.54191 635.17811 648.34228 630.41355 653.73438 624.37695 C 655.54231 622.35295 659.20258 618.11222 661.86914 614.95312 C 664.53567 611.79392 670.03945 605.31353 674.09961 600.55273 C 685.85731 586.76593 689.57145 582.13784 697.0918 571.89844 C 700.71903 566.95974 704.97131 561.61715 710.5957 554.93555 C 715.37099 549.26265 727.00783 535.17507 732.70508 528.16797 C 742.92015 515.60427 744.51955 512.63183 747.01562 501.58203 C 747.11728 501.13203 747.20727 500.63975 747.30664 500.18164 C 747.34682 500.26348 747.40363 500.36222 747.44141 500.44141 C 749.08461 503.88611 749.93822 506.82808 749.94922 508.67188 C 749.95622 510.78528 749.43424 510.88776 748.93164 510.69336 C 746.34354 509.69206 745.97266 510.20257 745.97266 514.76367 L 745.97266 518.08984 L 748.29102 519.56055 C 757.66212 525.50235 764.62305 538.31724 762.93555 546.52344 C 762.71875 547.57794 762.46786 548.56113 762.38086 548.70703 C 762.29346 548.85283 761.56562 547.98891 760.76172 546.78711 C 758.43482 543.30861 754.15985 539.32227 752.74805 539.32227 C 752.15125 539.32057 748.53125 542.83647 748.53125 543.41797 C 748.53125 543.68197 749.79886 545.20925 751.34766 546.81055 C 757.48216 553.15305 760.75372 559.43303 762.10352 567.45703 C 763.03702 573.00653 762.45181 581.777 760.82031 586.6582 C 759.46141 590.7235 756.73118 594.55309 753.67188 596.68359 C 752.29747 597.64069 753.10581 597.54005 755.41211 596.46875 C 759.95421 594.35885 763.31334 590.00935 765.52344 583.37305 C 767.10704 578.61825 767.52783 575.71359 767.54883 569.40039 C 767.56283 565.11919 767.42966 563.47992 766.85156 560.73242 L 766.13867 557.34375 L 766.94531 555.29297 C 769.38451 549.08647 769.57866 543.20045 767.60156 535.40625 C 766.34806 530.46505 764.07047 525.68724 760.67188 520.86914 C 759.91048 519.78974 759.73242 519.20552 759.73242 517.79492 C 759.73242 510.55962 757.83889 498.41748 755.67969 491.80078 C 754.2538 487.43135 752.67444 483.42205 750.70898 479.32031 C 752.00185 468.66311 752.99819 456.1878 753.75586 441.01562 C 754.42248 427.66655 754.87303 419.43202 755.16406 415.23438 C 758.91758 421.76677 763.7447 427.36391 768.87305 431.02344 C 770.51039 432.19184 773.05613 433.62848 774.72852 434.40625 C 781.293 447.23572 789.41363 463.02216 792.51953 468.96094 C 797.71605 478.89724 808.4406 496.86513 815.66406 507.73633 C 823.6636 519.77553 823.7423 519.90424 827.9375 527.93164 C 831.4258 534.60624 834.98144 542.52687 839.05664 552.69727 C 842.03934 560.14097 847.03512 570.21092 851.04102 576.85742 C 852.37153 579.06488 854.10765 582.05193 855.53516 584.55078 C 855.98639 587.34309 856.57833 591.64885 856.99609 595.30078 C 857.81349 602.44731 858.09587 606.38107 858.73047 619.46094 C 858.80737 621.04494 858.7312 626.08416 858.5625 630.66016 C 857.8583 649.76182 857.38554 653.75984 854.39844 665.83789 C 852.20704 674.6991 851.69147 676.41193 850.85938 677.59961 C 849.36747 679.72911 848.98916 682.03358 848.16406 694.02148 C 847.31296 706.38585 847.83715 712.22441 849.96875 714.12891 C 850.88305 714.94591 851.18381 715.03564 852.57031 714.90234 C 859.69791 714.02164 867.53787 703.21445 871.57617 695.76367 C 873.59097 690.98645 874.2825 687.65344 874.5918 681.2207 C 874.8266 676.33916 875.37596 669.69578 876.47266 658.5 L 876.69336 656.26172 L 877.55078 657.91016 C 878.02288 658.81707 879.07527 661.76961 879.88867 664.4707 C 883.02197 674.87585 883.18655 675.31778 884.68945 677.42383 C 888.08085 682.17644 894.23989 687.80282 899.21289 690.68945 C 903.23469 693.02398 908.9697 694.51208 911.4082 693.85547 C 911.57671 693.8101 911.73049 693.7571 911.87305 693.69531 C 912.91089 694.93705 913.89346 696.11947 915.21875 697.66797 C 920.99385 704.41581 922.68684 706.88027 925.40234 712.48047 C 929.54184 721.01757 933.46483 725.47816 941.39062 730.66406 C 949.29943 735.83896 956.86617 739.13103 962.54297 739.86523 L 962.54297 739.86719 C 966.25527 740.34729 972.50792 740.26925 974.41992 739.71875 C 976.84802 739.01975 977.27734 738.41052 977.27734 735.66992 C 977.27734 732.66852 976.63228 730.35637 974.36328 725.23438 C 971.02998 717.70988 967.93797 712.59632 963.95117 708.01172 C 963.00987 706.92932 959.47064 703.7603 956.08594 700.9707 C 947.32784 693.75266 945.6742 692.07936 938.2793 682.94336 C 929.7271 672.37766 925.08406 666.17871 922.78516 662.25781 C 919.00606 655.81211 915.50847 649.18328 915.66797 648.76758 C 915.89017 648.18858 915.04145 646.61122 914.18555 646.01172 C 913.58335 645.59022 913.5005 645.25902 913.5625 643.54102 L 913.63477 641.55859 L 911.89258 639.92773 L 910.15039 638.29883 L 907.82812 630.93945 C 904.11802 619.18543 899.52709 603.85363 895.56836 590.05273 C 895.86053 586.95482 896.19136 584.00187 896.54883 581.54102 C 898.28963 569.55724 900.12459 559.98454 902.74609 549.2207 C 908.23129 526.69814 908.3002 526.17706 908.8457 502.3418 C 909.319 481.65793 909.72836 470.5627 910.10156 468.36133 C 910.50526 465.98046 911.47964 462.25034 913.58594 455.00195 L 915.16016 449.58203 L 917.03516 449.06445 C 920.76876 448.03581 924.33771 446.03824 927.07031 443.44531 C 928.09921 442.46903 929.18721 441.84668 930.87891 441.26562 C 936.02461 439.49823 941.67152 435.50231 947.79102 429.29883 C 953.61502 423.39483 957.60827 418.17696 960.73047 412.38867 C 961.44247 411.06861 962.07758 410.04067 962.14258 410.10547 C 962.20738 410.1703 961.84113 411.31416 961.32812 412.64648 C 957.53933 422.48571 949.54409 432.85601 942.49219 437.08203 C 941.06609 437.93665 939.94877 438.68559 940.00977 438.74609 C 940.42467 439.16097 947.31234 436.71258 951.11914 434.79688 C 958.46054 431.10257 966.61462 423.53097 971.41992 415.94531 C 972.25672 414.62435 972.99741 413.60062 973.06641 413.66992 C 973.30041 413.90387 970.87663 419.44392 969.55273 421.70117 C 966.82093 426.35886 962.56255 431.3748 958.37305 434.86914 C 955.30895 437.42482 955.57184 437.82187 959.21484 436.13867 C 966.49244 432.77624 974.00027 427.02757 978.66797 421.24219 C 982.47331 416.52565 988.18301 407.02827 990.32031 401.86133 C 991.52401 398.95135 991.58204 399.13673 990.90234 403.70312 C 989.55834 412.73145 986.77032 420.46707 982.54492 426.88477 C 981.87282 427.9056 979.96639 430.14533 978.30859 431.86133 C 976.65089 433.57733 975.3996 434.98047 975.5293 434.98047 C 976.2373 434.98047 980.24983 432.65783 982.67773 430.8418 C 990.94833 424.65559 997.66645 415.18576 1001.0938 404.88672 C 1001.6598 403.18557 1002.2715 399.08643 1002.2715 396.98438 C 1002.2715 394.60719 1002.7361 395.76475 1002.9102 398.57422 L 1003.0703 401.15625 L 1005.7168 399.16016 C 1012.4084 394.11267 1018.3316 384.38032 1021.6465 372.98633 C 1022.5306 369.94742 1024.0313 362.63111 1024.7148 358.02148 C 1025.3603 353.66954 1025.2782 344.9513 1024.5566 341.06055 C 1022.8203 331.69876 1016.1965 316.96626 1009.1602 306.82031 C 1005.5634 301.63394 1001.0371 295.4869 998.79297 292.74023 C 997.64257 291.33223 996.91042 290.34199 997.16602 290.53906 C 997.42162 290.73612 999.86184 292.52085 1002.5898 294.50391 C 1010.268 300.08538 1015.3605 304.72198 1020.3301 310.66016 C 1033.7379 326.68109 1039.8713 342.50863 1038.75 358.19922 C 1038.1238 366.96265 1036.5112 371.52941 1031.7031 378.16797 C 1028.8503 382.10666 1028.8339 382.1371 1029.9629 381.4082 C 1034.0426 378.77438 1037.7337 375.00689 1040.959 370.18359 C 1043.5388 366.32564 1044.9475 363.06947 1045.9434 358.66211 C 1046.351 356.85846 1046.8441 355.08496 1047.0391 354.7207 C 1047.234 354.35645 1047.7545 352.71852 1048.1973 351.08008 C 1050.885 341.13279 1051.2892 329.2087 1049.2578 319.78906 C 1047.3778 311.07174 1043.3512 302.81747 1037.1523 294.98047 C 1029.0568 284.74555 1008.4725 268.13611 990.58984 257.4082 C 987.06984 255.29654 983.39964 253.0544 982.43164 252.42578 L 980.66992 251.2832 L 981.95117 251.49609 C 986.80677 252.30431 996.30651 255.79275 1003.0703 259.25 C 1007.8419 261.68897 1015.4374 266.64959 1019.9082 270.24805 C 1024.3081 273.78959 1031.3005 280.77013 1033.625 283.94141 C 1035.7097 286.78559 1036.4272 287.44291 1036.0234 286.13867 C 1035.4096 284.15597 1032.7697 279.75423 1030.0605 276.19531 C 1022.5696 266.35479 1008.2279 255.34845 994.91016 249.2207 C 989.76099 246.85143 987.34374 245.83076 982.43164 243.95312 C 978.42364 242.42107 973.16806 239.94637 967.9668 237.21875 C 968.14625 237.00011 968.33578 236.76346 968.47461 236.60938 C 969.87181 235.05857 970.04612 234.95886 970.54492 235.41016 C 971.65982 236.41926 972.68045 236.0348 974.12695 234.0625 C 974.86925 233.0505 976.40863 231.2505 977.54883 230.0625 L 979.62305 227.90234 L 981.44531 227.90234 L 983.26758 227.90234 L 983.43359 230.56836 C 983.68309 234.56876 985.2705 237.41827 987.5625 237.98438 C 988.9328 238.32288 989.43336 237.25153 989.44336 233.99023 C 989.44646 232.48943 989.67728 230.25348 989.95508 229.02148 C 990.71298 225.66098 990.86234 223.4918 990.39844 222.625 C 989.97464 221.833 986.79209 220.22266 985.65039 220.22266 C 985.28329 220.22266 984.83655 220.04227 984.65625 219.82227 C 982.86635 217.63807 982.57797 217.15345 982.66797 216.46875 C 982.72297 216.04935 982.54393 215.36421 982.26953 214.94531 C 981.80183 214.23161 981.83071 214.07029 982.72461 212.37109 C 983.80111 210.32459 983.89869 209.47973 983.17969 208.45312 C 982.59309 207.61572 981.21099 207.51218 979.87109 208.20508 C 979.01369 208.64848 978.90159 208.61273 977.24609 207.36523 C 976.29529 206.64873 974.76209 205.69133 973.83789 205.23633 C 971.84369 204.25483 971.82077 204.46747 974.38477 199.95117 C 978.88527 192.02377 980.2173 188.39784 980.2793 183.90234 C 980.3234 180.67064 979.90139 179.43052 978.49219 178.64062 C 977.69659 178.19462 977.5585 178.20666 976.7832 178.78906 C 976.3195 179.13746 975.26249 180.71873 974.43359 182.30273 C 973.60459 183.88673 971.79882 187.34242 970.41992 189.98242 C 966.66468 197.17202 962.0285 205.0034 959.7168 208.0625 C 958.5862 209.5585 956.29365 212.86988 954.62305 215.42188 C 952.23333 219.07271 951.01497 220.56783 947.66602 223.9375 C 943.7734 220.53507 940.07067 216.77922 937.875 213.82812 C 931.8844 205.77629 927.58093 197.7731 924.86133 189.62891 C 923.38493 185.20786 922.70527 181.85365 922.26367 176.81641 L 921.94336 173.15625 L 922.95898 171.0918 C 923.82978 169.32295 923.97795 168.66166 924.00195 166.47852 C 924.02465 164.40396 924.10297 164.02904 924.41797 164.45898 C 925.37857 165.7703 925.33113 170.40863 924.32812 173.31836 C 924.03712 174.1639 923.86622 174.92276 923.94922 175.00586 C 924.22992 175.28645 927.18431 172.61278 928.09961 171.25 C 932.13281 165.1162 931.72454 157.50662 927.68164 149.30664 L 926.6543 147.78125 L 927.84961 148.90039 C 929.13421 150.10285 929.95387 151.49885 930.57227 153.54102 C 931.24427 155.76024 931.33631 155.82028 931.56641 154.18164 C 931.86281 152.07019 931.37234 147.68333 930.61914 145.70117 C 929.17474 141.89968 925.29743 138.02638 921.92383 137.01562 L 920.67969 136.64258 L 921.3457 135.5625 C 922.6602 133.43629 923.27148 129.3639 922.60938 127.14062 C 922.38938 126.4019 922.34025 126.45062 921.96875 127.77539 C 921.74755 128.56444 921.1855 129.93346 920.7207 130.81641 L 919.875 132.41992 L 919.76172 131.30078 C 919.69902 130.68478 919.82025 129.20175 920.03125 128.00391 C 920.57455 124.92121 919.89181 122.19009 918.19141 120.65234 C 917.57651 120.09628 917.55487 120.12372 917.19727 121.9043 C 916.99627 122.90489 916.4573 124.3623 916 125.14258 C 915.1973 126.51226 915.1286 126.5519 914 126.33008 C 913.357 126.20371 911.67948 125.933 910.27148 125.72656 L 907.71094 125.34961 L 907.48047 121.20508 C 907.35387 118.9255 907.1653 116.45737 907.0625 115.71875 C 906.8827 114.42631 906.8256 114.36699 905.5332 114.17578 C 902.2516 113.6903 894.89043 115.23968 890.39062 117.36328 C 885.74672 119.55484 881.97926 122.45488 880.72266 124.80273 C 880.46756 125.27945 880.14607 125.39982 879.41797 125.29297 C 878.67797 125.18435 878.25122 124.8123 877.60352 123.70703 C 877.13792 122.91262 875.80277 121.2914 874.63477 120.10547 C 871.91607 117.34483 868.39301 115.56124 864.19141 114.81836 C 861.19911 114.28928 852.53533 114.07444 850.67773 114.48242 C 849.48903 114.74352 849.48443 114.75441 848.95703 119.14062 C 848.47453 123.15261 848.62421 123.7148 846.75781 110.82031 C 846.05731 105.98032 844.9142 98.349328 844.2168 93.861328 C 843.5194 89.373328 842.42601 81.596083 841.78711 76.580078 C 840.28411 64.781318 839.767 62.377992 837.7832 57.914062 C 836.3164 54.613513 830.42891 49.417266 824.28711 46.003906 C 822.47401 44.996256 820.27062 43.643377 819.39062 42.998047 C 818.51063 42.352717 817.2378 41.545155 816.5625 41.203125 C 815.8871 40.861095 814.07646 39.249094 812.53906 37.621094 C 810.69516 35.668444 809.50949 34.660156 809.05469 34.660156 z M 556.69141 87.322266 C 559.30917 87.323186 561.2052 88.099732 563.02539 89.919922 C 567.38283 94.277382 566.18614 101.63889 560.66211 104.45703 C 559.95075 104.81994 558.69311 105.19512 557.86914 105.29102 C 556.53721 105.4461 556.28353 105.36844 555.57227 104.59961 C 555.13227 104.124 553.15188 102.29511 551.17188 100.53516 C 547.65937 97.413057 547.57227 97.303918 547.57227 95.986328 C 547.57227 91.185238 551.63931 87.320266 556.69141 87.322266 z M 487.41992 88.992188 C 489.82555 88.987238 491.7731 89.714533 493.56641 91.289062 C 495.01076 92.557253 496.37109 95.223386 496.37109 96.785156 C 496.37109 97.833196 496.18408 98.104918 494.68555 99.236328 C 492.37845 100.9782 489.32625 104.02822 488.08789 105.82812 C 487.52277 106.64949 486.95946 107.31113 486.83594 107.29883 C 486.19175 107.23447 483.19768 106.07955 482.70312 105.70508 C 478.029 102.67622 477.39332 97.971167 479.55469 93.617188 C 481.23136 90.590377 483.93944 88.999188 487.41992 88.992188 z M 461.32227 140.70117 C 461.88976 140.70971 462.77268 140.84319 464.37305 141.10938 C 468.95996 141.87228 468.89693 141.73583 467.39258 147.73633 C 464.65536 158.65444 460.87679 170.07153 454.18555 187.64062 C 450.48431 197.35898 449.49844 199.8123 448.52148 201.74023 C 448.08084 202.60977 447.68748 203.31123 447.64648 203.29883 C 447.60543 203.28637 445.94609 202.49785 443.74609 201.83203 C 437.59412 199.97016 431.96188 197.87355 427.69727 195.95508 C 426.00516 195.19387 423.5449 194.38441 422.88867 193.76562 C 422.27967 193.19137 422.79536 192.91372 422.33398 192.47852 C 421.48273 191.42377 421.25477 192.02936 421.48242 191.42383 C 421.6422 190.99878 422.56093 189.89118 422.34375 189.12891 C 421.98911 187.88248 421.25591 188.0203 421.90234 187.26758 C 422.16352 186.96346 423.51428 185.95071 424.01172 185.44922 C 426.26176 183.18085 427.56031 181.53211 431.53711 174.93555 C 437.42085 165.17589 447.36353 152.11484 455.05469 144.04102 C 457.02353 141.97424 457.58518 141.56055 458.42383 141.56055 C 458.97731 141.56055 459.76006 141.32985 460.16406 141.04688 C 460.50243 140.80985 460.75477 140.69264 461.32227 140.70117 z M 481.14062 155.00195 C 481.18129 155.00195 481.78156 155.27218 482.47461 155.60352 C 483.16767 155.93486 484.17689 156.3 484.71875 156.41602 C 485.69347 156.62474 485.70276 156.64679 485.5625 158.33789 C 485.40484 160.23917 486.2286 164.83576 486.99023 166.30859 C 487.70966 167.6998 490.17463 170.23405 491.23633 170.67383 C 491.74087 170.88281 492.23751 171.36646 492.33984 171.74805 C 492.57689 172.63187 492.5931 176.76172 492.35938 176.76172 C 491.86705 176.76172 490.27479 175.72201 489.85938 175.12891 C 489.06769 173.99861 488.60745 174.70083 488.75977 176.80664 C 488.97612 179.79767 491.0109 181.88086 493.71484 181.88086 C 495.15132 181.88086 497.21127 181.03916 497.94727 180.15234 C 498.30385 179.72268 498.53589 179.90018 499.70898 181.49023 C 501.55979 183.99892 504.26981 186.40716 507.97461 188.83984 L 511.09375 190.88867 L 511.0918 193.66406 L 511.08789 196.44141 L 507.56055 197.99219 C 505.62068 198.84558 503.49124 199.61618 502.82812 199.70508 C 502.16506 199.79402 499.56505 199.55162 497.04883 199.16602 C 493.82716 198.6723 490.80141 198.45086 486.82227 198.41406 C 481.19807 198.36207 481.17191 198.36401 481.19531 199.0625 C 481.2149 199.64811 480.95068 199.82752 479.5957 200.14648 C 478.70284 200.35667 477.25109 200.90439 476.37109 201.36328 L 476.375 201.36328 C 474.38502 202.40099 474.70877 202.33989 473.01367 201.98633 C 472.22167 201.82088 470.75746 201.75233 469.75781 201.83203 C 468.47593 201.93423 467.97631 201.86865 468.06641 201.60938 C 468.13665 201.40719 468.99288 198.73457 469.96875 195.66992 C 470.94465 192.60527 472.39288 188.3033 473.1875 186.11133 C 475.01829 181.061 475.54013 179.17418 477.49805 170.52148 C 479.79255 160.38125 481.05583 155.00195 481.14062 155.00195 z M 562.68164 159.63086 C 563.03002 159.49717 563.24033 160.45767 563.68359 164.19141 C 564.6779 172.56654 565.17887 175.85101 566.3125 181.40039 C 567.83062 188.83168 570.42866 199.70908 571.92383 204.89844 C 572.60495 207.2624 573.12919 209.22813 573.08789 209.26562 C 573.04651 209.30317 572.50858 208.97459 571.89258 208.53516 C 570.01028 207.19241 567.67189 206.26762 565.57227 206.03711 C 563.91599 205.85528 563.2042 205.55107 563.57227 205.22461 C 564.26945 204.60625 563.0303 204.36248 553.8125 203.9707 C 549.5885 203.79117 545.48341 203.49278 544.69141 203.30859 C 543.89941 203.12439 542.09941 202.27606 540.69141 201.42383 C 539.28341 200.5716 537.80811 199.77639 537.41211 199.65625 C 536.71233 199.44392 536.69217 199.31915 536.70117 195.21875 L 536.71094 191.00195 L 538.54102 189.67188 C 541.86349 187.26029 545.78681 183.60365 547.375 181.4375 C 548.82822 179.45545 548.97019 179.34618 549.36523 179.91016 C 549.96699 180.76928 551.78425 181.56055 553.15625 181.56055 C 556.10191 181.56055 558.77148 178.47205 558.77148 175.06445 C 558.77148 174.29613 558.68187 173.57835 558.57227 173.46875 C 558.46267 173.35915 557.98781 173.89702 556.92969 174.76758 C 556.10396 175.46385 555.1989 175.80078 554.99023 175.80078 C 554.7294 175.80078 554.61133 175.00359 554.61133 173.24805 L 554.61133 170.69336 L 555.83398 170.07031 C 558.40998 168.75614 560.09859 165.99986 560.99805 161.64062 C 561.2336 160.49893 561.54107 159.80078 561.80859 159.80078 C 562.04571 159.80078 562.43892 159.72396 562.68164 159.63086 z M 552.26953 171.00195 C 553.02315 171.00195 553.03691 171.05101 552.94531 173.47852 C 552.84784 176.06133 552.70728 176.26876 551.30078 175.89844 C 550.8455 175.77858 550.75252 175.54495 550.89844 174.89062 C 551.00276 174.42288 551.18132 173.35748 551.29492 172.52148 C 551.47623 171.18719 551.59455 171.00195 552.26953 171.00195 z M 494.43945 171.32031 C 494.62259 171.32031 494.77148 171.39061 494.77148 171.47461 C 494.77148 171.5586 495.12467 172.56524 495.55664 173.71289 L 496.3418 175.79883 L 495.43164 176.27148 L 494.52148 176.74219 L 494.35742 175.39062 C 494.06412 172.98586 494.09772 171.32031 494.43945 171.32031 z M 730.64648 180.02539 C 730.74479 180.01511 730.82174 180.02271 730.86719 180.05078 C 731.04898 180.16318 731.19727 180.96212 731.19727 181.82812 C 731.19727 183.35982 731.16083 183.42169 729.83789 184.08789 C 729.08989 184.46459 727.25381 185.67364 725.75781 186.77344 C 724.26181 187.87324 722.72234 188.93567 722.33789 189.13477 C 721.30202 189.67127 721.29643 189.64925 721.92188 187.65625 C 723.44569 182.80085 723.43664 182.81406 725.94922 181.97266 C 727.19859 181.55426 728.74208 180.905 729.37891 180.5293 C 729.85651 180.24752 730.35157 180.05623 730.64648 180.02539 z M 776.2207 182.80664 L 776.42383 186.55078 C 776.63224 190.41438 777.59505 198.27513 778.34961 202.26562 L 778.7793 204.53711 L 777.62891 204.48242 C 776.99608 204.45272 774.38989 204.33109 771.83789 204.21289 C 764.90557 203.89159 765.4595 204.12918 760.40039 199.30078 C 757.977 196.98798 755.95084 194.96634 755.89844 194.80664 C 755.84608 194.64694 757.20293 194.04154 758.91406 193.46094 C 765.13937 191.34844 769.96086 188.60215 773.98438 184.87695 L 776.2207 182.80664 z M 720.21094 183.41602 C 720.54483 183.41602 720.13993 184.45095 718.83398 186.93555 C 717.70691 189.07995 716.7908 190.46094 716.49023 190.46094 C 716.21884 190.46334 715.70942 190.52752 715.35742 190.60352 C 714.80052 190.72412 704.76318 188.12848 704.40625 187.77148 C 704.10119 187.46648 707.43503 185.5159 709.19922 184.9668 C 710.74949 184.4843 718.33324 183.41602 720.21094 183.41602 z M 455.20117 232.11523 C 455.71217 232.05254 457.98615 232.72919 461.65625 234.04297 L 466.125 235.64258 L 470.60938 240.06641 C 477.8616 247.22211 480.93286 249.55845 483.54883 249.91016 L 485.01172 250.10742 L 486.25391 253.35352 C 487.72933 257.2122 489.30345 260.14486 491.08594 262.34961 L 492.38867 263.96094 L 491.50781 265.56055 C 491.02307 266.44055 490.62314 267.25655 490.61914 267.37305 C 490.61501 267.48945 491.61424 267.97808 492.83984 268.45898 C 494.52346 269.11948 495.2655 269.61433 495.87305 270.48633 C 496.31529 271.12103 497.16338 272.02705 497.75781 272.49805 C 498.44015 273.03865 499.11057 274.0402 499.57812 275.2168 C 500.79099 278.2693 502.7372 282.00778 504.79297 285.23828 C 506.77601 288.35458 508.9684 292.74624 508.79102 293.24414 C 508.73627 293.39774 507.82748 292.95246 506.77148 292.25586 C 502.3015 289.30696 494.23124 287.48242 485.61719 287.48242 C 481.61246 287.48072 480.10916 287.76305 479.8457 288.56445 C 479.28685 290.26425 479.98748 303.08799 480.87305 307.36719 C 481.04431 308.19479 481.00242 308.2192 479.0293 308.4375 C 478.22539 308.52645 477.30566 308.66031 476.33594 308.81641 C 474.61109 302.52669 472.36596 296.01761 470.12109 291.07031 C 467.04779 284.29741 462.36752 276.4821 458.69922 272 C 455.04062 267.5297 447.27392 259.09107 444.41992 256.48438 C 444.18657 256.27124 443.84805 255.98742 443.58203 255.75195 C 444.57393 253.95617 445.5764 252.13585 446.64648 250.17383 C 449.23957 245.41929 455.0918 232.95545 455.0918 232.1875 C 455.0918 232.14804 455.12817 232.12419 455.20117 232.11523 z M 578.77148 249.44531 L 583.08398 252.08984 L 587.39648 254.73438 L 588.55273 258.38672 C 590.17731 263.51981 593.42651 271.5267 596.85547 278.8418 C 598.4642 282.2738 599.85411 285.2568 599.94531 285.4707 C 600.14111 285.9301 591.10799 295.52663 587.04297 299.17773 C 585.48524 300.57683 583.89481 301.98911 583.50781 302.31641 L 582.80469 302.91211 L 583.12695 301.74414 C 583.30432 301.10194 583.40381 300.04167 583.34961 299.38867 C 583.25483 298.24707 583.19717 298.19227 581.8125 297.98438 C 581.0205 297.86537 578.84579 297.75714 576.98047 297.74414 L 573.58789 297.7207 L 573.36328 291.58789 C 573.23906 288.21459 572.99494 285.18989 572.82227 284.86719 C 572.56403 284.38469 572.11481 284.28125 570.28125 284.28125 C 567.68515 284.28125 567.80871 284.59653 568.66602 280.17383 C 569.00391 278.43093 569.37926 275.79952 569.5 274.32422 L 569.71875 271.64062 L 572.97656 268.28125 C 576.5018 264.64529 579.13593 261.80227 582.55469 257.94141 L 584.73633 255.47656 L 583.83398 254.57812 C 583.33759 254.08342 581.92341 253.12325 580.69141 252.44531 C 579.45941 251.76737 578.40019 251.17415 578.33789 251.12695 C 578.27555 251.07976 578.34771 250.68109 578.49805 250.24219 L 578.77148 249.44531 z M 454.61328 287.19727 C 455.05402 287.39487 458.82147 293.56451 462.44727 300.25391 C 464.31931 303.7077 466.07593 307.16665 467.7168 310.57031 C 466.43964 310.87949 465.31131 311.18004 464.36133 311.46094 C 462.39515 304.43651 459.78114 298.06343 455.41016 289.19141 C 454.68928 287.72823 454.46637 287.1314 454.61328 287.19727 z M 609.03906 304.44141 C 609.19787 304.44141 610.49118 306.76592 611.91406 309.60742 C 615.40379 316.57662 617.81665 320.83437 625.46094 333.51367 C 639.31022 356.48487 654.05492 379.72601 664.25 394.03711 C 671.68792 404.45023 681.07208 416.04852 690.68164 427.51367 C 690.91759 428.32983 691.0588 428.78871 691.30859 429.65625 C 692.62616 434.23225 694.86054 441.87703 696.27344 446.64453 C 701.54019 464.41553 705.36754 480.54631 706.27148 488.78711 C 707.14812 496.77891 705.61481 499.84527 697.65625 506.01367 C 684.63449 516.10647 675.91348 525.46745 666.45898 539.50195 C 659.78657 549.40655 656.25542 556.48976 649.27539 573.97656 C 640.33242 596.38116 634.91939 607.62311 628.16406 617.81641 C 626.99766 619.57641 625.13778 622.49267 624.03125 624.29688 L 622.01953 627.57812 L 621.20508 626.9375 C 618.68965 624.9589 615.35742 627.75194 615.35742 631.83984 C 615.35742 633.08654 615.53738 633.79852 616 634.38672 L 616.64062 635.20117 L 615.56445 635.86719 C 613.60071 637.08089 612.75091 638.15683 612.84961 639.30273 C 612.92692 640.20013 612.34296 641.14976 608.62891 646.16406 C 606.25807 649.36496 603.45149 653.08012 602.39258 654.41992 C 597.56074 660.53342 591.87322 668.07863 589.33984 671.73633 C 588.46535 672.99891 587.58332 674.18807 586.68359 675.33984 C 586.42154 674.45568 586.17211 673.51267 585.85352 672.28125 C 584.47877 666.96745 582.82846 658.97369 582.30859 655.11719 C 581.7077 650.65999 580.05224 636.76429 579.24609 629.40039 C 577.30948 611.70979 576.27239 573.24255 577.27344 556.28125 C 577.48637 552.67325 577.9592 544.82384 578.32422 538.83984 C 578.68925 532.85584 579.03078 524.57741 579.08398 520.44141 C 579.13719 516.30541 579.26726 512.41678 579.37305 511.80078 C 579.47881 511.18478 579.71623 508.37655 579.90039 505.56055 C 580.31703 499.18945 580.89832 495.86373 582.28516 491.92383 C 584.03723 486.94643 584.29926 485.31198 585.50195 471.80078 C 585.77613 468.72078 586.85552 460.15372 587.90234 452.76172 C 591.32963 428.56082 593.68042 405.99896 594.18945 392.41016 L 594.38867 387.09766 L 599.2207 383.87109 C 604.1016 380.61109 608.43681 377.32286 608.64648 376.72266 C 608.70923 376.54316 608.31237 375.67638 607.76562 374.79688 C 607.21891 373.91737 606.77434 373.10077 606.77734 372.98047 C 606.78623 372.65907 613.97461 367.63215 618.77148 364.59375 C 623.7933 361.41285 624.1921 361.06617 623.89648 360.13477 C 623.64724 359.34947 620.13621 355.69496 617.08008 353.03906 L 615.06836 351.29102 L 617.0957 348.74609 C 619.73436 345.43439 624.58644 338.62471 625.08203 337.53711 C 625.4283 336.77711 625.38423 336.6167 624.67969 336.0332 C 622.66023 334.3607 608.23997 328.10888 604.60352 327.33008 L 603.55469 327.10547 L 604.52344 326.00195 C 605.44114 324.95675 605.46493 324.85822 604.99219 324.13672 C 604.7176 323.71762 604.26383 323.28573 603.98242 323.17773 C 603.55033 323.01193 603.60172 322.84375 604.32031 322.09375 C 605.37858 320.98905 605.38013 320.73559 604.32812 319.68359 C 603.37955 318.73499 601.84326 318.58384 600.2168 319.27734 C 599.43923 319.60914 599.11169 319.60748 598.45703 319.26758 C 597.55421 318.79878 596.78441 318.95289 595.48633 319.86719 L 594.60352 320.49023 L 594.80859 318.28125 C 594.94068 316.85995 594.8839 315.82888 594.65039 315.39258 C 594.31753 314.77068 594.48017 314.59084 596.60938 313.21484 C 599.83437 311.13054 604.99898 307.46891 607.04102 305.82031 C 607.98115 305.06131 608.88021 304.44141 609.03906 304.44141 z M 265.25 313.89258 C 265.36233 313.87749 265.45632 314.06318 265.5957 314.36914 C 266.8439 317.10864 267.30357 325.55614 266.70117 334.65234 C 266.50767 337.57414 266.45782 337.73421 265.60352 338.22461 C 264.50922 338.85261 263.40271 340.56463 262.44531 343.11133 C 261.89431 344.57703 261.68223 345.97765 261.54883 349.03125 L 261.375 353.03125 L 257.70703 356.84375 C 256.51327 358.0842 255.35876 359.3346 254.22266 360.58789 C 253.79715 360.15121 253.36578 359.72433 252.95312 359.26758 C 251.85342 358.05028 250.71934 356.91685 250.43164 356.74805 C 250.14404 356.57925 248.9936 356.34301 247.875 356.22461 C 247.7535 356.21175 247.69033 356.19583 247.58203 356.18359 C 249.08068 353.17621 250.58789 349.14099 250.58789 348.00977 C 250.58789 347.69777 251.04835 347.21668 251.62695 346.92578 C 253.49045 345.98868 255.37021 343.89063 255.87891 342.17773 C 256.13711 341.30813 256.34766 340.21736 256.34766 339.75586 C 256.34766 339.21646 256.7488 338.52783 257.4707 337.82812 C 258.7948 336.54472 259.22656 335.22296 259.22656 332.41016 C 259.22816 330.59726 259.33392 330.23629 260.10742 329.42969 C 260.94242 328.55899 262.27142 327.40008 261.79492 324.83008 C 261.08612 321.32418 261.25704 321.30788 262.21094 319.92578 C 262.76294 319.12608 263.66349 317.3592 264.21289 316 C 264.8202 314.49762 265.06278 313.91772 265.25 313.89258 z M 466.1543 318.78516 C 468.35398 321.93983 469.44481 323.88955 469.94336 325.56836 C 470.76365 328.33056 470.6534 328.84182 468.93164 330.23242 C 468.77533 330.35867 468.45836 330.64839 468.22461 330.85352 C 467.91997 328.46762 467.54456 326.0547 467.06445 323.43164 C 466.7669 321.80602 466.46606 320.26551 466.1543 318.78516 z M 452.00977 331.54102 C 452.20358 331.45991 453.25508 335.47938 454.08789 339.72852 C 454.35932 341.11349 454.59496 342.44769 454.81445 343.76758 C 454.29939 344.28428 453.73442 344.8415 453.28906 345.29492 C 453.16969 342.76974 452.97016 340.30367 452.6875 337.90039 C 452.4125 335.56219 452.11534 333.04258 452.02734 332.30078 C 451.96764 331.79772 451.96504 331.55973 452.00977 331.54102 z M 419.99414 340.51758 C 420.5837 340.85148 423.61059 352.71075 424.63281 358.79102 C 428.02621 378.97502 426.566 398.996 420.3418 417.625 C 417.132 427.2318 413.45219 434.55349 406.99609 444.18359 C 405.95209 445.74069 405.15556 447.07158 405.22656 447.14258 C 405.29736 447.21338 406.54997 446.16284 408.00977 444.80664 C 414.60907 438.67574 421.37968 429.03446 426.39258 418.63086 C 427.66458 415.99086 428.89505 413.35885 429.12695 412.78125 C 429.35895 412.20355 429.6115 411.79314 429.6875 411.86914 C 429.9257 412.10734 427.2336 418.74724 425 423.43164 C 422.1084 429.49604 417.1334 437.38531 414.1543 440.62891 C 413.7114 441.11101 413.42172 441.57797 413.51172 441.66797 C 414.28192 442.43827 425.05579 432.0886 429.49609 426.3125 C 434.48749 419.8195 436.13109 417.37293 438.74219 412.54883 C 445.79929 399.51083 447.93927 393.64733 450.41797 380.55273 C 452.20068 371.13521 453.18394 362.2641 453.37891 353.96484 L 454.42383 354.96484 L 456.24414 356.70508 C 456.39177 359.19371 456.49335 361.86415 456.55469 364.84375 C 455.2361 367.10184 454.42251 368.95568 454.35352 369.94531 C 454.30513 370.63986 454.63454 370.99328 456.5957 372.20508 C 456.49926 380.91324 455.79673 386.99352 454.25781 392.80859 C 452.58391 399.13359 448.73789 407.6597 444.71289 413.9707 C 443.54159 415.8072 442.58203 417.41973 442.58203 417.55273 C 442.58203 420.41313 453.10194 406.65505 458.27344 397.03125 C 461.82329 390.42524 464.36672 384.03616 466.16016 377.10547 C 468.10582 377.96132 470.00971 378.79978 470.04102 378.82227 C 470.07859 378.84897 469.83469 380.2081 469.5 381.8418 C 469.16528 383.4755 468.79226 385.94051 468.67188 387.32031 L 468.45312 389.83008 L 469.69336 390.17383 C 470.37486 390.36323 472.37086 390.83516 474.13086 391.22266 C 475.89086 391.61026 477.37674 391.95523 477.43164 391.99023 C 477.48652 392.02503 477.08722 393.54469 476.54492 395.36719 C 474.94072 400.75809 467.6785 431.30675 465.94922 439.93555 C 464.1288 449.01915 462.62269 454.62961 459.67578 463.32031 C 457.21114 470.58861 454.93301 475.32317 451.20117 480.92188 C 447.91416 485.85317 440.47217 495.18979 435.90039 500.12109 C 429.38689 507.14679 423.57106 515.05536 420.70117 520.78906 C 418.03516 526.11546 417.8627 526.35667 416.40625 526.79297 C 415.23166 527.14497 415.05852 527.3815 412.91602 531.5625 C 410.75958 535.77078 407.33395 543.62423 404.16211 551.4043 C 402.9525 546.97128 401.71166 542.9962 400.32031 539.09766 C 394.74411 523.47284 388.69004 513.30797 376.65234 499.35938 C 372.51824 494.56897 368.28968 487.66841 365.52148 481.19141 C 363.90038 477.39851 361.10678 469.42293 361.33398 469.23633 C 361.40448 469.17843 362.35863 468.53098 363.45312 467.79688 C 369.35563 463.83817 376.08795 457.64967 380.56055 452.07227 C 390.12635 440.14387 396.06693 425.53276 398.23633 408.60156 C 398.51473 406.42936 398.75834 403.62308 398.77734 402.36328 C 398.81224 400.08168 398.81489 400.07742 399.12109 401.51172 C 399.53429 403.44732 399.21008 414.36625 398.58008 419.75195 C 397.33978 430.35485 394.59019 440.23932 390.74609 447.91602 C 388.35909 452.68262 386.06223 455.88817 382.54883 459.35547 C 380.71913 461.16107 379.22266 462.70416 379.22266 462.78516 C 379.22266 463.11896 380.54014 462.39564 384.02344 460.14844 C 386.91534 458.28284 388.59418 456.8717 391.86328 453.5625 C 394.15128 451.2464 397.11934 447.90984 398.46094 446.14844 C 410.91834 429.79254 419.02555 408.68959 422.00195 384.87109 C 422.46385 381.17419 422.57617 377.95485 422.57617 369.03125 C 422.56897 357.15035 422.17221 352.42514 420.47461 343.96484 C 420.10961 342.14564 419.87131 340.59548 419.94531 340.52148 C 419.95911 340.50769 419.97512 340.50681 419.99414 340.51758 z M 238.31445 371.06445 C 238.58278 371.22177 238.78336 371.33266 239.07031 371.50391 C 240.77961 372.52395 242.11751 373.53463 243.01758 374.45508 C 242.09652 375.74919 241.19662 377.04597 240.33984 378.3457 C 237.97004 381.9407 234.26758 389.06585 234.26758 390.03125 C 234.26758 390.37685 235.29646 391.1905 237.06836 392.25 C 240.18316 394.1123 244.7061 397.21581 245 397.69141 C 245.1048 397.86081 244.69941 398.82584 244.09961 399.83594 C 243.49981 400.84594 242.8227 402.1442 242.5957 402.7207 C 242.2305 403.6484 242.25226 403.8455 242.78516 404.4375 C 243.54416 405.2806 250.11136 408.48914 254.47266 410.14844 C 256.58596 410.95244 257.74964 411.55831 257.68164 411.82031 C 257.62314 412.04631 256.64271 414.88505 255.50391 418.12695 C 252.3109 427.21723 250.80432 432.52531 246.04688 451.74219 C 243.65424 454.92986 241.57211 457.91098 239.9082 460.59766 C 237.5618 464.38635 235.67204 467.83181 234.0625 471.25391 C 233.83313 468.95126 233.62129 466.41075 233.41406 463.29883 C 232.71566 452.81163 231.91299 445.34713 230.71289 438.17383 C 230.28599 435.62183 229.49548 430.29398 228.95508 426.33398 C 227.87568 418.42428 226.14583 408.5739 224.89062 403.1875 L 224.08203 399.7207 L 226.35547 397.58594 C 227.74167 396.28494 228.62523 395.20445 228.61523 394.81445 C 228.60753 394.46275 228.35499 393.45562 228.05469 392.57812 L 227.50781 390.98242 L 230.30273 388.48438 C 233.07353 386.00618 237.53192 380.87046 239.66992 377.69336 C 240.98232 375.74326 241.04043 375.92241 237.92773 372.32031 C 237.81919 372.1947 237.76155 372.11909 237.6582 371.99805 C 237.75705 371.86064 237.87813 371.68469 237.97266 371.55469 C 238.0808 371.40596 238.20428 371.21793 238.31445 371.06445 z M 762.12891 409.12109 C 762.20168 409.19379 763.45223 411.75555 764.9082 414.81445 C 766.36414 417.87325 769.42887 424.04911 771.71875 428.53711 C 772.19515 429.47083 772.84388 430.72938 773.35352 431.72656 C 769.66438 427.90554 766.21705 421.97139 763.87695 415.30078 C 763.26573 413.55847 762.6108 411.29288 762.05664 409.12695 C 762.07094 409.12827 762.12453 409.11671 762.12891 409.12109 z M 348.01367 414.05859 C 348.17117 413.90099 350.85323 417.15652 352.73633 419.79102 C 356.85493 425.55292 360.05121 434.61429 360.56641 441.99219 C 360.73481 444.40409 360.25794 451.51142 359.80664 453.32422 C 359.39214 454.98922 360.59211 453.39258 361.63281 450.89258 C 363.33051 446.81448 363.66087 444.64252 363.67188 437.51172 C 363.68078 431.82802 363.46844 429.3522 362.71484 426.3125 C 362.33914 424.7972 363.21103 426.76391 363.99023 429.19141 C 365.87073 435.04961 366.72333 440.96412 366.73633 448.23242 C 366.74953 455.80512 365.64185 461.10841 363.28125 464.78711 C 362.73015 465.64581 361.94571 466.66298 361.53711 467.04688 L 360.79492 467.74414 L 356.42383 450.22852 C 354.02003 440.59452 351.69075 430.84073 351.24805 428.55273 C 350.80535 426.26473 349.87429 422.08834 349.17969 419.27344 C 348.48509 416.45844 347.96067 414.11159 348.01367 414.05859 z M 846.875 439.77148 C 847.01556 439.82174 847.28048 440.14562 847.69336 440.76562 C 848.80056 442.42821 852.04008 445.86721 854.17578 447.64648 L 855.68164 448.90039 L 856.69141 453.86133 C 857.53631 458.01573 857.72618 459.79041 857.86328 464.78711 C 857.96378 468.449 857.87843 472.03198 857.64453 474.06641 C 857.24323 477.55637 855.21573 487.67374 852.55273 499.46094 C 852.42506 500.02603 852.3294 500.47442 852.20898 501.01172 C 851.16521 499.27436 850.25362 497.72953 849.65039 496.65039 C 844.66449 487.73069 845.08664 489.02431 836.11914 455.09961 C 835.87936 454.19256 835.01797 450.78501 834.60156 449.17188 C 836.29147 449.67409 837.57055 449.83026 840.67188 449.92969 L 844.99023 450.06641 L 843.71094 448.94922 L 842.43164 447.83008 L 846.11133 449.29102 C 848.89243 450.39518 850.35803 450.78989 852.11133 450.9082 C 853.38733 450.99428 854.43164 450.95869 854.43164 450.82812 C 854.43164 450.69754 853.34107 449.43269 852.00977 448.01758 C 849.56207 445.41563 846.75195 441.11451 846.75195 439.97266 C 846.75195 439.80923 846.79066 439.74133 846.875 439.77148 z M 303.28906 447.55859 L 305.86523 452.13477 C 309.92023 459.33847 313.44444 465.80928 316.89844 472.39258 C 318.65284 475.73658 321.42715 480.99227 323.06445 484.07227 C 324.70175 487.15227 327.45158 492.62442 329.17578 496.23242 C 334.10688 506.55142 335.99308 509.45642 342.51758 516.79102 C 344.35668 518.85842 346.58144 521.59449 347.46094 522.87109 C 350.62634 527.46539 356.76707 538.89643 359.79688 545.83203 C 360.75797 548.03203 363.02022 553.21556 364.82422 557.35156 C 366.62832 561.48756 369.3235 567.39266 370.8125 570.47266 C 376.18849 581.59317 383.04512 596.76669 387.59375 607.5293 C 384.28687 622.20166 383.98927 623.42033 381.01758 634.52148 C 380.07528 638.04148 378.77777 642.93639 378.13477 645.40039 C 376.92261 650.04529 374.42347 658.70708 371.34766 668.92188 C 370.20183 672.72708 368.392 677.58488 366.2793 682.52148 C 364.38608 686.9452 362.61462 691.1271 360.98633 694.99414 C 359.93312 693.88183 358.78741 692.68825 357.4668 691.33398 C 352.1839 685.91638 350.91594 684.44354 350.74414 683.52734 C 350.57854 682.64484 349.99376 681.91768 348.06836 680.20508 C 344.73416 677.23928 344.80695 677.32947 339.43945 669.60547 C 329.38305 655.13387 328.14648 653.2275 328.14648 652.1543 C 328.14278 650.0524 327.52589 648.87898 324.92969 646.05078 C 323.50679 644.50068 321.86927 642.49118 321.29297 641.58398 C 319.39247 638.59188 316.36283 632.62556 315.17383 629.53516 C 314.53053 627.86316 312.70278 623.39728 311.11328 619.61328 C 308.43028 613.22598 304.42337 603.10328 301.10547 594.33398 C 300.33977 592.30998 298.31828 587.12645 296.61328 582.81445 C 292.82438 573.23185 289.4826 564.57255 287.8457 560.09375 C 287.1702 558.24575 285.14455 553.06222 283.34375 548.57422 C 280.46065 541.38852 277.99653 534.91978 276.39453 530.33398 C 275.67413 528.27208 274.31455 526.49714 271.96875 524.55664 C 270.65525 523.47004 269.79516 522.48037 269.56836 521.79297 C 269.40926 521.31093 269.03581 520.62533 268.58008 519.86719 C 269.7368 510.83566 271.43314 506.0299 275.92578 497.0625 C 278.10278 492.717 286.01019 478.40799 290.05469 471.49609 C 291.51749 468.99629 294.63427 463.42333 296.98047 459.11133 C 299.32667 454.79933 301.70608 450.43536 302.26758 449.41406 L 303.28906 447.55859 z "
     style="fill:#000000;fill-opacity:1;stroke-width:0.31999999" />
</svg>
