<?xml version="1.0" encoding="UTF-8" standalone="no"?>
<svg
   xmlns:dc="http://purl.org/dc/elements/1.1/"
   xmlns:cc="http://creativecommons.org/ns#"
   xmlns:rdf="http://www.w3.org/1999/02/22-rdf-syntax-ns#"
   xmlns:svg="http://www.w3.org/2000/svg"
   xmlns="http://www.w3.org/2000/svg"
   viewBox="0 0 816 1056"
   height="11in"
   width="8.5in"
   id="svg2484"
   version="1.1">
  <metadata
     id="metadata2490">
    <rdf:RDF>
      <cc:Work
         rdf:about="">
        <dc:format>image/svg+xml</dc:format>
        <dc:type
           rdf:resource="http://purl.org/dc/dcmitype/StillImage" />
        <dc:title></dc:title>
      </cc:Work>
    </rdf:RDF>
  </metadata>
  <defs
     id="defs2488" />
  <path
     id="path3037"
     d="m 199.17074,998.11131 c -0.91711,-9.7142 -0.32117,-20.8558 1.38714,-25.9266 0.90746,-2.6941 1.77426,-4.1248 8.38666,-13.8436 2.11347,-3.1061 3.72743,-5.9745 3.9006,-6.932 0.38853,-2.1482 1.33151,-3.9622 2.34002,-4.502 0.98015,-0.5244 3.76811,-6.1563 7.10422,-14.3501 3.17342,-7.7948 8.41965,-20.2758 14.19319,-33.7664 2.95274,-6.8994 5.48368,-13.6893 7.08521,-19.0075 4.29878,-14.2764 7.79141,-26.3801 9.4856,-32.8719 0.89867,-3.4438 2.71138,-10.2865 4.02834,-15.2061 4.21395,-15.7414 4.54155,-17.088 9.35801,-38.4624 2.60529,-11.561 5.15608,-22.8314 5.66859,-25.0452 1.38154,-5.9677 6.39394,-23.2828 8.739,-30.1885 4.59103,-13.5196 15.49437,-39.8127 20.8176,-50.2009 2.99439,-5.8435 3.23604,-6.1737 4.87768,-6.6657 2.03562,-0.6098 2.27643,-0.9465 6.00247,-8.3907 4.01102,-8.0135 12.13968,-19.0666 21.24304,-28.8858 6.38961,-6.8921 16.78828,-19.9422 21.38224,-26.8343 5.21561,-7.8248 8.4012,-14.4397 11.84589,-24.598 4.11863,-12.1462 6.22218,-19.9895 8.76654,-32.68494 2.41676,-12.0597 12.56805,-54.7536 14.8101,-62.28801 0.75792,-2.54715 1.3153,-4.67082 1.23856,-4.71945 -0.0769,-0.0489 -2.1519,-0.53153 -4.6117,-1.07324 -2.4598,-0.54157 -5.25168,-1.20138 -6.20416,-1.46609 l -1.73177,-0.48134 0.30593,-3.50634 c 0.16827,-1.92842 0.68861,-5.37452 1.15639,-7.65781 0.46778,-2.28328 0.80754,-4.1818 0.75499,-4.21911 -0.0531,-0.0377 -2.98348,-1.335 -6.51316,-2.88384 -3.52967,-1.54883 -8.46046,-4.04624 -10.9573,-5.54951 -4.10871,-2.47377 -4.53148,-2.85099 -4.45321,-3.97356 0.12438,-1.79216 1.96728,-5.59115 4.87571,-10.05304 l 2.53569,-3.89011 -7.31259,-6.99338 -7.3126,-6.99352 1.88007,-2.43702 c 1.96644,-2.54897 22.02808,-22.16491 25.70842,-25.1375 2.40626,-1.94352 2.56126,-2.65755 1.4148,-6.51805 -0.86261,-2.90494 -2.86176,-6.2451 -7.69541,-12.85735 -2.01871,-2.76155 -3.67041,-5.18655 -3.67041,-5.38879 0,-1.02877 15.90275,-4.79283 24.06412,-5.69583 2.75777,-0.30509 2.81508,-0.33836 2.57567,-1.49502 -1.23759,-5.98068 -2.21704,-23.90522 -1.43605,-26.28088 0.36827,-1.12005 2.46888,-1.51362 8.06591,-1.51125 12.03919,0 23.31975,2.55051 29.56709,6.67194 1.47588,0.97358 2.74603,1.5944 2.82248,1.37972 0.24793,-0.69587 -2.81773,-6.83196 -5.58934,-11.18735 -2.87321,-4.51499 -5.59116,-9.73955 -7.28632,-14.00576 -0.65339,-1.64444 -1.59174,-3.04596 -2.54548,-3.80152 -0.83074,-0.65828 -2.0162,-1.92256 -2.63422,-2.80962 -0.84919,-1.21872 -1.88524,-1.91165 -4.23827,-2.83478 -1.71292,-0.67211 -3.10969,-1.35512 -3.10382,-1.51781 0,-0.16282 0.56464,-1.30216 1.2422,-2.53206 l 1.23172,-2.23621 -1.82137,-2.25275 c -2.49125,-3.08138 -4.69263,-7.17846 -6.75467,-12.5714 l -1.735,-4.53773 -2.04443,-0.27486 c -3.65616,-0.49156 -7.95018,-3.75837 -18.08597,-13.75928 l -6.26606,-6.18262 -6.24566,-2.23572 c -5.86215,-2.09847 -9.1745,-3.03491 -9.1745,-2.59373 0,1.0733 -8.17954,18.49297 -11.80368,25.13798 -14.61682,26.80021 -23.68537,41.95342 -33.64463,56.21845 -12.17519,17.43901 -29.29875,38.38212 -47.12951,57.64222 -2.84653,3.07475 -5.76573,6.39548 -6.48703,7.3794 -1.41202,1.92619 -15.91226,17.98618 -28.66983,31.7538 -19.73165,21.29377 -61.8693,62.6795 -82.48677,81.01467 -3.52701,3.13652 -8.43698,7.6311 -10.91103,9.9879 -2.47419,2.35666 -7.31609,6.88686 -10.75981,10.06686 -15.51198,14.3246 -18.91951,17.54944 -28.10951,26.60384 -5.375232,5.2955 -11.191542,11.2384 -12.925282,13.2063 -1.73388,1.9678 -5.60947,6.1942 -8.61266,9.392 -7.11581,7.577 -19.10064,22.3319 -23.44959,28.8696 -6.41798,9.6482 -10.93032,19.9364 -12.1229,27.6409 -1.0928,7.0588 0.95513,16.0704 5.74838,25.2957 2.08622,4.0154 2.59229,5.8116 4.63421,6.3957 2.53653,0.2646 2.33401,2.0841 3.46861,4.8093 2.21116,5.3115 2.10074,5.5563 -4.15484,9.2135 -4.0883,2.3902 -8.47918,6.7449 -11.74037,11.6435 -5.01451,7.5324 -6.56572,14.078 -4.67936,19.7463 2.65016,7.9638 9.00204,12.373 20.7413,14.3978 l 3.22206,0.5557 c -14.02115,0.7491 -26.63965,-3.4222 -32.88042,-15.6522 -1.56071,-3.1498 -1.89251,-4.3052 -2.0911,-7.2821 -0.30902,-4.6334 0.72689,-10.5229 2.52799,-14.3718 1.77428,-3.7916 5.6187,-9.5182 8.38485,-12.4903 l 2.14408,-2.3037 -1.28566,-1.7214 c -2.28343,-3.0573 -4.70842,-8.7116 -5.72533,-13.3494 -3.25211,-15.4538 0.0643,-29.2949 7.5379,-43.1584 2.39439,-4.8858 4.2384,-9.3392 4.90772,-11.8518 3.49725,-13.1293 7.82803,-22.9949 15.60925,-35.5593 8.48953,-13.7077 24.13135,-32.52144 44.252662,-53.22599 20.60502,-20.65227 40.89671,-43.75763 59.26947,-64.61688 21.68035,-23.61829 38.21734,-43.55902 57.62447,-64.78655 23.70102,-25.81212 46.30869,-52.73673 62.06427,-73.9159 3.63561,-4.88718 8.43642,-11.20006 10.66827,-14.02884 7.40554,-9.38585 28.34264,-39.77686 31.34346,-45.49614 1.00306,-1.91195 2.98237,-5.63831 4.39829,-8.28078 l 2.57441,-4.8045 -1.26764,-0.50178 c -0.69728,-0.27598 -10.62606,-3.60878 -22.06414,-7.40624 -14.84071,-4.9271 -21.81788,-7.03336 -24.36265,-7.35463 -4.75552,-0.60033 -5.9298,-1.23664 -9.74193,-5.27864 -1.78182,-1.88938 -4.34658,-4.25628 -5.69948,-5.25975 -1.35288,-1.00349 -2.90311,-2.30476 -3.44483,-2.89175 -2.62276,-2.84193 -3.48313,-8.64178 -1.99537,-13.45058 0.65058,-2.10259 0.85408,-3.64543 0.67867,-5.14322 -0.55974,-4.77982 1.78923,-11.35487 5.32464,-14.90398 1.68845,-1.69485 7.33188,-4.9015 8.62635,-4.9015 0.27142,0 1.51684,-1.25786 2.76756,-2.79523 3.54952,-4.36303 10.73493,-11.61108 26.72895,-26.96196 17.92147,-17.20101 16.61232,-15.85119 28.39826,-29.28043 13.47957,-15.35901 15.11408,-16.91228 19.98085,-18.98774 2.1712,-0.92586 9.07961,-4.27496 15.3521,-7.44247 7.25655,-3.66444 12.70586,-6.11976 14.98242,-6.75072 1.96785,-0.5454 3.65868,-1.04754 3.75735,-1.11587 0.0992,-0.0684 -0.71278,-1.08331 -1.8032,-2.2555 -3.78209,-4.06549 -5.61953,-8.31577 -6.04497,-13.98303 -0.86763,-11.55575 7.52407,-21.959422 19.1736,-23.770532 10.2522,-1.59389 20.79706,4.553332 24.28117,14.154922 0.4464,1.22991 0.92913,2.37292 1.07309,2.54004 0.14381,0.16711 1.32298,0.0262 2.62038,-0.31299 5.91205,-1.54588 13.44575,-1.24871 18.82461,0.74255 3.2454,1.20144 3.90969,1.18871 9.00497,-0.17259 8.20959,-2.19334 16.23846,-2.40564 21.44932,-0.56715 l 1.7392,0.61358 0.92354,-3.04072 c 2.41899,-7.96429 8.99574,-13.751372 17.62769,-15.511352 11.55519,-2.35596 23.7347,5.842432 26.1931,17.631402 1.49084,7.14859 -0.49251,15.00069 -5.07682,20.09955 l -1.95289,2.17196 1.97371,1.04704 c 4.3818,2.8915 6.93943,6.62468 7.86102,11.47706 0.34632,1.87997 1.13108,4.01308 2.01815,5.48633 3.52898,5.86029 4.28984,13.04002 2.3164,21.85782 -0.5944,2.65609 -0.87126,2.60173 -1.68817,-0.33131 -0.62627,-2.24861 -3.58628,-8.67565 -3.86664,-8.39537 -0.0992,0.0991 0.23508,1.5757 0.74241,3.28145 1.24779,4.19488 1.34632,10.13354 0.23718,14.28227 l -0.83703,3.13066 1.41927,7.60302 c 1.30719,7.00222 4.23729,19.90396 7.0082,30.85932 0.62221,2.4598 2.74631,9.80567 4.72016,16.32413 1.97385,6.51848 4.19131,13.86434 4.92771,16.32415 1.28888,4.30536 8.3685,23.83838 11.99544,33.09549 2.40978,5.77191 3.90187,11.43338 6.52966,17.09626 0.79902,1.25158 14.03386,10.67522 22.46972,15.99925 3.50788,2.21382 8.76948,5.56865 11.69259,7.4552 4.5333,2.92577 5.69736,3.47671 7.91706,3.7473 6.98626,0.85168 10.38916,2.95347 12.5742,7.76638 0.62375,1.37417 1.93401,3.40413 2.91136,4.51105 2.97119,3.36491 4.07251,6.28453 4.04862,10.73369 -0.0153,2.87741 -0.26444,4.39942 -1.02488,6.26132 -0.55262,1.35289 -1.27644,4.17048 -1.60851,6.26131 -0.33221,2.09083 -0.91754,4.54867 -1.30077,5.46202 -1.50522,3.58683 -4.91162,6.27515 -8.7239,6.88478 -1.5965,0.25535 -5.24287,2.71264 -8.25025,5.55985 -0.22768,0.21565 0.75149,2.161 2.28551,4.54057 1.4763,2.28985 4.35148,7.08157 6.38947,10.64829 7.11512,12.45273 16.00143,27.12237 21.5378,35.5553 3.06833,4.67362 8.98638,13.98215 13.15113,20.68567 13.68879,22.03311 36.23944,57.13237 55.76299,86.79366 16.08248,24.43309 19.38044,29.25053 33.58243,49.05343 3.70452,5.16564 9.54962,13.31654 12.98916,18.11314 17.64403,24.6059 25.07836,38.029 30.83877,55.681 3.01773,9.2476 5.663,26.2175 5.663,36.3297 0,1.9714 0.24933,2.7871 1.31347,4.2957 4.74993,6.7338 7.93356,13.4125 9.68547,20.3184 2.76322,10.8933 2.4918,19.1185 -0.91725,27.7928 l -1.1269,2.8673 0.99664,4.7357 c 0.80796,3.8399 0.99202,6.1317 0.97246,12.1152 -0.0294,8.8234 -0.61691,12.8823 -2.83018,19.5278 -3.08886,9.2749 -7.78219,15.3542 -14.13029,18.3031 -3.22332,1.4972 -4.35483,1.6359 -2.43394,0.2982 4.27571,-2.9776 8.09162,-8.329 9.99084,-14.0107 2.28021,-6.8221 3.10032,-19.0788 1.79565,-26.8348 -1.88649,-11.2145 -6.45991,-19.9933 -15.03357,-28.8576 -2.16463,-2.238 -3.93569,-4.3708 -3.93569,-4.7397 0,-0.8127 5.05867,-5.7272 5.89276,-5.7248 1.97316,0 7.94712,5.5702 11.19922,10.4318 1.12355,1.6796 2.14283,2.8872 2.26498,2.6834 0.12159,-0.2039 0.47016,-1.5767 0.77316,-3.0504 2.35847,-11.4691 -7.36836,-29.38 -20.46555,-37.6843 l -3.24246,-2.0559 v -4.6473 c 0,-6.3747 0.51977,-7.0896 4.13694,-5.6902 0.70244,0.2717 1.43115,0.1286 1.42138,-2.8252 -0.0154,-2.5768 -1.2088,-6.6885 -3.50536,-11.5029 -4.87656,-10.2227 -24.11611,-36.3217 -48.1351,-65.2965 -22.2946,-26.03714 -49.54458,-57.38983 -68.13467,-83.41593 -14.24881,-20.0014 -34.8537,-52.48265 -54.20968,-84.58752 -10.68378,-17.72078 -14.0558,-23.67154 -18.93321,-33.41179 -1.98865,-3.97133 -3.79731,-7.22063 -4.01925,-7.22063 -0.22194,0 -1.47868,0.86791 -2.79258,1.92871 -2.85392,2.3041 -10.07204,7.41965 -14.57921,10.33269 -2.97593,1.92312 -3.20347,2.17623 -2.7382,3.04541 0.32634,0.60978 0.40489,2.05002 0.22026,4.03645 l -0.28707,3.08859 1.23633,-0.87087 c 1.81424,-1.27783 2.88775,-1.49516 4.14952,-0.83996 0.91502,0.47505 1.37316,0.4777 2.4598,0.014 2.27322,-0.96924 4.42108,-0.75653 5.74685,0.56925 1.47029,1.47029 1.46931,1.82347 -0.014,3.3674 -1.00433,1.04822 -1.07798,1.28386 -0.47408,1.51559 0.39329,0.15093 1.02906,0.75359 1.41285,1.33933 0.66065,1.00838 0.62585,1.14674 -0.65674,2.60752 l -1.35443,1.54256 1.4661,0.31404 c 5.08242,1.08846 25.23839,9.82438 28.06074,12.1619 0.98476,0.8155 1.0443,1.0394 0.56045,2.10159 -0.69267,1.52004 -7.47319,11.03766 -11.16108,15.66614 l -2.83351,3.5565 2.81172,2.44373 c 4.27138,3.71192 9.17854,8.82077 9.52683,9.91832 0.41314,1.30173 -0.14353,1.78629 -7.16221,6.23195 -6.70408,4.24651 -16.75041,11.27022 -16.76285,11.71941 0,0.16814 0.61677,1.31139 1.38085,2.54059 0.76407,1.2292 1.31753,2.44037 1.22989,2.69125 -0.29307,0.83884 -6.35215,5.4335 -13.17377,9.98972 l -6.75299,4.51038 -0.27798,7.42343 c -0.71153,18.99191 -3.99606,50.52461 -8.78611,84.34815 -1.46302,10.3312 -2.97356,22.3059 -3.35678,26.6106 -1.68091,18.8834 -2.04598,21.168 -4.49473,28.1245 -1.93821,5.5064 -2.75121,10.1546 -3.3336,19.059 -0.25729,3.9356 -0.5888,7.8601 -0.73667,8.721 -0.14787,0.861 -0.32956,6.2949 -0.40405,12.0754 -0.074,5.7806 -0.55248,17.3528 -1.06261,25.7162 -0.51027,8.3633 -1.1712,19.3318 -1.46876,24.3743 -1.399,23.7054 0.0531,77.4689 2.75918,102.1936 1.12675,10.2919 3.43827,29.7126 4.27809,35.9421 0.72649,5.3898 3.03465,16.5609 4.95594,23.9876 2.19859,8.4981 1.96533,8.0105 13.80395,28.8468 18.74957,32.9995 19.35109,33.9899 20.64375,33.9899 1.69712,0 4.32352,1.5869 5.36992,3.2445 0.6176,0.9785 1.53611,1.8871 2.04093,2.019 5.27166,0.8415 20.59049,13.1694 32.59502,24.2546 4.55091,4.2022 6.24524,6.711 5.30101,7.8489 -1.3343,1.6076 -10.01027,2.4276 -25.69738,2.4285 -14.26558,0 -24.14113,-0.6019 -32.87188,-2.0059 -12.72067,-2.0457 -13.53841,-2.3774 -17.3444,-7.0325 -2.83729,-3.4703 -11.10278,-11.6083 -12.60899,-12.4143 -0.87211,-0.4667 -0.90593,-0.3602 -0.90593,2.8533 0,2.3325 -0.19693,3.535 -0.65394,3.9919 -0.74229,0.7424 -2.812,1.2029 -9.66185,1.8883 -4.28998,0.3943 -3.68076,0.1216 -10.2174,-2.1231 -3.79089,-1.3023 -7.04342,-2.6696 -7.22804,-3.0386 -0.18449,-0.3689 -0.55989,-4.4947 -0.8341,-9.1683 -0.28358,-4.8322 -0.88609,-10.3302 -1.39691,-12.7463 -1.75331,-8.2932 -1.84961,-9.3532 -1.33906,-14.7588 0.64052,-6.7803 2.00614,-14.8651 3.60697,-21.353 l 1.29726,-5.2576 -0.87435,-1.2118 c -0.6777,-0.9392 -0.87448,-1.9482 -0.87448,-4.4852 0,-8.9214 -5.31569,-39.3636 -9.63488,-55.1769 -1.13458,-4.1543 -2.9389,-10.8739 -4.00934,-14.9326 -2.92688,-11.0966 -5.26845,-19.8639 -7.82384,-29.2941 -4.1266,-15.2284 -6.74362,-25.395 -7.8859,-30.6357 -3.42694,-15.723 -7.11483,-43.8028 -5.49304,-46.8331 1.94031,-1.77 1.47099,-5.6733 1.55331,-13.294 0.18825,-17.4259 1.41522,-25.7444 7.10114,-48.1434 1.8475,-7.2781 4.063,-17.2402 4.92323,-22.1382 3.90214,-22.218 3.58768,-30.3963 -3.08831,-80.30194 -2.48985,-18.61298 -3.32967,-25.7777 -5.0124,-42.76067 l -0.27687,-2.79523 h -2.74925 -2.74911 l -1.73415,4.80779 c -4.09193,11.34444 -5.94168,15.5377 -17.50945,39.69221 -10.5717,22.07454 -16.52581,32.91714 -27.3843,49.86694 -6.35607,9.9218 -7.80148,11.8954 -17.94397,24.4984 -16.93,21.0377 -19.10985,24.1801 -23.95608,34.5368 -2.93555,6.2734 -7.60736,14.9443 -11.32543,21.0202 -0.5269,0.8608 -0.95863,2.2412 -0.9596,3.0671 0,1.0601 -2.26204,5.9305 -7.68157,16.5478 -7.99436,15.662 -8.83824,17.313 -27.0047,52.8373 -6.10072,11.9301 -12.43793,24.6092 -14.08264,28.1759 -1.64458,3.5667 -8.77353,18.1579 -15.84224,32.4248 -7.06857,14.2668 -13.81486,28.0529 -14.99178,30.6357 -4.31361,9.4667 -10.25347,24.1226 -12.77854,31.5302 l -2.59187,7.6029 -0.32774,7.0206 c -0.4,8.567 -0.49532,9.0252 -2.86539,13.776 -3.02751,6.0684 -4.84259,11.0485 -8.72027,23.9271 -6.43406,21.3691 -11.5306,35.795 -14.30612,40.4938 -2.68957,4.5531 -12.97056,15.1841 -19.52523,20.1896 -8.75578,6.68669 -19.60532,13.33439 -24.36824,13.33439 -5.62205,-0.2906 -5.03072,-9.0351 -5.29864,-11.81759 z M 545.02687,363.02373 c 5.68131,-5.10283 18.3061,-18.51545 18.03244,-19.15751 -0.12718,-0.29896 -2.07112,-4.4679 -4.3196,-9.26451 -4.79228,-10.22369 -9.33438,-21.41199 -11.60495,-28.58606 l -1.61607,-5.10611 -6.02636,-3.69607 -6.02624,-3.69607 -0.3821,1.11531 c -0.21007,0.61342 -0.3107,1.16926 -0.22362,1.23521 0.0867,0.066 1.56728,0.89513 3.28914,1.84263 1.72186,0.9475 3.69823,2.28842 4.392,2.97981 l 1.26121,1.25709 -3.05015,3.44474 c -4.77817,5.39599 -8.45823,9.36905 -13.38523,14.45072 l -4.55301,4.69597 -0.30678,3.74883 c -0.16869,2.0619 -0.69308,5.74196 -1.16533,8.17786 -1.19818,6.18122 -1.37204,5.73916 2.25631,5.73916 2.56266,0 3.19271,0.14535 3.55371,0.81971 0.24124,0.451 0.58071,4.67739 0.75444,9.39196 l 0.31572,8.57226 4.73986,0.0336 c 2.60698,0.0182 5.64567,0.16913 6.75258,0.33543 1.93514,0.29057 2.01773,0.36604 2.15023,1.96156 0.0754,0.91264 -0.0643,2.39384 -0.31279,3.29138 l -0.45073,1.63214 0.98351,-0.83159 c 0.54087,-0.45744 2.76462,-2.43157 4.94181,-4.38697 z M 523.89523,231.25946 c -2.08972,-7.25272 -5.71946,-22.45523 -7.84118,-32.84131 -1.58434,-7.7559 -2.28594,-12.34682 -3.67558,-24.05202 -0.61956,-5.21832 -0.9146,-6.55996 -1.40153,-6.37312 -0.3392,0.13012 -0.88791,0.23668 -1.21928,0.23668 -0.37386,0 -0.80405,0.97596 -1.13318,2.5716 -1.25716,6.09254 -3.61689,9.94474 -7.21714,11.78145 l -1.70761,0.87117 v 3.5688 c 0,2.45356 0.16562,3.5688 0.53026,3.5688 0.29154,0 1.55568,-0.47139 2.70969,-1.4445 1.47882,-1.21671 2.1424,-1.96875 2.29558,-1.81558 0.15318,0.15319 0.27855,1.15707 0.27855,2.23089 0,4.76251 -3.73178,9.07944 -7.84873,9.07944 -1.91752,0 -4.45797,-1.1058 -5.29905,-2.30651 -0.55206,-0.78823 -0.7487,-0.63737 -2.77972,2.13277 -2.21969,3.02744 -7.70378,8.13965 -12.34721,11.51012 l -2.55862,1.8571 -0.014,5.89576 c -0.014,5.73077 0.0153,5.90428 0.99328,6.20103 0.55347,0.16791 2.61634,1.2798 4.58418,2.47089 1.96784,1.19109 4.48355,2.37623 5.59046,2.63367 1.10691,0.25743 6.84271,0.67337 12.74624,0.92427 12.88293,0.54757 14.61513,0.88854 13.64071,1.75277 -0.51445,0.45626 0.48036,0.88304 2.79524,1.13716 2.93443,0.32217 6.20218,1.61325 8.83292,3.48991 0.86093,0.61415 1.6127,1.07371 1.67043,1.02124 0.0573,-0.0524 -0.67365,-2.79857 -1.6257,-6.10248 z m -172.46798,-4.41522 c 1.36548,-2.6945 2.7424,-6.12246 7.9154,-19.70497 9.35171,-24.55483 14.63301,-40.51181 18.45857,-55.77112 2.10257,-8.38638 2.18964,-8.19523 -4.22107,-9.26148 -4.47336,-0.74404 -4.93639,-0.751 -5.88215,-0.0885 -0.56463,0.39548 -1.65952,0.71905 -2.4331,0.71905 -1.17205,0 -1.95652,0.57753 -4.70829,3.46608 -10.74919,11.2841 -24.64413,29.53789 -32.86727,43.17813 -5.55803,9.21945 -7.37423,11.52419 -10.51887,14.6945 -0.69531,0.70089 -2.58348,2.1164 -2.94855,2.54144 -0.90341,1.05202 0.123,0.85846 0.61929,2.60049 0.30343,1.06536 -0.98169,2.615 -1.20503,3.20905 -0.31823,0.8463 0,0 1.18965,1.47413 0.64486,0.60825 -0.0755,0.99437 0.77554,1.79694 0.91725,0.86484 4.35609,1.9985 6.72099,3.06237 5.96026,2.68128 13.83177,5.61134 22.42989,8.21352 3.07475,0.93055 5.39367,2.03095 5.45111,2.04837 0.0573,0.0173 0.6081,-0.96269 1.22389,-2.17797 z m 38.92314,-0.52695 c 1.22991,-0.64134 3.25715,-1.40644 4.50508,-1.70021 1.89377,-0.44578 2.26357,-0.69629 2.23617,-1.51476 -0.0322,-0.97622 0,-0.98032 7.86466,-0.90765 5.56125,0.0515 9.78889,0.36285 14.29144,1.05288 3.51668,0.53892 7.1523,0.87818 8.07905,0.75387 0.92676,-0.12424 3.90326,-1.20186 6.61449,-2.39458 l 4.92939,-2.16857 v -3.8799 -3.8799 l -4.36056,-2.86325 c -5.17787,-3.39996 -8.96374,-6.76724 -11.55044,-10.27342 -1.63954,-2.22228 -1.96421,-2.46856 -2.46259,-1.86807 -1.02865,1.23943 -3.90913,2.41528 -5.91681,2.41528 -3.77901,0 -6.62259,-2.91241 -6.92489,-7.09272 -0.213,-2.94311 0.4306,-3.9249 1.53695,-2.34517 0.58071,0.82892 2.80473,2.2821 3.49277,2.2821 0.32677,0 0.30497,-5.77212 -0.0265,-7.00736 -0.14297,-0.53331 -0.83689,-1.20863 -1.54213,-1.5007 -1.48384,-0.61465 -4.92896,-4.15627 -5.93454,-6.10064 -1.06443,-2.05845 -2.21452,-8.48352 -1.99412,-11.14078 0.19595,-2.3635 0.18337,-2.39212 -1.17889,-2.68383 -0.75736,-0.16216 -2.16951,-0.67372 -3.13806,-1.13681 -0.96869,-0.46308 -1.80767,-0.84196 -1.86455,-0.84196 -0.11881,0 -1.8826,7.51884 -5.08942,21.69097 -2.73639,12.09313 -3.46567,14.73099 -6.02442,21.7894 -1.11054,3.06354 -3.13512,9.07447 -4.49905,13.35767 -1.36393,4.2832 -2.56016,8.01885 -2.65841,8.30143 -0.12578,0.36237 0.57023,0.45409 2.36169,0.31126 1.39719,-0.11139 3.44596,-0.0139 4.55286,0.21726 2.36911,0.49414 1.91474,0.57849 4.69599,-0.87184 z m 26.81379,-38.64397 c -0.60377,-1.60397 -1.09769,-3.01233 -1.09769,-3.12972 0,-0.1174 -0.2095,-0.2134 -0.4654,-0.2134 -0.47756,0 -0.52453,2.32761 -0.11461,5.68855 l 0.23019,1.88705 1.27253,-0.65808 1.27267,-0.65808 z m 80.20629,-0.32912 c 0.12858,-3.39273 0.10901,-3.46124 -0.94395,-3.46124 -0.94339,0 -1.10984,0.25955 -1.36323,2.12438 -0.15878,1.1684 -0.40797,2.65924 -0.55388,3.31296 -0.20391,0.9145 -0.074,1.23878 0.56185,1.40631 1.96574,0.51755 2.16308,0.22736 2.29921,-3.38241 z M 406.72582,92.7957 c 1.73081,-2.51558 5.99689,-6.7772 9.22132,-9.21167 2.09432,-1.58127 2.35554,-1.96111 2.35554,-3.42586 0,-2.18276 -1.90201,-5.90932 -3.92073,-7.68175 -2.50634,-2.20059 -5.22931,-3.21848 -8.59155,-3.21156 -4.86439,0.01 -8.64718,2.23544 -10.99056,6.46576 -3.02067,6.08519 -2.1329,12.66175 4.39969,16.89493 0.69125,0.52336 4.87599,2.13603 5.77634,2.22598 0.1726,0.0172 0.96016,-0.90787 1.74995,-2.05583 z m 101.42892,-1.91627 c 7.72042,-3.93867 9.3928,-14.22579 3.3027,-20.31584 -2.54393,-2.54392 -5.19214,-3.63062 -8.85067,-3.6319 -7.06088,-0.003 -12.74625,5.39839 -12.74625,12.10846 0,1.84149 0.1216,1.99613 5.03142,6.35962 2.76727,2.45973 5.53456,5.01612 6.1495,5.68083 0.99398,1.07453 1.35024,1.18155 3.21186,0.9648 1.15149,-0.13402 2.90717,-0.65877 3.90144,-1.16597 z"
     style="fill:#f7e04b;fill-opacity:1;stroke-width:0.44723654" />
</svg>
