<?xml version="1.0" encoding="UTF-8" standalone="no"?>
<svg
   xmlns:dc="http://purl.org/dc/elements/1.1/"
   xmlns:cc="http://creativecommons.org/ns#"
   xmlns:rdf="http://www.w3.org/1999/02/22-rdf-syntax-ns#"
   xmlns:svg="http://www.w3.org/2000/svg"
   xmlns="http://www.w3.org/2000/svg"
   viewBox="0 0 816 1056"
   height="11in"
   width="8.5in"
   id="svg2484"
   version="1.1">
  <metadata
     id="metadata2490">
    <rdf:RDF>
      <cc:Work
         rdf:about="">
        <dc:format>image/svg+xml</dc:format>
        <dc:type
           rdf:resource="http://purl.org/dc/dcmitype/StillImage" />
        <dc:title></dc:title>
      </cc:Work>
    </rdf:RDF>
  </metadata>
  <defs
     id="defs2488" />
  <path
     id="path3059"
     d="m 147.38086,967.54351 c 0.47471,-10.7945 2.783,-27.4638 4.69706,-33.9167 1.13517,-3.8278 6.01768,-14.1271 10.98404,-23.171 4.70431,-8.5663 10.8599,-20.8124 14.4853,-28.8173 2.32108,-5.125 3.10251,-7.4329 3.38346,-9.9923 0.40981,-3.7335 0.79136,-4.4547 4.47207,-8.454 8.0689,-8.7667 10.61145,-15.2995 14.78051,-37.9781 2.99349,-16.2844 9.21796,-44.355 13.29494,-59.9584 2.26425,-8.6651 6.44475,-22.1692 8.79629,-28.414 4.45638,-11.8337 5.9755,-15.828 7.14366,-18.782 2.54222,-6.4284 5.13844,-12.007 8.91097,-19.1469 2.98302,-5.6458 4.30393,-7.6578 5.70236,-8.6863 1.29653,-0.9536 2.50277,-2.6712 4.19403,-5.9727 4.5174,-8.8179 10.462,-16.8849 24.4181,-33.1354 9.7252,-11.3239 13.018,-15.6153 15.1988,-19.8071 4.1653,-8.0062 4.8448,-15.1716 5.7941,-61.1005 0.2547,-12.3168 0.6648,-24.9946 0.9113,-28.1731 0.2466,-3.1785 0.6866,-10.1135 0.9775,-15.4109 0.7588,-13.8116 2.1458,-27.699 3.6832,-36.8801 0.2783,-1.662 0.1958,-1.7831 -2.2893,-3.3694 -4.9788,-3.1776 -10.2747,-7.9399 -13.7356,-12.3516 l -1.2177,-1.5522 0.9839,-1.5782 c 0.5412,-0.8679 2.396,-2.9718 4.1216,-4.6755 l 3.1377,-3.0974 -1.8805,-2.0399 c -3.596,-3.9012 -14.9367,-19.7747 -14.9367,-20.9067 0,-0.6586 4.0351,-4.4307 7.4647,-6.978 5.2203,-3.8776 22.9402,-16.3463 24.5988,-17.309 l 1.4826,-0.8607 -1.3919,-4.6405 c -3.6859,-12.2907 -4.314,-15.5467 -3.1384,-16.2731 0.3311,-0.2047 5.3345,-1.7995 11.1186,-3.5441 l 10.5166,-3.172 0.2221,-3.3471 c 0.4032,-6.0738 5.9426,-19.8938 9.7387,-24.29634 l 1.4534,-1.68558 4.16064,2.147 c 2.2884,1.1808 5.9861,3.61162 8.2172,5.40162 2.231,1.7901 4.0565,3.1414 4.0565,3.0029 0,-0.1384 -0.7445,-2.0501 -1.6542,-4.2479 -2.0429,-4.93515 -3.1617,-9.15419 -3.1617,-11.9226 v -2.10878 l -7.1396,-5.65795 c -3.92684,-3.11199 -7.86554,-6.40713 -8.75284,-7.32247 l -1.613,-1.66435 2.6123,-2.55951 c 1.4368,-1.40776 3.6254,-3.42999 4.8635,-4.49401 l 2.25104,-1.9345 -1.4649,-2.95547 c -1.28664,-2.59578 -1.49574,-3.60351 -1.71724,-8.27902 -0.1385,-2.92779 -0.3492,-5.3234 -0.4675,-5.3234 -0.2819,0 -14.6149,13.58677 -24.6858,23.40057 -4.3735,4.26179 -10.4439,10.08093 -13.49,12.93121 -4.4325,4.14771 -5.861,5.822 -7.1542,8.38467 -0.8887,1.76113 -2.1717,3.79405 -2.851,4.51778 -1.4189,1.51161 -5.0069,3.03389 -6.1325,2.60196 -0.4738,-0.18179 -1.6666,0.42155 -3.1475,1.59212 -2.9323,2.31795 -6.976,3.88465 -9.9896,3.87065 -2.5613,-0.015 -5.9037,-1.3439 -6.9012,-2.7502 -0.394,-0.5552 -1.5197,-1.07336 -2.7568,-1.26884 -6.3862,-1.0088 -11.30465,-6.18501 -11.25378,-11.84371 0.0211,-2.33272 -0.21341,-3.01176 -1.88603,-5.46202 -5.59655,-8.1991 -9.34258,-21.39324 -14.38381,-50.66277 -0.82127,-4.76775 -2.66517,-14.62837 -4.0976,-21.91245 -1.43259,-7.28408 -2.85479,-14.54408 -3.16075,-16.13334 -0.68116,-3.53957 -0.64308,-50.17019 0.0437,-52.75514 0.80124,-3.01778 3.17354,-4.79515 6.4005,-4.79515 1.1757,0 1.84783,-0.39356 2.87872,-1.68558 0.7397,-0.92707 1.75451,-1.68556 2.25507,-1.68556 0.50069,0 1.04822,-0.43465 1.21677,-0.96575 0.5466,-1.72231 2.63656,-3.77117 4.19587,-4.1137 1.98747,-0.43644 3.11455,-1.88439 3.51111,-4.51027 0.4807,-3.18317 2.36372,-4.85806 5.46183,-4.85806 3.0232,0 4.4597,1.30151 7.1025,6.43542 1.7435,3.38695 1.901,3.54995 2.814,2.91048 2.1214,-1.48587 7.5599,-0.39611 8.0872,1.62041 0.137,0.52312 -0.9326,3.0256 -2.5894,6.05933 -2.6266,4.80947 -2.8179,5.37277 -2.7559,8.11694 0.068,2.99234 -0.6136,4.23456 -2.322,4.23456 -0.672,0 -0.7962,2.03833 -0.6371,10.45521 0.096,5.08351 -0.191,6.40052 -1.3953,6.40052 -0.6886,0 -1.0106,0.78951 -1.6509,4.04853 -1.0984,5.59009 -2.2814,8.07797 -5.3913,11.33834 l -2.6715,2.80091 0.811,3.22877 c 0.7465,2.97218 0.7498,3.35731 0.041,4.84498 -0.6065,1.27171 -0.6804,2.16115 -0.347,4.17194 1.8562,11.19401 9.0758,30.63289 19.829,53.38995 2.0141,4.26238 2.6496,5.18629 3.9364,5.72162 0.844,0.35109 1.7512,0.57307 2.016,0.49317 0.2649,-0.0797 1.0234,-0.17262 1.6856,-0.20603 0.6622,-0.0331 1.8779,-0.4849 2.7017,-1.00322 1.9615,-1.23377 14.9736,-13.90763 23.9268,-23.30456 l 7.0857,-7.43683 -1.1536,-1.71342 c -3.4158,-5.07343 -2.7622,-11.56393 1.6732,-16.61569 1.6119,-1.83563 5.391,-4.14621 8.3019,-5.07554 0.4278,-0.13695 1.873,-0.76016 1.873,-0.76016 0,0 1.2433,-1.2109 1.8994,-1.92275 2.4995,-2.71152 6.1698,-4.54925 9.0862,-4.54925 2.2027,0 2.2273,-0.018 2.0184,-1.44147 0,0 -0.5601,-1.1033 -0.2116,-1.44131 0.8293,-0.80411 18.71594,0.11739 18.71594,0.11739 21.4527,0.13394 19.66,0.47287 24.7194,-4.67129 l 2.6322,-2.67646 h -2.4173 c -3.4832,0 -6.7239,-1.79122 -10.5193,-5.81447 -1.7401,-1.84465 -3.1638,-3.2062 -3.1638,-3.02592 0,0.18046 0.551,1.2681 1.2243,2.417 1.3819,2.35816 1.1096,2.51196 -1.9229,1.0866 -3.889,-1.8281 -7.3218,-6.25889 -10.7196,-13.8357 l -1.6608,-3.70315 0.2752,2.88956 c 0.1513,1.58926 0.4103,3.37717 0.5757,3.97313 0.5939,2.14053 -0.775,1.03995 -3.2283,-2.59562 -4.005,-5.93518 -4.5102,-7.7845 -4.5208,-16.54766 0,-4.10559 0.146,-8.46851 0.3353,-9.69538 0.3397,-2.20177 0.3251,-2.23458 -1.1288,-2.52534 -4.9924,-0.99855 -11.47714,-5.96963 -14.37204,-11.01733 -0.7972,-1.38999 -1.4512,-2.18237 -1.4538,-1.76083 -0.015,1.56459 1.4153,5.40648 2.6828,7.23563 0.7197,1.03844 1.1632,2.03353 0.9856,2.21112 -0.5744,0.57444 -4.6278,-1.73916 -7.1486,-4.08061 -1.35,-1.25379 -3.0708,-3.24322 -3.8237,-4.4207 -1.2592,-1.96897 -1.3693,-2.03896 -1.3693,-0.87123 0,2.02193 -0.8315,1.99769 -2.1321,-0.0632 -2.0652,-3.27166 -3.2603,-7.57876 -3.0951,-11.15517 0.146,-3.14721 0.1159,-3.23239 -1.9351,-5.6828 -4.9912,-5.96136 -5.7352,-14.39509 -1.9366,-21.95339 0.8077,-1.60717 2.1448,-3.77554 2.9713,-4.81863 0.4506,-0.56858 1.4548,-1.61695 1.961,-2.66743 0.4223,-0.87678 0.3603,-1.72786 0.6334,-2.56161 1.3932,-4.25367 3.4879,-7.50487 6.6029,-10.24904 2.8959,-2.55108 9.5645,-6.02667 14.2278,-7.41547 2.41404,-0.71892 5.40834,-2.36568 11.23874,-6.18079 9.3275,-6.10327 18.6507,-11.02411 24.6968,-13.034902 11.8789,-3.950709 22.9786,-4.317619 31.6271,-1.0458 3.5987,1.361392 9.3081,5.115712 12.4334,8.175932 1.7278,1.69189 2.1175,2.44197 3.7693,2.44212 3.3281,0.2566 10.1633,2.36763 13.434,3.91835 12.746,6.74621 19.1272,16.51592 20.0647,32.6124 0.4007,5.52672 1.2584,7.85461 5.3952,14.64176 4.0843,6.7012 5.9506,11.87922 5.9594,16.53426 0,3.30509 -1.3084,9.71343 -2.4182,11.78683 -0.3031,0.56647 -0.604,3.9182 -0.6816,7.59485 -0.1575,7.44513 -0.8226,10.2328 -3.3125,13.88041 -0.8756,1.28284 -2.6611,3.05766 -3.9677,3.94409 l -2.3758,1.61169 -0.3205,-4.74205 c -0.1762,-2.60812 -0.6282,-5.8256 -1.0041,-7.14999 l -0.6837,-2.40795 -0.2795,6.98309 c -0.4037,10.08439 -1.6761,14.21193 -5.6337,18.27523 -1.5342,1.57496 -3.0208,2.55124 -4.7699,3.13216 -1.3977,0.46413 -2.6254,0.7597 -2.7285,0.65646 -0.1038,-0.1023 -0.015,-1.47955 0.2025,-3.05901 0.2146,-1.57933 0.2589,-3.95508 0.098,-5.27946 -0.2904,-2.39682 -0.2971,-2.38223 -1.4128,3.13034 -0.6166,3.04608 -1.3515,6.33882 -1.6332,7.31721 -1.1003,3.82068 -5.2499,7.08963 -9.0448,7.12531 -0.9271,0.0151 -2.4983,0.1505 -3.4916,0.31438 -1.7599,0.29093 -1.8059,0.35127 -1.8059,2.36447 0,1.91705 0.1068,2.08936 1.4878,2.39261 0.8199,0.18016 2.8856,1.59363 4.6015,3.14856 1.7125,1.55193 4.621,3.57569 6.4634,4.49747 l 3.3496,1.67579 13.0233,-0.28714 c 12.7533,-0.28114 13.0285,-0.26713 13.2759,0.67905 0.1606,0.61388 1.2229,1.36816 2.9142,2.06934 3.7025,1.53446 6.0523,3.95944 8.1817,8.44321 1.6259,3.42398 1.8265,4.2758 1.9781,8.40229 0.057,1.56216 0.2223,4.11731 0.2223,4.11731 0,0 0.571,1.98386 0.9105,2.80438 1.2401,2.99609 1.6594,8.06726 0.9441,11.41554 -0.6813,3.18873 -4.8081,10.80135 -7.3452,13.5496 -1.0165,1.10089 -1.8531,2.45326 -1.8593,3.00514 -0.023,2.02675 -2.4284,13.21715 -4.1313,19.21719 l -1.7522,6.17386 1.2919,1.34846 1.2918,1.34846 -2.7992,2.67825 c -2.0773,1.98764 -3.0672,3.40096 -3.8385,5.48068 -0.5716,1.54124 -2.4468,6.59014 -4.1671,11.21974 l -3.1281,8.41751 1.3981,1.5923 c 0.7689,0.8758 1.3982,2.0183 1.3982,2.5388 0,0.5408 0.3255,0.9464 0.7594,0.9464 1.2416,0 3.5749,2.6766 3.5749,4.1009 0,0.707 0.4334,1.8365 0.9632,2.51 0.5297,0.6735 0.9632,1.5451 0.9632,1.9372 0,0.3919 2.1281,3.1258 4.7292,6.0753 7.5249,8.5327 9.6771,11.1914 17.4686,21.5789 8.0797,10.7722 13.0595,16.7388 18.1656,21.766 3.2795,3.229 3.4324,3.3155 6.4204,3.6319 1.6835,0.1782 3.4151,0.5317 3.8479,0.7857 0.433,0.254 2.1413,1.9608 3.7963,3.7929 4.1065,4.5453 8.7247,8.5062 12.6794,10.8751 4.1002,2.4559 16.2466,13.8775 20.3232,17.2065 3.7452,3.0584 3.568,3.9062 4.1443,8.921 1.7073,14.8586 1.0424,14.6176 1.2449,18.9026 0.2133,4.5075 0.1595,4.878 -0.8361,5.779 -0.7707,0.6975 -1.747,0.9648 -3.5417,0.9699 -1.5641,0 -2.917,0.3151 -3.6685,0.8427 -1.4066,0.9875 -2.0581,1.0093 -4.468,0.149 -0.9933,-0.3544 -1.8075,-0.5075 -1.8093,-0.3401 -3.4386,4.1483 -4.3569,2.4416 -6.1775,-0.4097 -1.5347,-2.4275 -2.3575,-3.1677 -5.2188,-4.6956 -5.333,-2.8482 -5.4603,-2.9738 -6.189,-6.1089 -0.5162,-2.2204 -1.1247,-3.3294 -2.7731,-5.0539 -1.1615,-1.2152 -3.594,-3.9432 -5.4059,-6.0623 -1.8117,-2.119 -4.711,-5.434 -6.4428,-7.3667 -3.94,-4.3972 -4.865,-5.7944 -4.869,-7.3555 0,-1.972 -2.9323,-4.8813 -7.8854,-7.8371 -2.5107,-1.4983 -4.6937,-2.7243 -4.851,-2.7243 -0.1572,0 1.2513,1.7789 3.13,3.953 4.6845,5.4211 4.5966,5.1499 2.6215,8.0847 -3.2177,4.7815 -9.9281,12.5125 -14.098,16.242 l -4.2039,3.7601 0.8217,2.4011 c 0.452,1.3206 0.8312,2.8342 0.8428,3.3635 0.015,0.587 -1.3138,2.2153 -3.4,4.1733 l -3.421,3.2107 1.2159,5.2177 c 1.889,8.1064 4.4922,22.9319 6.1166,34.8358 0.8133,5.9598 2.0045,13.9782 2.647,17.8188 1.8061,10.7958 3.0139,22.0303 4.0649,37.8133 1.6524,24.8129 3.1879,30.4037 10.8011,39.3263 5.9353,6.9562 18.0719,19.2943 25.2978,25.7178 6.8023,6.047 16.9084,18.7335 18.3126,22.9883 0.3414,1.0346 1.6348,2.5241 3.6115,4.1594 3.5304,2.9204 5.576,5.5904 6.6602,8.6937 2.4109,6.9014 6.1204,16.6364 10.4594,27.4507 2.7102,6.7544 5.7591,14.5561 6.7757,17.3372 2.4635,6.7406 7.4918,19.7716 13.194,34.193 2.566,6.4896 5.6083,14.2913 6.7606,17.3375 4.9934,13.1975 11.0255,28.433 15.0634,38.0458 2.3921,5.6947 5.1414,12.4131 6.1095,14.9293 1.7895,4.6509 6.3508,13.6314 9.211,18.1344 0.8673,1.3653 3.329,4.3912 5.4704,6.7241 3.9072,4.2563 4.8374,6.0205 4.843,9.1839 0,1.6151 1.8605,4.4859 16.9951,26.2652 8.078,11.6246 7.9673,11.4885 12.9852,15.9521 2.8977,2.5773 3.7777,3.6694 4.0269,4.9977 0.2585,1.3787 2.1675,3.5951 10.1181,11.7484 13.9266,14.2816 17.4856,18.98 17.5106,23.1171 -1.1109,11.4503 -28.3365,6.7513 -38.0278,3.6869 -11.5924,-3.748 -20.2469,-8.5272 -25.3825,-14.0171 -3.6658,-3.9189 -4.9837,-6.2176 -8.3095,-14.494 -3.8669,-9.623 -7.772,-15.8796 -15.2025,-24.3573 -4.3026,-4.9088 -8.6862,-10.6545 -9.7369,-12.7623 -0.9873,-1.9803 -2.8234,-7.4215 -4.2251,-12.5213 -0.6165,-2.2429 -1.3188,-3.4282 -3.1386,-5.2975 -2.7096,-2.7829 -3.3616,-4.2237 -3.3616,-7.4286 0,-2.4218 -0.9699,-4.6616 -10.1312,-23.3934 -4.3581,-8.9107 -13.2852,-24.0227 -18.9188,-32.026 -14.0557,-19.9675 -19.3541,-27.6092 -26.546,-38.2865 -4.4602,-6.6218 -10.0017,-14.6404 -12.3143,-17.8189 -16.3737,-22.5048 -26.1486,-38.855 -33.926,-56.7463 -2.0581,-4.7345 -2.2368,-5.4391 -1.9348,-7.6343 0.3229,-2.3478 0.2764,-2.4766 -1.5938,-4.4158 -2.0513,-2.127 -16.576,-19.2728 -20.955,-24.7365 -7.747,-9.6657 -15.0507,-23.268 -21.9243,-40.8314 l -7.8219,-19.986 c -10.1543,-25.9463 -17.656,-48.8718 -22.8769,-69.9132 -1.293,-5.2104 -2.5191,-9.3694 -2.7248,-9.2422 -0.2057,0.1264 -0.3741,1.5054 -0.3741,3.0628 v 2.8316 l -2.2145,0.332 c -1.2179,0.1828 -7.6088,0.2358 -14.2018,0.1174 l -11.9872,-0.2142 -0.2978,1.7177 c -1.6327,9.418 -4.7649,21.9784 -12.5581,50.3584 -6.887,25.0798 -9.573,34.1474 -14.0523,47.4369 -7.13514,21.1699 -11.05904,28.7578 -29.03224,56.143 -5.6174,8.559 -5.7139,8.7526 -5.7139,11.4616 0,3.3416 -0.1592,3.6605 -6.1026,12.222 -22.8623,32.934 -30.2435,45.1615 -48.1839,79.8213 -11.0981,21.4408 -17.85393,35.7527 -25.80278,54.6607 -6.45529,15.3558 -7.4886,18.8202 -7.95334,26.6656 l -0.37804,6.3808 -2.91379,5.1397 c -2.8706,5.063 -3.60547,7.0247 -8.15623,21.7723 -4.69736,15.2223 -11.95189,33.2643 -15.70551,39.0591 -3.10368,4.7918 -11.23013,14.7489 -15.15205,18.5665 -5.30049,5.1587 -13.85357,11.7031 -18.12697,13.87 -10.0387,4.7318 -12.98658,-2.9285 -12.692,-10.0739 z"
     style="fill:#00a9e3;fill-opacity:1;stroke-width:0.48159239" />
</svg>
