<?xml version="1.0" encoding="UTF-8" standalone="no"?>
<svg
   xmlns:dc="http://purl.org/dc/elements/1.1/"
   xmlns:cc="http://creativecommons.org/ns#"
   xmlns:rdf="http://www.w3.org/1999/02/22-rdf-syntax-ns#"
   xmlns:svg="http://www.w3.org/2000/svg"
   xmlns="http://www.w3.org/2000/svg"
   viewBox="0 0 816 1056"
   height="11in"
   width="8.5in"
   id="svg2484"
   version="1.1">
  <metadata
     id="metadata2490">
    <rdf:RDF>
      <cc:Work
         rdf:about="">
        <dc:format>image/svg+xml</dc:format>
        <dc:type
           rdf:resource="http://purl.org/dc/dcmitype/StillImage" />
        <dc:title></dc:title>
      </cc:Work>
    </rdf:RDF>
  </metadata>
  <defs
     id="defs2488" />
  <path
     id="path3055"
     d="m 384.76847,1044.7704 c -3.2079,-2.8664 -3.9967,-11.6555 -2.7158,-30.2637 1.2418,-18.04152 1.8108,-21.50862 4.056,-24.71342 1.2524,-1.7875 2.0277,-4.364 5.3257,-17.7 4.4956,-18.1772 5.2079,-24.1942 6.2677,-52.9419 0.2538,-6.8868 0.367,-14.47173 0.2514,-16.85573 -0.9552,-19.685 -1.3803,-25.6049 -2.6104,-36.3603 -0.7726,-6.7543 -1.9585,-15.2062 -2.6355,-18.7822 -0.6771,-3.5757 -1.8842,-10.4022 -2.6829,-15.1701 -0.7985,-4.7677 -2.3073,-13.5447 -3.3525,-19.5044 -1.0454,-5.9597 -2.2337,-13.7615 -2.6407,-17.3373 -0.407,-3.5757 -0.9951,-8.6687 -1.3069,-11.3173 -0.3116,-2.6489 -0.564,-9.9088 -0.5606,-16.1335 0.015,-14.7847 0.9508,-21.4651 6.492,-45.9921 4.0079,-17.7394 7.0618,-32.9656 7.6658,-38.2179 0.352,-3.0617 0.4785,-8.455 0.3272,-13.9661 -0.2064,-7.5199 -0.4929,-10.1906 -1.7644,-16.4429 l -1.5182,-7.4646 -2.2655,-1.8874 c -3.2142,-2.6777 -8.0906,-7.8532 -9.7569,-10.3554 -0.9942,-1.4929 -1.418,-1.8498 -1.418,-1.1939 0,1.7185 4.2317,8.191 7.9155,12.1068 2.0035,2.1297 3.6427,4.033 3.6427,4.2296 0,0.1965 -1.5711,0.2514 -3.4916,0.1216 -2.6386,-0.1779 -4.8442,-0.7726 -9.0297,-2.4343 l -5.5384,-2.1989 1.9265,1.6838 1.9263,1.6835 -6.5016,-0.2083 c -5.4949,-0.1762 -7.1242,-0.4177 -10.5239,-1.5599 -4.6658,-1.5676 -8.7471,-4.0667 -12.5488,-7.6841 -2.3188,-2.2061 -3.3397,-2.7759 -7.3554,-4.1044 -2.5647,-0.8485 -6.5247,-2.6578 -8.7999,-4.0209 -10.4528,-6.2621 -22.9301,-19.3392 -31.7298,-33.2558 -1.8965,-2.999 -3.7088,-5.8613 -4.0276,-6.3606 -0.9345,-1.4642 1.7246,5.0192 3.5245,8.5935 4.2813,8.5014 9.2965,15.2473 16.4082,22.07 2.6384,2.5313 6.3435,5.5654 8.2336,6.7423 1.8901,1.1772 3.4453,2.3029 3.4561,2.5014 0.08,1.4701 -10.0411,-1.4911 -16.5952,-4.8554 -8.8093,-4.5221 -21.2592,-15.4224 -28.1449,-24.6421 -3.4402,-4.6062 -3.4358,-3.796 0.015,2.8255 4.9332,9.4657 10.3597,16.3487 16.4342,20.8455 2.9094,2.1536 3.303,2.6011 2.4021,2.7308 -1.6751,0.2409 -4.2743,-0.7539 -9.2478,-3.5395 -9.228,-5.1684 -15.808,-10.6537 -22.8649,-19.0608 -6.5008,-7.7448 -13.5611,-18.5241 -16.9992,-25.9548 l -2.1171,-4.5751 0.2999,2.884 c 0.3863,3.7166 2.6646,12.7703 4.6067,18.3061 3.832,10.9232 9.6315,20.5836 15.7323,26.2049 2.1351,1.9674 3.3706,3.413 2.9172,3.413 -1.1718,0 -7.6132,-3.4476 -11.1291,-5.9565 -9.7055,-6.9257 -18.7001,-18.4558 -24.6573,-31.6077 -4.1958,-9.2632 -5.9789,-15.7265 -7.2415,-26.2468 -0.32,-2.6668 -0.3797,-2.7782 -0.774,-1.4448 -0.2351,0.7947 -0.2875,4.0208 -0.1174,7.1692 l 0.3106,5.7244 -1.3706,-0.9921 c -1.7689,-1.2803 -6.0263,-5.7085 -9.5547,-9.9377 -10.0695,-12.0694 -17.1834,-29.4134 -19.7684,-48.19664 -1.2231,-8.88831 -0.8101,-21.75214 0.9434,-29.37714 3.2415,-14.09529 10.089,-30.63384 18.244,-44.0657 2.5621,-4.21986 15.0683,-21.72117 19.7881,-27.69156 2.0941,-2.64876 4.0463,-5.1343 4.3384,-5.52345 1.2228,-1.62841 -8.6497,5.25858 -16.3245,11.38785 -6.717,5.3645 -17.1518,15.7638 -22.3846,22.30874 -21.931,27.43016 -29.4047,58.94783 -20.1772,85.0918 1.7568,4.9776 5.553,12.7042 8.1991,16.6886 2.7521,4.1437 2.9863,4.6515 2.1445,4.6515 -1.3264,0 -9.1889,-5.6751 -12.6914,-9.1605 -6.2916,-6.2609 -9.98,-12.8839 -11.9721,-21.49807 -0.6641,-2.87101 -1.8651,-6.84541 -2.6688,-8.83198 -3.707,-9.16168 -5.0007,-14.36816 -6.4626,-26.00598 -2.4825,-19.76388 3.6508,-44.07689 15.8339,-62.7673 6.2439,-9.57907 19.1387,-23.13025 29.9722,-31.49819 12.5525,-9.69561 36.3519,-25.48455 51.3729,-34.08181 4.2933,-2.45726 7.2047,-4.39195 6.7285,-4.47133 -2.0722,-0.34545 -20.8361,6.49047 -32.1153,11.69994 -12.1023,5.58965 -23.5031,13.74388 -32.0881,22.95015 -6.9178,7.41857 -9.8197,10.93977 -13.3835,16.2402 -1.543,2.29447 -3.1482,4.45637 -3.5672,4.80423 -0.676,0.56102 -0.7175,0.47669 -0.3668,-0.7464 0.7436,-2.59215 8.8891,-17.31681 12.8263,-23.18583 3.1177,-4.64742 8.6468,-10.83116 12.9813,-14.5185 9.8591,-8.38694 19.0546,-13.21282 45.0289,-23.63116 32.6412,-13.09244 45.3148,-19.45202 58.9009,-29.55608 7.1511,-5.31831 11.8586,-9.8213 17.1447,-16.39992 10.659,-13.2652 17.998,-26.43525 23.1239,-41.49715 2.7032,-7.94352 3.7833,-13.13943 4.4572,-21.44616 l 0.5734,-7.06828 c 0,0 -2.1864,-1.42357 -4.2329,-3.21671 -3.535,-3.09689 -2.8002,-4.82306 -2.6141,-8.90363 0.1175,-2.56826 -0.051,-3.45643 -0.9281,-4.87421 -0.7478,-1.20992 -1.7841,-2.88948 -1.9472,-4.80215 -0.131,-1.53035 0.4865,-3.33578 0.8599,-4.2373 0.5205,-1.25673 0.8423,1.1829 0,0 -0.5314,-0.74632 -2.4147,-2.86881 -3.0539,-5.68744 -0.5105,-2.25117 0.1114,-4.07253 0.5677,-6.57776 0.6208,-3.40331 0.4125,-86.6556 -0.2382,-95.236026 l -0.3883,-5.12045 -2.2157,-2.36716 c -2.2417,-2.39486 -3.2132,-4.96563 -2.603,-6.88815 0.1903,-0.59883 0,-1.07065 -0.5761,-1.37173 -2.6967,-1.42913 -20.7376,-7.80171 -22.8831,-8.08294 -1.3993,-0.18341 -4.0612,-0.84992 -5.9152,-1.48112 l -3.3712,-1.14762 -7.4646,0.78415 c -4.1056,0.43129 -11.1668,1.53124 -15.6915,2.44436 -8.9215,1.80039 -10.7961,1.73875 -10.7961,-0.35511 0,-0.94165 -0.1885,-1.01324 -2.0202,-0.76756 -3.6412,0.48837 -5.3399,-1.58606 -3.9747,-4.85348 0.5861,-1.40273 0.6234,-1.99369 0.1783,-2.82534 -0.8255,-1.54246 0.7316,-4.49985 2.9269,-5.55939 2.1529,-1.03899 8.2874,-2.26828 13.5087,-2.70701 l 4.0695,-0.34196 -4.1998,-0.84183 c -6.7194,-1.34686 -7.3755,-1.85955 -5.9382,-4.63919 0.9266,-1.79192 2.6961,-2.89293 5.198,-3.23449 2.5713,-0.35102 9.1952,1.17396 14.254,3.28156 3.4828,1.45102 4.0928,1.54723 10.913,1.72148 5.7365,0.14657 8.4461,-0.0213 13.1608,-0.81579 3.2656,-0.5502 6.6789,-1.00036 7.5852,-1.00036 0.9065,0 1.6479,-0.1685 1.6479,-0.37443 0,-0.75062 -1.6983,-2.84797 -5.7416,-7.09026 -3.1316,-3.28584 -4.3491,-4.95278 -5.0324,-6.891 -1.5386,-4.36456 -0.325,-9.72393 2.2021,-9.72393 0.6845,0 2.4693,1.51604 5.2443,4.45472 2.3137,2.45011 5.0384,4.8759 6.0548,5.39065 1.0163,0.51474 2.9315,1.73054 4.2559,2.70175 1.3243,0.9712 4.6405,3.00658 7.3692,4.52307 9.2432,5.13703 18.105,12.95674 20.3124,17.92398 2.9857,6.71811 3.7616,10.33758 6.0236,28.09444 0.9616,7.54897 2.6071,19.251666 3.6567,26.005996 1.0495,6.75433 2.7709,18.24033 3.8251,25.52439 2.8089,19.4059 2.5851,18.55935 3.3111,12.52139 0.7938,-6.60113 0.8005,-6.61919 2.5895,-7.01216 2.7957,-0.61399 15.8321,-0.28849 20.3353,0.50777 6.3234,1.11801 11.6257,3.80244 15.7173,7.95713 1.7577,1.7848 3.769,4.22329 4.4698,5.41885 0.9748,1.6634 1.6156,2.22391 2.7292,2.38738 1.0958,0.1608 1.5816,-0.022 1.9655,-0.73943 1.8911,-3.53345 7.5609,-7.89545 14.55,-11.19369 6.7719,-3.19596 17.8498,-5.52804 22.7885,-4.7974 1.945,0.28775 2.0316,0.37501 2.3021,2.32011 0.1548,1.1116 0.4373,4.82807 0.6278,8.25877 l 0.3465,6.23768 3.8527,0.56488 c 2.119,0.31069 4.6445,0.72049 5.6123,0.91067 1.6984,0.33383 1.8024,0.27203 3.0104,-1.78931 0.6883,-1.1743 1.4987,-3.36717 1.8012,-4.87304 0.5382,-2.67974 0.57,-2.71975 1.4954,-1.88289 2.5591,2.31428 3.588,6.42256 2.7703,11.06195 -0.3176,1.80273 -0.5003,4.03618 -0.406,4.96324 l 0.1718,1.68558 1.2717,-2.41602 c 0.6996,-1.32881 1.5443,-3.38764 1.8771,-4.57513 0.5592,-1.99375 0.6331,-2.06689 0.9642,-0.95512 0.9964,3.34598 0.078,9.47587 -1.9001,12.67577 l -1.0033,1.6235 1.8728,0.56109 c 5.0771,1.52115 10.9136,7.35074 13.0874,13.0719 1.1337,2.9831 1.8699,9.58462 1.424,12.7623 -0.3463,2.46611 -0.4854,2.37668 -1.4968,-0.96319 -0.9305,-3.07341 -2.1623,-5.17341 -4.0955,-6.98309 l -1.8009,-1.68558 1.5464,2.29572 c 6.0845,12.34077 6.7,23.79478 0.6303,33.026 -1.3776,2.05095 -5.8238,6.07462 -6.2461,5.65233 -0.125,-0.12505 0.1323,-1.26844 0.5702,-2.54095 1.5095,-4.37907 1.5796,-11.35907 0.134,-13.33258 -0.474,-0.64705 -0.5899,-0.0822 -0.6241,3.04001 -0.036,3.28556 -0.2608,4.27966 -1.5713,6.94174 l -1.5296,3.10702 0.4829,5.50729 c 0.6644,7.58093 1.6883,12.63 3.9102,19.28357 4.093,12.25681 10.5701,24.30103 19.5859,36.41886 5.7279,7.69865 18.2298,19.0954 27.323,24.90739 11.583,7.40341 28.7661,16.23942 39.7313,20.4309 7.3926,2.8258 11.0327,4.3623 18.7821,7.92801 20.0429,9.22211 41.6253,25.78423 52.899,40.59398 4.0773,5.35609 8.0505,11.9821 8.9742,14.96601 0.6077,1.96285 -0.473,0.97269 -3.6105,-3.30772 -3.4982,-4.77271 -14.0202,-15.27644 -20.642,-20.60638 -6.7285,-5.41558 -18.1589,-12.88238 -25.3401,-16.55297 -10.1794,-5.20307 -24.4775,-10.45195 -31.7851,-11.66829 l -1.9263,-0.32065 2.6487,1.72008 c 1.4569,0.94607 6.9831,4.3203 12.2806,7.4983 26.913,16.14525 57.8898,41.14154 70.0734,56.54484 9.3291,11.7945 15.3906,24.21509 18.2199,37.33445 3.0572,14.17634 2.4489,32.12274 -1.596,47.09317 -0.6663,2.4658 -1.4516,4.93186 -1.7448,5.48005 -0.2935,0.5482 -1.0353,3.21762 -1.6487,5.93206 -1.4988,6.63295 -3.6189,11.53385 -7.5015,17.33995 -4.8539,7.2589 -10.4079,12.9289 -16.5478,16.8928 -1.6992,1.0969 -1.6746,1.0512 2.6188,-4.8765 7.2361,-9.9908 9.6618,-16.8654 10.6043,-30.05417 1.6875,-23.61397 -7.5409,-47.43266 -27.7193,-71.54378 -7.4792,-8.93681 -15.143,-15.91718 -26.6985,-24.31717 -4.1056,-2.98445 -7.7794,-5.66894 -8.1642,-5.96552 -0.3846,-0.29657 0.7172,1.19452 2.4485,3.31352 3.3774,4.13367 10.1885,13.3847 15.6017,21.19006 10.5895,15.26941 20.5599,37.44112 23.173,51.53038 1.086,5.85549 1.2074,18.97484 0.236,25.52442 -1.0286,6.93738 -3.2857,17.94846 -4.6163,22.52196 -4.9887,17.1477 -13.9032,31.7949 -23.9739,39.3913 l -3.9825,3.0039 -0.2408,-3.8862 c -0.262,-4.2281 -0.9631,-5.9694 -0.9631,-2.3918 0,3.1635 -0.9184,9.3329 -1.7702,11.893 -5.1579,15.4999 -15.2709,29.7516 -27.7179,39.0617 -3.654,2.7331 -9.6908,6.2291 -10.7565,6.2291 -0.1951,0 1.6865,-2.113 4.1814,-4.6954 2.4949,-2.5826 5.3636,-5.9527 6.3752,-7.4889 6.3591,-9.6586 10.5568,-21.3008 12.5795,-34.8882 1.0228,-6.8723 0.9345,-7.1518 -0.8769,-2.7724 -3.2166,7.7762 -11.8106,22.0695 -17.5376,29.1678 -7.0247,8.7068 -18.3233,17.3596 -29.276,22.4201 -5.4826,2.533 -5.8788,1.936 -1.2675,-1.9102 6.3052,-5.259 12.7156,-12.8091 16.8268,-19.8189 1.9924,-3.3971 5.6402,-11.7342 5.288,-12.0863 -0.1034,-0.1045 -1.2201,1.4369 -2.4794,3.4249 -7.2319,11.4162 -19.5034,22.812 -30.5519,28.3718 -5.7292,2.8832 -16.0937,6.5675 -16.7181,5.9432 -0.092,-0.091 1.5902,-1.218 3.7366,-2.5042 10.6129,-6.36 22.6435,-21.9692 28.3454,-36.7771 0.7721,-2.005 1.3239,-3.7253 1.2264,-3.823 -0.098,-0.098 -1.0543,1.4481 -2.1258,3.4347 -4.6988,8.7113 -10.7077,16.5649 -19.4727,25.4502 -9.2097,9.3361 -17.7085,15.3496 -25.4526,18.0094 -2.5459,0.8746 -4.182,1.811 -5.7303,3.2802 -4.1127,3.9023 -9.4841,6.9107 -15.1032,8.4589 l -2.8225,0.7775 -2.37,8.1563 c -3.1699,10.9086 -4.6338,16.5246 -5.2414,20.1079 -0.5617,3.3129 -1.1794,20.0082 -1.8916,51.137 -0.821,35.8716 -0.9232,36.6573 -9.1783,70.5532 -3.9452,16.1992 -6.708,30.6054 -9.3278,48.6408 -1.8592,12.7993 -3.3253,34.1431 -3.0596,44.5473 0.2152,8.4325 0.3903,9.9545 4.4864,39.00893 0.4106,2.9137 1.6189,10.3905 2.6851,16.615 1.9316,11.2783 1.9466,11.332 4.3283,15.5131 9.4344,16.5631 16.7861,37.4169 16.7861,47.61592 0,3.7542 -0.6962,5.1482 -2.8627,5.7315 -3.6698,0.9882 -12.3002,-1.2534 -18.353,-4.7668 -7.4842,-4.3442 -16.7553,-12.81172 -21.8594,-19.96442 -2.2618,-3.1695 -2.5082,-3.8348 -7.2237,-19.4944 -1.2243,-4.065 -2.8074,-8.5078 -3.5178,-9.8726 l -1.2922,-2.4817 -0.3302,3.3712 c -1.6505,16.8494 -2.4785,26.8464 -2.8319,34.1931 -0.4655,9.68092 -1.5057,14.69802 -4.538,21.88752 -6.0776,11.2133 -17.8778,27.4776 -28.6048,28.803 -2.0865,0.2006 -2.5391,0.066 -3.915,-1.1632 z"
     style="opacity:1;fill:#fa9226;fill-opacity:1;stroke-width:0.48159239" />
</svg>
