<?xml version="1.0" encoding="utf-8"?>
<!-- Generator: Adobe Illustrator 23.0.1, SVG Export Plug-In . SVG Version: 6.00 Build 0)  -->
<svg version="1.1" xmlns="http://www.w3.org/2000/svg" xmlns:xlink="http://www.w3.org/1999/xlink" x="0px" y="0px"
	 viewBox="0 0 828 828" style="enable-background:new 0 0 828 828;" xml:space="preserve">
<style type="text/css">
	.st0{fill:#00AEEF;stroke:#808285;stroke-miterlimit:10;}
	.st1{fill:none;stroke:#ED1C24;stroke-miterlimit:10;}
</style>
<g id="Cuts">
	<path class="st0" d="M826.8,583.9h-83.2V793H615.3v0H208.6v0H83V583.9H0.5V204.4H83V-8.8h126.1v0.4h406.1v-0.4h128.1v213.2h83.5
		V583.9z M208,584.1v208.4 M615.8,581.3V793 M208.9-8.8v213.1 M615.7-9.6v214 M336.3,73V43h151.3v31.4"/>
</g>
<g id="Scores">
	<path class="st1" d="M82.8,204.2h661.6 M744.3,584.1H82.8c1.7-1.6,0-379.3,0-379.3 M209,73.4h406.6 M614.6,712.1H208.5 M207.4,582
		 M743.8,584.1c0.7,0.6,0.1-381.3,0.1-381.3 M743.8,203.1 M208.5,204.2l-0.6,379.9 M615.8,204.5v378.2"/>
</g>
</svg>
