<?xml version="1.0" encoding="utf-8"?>
<!-- Generator: Adobe Illustrator 25.0.0, SVG Export Plug-In . SVG Version: 6.00 Build 0)  -->
<svg version="1.1" id="Layer_1" xmlns="http://www.w3.org/2000/svg" xmlns:xlink="http://www.w3.org/1999/xlink" x="0px" y="0px"
	 width="1127.9px" height="963.1px" viewBox="0 0 1127.9 963.1" style="enable-background:new 0 0 1127.9 963.1;"
	 xml:space="preserve">
<style type="text/css">
	.st0{fill:#DCDCDC;stroke:#000000;stroke-miterlimit:10;}
	.st1{fill:#FFFF5F;stroke:#000000;stroke-miterlimit:10;}
	.st2{fill:none;stroke:#00BFFF;stroke-miterlimit:10;}
	.st3{fill:#FFFF5F;stroke:#000000;stroke-linecap:square;stroke-linejoin:bevel;stroke-miterlimit:10;}
	.st4{fill:#FFFF5F;stroke:#00BFFF;stroke-linecap:square;stroke-linejoin:bevel;stroke-miterlimit:10;}
	.st5{fill:#B4F97D;stroke:#00BFFF;stroke-miterlimit:10;}
	.st6{fill:#B4F97D;stroke:#00BFFF;stroke-linecap:square;stroke-linejoin:bevel;stroke-miterlimit:10;}
	.st7{fill:#FFBC5F;}
	.st8{fill:#E3AB9A;stroke:#00BFFF;stroke-miterlimit:10;}
</style>
<polygon id="vellum_9_" class="st0" points="1640.2,1294.3 1548.1,842.2 1746,842.6 "/>
<polygon id="vellum_8_" class="st0" points="1377.3,1297.5 1285.1,845.4 1483.1,845.8 "/>
<polygon id="vellum_6_" class="st0" points="1112,1292.1 1019.8,840.1 1217.8,840.4 "/>
<polygon id="vellum_3_" class="st0" points="1482.1,672.5 1390,220.5 1588,220.8 "/>
<polygon id="vellum_2_" class="st0" points="1219.2,675.7 1127,223.6 1325,224 "/>
<polygon id="vellum_1_" class="st0" points="953.9,670.4 861.7,218.3 1059.7,218.7 "/>
<polygon id="vellum_5_" class="st0" points="807.9,1288.1 715.8,836.1 913.7,836.4 "/>
<polygon id="vellum_4_" class="st0" points="545,1291.3 452.8,839.2 650.8,839.6 "/>
<g id="Plain1">
	<path id="Plain1_Cut" class="st1" d="M246.3,211.3l-0.1,0.6L125.4,3.1L4.6,212.2l120.8,508.6l26.5-36.9l110.3-448L246.3,211.3z
		 M124.8,191.7c-31.6,0-57.1-25.5-57.1-57.1c0-31.6,25.5-57.1,57.1-57.1c31.6,0,57.1,25.6,57.1,57.1S156.4,191.7,124.8,191.7z"/>
	<path id="Plain1_Score" class="st2" d="M6.3,213.7l240.3,1.1 M247.4,213.1l-122,507.6"/>
</g>
<g id="Plain2">
	<polygon id="Plain2_Cut" class="st1" points="509,214.3 507.5,211.9 497,195.5 279.2,193.7 266.2,212.4 389.9,720.6 418.2,684.2 
		519.3,230.3 	"/>
	<path id="Plain2_Score" class="st2" d="M266.8,213.5l240.7-0.3 M507.3,212.7L390.5,719.8"/>
</g>
<g id="Plain3">
	<polygon id="Plain3_Cut" class="st3" points="774.4,210.8 774.4,210.8 788.2,229.3 677.6,681 664.9,698.4 654,714.6 532.4,211.8 
		530.9,211.8 532.1,210.5 531.9,210.1 532.4,210.1 546.8,193.5 758.1,194.7 774.4,210.8 	"/>
	<path id="Plain3_Score" class="st4" d="M772.4,210.6l-240,1.2 M772.8,210.9L654.4,713.8"/>
</g>
<polygon id="vellum_7_" class="st0" points="279.7,1286 187.5,833.9 385.5,834.3 "/>
<g id="Window1">
	<path id="Window1_Cut" class="st5" d="M401.4,821.5l-0.1,0.6L280.6,613.3L159.8,822.4L280.6,1331L307,1294l110.3-448L401.4,821.5z
		 M280,687.7c31.6,0,57.1,25.6,57.1,57.1s-25.5,57.1-57.1,57.1c-31.6,0-57.1-25.5-57.1-57.1C222.9,713.2,248.4,687.7,280,687.7z
		 M282.6,1212.8l-74.5-359.4l154.8-0.1L282.6,1212.8z"/>
	<path id="Window1_Score" class="st5" d="M161.5,823.9l240.3,1.1 M402.5,823.3l-122,507.6"/>
</g>
<g id="Window2">
	<path id="Window2_Cut" class="st5" d="M665.1,824.8l-1.5-2.4l-10.5-16.4l-217.8-2.8l-13.1,18.6l121.3,508.8l28.4-36.2L675.2,841
		L665.1,824.8z M545.2,1210.5l-74.5-359.4l154.8-0.1L545.2,1210.5z"/>
	<path id="Window2_Score" class="st5" d="M422.9,822.9l240.7,0.8 M663.4,823.3l-119.1,506.6"/>
</g>
<g id="Window3">
	<path id="Window3_Cut" class="st5" d="M928.8,820.6L928.8,820.6L928.8,820.6l-16.4-16.1L701.1,804l-14.3,16.7l-0.5,0l0.1,0.4
		l-1.1,1.3l1.5,0L810,1324.8l10.9-16.2l12.6-17.5L942.5,839L928.8,820.6z M807.6,1210l-74.5-359.4l154.8-0.1L807.6,1210z"/>
	<path id="Window3_Score" class="st6" d="M926.7,820.4l-240,2 M927.1,820.7L810.3,1324"/>
</g>
<g id="Star1">
	<path id="Star1_Cut" class="st7" d="M1068.5,203.3l-0.1,0.6L947.7-5L826.9,204.1l120.8,508.6l26.5-36.9l110.3-448L1068.5,203.3z
		 M947.1,69.4c31.6,0,57.1,25.6,57.1,57.1s-25.5,57.1-57.1,57.1c-31.6,0-57.1-25.5-57.1-57.1C890,94.9,915.5,69.4,947.1,69.4z
		 M981.1,249.5c-0.5-2.2-1-4.5-1.4-6.7c-0.2-0.8-0.7-1.8,0.3-2.3c0.8-0.4,1.4,0.5,1.9,1.1c1.8,1.6,3.6,3.2,5.3,4.9
		c1.3,1.3,2.6,1.4,4.1,0.5c2.1-1.2,4.4-2.4,6.6-3.6c0.5-0.3,1.1-0.6,1.6-0.2c0.5,0.4,0.2,1.1,0,1.6c-1.1,2.3-2.1,4.5-3.4,6.7
		c-0.8,1.6-0.6,2.9,0.7,4.1c1.9,1.8,3.8,3.5,5.6,5.3c0.4,0.4,0.9,0.9,0.7,1.5c-0.3,0.6-1,0.4-1.6,0.4c-2.7-0.3-5.4-0.6-8-1
		c-1.6-0.2-2.5,0.2-3.2,1.7c-1,2.4-2.1,4.7-3.2,7.1c-0.2,0.5-0.4,1.2-1.1,1.2c-0.8,0-0.8-0.6-1.1-1.3c-0.4-2.4-1.1-4.9-1.5-7.4
		c-0.3-1.7-1.1-2.6-3-2.7c-2.3-0.1-4.6-0.4-6.9-0.7c-0.7-0.1-1.8,0-2-0.8c-0.3-1.1,0.8-1.4,1.6-1.8c2-1.1,4-2.3,6.1-3.3
		C980.9,252.6,981.7,251.4,981.1,249.5z M997.6,296.9c2.1,1.5,4.1,2.9,6.1,4.5c0.5,0.3,1,0.7,0.8,1.3c-0.2,0.6-0.9,0.5-1.4,0.6
		c-2.6,0-5.2,0-7.8,0c-1.6,0-2.4,0.5-2.9,2c-0.7,2.4-1.5,4.8-2.3,7.2c-0.2,0.5-0.3,1.2-0.9,1.3c-0.7,0.1-0.9-0.5-1.2-1.2
		c-0.8-2.3-1.7-4.7-2.4-7.1c-0.6-1.6-1.4-2.4-3.2-2.3c-2.2,0.2-4.5,0.1-6.7,0.1c-0.7,0-1.7,0.2-2-0.5c-0.4-1,0.6-1.4,1.4-1.9
		c1.7-1.3,3.6-2.7,5.4-3.9c1.5-1.1,2.1-2.2,1.4-4c-0.8-2.1-1.5-4.2-2.1-6.4c-0.3-0.7-1-1.6,0-2.3c0.7-0.5,1.4,0.3,2,0.8
		c1.9,1.4,3.8,2.6,5.7,4.1c1.4,1.1,2.7,1,4,0c1.9-1.4,3.9-2.8,5.9-4.2c0.4-0.3,1-0.7,1.5-0.3c0.5,0.4,0.3,1,0.2,1.5
		c-0.8,2.3-1.5,4.6-2.5,6.8C995.8,294.8,996.1,296,997.6,296.9z M960.3,348.7c2.2,3.7,4.2,7.4,6.3,11.3c0.5,0.8,0.9,1.9,0.2,2.7
		c-0.8,0.8-1.8,0.1-2.6-0.3c-4-1.9-8.1-3.6-12-5.7c-2.4-1.3-4.1-0.9-5.8,1.1c-2.8,3.2-5.8,6.3-8.7,9.4c-0.6,0.7-1.3,1.6-2.4,1.2
		c-1.2-0.3-1-1.4-1-2.7c0.4-4,0.9-8.3,1.5-12.5c0.4-2.9-0.5-4.8-3.4-5.9c-3.6-1.3-7-3-10.5-4.6c-1.1-0.5-2.9-0.8-2.7-2.3
		c0.2-1.8,2-1.6,3.4-1.9c3.7-0.8,7.5-1.6,11.3-2.2c3.1-0.4,4.8-1.9,5.1-5.2c0.2-3.8,0.8-7.6,1.3-11.4c0.1-1.3-0.2-3.2,1.6-3.6
		c1.5-0.3,1.9,1.6,2.4,2.6c2,3.5,4.1,6.8,5.9,10.4c1.4,2.7,3.3,3.5,6.2,2.9c4-0.9,8.1-1.6,12.2-2.2c0.9-0.2,2.1-0.3,2.6,0.7
		c0.6,1-0.3,1.8-0.9,2.5c-2.9,2.9-5.7,5.9-8.8,8.7C959,343.9,958.7,346,960.3,348.7z M939,406.4c0.5,2.4,1,4.9,1.4,7.4
		c0.1,0.5,0.2,1.2-0.3,1.5c-0.6,0.3-1-0.2-1.4-0.6c-1.8-1.8-3.8-3.5-5.6-5.4c-1.1-1.1-2.1-1.3-3.5-0.5c-2.1,1.2-4.4,2.5-6.6,3.6
		c-0.5,0.3-1,0.6-1.6,0.3c-0.6-0.4-0.3-1,0-1.7c1-2.2,2-4.4,3.1-6.7c0.7-1.6,0.7-2.8-0.8-3.9c-1.8-1.4-3.3-3-5-4.5
		c-0.5-0.5-1.5-0.9-1.1-1.7c0.4-1,1.4-0.6,2.2-0.4c2.2,0.3,4.5,0.5,6.7,0.9c1.8,0.4,3-0.2,3.8-2c0.9-2.1,1.8-4,2.9-6.1
		c0.3-0.7,0.5-1.9,1.5-1.7c0.9,0.1,0.8,1.2,0.8,1.9c0.4,2.3,1,4.5,1.3,6.8c0.2,1.8,1.2,2.5,2.9,2.8c2.4,0.3,4.8,0.6,7.2,1
		c0.6,0.1,1.2,0.2,1.4,0.8c0.1,0.6-0.5,1-0.9,1.2c-2.1,1.1-4.3,2.3-6.5,3.3C939.1,403.5,938.6,404.6,939,406.4z M944.9,394.1
		c-3-0.3-4.7-1.6-5.1-4.8c-0.5-3.5-1.3-6.9-2-10.4c2.9-3.1,5.7-6.1,8.5-9.4c3-3.4,5.9-4.1,10.1-1.9c3.1,1.6,6.2,3.1,9.3,4.6
		c1.4,3.1,2.8,6.2,4.4,9.1c1.6,2.7,1,4.7-1.2,6.8c-3.2,2.9-6.4,5.9-9.3,8.6l-0.1,0.1c-0.4-0.8-1.4-1-2.2-1.2
		C953.2,395.3,949.1,394.6,944.9,394.1z M963.3,325.7c-5,1.1-8.4-0.2-10.8-4.9c-3.1-6.1-6.7-11.9-10.1-17.8c-1-1.7-1.6-4.5-3.9-4.4
		c0.1-0.8,0.2-1.6,0.4-2.5c0.7-5.4,3.1-8,8.8-8.6c9-1,18-2.7,26.9-4c0.7,2.4,1.6,4.8,2.5,7.2c1.2,3.1,0.3,5.1-2.4,6.9
		c-3.3,2.1-6.3,4.4-9.4,6.7c-1.1,0.8-2.9,1.5-2.3,3.2c0.6,1.4,2.3,0.9,3.5,0.9c3.8,0,7.7,0.1,11.5-0.3c3.2-0.3,4.8,1.1,5.6,4
		c1,3.2,2.1,6.6,3.1,9.6c-0.8-0.1-1.7,0-2.5,0.1C977.3,323.1,970.3,324.2,963.3,325.7z M973.4,253.1c-3.6,1.7-7,3.7-10.5,5.7
		c-1.2,0.7-3.2,1.2-2.7,3c0.4,1.5,2.2,1.2,3.5,1.3c4,0.5,7.9,1,11.9,1.3c3.3,0.1,4.8,1.7,5.3,4.8c0.8,4.2,1.7,8.5,2.4,12.4
		c-1.3-0.9-2.5-1.8-3.8-2.7c-0.6-1.1-1.9-2-3.1-2.6c-7.9-4.1-15.7-8.3-23.7-12.1c-5.5-2.7-7.6-6.6-6.2-12.8
		c1.5-6.6,2.7-13.2,3.9-19.9l23.5,0.2c-0.1,1.1,0.4,2.2,0.5,3.1c0.7,3.9,1.4,7.8,2.4,11.7C977.5,249.7,976.3,251.7,973.4,253.1z
		 M935.9,231.4c-3.2,3.1-6.3,6.1-9.4,9.3c-4.2,4.4-8.5,5.4-14.1,2.3c-7.2-4-14.6-7.4-22-11.1c-0.5-0.2-1.1-0.6-1.7-0.9L935.9,231.4z
		 M883.9,237c0.3,0.4,0.5,0.8,0.7,1.1c3.5,7.1,6.9,14.2,10.8,21c3.4,5.9,2.3,10.3-2.6,14.7c-0.6,0.5-1.1,1.1-1.7,1.6L883.9,237z
		 M892.9,285.8l-0.6-3.1c0.5-0.7,1.3-1.3,1.9-1.8c3.2-3.3,6.4-6.6,9.8-9.6c2.9-2.5,3.6-5.1,1.6-8.6c-2.3-4-4.3-8.1-6.2-12.2
		c-0.7-1.4-2.4-3.1-0.8-4.6c1.3-1.3,2.9,0.3,4.2,0.9c4.2,2.1,8.6,4.1,12.8,6.4c3.2,1.8,5.7,1.3,8.1-1.4c3.4-3.6,7.1-7,10.6-10.4
		c0.8-0.8,1.9-1.7,3-1.1c1.2,0.6,0.9,2,0.7,3.1c-0.8,4.9-1.7,9.8-2.8,14.6c-0.8,3.6,0.3,5.8,3.6,7.4c4.6,2.2,9.2,4.7,13.7,7
		c1,0.5,2.3,1.3,2,2.6c-0.2,1.3-1.6,1.4-2.8,1.5c-5.3,0.8-10.6,1.8-15.9,2.3c-3.2,0.3-4.7,1.9-5,5c-0.7,5.1-1.5,10.2-2.4,15.2
		c-0.1,1.1-0.3,2.4-1.6,2.9c-1.4,0.5-1.9-0.9-2.7-2c-2.2-4.3-4.6-8.8-6.9-13.4c-1.5-3.1-3.6-4.5-7.3-3.6c-4.4,1.1-9,1.6-13.5,2.4
		C895.3,285.7,893.9,286.3,892.9,285.8z M894.8,296.1c2.7-0.5,5.5-1,8.3-1.7c6.4-1.6,9.9,0.7,12.6,6.2c3.9,7.9,8,15.7,11.8,23.2
		c1.4,2,2.3,4.3,4.8,3.5c0.2-0.1,0.4-0.2,0.6-0.3c-1,3.7-3.8,5.5-8.2,6.1c-6.5,0.9-13,2.3-19.3,3.6c-0.9,0.2-2,0.2-2.9,0.5
		L894.8,296.1z M903.5,343.6c0.3,0.1,0.5,0.2,0.7,0.3c5.9,2.8,11.8,5.8,18,7.9c5.1,1.9,6.6,5.1,5.9,10.1c-1,7.3-1.7,14.7-2.5,21.5
		c0,2.1-0.4,4,1.7,4.7c0.4,0.1,0.7,0.1,1,0.1c-1.3,2.7-3.3,3.4-6.2,2.8c-3.3-0.6-6.7-1-10.1-1.4L903.5,343.6z M913.5,397.9
		c1.2,1.1,2.4,2.2,3.7,3.2c2.5,2,2.7,4.1,1.4,6.7c-0.8,1.7-1.6,3.4-2.4,5L913.5,397.9z M917.6,420.8c3.3-1.7,6.5-3.5,9.7-5.3
		c2.3-1.3,4-1.2,6,0.8c2.5,2.6,5.2,5.1,7.8,7.5c0.1,4,0.3,8,0.5,11.9c0.5,4.9-1.6,7.5-6.2,8.8c-4.2,1.3-8.4,2.9-12.6,4.4
		L917.6,420.8z M924.5,458c3.8,1.1,7.5,2.2,11.4,2.9c4.7,0.9,6.3,3.5,6.4,7.9c0.1,6.2,0.4,12.3,0.7,18.1c-0.3,2.7-0.6,5.5-0.6,8.2
		c-0.1,3.2-1.5,4.6-4.5,5.2c-1.8,0.3-3.5,0.7-5.3,1.1L924.5,458z M959.7,510.1c1.2,2,2.4,4.2,3.6,6.3c0.3,0.5,0.6,1.1,0.2,1.6
		c-0.4,0.5-1.1,0.2-1.6,0c-2.2-1.1-4.4-2-6.5-3.2c-1.6-0.8-2.8-0.6-3.9,0.8c-1.7,1.9-3.3,3.7-5.1,5.6c-0.4,0.4-0.8,0.9-1.4,0.7
		c-0.6-0.3-0.4-0.9-0.4-1.5c0.3-2.6,0.5-5.2,0.8-7.8c0.2-1.6-0.3-2.4-1.7-3.1c-2.4-1-4.6-2-6.9-3c-0.5-0.2-1.1-0.4-1.2-1.1
		c-0.1-0.7,0.6-0.8,1.3-1.1c2.3-0.5,4.7-1.1,7.3-1.6c1.7-0.3,2.5-1.1,2.6-3c0.1-2.2,0.3-4.5,0.6-6.7c0.1-0.7-0.1-1.7,0.8-2
		c1-0.3,1.3,0.8,1.8,1.5c1.1,1.9,2.3,3.9,3.3,5.8c0.9,1.6,1.9,2.3,3.8,1.8c2.1-0.5,4.3-1,6.5-1.4c0.8-0.2,1.7-0.7,2.3,0.3
		c0.4,0.8-0.5,1.3-1,1.9c-1.6,1.8-3,3.5-4.7,5.3C958.8,507.4,958.7,508.7,959.7,510.1z M950,597l-15.9-86.3c1,0.4,1.9,0.8,2.9,1.2
		c2.5,1,3.4,2.5,2.9,5.2c-0.6,4.5-1.1,9-1.5,13.4c-0.1,0.9-0.4,2.1,0.6,2.6c1,0.4,1.8-0.3,2.5-1c2.9-3.2,5.9-6.3,8.7-9.6
		c2-2.2,4.1-2.8,6.8-1.3c2.5,1.3,5,2.5,7.6,3.7L950,597z M966.4,516c-0.6-1-1.1-2-1.8-3.1c-1.5-2.5-1.5-4.6,0.7-6.9
		c1.3-1.5,2.7-2.9,4-4.4L966.4,516z M971,493.4c-3.7,0.8-7.5,1.5-11.2,2.5c-3.2,0.9-5.1-0.3-6.6-3.1c-1-2.1-2.2-4.2-3.4-6.2
		c3.1-4.5,6.2-9,9.1-13.7c2.1-3.3,4.5-4.3,8.3-3c2.7,0.9,5.4,1.8,8,2.5L971,493.4z M975.4,464.2c-0.5,0.8-1.5,0.4-2.3,0.1
		c-3.7-1.1-7.4-2-11.1-3.2c-2.2-0.8-3.6-0.2-4.9,1.8c-2,3.1-4.1,6.2-6.2,9.2c-0.4,0.7-0.9,1.5-1.8,1.3c-1.1-0.1-1-1.1-1.2-2.1
		c-0.1-3.5-0.3-7.2-0.4-10.9c0-2.5-1-4-3.7-4.6c-3.2-0.6-6.4-1.7-9.5-2.6c-1-0.3-2.6-0.3-2.7-1.6c-0.2-1.6,1.6-1.8,2.7-2.1
		c3-1.2,6.2-2.3,9.3-3.3c2.6-0.8,3.9-2.3,3.6-5.1c-0.3-3.3-0.3-6.6-0.4-9.9c-0.1-1.1-0.6-2.7,0.9-3.2c1.3-0.4,1.8,1.1,2.4,1.9
		c2.1,2.7,4.3,5.3,6.4,8.1c1.5,2.1,3.3,2.5,5.8,1.6c3.3-1.3,6.8-2.4,10.1-3.5c0.8-0.3,1.7-0.5,2.3,0.2c0.6,0.7,0.1,1.6-0.5,2.3
		c-2.1,2.9-4.1,5.9-6.3,8.7c-1.6,2.1-1.5,4,0.1,5.9c2.3,2.9,4.6,5.8,6.8,8.8C975.3,462.6,975.9,463.4,975.4,464.2z M978.4,457.3
		c-0.3-0.3-0.5-0.6-0.8-1c-2.8-3.5-2.9-6.7-0.2-10.2c1.6-2,3-3.9,4.5-6L978.4,457.3z M984.5,427.1c-5.7,1.9-11.3,3.8-16.9,5.9
		c-4.1,1.6-7.1,0.9-9.8-2.8c-3.5-4.8-7.3-9.3-11-13.9c-0.8-1-1.5-2.5-2.6-3.2c-0.1-0.6-0.3-1.3-0.3-1.9c-0.6-2.9,0.3-4.9,3.1-6.2
		c3.8-1.8,7.5-3.7,11.2-5.7c0.2-0.1,0.3-0.2,0.5-0.3c0,0.1,0.1,0.3,0.2,0.4c0.6,0.9,1.7,0.8,2.7,0.6c4.3-0.5,8.6-0.9,12.9-1.6
		c2.6-0.4,4.2,0.4,5.2,3c1.7,4.2,3.7,8.2,5.5,12.3c0.4,0.8,0.7,2,1.8,2L984.5,427.1z M991.6,391.8c-0.1,0-0.2,0-0.2,0
		c-1.8,0.1-2.7,0.9-3,2.7c-0.5,2.5-0.9,5-1.5,7.4c-0.1,0.5-0.3,1.2-0.9,1.3c-0.6,0.1-0.9-0.6-1.1-1.1c-1.1-2.3-2.3-4.7-3.2-7.1
		c-0.6-1.5-1.5-1.9-3.1-1.7c-2.5,0.4-5,0.7-7.5,0.9c-0.5,0.1-1.2,0.2-1.6-0.3c-0.4-0.6,0.1-1,0.5-1.6c1.7-1.6,3.5-3.3,5.4-5
		c1.2-1.2,1.7-2.3,0.7-3.9c-1.1-1.9-2-4-2.9-6c-0.3-0.5-0.7-1.1-0.6-1.6c1.5,0.6,2.9,1.3,4.3,2c1.1,0.5,2.4,1.3,3.5,1
		c0.1,0.1,0.3,0.2,0.4,0.3c1.6,0.9,2.9,1,4.2-0.4c1.5-1.6,3.2-3.1,4.9-4.6c0.6-0.5,1.1-1.6,2-0.9c0.8,0.5,0.3,1.4,0.1,2.1
		c-0.4,2.3-0.7,4.6-1.3,6.9c-0.5,1.8,0.2,2.8,1.7,3.7c0,0,0.1,0,0.1,0.1L991.6,391.8z M997.3,363.6c-1.5-0.6-2.3,0.9-3.3,1.8
		c-2.9,2.6-5.8,5.1-8.4,7.9c-1.1,1.2-2.4,1.8-3.5,1.9c-0.2-0.6-0.5-1.2-0.7-1.7c-3.5-6.5-7-13-10.7-19.3c-2.6-4.5-2.2-8.1,1.6-11.8
		c5.1-4.8,10.1-10,15.1-15.2c0.4-0.5,0.9-1,1.2-1.5c0.3,0.3,0.6,0.5,1.2,0.4c1.1-0.2,1.3-1.3,1.7-2.2c1.3-4.2,2.7-8.2,4-12.4
		c0.8-2.6,2.1-3.6,4.9-3.5c2.8,0.1,5.6,0.2,8.4,0.1L997.3,363.6z M1009.9,301.3c-1.8-1.4-3.6-2.7-5.6-4.1c-2.4-1.8-3.2-3.8-2-6.7
		c1.5-3.9,2.8-7.8,4.3-11.8c0.3-0.9,0.7-2-0.2-2.7c-0.9-0.6-1.9-0.1-2.6,0.5c-3.5,2.4-6.8,4.7-10.2,7.3c-2.4,1.8-4.5,2-6.9,0
		c-0.1-0.1-0.1-0.1-0.2-0.2c0.4-0.4,0.6-1,0.8-1.5c1.9-4,3.8-8.1,5.6-12.1c1.1-2.6,2.6-3.4,5.4-2.9c4.6,0.7,9.2,1.2,13.8,1.8
		c1,0.1,2.2,0.5,2.7-0.6c0.5-1-0.3-1.9-1-2.5c-3.2-3.1-6.4-6.2-9.8-9.1c-2.3-2.1-2.8-4.3-1.3-7c2-3.7,3.9-7.7,5.8-11.5
		c0.4-0.9,1-2,0.1-2.8c-0.8-0.7-1.9-0.3-2.8,0.2c-3.8,2-7.6,4-11.4,6.2c-2.6,1.5-4.8,1.5-7.1-0.8c-2.9-2.9-6-5.6-9.2-8.4
		c-0.2-0.2-0.5-0.4-0.7-0.7l46.6,0.5L1009.9,301.3z"/>
	<path id="Star1_Score" class="st2" d="M828.5,205.7l240.3,1.1 M1069.6,205.1l-122,507.6"/>
</g>
<g id="Star2">
	<path id="Star2_Cut" class="st7" d="M1331.3,206.2l-1.5-2.4l-10.5-16.3l-217.8-1.8l-13,18.7l123.7,508.2l28.2-36.3l101.1-453.9
		L1331.3,206.2z M1205.9,253.3c1.5-6.6,2.7-13.2,3.9-19.9l23.5,0.2c-0.1,1.1,0.4,2.2,0.5,3.1c0.7,3.9,1.4,7.8,2.4,11.7
		c0.8,3.3-0.4,5.3-3.3,6.7c-3.6,1.7-7,3.7-10.5,5.7c-1.2,0.7-3.2,1.2-2.7,3c0.4,1.5,2.2,1.2,3.5,1.3c4,0.5,7.9,1,11.9,1.3
		c3.3,0.1,4.8,1.7,5.3,4.8c0.8,4.2,1.7,8.5,2.4,12.4c-1.3-0.9-2.5-1.8-3.8-2.7c-0.6-1.1-1.9-2-3.1-2.6c-7.9-4.1-15.7-8.3-23.7-12.1
		C1206.6,263.4,1204.5,259.4,1205.9,253.3z M1240.6,251.5c-0.5-2.2-1-4.5-1.4-6.7c-0.2-0.8-0.7-1.8,0.3-2.3c0.8-0.4,1.4,0.5,1.9,1.1
		c1.8,1.6,3.6,3.2,5.3,4.9c1.3,1.3,2.6,1.4,4.1,0.5c2.1-1.2,4.4-2.4,6.6-3.6c0.5-0.3,1.1-0.6,1.6-0.2c0.5,0.4,0.2,1.1,0,1.6
		c-1.1,2.3-2.1,4.5-3.4,6.7c-0.8,1.6-0.6,2.9,0.7,4.1c1.9,1.8,3.8,3.5,5.6,5.3c0.4,0.4,0.9,0.9,0.7,1.5c-0.3,0.6-1,0.4-1.6,0.4
		c-2.7-0.3-5.4-0.6-8-1c-1.6-0.2-2.5,0.2-3.2,1.7c-1,2.4-2.1,4.7-3.2,7.1c-0.2,0.5-0.4,1.2-1.1,1.2c-0.8,0-0.8-0.6-1.1-1.3
		c-0.4-2.4-1.1-4.9-1.5-7.4c-0.3-1.7-1.1-2.6-3-2.7c-2.3-0.1-4.6-0.4-6.9-0.7c-0.7-0.1-1.8,0-2-0.8c-0.3-1.1,0.8-1.4,1.6-1.8
		c2-1.1,4-2.3,6.1-3.3C1240.4,254.6,1241.1,253.4,1240.6,251.5z M1257.1,298.9c2.1,1.5,4.1,2.9,6.1,4.5c0.5,0.3,1,0.7,0.8,1.3
		c-0.2,0.6-0.9,0.5-1.4,0.6c-2.6,0-5.2,0-7.8,0c-1.6,0-2.4,0.5-2.9,2c-0.7,2.4-1.5,4.8-2.3,7.2c-0.2,0.5-0.3,1.2-0.9,1.3
		c-0.7,0.1-0.9-0.5-1.2-1.2c-0.8-2.3-1.7-4.7-2.4-7.1c-0.6-1.6-1.4-2.4-3.2-2.3c-2.2,0.2-4.5,0.1-6.7,0.1c-0.7,0-1.7,0.2-2-0.5
		c-0.4-1,0.6-1.4,1.4-1.9c1.7-1.3,3.6-2.7,5.4-3.9c1.5-1.1,2.1-2.2,1.4-4c-0.8-2.1-1.5-4.2-2.1-6.4c-0.3-0.7-1-1.6,0-2.3
		c0.7-0.5,1.4,0.3,2,0.8c1.9,1.4,3.8,2.6,5.7,4.1c1.4,1.1,2.7,1,4,0c1.9-1.4,3.9-2.8,5.9-4.2c0.4-0.3,1-0.7,1.5-0.3
		c0.5,0.4,0.3,1,0.2,1.5c-0.8,2.3-1.5,4.6-2.5,6.8C1255.2,296.7,1255.6,298,1257.1,298.9z M1219.7,350.6c2.2,3.7,4.2,7.4,6.3,11.3
		c0.5,0.8,0.9,1.9,0.2,2.7c-0.8,0.8-1.8,0.1-2.6-0.3c-4-1.9-8.1-3.6-12-5.7c-2.4-1.3-4.1-0.9-5.8,1.1c-2.8,3.2-5.8,6.3-8.7,9.4
		c-0.6,0.7-1.3,1.6-2.4,1.2c-1.2-0.3-1-1.4-1-2.7c0.4-4,0.9-8.3,1.5-12.5c0.4-2.9-0.5-4.8-3.4-5.9c-3.6-1.3-7-3-10.5-4.6
		c-1.1-0.5-2.9-0.8-2.7-2.3c0.2-1.8,2-1.6,3.4-1.9c3.7-0.8,7.5-1.6,11.3-2.2c3.1-0.4,4.8-1.9,5.1-5.2c0.2-3.8,0.8-7.6,1.3-11.4
		c0.1-1.3-0.2-3.2,1.6-3.6c1.5-0.3,1.9,1.6,2.4,2.6c2,3.5,4.1,6.8,5.9,10.4c1.4,2.7,3.3,3.5,6.2,2.9c4-0.9,8.1-1.6,12.2-2.2
		c0.9-0.2,2.1-0.3,2.6,0.7c0.6,1-0.3,1.8-0.9,2.5c-2.9,2.9-5.7,5.9-8.8,8.7C1218.5,345.9,1218.2,348,1219.7,350.6z M1198.4,408.3
		c0.5,2.4,1,4.9,1.4,7.4c0.1,0.5,0.2,1.2-0.3,1.5c-0.6,0.3-1-0.2-1.4-0.6c-1.8-1.8-3.8-3.5-5.6-5.4c-1.1-1.1-2.1-1.3-3.5-0.5
		c-2.1,1.2-4.4,2.5-6.6,3.6c-0.5,0.3-1,0.6-1.6,0.3c-0.6-0.4-0.3-1,0-1.7c1-2.2,2-4.4,3.1-6.7c0.7-1.6,0.7-2.8-0.8-3.9
		c-1.8-1.4-3.3-3-5-4.5c-0.5-0.5-1.5-0.9-1.1-1.7c0.4-1,1.4-0.6,2.2-0.4c2.2,0.3,4.5,0.5,6.7,0.9c1.8,0.4,3-0.2,3.8-2
		c0.9-2.1,1.8-4,2.9-6.1c0.3-0.7,0.5-1.9,1.5-1.7c0.9,0.1,0.8,1.2,0.8,1.9c0.4,2.3,1,4.5,1.3,6.8c0.2,1.8,1.2,2.5,2.9,2.8
		c2.4,0.3,4.8,0.6,7.2,1c0.6,0.1,1.2,0.2,1.4,0.8c0.1,0.6-0.5,1-0.9,1.2c-2.1,1.1-4.3,2.3-6.5,3.3
		C1198.6,405.4,1198.1,406.6,1198.4,408.3z M1204.4,396.1c-3-0.3-4.7-1.6-5.1-4.8c-0.5-3.5-1.3-6.9-2-10.4c2.9-3.1,5.7-6.1,8.5-9.4
		c3-3.4,5.9-4.1,10.1-1.9c3.1,1.6,6.2,3.1,9.3,4.6c1.4,3.1,2.8,6.2,4.4,9.1c1.6,2.7,1,4.7-1.2,6.8c-3.2,2.9-6.4,5.9-9.3,8.6
		l-0.1,0.1c-0.4-0.8-1.4-1-2.2-1.2C1212.7,397.2,1208.6,396.6,1204.4,396.1z M1222.8,327.7c-5,1.1-8.4-0.2-10.8-4.9
		c-3.1-6.1-6.7-11.9-10.1-17.8c-1-1.7-1.6-4.5-3.9-4.4c0.1-0.8,0.2-1.6,0.4-2.5c0.7-5.4,3.1-8,8.8-8.6c9-1,18-2.7,26.9-4
		c0.7,2.4,1.6,4.8,2.5,7.2c1.2,3.1,0.3,5.1-2.4,6.9c-3.3,2.1-6.3,4.4-9.4,6.7c-1.1,0.8-2.9,1.5-2.3,3.2c0.6,1.4,2.3,0.9,3.5,0.9
		c3.8,0,7.7,0.1,11.5-0.3c3.2-0.3,4.8,1.1,5.6,4c1,3.2,2.1,6.6,3.1,9.6c-0.8-0.1-1.7,0-2.5,0.1
		C1236.8,325,1229.8,326.2,1222.8,327.7z M1195.4,233.3c-3.2,3.1-6.3,6.1-9.4,9.3c-4.2,4.4-8.5,5.4-14.1,2.3
		c-7.2-4-14.6-7.4-22-11.1c-0.5-0.2-1.1-0.6-1.7-0.9L1195.4,233.3z M1143.4,239c0.3,0.4,0.5,0.8,0.7,1.1c3.5,7.1,6.9,14.2,10.8,21
		c3.4,5.9,2.3,10.3-2.6,14.7c-0.6,0.5-1.1,1.1-1.7,1.6L1143.4,239z M1152.4,287.8l-0.6-3.1c0.5-0.7,1.3-1.3,1.9-1.8
		c3.2-3.3,6.4-6.6,9.8-9.6c2.9-2.5,3.6-5.1,1.6-8.6c-2.3-4-4.3-8.1-6.2-12.2c-0.7-1.4-2.4-3.1-0.8-4.6c1.3-1.3,2.9,0.3,4.2,0.9
		c4.2,2.1,8.6,4.1,12.8,6.4c3.2,1.8,5.7,1.3,8.1-1.4c3.4-3.6,7.1-7,10.6-10.4c0.8-0.8,1.9-1.7,3-1.1c1.2,0.6,0.9,2,0.7,3.1
		c-0.8,4.9-1.7,9.8-2.8,14.6c-0.8,3.6,0.3,5.8,3.6,7.4c4.6,2.2,9.2,4.7,13.7,7c1,0.5,2.3,1.3,2,2.6s-1.6,1.4-2.8,1.5
		c-5.3,0.8-10.6,1.8-15.9,2.3c-3.2,0.3-4.7,1.9-5,5c-0.7,5.1-1.5,10.2-2.4,15.2c-0.1,1.1-0.3,2.4-1.6,2.9c-1.4,0.5-1.9-0.9-2.7-2
		c-2.2-4.3-4.6-8.8-6.9-13.4c-1.5-3.1-3.6-4.5-7.3-3.6c-4.4,1.1-9,1.6-13.5,2.4C1154.8,287.7,1153.4,288.2,1152.4,287.8z
		 M1154.3,298.1c2.7-0.5,5.5-1,8.3-1.7c6.4-1.6,9.9,0.7,12.6,6.2c3.9,7.9,8,15.7,11.8,23.2c1.4,2,2.3,4.3,4.8,3.5
		c0.2-0.1,0.4-0.2,0.6-0.3c-1,3.7-3.8,5.5-8.2,6.1c-6.5,0.9-13,2.3-19.3,3.6c-0.9,0.2-2,0.2-2.9,0.5L1154.3,298.1z M1163,345.5
		c0.3,0.1,0.5,0.2,0.7,0.3c5.9,2.8,11.8,5.8,18,7.9c5.1,1.9,6.6,5.1,5.9,10.1c-1,7.3-1.7,14.7-2.5,21.5c0,2.1-0.4,4,1.7,4.7
		c0.4,0.1,0.7,0.1,1,0.1c-1.3,2.7-3.3,3.4-6.2,2.8c-3.3-0.6-6.7-1-10.1-1.4L1163,345.5z M1173,399.8c1.2,1.1,2.4,2.2,3.7,3.2
		c2.5,2,2.7,4.1,1.4,6.7c-0.8,1.7-1.6,3.4-2.4,5L1173,399.8z M1177.1,422.8c3.3-1.7,6.5-3.5,9.7-5.3c2.3-1.3,4-1.2,6,0.8
		c2.5,2.6,5.2,5.1,7.8,7.5c0.1,4,0.3,8,0.5,11.9c0.5,4.9-1.6,7.5-6.2,8.8c-4.2,1.3-8.4,2.9-12.6,4.4L1177.1,422.8z M1184,460
		c3.8,1.1,7.5,2.2,11.4,2.9c4.7,0.9,6.3,3.5,6.4,7.9c0.1,6.2,0.4,12.3,0.7,18.1c-0.3,2.7-0.6,5.5-0.6,8.2c-0.1,3.2-1.5,4.6-4.5,5.2
		c-1.8,0.3-3.5,0.7-5.3,1.1L1184,460z M1219.2,512.1c1.2,2,2.4,4.2,3.6,6.3c0.3,0.5,0.6,1.1,0.2,1.6c-0.4,0.5-1.1,0.2-1.6,0
		c-2.2-1.1-4.4-2-6.5-3.2c-1.6-0.8-2.8-0.6-3.9,0.8c-1.7,1.9-3.3,3.7-5.1,5.6c-0.4,0.4-0.8,0.9-1.4,0.7c-0.6-0.3-0.4-0.9-0.4-1.5
		c0.3-2.6,0.5-5.2,0.8-7.8c0.2-1.6-0.3-2.4-1.7-3.1c-2.4-1-4.6-2-6.9-3c-0.5-0.2-1.1-0.4-1.2-1.1c-0.1-0.7,0.6-0.8,1.3-1.1
		c2.3-0.5,4.7-1.1,7.3-1.6c1.7-0.3,2.5-1.1,2.6-3c0.1-2.2,0.3-4.5,0.6-6.7c0.1-0.7-0.1-1.7,0.8-2c1-0.3,1.3,0.8,1.8,1.5
		c1.1,1.9,2.3,3.9,3.3,5.8c0.9,1.6,1.9,2.3,3.8,1.8c2.1-0.5,4.3-1,6.5-1.4c0.8-0.2,1.7-0.7,2.3,0.3c0.4,0.8-0.5,1.3-1,1.9
		c-1.6,1.8-3,3.5-4.7,5.3C1218.2,509.3,1218.2,510.6,1219.2,512.1z M1209.5,598.9l-15.9-86.3c1,0.4,1.9,0.8,2.9,1.2
		c2.5,1,3.4,2.5,2.9,5.2c-0.6,4.5-1.1,9-1.5,13.4c-0.1,0.9-0.4,2.1,0.6,2.6c1,0.4,1.8-0.3,2.5-1c2.9-3.2,5.9-6.3,8.7-9.6
		c2-2.2,4.1-2.8,6.8-1.3c2.5,1.3,5,2.5,7.6,3.7L1209.5,598.9z M1225.9,518c-0.6-1-1.1-2-1.8-3.1c-1.5-2.5-1.5-4.6,0.7-6.9
		c1.3-1.5,2.7-2.9,4-4.4L1225.9,518z M1230.5,495.4c-3.7,0.8-7.5,1.5-11.2,2.5c-3.2,0.9-5.1-0.3-6.6-3.1c-1-2.1-2.2-4.2-3.4-6.2
		c3.1-4.5,6.2-9,9.1-13.7c2.1-3.3,4.5-4.3,8.3-3c2.7,0.9,5.4,1.8,8,2.5L1230.5,495.4z M1234.8,466.1c-0.5,0.8-1.5,0.4-2.3,0.1
		c-3.7-1.1-7.4-2-11.1-3.2c-2.2-0.8-3.6-0.2-4.9,1.8c-2,3.1-4.1,6.2-6.2,9.2c-0.4,0.7-0.9,1.5-1.8,1.3c-1.1-0.1-1-1.1-1.2-2.1
		c-0.1-3.5-0.3-7.2-0.4-10.9c0-2.5-1-4-3.7-4.6c-3.2-0.6-6.4-1.7-9.5-2.6c-1-0.3-2.6-0.3-2.7-1.6c-0.2-1.6,1.6-1.8,2.7-2.1
		c3-1.2,6.2-2.3,9.3-3.3c2.6-0.8,3.9-2.3,3.6-5.1c-0.3-3.3-0.3-6.6-0.4-9.9c-0.1-1.1-0.6-2.7,0.9-3.2c1.3-0.4,1.8,1.1,2.4,1.9
		c2.1,2.7,4.3,5.3,6.4,8.1c1.5,2.1,3.3,2.5,5.8,1.6c3.3-1.3,6.8-2.4,10.1-3.5c0.8-0.3,1.7-0.5,2.3,0.2c0.6,0.7,0.1,1.6-0.5,2.3
		c-2.1,2.9-4.1,5.9-6.3,8.7c-1.6,2.1-1.5,4,0.1,5.9c2.3,2.9,4.6,5.8,6.8,8.8C1234.8,464.5,1235.3,465.3,1234.8,466.1z M1237.8,459.3
		c-0.3-0.3-0.5-0.6-0.8-1c-2.8-3.5-2.9-6.7-0.2-10.2c1.6-2,3-3.9,4.5-6L1237.8,459.3z M1243.9,429.1c-5.7,1.9-11.3,3.8-16.9,5.9
		c-4.1,1.6-7.1,0.9-9.8-2.8c-3.5-4.8-7.3-9.3-11-13.9c-0.8-1-1.5-2.5-2.6-3.2c-0.1-0.6-0.3-1.3-0.3-1.9c-0.6-2.9,0.3-4.9,3.1-6.2
		c3.8-1.8,7.5-3.7,11.2-5.7c0.2-0.1,0.3-0.2,0.5-0.3c0,0.1,0.1,0.3,0.2,0.4c0.6,0.9,1.7,0.8,2.7,0.6c4.3-0.5,8.6-0.9,12.9-1.6
		c2.6-0.4,4.2,0.4,5.2,3c1.7,4.2,3.7,8.2,5.5,12.3c0.4,0.8,0.7,2,1.8,2L1243.9,429.1z M1251.1,393.8c-0.1,0-0.2,0-0.2,0
		c-1.8,0.1-2.7,0.9-3,2.7c-0.5,2.5-0.9,5-1.5,7.4c-0.1,0.5-0.3,1.2-0.9,1.3c-0.6,0.1-0.9-0.6-1.1-1.1c-1.1-2.3-2.3-4.7-3.2-7.1
		c-0.6-1.5-1.5-1.9-3.1-1.7c-2.5,0.4-5,0.7-7.5,0.9c-0.5,0.1-1.2,0.2-1.6-0.3c-0.4-0.6,0.1-1,0.5-1.6c1.7-1.6,3.5-3.3,5.4-5
		c1.2-1.2,1.7-2.3,0.7-3.9c-1.1-1.9-2-4-2.9-6c-0.3-0.5-0.7-1.1-0.6-1.6c1.5,0.6,2.9,1.3,4.3,2c1.1,0.5,2.4,1.3,3.5,1
		c0.1,0.1,0.3,0.2,0.4,0.3c1.6,0.9,2.9,1,4.2-0.4c1.5-1.6,3.2-3.1,4.9-4.6c0.6-0.5,1.1-1.6,2-0.9c0.8,0.5,0.3,1.4,0.1,2.1
		c-0.4,2.3-0.7,4.6-1.3,6.9c-0.5,1.8,0.2,2.8,1.7,3.7c0,0,0.1,0,0.1,0.1L1251.1,393.8z M1256.8,365.5c-1.5-0.6-2.3,0.9-3.3,1.8
		c-2.9,2.6-5.8,5.1-8.4,7.9c-1.1,1.2-2.4,1.8-3.5,1.9c-0.2-0.6-0.5-1.2-0.7-1.7c-3.5-6.5-7-13-10.7-19.3c-2.6-4.5-2.2-8.1,1.6-11.8
		c5.1-4.8,10.1-10,15.1-15.2c0.4-0.5,0.9-1,1.2-1.5c0.3,0.3,0.6,0.5,1.2,0.4c1.1-0.2,1.3-1.3,1.7-2.2c1.3-4.2,2.7-8.2,4-12.4
		c0.8-2.6,2.1-3.6,4.9-3.5c2.8,0.1,5.6,0.2,8.4,0.1L1256.8,365.5z M1269.4,303.3c-1.8-1.4-3.6-2.7-5.6-4.1c-2.4-1.8-3.2-3.8-2-6.7
		c1.5-3.9,2.8-7.8,4.3-11.8c0.3-0.9,0.7-2-0.2-2.7c-0.9-0.6-1.9-0.1-2.6,0.5c-3.5,2.4-6.8,4.7-10.2,7.3c-2.4,1.8-4.5,2-6.9,0
		c-0.1-0.1-0.1-0.1-0.2-0.2c0.4-0.4,0.6-1,0.8-1.5c1.9-4,3.8-8.1,5.6-12.1c1.1-2.6,2.6-3.4,5.4-2.9c4.6,0.7,9.2,1.2,13.8,1.8
		c1,0.1,2.2,0.5,2.7-0.6c0.5-1-0.3-1.9-1-2.5c-3.2-3.1-6.4-6.2-9.8-9.1c-2.3-2.1-2.8-4.3-1.3-7c2-3.7,3.9-7.7,5.8-11.5
		c0.4-0.9,1-2,0.1-2.8c-0.8-0.7-1.9-0.3-2.8,0.2c-3.8,2-7.6,4-11.4,6.2c-2.6,1.5-4.8,1.5-7.1-0.8c-2.9-2.9-6-5.6-9.2-8.4
		c-0.2-0.2-0.5-0.4-0.7-0.7l46.6,0.5L1269.4,303.3z"/>
	<path id="Star2_Score" class="st2" d="M1089,205.4l240.7-0.3 M1329.5,204.6l-116.8,507.1"/>
</g>
<g id="Star3">
	<path id="Star3_cut" class="st7" d="M1596.7,202.8L1596.7,202.8L1596.7,202.8l-16.3-16.1l-211.3-1.2l-14.4,16.6l-0.5,0l0.1,0.4
		l-1.1,1.3l1.5,0l121.6,502.7l10.9-16.2l12.7-17.5l110.6-451.7L1596.7,202.8z M1474.2,252.9c1.5-6.6,2.7-13.2,3.9-19.9l23.5,0.2
		c-0.1,1.1,0.4,2.2,0.5,3.1c0.7,3.9,1.4,7.8,2.4,11.7c0.8,3.3-0.4,5.3-3.3,6.7c-3.6,1.7-7,3.7-10.5,5.7c-1.2,0.7-3.2,1.2-2.7,3
		c0.4,1.5,2.2,1.2,3.5,1.3c4,0.5,7.9,1,11.9,1.3c3.3,0.1,4.8,1.7,5.3,4.8c0.8,4.2,1.7,8.5,2.4,12.4c-1.3-0.9-2.5-1.8-3.8-2.7
		c-0.6-1.1-1.9-2-3.1-2.6c-7.9-4.1-15.7-8.3-23.7-12.1C1474.9,263,1472.8,259,1474.2,252.9z M1508.9,251.1c-0.5-2.2-1-4.5-1.4-6.7
		c-0.2-0.8-0.7-1.8,0.3-2.3c0.8-0.4,1.4,0.5,1.9,1.1c1.8,1.6,3.6,3.2,5.3,4.9c1.3,1.3,2.6,1.4,4.1,0.5c2.1-1.2,4.4-2.4,6.6-3.6
		c0.5-0.3,1.1-0.6,1.6-0.2s0.2,1.1,0,1.6c-1.1,2.3-2.1,4.5-3.4,6.7c-0.8,1.6-0.6,2.9,0.7,4.1c1.9,1.8,3.8,3.5,5.6,5.3
		c0.4,0.4,0.9,0.9,0.7,1.5c-0.3,0.6-1,0.4-1.6,0.4c-2.7-0.3-5.4-0.6-8-1c-1.6-0.2-2.5,0.2-3.2,1.7c-1,2.4-2.1,4.7-3.2,7.1
		c-0.2,0.5-0.4,1.2-1.1,1.2c-0.8,0-0.8-0.6-1.1-1.3c-0.4-2.4-1.1-4.9-1.5-7.4c-0.3-1.7-1.1-2.6-3-2.7c-2.3-0.1-4.6-0.4-6.9-0.7
		c-0.7-0.1-1.8,0-2-0.8c-0.3-1.1,0.8-1.4,1.6-1.8c2-1.1,4-2.3,6.1-3.3C1508.7,254.2,1509.4,253,1508.9,251.1z M1525.4,298.5
		c2.1,1.5,4.1,2.9,6.1,4.5c0.5,0.3,1,0.7,0.8,1.3c-0.2,0.6-0.9,0.5-1.4,0.6c-2.6,0-5.2,0-7.8,0c-1.6,0-2.4,0.5-2.9,2
		c-0.7,2.4-1.5,4.8-2.3,7.2c-0.2,0.5-0.3,1.2-0.9,1.3c-0.7,0.1-0.9-0.5-1.2-1.2c-0.8-2.3-1.7-4.7-2.4-7.1c-0.6-1.6-1.4-2.4-3.2-2.3
		c-2.2,0.2-4.5,0.1-6.7,0.1c-0.7,0-1.7,0.2-2-0.5c-0.4-1,0.6-1.4,1.4-1.9c1.7-1.3,3.6-2.7,5.4-3.9c1.5-1.1,2.1-2.2,1.4-4
		c-0.8-2.1-1.5-4.2-2.1-6.4c-0.3-0.7-1-1.6,0-2.3c0.7-0.5,1.4,0.3,2,0.8c1.9,1.4,3.8,2.6,5.7,4.1c1.4,1.1,2.7,1,4,0
		c1.9-1.4,3.9-2.8,5.9-4.2c0.4-0.3,1-0.7,1.5-0.3c0.5,0.4,0.3,1,0.2,1.5c-0.8,2.3-1.5,4.6-2.5,6.8
		C1523.5,296.3,1523.9,297.6,1525.4,298.5z M1488,350.2c2.2,3.7,4.2,7.4,6.3,11.3c0.5,0.8,0.9,1.9,0.2,2.7c-0.8,0.8-1.8,0.1-2.6-0.3
		c-4-1.9-8.1-3.6-12-5.7c-2.4-1.3-4.1-0.9-5.8,1.1c-2.8,3.2-5.8,6.3-8.7,9.4c-0.6,0.7-1.3,1.6-2.4,1.2c-1.2-0.3-1-1.4-1-2.7
		c0.4-4,0.9-8.3,1.5-12.5c0.4-2.9-0.5-4.8-3.4-5.9c-3.6-1.3-7-3-10.5-4.6c-1.1-0.5-2.9-0.8-2.7-2.3c0.2-1.8,2-1.6,3.4-1.9
		c3.7-0.8,7.5-1.6,11.3-2.2c3.1-0.4,4.8-1.9,5.1-5.2c0.2-3.8,0.8-7.6,1.3-11.4c0.1-1.3-0.2-3.2,1.6-3.6c1.5-0.3,1.9,1.6,2.4,2.6
		c2,3.5,4.1,6.8,5.9,10.4c1.4,2.7,3.3,3.5,6.2,2.9c4-0.9,8.1-1.6,12.2-2.2c0.9-0.2,2.1-0.3,2.6,0.7c0.6,1-0.3,1.8-0.9,2.5
		c-2.9,2.9-5.7,5.9-8.8,8.7C1486.8,345.5,1486.5,347.6,1488,350.2z M1466.7,407.9c0.5,2.4,1,4.9,1.4,7.4c0.1,0.5,0.2,1.2-0.3,1.5
		c-0.6,0.3-1-0.2-1.4-0.6c-1.8-1.8-3.8-3.5-5.6-5.4c-1.1-1.1-2.1-1.3-3.5-0.5c-2.1,1.2-4.4,2.5-6.6,3.6c-0.5,0.3-1,0.6-1.6,0.3
		c-0.6-0.4-0.3-1,0-1.7c1-2.2,2-4.4,3.1-6.7c0.7-1.6,0.7-2.8-0.8-3.9c-1.8-1.4-3.3-3-5-4.5c-0.5-0.5-1.5-0.9-1.1-1.7
		c0.4-1,1.4-0.6,2.2-0.4c2.2,0.3,4.5,0.5,6.7,0.9c1.8,0.4,3-0.2,3.8-2c0.9-2.1,1.8-4,2.9-6.1c0.3-0.7,0.5-1.9,1.5-1.7
		c0.9,0.1,0.8,1.2,0.8,1.9c0.4,2.3,1,4.5,1.3,6.8c0.2,1.8,1.2,2.5,2.9,2.8c2.4,0.3,4.8,0.6,7.2,1c0.6,0.1,1.2,0.2,1.4,0.8
		c0.1,0.6-0.5,1-0.9,1.2c-2.1,1.1-4.3,2.3-6.5,3.3C1466.9,405,1466.4,406.2,1466.7,407.9z M1472.7,395.7c-3-0.3-4.7-1.6-5.1-4.8
		c-0.5-3.5-1.3-6.9-2-10.4c2.9-3.1,5.7-6.1,8.5-9.4c3-3.4,5.9-4.1,10.1-1.9c3.1,1.6,6.2,3.1,9.3,4.6c1.4,3.1,2.8,6.2,4.4,9.1
		c1.6,2.7,1,4.7-1.2,6.8c-3.2,2.9-6.4,5.9-9.3,8.6l-0.1,0.1c-0.4-0.8-1.4-1-2.2-1.2C1480.9,396.8,1476.9,396.2,1472.7,395.7z
		 M1491.1,327.3c-5,1.1-8.4-0.2-10.8-4.9c-3.1-6.1-6.7-11.9-10.1-17.8c-1-1.7-1.6-4.5-3.9-4.4c0.1-0.8,0.2-1.6,0.4-2.5
		c0.7-5.4,3.1-8,8.8-8.6c9-1,18-2.7,26.9-4c0.7,2.4,1.6,4.8,2.5,7.2c1.2,3.1,0.3,5.1-2.4,6.9c-3.3,2.1-6.3,4.4-9.4,6.7
		c-1.1,0.8-2.9,1.5-2.3,3.2c0.6,1.4,2.3,0.9,3.5,0.9c3.8,0,7.7,0.1,11.5-0.3c3.2-0.3,4.8,1.1,5.6,4c1,3.2,2.1,6.6,3.1,9.6
		c-0.8-0.1-1.7,0-2.5,0.1C1505.1,324.6,1498,325.8,1491.1,327.3z M1463.7,232.9c-3.2,3.1-6.3,6.1-9.4,9.3c-4.2,4.4-8.5,5.4-14.1,2.3
		c-7.2-4-14.6-7.4-22-11.1c-0.5-0.2-1.1-0.6-1.7-0.9L1463.7,232.9z M1411.7,238.6c0.3,0.4,0.5,0.8,0.7,1.1c3.5,7.1,6.9,14.2,10.8,21
		c3.4,5.9,2.3,10.3-2.6,14.7c-0.6,0.5-1.1,1.1-1.7,1.6L1411.7,238.6z M1420.7,287.4l-0.6-3.1c0.5-0.7,1.3-1.3,1.9-1.8
		c3.2-3.3,6.4-6.6,9.8-9.6c2.9-2.5,3.6-5.1,1.6-8.6c-2.3-4-4.3-8.1-6.2-12.2c-0.7-1.4-2.4-3.1-0.8-4.6c1.3-1.3,2.9,0.3,4.2,0.9
		c4.2,2.1,8.6,4.1,12.8,6.4c3.2,1.8,5.7,1.3,8.1-1.4c3.4-3.6,7.1-7,10.6-10.4c0.8-0.8,1.9-1.7,3-1.1c1.2,0.6,0.9,2,0.7,3.1
		c-0.8,4.9-1.7,9.8-2.8,14.6c-0.8,3.6,0.3,5.8,3.6,7.4c4.6,2.2,9.2,4.7,13.7,7c1,0.5,2.3,1.3,2,2.6c-0.2,1.3-1.6,1.4-2.8,1.5
		c-5.3,0.8-10.6,1.8-15.9,2.3c-3.2,0.3-4.7,1.9-5,5c-0.7,5.1-1.5,10.2-2.4,15.2c-0.1,1.1-0.3,2.4-1.6,2.9c-1.4,0.5-1.9-0.9-2.7-2
		c-2.2-4.3-4.6-8.8-6.9-13.4c-1.5-3.1-3.6-4.5-7.3-3.6c-4.4,1.1-9,1.6-13.5,2.4C1423.1,287.3,1421.6,287.8,1420.7,287.4z
		 M1422.5,297.7c2.7-0.5,5.5-1,8.3-1.7c6.4-1.6,9.9,0.7,12.6,6.2c3.9,7.9,8,15.7,11.8,23.2c1.4,2,2.3,4.3,4.8,3.5
		c0.2-0.1,0.4-0.2,0.6-0.3c-1,3.7-3.8,5.5-8.2,6.1c-6.5,0.9-13,2.3-19.3,3.6c-0.9,0.2-2,0.2-2.9,0.5L1422.5,297.7z M1431.2,345.1
		c0.3,0.1,0.5,0.2,0.7,0.3c5.9,2.8,11.8,5.8,18,7.9c5.1,1.9,6.6,5.1,5.9,10.1c-1,7.3-1.7,14.7-2.5,21.5c0,2.1-0.4,4,1.7,4.7
		c0.4,0.1,0.7,0.1,1,0.1c-1.3,2.7-3.3,3.4-6.2,2.8c-3.3-0.6-6.7-1-10.1-1.4L1431.2,345.1z M1441.2,399.5c1.2,1.1,2.4,2.2,3.7,3.2
		c2.5,2,2.7,4.1,1.4,6.7c-0.8,1.7-1.6,3.4-2.4,5L1441.2,399.5z M1445.4,422.4c3.3-1.7,6.5-3.5,9.7-5.3c2.3-1.3,4-1.2,6,0.8
		c2.5,2.6,5.2,5.1,7.8,7.5c0.1,4,0.3,8,0.5,11.9c0.5,4.9-1.6,7.5-6.2,8.8c-4.2,1.3-8.4,2.9-12.6,4.4L1445.4,422.4z M1452.3,459.6
		c3.8,1.1,7.5,2.2,11.4,2.9c4.7,0.9,6.3,3.5,6.4,7.9c0.1,6.2,0.4,12.3,0.7,18.1c-0.3,2.7-0.6,5.5-0.6,8.2c-0.1,3.2-1.5,4.6-4.5,5.2
		c-1.8,0.3-3.5,0.7-5.3,1.1L1452.3,459.6z M1487.4,511.7c1.2,2,2.4,4.2,3.6,6.3c0.3,0.5,0.6,1.1,0.2,1.6c-0.4,0.5-1.1,0.2-1.6,0
		c-2.2-1.1-4.4-2-6.5-3.2c-1.6-0.8-2.8-0.6-3.9,0.8c-1.7,1.9-3.3,3.7-5.1,5.6c-0.4,0.4-0.8,0.9-1.4,0.7c-0.6-0.3-0.4-0.9-0.4-1.5
		c0.3-2.6,0.5-5.2,0.8-7.8c0.2-1.6-0.3-2.4-1.7-3.1c-2.4-1-4.6-2-6.9-3c-0.5-0.2-1.1-0.4-1.2-1.1c-0.1-0.7,0.6-0.8,1.3-1.1
		c2.3-0.5,4.7-1.1,7.3-1.6c1.7-0.3,2.5-1.1,2.6-3c0.1-2.2,0.3-4.5,0.6-6.7c0.1-0.7-0.1-1.7,0.8-2c1-0.3,1.3,0.8,1.8,1.5
		c1.1,1.9,2.3,3.9,3.3,5.8c0.9,1.6,1.9,2.3,3.8,1.8c2.1-0.5,4.3-1,6.5-1.4c0.8-0.2,1.7-0.7,2.3,0.3c0.4,0.8-0.5,1.3-1,1.9
		c-1.6,1.8-3,3.5-4.7,5.3C1486.5,508.9,1486.5,510.2,1487.4,511.7z M1477.8,598.5l-15.9-86.3c1,0.4,1.9,0.8,2.9,1.2
		c2.5,1,3.4,2.5,2.9,5.2c-0.6,4.5-1.1,9-1.5,13.4c-0.1,0.9-0.4,2.1,0.6,2.6c1,0.4,1.8-0.3,2.5-1c2.9-3.2,5.9-6.3,8.7-9.6
		c2-2.2,4.1-2.8,6.8-1.3c2.5,1.3,5,2.5,7.6,3.7L1477.8,598.5z M1494.2,517.6c-0.6-1-1.1-2-1.8-3.1c-1.5-2.5-1.5-4.6,0.7-6.9
		c1.3-1.5,2.7-2.9,4-4.4L1494.2,517.6z M1498.7,495c-3.7,0.8-7.5,1.5-11.2,2.5c-3.2,0.9-5.1-0.3-6.6-3.1c-1-2.1-2.2-4.2-3.4-6.2
		c3.1-4.5,6.2-9,9.1-13.7c2.1-3.3,4.5-4.3,8.3-3c2.7,0.9,5.4,1.8,8,2.5L1498.7,495z M1503.1,465.7c-0.5,0.8-1.5,0.4-2.3,0.1
		c-3.7-1.1-7.4-2-11.1-3.2c-2.2-0.8-3.6-0.2-4.9,1.8c-2,3.1-4.1,6.2-6.2,9.2c-0.4,0.7-0.9,1.5-1.8,1.3c-1.1-0.1-1-1.1-1.2-2.1
		c-0.1-3.5-0.3-7.2-0.4-10.9c0-2.5-1-4-3.7-4.6c-3.2-0.6-6.4-1.7-9.5-2.6c-1-0.3-2.6-0.3-2.7-1.6c-0.2-1.6,1.6-1.8,2.7-2.1
		c3-1.2,6.2-2.3,9.3-3.3c2.6-0.8,3.9-2.3,3.6-5.1c-0.3-3.3-0.3-6.6-0.4-9.9c-0.1-1.1-0.6-2.7,0.9-3.2c1.3-0.4,1.8,1.1,2.4,1.9
		c2.1,2.7,4.3,5.3,6.4,8.1c1.5,2.1,3.3,2.5,5.8,1.6c3.3-1.3,6.8-2.4,10.1-3.5c0.8-0.3,1.7-0.5,2.3,0.2c0.6,0.7,0.1,1.6-0.5,2.3
		c-2.1,2.9-4.1,5.9-6.3,8.7c-1.6,2.1-1.5,4,0.1,5.9c2.3,2.9,4.6,5.8,6.8,8.8C1503.1,464.1,1503.6,464.9,1503.1,465.7z M1506.1,458.9
		c-0.3-0.3-0.5-0.6-0.8-1c-2.8-3.5-2.9-6.7-0.2-10.2c1.6-2,3-3.9,4.5-6L1506.1,458.9z M1512.2,428.7c-5.7,1.9-11.3,3.8-16.9,5.9
		c-4.1,1.6-7.1,0.9-9.8-2.8c-3.5-4.8-7.3-9.3-11-13.9c-0.8-1-1.5-2.5-2.6-3.2c-0.1-0.6-0.3-1.3-0.3-1.9c-0.6-2.9,0.3-4.9,3.1-6.2
		c3.8-1.8,7.5-3.7,11.2-5.7c0.2-0.1,0.3-0.2,0.5-0.3c0,0.1,0.1,0.3,0.2,0.4c0.6,0.9,1.7,0.8,2.7,0.6c4.3-0.5,8.6-0.9,12.9-1.6
		c2.6-0.4,4.2,0.4,5.2,3c1.7,4.2,3.7,8.2,5.5,12.3c0.4,0.8,0.7,2,1.8,2L1512.2,428.7z M1519.4,393.4c-0.1,0-0.2,0-0.2,0
		c-1.8,0.1-2.7,0.9-3,2.7c-0.5,2.5-0.9,5-1.5,7.4c-0.1,0.5-0.3,1.2-0.9,1.3c-0.6,0.1-0.9-0.6-1.1-1.1c-1.1-2.3-2.3-4.7-3.2-7.1
		c-0.6-1.5-1.5-1.9-3.1-1.7c-2.5,0.4-5,0.7-7.5,0.9c-0.5,0.1-1.2,0.2-1.6-0.3c-0.4-0.6,0.1-1,0.5-1.6c1.7-1.6,3.5-3.3,5.4-5
		c1.2-1.2,1.7-2.3,0.7-3.9c-1.1-1.9-2-4-2.9-6c-0.3-0.5-0.7-1.1-0.6-1.6c1.5,0.6,2.9,1.3,4.3,2c1.1,0.5,2.4,1.3,3.5,1
		c0.1,0.1,0.3,0.2,0.4,0.3c1.6,0.9,2.9,1,4.2-0.4c1.5-1.6,3.2-3.1,4.9-4.6c0.6-0.5,1.1-1.6,2-0.9c0.8,0.5,0.3,1.4,0.1,2.1
		c-0.4,2.3-0.7,4.6-1.3,6.9c-0.5,1.8,0.2,2.8,1.7,3.7c0,0,0.1,0,0.1,0.1L1519.4,393.4z M1525.1,365.1c-1.5-0.6-2.3,0.9-3.3,1.8
		c-2.9,2.6-5.8,5.1-8.4,7.9c-1.1,1.2-2.4,1.8-3.5,1.9c-0.2-0.6-0.5-1.2-0.7-1.7c-3.5-6.5-7-13-10.7-19.3c-2.6-4.5-2.2-8.1,1.6-11.8
		c5.1-4.8,10.1-10,15.1-15.2c0.4-0.5,0.9-1,1.2-1.5c0.3,0.3,0.6,0.5,1.2,0.4c1.1-0.2,1.3-1.3,1.7-2.2c1.3-4.2,2.7-8.2,4-12.4
		c0.8-2.6,2.1-3.6,4.9-3.5c2.8,0.1,5.6,0.2,8.4,0.1L1525.1,365.1z M1537.6,302.9c-1.8-1.4-3.6-2.7-5.6-4.1c-2.4-1.8-3.2-3.8-2-6.7
		c1.5-3.9,2.8-7.8,4.3-11.8c0.3-0.9,0.7-2-0.2-2.7c-0.9-0.6-1.9-0.1-2.6,0.5c-3.5,2.4-6.8,4.7-10.2,7.3c-2.4,1.8-4.5,2-6.9,0
		c-0.1-0.1-0.1-0.1-0.2-0.2c0.4-0.4,0.6-1,0.8-1.5c1.9-4,3.8-8.1,5.6-12.1c1.1-2.6,2.6-3.4,5.4-2.9c4.6,0.7,9.2,1.2,13.8,1.8
		c1,0.1,2.2,0.5,2.7-0.6c0.5-1-0.3-1.9-1-2.5c-3.2-3.1-6.4-6.2-9.8-9.1c-2.3-2.1-2.8-4.3-1.3-7c2-3.7,3.9-7.7,5.8-11.5
		c0.4-0.9,1-2,0.1-2.8c-0.8-0.7-1.9-0.3-2.8,0.2c-3.8,2-7.6,4-11.4,6.2c-2.6,1.5-4.8,1.5-7.1-0.8c-2.9-2.9-6-5.6-9.2-8.4
		c-0.2-0.2-0.5-0.4-0.7-0.7l46.6,0.5L1537.6,302.9z"/>
	<path id="Star3_Score" class="st4" d="M1594.6,202.6l-240,1.2 M1595,202.9l-118.4,502.9"/>
</g>
<g id="Swirl1">
	<path id="Swirl1_Cut" class="st8" d="M1231.3,823.1l-0.1,0.6l-120.7-208.8L989.6,824l120.8,508.6l26.5-36.9l110.3-448L1231.3,823.1
		z M1109.8,689.3c31.6,0,57.1,25.6,57.1,57.1s-25.5,57.1-57.1,57.1s-57.1-25.5-57.1-57.1C1052.7,714.8,1078.2,689.3,1109.8,689.3z
		 M1103.9,883.7c1.9,2.6,6.1,2.9,8.2,0.5c1-1.2,1.4-2.6,1.6-4.2c0.2-2.6-0.4-5.1-1.9-7.3c-2.7-3.9-6.6-6-11.3-6
		c-3.9,0-7.4,1.3-10.5,3.9c-3.3,2.7-5.4,6.2-6.2,10.4c-0.5,3-0.4,6.1,0.4,8.9c-4.2-0.9-8.5-0.8-12.7,0.2c-0.5,0.2-1.1,0.3-1.7,0.5
		c0.2-0.8,0.5-1.5,0.8-2.3c0.8-2.6,1.7-5.2,2.2-7.9c0.4-2,0.9-3.9,1.8-5.8c2.1-4.7,5.2-8.5,9.3-11.6c1.9-1.4,4-2.5,6.2-3.4
		c3.1-1.2,6.3-1.7,9.6-1.7c2.5,0,5,0.6,7.3,1.5c3.5,1.4,6.5,3.5,9,6.3c1.6,1.7,2.8,3.7,3.6,5.8c0.6,1.5,1.1,3,1.3,4.6
		c0.5,3,0.1,6-0.9,8.9c-1.9,5.1-5.2,8.7-10.3,10.7c-2.5,1-5.1,1-7.8,0.6c-2.2-0.3-4.4-1.5-6.3-3.1c-2-1.7-3.5-3.8-4.1-6.5
		c-0.8-2.6-0.6-5.2,0.4-7.7c0.7-1.7,1.7-3.3,3.3-4.5c2.4-1.9,5.2-2.6,8.2-2.2c1.9,0.3,3.6,1.1,5,2.5c0.1,0.1,0.2,0.2,0.2,0.3
		c-0.1,0.2-0.2,0.1-0.4,0.1c-1.1,0.1-2,0.3-2.9,1C1102.9,878,1101.9,880.8,1103.9,883.7z M1052.8,902.6l-9.3-48.4l35.2,0.2
		c-2.8,2-5.4,4.3-7.5,7c-1.9,2.4-3.7,5-4.9,7.7c-0.8,1.7-1.5,3.5-2,5.4c-1.1,5-2.2,10-3.8,14.9c-0.8,2.7-1.8,5.4-2.9,8
		C1055.9,899,1054.2,900.7,1052.8,902.6z M1063.3,957.8l-1.3-6.8c2.1,1.4,4.3,2.7,6.6,3.7c-1.5,0.8-3,1.7-4.4,2.5
		C1063.9,957.4,1063.6,957.6,1063.3,957.8z M1068.3,984.4l-0.7-4.6l-2.1-10.7c1-1,2-1.9,3.2-2.7c1.9-1.4,4-2.5,6.2-3.4
		c3.1-1.2,6.3-1.7,9.6-1.7c2.5,0,5,0.6,7.3,1.5c3.6,1.4,6.5,3.5,9,6.3c1.6,1.7,2.8,3.7,3.6,5.8c0.6,1.5,1.1,3,1.3,4.6
		c0.5,3,0.1,6-0.9,8.9c-1.9,5.1-5.2,8.7-10.3,10.7c-2.5,1-5.1,1-7.8,0.6c-2.5-0.5-4.6-1.6-6.6-3.2c-2-1.7-3.5-3.8-4.1-6.5
		c-0.8-2.6-0.6-5.2,0.4-7.7c0.7-1.7,1.7-3.3,3.3-4.5c2.4-1.9,5.2-2.6,8.2-2.2c1.9,0.3,3.6,1.1,5,2.5c0.1,0.1,0.2,0.2,0.2,0.3
		c-0.1,0.2-0.2,0.1-0.4,0.1c-1.1,0.1-2,0.3-2.9,1c-2.3,1.7-3.4,4.5-1.4,7.4c1.9,2.7,6.1,3,8.2,0.5c1-1.1,1.4-2.6,1.6-4.1
		c0.2-2.6-0.4-5.1-1.9-7.3c-2.7-3.9-6.6-6-11.3-6c-3.9,0-7.4,1.3-10.5,3.9C1071.2,976.6,1069.1,980.1,1068.3,984.4L1068.3,984.4z
		 M1118.5,1011c-3.3,0-5.8,3.2-5.1,6.4c0.4,1.5,1.4,2.6,2.5,3.6c2,1.7,4.5,2.6,7.1,2.6c4.8,0,8.6-2,11.4-6c2.3-3.3,3.2-7,2.8-10.9
		c-0.3-4.3-1.9-7.9-5-11.1c-2.8-2.9-6.1-4.6-10-5.5c-2.4-0.5-4.8-0.7-7.3-0.3c0.9-3.3,1.3-6.6,1.1-10c-0.2-1.7-0.5-3.5-0.8-5.1
		c-1.9-3.6-3.6-7.3-5.5-11.1c-0.7-0.9-1.4-1.7-2.3-2.6c-2.3-2.3-4.7-4.3-7.5-5.9c-0.2-0.1-0.4-0.2-0.5-0.3c2-0.6,3.8-1.4,5.5-2.2
		c3.9-2.1,7.7-4.7,10.8-7.8c0.5-0.5,1.1-1.1,1.6-1.7c0.1,0.4,0.1,0.8,0.2,1.1c0.6,4.1,1.6,8,3,12c0.9,2.4,1.8,4.8,2.9,7.1
		c1.1,2.3,2.2,4.6,3.6,6.9c1,1.7,2,3.3,3,4.9c1.2,1.8,2.6,3.6,3.8,5.4c1.7,2.2,3.2,4.3,5.1,6.4c1.4,1.5,2.7,3,3.7,4.8
		c2.5,4.4,3.9,9.3,4,14.4c0.1,2.4-0.3,4.8-0.9,7.1c-0.8,3.3-2.2,6.2-4.2,8.8c-1.4,2-3.3,3.8-5.5,5.1c-3.1,2.1-6.5,3.3-10.3,3.8
		c-2.3,0.3-4.6,0.1-6.9-0.4c-1.6-0.3-3.1-0.8-4.5-1.6c-2.7-1.3-5-3.4-6.6-5.9c-3-4.5-4.1-9.4-2.7-14.6c0.6-2.6,2.1-4.9,4-6.7
		c1.7-1.7,3.9-2.9,6.3-3.5c2.6-0.7,5.1-0.6,7.6,0.3c2.6,0.9,4.7,2.5,6,4.8c1.1,1.6,1.7,3.3,1.7,5.2c0.2,3.1-0.9,5.8-3.1,8.1
		c-1.4,1.4-3,2.3-4.8,2.6c-0.2,0-0.2,0.1-0.3,0c-0.1-0.2,0.1-0.2,0.2-0.3c0.5-0.9,0.9-1.8,0.8-2.9
		C1123.7,1013.4,1121.9,1011,1118.5,1011z M1082.5,1057.4l-0.7-3l-10.6-55.7c0.9,1.5,2,2.9,3.2,4.1c3.4,3.3,7.4,5.3,12,6.2
		c3,0.5,6.1,0.5,9-0.2c-0.6,3.3-0.8,6.6-0.1,9.9c0.7,3.6,1.9,6.8,3.9,9.9c1.7,2.6,3.6,4.8,6,6.7c-0.5,0.2-1,0.4-1.5,0.6
		c-2.4,1.1-4.7,2.2-6.9,3.7c-3.1,2.2-5.9,4.6-8.3,7.5c-1.9,2.4-3.7,5-4.9,7.7C1083.3,1055.6,1082.9,1056.5,1082.5,1057.4z
		 M1112.8,1215.4l-15.5-80.2c0.2,0.4,0.5,0.8,0.7,1.1c0.8,0.8,1.7,1.7,2.6,2.5c2.6,2.2,5.2,4.1,8.3,5.5c4.5,2.2,9.3,3.2,14.3,3.3
		c1.1,0,2.1-0.1,3.2-0.2L1112.8,1215.4z M1131.1,1113.8c-0.6,1.9-1.5,3.6-3.1,5c-2.3,2.2-5.2,3.2-8.5,3c-2-0.2-3.9-0.8-5.4-2.1
		c-0.1-0.1-0.2-0.2-0.2-0.3c0.1-0.2,0.2-0.1,0.4-0.2c1.1-0.2,2-0.5,2.9-1.3c2.3-2,3.1-5.1,0.8-7.9c-2.2-2.6-6.6-2.5-8.6,0.3
		c-1,1.3-1.2,2.9-1.3,4.5c0,2.8,0.9,5.3,2.7,7.3c3.2,3.9,7.4,5.6,12.4,5.3c2.7-0.2,5.1-1,7.3-2.4l-1.1,5.1l-1.2,5.8
		c-1.3,0.3-2.6,0.5-3.9,0.5c-2.6,0.2-5.2-0.2-7.8-0.9c-3.8-1.1-7.1-3.1-9.9-5.8c-1.7-1.5-3.1-3.4-4.2-5.7c-0.8-1.5-1.4-3-1.8-4.7
		c-0.8-3.1-0.7-6.2,0.1-9.3c1.5-5.5,4.7-9.6,10-12.1c2.6-1.3,5.3-1.6,8.1-1.3c2.6,0.2,5,1.2,7.1,2.7c2.3,1.6,3.9,3.6,4.8,6.4
		C1131.8,1108.4,1132,1111.2,1131.1,1113.8z M1136.2,1097.7c-1.3-2-2.8-3.6-4.5-5.2c-0.8-0.6-1.5-1.1-2.3-1.7
		c0.5-0.2,1.1-0.4,1.6-0.5c2.7-1.1,5.2-2.3,7.5-4.1L1136.2,1097.7z M1137.4,1070.9c-1.9,5.1-5.2,8.7-10.3,10.7
		c-2.5,1-5.1,1.1-7.8,0.6c-2.4-0.5-4.6-1.6-6.6-3.2c-2-1.7-3.5-3.8-4.1-6.5c-0.8-2.6-0.6-5.2,0.4-7.7c0.7-1.7,1.7-3.3,3.4-4.5
		c2.4-1.9,5.2-2.6,8.2-2.2c1.9,0.3,3.6,1.1,5,2.5c0.1,0.1,0.2,0.2,0.2,0.3c-0.1,0.2-0.2,0.1-0.4,0.1c-1.1,0.1-2,0.3-2.9,1
		c-2.3,1.7-3.4,4.6-1.4,7.4c1.9,2.6,6.1,2.9,8.2,0.5c1-1.2,1.4-2.6,1.6-4.2c0.2-2.6-0.4-5.1-2-7.3c-2.7-3.9-6.6-5.9-11.3-6
		c-3.9-0.1-7.4,1.3-10.5,3.9c-3.3,2.8-5.4,6.2-6.2,10.4c-0.8,3.9-0.3,7.7,1.3,11.4c1.1,2.6,2.7,4.9,4.7,7.1c1,1,2,1.8,3.2,2.6
		c-1.4,0.4-2.7,0.8-4.1,1.4c-3.8,1.8-7.2,4.2-9.8,7.5c-2,2.6-3.7,5.4-4.8,8.4l-2.9-15.1l-1.9-11.6c0.5-1.4,1-2.9,1.5-4.3
		c0.8-2.6,1.7-5.2,2.2-7.9c0.4-2,0.9-3.9,1.8-5.8c2.1-4.7,5.2-8.5,9.3-11.6c1.9-1.4,4-2.5,6.2-3.4c3.1-1.2,6.3-1.7,9.6-1.7
		c2.5,0,5,0.6,7.3,1.5c3.6,1.4,6.5,3.5,9,6.3c1.6,1.7,2.8,3.7,3.6,5.8c0.6,1.4,1.1,3,1.3,4.6C1138.8,1065,1138.4,1068,1137.4,1070.9
		z M1145.8,1049.8l-0.5,2.3c-1-1.9-2-3.8-2.9-5.7c-0.7-0.9-1.4-1.7-2.3-2.6c-1.4-1.5-3-2.8-4.6-4.1c0.9-0.4,1.6-0.7,2.3-1
		c4.3-1.9,8-4.8,11.1-8.5c0.4-0.5,0.8-1,1.1-1.4L1145.8,1049.8z M1162.4,966.6l-4.5,22.1l-1.9,9.7c-0.2-0.5-0.3-1.1-0.5-1.7
		c-0.8-3-1.9-5.8-3.5-8.4c-1-1.7-2-3.3-3.2-4.6c-3.6-3.7-6.8-7.6-10-11.6c-2.9-3.6-5.3-7.6-7.7-11.6c-1.2-2.1-2.2-4.4-3.2-6.6
		c1.7,2,3.7,3.7,5.8,5.3c2.1,1.4,4.3,2.7,6.7,3.7c2.7,1.1,5.5,1.9,8.4,2.2c2.6,0.3,5.2,0.6,7.8,0.3c2.1-0.2,4.2-0.4,6.1-0.9
		L1162.4,966.6z M1168.4,936.9l-0.9,4.5l-1.4,6.7l-1,4.8c-2.4,1-5,1.6-7.7,1.9c-2.3,0.3-4.7,0.1-7.1-0.3c-3.3-0.5-6.4-1.7-9.2-3.4
		c-2.2-1.3-4-3.1-5.6-5c-2.3-3-3.8-6.2-4.7-10c-0.5-2.3-0.5-4.6-0.2-7c0.2-1.6,0.5-3.2,1.2-4.7c1.1-2.9,2.9-5.3,5.2-7.2
		c4.1-3.5,9-4.9,14.3-4c2.6,0.4,5,1.7,7.1,3.4c1.9,1.6,3.3,3.6,4.1,6.1c0.9,2.5,1,5,0.4,7.6c-0.7,2.6-2.1,4.8-4.3,6.5
		c-1.5,1.1-3.2,2-5.1,2.2c-3,0.5-5.8-0.4-8.2-2.3c-1.5-1.2-2.6-2.7-3-4.6c0-0.1-0.2-0.2,0-0.3c0.2-0.2,0.2,0.1,0.3,0.1
		c0.9,0.5,1.9,0.8,3,0.6c2.7-0.1,4.9-2,4.7-5.4c-0.3-3.3-3.8-5.5-6.8-4.6c-1.4,0.5-2.5,1.6-3.3,2.8c-1.6,2.2-2.1,4.7-1.9,7.3
		c0.4,4.8,2.8,8.5,6.9,10.9c3.4,2,7.2,2.6,11,1.9c4.2-0.7,7.7-2.7,10.6-6C1167.3,938.6,1167.9,937.7,1168.4,936.9L1168.4,936.9z
		 M1180.4,877l-1.5,7.7l-5.8,28.1l-1.9,9.8l-0.2,0.7c-0.2-0.9-0.3-1.7-0.6-2.6c-1.2-4.5-3.8-8.3-7.4-11.4c-3.2-2.6-6.7-4.3-10.7-5
		c-3.9-0.7-7.9-0.6-11.7,0.5c-1.6,0.5-3.1,1.1-4.5,1.7c1.3-2.4,2.7-4.8,4.2-7.1c3.1-4.8,6.7-9.3,10.7-13.4c4.5-4.6,9.4-8.6,15-12
		c2.5-1.6,5.1-2.9,8-4.2c2.6-1.2,5.3-2.2,7.9-3.2c0.2-0.1,0.5-0.2,0.7-0.2L1180.4,877z M1183.2,862.6c-4.8,0.1-9.4,1.1-13.9,2.6
		c-2.4,0.8-4.8,1.8-7.1,2.9c-4.5,2.2-8.8,4.8-12.8,7.9c-3.9,2.9-7.5,6.3-10.8,10c-2,2.3-4,4.6-5.9,7c-1.8,2.5-3.7,5.1-5.2,7.6
		c-1.2,2-2.3,3.9-3.5,6c-1.2,2.3-2.4,4.7-3.6,7.1c-1.3,3-2.7,5.9-3.7,8.9c-0.8,2.3-1.8,4.5-3,6.6c-3.2,5.2-7.4,9.3-12.8,12.2
		c-2.5,1.4-5.1,2.4-7.9,3.2c-3.9,1-7.7,1.3-11.7,1c-3-0.3-5.8-1.2-8.5-2.5c-4-2.1-7.2-4.8-9.8-8.3c-1.6-2.2-2.7-4.5-3.5-7.2
		c-0.5-1.8-0.9-3.6-1-5.4c-0.2-3.6,0.6-7,2.3-10.1c3-5.8,7.5-9.5,13.8-11.2c3.1-0.9,6.3-0.7,9.3,0.2c2.9,0.8,5.3,2.4,7.2,4.4
		c2.2,2.2,3.5,4.8,4,7.9c0.5,3.1,0,6.1-1.5,8.9c-1.1,2-2.5,3.7-4.6,4.8c-3.2,2-6.5,2.5-10.1,1.6c-2.3-0.5-4.2-1.7-5.6-3.4
		c-0.1-0.1-0.2-0.2-0.2-0.4c0.1-0.2,0.3-0.1,0.5-0.1c1.3,0.1,2.4-0.2,3.6-0.8c3-1.7,4.6-4.8,2.7-8.4c-1.8-3.3-6.7-4-9.7-1.4
		c-1.4,1.3-2,2.9-2.4,4.6c-0.7,3-0.2,6,1.3,8.6c2.7,4.8,7,7.6,12.7,8.3c4.7,0.6,9-0.7,12.9-3.3c4.2-2.8,7.3-6.6,8.8-11.4
		c1.5-4.5,1.4-8.9,0.2-13.3c-0.2-0.5-0.4-1.1-0.5-1.6c3.6,0.4,7,0,10.4-1.3c3.8-1.4,7-3.4,9.9-6.3c2.5-2.6,4.5-5.5,5.9-8.9
		c1.8-4.1,2.3-8.3,2.1-12.7c-0.2-1.7-0.5-3.5-0.8-5.1c-1.9-3.6-3.6-7.3-5.5-11.1c-0.7-0.9-1.4-1.7-2.3-2.6c-1.2-1.2-2.4-2.3-3.8-3.3
		l14.4,0l50.9,0.2L1183.2,862.6z"/>
	<path id="Swirl1_Score" class="st2" d="M991.3,825.5l240.3,1.1 M1232.4,824.9l-122,507.6"/>
</g>
<g id="Swirl2">
	<path id="Swirl3_Cut" class="st8" d="M1494,826l-1.5-2.4l-10.5-16.3l-217.8-1.8l-13,18.7l123.7,508.2l28.2-36.3l101.1-453.9
		L1494,826z M1347.6,864.5c1.9-1.4,4-2.5,6.2-3.4c3.1-1.2,6.3-1.7,9.6-1.7c2.5,0,5,0.6,7.3,1.5c3.5,1.4,6.5,3.5,9,6.3
		c1.6,1.7,2.8,3.7,3.6,5.8c0.6,1.5,1.1,3,1.3,4.6c0.5,3,0.1,6-0.9,8.9c-1.9,5.1-5.2,8.7-10.3,10.7c-2.5,1-5.1,1-7.8,0.6
		c-2.2-0.3-4.4-1.5-6.3-3.1c-2-1.7-3.5-3.8-4.1-6.5c-0.8-2.6-0.6-5.2,0.4-7.7c0.7-1.7,1.7-3.3,3.3-4.5c2.4-1.9,5.2-2.6,8.2-2.2
		c1.9,0.3,3.6,1.1,5,2.5c0.1,0.1,0.2,0.2,0.2,0.3c-0.1,0.2-0.2,0.1-0.4,0.1c-1.1,0.1-2,0.3-2.9,1c-2.3,1.7-3.4,4.5-1.4,7.4
		c1.9,2.6,6.1,2.9,8.2,0.5c1-1.2,1.4-2.6,1.6-4.2c0.2-2.6-0.4-5.1-1.9-7.3c-2.7-3.9-6.6-6-11.3-6c-3.9,0-7.4,1.3-10.5,3.9
		c-3.3,2.7-5.4,6.2-6.2,10.4c-0.5,3-0.4,6.1,0.4,8.9c-4.2-0.9-8.5-0.8-12.7,0.2c-0.5,0.2-1.1,0.3-1.7,0.5c0.2-0.8,0.5-1.5,0.8-2.3
		c0.8-2.6,1.7-5.2,2.2-7.9c0.4-2,0.9-3.9,1.8-5.8C1340.3,871.4,1343.5,867.6,1347.6,864.5z M1316.6,904.1l-9.3-48.4l35.2,0.2
		c-2.8,2-5.4,4.3-7.5,7c-1.9,2.4-3.7,5-4.9,7.7c-0.8,1.7-1.5,3.5-2,5.4c-1.1,5-2.2,10-3.8,14.9c-0.8,2.7-1.8,5.4-2.9,8
		C1319.7,900.5,1317.9,902.2,1316.6,904.1z M1327.1,959.3l-1.3-6.8c2.1,1.4,4.3,2.7,6.6,3.7c-1.5,0.8-3,1.7-4.4,2.5
		C1327.7,958.9,1327.4,959.1,1327.1,959.3z M1332.1,985.9l-0.7-4.6l-2.1-10.7c1-1,2-1.9,3.2-2.7c1.9-1.4,4-2.5,6.2-3.4
		c3.1-1.2,6.3-1.7,9.6-1.7c2.5,0,5,0.6,7.3,1.5c3.6,1.4,6.5,3.5,9,6.3c1.6,1.7,2.8,3.7,3.6,5.8c0.6,1.5,1.1,3,1.3,4.6
		c0.5,3,0.1,6-0.9,8.9c-1.9,5.1-5.2,8.7-10.3,10.7c-2.5,1-5.1,1-7.8,0.6c-2.5-0.5-4.6-1.6-6.6-3.2c-2-1.7-3.5-3.8-4.1-6.5
		c-0.8-2.6-0.6-5.2,0.4-7.7c0.7-1.7,1.7-3.3,3.3-4.5c2.4-1.9,5.2-2.6,8.2-2.2c1.9,0.3,3.6,1.1,5,2.5c0.1,0.1,0.2,0.2,0.2,0.3
		c-0.1,0.2-0.2,0.1-0.4,0.1c-1.1,0.1-2,0.3-2.9,1c-2.3,1.7-3.4,4.5-1.4,7.4c1.9,2.7,6.1,3,8.2,0.5c1-1.1,1.4-2.6,1.6-4.1
		c0.2-2.6-0.4-5.1-1.9-7.3c-2.7-3.9-6.6-6-11.3-6c-3.9,0-7.4,1.3-10.5,3.9C1335,978.1,1332.9,981.6,1332.1,985.9L1332.1,985.9z
		 M1382.3,1012.5c-3.3,0-5.8,3.2-5.1,6.4c0.4,1.5,1.4,2.6,2.5,3.6c2,1.7,4.5,2.6,7.1,2.6c4.8,0,8.6-2,11.4-6c2.3-3.3,3.2-7,2.8-10.9
		c-0.3-4.3-1.9-7.9-5-11.1c-2.8-2.9-6.1-4.6-10-5.5c-2.4-0.5-4.8-0.7-7.3-0.3c0.9-3.3,1.3-6.6,1.1-10c-0.2-1.7-0.5-3.5-0.8-5.1
		c-1.9-3.6-3.6-7.3-5.5-11.1c-0.7-0.9-1.4-1.7-2.3-2.6c-2.3-2.3-4.7-4.3-7.5-5.9c-0.2-0.1-0.4-0.2-0.5-0.3c2-0.6,3.8-1.4,5.5-2.2
		c3.9-2.1,7.7-4.7,10.8-7.8c0.5-0.5,1.1-1.1,1.6-1.7c0.1,0.4,0.1,0.8,0.2,1.1c0.6,4.1,1.6,8,3,12c0.9,2.4,1.8,4.8,2.9,7.1
		c1.1,2.3,2.2,4.6,3.6,6.9c1,1.7,2,3.3,3,4.9c1.2,1.8,2.6,3.6,3.8,5.4c1.7,2.2,3.2,4.3,5.1,6.4c1.4,1.5,2.7,3,3.7,4.8
		c2.5,4.4,3.9,9.3,4,14.4c0.1,2.4-0.3,4.8-0.9,7.1c-0.8,3.3-2.2,6.2-4.2,8.8c-1.4,2-3.3,3.8-5.5,5.1c-3.1,2.1-6.5,3.3-10.3,3.8
		c-2.3,0.3-4.6,0.1-6.9-0.4c-1.6-0.3-3.1-0.8-4.5-1.6c-2.7-1.3-5-3.4-6.6-5.9c-3-4.5-4.1-9.4-2.7-14.6c0.6-2.6,2.1-4.9,4-6.7
		c1.7-1.7,3.9-2.9,6.3-3.5c2.6-0.7,5.1-0.6,7.6,0.3c2.6,0.9,4.7,2.5,6,4.8c1.1,1.6,1.7,3.3,1.7,5.2c0.2,3.1-0.9,5.8-3.1,8.1
		c-1.4,1.4-3,2.3-4.8,2.6c-0.2,0-0.2,0.1-0.3,0c-0.1-0.2,0.1-0.2,0.2-0.3c0.5-0.9,0.9-1.8,0.8-2.9
		C1387.5,1014.9,1385.7,1012.5,1382.3,1012.5z M1346.3,1058.9l-0.7-3l-10.6-55.7c0.9,1.5,2,2.9,3.2,4.1c3.4,3.3,7.4,5.3,12,6.2
		c3,0.5,6.1,0.5,9-0.2c-0.6,3.3-0.8,6.6-0.1,9.9c0.7,3.6,1.9,6.8,3.9,9.9c1.7,2.6,3.6,4.8,6,6.7c-0.5,0.2-1,0.4-1.5,0.6
		c-2.4,1.1-4.7,2.2-6.9,3.7c-3.1,2.2-5.9,4.6-8.3,7.5c-1.9,2.4-3.7,5-4.9,7.7C1347.1,1057.1,1346.7,1058,1346.3,1058.9z
		 M1376.6,1216.9l-15.5-80.2c0.2,0.4,0.5,0.8,0.7,1.1c0.8,0.8,1.7,1.7,2.6,2.5c2.6,2.2,5.2,4.1,8.3,5.5c4.5,2.2,9.3,3.2,14.3,3.3
		c1.1,0,2.1-0.1,3.2-0.2L1376.6,1216.9z M1394.9,1115.3c-0.6,1.9-1.5,3.6-3.1,5c-2.3,2.2-5.2,3.2-8.5,3c-2-0.2-3.9-0.8-5.4-2.1
		c-0.1-0.1-0.2-0.2-0.2-0.3c0.1-0.2,0.2-0.1,0.4-0.2c1.1-0.2,2-0.5,2.9-1.3c2.3-2,3.1-5.1,0.8-7.9c-2.2-2.6-6.6-2.5-8.6,0.3
		c-1,1.3-1.2,2.9-1.3,4.5c0,2.8,0.9,5.3,2.7,7.3c3.2,3.9,7.4,5.6,12.4,5.3c2.7-0.2,5.1-1,7.3-2.4l-1.1,5.1l-1.2,5.8
		c-1.3,0.3-2.6,0.5-3.9,0.6c-2.6,0.2-5.2-0.2-7.8-0.9c-3.8-1.1-7.1-3.1-9.9-5.8c-1.7-1.5-3.1-3.4-4.2-5.7c-0.8-1.5-1.4-3-1.8-4.7
		c-0.8-3.1-0.7-6.2,0.1-9.3c1.5-5.5,4.7-9.6,10-12.1c2.6-1.3,5.3-1.6,8.1-1.3c2.6,0.2,5,1.2,7.1,2.7c2.3,1.6,3.9,3.6,4.8,6.4
		C1395.6,1109.9,1395.8,1112.7,1394.9,1115.3z M1400,1099.2c-1.3-2-2.8-3.6-4.5-5.2c-0.8-0.6-1.5-1.1-2.3-1.7
		c0.5-0.2,1.1-0.4,1.6-0.5c2.7-1.1,5.2-2.3,7.5-4.1L1400,1099.2z M1401.2,1072.4c-1.9,5.1-5.2,8.7-10.3,10.7c-2.5,1-5.1,1.1-7.8,0.6
		c-2.4-0.5-4.6-1.6-6.6-3.2c-2-1.7-3.5-3.8-4.1-6.5c-0.8-2.6-0.6-5.2,0.4-7.7c0.7-1.7,1.7-3.3,3.4-4.5c2.4-1.9,5.2-2.6,8.2-2.2
		c1.9,0.3,3.6,1.1,5,2.5c0.1,0.1,0.2,0.2,0.2,0.3c-0.1,0.2-0.2,0.1-0.4,0.1c-1.1,0.1-2,0.3-2.9,1c-2.3,1.7-3.4,4.6-1.4,7.4
		c1.9,2.6,6.1,2.9,8.2,0.5c1-1.2,1.4-2.6,1.6-4.2c0.2-2.6-0.4-5.1-2-7.3c-2.7-3.9-6.6-5.9-11.3-6c-3.9-0.1-7.4,1.3-10.5,3.9
		c-3.3,2.8-5.4,6.2-6.2,10.4c-0.8,3.9-0.3,7.7,1.3,11.4c1.1,2.6,2.7,4.9,4.7,7.1c1,1,2,1.8,3.2,2.6c-1.4,0.4-2.7,0.8-4.1,1.4
		c-3.8,1.8-7.2,4.2-9.8,7.5c-2,2.6-3.7,5.4-4.8,8.4l-2.9-15.1l-1.9-11.6c0.5-1.4,1-2.9,1.5-4.3c0.8-2.6,1.7-5.2,2.2-7.9
		c0.4-2,0.9-3.9,1.8-5.8c2.1-4.7,5.2-8.5,9.3-11.6c1.9-1.4,4-2.5,6.2-3.4c3.1-1.2,6.3-1.7,9.6-1.7c2.5,0,5,0.6,7.3,1.5
		c3.6,1.4,6.5,3.5,9,6.3c1.6,1.7,2.8,3.7,3.6,5.8c0.6,1.4,1.1,3,1.3,4.6C1402.5,1066.5,1402.2,1069.5,1401.2,1072.4z M1409.5,1051.3
		l-0.5,2.3c-1-1.9-2-3.8-2.9-5.7c-0.7-0.9-1.4-1.7-2.3-2.6c-1.4-1.5-3-2.8-4.6-4.1c0.9-0.4,1.6-0.7,2.3-1c4.3-1.9,8-4.8,11.1-8.5
		c0.4-0.5,0.8-1,1.1-1.4L1409.5,1051.3z M1426.2,968.1l-4.5,22.1l-1.9,9.7c-0.2-0.5-0.3-1.1-0.5-1.7c-0.8-3-1.9-5.8-3.5-8.4
		c-1-1.7-2-3.3-3.2-4.6c-3.6-3.7-6.8-7.6-10-11.6c-2.9-3.6-5.3-7.6-7.7-11.6c-1.2-2.1-2.2-4.4-3.2-6.6c1.7,2,3.7,3.7,5.8,5.3
		c2.1,1.4,4.3,2.7,6.7,3.7c2.7,1.1,5.5,1.9,8.4,2.2c2.6,0.3,5.2,0.6,7.8,0.3c2.1-0.2,4.2-0.4,6.1-0.9L1426.2,968.1z M1432.2,938.4
		l-0.9,4.5l-1.4,6.7l-1,4.8c-2.4,1-5,1.6-7.7,1.9c-2.3,0.3-4.7,0.1-7.1-0.3c-3.3-0.5-6.4-1.7-9.2-3.4c-2.2-1.3-4-3.1-5.6-5
		c-2.3-3-3.8-6.2-4.7-10c-0.5-2.3-0.5-4.6-0.2-7c0.2-1.6,0.5-3.2,1.2-4.7c1.1-2.9,2.9-5.3,5.2-7.2c4.1-3.5,9-4.9,14.3-4
		c2.6,0.4,5,1.7,7.1,3.4c1.9,1.6,3.3,3.6,4.1,6.1c0.9,2.5,1,5,0.4,7.6c-0.7,2.6-2.1,4.8-4.3,6.5c-1.5,1.1-3.2,2-5.1,2.2
		c-3,0.5-5.8-0.4-8.2-2.3c-1.5-1.2-2.6-2.7-3-4.6c0-0.1-0.2-0.2,0-0.3c0.2-0.2,0.2,0.1,0.3,0.1c0.9,0.5,1.9,0.8,3,0.6
		c2.7-0.1,4.9-2,4.7-5.4c-0.3-3.3-3.8-5.5-6.8-4.6c-1.4,0.5-2.5,1.6-3.3,2.8c-1.6,2.2-2.1,4.7-1.9,7.3c0.4,4.8,2.8,8.5,6.9,10.9
		c3.4,2,7.2,2.6,11,1.9c4.2-0.7,7.7-2.7,10.6-6C1431.1,940.1,1431.7,939.2,1432.2,938.4L1432.2,938.4z M1444.2,878.5l-1.5,7.7
		l-5.8,28.1l-1.9,9.8l-0.2,0.7c-0.2-0.9-0.3-1.7-0.6-2.6c-1.2-4.5-3.8-8.3-7.4-11.4c-3.2-2.6-6.7-4.3-10.7-5
		c-3.9-0.7-7.9-0.6-11.7,0.5c-1.6,0.5-3.1,1.1-4.5,1.7c1.3-2.4,2.7-4.8,4.2-7.1c3.1-4.8,6.7-9.3,10.7-13.4c4.5-4.6,9.4-8.6,15-12
		c2.5-1.6,5.1-2.9,8-4.2c2.6-1.2,5.3-2.2,7.9-3.2c0.2-0.1,0.5-0.2,0.7-0.2L1444.2,878.5z M1446.9,864.1c-4.8,0.1-9.4,1.1-13.9,2.6
		c-2.4,0.8-4.8,1.8-7.1,2.9c-4.5,2.2-8.8,4.8-12.8,7.9c-3.9,2.9-7.5,6.3-10.8,10c-2,2.3-4,4.6-5.9,7c-1.8,2.5-3.7,5.1-5.2,7.6
		c-1.2,2-2.3,3.9-3.5,6c-1.2,2.3-2.4,4.7-3.6,7.1c-1.3,3-2.7,5.9-3.7,8.9c-0.8,2.3-1.8,4.5-3,6.6c-3.2,5.2-7.4,9.3-12.8,12.2
		c-2.5,1.4-5.1,2.4-7.9,3.2c-3.9,1-7.7,1.3-11.7,1c-3-0.3-5.8-1.2-8.5-2.5c-4-2.1-7.2-4.8-9.8-8.3c-1.6-2.2-2.7-4.5-3.5-7.2
		c-0.5-1.8-0.9-3.6-1-5.4c-0.2-3.6,0.6-7,2.3-10.1c3-5.8,7.5-9.5,13.8-11.2c3.1-0.9,6.3-0.7,9.3,0.2c2.9,0.8,5.3,2.4,7.2,4.4
		c2.2,2.2,3.5,4.8,4,7.9c0.5,3.1,0,6.1-1.5,8.9c-1.1,2-2.5,3.7-4.6,4.8c-3.2,2-6.5,2.5-10.1,1.6c-2.3-0.5-4.2-1.7-5.6-3.4
		c-0.1-0.1-0.2-0.2-0.2-0.4c0.1-0.2,0.3-0.1,0.5-0.1c1.3,0.1,2.4-0.2,3.6-0.8c3-1.7,4.6-4.8,2.7-8.4c-1.8-3.3-6.7-4-9.7-1.4
		c-1.4,1.3-2,2.9-2.4,4.6c-0.7,3-0.2,6,1.3,8.6c2.7,4.8,7,7.6,12.7,8.3c4.7,0.6,9-0.7,12.9-3.3c4.2-2.8,7.3-6.6,8.8-11.4
		c1.5-4.5,1.4-8.9,0.2-13.3c-0.2-0.5-0.4-1.1-0.5-1.6c3.6,0.4,7,0,10.4-1.3c3.8-1.4,7-3.4,9.9-6.3c2.5-2.6,4.5-5.5,5.9-8.9
		c1.8-4.1,2.3-8.3,2.1-12.7c-0.2-1.7-0.5-3.5-0.8-5.1c-1.9-3.6-3.6-7.3-5.5-11.1c-0.7-0.9-1.4-1.7-2.3-2.6c-1.2-1.2-2.4-2.3-3.8-3.3
		l14.4,0l50.9,0.2L1446.9,864.1z"/>
	<path id="Swirl2_Score" class="st2" d="M1251.8,825.3l240.7-0.3 M1492.3,824.5l-116.8,507.1"/>
</g>
<g id="Swirl3">
	<path id="Swirl3_Cut_1_" class="st8" d="M1759.4,822.6L1759.4,822.6L1759.4,822.6l-16.3-16.1l-211.3-1.2l-14.4,16.6l-0.5,0l0.1,0.4
		l-1.1,1.3l1.5,0l121.6,502.7l10.9-16.2l12.7-17.5L1773.2,841L1759.4,822.6z M1615.6,864c1.9-1.4,4-2.5,6.2-3.4
		c3.1-1.2,6.3-1.7,9.6-1.7c2.5,0,5,0.6,7.3,1.5c3.5,1.4,6.5,3.5,9,6.3c1.6,1.7,2.8,3.7,3.6,5.8c0.6,1.5,1.1,3,1.3,4.6
		c0.5,3,0.1,6-0.9,8.9c-1.9,5.1-5.2,8.7-10.3,10.7c-2.5,1-5.1,1-7.8,0.6c-2.2-0.3-4.4-1.5-6.3-3.1c-2-1.7-3.5-3.8-4.1-6.5
		c-0.8-2.6-0.6-5.2,0.4-7.7c0.7-1.7,1.7-3.3,3.3-4.5c2.4-1.9,5.2-2.6,8.2-2.2c1.9,0.3,3.6,1.1,5,2.5c0.1,0.1,0.2,0.2,0.2,0.3
		c-0.1,0.2-0.2,0.1-0.4,0.1c-1.1,0.1-2,0.3-2.9,1c-2.3,1.7-3.4,4.5-1.4,7.4c1.9,2.6,6.1,2.9,8.2,0.5c1-1.2,1.4-2.6,1.6-4.2
		c0.2-2.6-0.4-5.1-1.9-7.3c-2.7-3.9-6.6-6-11.3-6c-3.9,0-7.4,1.3-10.5,3.9c-3.3,2.7-5.4,6.2-6.2,10.4c-0.5,3-0.4,6.1,0.4,8.9
		c-4.2-0.9-8.5-0.8-12.7,0.2c-0.5,0.2-1.1,0.3-1.7,0.5c0.2-0.8,0.5-1.5,0.8-2.3c0.8-2.6,1.7-5.2,2.2-7.9c0.4-2,0.9-3.9,1.8-5.8
		C1608.3,870.9,1611.5,867,1615.6,864z M1584.6,903.6l-9.3-48.4l35.2,0.2c-2.8,2-5.4,4.3-7.5,7c-1.9,2.4-3.7,5-4.9,7.7
		c-0.8,1.7-1.5,3.5-2,5.4c-1.1,5-2.2,10-3.8,14.9c-0.8,2.7-1.8,5.4-2.9,8C1587.7,899.9,1585.9,901.7,1584.6,903.6z M1595.1,958.7
		l-1.3-6.8c2.1,1.4,4.3,2.7,6.6,3.7c-1.5,0.8-3,1.7-4.4,2.5C1595.7,958.3,1595.4,958.5,1595.1,958.7z M1600.1,985.4l-0.7-4.6
		l-2.1-10.7c1-1,2-1.9,3.2-2.7c1.9-1.4,4-2.5,6.2-3.4c3.1-1.2,6.3-1.7,9.6-1.7c2.5,0,5,0.6,7.3,1.5c3.6,1.4,6.5,3.5,9,6.3
		c1.6,1.7,2.8,3.7,3.6,5.8c0.6,1.5,1.1,3,1.3,4.6c0.5,3,0.1,6-0.9,8.9c-1.9,5.1-5.2,8.7-10.3,10.7c-2.5,1-5.1,1-7.8,0.6
		c-2.5-0.5-4.6-1.6-6.6-3.2c-2-1.7-3.5-3.8-4.1-6.5c-0.8-2.6-0.6-5.2,0.4-7.7c0.7-1.7,1.7-3.3,3.3-4.5c2.4-1.9,5.2-2.6,8.2-2.2
		c1.9,0.3,3.6,1.1,5,2.5c0.1,0.1,0.2,0.2,0.2,0.3c-0.1,0.2-0.2,0.1-0.4,0.1c-1.1,0.1-2,0.3-2.9,1c-2.3,1.7-3.4,4.5-1.4,7.4
		c1.9,2.7,6.1,3,8.2,0.5c1-1.1,1.4-2.6,1.6-4.1c0.2-2.6-0.4-5.1-1.9-7.3c-2.7-3.9-6.6-6-11.3-6c-3.9,0-7.4,1.3-10.5,3.9
		C1603,977.5,1600.9,981.1,1600.1,985.4L1600.1,985.4z M1650.3,1011.9c-3.3,0-5.8,3.2-5.1,6.4c0.4,1.5,1.4,2.6,2.5,3.6
		c2,1.7,4.5,2.6,7.1,2.6c4.8,0,8.6-2,11.4-6c2.3-3.3,3.2-7,2.8-10.9c-0.3-4.3-1.9-7.9-5-11.1c-2.8-2.9-6.1-4.6-10-5.5
		c-2.4-0.5-4.8-0.7-7.3-0.3c0.9-3.3,1.3-6.6,1.1-10c-0.2-1.7-0.5-3.5-0.8-5.1c-1.9-3.6-3.6-7.3-5.5-11.1c-0.7-0.9-1.4-1.7-2.3-2.6
		c-2.3-2.3-4.7-4.3-7.5-5.9c-0.2-0.1-0.4-0.2-0.5-0.3c2-0.6,3.8-1.4,5.5-2.2c3.9-2.1,7.7-4.7,10.8-7.8c0.5-0.5,1.1-1.1,1.6-1.7
		c0.1,0.4,0.1,0.8,0.2,1.1c0.6,4.1,1.6,8,3,12c0.9,2.4,1.8,4.8,2.9,7.1c1.1,2.3,2.2,4.6,3.6,6.9c1,1.7,2,3.3,3,4.9
		c1.2,1.8,2.6,3.6,3.8,5.4c1.7,2.2,3.2,4.3,5.1,6.4c1.4,1.5,2.7,3,3.7,4.8c2.5,4.4,3.9,9.3,4,14.4c0.1,2.4-0.3,4.8-0.9,7.1
		c-0.8,3.3-2.2,6.2-4.2,8.8c-1.4,2-3.3,3.8-5.5,5.1c-3.1,2.1-6.5,3.3-10.3,3.8c-2.3,0.3-4.6,0.1-6.9-0.4c-1.6-0.3-3.1-0.8-4.5-1.6
		c-2.7-1.3-5-3.4-6.6-5.9c-3-4.5-4.1-9.4-2.7-14.6c0.6-2.6,2.1-4.9,4-6.7c1.7-1.7,3.9-2.9,6.3-3.5c2.6-0.7,5.1-0.6,7.6,0.3
		c2.6,0.9,4.7,2.5,6,4.8c1.1,1.6,1.7,3.3,1.7,5.2c0.2,3.1-0.9,5.8-3.1,8.1c-1.4,1.4-3,2.3-4.8,2.6c-0.2,0-0.2,0.1-0.3,0
		c-0.1-0.2,0.1-0.2,0.2-0.3c0.5-0.9,0.9-1.8,0.8-2.9C1655.5,1014.4,1653.7,1012,1650.3,1011.9z M1614.3,1058.4l-0.7-3l-10.6-55.7
		c0.9,1.5,2,2.9,3.2,4.1c3.4,3.3,7.4,5.3,12,6.2c3,0.5,6.1,0.5,9-0.2c-0.6,3.3-0.8,6.6-0.1,9.9c0.7,3.6,1.9,6.8,3.9,9.9
		c1.7,2.6,3.6,4.8,6,6.7c-0.5,0.2-1,0.4-1.5,0.6c-2.4,1.1-4.7,2.2-6.9,3.7c-3.1,2.2-5.9,4.6-8.3,7.5c-1.9,2.4-3.7,5-4.9,7.7
		C1615.1,1056.6,1614.7,1057.5,1614.3,1058.4z M1644.6,1216.4l-15.5-80.2c0.2,0.4,0.5,0.8,0.7,1.1c0.8,0.8,1.7,1.7,2.6,2.5
		c2.6,2.2,5.2,4.1,8.3,5.5c4.5,2.2,9.3,3.2,14.3,3.3c1.1,0,2.1-0.1,3.2-0.2L1644.6,1216.4z M1662.9,1114.8c-0.6,1.9-1.5,3.6-3.1,5
		c-2.3,2.2-5.2,3.2-8.5,3c-2-0.2-3.9-0.8-5.4-2.1c-0.1-0.1-0.2-0.2-0.2-0.3c0.1-0.2,0.2-0.1,0.4-0.2c1.1-0.2,2-0.5,2.9-1.3
		c2.3-2,3.1-5.1,0.8-7.9c-2.2-2.6-6.6-2.5-8.6,0.3c-1,1.3-1.2,2.9-1.3,4.5c0,2.8,0.9,5.3,2.7,7.3c3.2,3.9,7.4,5.6,12.4,5.3
		c2.7-0.2,5.1-1,7.3-2.4l-1.1,5.1l-1.2,5.8c-1.3,0.3-2.6,0.5-3.9,0.5c-2.6,0.2-5.2-0.2-7.8-0.9c-3.8-1.1-7.1-3.1-9.9-5.8
		c-1.7-1.5-3.1-3.4-4.2-5.7c-0.8-1.5-1.4-3-1.8-4.7c-0.8-3.1-0.7-6.2,0.1-9.3c1.5-5.5,4.7-9.6,10-12.1c2.6-1.3,5.3-1.6,8.1-1.3
		c2.6,0.2,5,1.2,7.1,2.7c2.3,1.6,3.9,3.6,4.8,6.4C1663.6,1109.3,1663.8,1112.1,1662.9,1114.8z M1668,1098.7c-1.3-2-2.8-3.6-4.5-5.2
		c-0.8-0.6-1.5-1.1-2.3-1.7c0.5-0.2,1.1-0.4,1.6-0.5c2.7-1.1,5.2-2.3,7.5-4.1L1668,1098.7z M1669.2,1071.9
		c-1.9,5.1-5.2,8.7-10.3,10.7c-2.5,1-5.1,1.1-7.8,0.6c-2.4-0.5-4.6-1.6-6.6-3.2c-2-1.7-3.5-3.8-4.1-6.5c-0.8-2.6-0.6-5.2,0.4-7.7
		c0.7-1.7,1.7-3.3,3.4-4.5c2.4-1.9,5.2-2.6,8.2-2.2c1.9,0.3,3.6,1.1,5,2.5c0.1,0.1,0.2,0.2,0.2,0.3c-0.1,0.2-0.2,0.1-0.4,0.1
		c-1.1,0.1-2,0.3-2.9,1c-2.3,1.7-3.4,4.6-1.4,7.4c1.9,2.6,6.1,2.9,8.2,0.5c1-1.2,1.4-2.6,1.6-4.2c0.2-2.6-0.4-5.1-2-7.3
		c-2.7-3.9-6.6-5.9-11.3-6c-3.9,0-7.4,1.3-10.5,3.9c-3.3,2.8-5.4,6.2-6.2,10.4c-0.7,3.9-0.3,7.7,1.3,11.4c1.1,2.6,2.7,4.9,4.7,7.1
		c1,1,2,1.8,3.2,2.6c-1.4,0.4-2.7,0.8-4.1,1.4c-3.8,1.8-7.2,4.2-9.8,7.5c-2,2.6-3.7,5.4-4.8,8.4l-2.9-15.1l-1.9-11.6
		c0.5-1.4,1-2.9,1.5-4.3c0.8-2.6,1.7-5.2,2.2-7.9c0.4-2,0.9-3.9,1.8-5.8c2.1-4.7,5.2-8.5,9.3-11.6c1.9-1.4,4-2.5,6.2-3.4
		c3.1-1.2,6.3-1.7,9.6-1.7c2.5,0,5,0.6,7.3,1.5c3.6,1.4,6.5,3.5,9,6.3c1.6,1.7,2.8,3.7,3.6,5.8c0.6,1.4,1.1,3,1.3,4.6
		C1670.5,1066,1670.2,1069,1669.2,1071.9z M1677.5,1050.8l-0.5,2.3c-1-1.9-2-3.8-2.9-5.7c-0.7-0.9-1.4-1.7-2.3-2.6
		c-1.4-1.5-3-2.8-4.6-4.1c0.9-0.4,1.6-0.7,2.3-1c4.3-1.9,8-4.8,11.1-8.5c0.4-0.5,0.8-1,1.1-1.4L1677.5,1050.8z M1694.2,967.6
		l-4.5,22.1l-1.9,9.7c-0.2-0.5-0.3-1.1-0.5-1.7c-0.8-3-1.9-5.8-3.5-8.4c-1-1.7-2-3.3-3.2-4.6c-3.6-3.7-6.8-7.6-10-11.6
		c-2.9-3.6-5.3-7.6-7.7-11.6c-1.2-2.1-2.2-4.4-3.2-6.6c1.7,2,3.7,3.7,5.8,5.3c2.1,1.4,4.3,2.7,6.7,3.7c2.7,1.1,5.5,1.9,8.4,2.2
		c2.6,0.3,5.2,0.6,7.8,0.3c2.1-0.2,4.2-0.4,6.1-0.9L1694.2,967.6z M1700.2,937.9l-0.9,4.5l-1.4,6.7l-1,4.8c-2.4,1-5,1.6-7.7,1.9
		c-2.3,0.3-4.7,0.1-7.1-0.3c-3.3-0.5-6.4-1.7-9.2-3.4c-2.2-1.3-4-3.1-5.6-5c-2.3-3-3.8-6.2-4.7-10c-0.5-2.3-0.5-4.6-0.2-7
		c0.2-1.6,0.5-3.2,1.2-4.7c1.1-2.9,2.9-5.3,5.2-7.2c4.1-3.5,9-4.9,14.3-4c2.6,0.4,5,1.7,7.1,3.4c1.9,1.6,3.3,3.6,4.1,6.1
		c0.9,2.5,1,5,0.4,7.6c-0.7,2.6-2.1,4.8-4.3,6.5c-1.5,1.1-3.2,2-5.1,2.2c-3,0.5-5.8-0.4-8.2-2.3c-1.5-1.2-2.6-2.7-3-4.6
		c0-0.1-0.2-0.2,0-0.3c0.2-0.2,0.2,0.1,0.3,0.1c0.9,0.5,1.9,0.8,3,0.6c2.7-0.1,4.9-2,4.7-5.4c-0.3-3.3-3.8-5.5-6.8-4.6
		c-1.4,0.5-2.5,1.6-3.3,2.8c-1.6,2.2-2.1,4.7-1.9,7.3c0.4,4.8,2.8,8.5,6.9,10.9c3.4,2,7.2,2.6,11,1.9c4.2-0.7,7.7-2.7,10.6-6
		c0.7-0.8,1.3-1.7,1.8-2.6L1700.2,937.9z M1712.2,877.9l-1.5,7.7l-5.8,28.1l-1.9,9.8l-0.2,0.7c-0.2-0.9-0.3-1.7-0.6-2.6
		c-1.2-4.5-3.8-8.3-7.4-11.4c-3.2-2.6-6.7-4.3-10.7-5c-3.9-0.7-7.9-0.6-11.7,0.5c-1.6,0.5-3.1,1.1-4.5,1.7c1.3-2.4,2.7-4.8,4.2-7.1
		c3.1-4.8,6.7-9.3,10.7-13.4c4.5-4.6,9.4-8.6,15-12c2.5-1.6,5.1-2.9,8-4.2c2.6-1.2,5.3-2.2,7.9-3.2c0.2-0.1,0.5-0.2,0.7-0.2
		L1712.2,877.9z M1714.9,863.5c-4.8,0.1-9.4,1.1-13.9,2.6c-2.4,0.8-4.8,1.8-7.1,2.9c-4.5,2.2-8.8,4.8-12.8,7.9
		c-3.9,2.9-7.5,6.3-10.8,10c-2,2.3-4,4.6-5.9,7c-1.8,2.5-3.7,5.1-5.2,7.6c-1.2,2-2.3,3.9-3.5,6c-1.2,2.3-2.4,4.7-3.6,7.1
		c-1.3,3-2.7,5.9-3.7,8.9c-0.8,2.3-1.8,4.5-3,6.6c-3.2,5.2-7.4,9.3-12.8,12.2c-2.5,1.4-5.1,2.4-7.9,3.2c-3.9,1-7.7,1.3-11.7,1
		c-3-0.3-5.8-1.2-8.5-2.5c-4-2.1-7.2-4.8-9.8-8.3c-1.6-2.2-2.7-4.5-3.5-7.2c-0.5-1.8-0.9-3.6-1-5.4c-0.2-3.6,0.6-7,2.3-10.1
		c3-5.8,7.5-9.5,13.8-11.2c3.1-0.9,6.3-0.7,9.3,0.2c2.9,0.8,5.3,2.4,7.2,4.4c2.2,2.2,3.5,4.8,4,7.9c0.5,3.1,0,6.1-1.5,8.9
		c-1.1,2-2.5,3.7-4.6,4.8c-3.2,2-6.5,2.5-10.1,1.6c-2.3-0.5-4.2-1.7-5.6-3.4c-0.1-0.1-0.2-0.2-0.2-0.4c0.1-0.2,0.3-0.1,0.5-0.1
		c1.3,0.1,2.4-0.2,3.6-0.8c3-1.7,4.6-4.8,2.7-8.4c-1.8-3.3-6.7-4-9.7-1.4c-1.4,1.3-2,2.9-2.4,4.6c-0.7,3-0.2,6,1.3,8.6
		c2.7,4.8,7,7.6,12.7,8.3c4.7,0.6,9-0.7,12.9-3.3c4.2-2.8,7.3-6.6,8.8-11.4c1.5-4.5,1.4-8.9,0.2-13.3c-0.2-0.5-0.4-1.1-0.5-1.6
		c3.6,0.4,7,0,10.4-1.3c3.8-1.4,7-3.4,9.9-6.3c2.5-2.6,4.5-5.5,5.9-8.9c1.8-4.1,2.3-8.3,2.1-12.7c-0.2-1.7-0.5-3.5-0.8-5.1
		c-1.9-3.6-3.6-7.3-5.5-11.1c-0.7-0.9-1.4-1.7-2.3-2.6c-1.2-1.2-2.4-2.3-3.8-3.3l14.4,0l50.9,0.2L1714.9,863.5z"/>
	<path id="Swirl3_Score" class="st4" d="M1757.3,822.4l-240,1.2 M1757.8,822.7l-118.4,502.9"/>
</g>
</svg>
