<?xml version="1.0" encoding="utf-8"?>
<!-- Generator: Adobe Illustrator 25.0.0, SVG Export Plug-In . SVG Version: 6.00 Build 0)  -->
<svg version="1.1" id="Layer_1" xmlns="http://www.w3.org/2000/svg" xmlns:xlink="http://www.w3.org/1999/xlink" x="0px" y="0px"
	 viewBox="0 0 1127.9 963.1" style="enable-background:new 0 0 1127.9 963.1;" xml:space="preserve">
<style type="text/css">
	.st0{fill:#94AA00;stroke:#000000;stroke-miterlimit:10;}
	.st1{fill:none;stroke:#00BFFF;stroke-miterlimit:10;}
	.st2{fill:#DCDCDC;stroke:#000000;stroke-miterlimit:10;}
	.st3{fill:#75F400;stroke:#00BFFF;stroke-miterlimit:10;}
	.st4{fill:#7DE900;stroke:#00BFFF;stroke-miterlimit:10;}
	.st5{fill:#5B8B00;stroke:#000000;stroke-miterlimit:10;}
</style>
<g>
	<path class="st0" d="M568.4,439l-14-2.1l-4.3-13.2L357.4,322.2l-18.5,6.1L218,119.2L97.2,328.3L218,836.9l7,2.8l16.3-1.2l21.9-1.4
		l425.7-182.6l9.5-23.6l2.9-19.4L568.4,439z M274.5,250.7c0,31.5-25.5,57.1-57.1,57.1s-57.1-25.5-57.1-57.1s25.5-57.1,57.1-57.1
		S274.5,219.2,274.5,250.7z"/>
	<path id="LayerD_Score" class="st1" d="M103.3,328.3h223.5 M342.4,331.3l200.9,101.2 M557.5,444.2l133.2,179.4 M334.8,335.5
		l-116.4,490 M546.1,444.2L225.8,824.9 M687.7,634.4L225,832.8"/>
</g>
<g>
	<polygon id="vellum_1_" class="st2" points="381.4,786.2 276.1,342.4 474,337.1 	"/>
	<polygon id="vellum_2_" class="st2" points="404.5,795.8 506.1,351.1 685.9,433.7 	"/>
	<polygon id="vellum_3_" class="st2" points="428.2,812.3 720.1,461.8 843,617 	"/>
	<path class="st3" d="M308.2,356.1l35.2-0.3c-2.8,2-5.3,4.4-7.4,7.1c-1.9,2.4-3.6,5-4.8,7.8c-0.8,1.7-1.5,3.5-1.9,5.4
		c-1,5-2.1,10-3.6,14.9c-0.8,2.7-1.7,5.4-2.8,8l0,0c-1.8,1.7-3.5,3.5-4.8,5.4l0,0L308.2,356.1z M360.8,394.5c-2-1.7-3.5-3.8-4.2-6.4
		c-0.8-2.6-0.7-5.2,0.3-7.7c0.7-1.7,1.7-3.3,3.2-4.5c2.4-1.9,5.2-2.7,8.2-2.3c1.9,0.3,3.6,1.1,5,2.4c0.1,0.1,0.2,0.2,0.2,0.3
		c-0.1,0.2-0.2,0.1-0.4,0.1c-1.1,0.1-2,0.3-2.9,1c-2.3,1.7-3.3,4.5-1.3,7.4c1.9,2.6,6.1,2.8,8.2,0.4c1-1.2,1.4-2.6,1.5-4.2
		c0.2-2.6-0.5-5.1-2-7.3c-2.8-3.9-6.7-5.9-11.4-5.9c-3.9,0-7.4,1.4-10.4,4c-3.3,2.7-5.3,6.3-6.1,10.5c-0.5,3-0.3,6.1,0.5,8.9l0,0
		c-4.2-0.8-8.5-0.7-12.7,0.4c-0.5,0.2-1.1,0.3-1.7,0.5c0.2-0.8,0.5-1.5,0.8-2.3c0.8-2.6,1.6-5.2,2.1-7.9c0.4-2,0.9-3.9,1.7-5.8
		c2-4.7,5.1-8.6,9.2-11.7c1.9-1.4,4-2.6,6.2-3.5c3.1-1.2,6.3-1.8,9.6-1.8c2.5,0,5,0.5,7.3,1.4c3.5,1.4,6.5,3.4,9.1,6.2
		c1.6,1.7,2.8,3.7,3.7,5.8c0.6,1.5,1.1,3,1.4,4.6c0.5,3,0.2,6-0.8,8.9c-1.8,5.1-5.1,8.8-10.2,10.8c-2.5,1-5.1,1.1-7.8,0.7
		C364.9,397.2,362.7,396.1,360.8,394.5z M327.9,452.6c2.1,1.4,4.3,2.6,6.6,3.6l0,0c-1.5,0.8-3,1.7-4.4,2.6c-0.2,0.2-0.5,0.4-0.8,0.6
		L327.9,452.6L327.9,452.6z M415.8,427.6c-0.3-3.3-3.9-5.5-6.9-4.5c-1.4,0.5-2.5,1.6-3.3,2.8c-1.6,2.2-2,4.7-1.8,7.3
		c0.5,4.8,2.9,8.5,7,10.8c3.4,2,7.2,2.5,11,1.8c4.2-0.8,7.7-2.8,10.5-6.1c0.7-0.8,1.3-1.7,1.8-2.6v0.1l0,0l-0.8,4.5l-1.3,6.7
		l-0.9,4.8c-2.4,1-5,1.7-7.7,2c-2.3,0.3-4.7,0.2-7.1-0.2c-3.3-0.5-6.4-1.6-9.2-3.3c-2.2-1.3-4-3-5.7-4.9c-2.3-3-3.9-6.2-4.8-9.9
		c-0.5-2.3-0.6-4.6-0.3-7c0.2-1.6,0.5-3.2,1.1-4.7c1.1-2.9,2.8-5.3,5.1-7.3c4.1-3.6,8.9-5,14.2-4.2c2.6,0.4,5,1.6,7.1,3.3
		c1.9,1.6,3.3,3.6,4.2,6c0.9,2.5,1.1,5,0.5,7.6c-0.7,2.6-2,4.8-4.2,6.6c-1.5,1.1-3.2,2-5.1,2.3c-3,0.5-5.8-0.3-8.2-2.2
		c-1.5-1.2-2.6-2.7-3.1-4.6c0-0.1-0.2-0.2,0-0.3c0.2-0.2,0.2,0.1,0.3,0.1c0.9,0.5,1.9,0.8,3,0.6C413.9,433,416.1,431,415.8,427.6z
		 M515.9,442.7L515.9,442.7l11.5-43.9c0.6,0.6,1.2,1.3,1.8,2c1.9,2.1,3.7,4.4,5.3,6.7c3.6,5,6.4,10.4,8.6,16
		c2,5.1,3.4,10.3,4.3,15.6c0.5,2.6,0.8,5.1,1.1,7.7c-1-1.2-2.1-2.3-3.3-3.3c-3-2.4-6.4-4-10.1-5c-3.9-0.9-7.6-0.9-11.3,0.2
		C520.9,439.6,518.2,440.8,515.9,442.7z M370.7,625.2c-0.8-1.5-1.4-3-1.9-4.7c-0.8-3.1-0.8-6.2,0-9.3c1.4-5.5,4.6-9.7,9.8-12.2
		c2.6-1.3,5.3-1.7,8.1-1.4c2.6,0.2,5,1.1,7.1,2.6c2.3,1.6,3.9,3.6,4.9,6.3c1,2.6,1.2,5.4,0.4,8.1c-0.6,1.9-1.5,3.6-3,5
		c-2.3,2.2-5.2,3.3-8.5,3.1c-2-0.2-3.9-0.8-5.4-2c-0.1-0.1-0.2-0.2-0.2-0.3c0.1-0.2,0.2-0.1,0.4-0.2c1.1-0.2,2-0.5,2.9-1.3
		c2.3-2,3-5.1,0.7-7.9c-2.2-2.6-6.6-2.4-8.6,0.4c-1,1.3-1.2,2.9-1.2,4.5c0,2.8,1,5.3,2.8,7.3c3.3,3.9,7.5,5.5,12.5,5.1
		c2.7-0.2,5.1-1.1,7.3-2.5l0,0l0,0l-1,5.1l-1.1,5.8c-1.3,0.3-2.6,0.5-3.9,0.6c-2.6,0.2-5.2-0.1-7.8-0.8c-3.8-1.1-7.1-3-10-5.7
		C373.3,629.3,371.9,627.4,370.7,625.2z M404.7,539.4c4.3-2,7.9-4.9,11-8.6c0.4-0.5,0.8-1,1.1-1.4l-3.9,21l-0.5,2.3
		c-1-1.9-2-3.8-3-5.7c-0.7-0.9-1.4-1.7-2.3-2.6c-1.4-1.5-3-2.8-4.7-4l0,0C403.3,540,404,539.7,404.7,539.4z M398.7,591.1
		c2.7-1.1,5.2-2.4,7.4-4.2l-2.1,11.5l0,0c-1.3-2-2.8-3.6-4.6-5.1c-0.8-0.6-1.5-1.1-2.3-1.7l0,0C397.6,591.4,398.2,591.2,398.7,591.1
		z M428.5,467l-4.2,22.2l-1.8,9.7l0,0c-0.2-0.5-0.3-1.1-0.5-1.7c-0.8-3-2-5.8-3.6-8.4c-1-1.7-2-3.3-3.3-4.6
		c-3.6-3.7-6.9-7.5-10.1-11.5c-2.9-3.6-5.4-7.5-7.8-11.5c-1.2-2.1-2.3-4.4-3.3-6.6c1.7,2,3.7,3.7,5.9,5.2c2.1,1.4,4.3,2.6,6.7,3.6
		c2.7,1.1,5.5,1.8,8.4,2.1c2.6,0.3,5.2,0.5,7.8,0.2c2.1-0.2,4.2-0.5,6.1-1l0,0L428.5,467z M370.9,453.8c3.9-2.2,7.6-4.8,10.7-7.9
		c0.5-0.5,1.1-1.1,1.6-1.7c0.1,0.4,0.1,0.8,0.2,1.1c0.7,4.1,1.7,8,3.2,12c0.9,2.4,1.9,4.8,3,7.1c1.1,2.3,2.3,4.6,3.7,6.9
		c1,1.7,2,3.3,3.1,4.9c1.2,1.8,2.6,3.6,3.9,5.4c1.7,2.2,3.3,4.3,5.2,6.3c1.4,1.5,2.7,3,3.8,4.8c2.6,4.4,4,9.2,4.2,14.3
		c0.1,2.4-0.2,4.8-0.8,7.1c-0.8,3.3-2.1,6.2-4.1,8.9c-1.4,2-3.3,3.8-5.4,5.2c-3.1,2.1-6.5,3.4-10.3,3.9c-2.3,0.3-4.6,0.2-6.9-0.3
		c-1.6-0.3-3.1-0.8-4.5-1.5c-2.7-1.3-5-3.3-6.7-5.8c-3.1-4.5-4.2-9.3-2.9-14.6c0.6-2.6,2-4.9,3.9-6.8c1.7-1.7,3.9-3,6.3-3.6
		c2.6-0.7,5.1-0.7,7.6,0.2c2.6,0.9,4.7,2.4,6.1,4.7c1.1,1.6,1.7,3.3,1.8,5.2c0.2,3.1-0.8,5.8-3,8.1c-1.4,1.4-3,2.3-4.8,2.7
		c-0.2,0-0.2,0.1-0.3,0c-0.1-0.2,0.1-0.2,0.2-0.3c0.5-0.9,0.9-1.8,0.8-2.9c-0.1-2.9-1.9-5.3-5.3-5.3c-3.3,0-5.8,3.3-5,6.5
		c0.4,1.5,1.4,2.6,2.5,3.6c2,1.7,4.5,2.5,7.1,2.5c4.8-0.1,8.6-2.1,11.3-6.1c2.3-3.3,3.1-7,2.7-10.9c-0.4-4.3-2-7.9-5.1-11
		c-2.8-2.9-6.2-4.5-10.1-5.4c-2.4-0.5-4.8-0.6-7.3-0.2l0,0c0.9-3.3,1.2-6.6,1-10c-0.2-1.7-0.5-3.5-0.9-5.1c-1.9-3.6-3.7-7.3-5.6-11
		c-0.7-0.9-1.4-1.7-2.3-2.6c-2.3-2.3-4.8-4.2-7.6-5.8c-0.2-0.1-0.4-0.2-0.5-0.3l0,0l0,0C367.4,455.5,369.2,454.7,370.9,453.8z
		 M333.8,481.4l-2.2-10.7c1-1,2-1.9,3.2-2.7c1.9-1.4,4-2.6,6.2-3.5c3.1-1.2,6.3-1.8,9.6-1.8c2.5,0,5,0.5,7.3,1.4
		c3.6,1.4,6.5,3.4,9.1,6.2c1.6,1.7,2.8,3.7,3.7,5.8c0.6,1.5,1.1,3,1.4,4.6c0.5,3,0.2,6-0.8,8.9c-1.8,5.1-5.1,8.8-10.2,10.8
		c-2.5,1-5.1,1.1-7.8,0.7c-2.5-0.5-4.6-1.5-6.6-3.1c-2-1.7-3.5-3.8-4.2-6.4c-0.8-2.6-0.7-5.2,0.3-7.7c0.7-1.7,1.7-3.3,3.2-4.5
		c2.4-1.9,5.2-2.7,8.2-2.3c1.9,0.3,3.6,1.1,5,2.4c0.1,0.1,0.2,0.2,0.2,0.3c-0.1,0.2-0.2,0.1-0.4,0.1c-1.1,0.1-2,0.3-2.9,1
		c-2.3,1.7-3.3,4.5-1.3,7.4c1.9,2.7,6.1,2.9,8.2,0.4c1-1.1,1.4-2.6,1.5-4.1c0.2-2.6-0.5-5.1-2-7.3c-2.8-3.9-6.7-5.9-11.4-5.9
		c-3.9,0-7.4,1.4-10.4,4c-3.3,2.7-5.3,6.3-6.1,10.5v0.1L333.8,481.4z M349.1,555.8l-11.3-55.6c0.9,1.5,2,2.9,3.3,4.1
		c3.4,3.3,7.5,5.2,12.1,6c3,0.5,6.1,0.4,9-0.3l0,0c-0.6,3.3-0.7,6.6,0,9.9c0.7,3.6,2,6.8,4,9.8c1.7,2.6,3.7,4.8,6.1,6.6l0,0
		c-0.5,0.2-1,0.4-1.5,0.6c-2.4,1.1-4.7,2.3-6.9,3.8c-3.1,2.2-5.8,4.7-8.2,7.6c-1.9,2.4-3.6,5-4.8,7.8c-0.4,0.9-0.8,1.8-1.1,2.7
		L349.1,555.8z M353.9,579.7c0.5-1.4,1-2.9,1.4-4.3c0.8-2.6,1.6-5.2,2.1-7.9c0.4-2,0.9-3.9,1.7-5.8c2-4.7,5.1-8.6,9.2-11.7
		c1.9-1.4,4-2.6,6.2-3.5c3.1-1.2,6.3-1.8,9.6-1.8c2.5,0,5,0.5,7.3,1.4c3.6,1.4,6.5,3.4,9.1,6.2c1.6,1.7,2.8,3.7,3.7,5.8
		c0.6,1.4,1.1,3,1.4,4.6c0.5,3,0.2,6-0.8,8.9c-1.8,5.1-5.1,8.8-10.2,10.8c-2.5,1-5.1,1.2-7.8,0.7c-2.4-0.5-4.6-1.5-6.6-3.1
		c-2-1.7-3.5-3.8-4.2-6.4c-0.8-2.6-0.7-5.2,0.3-7.7c0.7-1.7,1.7-3.3,3.3-4.5c2.4-1.9,5.2-2.7,8.2-2.3c1.9,0.3,3.6,1.1,5,2.4
		c0.1,0.1,0.2,0.2,0.2,0.3c-0.1,0.2-0.2,0.1-0.4,0.1c-1.1,0.1-2,0.3-2.9,1c-2.3,1.7-3.3,4.6-1.3,7.4c1.9,2.6,6.1,2.8,8.2,0.4
		c1-1.2,1.4-2.6,1.5-4.2c0.2-2.6-0.5-5.1-2.1-7.3c-2.8-3.9-6.7-5.8-11.4-5.9c-3.9,0-7.4,1.4-10.4,4c-3.3,2.8-5.3,6.3-6.1,10.5
		c-0.7,3.9-0.2,7.7,1.4,11.4c1.1,2.6,2.8,4.9,4.8,7c1,1,2,1.8,3.2,2.6l0,0l0,0c-1.4,0.4-2.7,0.8-4.1,1.5c-3.8,1.8-7.1,4.3-9.7,7.6
		c-2,2.6-3.6,5.4-4.7,8.5l-3.1-15.1L353.9,579.7z M365.6,636.4c0.2,0.4,0.5,0.8,0.7,1.1c0.8,0.8,1.7,1.7,2.6,2.5
		c2.6,2.2,5.3,4,8.4,5.4c4.5,2.1,9.3,3.1,14.3,3.1c1.1,0,2.1-0.1,3.2-0.2l0,0l-12.7,68.1L365.6,636.4z M510.1,465
		c1.4,3.1,3.5,5.7,6.4,7.6c3.2,2,6.7,3,10.4,2.6c4.5-0.5,7.9-2.7,10.1-6.7c1.2-2.2,1.6-4.5,1.1-7c-0.3-1.4-0.8-2.7-2-3.7
		c-2.3-2.1-6.3-1.5-7.7,1.2c-1.5,2.9-0.2,5.4,2.1,6.7c0.9,0.5,1.8,0.7,2.8,0.6c0.2,0,0.2-0.1,0.3,0.1c0.1,0.1-0.1,0.2-0.2,0.3
		c-1.1,1.4-2.6,2.3-4.4,2.8c-2.9,0.8-5.6,0.3-8.1-1.2c-1.6-1-2.7-2.3-3.6-3.9c-1.3-2.3-1.7-4.7-1.3-7.2c0.4-2.4,1.4-4.5,3.2-6.4
		c1.7-1.7,3.6-3,5.8-3.6c2.4-0.8,4.9-0.8,7.4-0.2c5,1.4,8.7,4.4,11,9c1.3,2.6,2,5.3,1.8,8.2c-0.1,1.5-0.4,3-0.8,4.5
		c-0.6,2.1-1.5,4.1-2.8,5.8c-2,2.9-4.6,5.1-7.8,6.7c-2.1,1.1-4.4,1.8-6.7,2.1c-3.1,0.4-6.2,0.2-9.3-0.7c-2.2-0.6-4.3-1.4-6.3-2.6
		c-1.7-1-3.3-2.1-4.8-3.3L510.1,465z M497.6,516.6c-0.6,0.7-1.1,1.4-1.7,2.2l8.4-32.1l0,0c1.3,0.9,2.6,1.7,4.1,2.5
		c2.2,1.2,4.5,2,7,2.8c2.6,0.8,5.4,1.2,8.2,1.3c2.4,0.1,4.8-0.1,7.2-0.5c2.5-0.5,4.8-1.2,7.1-2.3c-1.7,1.6-3.5,3-5.3,4.4
		c-3.5,2.6-7.2,4.9-11,7c-4.2,2.3-8.6,4.3-13,6.1c-1.7,0.7-3.2,1.7-4.6,2.7C501.5,512.4,499.4,514.4,497.6,516.6z M535.7,526.5
		c-0.5-0.3-0.9-0.5-1.4-0.8c-1.6-0.8-3.3-1.4-5.1-1.8c-3.7-0.8-7.3-0.5-10.8,0.8c-3.8,1.5-6.6,4-8.5,7.6c-1.7,3.3-2.3,6.7-1.5,10.4
		c1,4.4,3.6,7.6,7.9,9.5c2.3,1,4.7,1.3,7.1,0.5c1.4-0.4,2.6-1,3.5-2.2c1.9-2.4,0.8-6.3-2-7.5c-3-1.3-5.4,0.2-6.6,2.6
		c-0.4,0.9-0.5,1.8-0.3,2.8c0,0.1,0.2,0.2,0,0.3c-0.1,0.1-0.2-0.1-0.3-0.2c-1.6-1.1-2.6-2.4-3.3-4.2c-1.1-2.7-0.9-5.4,0.4-8
		c0.8-1.6,2-2.9,3.6-3.9c2.1-1.4,4.5-2,7.1-1.7c2.5,0.2,4.8,1.1,6.7,2.6s3.3,3.3,4.2,5.4c1,2.3,1.4,4.8,1,7.3
		c-0.8,5.1-3.5,8.9-7.9,11.5c-2.4,1.4-5.1,2.3-8,2.3c-1.5,0.1-3-0.2-4.5-0.5c-2.2-0.5-4.2-1.2-6.2-2.3c-3.1-1.8-5.7-4.2-7.6-7.2
		c-1.4-2-2.3-4.2-2.9-6.5c-0.7-3-0.8-6.1-0.4-9.2c0.4-2.2,1-4.3,1.9-6.4c2-4.4,4.9-7.9,8.9-10.7c1.6-1.1,3.3-2,5.1-2.7
		c2.3-1,4.6-2.2,6.9-3.5c1.8-1,3.6-2,5.4-3.2c1.5-1,3-2,4.5-3c2-1.4,3.9-3,5.8-4.5c1.8-1.6,3.6-3.3,5.2-5c2.6-2.8,5.1-5.8,7.1-9.1
		c0.2-0.3,0.4-0.6,0.5-0.9c0.2,0.7,0.5,1.4,0.8,2c1.7,3.9,3.9,7.6,6.6,10.9c1.1,1.4,2.4,2.8,3.8,4.1l0,0c-0.2,0-0.4,0-0.5,0.1
		c-3,0.3-6,1.1-8.8,2.2c-1,0.4-2,0.8-2.9,1.4c-3,2.4-6,4.9-8.9,7.3c-1,1.3-1.9,2.6-2.6,4.1C537,520.4,536.1,523.3,535.7,526.5z
		 M482.3,570.7l7.6-28.8c0.2,2,0.6,3.9,1.2,5.8c1.4,4.3,3.5,8.2,6.6,11.6c0.5,0.5,1,1.1,1.5,1.6c-1.9,0.4-3.8,0.9-5.6,1.7
		c-1,0.4-2,0.8-2.9,1.4C487.9,566.2,485.1,568.4,482.3,570.7z M469.7,618.6L469.7,618.6l6.9-26.2c0.3,1.5,0.7,3,1.3,4.4
		c1.4,3.6,3.6,6.6,6.3,9.2c0.4,0.4,0.8,0.8,1.3,1.1c-0.8,0.2-1.7,0.3-2.6,0.5c-2.7,0.8-5.3,2-7.5,3.8
		C472.8,613.4,470.9,615.8,469.7,618.6L469.7,618.6z M463.8,641l4.4-16.6l0,0v-0.1c-0.2,2.8,0.2,5.6,1.3,8.3
		c1.5,3.6,3.9,6.5,7.5,8.3c4.2,2.3,8.6,2.3,12.9,0.3c2.3-1.1,4.2-2.9,5.1-5.3c0.5-1.4,0.9-2.8,0.5-4.3c-0.8-3.2-4.5-5-7.4-3.6
		c-3,1.5-3.5,4.5-2.2,7c0.5,1,1.2,1.7,2.1,2.2c0.1,0.1,0.3,0.1,0.3,0.2s-0.2,0.2-0.3,0.2c-1.9,0.5-3.7,0.4-5.5-0.3
		c-3-1.1-5.1-3-6.4-5.8c-0.8-1.7-1-3.6-0.8-5.4c0.2-2.6,1.4-5,3.3-6.9c1.8-1.9,4-3,6.6-3.6c2.4-0.5,4.8-0.4,7.3,0.4
		c2.6,0.8,4.8,2.2,6.6,4.2c3.6,4.1,4.9,8.9,4.2,14.2c-0.4,3-1.5,5.7-3.3,8c-1,1.3-2.1,2.3-3.3,3.3c-1.8,1.4-3.8,2.6-6,3.3
		c-3.5,1.2-7.1,1.6-10.9,1.1c-2.5-0.3-4.9-1.1-7.2-2.2c-3-1.5-5.5-3.6-7.7-6.1C464.4,641.8,464.1,641.4,463.8,641z M482.9,678.4
		l-10.4,13.9l-33.9,45.2l22.3-85l0,0c0.8,0.6,1.5,1.3,2.3,1.9c2,1.5,4.2,2.7,6.6,3.8c4.4,1.9,8.9,2.9,13.7,2.7
		c3.2-0.1,6.4-0.6,9.4-1.5c1.1-0.3,2.1-0.7,3.2-1.1c1.4-1,2.9-2,4.3-3L482.9,678.4z M527.7,618.8l-15,20c0.2-1.1,0.5-2.2,0.5-3.3
		c0.3-3.6,0-7-1-10.4c-1.1-3.9-3.1-7.2-5.8-10.2c-0.9-1.1-2-2-3-2.8c1.3-0.2,2.5-0.5,3.8-1c2.5-1,4.8-2.3,6.8-4.2
		c2.6-2.6,4.5-5.6,5.4-9.3c0.8-3.9,0.4-7.7-1.5-11.4c-1.7-3.3-4.2-5.9-7.7-7.3c-4.2-1.8-8.3-1.6-12.3,0.8c-2.1,1.3-3.7,3-4.5,5.4
		c-0.5,1.4-0.6,2.7-0.2,4.1c1,3,4.8,4.4,7.3,2.8c2.7-1.7,3-4.5,1.5-6.8c-0.5-0.9-1.3-1.5-2.2-1.9c-0.1-0.1-0.3-0.1-0.3-0.2
		s0.2-0.2,0.3-0.2c1.7-0.7,3.5-0.7,5.3-0.2c2.9,0.8,5,2.5,6.4,5.1c0.9,1.6,1.2,3.3,1.2,5.1c0,2.6-0.9,4.8-2.6,6.8
		c-1.6,1.9-3.6,3.2-6,3.9c-2.3,0.7-4.6,0.8-6.9,0.2c-2.5-0.6-4.8-1.7-6.6-3.6c-3.7-3.6-5.4-8.1-5.1-13.2c0.2-2.9,1-5.5,2.6-7.9
		c0.8-1.3,1.8-2.3,2.9-3.4c1.6-1.5,3.4-2.7,5.4-3.6c3.3-1.4,6.7-2.1,10.2-1.9c2.4,0.2,4.8,0.6,7,1.6c3,1.2,5.5,3,7.8,5.1
		c1.7,1.6,3,3.4,4.2,5.3c2.5,4.2,3.9,8.7,3.9,13.5c0.1,1.9-0.2,3.8-0.6,5.7c-0.5,2.5-0.8,5.1-1,7.6c-0.2,2-0.4,4.2-0.4,6.3
		C527.7,616.3,527.7,617.6,527.7,618.8L527.7,618.8z M537.6,605.5c0.3-2,0.7-4,1.1-6.1c0.4-1.7,0.4-3.6,0.3-5.3
		c-0.1-2.9-0.5-5.8-1.4-8.6c-1-3.4-2.5-6.7-4.4-9.7c-1.4-2.1-3-4-4.7-5.8c-0.4-0.4-0.8-0.8-1.1-1.1c2.7-0.7,5.3-1.8,7.7-3.4
		c2.8-1.9,5.2-4.2,7.1-7c1.8-2.6,3-5.4,3.6-8.6l0,0c2.3,1.7,4.9,3,7.8,3.7c4.4,1.1,8.7,1,12.9-0.6c2.5-1,4.8-2.3,6.8-4.2
		c2.6-2.6,4.5-5.6,5.4-9.3c0.8-3.9,0.4-7.7-1.5-11.4c-1.7-3.3-4.2-5.9-7.7-7.3c-4.2-1.8-8.3-1.6-12.3,0.8c-2.1,1.3-3.7,3-4.5,5.4
		c-0.5,1.4-0.6,2.7-0.2,4.1c1,3,4.8,4.4,7.3,2.8c2.7-1.7,3-4.5,1.5-6.8c-0.5-0.9-1.3-1.5-2.2-1.9c-0.1-0.1-0.3-0.1-0.3-0.2
		s0.2-0.2,0.3-0.2c1.7-0.7,3.5-0.7,5.3-0.2c2.9,0.8,5,2.5,6.4,5.1c0.9,1.6,1.2,3.3,1.2,5.1c0,2.6-0.9,4.8-2.6,6.8
		c-1.6,1.9-3.6,3.2-6,3.9c-2.3,0.7-4.6,0.8-6.9,0.2c-2.5-0.6-4.8-1.7-6.6-3.6c-3.7-3.6-5.4-8.1-5.1-13.2c0.2-2.9,1-5.5,2.6-7.9
		c0.8-1.3,1.8-2.3,2.9-3.4c1.6-1.5,3.4-2.7,5.4-3.6c3.3-1.4,6.7-2.1,10.2-1.9c2.4,0.2,4.8,0.6,7,1.6c3,1.2,5.5,3,7.8,5.1
		c1.7,1.6,3,3.3,4.2,5.3c2.3,3.9,3.6,8.1,3.9,12.6L537.6,605.5z M592.7,518.3c-0.9-1.4-1.9-2.6-3-3.9c2.4,0,4.8-0.2,7.3-0.6
		c3.5-0.7,6.8-1.8,9.9-3.5c1.1-0.6,2.1-1.2,3.2-1.9c0.7-0.8,1.4-1.4,2.1-2.2l-15.4,20.6C595.7,523.8,594.3,520.9,592.7,518.3z
		 M569.1,720.3c-0.1,0-0.1-0.1-0.2-0.1c-2.9-1.5-5.4-3.6-7.5-6c-1.6-1.9-2.8-4-3.6-6.4c-1.3-3.5-1.7-7-1.2-10.7
		c0.3-2.3,0.9-4.5,1.9-6.5c0.7-1.4,1.5-2.8,2.5-4c1.9-2.3,4.2-4,7-5.1c4.9-2,9.8-1.8,14.5,0.7c2.3,1.2,4.2,3.1,5.5,5.4
		c1.3,2.1,1.9,4.4,1.9,6.9c0.1,2.6-0.6,5-2,7.2s-3.4,3.9-5.9,4.8c-1.7,0.6-3.6,0.9-5.4,0.5c-3-0.6-5.3-2.1-7-4.7
		c-1-1.6-1.5-3.3-1.4-5.3c0-0.2,0-0.3,0.1-0.3c0.2-0.1,0.2,0.2,0.3,0.2c0.7,0.8,1.5,1.3,2.6,1.5c2.7,0.6,5.4-0.5,6.3-3.8
		c0.8-3.1-1.8-6.4-5-6.4c-1.5,0-2.8,0.7-4,1.5c-2.1,1.5-3.4,3.6-4,6.2c-1.1,4.6-0.1,8.7,3,12.3c2.5,3,5.8,4.6,9.6,5.2
		c2,0.3,3.9,0.3,5.8,0L569.1,720.3z M591.8,708.8c1.8-1.7,3.3-3.7,4.4-6c1.3-2.5,1.9-5.2,2-8c0.1-0.9,0-1.8,0-2.6
		c0.5,0.3,0.8,0.7,1.3,1c3.1,2,6.5,3.4,10.2,3.9c1.7,0.2,3.3,0.3,5,0.2L591.8,708.8z M633.1,687.7c0.2-0.2,0.3-0.3,0.5-0.5l5.1-10.3
		c0.3-1,0.5-2,0.7-3.1c0.3-1.9,0.5-3.9,0.5-5.8c0.6,0.4,1.2,0.8,1.8,1.1c3.9,2.1,8.1,3.3,12.5,3.6c2.3,0.2,4.7,0,7-0.4
		c1.4-0.2,2.7-0.5,4-0.9L633.1,687.7z M670.7,657.9c-1.7,1.4-3.7,2.4-5.8,3.3c-2.9,1.2-5.8,1.8-8.9,1.8c-2.3,0-4.6-0.4-6.9-1.2
		c-3.3-1.2-6.1-3.1-8.6-5.7c-1.5-1.6-2.6-3.4-3.6-5.4c-0.6-1.4-1.1-2.8-1.4-4.2c-0.5-2.8-0.3-5.6,0.6-8.2c1.6-4.8,4.7-8.3,9.4-10.2
		c2.3-1,4.8-1.2,7.3-0.8c2.3,0.4,4.3,1.3,6.2,2.8c1.9,1.6,3.3,3.5,4,5.8c0.8,2.4,0.8,4.8-0.2,7.3c-0.6,1.7-1.5,3.2-3,4.3
		c-2.2,1.8-4.8,2.6-7.6,2.2c-1.8-0.2-3.4-0.9-4.7-2.2c-0.1-0.1-0.2-0.2-0.2-0.2c0.1-0.2,0.2-0.1,0.3-0.1c1-0.1,1.9-0.3,2.6-1
		c2.1-1.7,3-4.3,1.1-6.9c-1.8-2.5-5.7-2.6-7.6-0.2c-0.9,1.1-1.2,2.5-1.4,3.9c-0.2,2.5,0.6,4.8,2,6.7c2.6,3.6,6.4,5.4,10.8,5.3
		c3.7-0.1,6.9-1.4,9.7-3.9c3-2.6,4.8-6,5.5-9.9c0.6-3.7,0-7.3-1.4-10.6c-0.9-2.1-2.3-4-3.9-5.6c3-1.1,5.6-2.6,8-4.8
		c1.2-1.1,2.3-2.3,3.3-3.5l5.1-10.3c0.3-1,0.5-2,0.7-3.1c0.5-3,0.6-5.9,0.2-8.9c0-0.2-0.1-0.4-0.1-0.5c1.5,1,3.1,1.9,4.7,2.6
		c3.8,1.8,7.8,3.1,11.9,3.8c0.7,0.2,1.4,0.2,2.1,0.3c-0.2,0.2-0.5,0.5-0.8,0.8c-2.6,2.8-5.1,5.8-7.2,9c-1.4,2-2.6,4.1-3.7,6.2
		c-1.1,2.1-2.2,4.3-3.2,6.6c-0.7,1.7-1.4,3.3-2,5.1c-0.7,2-1.4,3.9-1.9,6c-0.7,2.4-1.4,4.9-1.9,7.4c-0.4,1.9-0.8,3.7-1.5,5.4
		C677.3,651.3,674.5,655,670.7,657.9z M675.5,666.2c2.7-2,5.1-4.4,7.2-7c1.7-2.3,3.3-4.8,4.4-7.3c0.7-1.7,1.4-3.3,1.7-5.1
		c0.8-4.7,1.8-9.4,3.1-13.9c1.2-4.2,2.6-8.2,4.4-12.3c0.9-2.1,2-4.2,3.1-6.1c-0.5,2.4-0.8,4.8-0.7,7.3c0.1,2.3,0.4,4.7,1,7
		c0.7,2.6,1.7,5.1,3,7.6c1.2,2.1,2.6,4.2,4.2,6.1c1.7,1.9,3.5,3.7,5.5,5.2L675.5,666.2z M722,642.6L722,642.6
		c-2.6-1.4-5.1-3.3-7.1-5.6c-1.5-1.7-2.7-3.5-3.8-5.4c-1.4-2.8-2.3-5.7-2.6-8.8c-0.2-2.3,0-4.7,0.6-7c0.9-3.4,2.5-6.4,4.8-9.1
		c1.4-1.7,3.1-3,5-4.1c1.3-0.8,2.6-1.4,4.1-1.7c2.7-0.8,5.5-0.8,8.2-0.2c4.9,1.2,8.6,3.9,11,8.5c1.1,2.3,1.6,4.7,1.4,7.2
		c-0.2,2.3-0.9,4.5-2.2,6.4c-1.4,2-3.2,3.6-5.4,4.5c-2.3,1-4.8,1.1-7.2,0.5c-1.7-0.5-3.3-1.3-4.5-2.6c-2-2-3-4.6-2.9-7.5
		c0.1-1.8,0.6-3.5,1.7-4.9c0.1-0.1,0.2-0.2,0.2-0.2c0.2,0,0.1,0.2,0.2,0.3c0.2,1,0.5,1.8,1.2,2.6c1.8,2,4.5,2.6,7,0.5
		c2.3-2,2-5.9-0.5-7.6c-1.2-0.8-2.6-1-3.9-1c-2.5,0-4.7,1-6.5,2.6c-3.3,3-4.8,6.8-4.3,11.3c0.4,3.7,2,6.8,4.7,9.3
		c2.9,2.8,6.4,4.3,10.4,4.6c2.3,0.2,4.4-0.1,6.4-0.8L722,642.6z M744.1,631.4c1.4-1.1,2.6-2.3,3.8-3.8c2.7-3.5,4.2-7.5,4.4-11.9
		c0.2-3.9-0.5-7.5-2.3-11c-1.7-3.3-3.9-6.3-6.9-8.6c-1.2-0.9-2.5-1.7-3.9-2.5c2.5-0.4,5.1-0.7,7.6-0.8c5.3-0.4,10.7-0.2,16,0.5
		c5.9,0.8,11.7,2.3,17.3,4.5c2.6,1.1,5.1,2.2,7.6,3.6c2.3,1.3,4.6,2.7,6.8,4.2c0,0,0,0,0.1,0L744.1,631.4z M758.7,573.7
		c1.2-1.1,2.3-2.3,3.3-3.5l5.1-10.3c0.3-1,0.5-2,0.7-3.1c0.5-3,0.6-6,0.2-8.9c0-0.2-0.1-0.3-0.1-0.5l40,51.5l-10.4,5.2
		c-2.7-3.3-5.8-6.1-9.4-8.5c-2-1.4-4.1-2.6-6.2-3.7c-4.2-2.2-8.6-3.9-13-5.1c-4.5-1.3-8.9-2.1-13.5-2.6c-2.9-0.3-5.7-0.4-8.6-0.5
		c-2.9,0-5.8,0.1-8.6,0.4c-2.1,0.2-4.2,0.5-6.4,0.8c-2.4,0.4-4.8,0.8-7.3,1.3c-3,0.6-5.9,1.3-8.7,2.1c-2.1,0.7-4.3,1.2-6.5,1.4
		c-5.6,0.5-11-0.4-16.3-2.7c-2.4-1.1-4.7-2.5-6.8-4.2c-3-2.3-5.3-5.1-7.2-8.2c-1.4-2.4-2.3-5.1-2.9-7.8c-0.8-4.1-0.5-8.1,0.7-12
		c0.8-2.4,1.9-4.6,3.4-6.7c1.1-1.4,2.2-2.7,3.6-3.8c2.6-2.1,5.5-3.4,8.9-3.9c5.9-1,11.3,0.3,16,4.1c2.3,1.9,4,4.3,5.1,7.1
		c1,2.6,1.2,5.2,0.8,7.9c-0.5,2.9-1.7,5.3-3.6,7.3c-2,2.1-4.5,3.4-7.5,3.8c-2,0.2-4.2,0.2-6.1-0.7c-3.2-1.3-5.5-3.6-6.8-6.7
		c-0.8-2-1.1-4-0.6-6.1c0-0.2,0-0.3,0.2-0.3s0.2,0.2,0.3,0.3c0.6,1,1.4,1.7,2.6,2.2c3,1.3,6.2,0.7,7.7-2.6c1.5-3.2-0.8-7.3-4.3-8
		c-1.7-0.4-3.3,0.1-4.8,0.8c-2.6,1.1-4.5,3.2-5.7,5.8c-2.1,4.8-1.7,9.5,1,14.1c2.3,3.8,5.6,6.4,9.8,7.9c4.5,1.7,9,1.7,13.5,0.2
		c4.2-1.4,7.4-3.9,10-7.3c0.3-0.4,0.6-0.8,0.9-1.3c1.7,2.9,3.9,5.3,6.7,7.1c3.1,2,6.5,3.4,10.2,3.9c3.3,0.5,6.7,0.2,9.9-0.6
		C752,578.4,755.6,576.5,758.7,573.7z M748.2,533.3c2.6,1.7,4.8,3.8,6.7,6.3c1.4,1.9,2.3,4,3,6.4c0.9,3.4,1.1,6.8,0.3,10.3
		c-0.5,2.1-1.2,4.2-2.3,6.1c-0.8,1.3-1.6,2.5-2.6,3.6c-2,2-4.3,3.5-7,4.3c-4.8,1.4-9.5,0.9-13.8-1.8c-2.1-1.4-3.7-3.3-4.8-5.5
		c-1.1-2.1-1.4-4.3-1.3-6.7c0.2-2.5,1-4.7,2.5-6.7s3.6-3.4,6-4c1.7-0.5,3.5-0.5,5.1-0.1c2.8,0.8,4.8,2.5,6.2,5
		c0.8,1.6,1.2,3.3,1,5.1c0,0.1,0,0.2-0.1,0.3c-0.2,0.1-0.2-0.2-0.2-0.2c-0.6-0.8-1.4-1.4-2.3-1.7c-2.6-0.8-5.2,0.1-6.3,3.1
		c-1,2.9,1.2,6.1,4.2,6.4c1.4,0.2,2.7-0.5,3.9-1.1c2.1-1.3,3.6-3.3,4.3-5.5c1.4-4.2,0.8-8.3-1.9-12c-2.2-3-5.1-4.8-8.7-5.7
		c-3.9-1-7.6-0.5-11.3,1.2c-2.6,1.3-4.7,3.1-6.4,5.3c-1.7-3.6-4.2-6.8-7.3-9.4c-0.5-0.4-0.8-0.7-1.3-1c0.8-0.2,1.4-0.5,2.2-0.7
		c2.4-0.8,4.8-1.7,7.1-2.7c1.7-0.8,3.5-1.5,5.4-1.9c4.7-1.1,9.3-0.8,13.8,0.6C744.3,531.2,746.3,532.1,748.2,533.3z M721.1,487
		l27.8,35.8c-0.8-0.4-1.6-0.7-2.4-1c-3.3-1.1-6.7-1.8-10.2-2c-2.9-0.2-5.7,0.1-8.5,0.7c-1.7,0.4-3.5,0.8-5.1,1.6
		c-4.3,2-8.7,3.9-13.2,5.4c-2.5,0.9-5,1.7-7.6,2.3c-3.5-0.8-6.9-0.8-10.4-0.5c-3.3,0.4-6.5,1.4-9.5,2.8h-0.1L721.1,487z
		 M666.5,550.3c-0.3,0.8-0.5,1.6-0.8,2.4c-0.9,3.4-1.4,6.8-1.2,10.4c0.1,2.4,0.4,4.8,0.9,7.1c-1.4-0.8-2.9-1.4-4.4-1.9
		c-2.7-0.9-5.6-1.6-8.5-1.8L666.5,550.3z M612.9,612.4l1.3-1.5l30.1-34.9c4.2-0.7,8.3-0.4,12.4,0.9c2.1,0.7,4.1,1.6,6,2.8
		c2.6,1.7,4.8,3.8,6.7,6.3c1.4,1.9,2.3,4.1,3,6.4c0.9,3.4,1.1,6.8,0.3,10.3c-0.5,2.1-1.2,4.2-2.3,6.1c-0.8,1.3-1.6,2.5-2.6,3.6
		c-2,2-4.3,3.5-7,4.3c-4.8,1.4-9.5,0.9-13.8-1.8c-2.1-1.4-3.7-3.3-4.8-5.5c-1.1-2.1-1.4-4.3-1.3-6.7c0.2-2.5,1-4.7,2.5-6.7
		s3.6-3.4,6-4c1.7-0.5,3.5-0.5,5.1-0.1c2.8,0.8,4.8,2.4,6.2,5c0.8,1.6,1.2,3.3,1,5.1c0,0.1,0,0.2-0.1,0.3c-0.2,0.1-0.2-0.2-0.2-0.2
		c-0.6-0.8-1.4-1.4-2.3-1.6c-2.6-0.8-5.2,0.1-6.3,3.1c-1,2.9,1.2,6.1,4.2,6.4c1.4,0.2,2.7-0.5,3.9-1.1c2.1-1.3,3.6-3.3,4.3-5.5
		c1.4-4.3,0.8-8.3-1.9-12c-2.2-3-5.1-4.8-8.7-5.7c-3.9-1-7.6-0.5-11.3,1.2c-3.3,1.7-5.9,4.2-7.8,7.3c-1.4,2.3-2.2,4.8-2.6,7.5
		c-0.6,4.4,0.2,8.6,2.2,12.5c1.3,2.6,3,4.8,5.2,6.7c-2.8,1.4-5.3,3.1-7.4,5.4c-2.3,2.5-4,5.3-5.2,8.5c-1,2.6-1.6,5.4-1.7,8.2
		c-0.5-0.3-0.8-0.6-1.3-0.8c-2.1-1.2-4.3-2.3-6.6-3.1c-3.3-1.1-6.7-1.8-10.2-2c-2.9-0.2-5.7,0.1-8.5,0.7c-1.7,0.4-3.5,0.8-5.1,1.6
		c-2.3,1.1-4.8,2.2-7.2,3.2L612.9,612.4z M576.4,654.6c1.7-0.4,3.4-0.8,5.1-1.3c2-0.5,4-1.2,5.9-1.9c2.4-0.8,4.8-1.7,7.1-2.7
		c1.7-0.8,3.5-1.5,5.4-1.9c4.7-1.1,9.3-0.8,13.8,0.6c2.1,0.7,4.1,1.6,6,2.8c2.6,1.7,4.8,3.8,6.7,6.3c1.4,1.9,2.3,4.1,3,6.4
		c0.9,3.4,1.1,6.8,0.3,10.3c-0.5,2.1-1.2,4.2-2.3,6.1c-0.8,1.3-1.7,2.5-2.6,3.6c-2,2-4.3,3.5-7,4.3c-4.8,1.4-9.5,0.9-13.8-1.8
		c-2.1-1.4-3.7-3.3-4.8-5.5c-1-2.1-1.4-4.3-1.3-6.7c0.2-2.5,1-4.7,2.5-6.7s3.6-3.4,6-4c1.7-0.5,3.5-0.5,5.1-0.1
		c2.8,0.8,4.8,2.4,6.2,5c0.8,1.6,1.2,3.3,0.9,5.1c0,0.1,0,0.2-0.1,0.3c-0.2,0.1-0.2-0.2-0.2-0.2c-0.6-0.8-1.4-1.4-2.3-1.7
		c-2.6-0.8-5.2,0.1-6.3,3.1c-1,2.9,1.2,6.1,4.2,6.4c1.4,0.2,2.7-0.5,3.9-1.1c2.1-1.3,3.6-3.2,4.3-5.5c1.4-4.3,0.8-8.3-1.9-11.9
		c-2.2-3-5.1-4.8-8.7-5.7c-3.9-1-7.6-0.5-11.3,1.2c-3.3,1.7-5.9,4.2-7.8,7.3c-1.4,2.3-2.2,4.8-2.6,7.5c-0.2,1.3-0.2,2.6-0.2,3.9
		c-1.1-0.8-2.1-1.6-3.3-2.3c-3.5-1.9-7.1-3-11-3.2c-3.5-0.2-7,0.3-10.3,1.5c-2.4,0.8-4.7,2-6.7,3.4L576.4,654.6z M546.7,694
		c-0.2,1.1-0.4,2.2-0.5,3.3c-0.3,3.2-0.1,6.3,0.5,9.4c0.9,4.6,2.8,8.8,5.5,12.6c1.5,2,3.2,3.8,5,5.4c0.4,0.3,0.8,0.7,1.2,1
		l-77.3,39.4l69.4-80.4C549.2,687.7,548,690.9,546.7,694z M617.6,423.7l41.3,20.1l-35.5,47.3c-0.2-0.5-0.3-1-0.5-1.4
		c0.7-3.2,0.9-6.5,0.5-9.9c-0.4-3.6-1.4-6.9-3-10.1c0-2.6,0.2-5.3,0.5-7.9c0.5-4.8,1.3-9.5,2.3-14.2c0.4-1.7,0.4-3.6,0.3-5.3
		c-0.1-2.9-0.5-5.8-1.4-8.6c-1-3.4-2.5-6.7-4.4-9.7C617.8,423.8,617.7,423.7,617.6,423.7L617.6,423.7z M591.4,418
		c2.4,0.2,4.8,0.6,7,1.6c3,1.2,5.5,3,7.8,5.1c1.7,1.6,3,3.3,4.2,5.3c2.5,4.2,3.9,8.7,3.9,13.5c0,1.9-0.2,3.8-0.6,5.7
		c-0.5,2.5-0.8,5.1-1,7.6c-0.1,0.8-0.2,1.5-0.2,2.3c-0.5-0.4-0.8-0.7-1.3-1.1c-3.3-2.6-7-4.2-11-5.1c1.8-2.2,3-4.6,3.7-7.5
		c0.9-3.9,0.4-7.7-1.5-11.4c-1.7-3.3-4.2-5.9-7.7-7.3c-4.2-1.8-8.3-1.6-12.3,0.8c-2.1,1.3-3.7,3-4.5,5.4c-0.5,1.4-0.6,2.7-0.2,4.1
		c1,3,4.8,4.4,7.3,2.8c2.7-1.7,3-4.5,1.5-6.8c-0.5-0.9-1.3-1.5-2.2-1.9c-0.1-0.1-0.3-0.1-0.3-0.2s0.2-0.2,0.3-0.2
		c1.7-0.7,3.5-0.7,5.3-0.2c2.9,0.8,5,2.5,6.4,5.1c0.9,1.6,1.2,3.3,1.2,5.1c0,2.6-0.9,4.8-2.6,6.8c-1.6,1.9-3.6,3.2-6,3.9
		c-2.3,0.7-4.6,0.8-6.9,0.2c-2.5-0.6-4.8-1.7-6.6-3.6c-3.7-3.6-5.4-8.1-5.1-13.2c0.2-2.9,1-5.5,2.6-7.9c0.8-1.3,1.8-2.3,2.9-3.4
		c1.6-1.5,3.4-2.7,5.4-3.6C584.3,418.4,587.7,417.8,591.4,418z M586.3,408.4L586.3,408.4c-2.8,0.4-5.5,1.1-8.2,2.1
		c-1,0.4-2,0.8-2.9,1.4c-3,2.4-6,4.9-8.9,7.3c-1,1.3-1.9,2.6-2.6,4.1c-1.9,3.6-3,7.5-3,11.7c0,3.4,0.6,6.7,1.8,9.9
		c1.4,3.6,3.6,6.6,6.4,9.2c2.5,2.3,5.4,4.1,8.7,5.1c-0.4,0.4-0.7,0.8-1.1,1.1c-2.7,3.3-4.5,7.1-4.8,11.5c-0.5,4.7,0.8,9.2,3.5,13.2
		c2.5,3.7,5.8,6.5,10.1,7.9c5.1,1.7,10,1,14.1-2.1c2.3-1.7,3.9-3.9,4.4-6.8c0.3-1.6,0.3-3.3-0.4-4.8c-1.6-3.3-6.2-4.7-9-2.5
		c-3,2.3-2.7,5.6-0.8,8.2c0.8,1,1.7,1.6,2.8,2c0.2,0.1,0.4,0,0.4,0.2s-0.2,0.2-0.3,0.2c-1.9,0.9-4,1.1-6.1,0.8
		c-3.5-0.6-6.2-2.4-8.3-5.3c-1.3-1.7-1.9-3.8-2.2-5.9c-0.4-3,0.4-5.8,2-8.2c1.5-2.4,3.7-4.1,6.4-5.1c2.6-1,5.2-1.4,8-0.9
		c3,0.5,5.8,1.5,8.2,3.5c4.9,3.9,7.5,8.9,7.9,15c0.2,3.4-0.3,6.6-1.7,9.5c-0.8,1.6-1.7,3-2.9,4.3c-1.7,2-3.6,3.6-5.8,4.8
		c-3.6,2-7.5,3.2-11.7,3.3c-2.8,0.1-5.7-0.2-8.4-1.1c-3.6-1.1-6.9-2.9-9.9-5.3c-2.1-1.7-4.1-3.6-5.8-5.8c-3.6-4.6-5.8-9.8-6.6-15.4
		c-0.3-2.3-0.3-4.5-0.2-6.7c0.2-3,0.2-6.1,0-9.1c-0.1-2.5-0.2-4.9-0.5-7.4c-0.2-2.1-0.5-4.3-0.8-6.4c-0.5-2.9-1-5.8-1.7-8.6
		c-0.7-2.8-1.5-5.6-2.5-8.3c-1.5-4.4-3.5-8.6-5.8-12.7c-2.3-4.2-5.1-8.1-8.2-11.7c-1.6-1.9-3.3-3.6-5.1-5.3c-2-1.7-4-3.3-6.1-4.8
		l3.2-12.2L586.3,408.4z M438.5,413l-1.8,9.8l0,0l-0.2,0.7l0,0c-0.2-0.9-0.3-1.7-0.6-2.6c-1.3-4.5-3.9-8.3-7.5-11.3
		c-3.2-2.6-6.8-4.2-10.8-4.9c-3.9-0.7-7.9-0.5-11.7,0.6c-1.6,0.5-3.1,1.1-4.5,1.8c1.3-2.4,2.6-4.8,4.1-7.2c3-4.8,6.6-9.4,10.5-13.5
		c4.4-4.7,9.3-8.7,14.8-12.2c2.5-1.6,5.1-3,7.9-4.3c2.6-1.2,5.3-2.3,7.9-3.3c0.2-0.1,0.5-0.2,0.7-0.2l-2,10.7l0,0l-1.4,7.7l0,0
		L438.5,413z M398.4,355.3l50.9-0.5l-1.4,7.9l0,0c-4.8,0.2-9.4,1.2-13.9,2.8c-2.4,0.8-4.8,1.9-7.1,3c-4.5,2.3-8.7,4.9-12.7,8.1
		c-3.9,3-7.4,6.4-10.7,10.1c-2,2.3-3.9,4.7-5.8,7.1c-1.8,2.5-3.6,5.1-5.1,7.7c-1.2,2-2.3,3.9-3.4,6c-1.2,2.3-2.3,4.7-3.5,7.1
		c-1.3,3-2.6,5.9-3.6,8.9c-0.8,2.3-1.7,4.5-2.9,6.6c-3.1,5.2-7.3,9.4-12.6,12.4c-2.5,1.4-5.1,2.5-7.9,3.3c-3.9,1.1-7.7,1.4-11.7,1.1
		c-3-0.3-5.8-1.1-8.5-2.4c-4-2-7.3-4.7-9.9-8.2c-1.6-2.2-2.8-4.5-3.6-7.2c-0.5-1.8-0.9-3.6-1.1-5.4c-0.2-3.6,0.5-7,2.2-10.1
		c2.9-5.8,7.4-9.6,13.7-11.4c3.1-0.9,6.3-0.8,9.3,0.1c2.9,0.8,5.3,2.3,7.3,4.3c2.2,2.2,3.6,4.8,4.1,7.8c0.5,3.1,0.1,6.1-1.4,8.9
		c-1.1,2-2.5,3.7-4.5,4.9c-3.2,2-6.5,2.6-10.1,1.7c-2.3-0.5-4.2-1.6-5.6-3.3c-0.1-0.1-0.2-0.2-0.2-0.4c0.1-0.2,0.3-0.1,0.5-0.1
		c1.3,0.1,2.4-0.2,3.6-0.8c3-1.7,4.5-4.9,2.6-8.4c-1.8-3.3-6.8-3.9-9.7-1.3c-1.4,1.3-2,2.9-2.3,4.6c-0.7,3-0.1,6,1.4,8.6
		c2.8,4.8,7.1,7.5,12.8,8.1c4.7,0.5,9-0.8,12.9-3.5c4.2-2.9,7.2-6.7,8.7-11.5c1.4-4.5,1.3-8.9,0-13.3c-0.2-0.5-0.4-1.1-0.5-1.6l0,0
		c3.6,0.4,7-0.1,10.4-1.4c3.8-1.4,7-3.5,9.8-6.4c2.5-2.6,4.4-5.6,5.8-9c1.7-4.1,2.2-8.3,1.9-12.7c-0.2-1.7-0.5-3.5-0.9-5.1
		c-1.9-3.6-3.7-7.3-5.6-11c-0.7-0.9-1.4-1.7-2.3-2.6c-1.2-1.2-2.4-2.3-3.8-3.3L398.4,355.3L398.4,355.3z M736.3,438.2l-19.2-2.7
		l-6.5-19.2l-190.9-93.7l-18.3,6.3L379.3,120.7L260.9,331L287,437l0.6,2.4l17.2,70l0.4,1.6l1.2,4.8l1.4,5.8l17,69.4l1.4,6l2.5,10.3
		l1.8,7.3l55.1,224l3.9,1.5l20.1,1.1l11.4,1.4l363.7-160.5l3.5-1.5L853,652l9.2-23.7l2.6-19L736.3,438.2z M379.9,309.4
		c-31.5,0-57.1-25.5-57.1-57.1s25.5-57.1,57.1-57.1s57.1,25.5,57.1,57.1S411.4,309.4,379.9,309.4z"/>
	<path id="LayerC_Score" class="st1" d="M269.5,330.5l222.5-2 M507.6,331.4l200.9,99.4 M722.8,442.3l134.1,178.3 M499.9,335.6
		L388.5,826.8 M711.3,442.4L395.7,826.1 M854,631.6L395,834.1"/>
</g>
<g>
	<polygon id="vellum_6_" class="st2" points="525.3,806.4 629.6,357 809.5,439.8 	"/>
	<polygon id="vellum_5_" class="st2" points="540.8,819.1 843.8,471.1 963.8,628.6 	"/>
	<polygon id="vellum_4_" class="st2" points="510,793.4 404.6,344.2 602.5,338.8 	"/>
	<path class="st4" d="M856.7,442l-20.4-3l-6.6-20.4L641,323.8l-20.2,6.6L499.9,121.3L379.1,330.4L499.9,839l3.6,1.5l21.8,0.2
		l15.5,0.5l430-184.4l9.5-23.6l3.1-21.2L856.7,442z M503.4,721.7l-77.9-363.9l141.2-2.8L503.4,721.7z M649.7,375.5l127,61.6
		l-223,298L649.7,375.5z M591.8,771.7l249.1-276.6l85,112.7L591.8,771.7z M556.4,252.8c0,31.5-25.5,57.1-57.1,57.1
		s-57.1-25.5-57.1-57.1s25.5-57.1,57.1-57.1S556.4,221.3,556.4,252.8z"/>
	<path id="LayerB_Score" class="st1" d="M385.2,330.4h223.5 M624.3,333.4l200.9,101.2 M839.4,446.3l133.2,179.4 M616.7,337.6
		l-116.4,490 M828,446.3L507.7,827 M969.6,636.5L506.9,834.9"/>
</g>
<g>
	<polygon id="vellum_9_" class="st2" points="636.3,806.2 740.6,356.8 920.5,439.6 	"/>
	<polygon id="vellum_8_" class="st2" points="651.8,818.9 954.8,470.9 1074.8,628.4 	"/>
	<polygon id="vellum_7_" class="st2" points="620.9,793.2 515.6,344 713.5,338.6 	"/>
	<path class="st5" d="M1009.4,594.9c1.3,2.2,2.5,4.4,3.7,6.6c0.3,0.5,0.6,1.1,0.1,1.6s-1,0.1-1.5-0.1c-2.4-1.1-4.8-2.1-7.1-3.3
		c-1.4-0.7-2.4-0.5-3.4,0.7c-1.6,1.9-3.4,3.7-5.1,5.6c-0.4,0.4-0.8,0.9-1.4,0.7c-0.7-0.2-0.6-0.9-0.6-1.6c0.3-2.3,0.5-4.8,0.8-7.3
		c0.2-1.7-0.3-2.8-2-3.4c-2.1-0.8-4.1-1.8-6.1-2.7c-0.7-0.3-1.7-0.5-1.6-1.3c0.1-1.1,1.2-1,2-1.2c2.2-0.5,4.4-0.9,6.6-1.3
		c1.8-0.3,2.8-1.1,2.9-3.1c0.1-2.2,0.4-4.4,0.7-6.7c0.1-0.8-0.1-1.9,0.9-2.1c0.9-0.1,1.1,0.9,1.4,1.5c1.2,2,2.4,4,3.5,6.1
		c0.8,1.6,2,2,3.7,1.7c2.4-0.5,4.8-0.9,7.1-1.4c0.5-0.1,1.2-0.2,1.5,0.4c0.3,0.6-0.2,1.1-0.5,1.5c-1.7,1.7-3.3,3.5-5.1,5.2
		C1008.6,592.2,1008.5,593.4,1009.4,594.9z M911.5,669.1c-2.8-1.1-5.7-2.2-8.5-3.2c-0.3-0.1-0.6-0.2-0.8-0.3
		c1.4-0.4,1.8-2.1,2.3-3.4c2.8-7.1,5.7-14.2,8.2-21.5c1.5-4.4,4-6,8.6-5.6c7.4,0.7,14.7,1,22.1,1.4c1.6,0.1,3.5,0.3,4.5-1.3
		c0.4-0.6,0.4-1.2,0.3-1.7c4-1.4,8-2.8,11.9-4.4c2.5-1,4.2-0.5,5.7,1.7c2,2.9,4.3,5.7,6.5,8.5L911.5,669.1z M889.2,680.1
		c-0.5-0.7-0.9-1.4-1.3-2.1c-0.8-1.4-1.8-1.7-3.3-1.2c-2.4,0.8-4.8,1.4-7.2,2.1c-0.5,0.1-1.1,0.4-1.6-0.1s0-1,0.3-1.6
		c1.4-1.9,3-3.9,4.5-5.8c1.1-1.3,1.2-2.5,0.1-4c-1.4-1.7-2.6-3.6-3.8-5.5c-0.4-0.6-1.2-1.3-0.7-2c0.6-0.9,1.5-0.2,2.3,0
		c2.1,0.7,4.2,1.5,6.3,2.4c1.7,0.7,3,0.5,4.1-1.1c1.3-1.8,2.7-3.6,4.1-5.3c0.5-0.6,0.9-1.7,1.9-1.3c0.8,0.3,0.5,1.3,0.4,2
		c0,2.3,0,4.7-0.2,7c-0.1,1.8,0.6,2.8,2.3,3.3c2.3,0.8,4.5,1.7,6.8,2.6c0.5,0.2,1.1,0.5,1.1,1.1s-0.7,0.8-1.2,1
		c-2.3,0.6-4.7,1.2-7,1.8c-1.7,0.4-2.5,1.4-2.5,3.1c0,0.3,0,0.7,0,1L889.2,680.1z M854.8,697c-3.5-3.5-7-7-10.6-10.4
		c-3.2-3.1-3.8-6.2-1.5-10.1c3.1-5.3,5.9-10.8,8.8-16.2c0.6-1.2,1.4-2.8,0.3-4c-0.1-0.1-0.1-0.1-0.2-0.2c1.4-1.1,3-1.3,5.1-0.5
		c3.9,1.4,7.9,2.7,11.9,3.9c0.3,0.1,0.7,0.2,1.1,0.3c1.6,2.3,3.1,4.7,4.9,6.9c2,2.5,1.7,4.5-0.1,6.8c-2.7,3.4-5.3,6.8-7.8,10
		c-0.6,1.1-1.4,1.9-0.6,2.8c0.8,0.8,1.8,0.4,2.7,0.2c4.2-1.2,8.4-2.3,12.5-3.6c1.1-0.4,2.1-0.4,2.9-0.2L854.8,697z M790,728.8
		c-0.1-0.3-0.1-0.5-0.2-0.8c-0.6-2.9,0.2-4.9,3-6.3c3.6-1.8,7.1-3.8,10.6-5.7c1.1-0.6,2.8-0.9,2.6-2.4c-0.2-1.9-2.2-1.5-3.5-1.7
		c-3.8-0.6-7.6-1.2-11.4-1.5c-3.3-0.3-4.8-2-5.2-5.2c-0.5-3.7-1.2-7.4-1.9-11.1c0.8,0.1,1.7,0.1,2.5,0.2c5.6,0.8,11.2,1.9,16.9,2.2
		c4.7,0.3,6.7,2.6,7.3,7c0.7,4.7,1.5,9.4,2.3,14L790,728.8z M785,731.2c-1.5-1.5-3.1-3.1-4.6-4.7c-1.2-1.3-2.4-1.5-4-0.6
		c-2.2,1.2-4.4,2.4-6.7,3.5c-0.5,0.3-1.1,0.5-1.6,0.1c-0.5-0.5-0.1-1,0.2-1.5c1.1-2.3,2.2-4.7,3.5-7c0.8-1.4,0.6-2.4-0.6-3.4
		c-1.9-1.7-3.7-3.5-5.5-5.2c-0.4-0.4-0.9-0.8-0.7-1.4c0.2-0.7,0.9-0.5,1.6-0.5c2.3,0.3,4.8,0.6,7.3,1c1.7,0.3,2.8-0.2,3.5-1.9
		c0.8-2.1,1.8-4.1,2.8-6.1c0.3-0.6,0.5-1.7,1.3-1.6c1.1,0.1,1,1.2,1.1,2c0.4,2.2,0.9,4.4,1.1,6.6c0.2,1.9,1.1,2.8,3,3
		c2.2,0.2,4.4,0.5,6.6,0.9c0.8,0.1,1.9-0.1,2,1c0.1,0.9-0.9,1.1-1.5,1.4c-2,1.1-4,2.3-6.1,3.3c-1.6,0.8-2.1,1.9-1.7,3.6
		c0.4,2.2,0.8,4.3,1.1,6.5L785,731.2z M737,615.2c0.3,3.7,0.5,7.4,0.7,11.1c0,0.8,0.2,1.8-0.7,2.2c-0.9,0.5-1.5-0.3-2.3-1
		c-2.2-2.7-4.6-5.5-6.9-8.4c-1.6-2-3.2-2.6-5.7-1.4c-3,1.5-6.1,2.6-9.2,3.8c-1,0.4-2.2,1.3-3.1,0.4c-1.1-1.2,0.2-2.3,0.8-3.3
		c1.7-2.8,3.5-5.6,5.4-8.3c1.6-2.2,1.7-4.1-0.2-6.2c-2.2-2.4-4.3-5-6.3-7.6c-0.7-0.9-2.2-1.8-1.2-3.1c0.8-1.1,2-0.2,3.1,0
		c3.3,0.8,6.7,1.6,10,2.5c2.5,0.8,4.2,0,5.5-2.2c1.9-3,3.9-6,5.9-9c0.5-0.7,1.1-1.5,2-1.2c0.9,0.2,1,1.3,1,2.1
		c0.1,3.6,0.3,7.1,0.3,10.7c0,2.6,1.2,4.1,3.7,4.7c3.6,0.9,7.2,1.9,10.8,2.8c0.8,0.2,1.8,0.5,1.8,1.5s-1,1.2-1.7,1.5
		c-3.6,1.4-7.1,2.9-10.8,4.1C737.5,611.6,736.8,612.9,737,615.2z M712.5,659.7c1.1,2.2,2.1,4.4,3.1,6.6c0,0.1,0.1,0.2,0.1,0.3
		l-1.1,1.4c-0.2-0.1-0.4-0.2-0.6-0.3c-2.1-1.2-4.2-2.4-6.3-3.6c-1.5-0.9-2.8-0.8-4,0.5c-1.8,1.8-3.6,3.5-5.4,5.2
		c-0.4,0.4-0.9,0.8-1.5,0.5s-0.3-1-0.2-1.5c0.5-2.6,0.9-5.1,1.4-7.7c0.4-1.6-0.1-2.5-1.5-3.1c-2.3-1.1-4.5-2.3-6.7-3.5
		c-0.5-0.3-1.1-0.5-1.1-1.2s0.7-0.8,1.4-1c2.3-0.3,4.8-0.7,7.3-1c1.7-0.2,2.6-1,2.8-2.8c0.2-2.2,0.7-4.4,1.1-6.6
		c0.1-0.7,0-1.7,0.9-1.9c1.1-0.2,1.3,0.9,1.6,1.6c1,2,2,4,2.9,6.1c0.7,1.7,1.8,2.4,3.7,2.1c2.2-0.4,4.4-0.7,6.6-0.9
		c0.8-0.1,1.8-0.6,2.2,0.4c0.4,0.8-0.6,1.3-1.1,1.8c-1.6,1.6-3.3,3.3-5,4.9C711.9,657,711.8,658.2,712.5,659.7z M718.5,656.1
		c3-2.7,5.8-5.6,8.6-8.4c0.9-0.9,2.5-1.6,1.9-3c-0.7-1.7-2.5-0.8-3.9-0.7c-3.8,0.5-7.7,0.9-11.4,1.6c-3.3,0.6-5.1-0.6-6.4-3.6
		s-2.7-5.9-4.1-8.8c5.3-2.1,10.7-4,15.8-6.5c4.2-2.1,7.1-1,9.8,2.4c2.6,3.3,5.3,6.5,7.9,9.6l-18.9,25.2c-0.2-0.3-0.3-0.7-0.5-1
		C715.9,660.2,716.2,658.1,718.5,656.1z M724.5,549.1c-1.1-1.9-1.9-4-2.9-6.1c-0.3-0.7-1-1.4-0.4-2.1c0.8-0.8,1.6,0,2.2,0.4
		c2,1.1,3.9,2.2,5.8,3.4c1.6,1,2.9,1,4.2-0.4c1.6-1.6,3.3-3,4.9-4.5c0.6-0.5,1.1-1.5,2.1-0.9c0.8,0.5,0.2,1.4,0.1,2.1
		c-0.4,2.3-0.8,4.6-1.4,6.8c-0.4,1.7,0.1,2.8,1.7,3.7c2.1,1.2,4.2,2.4,6.3,3.7c0.4,0.2,0.8,0.5,0.9,1c-0.8,0.2-1.5,0.4-1.7,1.1
		c-2.3,0.2-4.6,0.4-6.9,0.5c-1.8,0.1-2.7,0.9-3,2.6c-0.5,2.5-1,4.9-1.6,7.4c-0.1,0.5-0.3,1.2-0.9,1.3c-0.7,0.1-0.8-0.6-1.1-1.1
		c-1.1-2.4-2.2-4.7-3.1-7.2c-0.6-1.5-1.5-2-3-1.7c-2.5,0.4-5,0.6-7.5,0.8c-0.5,0.1-1.2,0.2-1.5-0.4c-0.4-0.6,0.2-1,0.6-1.6
		c1.7-1.6,3.6-3.3,5.5-5C725,551.9,725.4,550.7,724.5,549.1z M747.8,506.1c-2.6-2.8-5-5.7-7.5-8.7c-0.8-1-2.5-2-1.5-3.6
		c0.9-1.3,2.4-0.3,3.5-0.1c3.9,0.8,7.8,1.6,11.6,2.7c3,0.8,4.8-0.1,6.3-2.7c2.1-3.6,4.4-7,6.6-10.5c0.5-0.8,1.2-1.7,2.2-1.5
		c1.1,0.3,1.2,1.4,1.2,2.4c0.2,4.1,0.5,8.2,0.6,12.4c0,3,1.4,4.7,4.4,5.3c4.2,0.9,8.3,2,12.5,3c0.9,0.2,2,0.6,2.1,1.7
		s-1.1,1.4-2,1.8c-4.1,1.7-8.2,3.5-12.4,5c-2.6,0.9-3.4,2.4-3.1,5c0.5,4.3,0.8,8.5,1.1,12.8c0.1,0.9,0.2,2-0.7,2.6
		c-1.1,0.6-1.7-0.3-2.6-1.1c-2.6-3-5.5-6.2-8.2-9.5c-1.9-2.3-3.8-2.9-6.6-1.5c-3.4,1.7-7,3.1-10.5,4.6c-1.1,0.5-2.5,1.6-3.5,0.5
		c-1.3-1.3,0.2-2.6,0.8-3.8c1.9-3.3,3.9-6.6,6-9.7C750,510.7,750,508.5,747.8,506.1z M834.2,440.1c-0.9-2.2-1.7-4.4-2.4-6.6
		c-0.3-0.8-1-1.7-0.1-2.4c0.8-0.5,1.4,0.3,2.1,0.7c2.1,1.3,4.1,2.6,6.1,4.1c1.5,1.1,2.8,1,4.2-0.1c2-1.6,4-3.1,6.1-4.6
		c0.5-0.3,1.1-0.7,1.6-0.4c0.6,0.4,0.4,1.1,0.2,1.6c-0.8,2.4-1.5,4.9-2.4,7.3c-0.6,1.8-0.2,3,1.4,4c2.2,1.4,4.4,3,6.5,4.5
		c0.5,0.3,1,0.8,0.8,1.4c-0.2,0.7-0.9,0.6-1.5,0.6c-2.7,0.1-5.5,0.2-8.2,0.2c-1.7,0-2.5,0.6-2.9,2.2c-0.7,2.6-1.4,5.1-2.2,7.6
		c-0.2,0.6-0.3,1.2-1,1.3c-0.8,0.1-0.9-0.6-1.3-1.2c-0.8-2.3-1.8-4.8-2.6-7.3c-0.6-1.7-1.6-2.5-3.5-2.3c-2.3,0.3-4.7,0.3-7,0.3
		c-0.8,0-1.8,0.4-2.1-0.5c-0.4-1,0.7-1.5,1.3-2c1.8-1.5,3.7-2.9,5.6-4.3C834.5,443.2,835,442,834.2,440.1z M830.9,456
		c3.3-0.4,5,1,6,4c1.4,4.2,3,8.3,4.4,12.1c-3.3,0.5-6.5,1-9.8,1.7c-2.9,0.6-4.9-0.2-6.3-3c-0.9-1.8-1.8-3.6-2.8-5.3l0.1-0.1
		c1.4-1.7,0.1-3.8-1-5.4c-0.7-1.1-1.5-2.2-2.2-3.3C823.2,456.5,827.1,456.4,830.9,456z M820.2,469.6c1.1,2,2.3,4,3.3,6.1
		c0.8,1.6,1.9,2.1,3.6,1.7c2.4-0.5,4.8-0.8,7.2-1.2c0.5-0.1,1.2-0.2,1.5,0.4s-0.2,1.1-0.6,1.5c-1.7,1.7-3.4,3.4-5.2,5.1
		c-1.3,1.2-1.5,2.4-0.6,4c1.2,2.2,2.4,4.4,3.5,6.7c0.3,0.5,0.5,1.1,0.1,1.6c-0.5,0.5-1,0.1-1.5-0.2c-2.3-1.1-4.7-2.2-7-3.5
		c-1.4-0.8-2.4-0.6-3.4,0.6c-1.7,1.9-3.5,3.7-5.2,5.5c-0.4,0.4-0.8,0.9-1.4,0.7c-0.7-0.2-0.5-0.9-0.5-1.6c0.3-2.3,0.6-4.8,1-7.3
		c0.3-1.7-0.2-2.8-1.9-3.5c-2.1-0.8-4.1-1.8-6.1-2.8c-0.6-0.3-1.7-0.5-1.6-1.3c0.1-1.1,1.2-1,2-1.1c2.2-0.4,4.4-0.9,6.6-1.1
		c1.9-0.2,2.8-1.1,3-3c0.2-2.2,0.5-4.4,0.9-6.6c0.1-0.8-0.1-1.9,1-2C819.7,467.9,819.9,469,820.2,469.6z M906.3,545.5
		c2.9,2.3,5.8,4.5,8.8,6.6c5.4,3.7,6.1,7.9,3.8,13.5c-3.3,8.2-6.4,16.6-9.3,24.3c-0.5,2-1.3,3.8-0.3,5.1c-3.5,1.8-6.7,1.4-10.2-1.8
		c-4.9-4.4-10-8.5-15.2-12.5c-1.8-1.4-3.6-4.3-6.2-2.4c-2.2,1.5-0.5,4.1,0,6.1c1.6,6.6,3.1,13.3,5.1,19.9c1.5,5.1,0,8.3-4.3,11
		c-6,3.7-11.9,7.8-17.8,11.7c-0.9,0.6-2,1.4-2.4,2.4c-0.8,0.3-1.6,0.6-2.3,0.9c-3.1,1.3-5.1,0.5-7-2.2c-2.2-3.2-4.6-6.2-7-9.2
		c-0.3-0.3-0.5-0.7-0.8-1.1L906.3,545.5z M948,516.5c1.8,0.2,1.7,2.3,2.1,3.7c1.3,4.6,2.7,9.1,3.8,13.8c0.8,3.6,2.9,5,6.4,5.2
		c5,0.2,9.9,0.6,14.8,1c1.1,0.1,2.5,0.3,2.8,1.5c0.3,1.3-0.9,2-1.8,2.6c-4.2,2.6-8.4,5.2-12.7,7.7c-3.2,1.8-4.1,4.2-3.1,7.6
		c1.4,4.9,2.7,9.9,3.9,14.9c0.3,1.1,0.5,2.5-0.6,3.2s-2.1-0.4-3-1.1c-4.1-3.4-8.4-6.6-12.4-10.2c-2.4-2.2-4.5-2.2-7.1-0.4
		c-4.2,2.9-8.6,5.7-12.9,8.5c-0.9,0.6-2,1.4-3.2,0.7c-1.3-0.8-0.7-2-0.3-3.4c1.7-4.5,3.5-9.3,5.4-14.1c1.3-3.3,0.9-5.7-2.2-7.8
		c-3.8-2.6-7.2-5.6-10.8-8.5c-1.1-0.9-3.1-1.8-2.6-3.4c0.7-2.1,2.9-1.3,4.5-1.3c4.6,0.2,9.2,0.4,13.7,0.8c3.8,0.4,6.1-0.8,7.4-4.6
		c1.4-4.3,3.2-8.6,4.9-12.8C945.7,518.6,945.8,516.3,948,516.5z M944.9,604.4c2.4,3,4.6,6.2,7.2,9c2.2,2.4,2,4.4,0.3,6.8
		c-2.4,3.5-4.7,7-7,10.3c-5.3-4.3-10.8-9-16.5-13.6c-4-3.1-5.2-6.4-2.8-11.3c2.9-5.9,5.1-12.1,7.5-18.2c0.7-1.7,2.2-3.8,1.3-5.5
		c1-0.7,1.9-1.3,2.9-2c4.5-3.1,8.1-3,12.2,0.7c6.1,5.4,12.5,10.5,18.9,15.6c-1.3,1.8-2.5,3.7-3.6,5.6c-1.7,2.8-3.9,3.4-6.9,2.3
		c-3.6-1.3-7.4-2.3-11.1-3.3c-1.3-0.4-3-1.4-3.9,0.2C942.7,602.4,944.2,603.4,944.9,604.4z M870.5,653.8c-0.8-0.3-1.8-0.9-2.6-0.8
		c-1.6-2.2-3.2-4.3-4.9-6.5c-1.9-2.3-2.1-4.4-0.2-6.9c1.6-2.1,3-4.3,4.4-6.5c5.5,0.2,10.9,0.4,16.4,0.3c5.2,0,8.1,2.3,9.3,7.3
		c0.6,2.4,1.2,4.7,1.8,7.1c-2.2,2.7-4.3,5.4-6.3,8.2c-1.9,2.7-4.1,3.1-7.1,1.9C877.8,656.3,874.2,655.1,870.5,653.8z M812,675.4
		c-0.7-3.2-1.2-6.5-1.7-9.8c-0.2-1.1-1-2.6,0.5-3.3c1.2-0.6,1.9,0.8,2.7,1.5c2.5,2.4,5,4.7,7.4,7.2c1.8,1.9,3.6,2.1,5.9,0.9
		c3.1-1.7,6.4-3.3,9.6-4.8c0.7-0.4,1.7-0.8,2.3-0.1c0.7,0.7,0.2,1.6-0.2,2.3c-1.7,3.2-3.3,6.3-5.1,9.4c-1.3,2.3-1,4.1,0.9,5.9
		c2.7,2.6,5.3,5.2,7.9,7.8c0.6,0.6,1.2,1.4,0.8,2.2c-0.5,0.9-1.4,0.6-2.3,0.4c-3.8-0.6-7.6-1.1-11.4-1.8c-2.3-0.5-3.6,0.3-4.6,2.3
		c-1.5,3.4-3.3,6.7-4.9,10c-0.4,0.7-0.7,1.6-1.7,1.6c-1.1,0-1.1-1-1.5-2c-0.6-3.4-1.3-7.1-1.8-10.7c-0.4-2.5-1.5-3.9-4.3-4
		c-3.3-0.2-6.5-0.8-9.8-1.3c-1-0.2-2.6,0-2.8-1.2c-0.4-1.5,1.3-1.9,2.3-2.4c2.9-1.6,5.8-3.1,8.8-4.5
		C811.6,679.8,812.6,678.2,812,675.4z M850.1,650.9c-1.4,2.1-2.8,4.2-4.3,6.2c-0.1,0.1-0.1,0.2-0.2,0.3c-0.3,0.2-0.7,0.3-1,0.5h-0.1
		c-0.6-0.2-0.5-0.9-0.6-1.4c-0.1-2.6-0.2-5.2-0.2-7.8c0-1.6-0.6-2.4-2.1-2.8c-2.4-0.6-4.8-1.4-7.3-2.1c-0.5-0.2-1.2-0.3-1.3-0.9
		c-0.1-0.7,0.5-0.9,1.2-1.2c2.2-0.8,4.6-1.7,6.9-2.5c1.6-0.6,2.4-1.5,2.2-3.3c-0.3-2.2-0.2-4.5-0.3-6.7c0-0.7-0.3-1.7,0.4-2
		c1-0.4,1.4,0.6,1.9,1.3c1.4,1.8,2.8,3.5,4.1,5.3c1.1,1.5,2.3,2,4,1.3c2.1-0.9,4.2-1.6,6.3-2.3c0,0,0.1,0,0.1-0.1
		c0.7,0.2,1.5,0.3,2.3,0.3c0.2,0.6-0.5,1.1-0.8,1.7c-1.3,1.9-2.5,3.9-3.9,5.8c-1.1,1.4-1,2.7,0.1,4c1.5,1.9,2.9,3.9,4.4,5.8
		c0.3,0.4,0.7,1,0.3,1.5s-1,0.3-1.5,0.2c-2.3-0.7-4.6-1.4-6.9-2.3C852.3,649,851.1,649.4,850.1,650.9z M899.9,642.1
		c-1.1-4.1-2.3-8.3-3.3-12.4c-0.7-2.9-2.4-4.3-5.4-4.2c-4.1,0-8.3-0.2-12.4-0.3c-0.9,0-2.1-0.1-2.4-1.2c-0.3-1,0.6-1.7,1.4-2.3
		c3.4-2.3,6.8-4.6,10.3-6.8c2.5-1.6,3.4-3.5,2.5-6.4c-1.1-3.8-2-7.7-3-11.5c-0.3-1.2-1.3-2.7,0-3.5c1.5-1.1,2.6,0.6,3.6,1.4
		c3,2.4,6,4.7,8.8,7.3c2.4,2.2,4.6,2.1,7.2,0.3c3.1-2.2,6.3-4.2,9.6-6.3c1.1-0.7,2.4-2.2,3.8-0.9c1.1,1,0,2.4-0.4,3.5
		c-1.4,3.6-2.7,7.2-4.3,10.6c-1.4,2.8-0.7,4.8,1.6,6.6c3.4,2.7,6.6,5.4,9.7,8c0.8,0.9,1.8,1.5,1.2,2.6c-0.6,1-1.7,0.8-2.6,0.8
		c-4.3-0.2-8.6-0.4-12.8-0.8c-2.6-0.2-4.1,0.7-5,3.2c-1.4,4.2-3.1,8.3-4.7,12.5c-0.3,0.9-0.6,2-1.7,2
		C900.5,644.1,900.1,643,899.9,642.1z M837.9,621.5c0.1,3.5,0.1,6.9,0.5,10.3c0.4,3.2-1,4.8-3.8,5.7c-4.1,1.4-8.1,2.9-12,4.3
		c-1.1,0.6-2.2,0.9-2,2.1c0.2,1.1,1.3,1.3,2.2,1.6c4.2,1.2,8.3,2.5,12.5,3.6c2.6,0.7,3.7,2,3.6,4.8c0,2.3,0,4.5,0.1,6.8
		c-2.7,1.3-5.3,2.7-7.9,4.1c-3.9,2.1-7,1.8-10.1-1.5c-3.5-3.7-7.3-7.3-11.1-10.8L837.9,621.5z M787.9,570.3c-0.2-0.5-0.5-1-0.7-1.4
		c-1.4-2.7-1.1-4.8,1.2-6.8c3-2.7,5.8-5.6,8.6-8.4c0.9-0.9,2.5-1.6,1.9-3c-0.7-1.7-2.5-0.8-3.9-0.7c-3.8,0.5-7.7,0.9-11.4,1.6
		c-0.2,0-0.3,0.1-0.5,0.1c0.3-0.9,0.2-2.1,0.1-3.1c-0.6-7.4-1-14.7-1.9-22.1c-0.5-4.5,1-7.1,5.4-8.7c7.2-2.6,14.2-5.7,21.3-8.6
		c0.2-0.1,0.5-0.2,0.7-0.3c0.1,0.5,0.3,0.9,0.9,1.1c1.1,0.3,1.8-0.5,2.4-1.2c3-3.1,6.1-6.2,9-9.4c1.8-2,3.5-2.3,5.9-1
		c3.5,1.9,7.1,3.6,10.7,5.3L787.9,570.3z M782.4,565.7c1.1,2.2,2.1,4.4,3.1,6.6c0.1,0.3,0.2,0.6,0.3,0.8l-0.7,0.9
		c-0.4,0-0.8-0.2-1.1-0.4c-2.1-1.2-4.2-2.4-6.3-3.6c-1.5-0.9-2.8-0.8-4,0.5c-1.8,1.8-3.6,3.5-5.4,5.2c-0.4,0.4-0.9,0.8-1.5,0.5
		s-0.3-1-0.2-1.5c0.5-2.6,0.9-5.1,1.4-7.7c0.4-1.6-0.1-2.5-1.5-3.1c-2.3-1.1-4.5-2.3-6.7-3.5c-0.3-0.1-0.6-0.3-0.8-0.5
		c0-0.4-0.1-0.7-0.2-0.9c0.2-0.5,0.7-0.5,1.3-0.7c2.3-0.3,4.8-0.7,7.3-1c1.7-0.2,2.6-1,2.8-2.8c0.2-2.2,0.7-4.4,1.1-6.6
		c0.1-0.7,0-1.7,0.9-1.9c1.1-0.2,1.3,0.9,1.6,1.6c1,2,2,4,2.9,6.1c0.7,1.7,1.8,2.4,3.7,2.1c2.2-0.4,4.4-0.7,6.6-0.9
		c0.8-0.1,1.8-0.6,2.2,0.4c0.4,0.8-0.6,1.3-1.1,1.8c-1.6,1.6-3.3,3.3-5,4.9C781.7,562.9,781.6,564.1,782.4,565.7z M759.7,565.7
		c2.4,1.2,3.2,2.7,2.6,5.4c-1,4.4-1.7,8.8-2.5,13.2c-0.2,0.9-0.6,2.1,0.4,2.6c0.9,0.5,1.9-0.2,2.6-0.9c3.2-3,6.3-5.9,9.4-9
		c2.1-2.1,4.3-2.4,6.9-0.8c1,0.6,2,1.2,3,1.8l-17.6,23.5c-5-1.4-10-2.7-15-3.9c-4.3-1-6.4-3.5-6.3-8c0-6.2-0.2-12.3-0.5-18.5
		c-0.1-1.4-0.1-3.1-1.7-3.6c-0.9-0.2-1.6,0.1-2.1,0.6c0.1-0.5,0.2-1,0.3-1.5c0.6-3,2.2-4.4,5.2-4.6c2.6-0.1,5.2-0.3,7.8-0.5
		C754.5,563.1,757.1,564.5,759.7,565.7z M746.6,551.5c-2.6-1.4-3.6-3.3-2.9-6.3c0.8-3.3,1.4-6.7,2.1-10.1c2-0.9,4.1-1.8,6.1-2.9
		c4.8-2.5,8.2-1.4,11.4,2.5c1.4,1.7,2.9,3.5,4.4,5.2c-0.6,3.2-1.2,6.4-1.5,9.6c-0.3,3.2-1.9,4.5-4.9,4.8c-2.7,0.3-5.4,0.7-8,1.1
		C751.1,554,748.9,552.7,746.6,551.5z M813.9,472.5c-0.3,3.3-2,4.8-5.2,5.2c-3.8,0.5-7.6,1.2-11.4,1.9c-1.3,0.3-3.3,0.1-3.4,1.9
		c-0.1,1.5,1.6,1.8,2.8,2.3c3.5,1.7,6.9,3.5,10.5,4.9c3,1.1,3.8,3.1,3.3,6c-0.5,3-0.9,6.1-1.2,9c-0.5-0.2-1-0.3-1.4-0.4
		c-7.2-1.8-14.3-3.6-21.5-5.2c-5-1.1-7.4-3.9-7.5-9.1c-0.1-7.1-0.6-14.2-1-21.3c-0.1-1.4-0.2-3.1-1.5-3.8c1-1.4,2-2.8,3-4.2
		c3.2-4.5,6.5-5.6,11.8-3.5c7.8,3.1,15.8,5.7,23.8,8.5C814.5,467.2,814.1,469.8,813.9,472.5z M749.4,614.9c2.4-0.8,4.7-1.7,7-2.6
		L745,627.6c-0.1-1.8-0.3-3.5-0.4-5.3C744.2,618.4,745.5,616.2,749.4,614.9z M803.8,659.4c0.6,3.8,1.2,7.6,2,11.3
		c1.1,4.8-0.7,7.6-5,9.5c-5.2,2.4-10.2,5.1-15.2,7.8c-1.2,0.7-3,1.2-3.7,2.3c-1.3,0-1.6,1.7-2.2,2.8c-1.7,3.5-3.5,6.9-4.9,10.5
		c-1.1,3-3.1,3.8-6,3.3c-2.4-0.4-4.7-0.7-7-1L803.8,659.4z M827.8,705.4c1.6-3.6,3.9-4.8,7.9-4c2.5,0.5,5,0.9,7.5,1.3l-18.4,9
		C825.8,709.6,826.8,707.5,827.8,705.4z M972.9,622c0.1,2.5,0.2,5,0.2,7.5c0,0.6,0,1.2-0.6,1.4s-1-0.4-1.3-0.8
		c-1.6-2.1-3.2-4.1-4.7-6.2c-0.9-1.3-1.9-1.6-3.3-1c-2.3,0.9-4.7,1.7-7.1,2.6c-0.5,0.2-1.1,0.4-1.6,0c-0.5-0.5-0.1-1,0.2-1.7
		c1.3-1.9,2.7-4.1,4.1-6.1c1-1.4,1.1-2.6-0.2-4c-1.5-1.6-2.8-3.5-4.2-5.2c-0.4-0.6-1.3-1.2-0.8-1.9c0.5-0.9,1.5-0.3,2.3-0.1
		c2.2,0.6,4.3,1.2,6.4,1.9c1.8,0.6,3,0.3,4-1.4c1.2-1.9,2.5-3.7,3.7-5.6c0.4-0.6,0.7-1.7,1.8-1.4c0.9,0.3,0.5,1.3,0.6,2
		c0.1,2.3,0.3,4.7,0.3,7c0,1.8,0.8,2.7,2.5,3.2c2.3,0.6,4.6,1.4,7,2.1c0.5,0.2,1.2,0.4,1.2,1s-0.6,0.9-1.2,1.1
		c-2.3,0.8-4.6,1.6-6.9,2.2C973.5,619.2,972.8,620.2,972.9,622z M980.7,610.8c-2.9-0.8-4.3-2.4-4.3-5.5c0-1.7,0-3.4-0.1-5.1
		c0.1,0,0.2-0.1,0.3-0.2c1.9-1.2,1.4-3.6,1-5.5c-0.2-0.7-0.4-1.4-0.5-2.1c3.3,1.5,6.6,3.2,10.1,4.4c3,1.1,3.8,3,3.5,5.9
		c-0.5,3.6-0.8,7.2-1.2,10.6C986.5,612.5,983.6,611.6,980.7,610.8z M1011.1,581.5c-2.9,0.6-4.9-0.1-6.3-2.9c-1.8-3.6-3.9-7-6-10.4
		c-0.6-1.1-0.9-2.8-2.5-2.6c-1.9,0.3-1.5,2.2-1.6,3.6c-0.5,3.8-1,7.6-1.3,11.5c-0.2,3.3-1.9,4.8-5,5.3c-3.8,0.6-7.6,1.4-11.3,2.2
		c-0.4,0.1-0.8,0.1-1.2,0.2c-1.7-6.5-3.3-12.9-5.2-19.3c-1.7-6-0.1-10.1,5.4-13.2c5.1-2.8,10-5.8,15-8.9l25.3,33.5
		C1014.6,580.7,1012.9,581.1,1011.1,581.5z M981.6,534.4c-3.6-0.2-7.3-0.5-10.9-0.6c-6.1-0.2-9.7-2.7-11.1-8.9
		c-1.8-8-4.2-15.9-6.5-23.8c-0.5-1.8-0.5-4.4-1.8-5.6l0.5-0.6L981.6,534.4z M943,504.8c-2.4,6-4.8,12.1-6.9,18.3
		c-2.1,6.5-6.2,8.6-12.7,7.9c-1.2-0.1-2.4-0.2-3.6-0.3L943,504.8z M860.2,423.5l27.5,13.4l-47.2,63c-1.7-3.2-3.3-6.4-5.1-9.5
		c-1.5-2.6-1.2-4.8,1.1-6.9c3.1-2.8,6-5.8,9-8.7c0.7-0.7,1.5-1.5,1-2.5c-0.2-0.4-0.6-0.6-0.9-0.7c1.2-4.2,2.5-8.3,3.6-12.5
		c0.7-2.7,2.1-3.9,5-3.8c4.7,0.1,9.4-0.2,14.2-0.3c1,0,2.3,0.1,2.6-1s-0.6-1.9-1.5-2.4c-3.7-2.6-7.5-5.2-11.3-7.7
		c-2.7-1.7-3.4-3.9-2.3-6.9c1.5-4.1,2.8-8.3,4.1-12.5C860,424.1,860.1,423.8,860.2,423.5z M857.1,422.1c-0.1,0.1-0.2,0.1-0.3,0.2
		c-3.5,2.6-7.1,5.2-10.5,7.9c-2.5,2-4.7,2.2-7.3,0.3c-3.4-2.5-7-4.7-10.5-7.1c-1.1-0.7-2.2-2.2-3.5-1.3c-1.6,1.2-0.3,2.8,0.1,4.1
		c1.3,3.8,2.6,7.7,4.2,11.4c1.3,3.2,0.5,5.4-2.3,7.3c-3.3,2.3-6.5,4.8-9.7,7.4c-0.2,0.1-0.4,0.3-0.6,0.4c-3.4-5-6.8-9.9-10.3-14.8
		c-3.6-5-3.6-9.4,0.5-14.2c5.2-6.1,10.2-12.4,15.2-18.7L857.1,422.1z M811.4,399.9c-5.7,1.6-11.4,3.2-17.1,5.1
		c-5.8,1.9-10,0.7-13.4-4.6c-4.4-6.9-9.4-13.5-14.2-20.1c-0.6-0.9-1.2-2-1.9-3L811.4,399.9z M758.5,383.4
		c-0.3,7.8-0.6,15.6-0.3,23.3c0.2,6.7-2.8,10.1-9,11.7L758.5,383.4z M747.3,425.1c4.2-1.3,8.4-2.7,12.7-3.7c3.7-0.9,5.5-2.9,5.4-6.8
		c-0.1-4.6,0-9.2,0.2-13.7c0.1-1.6-0.7-3.8,1.5-4.4c1.8-0.5,2.4,1.6,3.2,2.8c2.8,3.9,5.7,7.7,8.3,11.7c2,3.1,4.4,3.8,7.8,2.7
		c4.7-1.5,9.5-2.8,14.3-4.2c1.1-0.3,2.4-0.6,3.2,0.4c0.8,1.1-0.1,2.2-0.8,3.1c-3.1,3.9-6.1,7.8-9.4,11.6c-2.4,2.8-2.4,5.3-0.3,8.2
		c3,4.2,5.9,8.4,8.8,12.7c0.6,0.9,1.4,2.2,0.6,3.2s-2.1,0.4-3.2,0c-5-1.8-10.1-3.4-15.1-5.4c-3-1.2-5-0.6-6.8,2
		c-3,4.2-6.1,8.3-9.3,12.4c-0.7,0.9-1.4,2-2.7,1.8c-1.5-0.3-1.3-1.6-1.5-3.1c0.1-4.8,0.1-10,0.3-15.1c0.1-3.5-1.1-5.7-4.8-6.6
		c-4.4-1.1-8.7-2.8-13-4.3c-0.2-0.1-0.4-0.1-0.7-0.2L747.3,425.1z M743.4,439.9c1.6,0.5,3.3,1,4.9,1.4c6.4,1.6,8.4,5.3,8.2,11.4
		c-0.3,8.9-0.3,17.7-0.4,26c0.3,2.5,0,4.9,2.6,5.3c0.8,0.2,1.5,0,2.1-0.3c-0.1,0.2-0.2,0.4-0.3,0.5c-2.6,4.4-5.8,6-10.9,4.6
		c-6-1.7-12-2.9-18.1-4.2L743.4,439.9z M729,493.9c3.2,3.9,6.5,7.7,9.9,11.4c3.9,4.1,3.8,7.9,0.7,12.4c-3.7,5.4-7.1,11.1-10.4,16.7
		c-1.1,1.8-3.1,3.8-2,5.8c-0.2-0.1-0.4-0.2-0.6-0.4c-2.8-1.8-5.7-3.4-8.6-5L729,493.9z M716,542.6c0.7,1.6,1.5,3.2,2.3,4.7
		c1.6,2.8,0.9,4.8-1.3,6.7c-1.8,1.6-3.6,3.3-5.4,4.9L716,542.6z M709.8,565.8c4.1-0.4,8.3-0.8,12.4-1.4c2.6-0.4,4.2,0.5,5.2,3
		c1.4,3.6,3,7,4.6,10.5c-1.6,2.4-3.2,4.9-4.7,7.3c-2.3,3.8-5.1,5.1-9.5,3.8s-8.8-2.4-13.2-3.4L709.8,565.8z M701.8,595.6
		c2.1,2.6,4.2,5.1,6.4,7.5c3.3,3.6,3.2,6.9,0.4,10.8c-3.3,4.6-6.3,9.5-9.3,14.3c-1,1.7-3.1,3.6-1.5,5.5c-0.6,3.2-1.2,6.5-1.5,9.7
		s-1.9,4.5-4.9,4.8c-1.3,0.2-2.5,0.3-3.8,0.5L701.8,595.6z M617.3,472.9c2.3,3.6,4.4,7.3,6.6,11.1c0.5,0.8,1,1.9,0.3,2.7
		c-0.8,0.8-1.8,0.2-2.6-0.2c-4.1-1.8-8.2-3.4-12.2-5.3c-2.4-1.2-4.1-0.8-5.8,1.3c-2.7,3.3-5.6,6.5-8.4,9.7c-0.6,0.7-1.3,1.6-2.4,1.3
		c-1.2-0.3-1-1.4-1.1-2.7c0.3-4,0.7-8.3,1.1-12.5c0.3-2.9-0.6-4.8-3.6-5.8c-3.6-1.2-7.1-2.8-10.6-4.3c-1.1-0.5-2.9-0.7-2.8-2.2
		c0.1-1.8,2-1.7,3.3-2c3.7-0.9,7.4-1.8,11.2-2.5c3.1-0.5,4.7-2,4.9-5.3c0.1-3.8,0.6-7.6,1-11.4c0.1-1.3-0.3-3.2,1.5-3.6
		c1.5-0.3,1.9,1.5,2.5,2.5c2.1,3.4,4.3,6.7,6.2,10.2c1.5,2.7,3.4,3.4,6.3,2.7c4-1,8.1-1.8,12.1-2.6c0.9-0.2,2.1-0.4,2.6,0.6
		c0.6,1-0.2,1.8-0.8,2.5c-2.8,3-5.5,6.1-8.5,9C615.9,468.2,615.7,470.3,617.3,472.9z M597.7,531.2c0.6,2.4,1.1,4.9,1.6,7.4
		c0.1,0.5,0.2,1.2-0.3,1.5c-0.6,0.3-1-0.2-1.4-0.6c-1.9-1.7-3.9-3.4-5.8-5.2c-1.1-1.1-2.1-1.2-3.5-0.4c-2.1,1.3-4.3,2.6-6.5,3.8
		c-0.5,0.3-1,0.6-1.6,0.3c-0.6-0.4-0.3-1-0.1-1.7c0.9-2.2,1.9-4.5,2.9-6.8c0.7-1.6,0.6-2.8-0.9-3.9c-1.8-1.3-3.4-2.9-5.1-4.4
		c-0.5-0.5-1.5-0.9-1.2-1.7c0.4-1,1.4-0.6,2.2-0.5c2.2,0.2,4.5,0.4,6.7,0.7c1.8,0.3,3-0.3,3.7-2.1c0.8-2.1,1.7-4.1,2.7-6.2
		c0.3-0.7,0.4-1.9,1.5-1.7c0.9,0.1,0.8,1.2,0.9,1.9c0.5,2.3,1.1,4.5,1.5,6.8c0.3,1.8,1.3,2.5,3,2.7c2.4,0.2,4.8,0.5,7.2,0.8
		c0.6,0.1,1.2,0.2,1.4,0.8c0.1,0.6-0.5,1-0.9,1.2c-2.1,1.2-4.2,2.4-6.4,3.5C597.8,528.3,597.3,529.5,597.7,531.2z M603.3,518.8
		c-3-0.2-4.7-1.5-5.2-4.6c-0.6-3.5-1.5-6.9-2.3-10.3c2.8-3.2,5.5-6.3,8.2-9.6c2.9-3.5,5.8-4.3,10-2.2c3.1,1.5,6.3,2.9,9.4,4.3
		c1.5,3.1,3,6.1,4.7,9c1.7,2.7,1.1,4.7-1,6.8c-3.1,3-6.2,6.1-9,8.9l-0.1,0.1c-0.4-0.8-1.4-1-2.2-1.1
		C611.6,519.7,607.5,519.2,603.3,518.8z M619.7,449.9c-5,1.2-8.4,0-10.9-4.6c-3.3-6-7-11.7-10.6-17.5c-1.1-1.7-1.7-4.5-4-4.3
		c0.1-0.8,0.2-1.6,0.3-2.5c0.5-5.4,2.9-8.1,8.5-8.9c9-1.3,17.9-3.2,26.8-4.8c0.8,2.4,1.7,4.8,2.7,7.1c1.3,3.1,0.5,5.1-2.2,7
		c-3.2,2.2-6.2,4.6-9.2,7c-1.1,0.8-2.9,1.6-2.2,3.3c0.6,1.4,2.3,0.8,3.5,0.8c3.8-0.1,7.7-0.1,11.5-0.6c3.2-0.4,4.8,1,5.7,3.8
		c1.1,3.2,2.3,6.5,3.4,9.5c-0.8-0.1-1.7,0.1-2.5,0.2C633.6,446.8,626.6,448.2,619.7,449.9z M628,358.6c0.8,3.9,1.6,7.8,2.7,11.6
		c0.9,3.3-0.2,5.3-3.1,6.8c-3.5,1.8-6.9,3.9-10.3,6c-1.2,0.7-3.2,1.3-2.6,3.1c0.4,1.5,2.2,1.1,3.5,1.2c4,0.4,7.9,0.8,11.9,0.9
		c3.3,0,4.8,1.6,5.4,4.6c0.9,4.2,1.9,8.4,2.8,12.3c-1.3-0.9-2.6-1.7-3.9-2.6c-0.6-1.1-2-1.9-3.2-2.5c-8-3.9-15.9-7.8-24-11.4
		c-5.6-2.5-7.8-6.4-6.6-12.6c1.3-6.6,2.3-13.3,3.3-20l23.5-0.5C627.3,356.6,627.9,357.7,628,358.6z M635.2,373.2
		c-0.6-2.2-1.1-4.5-1.6-6.7c-0.2-0.8-0.8-1.8,0.2-2.3c0.8-0.4,1.4,0.5,1.9,1c1.8,1.5,3.7,3.1,5.4,4.7c1.3,1.3,2.6,1.3,4.1,0.4
		c2.1-1.3,4.3-2.5,6.5-3.8c0.5-0.3,1.1-0.6,1.6-0.2s0.2,1.1,0,1.6c-1,2.3-2,4.6-3.2,6.8c-0.8,1.6-0.5,2.9,0.8,4.1
		c2,1.7,3.9,3.4,5.8,5.1c0.4,0.4,0.9,0.9,0.7,1.5c-0.3,0.6-1,0.4-1.6,0.4c-2.7-0.2-5.4-0.4-8-0.8c-1.6-0.2-2.5,0.3-3.1,1.8
		c-0.9,2.4-2,4.8-3,7.2c-0.2,0.5-0.4,1.2-1.1,1.2c-0.8,0-0.8-0.6-1.1-1.3c-0.5-2.4-1.2-4.9-1.7-7.4c-0.4-1.7-1.2-2.6-3.1-2.6
		c-2.3,0-4.6-0.3-6.9-0.5c-0.7-0.1-1.8,0.1-2-0.7c-0.3-1.1,0.8-1.4,1.5-1.8c2-1.2,3.9-2.4,6-3.5
		C635.1,376.3,635.8,375.1,635.2,373.2z M641.3,429c-0.6-1.6-1.5-2.4-3.3-2.2c-2.2,0.3-4.5,0.2-6.7,0.3c-0.7,0-1.7,0.3-2-0.4
		c-0.4-1,0.6-1.4,1.3-1.9c1.7-1.4,3.5-2.8,5.3-4.1c1.5-1.1,2-2.3,1.3-4c-0.9-2.1-1.6-4.2-2.3-6.3c-0.3-0.7-1-1.6-0.1-2.3
		c0.7-0.5,1.4,0.3,2,0.7c1.9,1.3,3.9,2.5,5.8,3.9c1.4,1.1,2.7,0.9,4-0.1c1.9-1.5,3.8-2.9,5.8-4.4c0.4-0.3,1-0.7,1.5-0.3
		c0.5,0.4,0.3,1,0.2,1.5c-0.7,2.3-1.4,4.6-2.3,6.9c-0.6,1.7-0.2,2.9,1.3,3.8c2.1,1.4,4.2,2.8,6.2,4.3c0.5,0.3,1,0.7,0.8,1.3
		c-0.2,0.6-0.9,0.5-1.4,0.6c-2.6,0.1-5.2,0.2-7.8,0.2c-1.6,0-2.4,0.6-2.8,2.1c-0.6,2.4-1.4,4.8-2.1,7.3c-0.2,0.5-0.3,1.2-0.9,1.3
		c-0.7,0.1-0.9-0.5-1.2-1.2C643,433.7,642.1,431.4,641.3,429z M659.8,420.2c-2.5-1.7-3.3-3.7-2.2-6.6c1.4-3.9,2.6-7.9,3.9-11.9
		c0.3-0.9,0.6-2-0.3-2.7c-0.9-0.6-1.9,0-2.6,0.6c-3.4,2.5-6.7,4.9-10,7.6c-2.3,1.9-4.4,2.1-6.9,0.2c-0.1-0.1-0.1-0.1-0.2-0.2
		c0.4-0.4,0.6-1,0.8-1.5c1.8-4.1,3.6-8.2,5.2-12.3c1-2.6,2.5-3.5,5.3-3.1c4.6,0.6,9.2,0.9,13.8,1.4c1,0.1,2.2,0.4,2.7-0.7
		c0.5-1-0.4-1.9-1.1-2.5c-3.3-3-6.6-6-10.1-8.8c-2.4-2-2.9-4.2-1.5-7c1.9-3.8,3.7-7.8,5.5-11.7c0.4-0.9,0.9-2,0-2.8
		c-0.8-0.7-1.9-0.2-2.8,0.3c-3.7,2.1-7.5,4.2-11.2,6.5c-2.6,1.6-4.8,1.6-7.1-0.6c-3-2.8-6.2-5.4-9.4-8.1c-0.2-0.2-0.5-0.4-0.7-0.7
		l46.6-0.9l-12,69.4C663.7,422.8,661.8,421.5,659.8,420.2z M589.5,356.4c-3.1,3.2-6.1,6.3-9.1,9.6c-4.1,4.5-8.3,5.6-14,2.7
		c-7.3-3.8-14.8-7-22.3-10.4c-0.5-0.2-1.1-0.6-1.7-0.9L589.5,356.4z M537.7,363.6c0.3,0.4,0.5,0.8,0.7,1.1c3.7,7,7.3,14,11.4,20.7
		c3.6,5.8,2.6,10.2-2.2,14.8c-0.6,0.5-1.1,1.1-1.7,1.7L537.7,363.6z M548.1,412.1l-0.7-3.1c0.5-0.7,1.3-1.3,1.8-1.9
		c3.1-3.4,6.2-6.8,9.5-9.9c2.8-2.6,3.4-5.2,1.3-8.6c-2.4-3.9-4.5-8-6.6-12c-0.7-1.4-2.5-3-0.9-4.6c1.3-1.3,2.9,0.2,4.2,0.8
		c4.3,2,8.7,3.8,13,6c3.3,1.7,5.7,1.1,8.1-1.6c3.3-3.7,6.9-7.2,10.3-10.7c0.8-0.8,1.8-1.8,3-1.2c1.2,0.6,1,2,0.8,3.1
		c-0.7,4.9-1.4,9.8-2.4,14.7c-0.7,3.6,0.5,5.8,3.8,7.3c4.7,2.1,9.3,4.4,13.9,6.6c1,0.5,2.3,1.2,2.1,2.5s-1.6,1.4-2.8,1.6
		c-5.3,1-10.5,2.1-15.8,2.8c-3.2,0.4-4.6,2-4.9,5.1c-0.5,5.1-1.2,10.2-1.9,15.3c-0.1,1.1-0.2,2.4-1.5,2.9c-1.4,0.5-1.9-0.8-2.8-1.9
		c-2.3-4.2-4.9-8.7-7.3-13.2c-1.6-3.1-3.7-4.4-7.4-3.4c-4.4,1.2-8.9,1.9-13.4,2.8C550.5,411.9,549.1,412.5,548.1,412.1z
		 M550.3,422.3c2.7-0.6,5.5-1.2,8.2-1.9c6.3-1.8,9.9,0.4,12.8,5.8c4.1,7.8,8.5,15.5,12.5,22.8c1.5,2,2.4,4.2,4.9,3.4
		c0.2-0.1,0.4-0.2,0.6-0.3c-0.9,3.7-3.6,5.6-8,6.3c-6.5,1.1-12.9,2.7-19.2,4.2c-0.9,0.2-2,0.3-2.9,0.6L550.3,422.3z M560.4,469.5
		c0.3,0.1,0.5,0.2,0.7,0.3c6,2.6,12,5.4,18.2,7.4c5.2,1.7,6.7,4.9,6.2,9.9c-0.8,7.3-1.3,14.7-1.9,21.6c0.1,2.1-0.3,4,1.8,4.6
		c0.4,0.1,0.7,0.1,1,0.1c-1.2,2.7-3.2,3.5-6.1,3c-3.3-0.5-6.7-0.8-10.1-1.1L560.4,469.5z M572,523.5c1.2,1.1,2.5,2.1,3.8,3.1
		c2.6,1.9,2.8,4,1.6,6.7c-0.8,1.7-1.5,3.4-2.2,5.1L572,523.5z M576.8,546.3c3.2-1.8,6.4-3.7,9.5-5.6c2.3-1.4,4-1.3,6,0.6
		c2.6,2.5,5.3,4.9,8,7.3c0.2,4,0.5,8,0.9,11.9c0.6,4.9-1.4,7.5-5.9,9c-4.2,1.4-8.3,3.1-12.5,4.8L576.8,546.3z M584.8,583.3
		c3.8,1,7.6,2,11.5,2.6c4.7,0.8,6.4,3.3,6.6,7.7c0.3,6.2,0.8,12.3,1.2,18.1c-0.2,2.7-0.4,5.5-0.4,8.2c0,3.2-1.4,4.6-4.3,5.3
		c-1.8,0.4-3.5,0.8-5.3,1.3L584.8,583.3z M621.5,634.3c1.3,2,2.5,4.1,3.8,6.2c0.3,0.5,0.6,1.1,0.2,1.6c-0.4,0.5-1.1,0.2-1.6,0
		c-2.2-1-4.5-1.9-6.6-3c-1.6-0.8-2.8-0.5-3.9,0.9c-1.6,1.9-3.2,3.8-4.9,5.7c-0.4,0.4-0.8,0.9-1.4,0.7c-0.6-0.3-0.4-0.9-0.4-1.5
		c0.2-2.6,0.3-5.2,0.6-7.8c0.2-1.6-0.4-2.4-1.8-3c-2.4-0.9-4.7-1.9-7-2.8c-0.5-0.2-1.1-0.4-1.2-1.1c-0.1-0.7,0.6-0.8,1.3-1.1
		c2.3-0.6,4.7-1.2,7.2-1.8c1.7-0.4,2.5-1.2,2.5-3.1c0-2.2,0.2-4.5,0.4-6.7c0.1-0.7-0.2-1.7,0.7-2c1-0.3,1.3,0.8,1.8,1.4
		c1.2,1.9,2.4,3.8,3.5,5.7c0.9,1.6,2,2.2,3.9,1.7c2.1-0.6,4.3-1.1,6.5-1.6c0.8-0.2,1.7-0.8,2.3,0.2c0.4,0.8-0.5,1.3-0.9,1.9
		c-1.5,1.8-2.9,3.6-4.5,5.4C620.5,631.6,620.5,632.9,621.5,634.3z M614.4,721.4L596,635.6c1,0.4,1.9,0.7,2.9,1.1
		c2.5,0.9,3.5,2.4,3.1,5.1c-0.5,4.5-0.8,9-1.1,13.4c-0.1,0.9-0.3,2.1,0.7,2.6c1,0.4,1.8-0.4,2.5-1.1c2.8-3.3,5.7-6.5,8.4-9.9
		c1.9-2.3,4-2.9,6.8-1.5c2.5,1.2,5.1,2.4,7.7,3.5L614.4,721.4z M628.4,640c-0.6-1-1.2-2-1.9-3c-1.6-2.5-1.6-4.6,0.5-6.9
		c1.3-1.5,2.6-3,3.9-4.5L628.4,640z M632.3,617.3c-3.7,0.9-7.5,1.7-11.1,2.8c-3.2,1-5.1-0.1-6.7-2.9c-1.1-2.1-2.3-4.1-3.6-6.1
		c3-4.6,5.9-9.2,8.7-14c2-3.4,4.4-4.4,8.2-3.2c2.7,0.8,5.4,1.6,8.1,2.3L632.3,617.3z M635.8,587.9c-0.5,0.8-1.5,0.4-2.3,0.2
		c-3.7-1-7.5-1.8-11.2-2.9c-2.2-0.7-3.6-0.1-4.8,1.9c-1.9,3.2-3.9,6.3-5.9,9.4c-0.4,0.7-0.9,1.5-1.8,1.4c-1.1-0.1-1-1.1-1.3-2.1
		c-0.2-3.5-0.5-7.2-0.7-10.9c-0.1-2.5-1.1-4-3.8-4.5c-3.2-0.5-6.4-1.5-9.6-2.3c-1-0.3-2.6-0.2-2.7-1.5c-0.2-1.6,1.5-1.8,2.6-2.2
		c3-1.3,6.1-2.5,9.2-3.6c2.6-0.9,3.8-2.4,3.4-5.2c-0.4-3.3-0.5-6.6-0.7-9.9c-0.1-1.1-0.7-2.7,0.8-3.2c1.3-0.4,1.8,1,2.5,1.8
		c2.2,2.6,4.5,5.2,6.6,7.9c1.6,2.1,3.4,2.4,5.8,1.4c3.3-1.4,6.7-2.6,10-3.8c0.8-0.3,1.7-0.6,2.3,0.1c0.6,0.7,0.1,1.6-0.4,2.3
		c-2,3-3.9,6-6,8.9c-1.5,2.1-1.4,4,0.3,5.9c2.4,2.8,4.8,5.7,7.1,8.6C635.7,586.3,636.3,587.1,635.8,587.9z M638.6,581
		c-0.3-0.3-0.5-0.6-0.8-1c-2.9-3.4-3.1-6.6-0.5-10.2c1.5-2,2.9-4,4.3-6.1L638.6,581z M643.8,550.6c-5.6,2.1-11.2,4.1-16.7,6.4
		c-4.1,1.7-7.1,1.1-9.9-2.5c-3.6-4.7-7.6-9.1-11.4-13.6c-0.8-1-1.6-2.5-2.7-3.1c-0.1-0.6-0.3-1.3-0.4-1.9c-0.7-2.9,0.2-4.9,2.9-6.3
		c3.7-1.9,7.4-3.9,11-6c0.2-0.1,0.3-0.2,0.5-0.3c0,0.1,0.1,0.3,0.2,0.4c0.6,0.9,1.7,0.7,2.7,0.5c4.3-0.6,8.6-1.2,12.8-2
		c2.6-0.5,4.2,0.3,5.3,2.8c1.8,4.1,3.9,8.1,5.9,12.1c0.4,0.8,0.8,2,1.9,1.9L643.8,550.6z M649.9,515.1c-0.1,0-0.2,0-0.2,0
		c-1.8,0.2-2.7,1-2.9,2.8c-0.4,2.5-0.8,5-1.3,7.4c-0.1,0.5-0.3,1.2-0.9,1.3c-0.6,0.1-0.9-0.6-1.1-1.1c-1.2-2.3-2.4-4.6-3.4-7
		c-0.6-1.5-1.6-1.9-3.1-1.6c-2.5,0.5-5,0.8-7.5,1.1c-0.5,0.1-1.2,0.2-1.6-0.3c-0.4-0.6,0.1-1,0.5-1.6c1.7-1.7,3.4-3.4,5.2-5.2
		c1.2-1.2,1.6-2.3,0.6-3.9c-1.2-1.9-2.1-3.9-3.1-5.9c-0.3-0.5-0.7-1.1-0.6-1.6c1.5,0.6,2.9,1.2,4.4,1.9c1.1,0.5,2.4,1.2,3.5,0.9
		c0.1,0.1,0.3,0.2,0.4,0.3c1.6,0.9,2.9,0.9,4.2-0.5c1.5-1.6,3.1-3.2,4.8-4.7c0.6-0.5,1.1-1.6,2-1c0.8,0.5,0.3,1.4,0.2,2.1
		c-0.3,2.3-0.6,4.6-1.1,6.9c-0.4,1.8,0.3,2.8,1.8,3.6c0,0,0.1,0,0.1,0.1L649.9,515.1z M654.8,486.7c-1.5-0.6-2.3,1-3.2,1.9
		c-2.8,2.7-5.6,5.3-8.2,8.1c-1.1,1.2-2.3,1.9-3.4,2c-0.2-0.6-0.5-1.2-0.8-1.7c-3.7-6.4-7.4-12.8-11.3-19c-2.7-4.4-2.4-8,1.3-11.8
		c5-5,9.8-10.3,14.6-15.6c0.4-0.5,0.9-1,1.2-1.5c0.3,0.3,0.6,0.5,1.2,0.4c1.1-0.2,1.3-1.3,1.6-2.2c1.2-4.2,2.5-8.3,3.6-12.5
		c0.7-2.6,2-3.7,4.8-3.6c2.8,0,5.6,0,8.4-0.1L654.8,486.7z M685.3,657.5c1.5,0.8,3,1.6,4.5,2.3c2.4,1.2,3.2,2.7,2.6,5.4
		c-1,4.4-1.7,8.8-2.5,13.2c-0.2,0.9-0.6,2.1,0.4,2.6c0.9,0.5,1.9-0.2,2.6-0.9c3.2-3,6.3-5.9,9.4-9c2.1-2.1,4.3-2.4,6.9-0.8
		c0.9,0.5,1.7,1,2.6,1.6l-47.1,63L685.3,657.5z M757.3,711c2.3,2.2,4.6,4.4,6.9,6.5c2,1.8,2.3,3.5,1,5.9c-2.1,3.9-4,8-6,12.1
		c-0.4,0.9-1.1,1.9-0.3,2.7s1.9,0.3,2.7-0.2c3.8-2,7.7-4,11.5-6.1c2.6-1.5,4.8-1.2,6.9,1.1c0.1,0.2,0.3,0.3,0.4,0.5l-77.6,38.1
		L757.3,711z M977.1,637c-0.1-3.1-0.2-6.3-0.3-9.4c-0.2-3,1.1-4.8,4-5.7c4-1.2,8-2.5,11.9-3.8c0.9-0.3,2-0.7,2-1.8
		c0-0.5-0.2-0.8-0.6-1.1c2.4-2.6,4.8-5.2,7.1-7.9c1.7-2,3.4-2.4,5.9-1.1c4,2.1,8.1,3.8,12.2,5.7c0.9,0.4,1.9,1.1,2.7,0.2
		c0.8-0.8,0.2-1.9-0.2-2.7c-2.1-3.8-4.2-7.6-6.4-11.3c-1.5-2.6-1.3-4.7,0.9-6.9c1.6-1.5,3.1-3.1,4.6-4.6l15.9,21.1L977.1,637z
		 M968.4,441.9l-21-3.1l-6.7-20.4l-190.3-94.3l-18.8,6.1L610.9,121.1L490.1,330.2l120.8,508.6l3.6,1.5l20.9,0.6l15.3,0.4l431-184.9
		l9.5-23.6l3.1-21L968.4,441.9z M610.3,309.7c-31.5,0-57.1-25.5-57.1-57.1c0-31.5,25.5-57.1,57.1-57.1s57.1,25.5,57.1,57.1
		C667.4,284.1,641.8,309.7,610.3,309.7z"/>
	<path id="LayerA_Score" class="st1" d="M496.3,330.2h223.4 M735.3,333.2l200.9,101.2 M950.4,446.1l133.3,179.4 M727.7,337.4
		L611.3,827.3 M939,446.1L618.7,826.7 M1080.6,636.4L617.8,834.7"/>
</g>
</svg>
