<?xml version="1.0" encoding="UTF-8" standalone="no"?>
<svg
   xmlns:dc="http://purl.org/dc/elements/1.1/"
   xmlns:cc="http://creativecommons.org/ns#"
   xmlns:rdf="http://www.w3.org/1999/02/22-rdf-syntax-ns#"
   xmlns:svg="http://www.w3.org/2000/svg"
   xmlns="http://www.w3.org/2000/svg"
   xmlns:sodipodi="http://sodipodi.sourceforge.net/DTD/sodipodi-0.dtd"
   xmlns:inkscape="http://www.inkscape.org/namespaces/inkscape"
   sodipodi:docname="abzan ikoria.svg"
   inkscape:version="1.0 (4035a4fb49, 2020-05-01)"
   id="svg8"
   version="1.1"
   viewBox="0 0 210 297"
   height="297mm"
   width="210mm">
  <defs
     id="defs2" />
  <sodipodi:namedview
     inkscape:window-maximized="1"
     inkscape:window-y="-11"
     inkscape:window-x="-11"
     inkscape:window-height="1346"
     inkscape:window-width="2160"
     showgrid="false"
     inkscape:document-rotation="0"
     inkscape:current-layer="layer1"
     inkscape:document-units="mm"
     inkscape:cy="303.5541"
     inkscape:cx="175.35322"
     inkscape:zoom="1.4475553"
     inkscape:pageshadow="2"
     inkscape:pageopacity="0.0"
     borderopacity="1.0"
     bordercolor="#666666"
     pagecolor="#ffffff"
     id="base" />
  <metadata
     id="metadata5">
    <rdf:RDF>
      <cc:Work
         rdf:about="">
        <dc:format>image/svg+xml</dc:format>
        <dc:type
           rdf:resource="http://purl.org/dc/dcmitype/StillImage" />
        <dc:title></dc:title>
      </cc:Work>
    </rdf:RDF>
  </metadata>
  <g
     id="layer1"
     inkscape:groupmode="layer"
     inkscape:label="Layer 1">
    <path
       id="path861"
       d="m 69.561475,109.01731 c -0.57508,-0.29318 -1.19175,-0.47698 -1.37039,-0.40842 -0.17864,0.0686 -0.39638,0.009 -0.48385,-0.13271 -0.0875,-0.14154 -0.25639,-0.19718 -0.37537,-0.12365 -0.11898,0.0735 -0.35325,-0.0313 -0.52061,-0.23295 -0.16736,-0.20166 -0.53804,-0.30552 -0.82373,-0.23081 -0.307441,0.0804 -0.519441,0.004 -0.519441,-0.18829 0,-0.22402 -0.22472,-0.26448 -0.7276,-0.131 -1.63054,0.43279 -5.09323,0.67159 -5.09323,0.35126 0,-0.13952 -0.11907,-0.18009 -0.26459,-0.0902 -0.62544,0.38654 -0.19087,-0.47029 0.59531,-1.17378 l 0.8599,-0.76944 -0.92604,0.0456 c -0.81303,0.04 -0.92676,-0.0322 -0.93195,-0.5913 -0.006,-0.65553 -0.74665,-1.1244 -1.39301,-0.88193 -0.44895,0.16842 -1.43386,-0.73526 -1.26916,-1.16448 0.15371,-0.40057 -1.79515,-2.01678 -2.09983,-1.74141 -0.11645,0.10525 -0.12608,0.0425 -0.0214,-0.13937 0.12227,-0.21246 0.0192,-0.33218 -0.28831,-0.33478 -0.31647,-0.003 -0.37239,-0.0716 -0.16506,-0.20345 0.20847,-0.13257 0.0324,-0.36075 -0.52517,-0.68078 l -0.83875,-0.481371 0.50004,0.552531 c 0.77503,0.8564 0.14825,0.65132 -0.79065,-0.2587 -0.47196,-0.457441 -1.22748,-0.869841 -1.73239,-0.945621 -1.12656,-0.16908 -2.76448,-1.27361 -3.34436,-2.25527 -0.24379,-0.41271 -0.56642,-0.75196 -0.71694,-0.75389 -0.15053,-0.002 -0.92853,-0.59566 -1.72889,-1.3194 -1.497436,-1.35408 -2.026409,-1.62966 -1.751134,-0.9123 0.08666,0.22584 0.05004,0.34416 -0.08139,0.26293 -0.131425,-0.0812 -0.287273,-0.003 -0.346329,0.17444 -0.05906,0.17717 -0.530859,0.33683 -1.048451,0.35481 -0.517592,0.018 -1.428766,0.27397 -2.024831,0.56888 -0.596065,0.29491 -1.051551,0.46341 -1.012192,0.37445 0.03936,-0.089 0.229282,-0.51894 0.422048,-0.9555 0.192767,-0.43657 0.514574,-1.10978 0.715128,-1.49604 0.200554,-0.38625 0.364643,-1.00358 0.364643,-1.37183 0,-0.36826 0.118206,-0.98046 0.262679,-1.36046 0.192991,-0.5076 0.165717,-0.84559 -0.102804,-1.27399 -0.201015,-0.32071 -0.507048,-1.02959 -0.680073,-1.57529 -0.173024,-0.545698 -0.424419,-0.992188 -0.558654,-0.992188 -0.134236,0 -0.224582,-0.0893 -0.200769,-0.19844 0.02381,-0.10914 -0.227935,-0.793745 -0.559438,-1.521349 -0.605929,-1.329931 -1.109618,-4.281494 -0.541819,-3.175 0.241301,0.470232 0.26077,0.449609 0.17481,-0.185182 -0.1037,-0.765797 0.472365,-1.238906 0.720659,-0.591862 0.237055,0.617756 0.655835,0.433399 0.488715,-0.215144 -0.141757,-0.550113 -0.116305,-0.565179 0.335236,-0.198437 0.455836,0.370231 0.475472,0.352469 0.292496,-0.264584 -0.494653,-1.668118 -0.687281,-2.699746 -0.546606,-2.927364 0.290388,-0.469857 0.78471,-0.241772 1.250843,0.57715 0.39302,0.690473 0.593395,0.802972 1.256771,0.705609 0.627381,-0.09208 0.789204,-0.01783 0.789204,0.362135 0,0.296498 0.426927,0.694408 1.124479,1.048052 0.618464,0.313548 1.201759,0.690505 1.296209,0.837682 0.0945,0.147177 0.35071,0.198918 0.56945,0.114979 0.21874,-0.08394 0.4788,-0.07152 0.57792,0.02759 0.0991,0.09911 0.28935,0.19509 0.42274,0.21328 0.13339,0.01819 0.33183,0.06321 0.44097,0.10004 0.3863,0.130363 2.05244,0.129549 2.18282,-0.0011 0.0728,-0.0729 0.69585,-0.40768 1.38465,-0.743967 0.68881,-0.336286 2.09858,-1.318441 3.13285,-2.182567 1.03426,-0.864134 1.97052,-1.571146 2.08058,-1.571146 0.11006,0 0.48622,-0.251854 0.83591,-0.559676 0.34969,-0.307822 0.87392,-0.707868 1.16496,-0.888993 2.96098,-1.842713 4.8948,-3.152795 4.8948,-3.31603 0,-0.10905 -0.41672,-0.890303 -0.92605,-1.736118 -1.3862,-2.30202 -1.1257,-2.592168 0.65003,-0.724006 l 1.55763,1.638718 0.46343,-0.707272 c 0.52429,-0.800168 0.83409,-0.391591 0.36611,0.482839 -0.25593,0.478213 -0.20599,0.674265 0.31357,1.231042 0.64281,0.688852 2.442961,1.717158 3.131531,1.788831 0.21828,0.02272 0.87312,0.169715 1.4552,0.326654 0.58209,0.156939 1.65194,0.306233 2.37746,0.331763 0.72551,0.02553 1.49942,0.189334 1.71979,0.364008 0.22037,0.174675 0.84715,0.543673 1.39286,0.819996 0.545702,0.276323 0.992182,0.602719 0.992182,0.725325 0,0.122605 0.12675,0.222919 0.28167,0.222919 0.30827,0 1.70271,1.558257 1.70271,1.902742 0,0.429346 0.50582,0.0678 0.53921,-0.385414 0.0339,-0.460647 2.94584,-3.369411 3.37304,-3.369411 0.12101,0 0.15013,0.113088 0.0647,0.251308 -0.35165,0.568984 1.66055,0.932257 2.45256,0.442773 0.19682,-0.121643 0.31736,-0.03354 0.31736,0.23196 0,0.235458 0.11907,0.354521 0.26459,0.264584 0.14552,-0.08994 0.26458,-0.382025 0.26458,-0.649084 0,-0.351686 0.18232,-0.475042 0.66127,-0.447406 0.3637,0.02099 0.66136,0.05431 0.66146,0.07406 10e-5,0.01975 -0.17394,0.371531 -0.38676,0.781744 -0.36268,0.69906 -0.3486,0.771489 0.22448,1.154723 0.75293,0.503507 1.60633,1.354837 1.65075,1.646752 0.0182,0.119535 0.0632,0.306634 0.10001,0.415774 0.0368,0.109141 0.10747,0.853281 0.15699,1.653646 0.0495,0.800365 0.1149,1.836158 0.14527,2.301763 0.0304,0.465606 0.12887,0.801047 0.21887,0.745426 0.09,-0.05562 0.15398,0.218273 0.1422,0.608654 -0.0118,0.39038 0.18975,1.097848 0.44785,1.57215 0.4438,0.815571 0.44496,0.923251 0.0213,1.984369 -0.47998,1.20234 -1.51861,2.85394 -1.97031,3.13311 -0.18585,0.11485 -0.16229,0.37601 0.0721,0.79953 0.19146,0.34593 0.31864,0.73079 0.28262,0.85525 -0.036,0.12445 0.0676,0.38663 0.23023,0.58261 0.16265,0.19598 0.21562,0.6087 0.11773,0.91716 -0.11456,0.36094 -0.0188,0.73672 0.26864,1.05435 0.24565,0.27145 0.3735,0.61188 0.28411,0.75651 -0.0894,0.14463 -0.0415,0.33776 0.10638,0.42916 0.54487,0.33676 0.2436,0.56574 -0.65159,0.49525 -0.81434,-0.0641 -3.04755,-1.089 -3.67582,-1.68691 -0.12687,-0.12074 -0.38529,-0.1602 -0.57426,-0.0877 -0.20955,0.0804 -0.37766,-0.10829 -0.43094,-0.4837 -0.0748,-0.52704 -0.21929,-0.60476 -1.00497,-0.54054 -1.17936,0.0964 -3.65278,1.30383 -4.00003,1.95268 -0.14738,0.27537 -0.36858,0.4385 -0.49155,0.3625 -0.12297,-0.076 -0.29227,0.0408 -0.37623,0.25963 -0.084,0.21879 -0.24527,0.36896 -0.35846,0.3337 -0.34623,-0.10783 -2.885822,2.60245 -2.768462,2.954551 0.0605,0.1814 -0.67765,1.09829 -1.64026,2.03753 -0.96261,0.93923 -1.7502,1.79227 -1.7502,1.89564 0,0.10336 -0.23813,0.33665 -0.52917,0.51841 -0.29104,0.18176 -0.52916,0.49882 -0.52916,0.70458 0,0.20577 -0.44649,0.5168 -0.99219,0.69118 -0.54571,0.17439 -1.09134,0.40779 -1.21253,0.51867 -0.1998,0.18282 1.06254,1.58655 1.42675,1.58655 0.0844,0 0.55357,0.35719 1.04255,0.79375 1.04849,0.9361 0.99185,0.9726 -0.40453,0.26068 z m -5.240921,-9.058071 c 1.04155,-1.77223 4.222511,-7.78682 7.839871,-14.823685 l 0.51365,-0.999204 -0.75744,-1.092986 c -0.734,-1.059158 -8.161841,-9.001101 -8.563821,-9.156531 -0.18857,-0.07292 -5.63793,5.586567 -8.30794,8.628305 l -1.23545,1.407463 3.13507,6.133158 c 3.2518,6.36152 6.03178,11.292541 6.36645,11.292541 0.10629,0 0.56061,-0.62508 1.00961,-1.389061 z m 23.637113,-3.63802 c 0,-0.14552 -0.11906,-0.26459 -0.26459,-0.26459 -0.14552,0 -0.26458,0.11907 -0.26458,0.26459 0,0.14552 0.11906,0.26458 0.26458,0.26458 0.14553,0 0.26459,-0.11906 0.26459,-0.26458 z M 37.565841,79.935332 c -0.180729,-0.292426 0.236645,-0.608185 0.480963,-0.363867 0.251562,0.251562 0.204679,0.610168 -0.07977,0.610168 -0.136933,0 -0.317469,-0.110835 -0.401191,-0.246301 z"
       style="fill:#000000;stroke-width:0.264583" />
    <path
       id="path863"
       d="m 29.871212,65.954908 c -2.575248,-0.35628 -7.201847,-1.95523 -9.581599,-3.31139 -3.381954,-1.92729 -6.848131,-4.87584 -6.312358,-5.3697 0.137962,-0.12716 1.235249,-0.55414 2.438416,-0.94884 5.83466,-1.91404 8.752667,-5.68553 10.754572,-13.900164 1.634615,-6.707491 4.31969,-10.917528 8.141984,-12.766145 0.827437,-0.400183 1.542575,-0.727605 1.589195,-0.727605 0.04662,0 0.0422,0.937286 -0.0098,2.082856 -0.09098,2.003467 -0.06415,2.116921 0.703939,2.976563 0.701795,0.785447 0.955889,0.893706 2.097595,0.893706 1.602724,0 2.736879,-0.787555 4.525351,-3.142399 4.330068,-5.70131 9.088829,-9.157374 14.856483,-10.789567 1.81231,-0.512867 7.98009,-0.439333 9.82365,0.11712 l 1.48927,0.449517 -2.15735,2.184748 c -2.96182,2.999432 -3.73161,4.577661 -3.73161,7.650555 0,2.160711 0.0459,2.347561 0.80906,3.290172 1.55735,1.923649 1.96152,2.091938 5.0241,2.091938 h 2.74817 l -0.0881,3.175 c -0.19666,7.085185 -2.73086,12.956475 -7.84453,18.174415 l -1.99717,2.03789 -3.2945,-0.0177 c -3.82983,-0.0206 -5.039431,0.28701 -10.002488,2.54357 -3.558833,1.61809 -4.825902,2.05611 -8.108677,2.80311 -2.772377,0.63085 -9.03083,0.89564 -11.873549,0.50235 z m 10.571148,-7.64205 c 2.362049,-0.56632 5.404054,-1.65023 6.20409,-2.2106 0.599988,-0.42024 0.788379,-0.29037 -2.703644,-1.8639 -2.533672,-1.14169 -4.617999,-2.51403 -6.586821,-4.33681 l -1.520863,-1.40805 -1.410277,2.72034 c -1.118509,2.15755 -1.832139,3.14115 -3.449366,4.7543 l -2.039089,2.03395 0.847936,0.26391 c 1.494406,0.46513 1.847874,0.50109 5.21356,0.53044 2.440702,0.0213 3.867284,-0.10543 5.444474,-0.48358 z m 10.694543,-5.20338 c 2.556761,-2.30988 4.182637,-5.50485 4.894977,-9.618972 0.61785,-3.568397 1.26141,-5.209642 2.57961,-6.578653 l 1.12494,-1.168308 -2.91042,0.158563 c -4.940087,0.269141 -9.971581,1.908147 -13.783542,4.489976 -2.173914,1.472385 -3.628459,2.693932 -2.928223,2.459162 1.999538,-0.670388 3.973486,-0.278196 4.777751,0.949267 0.225647,0.344381 0.530849,1.476377 0.67823,2.515545 0.147381,1.03917 0.50637,2.52352 0.797753,3.29856 0.60166,1.60033 2.726534,4.45186 3.317388,4.45186 0.215734,0 0.868926,-0.43065 1.451536,-0.957 z"
       style="fill:#000000;stroke-width:0.264583" />
  </g>
</svg>
