<?xml version="1.0" encoding="UTF-8" standalone="no"?>
<svg
   xmlns:dc="http://purl.org/dc/elements/1.1/"
   xmlns:cc="http://creativecommons.org/ns#"
   xmlns:rdf="http://www.w3.org/1999/02/22-rdf-syntax-ns#"
   xmlns:svg="http://www.w3.org/2000/svg"
   xmlns="http://www.w3.org/2000/svg"
   xmlns:sodipodi="http://sodipodi.sourceforge.net/DTD/sodipodi-0.dtd"
   xmlns:inkscape="http://www.inkscape.org/namespaces/inkscape"
   width="210mm"
   height="297mm"
   viewBox="0 0 210 297"
   version="1.1"
   id="svg8"
   sodipodi:docname="angel.svg"
   inkscape:version="1.0 (4035a4fb49, 2020-05-01)">
  <defs
     id="defs2">
    <pattern
       y="0"
       x="0"
       height="6"
       width="6"
       patternUnits="userSpaceOnUse"
       id="EMFhbasepattern" />
  </defs>
  <sodipodi:namedview
     id="base"
     pagecolor="#ffffff"
     bordercolor="#666666"
     borderopacity="1.0"
     inkscape:pageopacity="0.0"
     inkscape:pageshadow="2"
     inkscape:zoom="1.0583451"
     inkscape:cx="718.25248"
     inkscape:cy="596.92757"
     inkscape:document-units="mm"
     inkscape:current-layer="layer1"
     inkscape:document-rotation="0"
     showgrid="false"
     showguides="false"
     inkscape:guide-bbox="true"
     inkscape:window-width="2160"
     inkscape:window-height="1346"
     inkscape:window-x="-11"
     inkscape:window-y="-11"
     inkscape:window-maximized="1"
     inkscape:snap-to-guides="false">
    <sodipodi:guide
       position="86.45467,98.044591"
       orientation="1,0"
       id="guide848" />
  </sodipodi:namedview>
  <metadata
     id="metadata5">
    <rdf:RDF>
      <cc:Work
         rdf:about="">
        <dc:format>image/svg+xml</dc:format>
        <dc:type
           rdf:resource="http://purl.org/dc/dcmitype/StillImage" />
        <dc:title />
      </cc:Work>
    </rdf:RDF>
  </metadata>
  <g
     inkscape:label="Layer 1"
     inkscape:groupmode="layer"
     id="layer1">
    <path
       transform="scale(0.26458333)"
       d="M 497.56055 151.76172 C 495.29047 151.80267 492.93303 151.93039 490.48242 152.15234 C 398.31989 160.49952 430.38086 222.09766 430.38086 222.09766 C 428.99925 245.58553 420.70898 247.6582 420.70898 247.6582 C 420.70898 247.6582 325.00829 214.02675 284.27148 201.37305 C 263.82324 195.02139 239.02344 155.7793 239.02344 155.7793 C 218.64425 148.8711 200.71639 179.05608 198.26562 198.61133 C 190.93942 257.06886 211.04492 264.58398 211.04492 264.58398 C 255.6028 233.49709 294.63486 249.73076 290.14453 250.07617 C 285.6542 250.42158 285.30859 275.98242 285.30859 275.98242 L 280.12695 284.27148 C 326.41189 354.0443 393.76758 375.46094 393.76758 375.46094 C 379.26035 394.4585 348.51902 460.43226 315.70508 550.92969 C 282.89113 641.42707 211.04492 665.60547 211.04492 665.60547 C 217.2623 757.48454 308.79688 775.09961 308.79688 775.09961 C 394.80397 878.03179 457.32199 856.27112 539.875 846.59961 C 622.42797 836.92814 716.72645 755.75624 721.2168 730.88672 C 725.7071 706.0172 692.375 631.92773 692.375 631.92773 C 681.14916 598.16393 608.24429 526.37571 561.76562 499.52734 C 537.44845 485.48058 505.67969 459.22266 505.67969 459.22266 C 505.67969 459.22266 532.96833 474.24785 563.53711 476.32031 C 594.10589 478.39274 694.44576 428.30821 684.60156 411.72852 C 674.75741 395.14882 636.5898 411.7282 608.95703 390.6582 C 581.32422 369.58819 570.09961 346.44531 570.09961 346.44531 C 622.25652 342.6458 625.88281 302.92383 625.88281 302.92383 C 559.21871 275.11833 553.17383 233.49805 553.17383 233.49805 C 553.17383 233.49805 567.9329 150.49234 497.56055 151.76172 z M 492.08984 162.64844 C 553.70604 162.70596 543.33008 217.26367 543.33008 217.26367 C 543.33008 217.26367 521.01879 184.5879 486.68359 188.24805 C 468.18821 190.21967 447.99755 195.84717 435.9082 211.39062 C 435.9082 211.39062 424.0937 164.41638 489.09961 162.6875 C 490.11425 162.66051 491.11181 162.64752 492.08984 162.64844 z M 234.5332 164.75977 C 240.40518 182.72107 269.76562 201.0293 269.76562 201.0293 L 423.81836 254.22266 L 427.27148 274.60156 C 427.27148 274.60156 291.87177 234.87871 267.34766 230.04297 C 242.82356 225.20723 208.62695 250.07617 208.62695 250.07617 C 195.50137 187.21157 234.5332 164.75977 234.5332 164.75977 z M 492.88281 194.4668 C 510.46485 194.60657 530.58287 203.59752 544.02148 236.95117 C 568.79228 280.721 583.70048 291.02553 615.17578 303.26953 C 615.17578 303.26953 583.39782 370.27984 506.7168 301.88867 C 506.7168 301.88867 506.37152 232.1161 456.28711 205.51953 C 456.28711 205.51953 472.9565 194.30838 492.88281 194.4668 z M 449.37891 213.80859 C 449.37891 213.80859 485.99228 226.2429 488.41016 277.70898 C 488.41016 277.70898 452.14181 276.67276 446.61523 284.61719 C 446.61523 284.61719 416.56497 244.55008 449.37891 213.80859 z M 298.7793 251.11328 L 330.55664 254.91211 C 339.19189 266.65605 329.17578 274.60156 329.17578 274.60156 L 295.67188 273.56445 C 290.83613 260.78428 298.7793 251.11328 298.7793 251.11328 z M 348.86328 262.51172 C 370.2787 262.16631 441.77842 294.63418 440.74219 300.85156 C 439.70595 307.06894 429 311.21484 429 311.21484 C 427.61836 319.15926 351.28222 278.3999 347.82812 273.21875 C 344.37403 268.0376 348.86328 262.51172 348.86328 262.51172 z M 341.3125 276.11719 C 344.0068 275.96539 382.86609 313.61143 426.58203 318.46875 C 426.58203 318.46875 426.23543 337.46456 432.10742 364.75195 C 432.10742 364.75195 352.31793 369.93452 287.38086 283.58203 C 287.38086 283.58203 343.68349 282.5458 341.26562 276.67383 C 341.11451 276.30683 341.13288 276.12731 341.3125 276.11719 z M 478.98047 289.82422 C 481.80245 289.8215 484.82623 290.03149 488.06445 290.49023 C 488.06445 290.49023 501.53617 332.9755 560.25586 347.82812 C 560.25586 347.82812 589.61392 416.56407 673.20312 413.80078 C 673.20312 413.80078 591.68695 487.3743 510.51562 449.72461 C 429.3443 412.07492 440.39844 319.50391 440.39844 319.50391 C 440.39844 319.50391 445.68112 289.85632 478.98047 289.82422 z M 408.61914 372.00586 C 408.61914 372.00586 361.64404 476.31981 363.37109 565.43555 C 365.09814 654.55133 305.3418 766.46484 305.3418 766.46484 C 217.60767 738.83204 220.7168 670.0957 220.7168 670.0957 C 281.85436 651.09813 333.32022 549.54666 351.62695 482.53711 C 369.93368 415.5276 408.61914 372.00586 408.61914 372.00586 z M 422.49023 374.94922 C 422.82111 374.95791 423.14883 375.01269 423.47266 375.11523 C 423.47266 375.11523 412.07416 553.69258 458.01367 596.52344 C 458.01367 596.52344 546.78378 766.80923 533.6582 836.58203 C 533.6582 836.58203 384.44097 881.14173 319.50391 771.99219 C 319.50391 771.99219 371.3166 659.04256 369.24414 607.92188 C 367.20406 557.59996 401.6452 374.40193 422.49023 374.94922 z M 436.94336 379.25977 C 445.23322 425.54469 539.53125 497.73633 539.53125 497.73633 C 696.69277 578.21683 713.61719 725.70703 713.61719 725.70703 C 643.15357 818.27688 547.12891 833.12891 547.12891 833.12891 C 547.12891 833.12891 559.57128 735.29346 458.01367 569.58008 C 442.46262 544.20516 441.31302 496.28017 435.81445 455.38867 C 429.94439 411.7343 436.94336 379.25977 436.94336 379.25977 z "
       style="fill:#000000;stroke:#000000;stroke-width:0.999999px;stroke-linecap:butt;stroke-linejoin:miter;stroke-opacity:1;fill-opacity:1"
       id="path846" />
  </g>
</svg>
