<?xml version="1.0" encoding="UTF-8" standalone="no"?>
<svg
   xmlns:dc="http://purl.org/dc/elements/1.1/"
   xmlns:cc="http://creativecommons.org/ns#"
   xmlns:rdf="http://www.w3.org/1999/02/22-rdf-syntax-ns#"
   xmlns:svg="http://www.w3.org/2000/svg"
   xmlns="http://www.w3.org/2000/svg"
   xmlns:sodipodi="http://sodipodi.sourceforge.net/DTD/sodipodi-0.dtd"
   xmlns:inkscape="http://www.inkscape.org/namespaces/inkscape"
   sodipodi:docname="bobbin.svg"
   inkscape:version="1.0 (4035a4fb49, 2020-05-01)"
   id="svg1062"
   version="1.1"
   viewBox="0 0 210 297"
   height="297mm"
   width="210mm">
  <defs
     id="defs1056" />
  <sodipodi:namedview
     inkscape:window-maximized="1"
     inkscape:window-y="-11"
     inkscape:window-x="-11"
     inkscape:window-height="1346"
     inkscape:window-width="2160"
     inkscape:snap-global="true"
     inkscape:snap-smooth-nodes="true"
     inkscape:object-paths="false"
     inkscape:bbox-paths="true"
     inkscape:snap-bbox="false"
     showgrid="false"
     inkscape:document-rotation="0"
     inkscape:current-layer="layer1"
     inkscape:document-units="mm"
     inkscape:cy="428.23925"
     inkscape:cx="485.72109"
     inkscape:zoom="1.8299788"
     inkscape:pageshadow="2"
     inkscape:pageopacity="0.0"
     borderopacity="1.0"
     bordercolor="#666666"
     pagecolor="#ffffff"
     id="base" />
  <metadata
     id="metadata1059">
    <rdf:RDF>
      <cc:Work
         rdf:about="">
        <dc:format>image/svg+xml</dc:format>
        <dc:type
           rdf:resource="http://purl.org/dc/dcmitype/StillImage" />
        <dc:title></dc:title>
      </cc:Work>
    </rdf:RDF>
  </metadata>
  <g
     id="layer1"
     inkscape:groupmode="layer"
     inkscape:label="Layer 1">
    <g
       id="g1167">
      <path
         id="rect1078"
         style="opacity:0.998;fill:#4fc6c6;fill-opacity:1;stroke:none;stroke-width:1.1343;stroke-linejoin:round;stroke-dashoffset:3.806"
         d="m 365.84961,246.35547 a 34.015748,34.015748 0 0 0 -29.45703,17.00781 34.015748,34.015748 0 0 0 0,34.01563 34.015748,34.015748 0 0 0 29.45703,17.00781 v 186.3457 a 34.015748,34.015748 0 0 0 -29.45703,17.00781 34.015748,34.015748 0 0 0 0,34.01563 34.015748,34.015748 0 0 0 29.45703,17.00781 H 597 a 34.015748,34.015748 0 0 0 29.45898,-17.00781 34.015748,34.015748 0 0 0 0,-34.01563 A 34.015748,34.015748 0 0 0 597,500.73242 V 314.38086 a 34.015748,34.015748 0 0 0 28.8457,-17 34.015748,34.015748 0 0 0 0,-34.01563 A 34.015748,34.015748 0 0 0 597,246.36133 v -0.006 h -0.61328 z M 481.42578,262.375 a 22.677165,22.677165 0 0 1 22.67774,22.67578 22.677165,22.677165 0 0 1 -22.67774,22.67774 A 22.677165,22.677165 0 0 1 458.75,285.05078 22.677165,22.677165 0 0 1 481.42578,262.375 Z"
         transform="scale(0.26458333)" />
      <path
         style="fill:none;stroke:#000000;stroke-width:0.264583px;stroke-linecap:butt;stroke-linejoin:miter;stroke-opacity:1"
         d="M 96.797708,150.48539 107.35225,140.3646"
         id="path1147" />
      <path
         id="path1147-1"
         d="M 157.95625,150.48539 147.40171,140.3646"
         style="fill:none;stroke:#000000;stroke-width:0.264583px;stroke-linecap:butt;stroke-linejoin:miter;stroke-opacity:1" />
    </g>
  </g>
</svg>
