<?xml version="1.0" encoding="UTF-8" standalone="no"?>
<svg
   xmlns:dc="http://purl.org/dc/elements/1.1/"
   xmlns:cc="http://creativecommons.org/ns#"
   xmlns:rdf="http://www.w3.org/1999/02/22-rdf-syntax-ns#"
   xmlns:svg="http://www.w3.org/2000/svg"
   xmlns="http://www.w3.org/2000/svg"
   xmlns:sodipodi="http://sodipodi.sourceforge.net/DTD/sodipodi-0.dtd"
   xmlns:inkscape="http://www.inkscape.org/namespaces/inkscape"
   width="210mm"
   height="297mm"
   viewBox="0 0 210 297"
   version="1.1"
   id="svg8"
   inkscape:version="1.0 (4035a4fb49, 2020-05-01)"
   sodipodi:docname="bouquet sampler.svg">
  <defs
     id="defs2">
    <clipPath
       id="clipPath855"
       clipPathUnits="userSpaceOnUse">
      <path
         id="path853"
         d="M 0,792 H 612 V 0 H 0 Z" />
    </clipPath>
    <clipPath
       id="clipPath2259"
       clipPathUnits="userSpaceOnUse">
      <path
         id="path2257"
         d="M 0,792 H 612 V 0 H 0 Z" />
    </clipPath>
  </defs>
  <sodipodi:namedview
     id="base"
     pagecolor="#ffffff"
     bordercolor="#666666"
     borderopacity="1.0"
     inkscape:pageopacity="0.0"
     inkscape:pageshadow="2"
     inkscape:zoom="1.4967259"
     inkscape:cx="335.95461"
     inkscape:cy="382.95603"
     inkscape:document-units="mm"
     inkscape:current-layer="layer1"
     inkscape:document-rotation="0"
     showgrid="false"
     inkscape:window-width="2160"
     inkscape:window-height="1346"
     inkscape:window-x="-11"
     inkscape:window-y="-11"
     inkscape:window-maximized="1" />
  <metadata
     id="metadata5">
    <rdf:RDF>
      <cc:Work
         rdf:about="">
        <dc:format>image/svg+xml</dc:format>
        <dc:type
           rdf:resource="http://purl.org/dc/dcmitype/StillImage" />
        <dc:title />
      </cc:Work>
    </rdf:RDF>
  </metadata>
  <g
     inkscape:label="Layer 1"
     inkscape:groupmode="layer"
     id="layer1">
    <g
       id="g4132">
      <g
         transform="matrix(0.35277777,0,0,-0.35277777,-12.328059,246.79903)"
         id="g849">
        <g
           clip-path="url(#clipPath855)"
           id="g851">
          <g
             transform="translate(182.7485,518.8262)"
             id="g857" />
          <g
             transform="translate(214.3398,432.6978)"
             id="g861" />
          <g
             transform="translate(173.751,412.1426)"
             id="g865" />
          <g
             transform="translate(173.751,412.1426)"
             id="g869" />
          <g
             transform="translate(174.0757,393.8369)"
             id="g873" />
          <g
             transform="translate(174.0757,393.8369)"
             id="g877" />
          <g
             transform="translate(227.9741,624.7739)"
             id="g881" />
          <g
             transform="translate(227.9741,624.7739)"
             id="g885" />
          <g
             transform="translate(166.7427,437.438)"
             id="g889" />
          <g
             transform="translate(166.7427,437.438)"
             id="g893" />
          <g
             transform="translate(217.998,288.375)"
             id="g897" />
          <g
             transform="translate(327.8525,445.667)"
             id="g901" />
          <g
             transform="translate(327.8525,445.667)"
             id="g905" />
          <g
             transform="translate(349.1865,521.0947)"
             id="g909" />
          <g
             transform="translate(349.1865,521.0947)"
             id="g913" />
          <g
             transform="translate(215.3779,541.8252)"
             id="g917" />
          <g
             transform="translate(215.3779,541.8252)"
             id="g921" />
          <g
             transform="translate(277.6382,574.3604)"
             id="g925" />
          <g
             transform="translate(277.6382,574.3604)"
             id="g929" />
          <g
             transform="translate(257.1904,449.1714)"
             id="g933" />
          <g
             transform="translate(257.1904,449.1714)"
             id="g937" />
          <g
             transform="translate(257.3809,449.3076)"
             id="g941" />
          <g
             transform="translate(257.3809,449.3076)"
             id="g945" />
          <g
             transform="translate(297.7451,514.042)"
             id="g949" />
          <g
             transform="translate(297.7451,514.042)"
             id="g953" />
          <g
             transform="translate(241.2759,553.4102)"
             id="g957" />
          <g
             transform="translate(227.9741,327.6152)"
             id="g961" />
          <g
             transform="translate(243.271,509.8472)"
             id="g965" />
          <g
             transform="translate(210.6821,324.2891)"
             id="g969" />
          <g
             transform="translate(322.416,372.8408)"
             id="g973" />
          <g
             transform="translate(386.9287,346.2373)"
             id="g977" />
          <g
             transform="translate(323.4131,557.4009)"
             id="g981" />
          <g
             transform="translate(323.4131,557.4009)"
             id="g985" />
          <g
             transform="translate(282.7871,582.7847)"
             id="g989" />
          <g
             transform="translate(262.8911,460.6313)"
             id="g993" />
          <g
             transform="translate(235.9551,404.0991)"
             id="g997" />
          <g
             transform="translate(235.9551,404.0991)"
             id="g1001" />
          <g
             transform="translate(214.6724,577.6855)"
             id="g1005" />
          <g
             transform="translate(214.6724,577.6855)"
             id="g1009" />
          <g
             transform="translate(282.3628,515.394)"
             id="g1013" />
          <g
             transform="translate(282.3628,515.394)"
             id="g1017" />
          <g
             transform="translate(161.8228,477.8437)"
             id="g1021" />
          <g
             transform="translate(161.8228,477.8437)"
             id="g1025" />
          <g
             transform="translate(238.7266,518.2715)"
             id="g1029" />
          <g
             transform="translate(238.7266,518.2715)"
             id="g1033" />
          <g
             transform="translate(282.916,583.3965)"
             id="g1037" />
          <g
             transform="translate(277.5229,593.3149)"
             id="g1041" />
          <g
             transform="translate(329.2881,506.2412)"
             id="g1045" />
          <g
             transform="translate(320.4209,530.2363)"
             id="g1049" />
          <g
             transform="translate(324.4629,524.8638)"
             id="g1053" />
          <g
             transform="translate(333.7227,535.0098)"
             id="g1057" />
          <g
             transform="translate(322.1943,509.3452)"
             id="g1061" />
          <g
             transform="translate(328.623,512.4487)"
             id="g1065" />
          <g
             transform="translate(318.2041,523.5332)"
             id="g1069" />
          <g
             transform="translate(325.7412,535.0615)"
             id="g1073" />
          <g
             transform="translate(329.2881,529.7407)"
             id="g1077" />
          <g
             transform="translate(340.8164,532.4014)"
             id="g1081" />
          <g
             transform="translate(330.6182,522.6465)"
             id="g1085" />
          <g
             transform="translate(318.2041,516.439)"
             id="g1089" />
          <g
             transform="translate(324.9062,518.2129)"
             id="g1093" />
          <g
             transform="translate(336.3828,507.3496)"
             id="g1097" />
          <g
             transform="translate(337.0479,514.1704)"
             id="g1101" />
          <g
             transform="translate(342.5898,511.562)"
             id="g1105" />
          <g
             transform="translate(344.3633,526.1938)"
             id="g1109" />
          <g
             transform="translate(335.4961,526.6372)"
             id="g1113" />
          <g
             transform="translate(345.25,518.2129)"
             id="g1117" />
          <g
             transform="translate(332.8359,517.7695)"
             id="g1121" />
          <g
             transform="translate(338.5996,521.3164)"
             id="g1125" />
          <g
             transform="translate(302.856,444.8184)"
             id="g1129" />
          <g
             transform="translate(316.1572,452.7993)"
             id="g1133" />
          <g
             transform="translate(315.2705,457.6763)"
             id="g1137" />
          <g
             transform="translate(301.5259,453.2427)"
             id="g1141" />
          <g
             transform="translate(309.0635,459.0068)"
             id="g1145" />
          <g
             transform="translate(282.5107,636.2129)"
             id="g1149" />
          <g
             transform="translate(123.0576,437.021)"
             id="g1153" />
          <g
             transform="translate(124.0552,431.7002)"
             id="g1157" />
          <g
             transform="translate(131.5371,438.6836)"
             id="g1161" />
          <g
             transform="translate(126.0503,426.5459)"
             id="g1165" />
          <g
             transform="translate(138.3545,438.1846)"
             id="g1169" />
          <g
             transform="translate(129.0435,420.7266)"
             id="g1173" />
          <g
             transform="translate(146.1689,437.5195)"
             id="g1177" />
          <g
             transform="translate(132.8677,415.5718)"
             id="g1181" />
          <g
             transform="translate(153.9839,434.8594)"
             id="g1185" />
          <g
             transform="translate(138.853,410.75)"
             id="g1189" />
          <g
             transform="translate(161.7983,428.375)"
             id="g1193" />
          <g
             transform="translate(149.8271,407.7573)"
             id="g1197" />
          <g
             transform="translate(175.6543,379.0479)"
             id="g1201" />
          <g
             transform="translate(175.6543,379.0479)"
             id="g1205" />
          <g
             transform="translate(332.3926,555.0728)"
             id="g1209" />
          <g
             transform="translate(355.0049,559.7285)"
             id="g1213" />
          <g
             transform="translate(373.627,557.0684)"
             id="g1217" />
          <g
             transform="translate(396.2402,553.0776)"
             id="g1221" />
          <g
             transform="translate(405.8838,546.7593)"
             id="g1225" />
          <g
             transform="translate(431.2676,525.144)"
             id="g1229" />
          <g
             transform="translate(346.3584,557.0684)"
             id="g1233" />
          <g
             transform="translate(448.3379,500.9795)"
             id="g1237" />
          <g
             transform="translate(381.2754,557.4009)"
             id="g1241" />
          <g
             transform="translate(392.582,552.4126)"
             id="g1245" />
          <g
             transform="translate(418.1875,539.7759)"
             id="g1249" />
          <g
             transform="translate(427.166,531.1299)"
             id="g1253" />
          <g
             transform="translate(443.1279,517.1631)"
             id="g1257" />
          <g
             transform="translate(335.3848,556.7358)"
             id="g1261" />
          <g
             transform="translate(404.8857,462.2939)"
             id="g1265" />
          <g
             transform="translate(404.8857,462.2939)"
             id="g1269" />
          <g
             transform="translate(389.5889,475.2632)"
             id="g1273" />
          <g
             transform="translate(389.5889,475.2632)"
             id="g1277" />
          <g
             transform="translate(369.9697,482.5791)"
             id="g1281" />
          <g
             transform="translate(369.9697,482.5791)"
             id="g1285" />
          <g
             transform="translate(351.0146,487.2344)"
             id="g1289" />
          <g
             transform="translate(351.0146,487.2344)"
             id="g1293" />
          <g
             transform="translate(325.0762,485.5718)"
             id="g1297" />
          <g
             transform="translate(325.0762,485.5718)"
             id="g1301" />
          <g
             transform="translate(428.6152,373.0381)"
             id="g1305" />
          <g
             transform="translate(428.6152,373.0381)"
             id="g1309" />
          <g
             transform="translate(423.9912,366.4141)"
             id="g1313" />
          <g
             transform="translate(423.9912,366.4141)"
             id="g1317" />
          <g
             transform="translate(199.3755,468.6123)"
             id="g1321" />
          <g
             transform="translate(199.3755,468.6123)"
             id="g1325" />
          <g
             transform="translate(401.6357,597.2573)"
             id="g1329" />
          <g
             transform="translate(380.8369,602.5605)"
             id="g1333" />
          <g
             transform="translate(372.3311,592.5967)"
             id="g1337" />
          <g
             transform="translate(359.2021,599.7866)"
             id="g1341" />
          <g
             transform="translate(352.0244,587.8677)"
             id="g1345" />
          <g
             transform="translate(338.6709,595.4712)"
             id="g1349" />
          <g
             transform="translate(331.8418,584.1431)"
             id="g1353" />
          <g
             transform="translate(319.6387,590.3643)"
             id="g1357" />
          <g
             transform="translate(314.7051,578.9937)"
             id="g1361" />
          <g
             transform="translate(299.4722,581.4316)"
             id="g1365" />
          <g
             transform="translate(301.5742,581.5015)"
             id="g1369" />
          <g
             transform="translate(241.5444,449.0649)"
             id="g1373" />
          <g
             transform="translate(241.5444,449.0649)"
             id="g1377" />
          <g
             transform="translate(255.9077,597.6382)"
             id="g1381" />
          <g
             transform="translate(253.4692,574.582)"
             id="g1385" />
          <g
             transform="translate(268.5444,556.4033)"
             id="g1389" />
          <g
             transform="translate(239.2808,556.1812)"
             id="g1393" />
          <g
             transform="translate(232.8516,584.1147)"
             id="g1397" />
          <g
             transform="translate(194.0552,564.8276)"
             id="g1401" />
          <g
             transform="translate(191.6162,541.7715)"
             id="g1405" />
          <g
             transform="translate(206.6914,523.5923)"
             id="g1409" />
          <g
             transform="translate(177.4282,523.3706)"
             id="g1413" />
          <g
             transform="translate(170.999,551.3042)"
             id="g1417" />
          <g
             transform="translate(262.2261,523.4814)"
             id="g1421" />
          <g
             transform="translate(265.7178,525.4766)"
             id="g1425" />
          <g
             transform="translate(270.5396,526.8071)"
             id="g1429" />
          <g
             transform="translate(274.3638,526.3081)"
             id="g1433" />
          <g
             transform="translate(278.853,523.814)"
             id="g1437" />
          <g
             transform="translate(281.6797,510.0137)"
             id="g1441" />
          <g
             transform="translate(282.6772,513.6714)"
             id="g1445" />
          <g
             transform="translate(296.145,522.6504)"
             id="g1449" />
          <g
             transform="translate(290.4917,532.1274)"
             id="g1453" />
          <g
             transform="translate(281.6797,538.9448)"
             id="g1457" />
          <g
             transform="translate(273.6987,540.7734)"
             id="g1461" />
          <g
             transform="translate(264.2212,539.9424)"
             id="g1465" />
          <g
             transform="translate(257.5703,537.1157)"
             id="g1469" />
          <g
             transform="translate(250.5869,531.4624)"
             id="g1473" />
          <g
             transform="translate(245.4326,523.6479)"
             id="g1477" />
          <g
             transform="translate(243.936,512.3413)"
             id="g1481" />
          <g
             transform="translate(245.5991,505.1919)"
             id="g1485" />
          <g
             transform="translate(250.0884,496.7119)"
             id="g1489" />
          <g
             transform="translate(258.9004,489.895)"
             id="g1493" />
          <g
             transform="translate(271.5371,486.9019)"
             id="g1497" />
          <g
             transform="translate(279.8506,488.8975)"
             id="g1501" />
          <g
             transform="translate(288.3306,493.7192)"
             id="g1505" />
          <g
             transform="translate(293.3184,499.5386)"
             id="g1509" />
          <g
             transform="translate(220.8247,468.4458)"
             id="g1513" />
          <g
             transform="translate(229.4707,472.27)"
             id="g1517" />
          <g
             transform="translate(238.7817,471.9375)"
             id="g1521" />
          <g
             transform="translate(247.0952,467.6147)"
             id="g1525" />
          <g
             transform="translate(253.9126,461.2964)"
             id="g1529" />
          <g
             transform="translate(257.0718,451.3203)"
             id="g1533" />
          <g
             transform="translate(255.7412,441.6763)"
             id="g1537" />
          <g
             transform="translate(250.4209,432.8643)"
             id="g1541" />
          <g
             transform="translate(242.4399,427.377)"
             id="g1545" />
          <g
             transform="translate(232.2974,426.0469)"
             id="g1549" />
          <g
             transform="translate(223.6514,428.375)"
             id="g1553" />
          <g
             transform="translate(215.8364,433.6953)"
             id="g1557" />
          <g
             transform="translate(211.0146,441.6763)"
             id="g1561" />
          <g
             transform="translate(209.6846,450.1562)"
             id="g1565" />
          <g
             transform="translate(213.5088,461.7949)"
             id="g1569" />
          <g
             transform="translate(285.3413,636.3828)"
             id="g1573" />
          <g
             transform="translate(322.748,458.6362)"
             id="g1577" />
          <g
             transform="translate(327.7363,449.6572)"
             id="g1581" />
          <g
             transform="translate(327.0713,442.3413)"
             id="g1585" />
        </g>
      </g>
    </g>
    <g
       id="g2253"
       transform="matrix(0.35277777,0,0,-0.35277777,-12.328059,246.79903)">
      <g
         id="g2255"
         clip-path="url(#clipPath2259)">
        <g
           id="g2261"
           transform="translate(157.1499,493.2202)" />
        <g
           id="g2265"
           transform="translate(156.5366,505.4136)" />
        <g
           id="g2269"
           transform="translate(163.1875,516.9414)" />
        <g
           id="g2273"
           transform="translate(357.1699,461.6289)" />
        <g
           id="g2277"
           transform="translate(375.46,441.6763)" />
        <g
           id="g2281"
           transform="translate(366.1484,461.9614)" />
        <g
           id="g2285"
           transform="translate(373.1318,452.4805)" />
        <g
           id="g2289"
           transform="translate(366.4814,454.978)" />
        <g
           id="g2293"
           transform="translate(369.8066,446.332)" />
        <g
           id="g2297"
           transform="translate(369.8066,434.6929)" />
        <g
           id="g2301"
           transform="translate(314.1025,470.9399)">
          <path
             d="m 0,0 c 0,0 39.174,3.178 51.544,-14.964 9.976,-14.632 1.995,-20.618 1.995,-20.618 m 2.1651,-0.665 c 0,-1.195 -0.97,-2.165 -2.165,-2.165 -1.196,0 -2.165,0.97 -2.165,2.165 0,1.196 0.969,2.165 2.165,2.165 1.195,0 2.165,-0.969 2.165,-2.165 m 0,11.6391 c 0,-1.196 -0.97,-2.165 -2.165,-2.165 -1.196,0 -2.165,0.969 -2.165,2.165 0,1.196 0.969,2.165 2.165,2.165 1.195,0 2.165,-0.969 2.165,-2.165 m -3.3252,8.646 c 0,-1.196 -0.97,-2.165 -2.165,-2.165 -1.196,0 -2.165,0.969 -2.165,2.165 0,1.196 0.969,2.165 2.165,2.165 1.195,0 2.165,-0.969 2.165,-2.165 m 6.6504,-2.4975 c 0,-1.196 -0.969,-2.165 -2.165,-2.165 -1.195,0 -2.165,0.969 -2.165,2.165 0,1.196 0.97,2.165 2.165,2.165 1.196,0 2.165,-0.969 2.165,-2.165 m -6.9834,9.4809 c 0,-1.196 -0.969,-2.165 -2.165,-2.165 -1.195,0 -2.165,0.969 -2.165,2.165 0,1.196 0.97,2.165 2.165,2.165 1.196,0 2.165,-0.969 2.165,-2.165 m 9.3116,-20.2851 c 0,-1.196 -0.97,-2.165 -2.165,-2.165 -1.196,0 -2.165,0.969 -2.165,2.165 0,1.196 0.969,2.165 2.165,2.165 1.195,0 2.165,-0.969 2.165,-2.165 M 43.0674,-9.311 c 0,-1.196 -0.97,-2.165 -2.165,-2.165 -1.195,0 -2.165,0.969 -2.165,2.165 0,1.196 0.97,2.165 2.165,2.165 1.195,0 2.165,-0.969 2.165,-2.165 M -150.915,46.0015 c 0,-1.196 -0.969,-2.165 -2.165,-2.165 -1.196,0 -2.165,0.969 -2.165,2.165 0,1.196 0.969,2.165 2.165,2.165 1.196,0 2.165,-0.969 2.165,-2.165 m -6.6509,-11.5278 c 0,-1.196 -0.969,-2.165 -2.165,-2.165 -1.195,0 -2.165,0.969 -2.165,2.165 0,1.196 0.97,2.165 2.165,2.165 1.196,0 2.165,-0.969 2.165,-2.165 m 0.6133,-12.1934 c 0,-1.196 -0.969,-2.165 -2.165,-2.165 -1.196,0 -2.165,0.969 -2.165,2.165 0,1.196 0.969,2.165 2.165,2.165 1.196,0 2.165,-0.969 2.165,-2.165 M 12.9688,-28.5986 c 0,0 11.972,-0.998 16.627,-7.648 m -15.962,14.9639 c 0,0 10.309,1.331 19.287,-4.323 m -24.2753,13.302 c 0,0 11.64,2.66 20.95,-2.328 m -58.3567,180.0746 c 0,-1.196 -0.97,-2.165 -2.165,-2.165 -1.196,0 -2.166,0.969 -2.166,2.165 0,1.196 0.97,2.165 2.166,2.165 1.195,0 2.165,-0.969 2.165,-2.165 m -71.8325,-174.5879 9.145,-5.985 m -12.9692,-5.6537 11.639,0.499 m -10.309,-8.9789 11.306,3.991 m -6.4842,-11.972 7.316,5.82 m 0.499,-11.1403 4.489,7.981 m 4.157,-10.3091 1.829,9.644 m 8.3135,-8.3139 -3.326,9.145 m 11.307,-3.6577 -7.15,6.817 m 12.4703,1.995 -9.311,3.159 m 10.6416,6.485 h -10.808 m 7.6488,9.9761 -8.979,-4.822 m 2.1616,11.1403 -5.32,-7.648 m -2.9935,11.9708 -2.66,-9.477 m -6.651,9.8095 1.829,-9.644 m -10.475,5.8198 5.32,-7.814 m 67.1737,38.9068 -13.135,8.48 m 8.1472,-14.2994 -10.642,11.805 m 2.162,-16.6267 -5.819,14.964 m -2.4945,-16.9596 -0.998,16.627 m -11.6387,-13.6339 7.482,14.299 m -16.294,-7.4821 12.803,9.644 m -17.2923,-1.164 13.966,4.822 m -15.6291,2.3274 14.632,1.164 m -13.1354,10.1426 13.634,-5.321 m -8.4797,13.1355 9.81,-9.81 m -2.8266,15.4633 5.653,-12.803 m 0.9979,15.6297 1.497,-13.468 m 7.9805,14.299 -1.829,-13.135 m 9.81,11.3064 -5.819,-12.637 m 14.631,5.8196 -11.14,-8.147 m 16.7933,-1.33 -13.967,-3.824 m 0.4992,-5.155 14.133,0.665 m -15.1305,-4.3227 15.13,-3.326 m -17.9567,17.1263 v -16.46 m -4.4892,18.9541 v -21.615 m -3.8242,22.114 -0.499,-22.779 m -4.3228,21.4485 v -20.119 m -3.4917,18.1238 v -14.964 m -91.2271,42.7868 21.061,-9.754 m -14.6318,-18.1796 14.631,18.623 m 14.6322,-18.4013 -15.297,18.401 m 0.2218,-0.2218 22.391,7.538 m -19.952,15.5181 -2.661,-23.056 m 41.4574,42.3431 21.061,-9.754 m -14.6318,-18.1795 14.632,18.623 m 14.6316,-18.4009 -15.297,18.4 m 0.2218,-0.2213 22.391,7.538 m -19.9525,15.5182 -2.66,-23.056 M -72.5581,-21.875 c 0,-4.163 -3.375,-7.538 -7.538,-7.538 -4.163,0 -7.537,3.375 -7.537,7.538 0,4.163 3.374,7.538 7.537,7.538 4.163,0 7.538,-3.375 7.538,-7.538 z m 0,0 c 0,-4.163 -3.375,-7.538 -7.538,-7.538 -4.163,0 -7.537,3.375 -7.537,7.538 0,4.163 3.374,7.538 7.537,7.538 4.163,0 7.538,-3.375 7.538,-7.538 m 60.0298,132.4366 c 0,0 -13.47,-6.236 -11.823,-8.286 m 9.721,8.2161 c -2.009,-4.434 15.37,-0.224 15.37,-0.224 m -0.1371,-2.2139 c -6.731,1.629 6.64,10.691 6.64,10.691 m -1.7064,0.6796 c -3.356,-2.936 13.502,-4.179 13.502,-4.179 m -1.2989,-2.0422 c -5.931,0.646 8.966,10.347 8.966,10.347 m -2.1369,0.9811 c -4.141,-5.188 14.032,-5.897 14.032,-5.897 m -0.6785,-1.7065 c -7.049,3.132 9.71,11.688 9.71,11.688 m -2.5323,0.2309 c -2.104,-4.752 14.481,-5.164 14.481,-5.164 m -1.352,-2.0259 c -6.297,3.718 9.833,8.009 9.833,8.009 m -1.3272,1.9548 c -3.387,-3.621 11.079,-8.837 11.079,-8.837 m 9.7198,3.5338 c 0,0 -19.771,-2.922 -10.718,-5.145 m -191.5422,-123.5 c 0,0 -1.516,25.869 -6.65,23.943 -5.321,-1.995 6.65,-23.943 6.65,-23.943 z m 0,0 c 0,0 -1.516,25.869 -6.65,23.943 -5.321,-1.995 6.65,-23.943 6.65,-23.943 m 224.6157,-102.1982 c 0,0 -23.094,-7.738 -18.281,-11.297 4.813,-3.559 18.281,11.297 18.281,11.297 z m 0,0 c 0,0 -23.094,-7.738 -18.281,-11.297 4.813,-3.559 18.281,11.297 18.281,11.297 m 4.624,6.624 c 0,0 -22.788,6.098 -22.348,-0.019 0.441,-6.115 22.348,0.019 22.348,0.019 z m 0,0 c 0,0 -22.788,6.098 -22.348,-0.019 0.441,-6.115 22.348,0.019 22.348,0.019 M 10.9737,14.6319 c 0,0 9.644,0 14.965,-3.325 3.566,-2.23 6.65,-7.316 6.65,-7.316 0,0 -10.308,-0.665 -13.634,1.995 -3.326,2.66 -7.981,8.646 -7.981,8.646 z m 0,0 c 0,0 9.644,0 14.965,-3.325 3.566,-2.23 6.65,-7.316 6.65,-7.316 0,0 -10.308,-0.665 -13.634,1.995 -3.326,2.66 -7.981,8.646 -7.981,8.646 m 25.9384,1.6626 c 0,0 5.653,8.646 11.307,9.644 5.652,0.998 13.3,0.333 13.3,0.333 0,0 -5.32,-4.989 -8.645,-7.316 -3.325,-2.328 -15.962,-2.661 -15.962,-2.661 z m 0,0 c 0,0 5.653,8.646 11.307,9.644 5.652,0.998 13.3,0.333 13.3,0.333 0,0 -5.32,-4.989 -8.645,-7.316 -3.325,-2.328 -15.962,-2.661 -15.962,-2.661 m 18.9551,-4.6553 c 0,0 1.271,-10.471 3.657,-13.967 3.856,-5.648 10.639,-8.331 10.309,-7.316 0,0 -0.332,7.981 -2.66,11.639 -2.327,3.658 -11.306,9.644 -11.306,9.644 z m 0,0 c 0,0 1.271,-10.471 3.657,-13.967 3.856,-5.648 10.639,-8.331 10.309,-7.316 0,0 -0.332,7.981 -2.66,11.639 -2.327,3.658 -11.306,9.644 -11.306,9.644 M 75.4864,4.3233 c 0,0 5.986,8.313 14.3,7.648 8.313,-0.665 13.302,-3.658 13.302,-3.658 0,0 -5.654,-4.323 -11.64,-5.653 -5.985,-1.33 -15.962,1.663 -15.962,1.663 z m 0,0 c 0,0 5.986,8.313 14.3,7.648 8.313,-0.665 13.302,-3.658 13.302,-3.658 0,0 -5.654,-4.323 -11.64,-5.653 -5.985,-1.33 -15.962,1.663 -15.962,1.663 M 90.7832,-8.646 c 0,0 1.663,-11.972 5.321,-17.625 3.658,-5.653 10.974,-7.98 10.974,-7.98 0,0 2.328,9.976 -2.328,16.959 -4.655,6.983 -13.967,8.646 -13.967,8.646 z m 0,0 c 0,0 1.663,-11.972 5.321,-17.625 3.658,-5.653 10.974,-7.98 10.974,-7.98 0,0 2.328,9.976 -2.328,16.959 -4.655,6.983 -13.967,8.646 -13.967,8.646 M 21.2823,85.7959 c 0,0 3.658,11.971 6.983,9.644 3.326,-2.328 -6.983,-9.644 -6.983,-9.644 z M 129.0254,46.2232 c 0,0 5.986,-7.981 8.979,-6.318 2.993,1.663 -8.979,6.318 -8.979,6.318 z M 113.0635,60.19 c 0,0 14.965,-1.663 13.635,-4.323 -1.33,-2.66 -13.635,4.323 -13.635,4.323 z m -8.9785,8.646 c 0,0 11.972,4.656 12.305,0.998 0.332,-3.658 -12.305,-0.998 -12.305,-0.998 z M 78.4795,81.4727 c 0,0 3.325,-12.969 6.65,-11.639 3.327,1.33 -6.65,11.639 -6.65,11.639 z M 67.1729,86.461 c 0,0 4.656,7.316 8.646,4.988 3.991,-2.328 -8.646,-4.988 -8.646,-4.988 z m 67.0625,-56.4214 c 0,0 4.878,-18.179 10.198,-15.519 5.524,2.762 -10.198,15.519 -10.198,15.519 z M 32.2559,86.1285 c 0,0 19.288,-4.323 15.963,-8.979 -3.326,-4.655 -15.963,8.979 -15.963,8.979 z m 84.9092,-31.9244 c 0,0 2.258,-20.471 5.542,-19.952 6.318,0.997 -5.542,19.952 -5.542,19.952 z M 91.7813,75.8194 c 0,0 4.902,-24.876 10.309,-22.945 4.655,1.662 -10.309,22.945 -10.309,22.945 z m -9.6436,6.3183 c 0,0 20.285,9.311 21.282,3.326 0.623,-3.741 -21.282,-3.326 -21.282,-3.326 z m -22.6132,3.9908 c 0,0 18.639,-7.964 15.297,-11.307 -3.99,-3.99 -15.297,11.307 -15.297,11.307 z m -18.6221,2.6601 c 0,0 16.287,16.316 18.622,9.311 0.998,-2.993 -18.622,-9.311 -18.622,-9.311 z M 18.2901,84.1329 c 0,0 62.518,17.958 99.097,-29.929 M -138.4482,-91.892 c 0,0 -7.981,-20.396 -2.66,-21.282 5.321,-0.887 2.66,21.282 2.66,21.282 z m 0,0 c 0,0 -7.981,-20.396 -2.66,-21.282 5.321,-0.887 2.66,21.282 2.66,21.282 m -25.8272,28.7094 18.955,7.482 m -6.9838,13.1357 4.656,-12.138 m -27.6013,-5.487 23.112,7.648 m -7.9811,16.4614 4.988,-14.964 m -26.1042,-4.3236 21.282,6.651 m -7.9808,15.2967 4.988,-14.133 m -22.1134,-2.6599 18.456,4.323 m -9.145,13.135 5.819,-11.306 m -18.1232,-0.3327 14.632,1.995 m -9.1452,10.1427 5.487,-8.147 m -12.9689,1.1636 h 10.309 m -11.3066,5.3208 50.38,-24.276 M -31.5918,165.273 c 0,0 -12.415,-14.188 -13.301,-39.461 M -5.039,-11.9331 c -1.773,0 -4.041,3.223 -10.642,-0.443 -3.99,-2.218 -7.981,-9.312 -5.32,-18.18 m 8.4244,12.8589 c 0,0 -7.981,-4.877 -3.104,-13.302 4.877,-8.424 10.642,-11.084 17.292,-6.651 M 1.168,-13.2636 c 0,0 7.981,1.331 7.538,-7.094 -0.443,-8.425 -6.651,-12.858 -10.198,-13.302 m 3.5467,15.519 c 0,0 -4.434,3.99 -7.537,-0.443 -3.104,-4.434 -0.836,-6.689 -0.836,-6.689 m -4.9282,-0.8489 c 0,0 2.66,-7.094 8.868,-3.104 6.208,3.991 3.547,6.651 3.547,6.651 m 23.3286,72.951 c 0,-1.196 -0.97,-2.165 -2.165,-2.165 -1.196,0 -2.165,0.969 -2.165,2.165 0,1.196 0.969,2.165 2.165,2.165 1.195,0 2.165,-0.969 2.165,-2.165 m -5.7637,-3.5469 c 0,-1.196 -0.97,-2.165 -2.165,-2.165 -1.196,0 -2.165,0.969 -2.165,2.165 0,1.195 0.969,2.165 2.165,2.165 1.195,0 2.165,-0.97 2.165,-2.165 m 12.4141,0.4434 c 0,-1.196 -0.969,-2.165 -2.165,-2.165 -1.195,0 -2.165,0.969 -2.165,2.165 0,1.196 0.97,2.165 2.165,2.165 1.196,0 2.165,-0.969 2.165,-2.165 m -9.7539,8.4243 c 0,-1.196 -0.97,-2.165 -2.165,-2.165 -1.196,0 -2.165,0.969 -2.165,2.165 0,1.196 0.969,2.165 2.165,2.165 1.195,0 2.165,-0.969 2.165,-2.165 m 8.8672,-0.4434 c 0,-1.196 -0.969,-2.165 -2.165,-2.165 -1.195,0 -2.165,0.969 -2.165,2.165 0,1.196 0.97,2.165 2.165,2.165 1.196,0 2.165,-0.969 2.165,-2.165 M 28.4873,40.6221 c 0,-1.196 -0.969,-2.165 -2.165,-2.165 -1.195,0 -2.165,0.969 -2.165,2.165 0,1.196 0.97,2.165 2.165,2.165 1.196,0 2.165,-0.969 2.165,-2.165 m -5.5419,2.6084 c 0,-1.196 -0.97,-2.165 -2.165,-2.165 -1.196,0 -2.165,0.969 -2.165,2.165 0,1.196 0.969,2.165 2.165,2.165 1.195,0 2.165,-0.969 2.165,-2.165 m -0.6651,-6.8208 c 0,-1.196 -0.97,-2.165 -2.165,-2.165 -1.196,0 -2.165,0.969 -2.165,2.165 0,1.196 0.969,2.165 2.165,2.165 1.195,0 2.165,-0.969 2.165,-2.165 M 10.8037,47.273 c 0,-1.196 -0.969,-2.165 -2.165,-2.165 -1.195,0 -2.165,0.969 -2.165,2.165 0,1.196 0.97,2.165 2.165,2.165 1.196,0 2.165,-0.969 2.165,-2.165 M 4.1016,45.4991 c 0,-1.195 -0.97,-2.165 -2.165,-2.165 -1.196,0 -2.165,0.97 -2.165,2.165 0,1.196 0.969,2.166 2.165,2.166 1.195,0 2.165,-0.97 2.165,-2.166 m 12.4141,6.2075 c 0,-1.196 -0.969,-2.165 -2.165,-2.165 -1.195,0 -2.165,0.969 -2.165,2.165 0,1.196 0.97,2.165 2.165,2.165 1.196,0 2.165,-0.969 2.165,-2.165 m 10.1982,9.7549 c 0,-1.196 -0.97,-2.165 -2.165,-2.165 -1.195,0 -2.165,0.969 -2.165,2.165 0,1.195 0.97,2.165 2.165,2.165 1.195,0 2.165,-0.97 2.165,-2.165 M 15.1856,58.8008 c 0,-1.196 -0.969,-2.165 -2.165,-2.165 -1.195,0 -2.165,0.969 -2.165,2.165 0,1.196 0.97,2.165 2.165,2.165 1.196,0 2.165,-0.969 2.165,-2.165 m -3.5469,5.3208 c 0,-1.196 -0.97,-2.165 -2.165,-2.165 -1.195,0 -2.165,0.969 -2.165,2.165 0,1.196 0.97,2.165 2.165,2.165 1.195,0 2.165,-0.969 2.165,-2.165 M 4.1016,52.5933 c 0,-1.195 -0.97,-2.165 -2.165,-2.165 -1.196,0 -2.165,0.97 -2.165,2.165 0,1.196 0.969,2.165 2.165,2.165 1.195,0 2.165,-0.969 2.165,-2.165 M 14.5205,41.5088 c 0,-1.196 -0.969,-2.165 -2.165,-2.165 -1.195,0 -2.165,0.969 -2.165,2.165 0,1.196 0.97,2.165 2.165,2.165 1.196,0 2.165,-0.969 2.165,-2.165 M 8.0918,38.4053 c 0,-1.196 -0.97,-2.166 -2.165,-2.166 -1.196,0 -2.165,0.97 -2.165,2.166 0,1.195 0.969,2.165 2.165,2.165 1.195,0 2.165,-0.97 2.165,-2.165 m 11.5284,25.6646 c 0,-1.196 -0.97,-2.165 -2.165,-2.165 -1.196,0 -2.165,0.969 -2.165,2.165 0,1.196 0.969,2.165 2.165,2.165 1.195,0 2.165,-0.969 2.165,-2.165 m -9.2598,-10.146 c 0,-1.196 -0.969,-2.165 -2.165,-2.165 -1.195,0 -2.165,0.969 -2.165,2.165 0,1.195 0.97,2.165 2.165,2.165 1.196,0 2.165,-0.97 2.165,-2.165 m -4.042,5.3725 c 0,-1.196 -0.97,-2.165 -2.165,-2.165 -1.196,0 -2.165,0.969 -2.165,2.165 0,1.195 0.969,2.165 2.165,2.165 1.195,0 2.165,-0.97 2.165,-2.165 m 8.8672,-23.9951 c 0,-1.196 -0.969,-2.165 -2.165,-2.165 -1.195,0 -2.165,0.969 -2.165,2.165 0,1.196 0.97,2.165 2.165,2.165 1.196,0 2.165,-0.969 2.165,-2.165 m -51.7652,87.0737 c 0.421,1.523 17.279,39.991 58.58,50.655 m -53.1869,-60.5734 c 0,0 -1.526,1.996 0.643,4.526 5.663,6.605 9.781,0.978 13.128,4.893 4.614,5.397 -3.089,9.297 3.346,13.701 6.435,4.403 8.237,-2.203 14.414,0.978 6.178,3.18 -2.316,8.807 4.376,13.211 4.559,3 9.524,-4.648 14.672,-2.446 5.148,2.201 -1.119,9.111 6.435,11.743 7.722,2.691 5.663,-5.627 14.157,-4.159 8.494,1.468 2.059,8.563 10.039,8.807 8.762,0.269 5.877,-6.289 11.582,-6.605 4.732,-0.262 6.47,2.177 6.95,2.691 M -75.3759,47.3316 c 0,-2.754 -2.233,-4.988 -4.988,-4.988 -2.755,0 -4.989,2.234 -4.989,4.988 0,2.755 2.234,4.988 4.989,4.988 2.755,0 4.988,-2.233 4.988,-4.988 z m 0,0 c 0,-2.754 -2.233,-4.988 -4.988,-4.988 -2.755,0 -4.989,2.234 -4.989,4.988 0,2.755 2.234,4.988 4.989,4.988 2.755,0 4.988,-2.233 4.988,-4.988 M -152.2797,6.9038 c 0,-2.755 -2.233,-4.988 -4.988,-4.988 -2.755,0 -4.988,2.233 -4.988,4.988 0,2.755 2.233,4.988 4.988,4.988 2.755,0 4.988,-2.233 4.988,-4.988 z m 0,0 c 0,-2.755 -2.233,-4.988 -4.988,-4.988 -2.755,0 -4.988,2.233 -4.988,4.988 0,2.755 2.233,4.988 4.988,4.988 2.755,0 4.988,-2.233 4.988,-4.988 m 120.54,37.5503 c 0,-6.428 -5.211,-11.639 -11.639,-11.639 -6.428,0 -11.639,5.211 -11.639,11.639 0,6.428 5.211,11.639 11.639,11.639 6.428,0 11.639,-5.211 11.639,-11.639 z m 0,0 c 0,-6.428 -5.211,-11.639 -11.639,-11.639 -6.428,0 -11.639,5.211 -11.639,11.639 0,6.428 5.211,11.639 11.639,11.639 6.428,0 11.639,-5.211 11.639,-11.639 m -67.6904,62.2915 c 0,-4.775 -3.871,-8.646 -8.646,-8.646 -4.775,0 -8.646,3.871 -8.646,8.646 0,4.775 3.871,8.646 8.646,8.646 4.775,0 8.646,-3.871 8.646,-8.646 z m 0,0 c 0,-4.775 -3.871,-8.646 -8.646,-8.646 -4.775,0 -8.646,3.871 -8.646,8.646 0,4.775 3.871,8.646 8.646,8.646 4.775,0 8.646,-3.871 8.646,-8.646 m 21.2827,-173.5864 c 0,-4.041 -3.275,-7.316 -7.316,-7.316 -4.04,0 -7.316,3.275 -7.316,7.316 0,4.041 3.276,7.316 7.316,7.316 4.041,0 7.316,-3.275 7.316,-7.316 z m 0,0 c 0,-4.041 -3.275,-7.316 -7.316,-7.316 -4.04,0 -7.316,3.275 -7.316,7.316 0,4.041 3.276,7.316 7.316,7.316 4.041,0 7.316,-3.275 7.316,-7.316 m 26.936,56.5322 c 0,0 8.979,7.981 32.921,17.957 25.95,10.812 99.763,21.283 125.036,-41.235 m -138.061,145.4314 c 2.316,1.468 39.897,53.823 99.356,47.952 M 9.3106,86.461 c 0,-7.897 -6.401,-14.299 -14.299,-14.299 -7.897,0 -14.299,6.402 -14.299,14.299 0,7.897 6.402,14.299 14.299,14.299 7.898,0 14.299,-6.402 14.299,-14.299 z m 0,0 c 0,-7.897 -6.401,-14.299 -14.299,-14.299 -7.897,0 -14.299,6.402 -14.299,14.299 0,7.897 6.402,14.299 14.299,14.299 7.898,0 14.299,-6.402 14.299,-14.299 m 63.5156,-211.1636 c 0,0 -71.496,-62.518 -159.952,-18.622 m 95.4393,45.2255 c -7.981,6.65 3.658,20.617 13.302,13.301 7.207,-5.467 12.636,-33.254 -24.609,-46.556 -37.244,-13.301 -81.14,-7.98 -81.14,-7.98 0,0 76.818,-13.635 122.708,14.964 39.921,24.877 34.635,49.58 24.608,53.207 -15.63,5.653 -18.955,-13.635 -12.969,-18.956 5.986,-5.32 10.309,0.333 10.309,0.333 m -163.9429,-56.8647 c 0,0 12.637,-1.33 18.622,6.651 5.986,7.981 3.535,23.829 20.618,43.896 20.95,24.608 33.919,21.282 33.919,21.282 0,0 5.32,-13.967 -17.292,-36.579 -15.718,-15.718 -38.575,-29.264 -35.249,-28.599 3.325,0.665 57.861,45.226 70.498,30.594 13.392,-15.506 -68.503,-30.594 -68.503,-30.594 -2.254,1.073 -14.2,10.023 -22.613,-6.651 z m 32.5889,185.5581 c 0,0 -39.905,-19.952 -51.211,-79.145 m 35.9141,-103.087 c -9.976,15.297 0.998,83.8 61.853,107.743 m -48.5512,118.052 c 0,0 -62.518,-80.808 -48.551,-170.594 13.967,-89.786 102.481,-101.821 130.688,-101.092 38.575,0.998 76.485,15.962 95.773,37.91 M -16.3574,43.1021 c 0,-14.912 -12.088,-27 -27,-27 -14.912,0 -27,12.088 -27,27 0,14.912 12.088,27 27,27 14.912,0 27,-12.088 27,-27 z m 0,0 c 0,-14.912 -12.088,-27 -27,-27 -14.912,0 -27,12.088 -27,27 0,14.912 12.088,27 27,27 14.912,0 27,-12.088 27,-27 m -40.3642,-64.7344 c 0,-12.92 -10.623,-23.393 -23.726,-23.393 -13.103,0 -23.726,10.473 -23.726,23.393 0,12.919 10.623,23.393 23.726,23.393 13.103,0 23.726,-10.474 23.726,-23.393 z m 0,0 c 0,-12.92 -10.623,-23.393 -23.726,-23.393 -13.103,0 -23.726,10.473 -23.726,23.393 0,12.919 10.623,23.393 23.726,23.393 13.103,0 23.726,-10.474 23.726,-23.393 m -0.1905,-0.1362 c 0,-12.919 -10.623,-23.393 -23.726,-23.393 -13.103,0 -23.726,10.474 -23.726,23.393 0,12.919 10.623,23.393 23.726,23.393 13.103,0 23.726,-10.474 23.726,-23.393 z m 0,0 c 0,-12.919 -10.623,-23.393 -23.726,-23.393 -13.103,0 -23.726,10.474 -23.726,23.393 0,12.919 10.623,23.393 23.726,23.393 13.103,0 23.726,-10.474 23.726,-23.393 m 20.4478,125.189 c 0,-12.919 -10.623,-23.393 -23.726,-23.393 -13.103,0 -23.726,10.474 -23.726,23.393 0,12.919 10.623,23.393 23.726,23.393 13.103,0 23.726,-10.474 23.726,-23.393 z m 0,0 c 0,-12.919 -10.623,-23.393 -23.726,-23.393 -13.103,0 -23.726,10.474 -23.726,23.393 0,12.919 10.623,23.393 23.726,23.393 13.103,0 23.726,-10.474 23.726,-23.393 M -98.7246,70.8853 c 0,-12.919 -10.622,-23.393 -23.726,-23.393 -13.103,0 -23.726,10.474 -23.726,23.393 0,12.919 10.623,23.393 23.726,23.393 13.104,0 23.726,-10.474 23.726,-23.393 z m 0,0 c 0,-12.919 -10.622,-23.393 -23.726,-23.393 -13.103,0 -23.726,10.474 -23.726,23.393 0,12.919 10.623,23.393 23.726,23.393 13.104,0 23.726,-10.474 23.726,-23.393 M 35.084,50.1548 c 0,-11.083 -8.984,-20.068 -20.068,-20.068 -11.083,0 -20.068,8.985 -20.068,20.068 0,11.083 8.985,20.068 20.068,20.068 11.084,0 20.068,-8.985 20.068,-20.068 z m 0,0 c 0,-11.083 -8.984,-20.068 -20.068,-20.068 -11.083,0 -20.068,8.985 -20.068,20.068 0,11.083 8.985,20.068 20.068,20.068 11.084,0 20.068,-8.985 20.068,-20.068 M 13.75,-25.2729 c 0,-11.083 -8.985,-20.068 -20.068,-20.068 -11.084,0 -20.069,8.985 -20.069,20.068 0,11.083 8.985,20.068 20.069,20.068 11.083,0 20.068,-8.985 20.068,-20.068 z m 0,0 c 0,-11.083 -8.985,-20.068 -20.068,-20.068 -11.084,0 -20.069,8.985 -20.069,20.068 0,11.083 8.985,20.068 20.069,20.068 11.083,0 20.068,-8.985 20.068,-20.068 m -109.8545,-157.292 c 0,0 6.187,5.411 6.445,14.012 0.257,8.6 -7.436,17.655 -7.436,17.655 0,0 -5.664,-9.516 -5.206,-15.771 0.459,-6.255 6.197,-15.896 6.197,-15.896 z m -51.2553,149.063 c 0,0 2.281,7.897 -2.152,15.272 -4.433,7.375 -15.799,10.833 -15.799,10.833 0,0 0.378,-11.067 4.145,-16.082 3.767,-5.014 13.806,-10.023 13.806,-10.023 z m 0,0 c 0,0 2.281,7.897 -2.152,15.272 -4.433,7.375 -15.799,10.833 -15.799,10.833 0,0 0.378,-11.067 4.145,-16.082 3.767,-5.014 13.806,-10.023 13.806,-10.023 m 61.2314,187.3359 c 0,0 -10.024,-10.624 -12.969,-18.822 -2.945,-8.199 4.055,-22.341 4.055,-22.341 0,0 8.993,5.237 12.122,17.095 3.13,11.858 -3.208,24.068 -3.208,24.068 z m 0,0 c 0,0 -10.024,-10.624 -12.969,-18.822 -2.945,-8.199 4.055,-22.341 4.055,-22.341 0,0 8.993,5.237 12.122,17.095 3.13,11.858 -3.208,24.068 -3.208,24.068 m -53.8984,-230.937 c 0,0 -14.528,-1.509 -22.11,-5.8 -7.581,-4.291 -11.505,-19.574 -11.505,-19.574 0,0 10.231,-1.899 20.34,5.043 10.11,6.942 13.275,20.331 13.275,20.331 z m 0,0 c 0,0 -14.528,-1.509 -22.11,-5.8 -7.581,-4.291 -11.505,-19.574 -11.505,-19.574 0,0 10.231,-1.899 20.34,5.043 10.11,6.942 13.275,20.331 13.275,20.331 m -0.3247,18.3057 c 0,0 -7.572,14.026 -17.674,21.737 -10.101,7.711 -33.599,3.933 -33.599,3.933 0,0 3.147,-19.581 16.912,-27.294 13.765,-7.713 34.361,1.624 34.361,1.624 z m 0,0 c 0,0 -7.572,14.026 -17.674,21.737 -10.101,7.711 -33.599,3.933 -33.599,3.933 0,0 3.147,-19.581 16.912,-27.294 13.765,-7.713 34.361,1.624 34.361,1.624 m 40.5888,20.5552 c 0,0 -43.278,-113.994 68.171,-129.026 95.329,-12.858 151.846,59.584 153.855,95.772 1.33,23.943 -10.421,23.944 -11.527,24.386 M -131.354,47.8863 c -0.893,2.398 -47.293,-198.594 104.75,-224.133 90.523,-15.205 142.253,51.641 155.519,81.251 6.091,13.596 5.32,30.151 5.32,30.151"
             style="fill:none;stroke:#231f20;stroke-width:1;stroke-linecap:butt;stroke-linejoin:miter;stroke-miterlimit:10;stroke-dasharray:none;stroke-opacity:1"
             id="path2303" />
        </g>
      </g>
    </g>
  </g>
</svg>
