<?xml version="1.0" encoding="UTF-8" standalone="no"?>
<svg
   xmlns:dc="http://purl.org/dc/elements/1.1/"
   xmlns:cc="http://creativecommons.org/ns#"
   xmlns:rdf="http://www.w3.org/1999/02/22-rdf-syntax-ns#"
   xmlns:svg="http://www.w3.org/2000/svg"
   xmlns="http://www.w3.org/2000/svg"
   xmlns:sodipodi="http://sodipodi.sourceforge.net/DTD/sodipodi-0.dtd"
   xmlns:inkscape="http://www.inkscape.org/namespaces/inkscape"
   width="210mm"
   height="297mm"
   viewBox="0 0 210 297"
   xml:space="preserve"
   version="1.1"
   id="svg15"
   sodipodi:docname="bowl wall 2-0.svg"
   inkscape:version="1.0.1 (3bc2e813f5, 2020-09-07)"><metadata
   id="metadata21"><rdf:RDF><cc:Work
       rdf:about=""><dc:format>image/svg+xml</dc:format><dc:type
         rdf:resource="http://purl.org/dc/dcmitype/StillImage" /></cc:Work></rdf:RDF></metadata><defs
   id="defs19">


</defs><sodipodi:namedview
   pagecolor="#ffffff"
   bordercolor="#666666"
   borderopacity="1"
   objecttolerance="10"
   gridtolerance="10"
   guidetolerance="10"
   inkscape:pageopacity="0"
   inkscape:pageshadow="2"
   inkscape:window-width="1440"
   inkscape:window-height="897"
   id="namedview17"
   showgrid="false"
   inkscape:zoom="1.1339286"
   inkscape:cx="396.85039"
   inkscape:cy="530.34523"
   inkscape:window-x="-8"
   inkscape:window-y="-8"
   inkscape:window-maximized="1"
   inkscape:current-layer="svg15"
   inkscape:document-rotation="0" />

<style
   type="text/css"
   id="style2">
    .stc{fill:none;stroke:#000000;stroke-miterlimit:10;stroke-dasharray:3.988,3.988;}
</style>






<g
   id="g850"><g
     id="g5"
     transform="translate(-43.353625,-20.419712)">
<path
   id="BOTTOM_CUT"
   style="fill:#00bde4"
   d="m 131.40954,122.25204 -0.0258,5.32939 -3.69073,-3.84628 -6.25956,6.25957 3.75067,3.78633 -5.32939,-0.11007 v 8.85217 l 5.32939,0.0253 -3.84628,3.69125 6.25957,6.25905 3.78633,-3.75068 -0.11007,5.32991 h 8.85218 l 0.0253,-5.32991 3.69124,3.8468 6.25905,-6.25957 -3.75067,-3.78685 5.3299,0.11059 v -8.85269 l -5.3299,-0.0253 3.84679,-3.69073 -6.25957,-6.25957 -3.78633,3.75016 0.11007,-5.32887 z" />
<path
   d="m 125.18454,133.78047 6.19956,-6.19956 h 8.76755 l 6.19956,6.19956 v 8.76755 l -6.19956,6.19956 h -8.76755 l -6.19956,-6.19956 z"
   id="BOTTOM_SCORE"
   class="stc" /></g><g
     id="g13"
     transform="translate(33.638082,19.601936)">
<path
   id="WALL2_CUT"
   style="fill:#00bde4"
   d="m 49.80161,120.52959 c 5.063601,8.77053 10.127202,17.54105 15.190803,26.31157 2.922474,0 5.84495,0 8.767424,0 1.461238,2.53094 2.922474,5.06188 4.383712,7.59282 -1.461238,2.53094 -2.922474,5.06188 -4.383712,7.59282 -4.375481,0.0443 -8.767956,-0.21965 -13.107289,0.4801 -1.190212,0.0162 -2.30973,0.1418 -2.654564,1.46542 -3.369469,5.71166 -6.738935,11.42331 -10.108401,17.13497 0.637341,2.41036 1.274685,4.82072 1.912027,7.23108 13.049501,-3.5e-4 26.100413,7.1e-4 39.149033,-5.3e-4 6.525003,-11.30119 13.049797,-22.60251 19.574517,-33.90387 -6.5248,-11.30148 -13.049715,-22.6029 -19.574517,-33.90439 -13.049679,0 -26.099355,0 -39.149033,1e-5 z" />
<path
   id="WALL2_SCORE"
   class="stc"
   d="m 88.950643,120.52959 -15.1908,26.31157 z m -10.80709,33.90439 h 30.381607 z m -13.15114,7.59282 -15.1908,26.31157 z m 8.76743,0 15.1908,26.31105 z" />
</g><g
     id="g853"
     transform="translate(17.266666,34.999999)"><path
       id="WALL1_CUT"
       style="display:inline;fill:#00bde4;stroke-width:1"
       d="m 11.57285,99.06503 c 5.063598,8.77052 10.127201,17.54105 15.190803,26.31157 2.922475,0 5.844949,0 8.767424,0 1.461237,2.53094 2.922474,5.06188 4.383711,7.59282 -1.461237,2.53094 -2.922474,5.06188 -4.383711,7.59282 -4.919175,0.0191 -9.906744,-0.21857 -14.751537,0.7223 -2.321999,2.6584 -3.73399,6.26094 -5.748619,9.25501 -1.494697,3.36548 -4.818592,6.47834 -5.131098,10.00706 1.115353,2.70888 0.455541,7.72333 4.731528,6.32716 12.030176,-7e-5 24.060353,7.3e-4 36.090529,-4.9e-4 6.525005,-11.30119 13.049796,-22.60251 19.574515,-33.90387 -4.015536,-6.95463 -8.030293,-13.91052 -12.046305,-20.86436 -3.512096,-1.16482 -6.592745,1.8833 -8.818927,4.20589 -4.223642,3.71294 -1.601814,11.76327 3.919899,12.52484 3.755448,0.89329 8.103609,-2.80909 6.642507,-6.70388 -0.194082,-3.09119 -6.596312,-3.22093 -4.998578,0.0718 3.121752,-0.28017 -1.576833,2.69979 -1.527559,-0.61656 0.08583,-3.99751 6.346914,-3.75526 7.371127,-0.31161 2.048749,4.12057 -1.874902,8.95429 -6.23581,8.75011 -5.604402,0.26466 -9.541482,-5.93887 -8.082003,-11.06241 1.306034,-5.36488 3.665594,-10.49295 7.139956,-14.80811 -1.561871,-1.7477 -1.836761,-5.724576 -4.773949,-5.090123 -12.437937,4.8e-5 -24.876119,-1.08e-4 -37.313903,7.3e-5 z m 43.561163,23.21926 0.0078,0.006 z" /><path
       id="WALL1_SCORE"
       class="stc"
       d="m 50.722059,99.064861 -15.1908,26.311569 z m -10.80709,33.904389 h 30.381607 z m -13.15114,7.59282 -15.1908,26.31157 z m 8.76743,0 15.1908,26.31105 z"
       style="display:inline" /></g><path
     id="path857"
     style="display:inline;fill:#00bde4;stroke-width:1"
     d="m 128.64681,135.68192 c 5.0637,8.77047 10.1274,17.54093 15.1911,26.3114 2.92248,0 5.84495,10e-6 8.76743,10e-6 5.0636,-8.77041 10.12719,-17.54083 15.19079,-26.31124 -8.03073,7e-5 -16.06147,1.4e-4 -24.0922,2.1e-4 -2.09213,1.67331 -1.89969,4.69919 -1.45856,7.06949 0.37175,1.70153 0.81012,3.44181 1.61664,4.98509 2.51099,3.16551 7.61877,4.16578 10.86621,1.54864 2.73785,-2.02251 3.49751,-6.60588 0.8099,-8.98575 -1.6027,-1.51923 -4.68073,-1.73477 -5.93638,0.32995 -1.01871,1.04705 -0.098,3.74583 1.31459,2.76171 0.0807,-2.18734 2.29688,0.8368 0.30563,1.19146 -1.72692,0.79612 -3.45288,-1.15088 -3.12243,-2.84061 0.1827,-2.78316 3.38737,-4.37704 5.87397,-3.52708 3.32675,0.85362 5.11731,4.76909 4.09068,7.94604 -0.98346,3.92526 -5.2796,6.36112 -9.173,5.63169 -2.49045,-0.35896 -4.70656,-1.81766 -6.2649,-3.75464 -3.57861,-3.44645 -6.25651,-7.76171 -8.10186,-12.35638 -1.95919,-4e-5 -3.91847,1.1e-4 -5.87761,1e-5 z m 22.31454,7.7886 c 0.006,0.0434 0.022,-0.0236 0,0 z" /></g></svg>
