<?xml version="1.0" encoding="UTF-8" standalone="no"?>
<!-- Created with Inkscape (http://www.inkscape.org/) -->

<svg
   width="210mm"
   height="297mm"
   viewBox="0 0 210 297"
   version="1.1"
   id="svg1"
   xml:space="preserve"
   inkscape:version="1.3.2 (091e20e, 2023-11-25, custom)"
   sodipodi:docname="cleaver.svg"
   xmlns:inkscape="http://www.inkscape.org/namespaces/inkscape"
   xmlns:sodipodi="http://sodipodi.sourceforge.net/DTD/sodipodi-0.dtd"
   xmlns="http://www.w3.org/2000/svg"
   xmlns:svg="http://www.w3.org/2000/svg"><sodipodi:namedview
     id="namedview1"
     pagecolor="#ffffff"
     bordercolor="#666666"
     borderopacity="1.0"
     inkscape:showpageshadow="2"
     inkscape:pageopacity="0.0"
     inkscape:pagecheckerboard="0"
     inkscape:deskcolor="#d1d1d1"
     inkscape:document-units="mm"
     inkscape:zoom="0.67648502"
     inkscape:cx="816.72171"
     inkscape:cy="345.90566"
     inkscape:window-width="2160"
     inkscape:window-height="1346"
     inkscape:window-x="-11"
     inkscape:window-y="-11"
     inkscape:window-maximized="1"
     inkscape:current-layer="layer1" /><defs
     id="defs1" /><g
     inkscape:label="Layer 1"
     inkscape:groupmode="layer"
     id="layer1"><g
       id="g2"
       transform="matrix(0.44546039,0.44546039,-0.44546039,0.44546039,108.59625,92.476061)"><path
         style="font-variation-settings:normal;display:inline;opacity:1;vector-effect:none;fill:#8c8c8a;fill-opacity:1;stroke:none;stroke-width:0.499999;stroke-linecap:butt;stroke-linejoin:miter;stroke-miterlimit:4;stroke-dasharray:none;stroke-dashoffset:0;stroke-opacity:1;-inkscape-stroke:none;stop-color:#000000;stop-opacity:1"
         d="m 12.289741,166.05899 c 0,0 -3.8343989,29.1021 21.728264,42.96493 25.56266,13.86283 36.770905,5.89908 36.770905,5.89908 l 86.71641,-89.76427 c 0,0 -13.96114,-18.58209 -11.89646,-24.77612 2.06467,-6.194032 7.6688,-9.045251 7.6688,-9.045251 L 141.77446,79.539207 54.763087,163.30608 c 0,0 -17.139279,16.31825 -42.473346,2.75291 z"
         id="path1"
         sodipodi:nodetypes="csccscccc" /><path
         style="font-variation-settings:normal;opacity:1;vector-effect:none;fill:#8c4e00;fill-opacity:1;stroke:none;stroke-width:0.499999;stroke-linecap:butt;stroke-linejoin:miter;stroke-miterlimit:4;stroke-dasharray:none;stroke-dashoffset:0;stroke-opacity:1;-inkscape-stroke:none;stop-color:#000000;stop-opacity:1"
         d="m 129.77967,90.452497 c 0,0 5.01439,6.981203 7.8165,7.767477 2.7857,0.78167 7.12782,4.128996 7.12782,4.128996 0,0 3.73608,-9.73348 8.94694,-11.208249 5.21085,-1.474769 19.07367,-17.697228 19.17199,-19.270313 0.0983,-1.573088 6.19403,-5.997395 12.28974,-6.292348 6.09571,-0.294954 7.47217,0.884862 7.47217,0.884862 0,0 7.27552,1.868041 6.09571,-3.637764 -1.17982,-5.505804 -4.12935,-9.438521 -7.17721,-11.699835 -3.04786,-2.261312 -13.07629,-6.587299 -19.86022,-0.884859 -6.78394,5.702437 -41.88344,40.212033 -41.88344,40.212033 z"
         id="path2"
         sodipodi:nodetypes="cscssscsssc" /></g></g></svg>
