<?xml version="1.0" encoding="UTF-8" standalone="no"?>
<!-- Created with Inkscape (http://www.inkscape.org/) -->

<svg
   width="210mm"
   height="297mm"
   viewBox="0 0 210 297"
   version="1.1"
   id="svg5"
   inkscape:version="1.1 (c68e22c387, 2021-05-23)"
   sodipodi:docname="cobblestone.svg"
   xmlns:inkscape="http://www.inkscape.org/namespaces/inkscape"
   xmlns:sodipodi="http://sodipodi.sourceforge.net/DTD/sodipodi-0.dtd"
   xmlns="http://www.w3.org/2000/svg"
   xmlns:svg="http://www.w3.org/2000/svg">
  <sodipodi:namedview
     id="namedview7"
     pagecolor="#ffffff"
     bordercolor="#111111"
     borderopacity="1"
     inkscape:pageshadow="0"
     inkscape:pageopacity="0"
     inkscape:pagecheckerboard="1"
     inkscape:document-units="mm"
     showgrid="false"
     inkscape:snap-bbox="false"
     inkscape:snap-midpoints="true"
     inkscape:zoom="0.42205188"
     inkscape:cx="544.9567"
     inkscape:cy="709.6284"
     inkscape:window-width="1440"
     inkscape:window-height="897"
     inkscape:window-x="-8"
     inkscape:window-y="-8"
     inkscape:window-maximized="1"
     inkscape:current-layer="layer3" />
  <defs
     id="defs2">
    <inkscape:path-effect
       effect="skeletal"
       id="path-effect7463"
       is_visible="true"
       lpeversion="1"
       pattern="#rect846-2"
       copytype="repeated_stretched"
       prop_scale="1"
       scale_y_rel="false"
       spacing="0"
       normal_offset="0"
       tang_offset="0"
       prop_units="false"
       vertical_pattern="false"
       hide_knot="false"
       fuse_tolerance="0" />
    <inkscape:path-effect
       effect="skeletal"
       id="path-effect7396"
       is_visible="true"
       lpeversion="1"
       pattern="#rect846-2"
       copytype="repeated_stretched"
       prop_scale="1"
       scale_y_rel="false"
       spacing="0"
       normal_offset="0"
       tang_offset="0"
       prop_units="false"
       vertical_pattern="false"
       hide_knot="false"
       fuse_tolerance="0" />
    <inkscape:path-effect
       effect="skeletal"
       id="path-effect5831"
       is_visible="true"
       lpeversion="1"
       pattern="#path6605"
       copytype="repeated"
       prop_scale="1"
       scale_y_rel="false"
       spacing="0"
       normal_offset="0"
       tang_offset="0"
       prop_units="false"
       vertical_pattern="false"
       hide_knot="false"
       fuse_tolerance="0" />
    <inkscape:path-effect
       effect="skeletal"
       id="path-effect5391"
       is_visible="true"
       lpeversion="1"
       pattern="m 70.455618,115.50057 h -12.70001 m -12.699998,25.4 h -12.7 m 12.7,-12.7 h 25.399998 v 12.7 H 45.05561 Z m -12.700006,-12.7 h 25.400004 v 12.7 H 32.355604 Z"
       copytype="repeated_stretched"
       prop_scale="1"
       scale_y_rel="false"
       spacing="0"
       normal_offset="0"
       tang_offset="0"
       prop_units="false"
       vertical_pattern="false"
       hide_knot="false"
       fuse_tolerance="0" />
    <inkscape:path-effect
       effect="skeletal"
       id="path-effect2476"
       is_visible="true"
       lpeversion="1"
       pattern="#rect846-0"
       copytype="repeated_stretched"
       prop_scale="1"
       scale_y_rel="false"
       spacing="0"
       normal_offset="0"
       tang_offset="0.5"
       prop_units="true"
       vertical_pattern="false"
       hide_knot="false"
       fuse_tolerance="0" />
    <inkscape:path-effect
       effect="skeletal"
       id="path-effect2433"
       is_visible="true"
       lpeversion="1"
       pattern="#rect846"
       copytype="repeated_stretched"
       prop_scale="1"
       scale_y_rel="false"
       spacing="0"
       normal_offset="0"
       tang_offset="0"
       prop_units="false"
       vertical_pattern="false"
       hide_knot="false"
       fuse_tolerance="0" />
    <inkscape:path-effect
       effect="skeletal"
       id="path-effect2230"
       is_visible="true"
       lpeversion="1"
       pattern="#rect846"
       copytype="repeated_stretched"
       prop_scale="1"
       scale_y_rel="false"
       spacing="0"
       normal_offset="0"
       tang_offset="0"
       prop_units="false"
       vertical_pattern="false"
       hide_knot="false"
       fuse_tolerance="0" />
    <inkscape:path-effect
       effect="skeletal"
       id="path-effect1539"
       is_visible="true"
       lpeversion="1"
       pattern="#rect846"
       copytype="repeated"
       prop_scale="1"
       scale_y_rel="false"
       spacing="0"
       normal_offset="-13.1"
       tang_offset="0"
       prop_units="false"
       vertical_pattern="false"
       hide_knot="false"
       fuse_tolerance="0" />
    <inkscape:path-effect
       effect="skeletal"
       id="path-effect1521"
       is_visible="true"
       lpeversion="1"
       pattern="M 0,0 H 1"
       copytype="single_stretched"
       prop_scale="1"
       scale_y_rel="false"
       spacing="0"
       normal_offset="0"
       tang_offset="0"
       prop_units="false"
       vertical_pattern="false"
       hide_knot="false"
       fuse_tolerance="0" />
    <inkscape:path-effect
       effect="skeletal"
       id="path-effect1299"
       is_visible="true"
       lpeversion="1"
       pattern="M 0,0 H 0.26458333"
       copytype="single_stretched"
       prop_scale="1"
       scale_y_rel="false"
       spacing="0"
       normal_offset="0"
       tang_offset="0"
       prop_units="false"
       vertical_pattern="false"
       hide_knot="false"
       fuse_tolerance="0" />
    <inkscape:path-effect
       effect="skeletal"
       id="path-effect1297"
       is_visible="true"
       lpeversion="1"
       pattern="M 0,0 H 1"
       copytype="single_stretched"
       prop_scale="1"
       scale_y_rel="false"
       spacing="0"
       normal_offset="0"
       tang_offset="0"
       prop_units="false"
       vertical_pattern="false"
       hide_knot="false"
       fuse_tolerance="0" />
  </defs>
  <g
     inkscape:label="layer"
     inkscape:groupmode="layer"
     id="layer1"
     style="display:none">
    <path
       id="rect846"
       style="fill:#ffffff;stroke:#000000;stroke-width:0.4"
       d="m 314.27392,-14.513639 h 25.4 v 12.6999996 h -25.4 z" />
    <path
       id="rect846-0"
       style="display:inline;fill:#ffffff;stroke:#000000;stroke-width:0.377824"
       d="m 278.04897,6.789791 h 22.62217 v 12.72218 h -22.62217 z" />
    <path
       id="path1068-1"
       style="display:none;fill:none;stroke:#000000;stroke-width:0.4"
       d="m 272.41667,162.97942 a 146.05,146.05 0 0 1 -73.025,126.48302 146.05,146.05 0 0 1 -146.050003,-1e-5 146.05,146.05 0 0 1 -73.024998,-126.48301 m 292.100001,0 a 146.05,146.05 0 0 0 -73.025,-126.483012 146.05,146.05 0 0 0 -146.050003,10e-6 146.05,146.05 0 0 0 -73.024998,126.483002"
       inkscape:label="outside circle" />
    <path
       id="path1068-1-7"
       style="display:none;fill:none;stroke:#000000;stroke-width:0.328341"
       d="M 246.2525,162.97942 A 119.88583,119.88583 0 0 1 186.30959,266.8036 119.88583,119.88583 0 0 1 66.423753,266.80359 119.88583,119.88583 0 0 1 6.4808396,162.97942 m 239.7716604,0 A 119.88583,119.88583 0 0 0 186.30959,59.155249 119.88583,119.88583 0 0 0 66.423753,59.155257 119.88583,119.88583 0 0 0 6.4808396,162.97942"
       inkscape:label="inside circle" />
    <path
       id="path1068-1-7-4"
       style="display:none;fill:none;stroke:#000000;stroke-width:0.36417"
       d="M 259.33458,162.97943 A 132.96792,132.96792 0 0 1 192.85063,278.13302 132.96792,132.96792 0 0 1 59.882712,278.13301 132.96792,132.96792 0 0 1 -6.6012435,162.97943 m 265.9358235,0 A 132.96792,132.96792 0 0 0 192.85063,47.825831 132.96792,132.96792 0 0 0 59.882712,47.825841 132.96792,132.96792 0 0 0 -6.6012435,162.97943"
       inkscape:label="middle circle" />
    <path
       id="path1068-1-3"
       style="display:inline;fill:none;stroke:#000000;stroke-width:0.346256"
       d="m 258.85584,174.86264 c -0.76001,7.9112 -2.25392,15.72992 -4.42244,23.35341 l -12.21004,-3.47797 c 1.9683,-6.89955 3.31959,-13.96109 3.99455,-21.08187 z m -4.42244,23.35341 c -2.16851,7.62349 -5.01162,15.05175 -8.47001,22.18205 l -11.43665,-5.55003 c 3.143,-6.47286 5.72832,-13.21043 7.69662,-20.10999 z m -8.47001,22.18205 c -3.45839,7.1303 -7.53206,13.96263 -12.16169,20.39426 l -10.31777,-7.42263 c 4.19909,-5.84067 7.8998,-12.04881 11.04281,-18.52166 z m -12.16169,20.39426 c -4.62964,6.43163 -9.81524,12.46256 -15.49749,17.99004 l -8.85338,-9.09574 c 5.13654,-5.00303 9.83401,-10.47625 14.0331,-16.31693 z m -15.49749,17.99004 c -5.68225,5.52749 -11.86115,10.55154 -18.47738,14.96942 l -7.0435,-10.56939 c 5.95536,-3.95991 11.53096,-8.49274 16.6675,-13.49577 z m -18.47738,14.96942 c -2.21278,1.47754 -4.47448,2.88728 -6.78288,4.22538 -4.60293,2.64687 -9.35912,4.99173 -14.23359,7.03456 l -4.90941,-11.70373 c 4.39057,-1.84362 8.66287,-3.95981 12.78192,-6.34857 2.07448,-1.19236 4.10871,-2.45265 6.10046,-3.77703 z m -21.01647,11.25994 c -7.32394,3.06937 -14.91489,5.45691 -22.65423,7.16262 l -2.72826,-12.40222 c 7.01229,-1.53937 13.87619,-3.69408 20.47308,-6.46413 z m -22.65423,7.16262 c -7.73934,1.70571 -15.62707,2.72959 -23.54455,3.07164 l -0.5471,-12.70176 c 7.19043,-0.3087 14.3511,-1.23273 21.36339,-2.7721 z m -23.54455,3.07164 c -7.91748,0.34205 -15.86472,0.002 -23.72309,-1.01935 l 1.63406,-12.60236 c 7.13131,0.92199 14.3515,1.22864 21.54193,0.91995 z m -23.72309,-1.01935 c -7.85836,-1.02161 -15.627847,-2.72505 -23.189837,-5.11033 l 3.81521,-12.10401 c 6.83494,2.15267 13.877377,3.69 21.008687,4.61198 z m -23.189837,-5.11033 c -7.56198,-2.38528 -14.916465,-5.45238 -21.944811,-9.20132 l 5.996367,-11.2067 c 6.301294,3.38334 12.928724,6.15135 19.763654,8.30401 z m -21.944811,-9.20132 c -1.175249,-0.62688 -2.341378,-1.27282 -3.497834,-1.93783 -5.747987,-3.3319 -11.206427,-7.10804 -16.341062,-11.26906 l 7.988618,-9.85995 c 4.632062,3.75204 9.547992,7.14225 14.713534,10.11127 1.034881,0.60016 2.079436,1.18312 3.133111,1.74887 z M 43.914946,266.70813 C 37.749322,261.71161 32.050593,256.16011 26.878072,250.15637 l 9.626328,-8.2869 c 4.684201,5.44615 9.837027,10.47329 15.399164,14.97871 z M 26.878072,250.15637 c -5.172521,-6.00374 -9.818832,-12.45972 -13.87962,-19.26521 l 10.918539,-6.51437 c 3.687634,6.1814 7.903209,12.04654 12.587409,17.49268 z M 12.998452,230.89116 C 8.9376635,224.08568 5.4624005,216.93069 2.6319765,209.52893 l 11.8652525,-4.54238 c 2.572436,6.71118 5.732129,13.20884 9.419762,19.39024 z M 2.6319765,209.52893 c -2.830424,-7.40176 -5.016008,-15.05028 -6.497438,-22.84284 l 12.466465,-2.3709 c 1.338609,7.03548 3.3237895,13.96018 5.8962255,20.67136 z m -6.497438,-22.84284 c -1.48143,-7.79255 -2.258706,-15.72914 -2.272511,-23.70702 l 12.72218,4e-5 c -0.01385,7.15432 0.678188,14.30059 2.016796,21.33608 z M 246.2179,152.30265 c -0.67496,-7.12077 -2.02625,-14.1823 -3.99454,-21.08185 l 12.21004,-3.47797 c 2.16851,7.62348 3.66243,15.44219 4.42244,23.35339 z m -3.99454,-21.08185 c -1.9683,-6.89955 -4.55361,-13.63712 -7.69662,-20.10996 l 11.43666,-5.55004 c 3.45838,7.13029 6.30149,14.55855 8.47,22.18203 z m -7.69662,-20.10996 c -3.143,-6.47285 -6.84371,-12.680981 -11.04279,-18.521651 l 10.31777,-7.42263 c 4.62963,6.43163 8.70329,13.26395 12.16168,20.394241 z M 223.48395,92.589189 c -4.19908,-5.84068 -8.89655,-11.31389 -14.03308,-16.31692 l 8.85339,-9.09574 c 5.68224,5.52749 10.86783,11.55841 15.49746,17.99003 z m -14.03308,-16.31692 c -5.13653,-5.00303 -10.71212,-9.53586 -16.66747,-13.49576 l 7.0435,-10.569388 c 6.61623,4.417874 12.79512,9.441918 18.47736,14.969408 z M 192.7834,62.776509 c -1.99177,-1.3244 -4.02603,-2.58471 -6.10053,-3.77708 -4.11902,-2.388747 -8.39129,-4.504922 -12.78183,-6.348528 l 4.90942,-11.703729 c 4.87443,2.04282 9.63059,4.38766 14.23349,7.03452 2.30843,1.338109 4.57015,2.747866 6.78295,4.225429 z M 173.90104,52.650901 c -6.59688,-2.770055 -13.46077,-4.924771 -20.47305,-6.464148 l 2.72827,-12.402219 c 7.73933,1.705716 15.33028,4.093262 22.6542,7.162638 z m -20.47305,-6.464148 c -7.01228,-1.539378 -14.17294,-2.463417 -21.36337,-2.772117 l 0.54712,-12.701763 c 7.91747,0.342057 15.80519,1.365944 23.54452,3.071661 z m -21.36337,-2.772117 c -7.19042,-0.3087 -14.4106,-0.0021 -21.54191,0.919915 L 108.88868,31.73219 c 7.85835,-1.021602 15.80559,-1.361375 23.72306,-1.019317 z m -21.54191,0.919915 c -7.1313,0.921976 -14.173737,2.459291 -21.008667,4.611945 l -3.81519,-12.104012 c 7.56198,-2.385261 15.331467,-4.088693 23.189827,-5.110294 z m -21.008667,4.611945 c -6.83493,2.152654 -13.46236,4.920646 -19.763651,8.303973 L 63.754046,46.043756 c 7.028345,-3.74892 14.382827,-6.816011 21.944807,-9.201272 z m -19.763651,8.303973 c -1.053737,0.56578 -2.098353,1.14877 -3.133294,1.74896 -5.165475,2.96899 -10.081346,6.35915 -14.713355,10.11113 l -7.9886,-9.85996 c 5.134578,-4.160965 10.592952,-7.937041 16.340865,-11.268898 1.156523,-0.665049 2.322721,-1.31103 3.498038,-1.937945 z m -17.846649,11.86009 c -5.562141,4.5054 -10.714972,9.53254 -15.399179,14.97867 l -9.626311,-8.28692 c 5.172528,-6.00373 10.871263,-11.55521 17.03689,-16.55171 z m -15.399179,14.97867 c -4.684207,5.44612 -8.899789,11.31125 -12.587433,17.492631 L 12.998606,95.067469 c 4.060799,-6.80547 8.707119,-13.26144 13.879647,-19.26516 z M 23.917131,101.58186 c -3.687643,6.18139 -6.847347,12.67903 -9.419797,19.3902 L 2.6320925,116.42965 c 2.830439,-7.40174 6.305715,-14.55671 10.3665135,-21.362181 z m -9.419797,19.3902 c -2.57245,6.71117 -4.5576455,13.63586 -5.8962715,20.67133 l -12.46646,-2.37094 c 1.48145,-7.79254 3.667051,-15.44105 6.49749,-22.8428 z m -5.8962715,20.67133 c -1.338626,7.03548 -2.030683,14.18174 -2.016855,21.33605 h -12.722185 c 0.01383,-7.97787 0.791131,-15.91445 2.27258,-23.70699 z"
       inkscape:label="new path" />
    <path
       id="path1068-1-6"
       style="display:inline;fill:none;stroke:#000000;stroke-width:0.382085"
       d="m 272.22565,162.97943 c -0.0142,9.01684 -0.91779,17.98727 -2.63937,26.78763 l -12.43204,-2.43318 c 1.57136,-8.02447 2.38562,-16.18383 2.37141,-24.35445 z m -2.63937,26.78763 c -1.72157,8.80036 -4.26114,17.43067 -7.54733,25.76728 l -11.79867,-4.65539 c 3.01416,-7.63104 5.34261,-15.52061 6.91396,-23.54507 z m -7.54733,25.76728 c -3.28619,8.33662 -7.31899,16.37954 -12.02703,24.00515 l -10.79988,-6.66664 c 4.31421,-6.99035 8.01408,-14.36286 11.02824,-21.9939 z m -12.02703,24.00515 c -4.70803,7.6256 -10.09131,14.83388 -16.07844,21.50121 l -9.43569,-8.4669 c 5.4715,-6.1024 10.40004,-12.71059 14.71425,-19.70095 z m -16.07844,21.50121 c -5.98713,6.66733 -12.57812,12.7937 -19.70159,18.25549 l -7.70607,-10.0562 c 6.48603,-4.96718 12.50048,-10.56379 17.97197,-16.66619 z m -19.70159,18.25549 c -4.74897,3.64118 -9.73459,6.987 -14.93572,10.00081 -2.60532,1.49871 -5.25558,2.90927 -7.9455,4.23166 l -5.60293,-11.37359 c 2.44089,-1.20518 4.84213,-2.49071 7.19843,-3.85659 4.72204,-2.71533 9.25564,-5.74704 13.57965,-9.05849 z m -22.88122,14.23247 c -8.06971,3.96716 -16.49632,7.14088 -25.13707,9.52118 l -3.36176,-12.21747 c 7.89369,-2.16932 15.57324,-5.06175 22.8959,-8.6773 z m -25.13707,9.52118 c -8.64075,2.38029 -17.49563,3.96715 -26.42189,4.76058 l -1.12058,-12.63941 c 8.1792,-0.7231 16.28702,-2.16932 24.18071,-4.33864 z m -26.42189,4.76058 c -8.92626,0.79343 -17.9239,0.79342 -26.85016,-1e-5 l 1.12059,-12.63941 c 8.1792,0.72312 16.42978,0.72312 24.60899,1e-5 z m -26.85016,-1e-5 c -8.92627,-0.79344 -17.781148,-2.38031 -26.421892,-4.76061 l 3.361771,-12.21746 c 7.893686,2.16933 16.001511,3.61555 24.180711,4.33866 z M 86.519658,303.0498 c -8.640745,-2.38031 -17.067352,-5.55404 -25.137063,-9.52121 l 5.602949,-11.37358 c 7.322652,3.61555 15.0022,6.50799 22.895885,8.67733 z m -25.137063,-9.52121 c -2.689877,-1.32237 -5.3401,-2.73291 -7.945381,-4.2316 -5.201168,-3.01383 -10.186825,-6.35967 -14.935823,-10.00089 l 7.706086,-10.05619 c 4.324037,3.31148 8.857666,6.34321 13.579737,9.05856 2.356264,1.36586 4.75747,2.65137 7.19833,3.85654 z M 38.501391,279.2961 c -7.123462,-5.46179 -13.714445,-11.58817 -19.70157,-18.25551 l 9.435693,-8.46689 c 5.471492,6.10241 11.485939,11.69902 17.971963,16.66621 z M 18.799821,261.04059 C 12.812696,254.37326 7.4294284,247.16497 2.7213975,239.53936 l 10.7998885,-6.66662 c 4.314201,6.99036 9.242737,13.59855 14.714228,19.70096 z M 2.7213975,239.53936 c -4.7080308,-7.62561 -8.740825,-15.66854 -12.0270034,-24.00515 l 11.7986712,-4.65538 c 3.0141528,7.63104 6.7140193,15.00355 11.0282207,21.99391 z M -9.3056059,215.53421 c -3.2861781,-8.33662 -5.8257411,-16.96693 -7.5473091,-25.76729 l 12.432042,-2.43317 c 1.5713463,8.02446 3.89978544,15.91403 6.9139383,23.54508 z m -7.5473091,-25.76729 c -1.721568,-8.80037 -2.625141,-17.77079 -2.63934,-26.78764 l 12.6999367,4e-5 c -0.014155,8.1706 0.8000989,16.32996 2.3714453,24.35443 z M 259.52565,162.97943 c 0.0142,-8.17062 -0.80005,-16.32998 -2.3714,-24.35445 l 12.43203,-2.43318 c 1.72158,8.80036 2.62516,17.77079 2.63937,26.78763 z m -2.3714,-24.35445 c -1.57136,-8.02446 -3.8998,-15.91403 -6.91396,-23.54507 l 11.79866,-4.65539 c 3.28619,8.33661 5.82576,16.96692 7.54733,25.76728 z m -6.91396,-23.54507 c -3.01416,-7.63104 -6.71404,-15.00355 -11.02824,-21.993907 l 10.79988,-6.66663 c 4.70804,7.625604 8.74084,15.668527 12.02702,24.005147 z M 239.21205,93.086003 C 234.89784,86.095651 229.9693,79.487458 224.4978,73.385057 l 9.43569,-8.466899 c 5.98713,6.667328 11.3704,13.875611 16.07844,21.501215 z M 224.4978,73.385057 C 219.0263,67.282656 213.01185,61.686048 206.52582,56.718863 l 7.70608,-10.056198 c 7.12347,5.461789 13.71446,11.588164 19.70159,18.255493 z M 206.52582,56.718863 c -4.32401,-3.311451 -8.85761,-6.34316 -13.57965,-9.058493 -2.35629,-1.365876 -4.75753,-2.651407 -7.19842,-3.856591 l 5.60293,-11.373583 c 2.68992,1.322391 5.34017,2.732941 7.94549,4.231651 5.20113,3.013815 10.18676,6.359631 14.93573,10.000818 z M 185.74775,43.803779 c -7.32266,-3.615542 -15.00221,-6.507975 -22.8959,-8.677299 l 3.36176,-12.217465 c 8.64075,2.380294 17.06736,5.554021 25.13707,9.521181 z m -22.8959,-8.677299 c -7.89369,-2.169324 -16.00151,-3.615539 -24.18071,-4.338645 l 1.12058,-12.639406 c 8.92626,0.793429 17.78115,2.380291 26.42189,4.760586 z M 112.94156,18.14844 c 8.92626,-0.793436 17.9239,-0.79344 26.85016,-1.1e-5 m 0,0 -1.12058,12.639406 c -8.17921,-0.723106 -16.42979,-0.723102 -24.60899,10e-6 L 112.94156,18.14844 m 1.12059,12.639405 c -8.1792,0.723113 -16.287025,2.169334 -24.18071,4.338665 L 86.519669,22.909047 C 95.160413,20.528746 104.0153,18.941877 112.94156,18.14844 Z M 89.88144,35.12651 c -7.893686,2.16933 -15.573234,5.06177 -22.895887,8.677319 L 61.382605,32.430251 c 8.069712,-3.967167 16.496319,-7.140902 25.137064,-9.521204 z m -22.895887,8.677319 c -2.440863,1.205172 -4.842072,2.490689 -7.198339,3.85655 -4.722068,2.715349 -9.255694,5.747077 -13.579729,9.058552 L 38.5014,46.662739 c 4.748995,-3.641212 9.73465,-6.98705 14.935814,-10.000882 2.605284,-1.498693 5.255511,-2.909228 7.945391,-4.231606 z M 46.207485,56.718931 C 39.721461,61.686121 33.707013,67.282734 28.235522,73.38514 L 18.799829,64.918248 C 24.786955,58.250914 31.377938,52.124534 38.5014,46.662739 Z M 28.235522,73.38514 C 22.76403,79.487545 17.835493,86.095742 13.521291,93.086098 L 2.7214037,86.419476 C 7.4294351,78.793868 12.812703,71.585581 18.799829,64.918248 Z M 13.521291,93.086098 C 9.2070897,100.07645 5.5072227,107.44897 2.4930693,115.08001 l -11.7986708,-4.65538 c 3.286179,-8.33662 7.3189738,-16.379547 12.0270052,-24.005154 z M 2.4930693,115.08001 c -3.01415344,7.63104 -5.3425932,15.52061 -6.9139402,23.54508 l -12.4320411,-2.43317 c 1.721568,-8.80036 4.261131,-17.43067 7.5473105,-25.76729 z m -6.9139402,23.54508 c -1.5713471,8.02447 -2.3856014,16.18383 -2.3713841,24.35445 l -12.700057,-10e-6 c 0.01426,-9.01682 0.917831,-17.98725 2.6394,-26.78761 z"
       sodipodi:nodetypes="ccccccccccccccccccccccccccccccccccccccccccccccccccccccccccccccccccccccccccccccccccccccccccccccccccccccccccccccccccccccccccccccccccccccccccccccccccccccccccccccccccccccccccccccccccc" />
  </g>
  <g
     inkscape:groupmode="layer"
     id="layer2"
     inkscape:label="layer 1"
     style="display:none">
    <path
       id="rect846-8-1"
       style="display:inline;fill:#ffffff;stroke:#000000;stroke-width:0.4"
       d="m 97.09309,111.69807 h 25.4 v 12.7 h -25.4 z m -12.700006,-12.7 h 25.400006 v 12.7 H 84.393084 Z" />
    <path
       id="path4271"
       style="fill:none;stroke:#000000;stroke-width:0.399453"
       d="m 264.48223,200.41835 c 3.87426,-13.12049 6.01881,-26.81524 6.14573,-40.79635 h -12.7 c 0,12.7 -1.92166,25.20962 -5.47705,37.24094 l -12.03133,-3.5554 c 3.23654,-10.94216 4.9353,-22.26664 4.80838,-33.68554 0.0423,3.8063 -0.11824,7.60211 -0.47098,11.37677 l 12.54109,1.24911 c -0.41637,4.18036 -1.0356,8.32891 -1.84701,12.43497 l 12.3182,2.43425 m -19.81105,50.652 c 7.04577,-11.68404 12.64975,-24.23026 16.52402,-37.35075 l -12.03133,-3.5554 c -3.5554,12.03132 -8.74454,23.58435 -15.2795,34.37117 l -10.78682,-6.53497 c 6.02416,-9.8896 10.79846,-20.44943 14.035,-31.39159 -1.07885,3.64738 -2.32856,7.25229 -3.73847,10.80405 l 11.68047,4.61257 c -1.53752,3.89349 -3.24591,7.72317 -5.11449,11.47839 l 11.26563,5.60575 m -31.72933,44.13843 c 9.64146,-9.67176 18.12904,-20.49362 25.17482,-32.17765 l -10.78682,-6.53497 c -6.53497,10.78681 -14.41576,20.80742 -23.35447,29.7739 l -8.96648,-8.9387 c 8.23595,-8.26121 15.50997,-17.48057 21.53413,-27.37017 -2.00805,3.29654 -4.15498,6.5186 -6.43012,9.65553 l 10.24402,7.40019 c -2.46673,3.41467 -5.07233,6.73355 -7.80615,9.94596 l 9.63725,8.20144 m -41.34429,35.32153 c 11.66131,-7.08365 22.45665,-15.60531 32.09811,-25.27706 l -8.96648,-8.93871 c -8.9387,8.96648 -18.93532,16.87884 -29.70194,23.44915 l -6.57031,-10.76662 c 9.87192,-6.05698 19.06981,-13.36003 27.30577,-21.62123 -2.74532,2.75373 -5.59752,5.401 -8.54594,7.93115 l 8.23174,9.612 c -3.204,2.74391 -6.51488,5.36003 -9.92197,7.8377 l 7.43301,10.2213 m -48.65592,24.20131 c 13.10534,-3.91971 25.63262,-9.56534 37.29393,-16.64899 l -6.57032,-10.76661 c -10.76661,6.57031 -22.30322,11.79858 -34.32192,15.3969 l -3.59832,-12.01869 c 10.93206,-3.27693 21.47801,-8.08785 31.34993,-14.14483 -3.29064,2.019 -6.65618,3.89954 -10.08594,5.63096 l 5.64363,11.24796 c -3.74932,1.88121 -7.57353,3.60264 -11.46196,5.15363 l 4.65296,11.66532 m -53.66424,10.77777 c 13.97353,-0.17994 27.65692,-2.37372 40.76225,-6.29342 l -3.59832,-12.0187 c -12.01869,3.59832 -24.51947,5.56668 -37.21441,5.61717 l -0.0505,-12.69494 c 11.41636,0.079 22.73453,-1.66399 33.66658,-4.94092 -3.64402,1.09231 -7.33094,2.01418 -11.0501,2.75494 l 2.47969,12.30809 c -4.10269,0.82656 -8.24829,1.46136 -12.42613,1.89372 l 1.29709,12.5335 m -54.696014,-5.14718 c 12.962807,3.77838 26.48119,5.86854 40.278444,5.99379 0.18385,-0.002 0.36766,-0.004 0.55141,-0.006 l -0.0505,-12.69495 c -0.16694,6.7e-4 -0.33391,10e-4 -0.50092,10e-4 -12.532993,0 -24.880579,-1.87145 -36.766054,-5.33764 l 3.512381,-12.04385 c 10.808145,3.15401 21.984933,4.80674 33.253673,4.68149 0.15016,0.002 0.3003,0.003 0.45043,0.004 -0.15013,-0.001 -0.30027,-0.002 -0.45043,-0.004 -3.65614,0.0406 -7.3026,-0.10589 -10.92993,-0.43013 l -1.201052,12.54857 c -4.182856,-0.40035 -8.334316,-1.00397 -12.443715,-1.80021 l -2.388705,12.32821 M 34.39198,295.77973 c 11.706664,7.00781 24.271724,12.57003 37.407266,16.39875 l 3.512381,-12.04385 C 63.267774,296.62225 51.69843,291.47234 40.891511,284.97282 l 6.499522,-10.80692 c 9.907176,5.99124 20.480805,10.72883 31.432971,13.92487 -3.650723,-1.06534 -7.259386,-2.30198 -10.815326,-3.69923 l -4.572076,11.69553 c -3.898507,-1.52403 -7.733627,-3.21934 -11.494697,-5.07527 l -5.56779,11.28322 M 2.1350917,270.70747 c 9.7019563,9.61106 20.5502243,18.06446 32.2568883,25.07226 l 6.499522,-10.80692 C 30.084583,278.47329 20.040088,270.62416 11.045933,261.71332 l 8.910833,-8.99415 c 8.286356,8.2106 17.527079,15.45548 27.434255,21.44672 -3.302392,-1.99708 -6.530735,-4.13345 -9.674363,-6.39846 l -7.367274,10.26665 c -3.422215,-2.45576 -6.749052,-5.05081 -9.969849,-7.77449 l -8.171044,9.66239 m -35.452418,-41.23279 c 7.121418,11.63849 15.6770626,22.40722 25.3790187,32.01828 l 8.9108343,-8.99415 C 2.0517706,252.80248 -5.8920452,242.82995 -12.497607,232.08364 l 10.7463148,-6.60556 c 6.0897055,9.85414 13.4216932,19.03047 21.7080482,27.24108 -2.762119,-2.73687 -5.418197,-5.58104 -7.95757,-8.52186 l -9.5866425,8.26194 c -2.75397883,-3.19554 -5.3805898,-6.49839 -7.8691695,-9.89788 l -10.198469,7.46574 m -24.362491,-48.57472 c 3.96505,13.09008 9.652241,25.59832 16.773659,37.23681 l 10.746315,-6.60556 c -6.605561,-10.74632 -11.872867,-22.26641 -15.514005,-34.27238 l 12.005966,-3.64113 c 3.317225,10.92185 8.164647,21.4538 14.2543516,31.30794 -2.0299019,-3.28471 -3.9217724,-6.64474 -5.6649479,-10.06942 l -11.2301797,5.68141 c -1.8938,-3.7434 -3.628241,-7.5621 -5.192661,-11.44545 l -11.650063,4.69326 m -10.969242,-53.61333 c 0.23285,13.96585 2.475758,27.63777 6.440807,40.72785 l 12.005966,-3.64114 c -3.641136,-12.00596 -5.656103,-24.49779 -5.756986,-37.18758 l 12.689786,-0.10088 c -0.03109,11.41372 1.755941,22.72547 5.073165,33.64732 -1.105742,-3.64062 -2.041461,-7.32455 -2.796495,-11.04115 l -12.297887,2.52503 c -0.841678,-4.09929 -1.492006,-8.24191 -1.940322,-12.41719 l -12.525828,1.34495 m 4.937239,-54.71968 c -3.683582,12.80463 -5.720059,26.14654 -5.843641,39.75994 0.0033,0.36771 0.0081,0.73522 0.0142,1.10253 l 12.689786,-0.10088 c -0.0027,-0.33375 -0.004,-0.66763 -0.004,-1.00165 -10e-7,-12.36598 1.821904,-24.55147 5.199922,-36.29066 l 12.056284,3.46926 c -3.072457,10.67376 -4.679789,21.70283 -4.556206,32.8214 -0.0033,0.30032 -0.0054,0.60058 -0.0062,0.90076 8.18e-4,-0.30018 0.0029,-0.60044 0.0062,-0.90076 -0.03897,-3.50598 0.09417,-7.00305 0.391078,-10.4829 l -12.555953,-1.15288 c 0.384294,-4.18532 0.972283,-8.33966 1.753304,-12.45236 l -12.338109,-2.34306 m 19.466504,-50.792224 c -6.969738,11.72919 -12.490103,24.312994 -16.273183,37.463484 l 12.056284,3.46927 c 3.469263,-12.05629 8.57984,-23.641847 15.043816,-34.468769 l 10.8269223,6.463977 c -5.9582164,9.924652 -10.6590063,20.511972 -13.8144533,31.474052 1.051816,-3.65403 2.275337,-7.26642 3.659899,-10.8265 l -11.710478,-4.53148 c 1.510494,-3.90349 3.192692,-7.74402 5.035932,-11.510914 l -11.300691,-5.52972 M 0.61364508,50.06275 C -8.9669197,59.794805 -17.386028,70.669385 -24.355765,82.398576 l 10.826922,6.463977 C -7.0648666,78.035631 0.75250901,67.967348 9.6353686,58.945617 L 18.6571,67.828478 C 10.471943,76.139884 3.2562988,85.401872 -2.7019186,95.326526 -0.71584579,92.018307 1.4099412,88.783718 3.6647788,85.633423 L -6.6243938,78.29917 C -4.1796435,74.869446 -1.595179,71.534679 1.118336,68.305533 L -8.5691064,60.164986 M 32.551793,24.582076 C 20.936231,31.741165 10.19421,40.330695 0.61364508,50.06275 L 9.6353756,58.94561 C 18.518236,49.92388 28.46658,41.948704 39.192493,35.307995 l 6.640709,10.725914 c -9.836266,6.122328 -18.990935,13.483153 -27.176093,21.794559 2.728387,-2.770469 5.564496,-5.435318 8.497666,-7.983884 l -8.292037,-9.561193 c 3.187063,-2.764011 6.481851,-5.401076 9.873698,-7.90053 L 21.238072,32.207317 M 69.731187,7.6840445 C 56.656458,11.694338 44.167355,17.422986 32.551793,24.582076 L 39.192501,35.30799 C 49.918415,28.667282 61.421897,23.361042 73.415034,19.677185 l 3.683857,11.993137 c -10.911546,3.35742 -21.42941,8.241252 -31.265677,14.36358 3.278756,-2.040777 6.633246,-3.943942 10.052804,-5.698833 L 50.166946,29.122765 c 3.737434,-1.906356 7.5506,-3.653776 11.428836,-5.231594 L 56.862327,12.256461 M 110.42434,1.0961473 C 96.466271,1.381814 82.805916,3.6737514 69.731187,7.6840445 L 73.415043,19.677182 C 85.40818,15.993326 97.890971,13.931853 110.5755,13.780678 l 0.15118,12.68453 c -11.411,0.01668 -22.716229,1.847691 -33.627776,5.20511 3.637183,-1.11914 7.318108,-2.068679 11.032113,-2.837952 L 85.56074,16.544783 c 4.09586,-0.856759 8.235463,-1.522589 12.408144,-1.986828 L 96.576167,2.0399078 M 151.31853,6.7670193 C 138.67256,3.1771237 125.50723,1.1936362 112.07769,1.071723 c -0.55157,0.00501 -1.10269,0.013154 -1.65335,0.024424 l 0.15117,12.6845307 c 0.50042,-0.006 1.00115,-0.009 1.50218,-0.009 12.19897,0 24.22229,1.773025 35.81478,5.063908 l -3.42605,12.068614 C 133.9274,27.912373 123.0461,26.34981 112.07769,26.471723 c -0.45049,-0.005 -0.90083,-0.0072 -1.351,-0.0065 0.45017,-6.58e-4 0.90051,0.0015 1.351,0.0065 3.35581,-0.0373 6.70347,0.08308 10.03567,0.353829 l 1.10461,-12.563234 c 4.18775,0.368205 8.34494,0.940526 12.46091,1.706299 L 137.9762,3.6207021 M 188.83794,22.914335 C 177.08632,15.982767 164.48388,10.504357 151.31853,6.7670193 l -3.42605,12.0686147 c 12.06861,3.426045 23.67029,8.49719 34.51711,14.925521 l -6.42833,10.846826 c -9.94203,-5.925096 -20.54294,-10.588978 -31.51482,-13.703732 3.65729,1.038252 7.27337,2.248629 10.83756,3.620467 l 4.49079,-11.725332 c 3.90844,1.496929 7.75434,3.165984 11.52703,4.9965 l 5.49155,-11.318069 M 221.2524,47.780596 C 211.49035,38.230628 200.58955,29.845903 188.83794,22.914335 L 182.4096,33.76116 c 10.84683,6.428332 20.9388,14.213848 29.98801,23.068635 l -8.85479,9.049206 c -8.33636,-8.159608 -17.61951,-15.345917 -27.56154,-21.271013 3.31401,1.975032 6.55481,4.090199 9.71174,6.334838 l 7.30113,-10.3116 c 3.4372,2.43371 6.77986,5.007555 10.01733,7.710871 l 8.10995,-9.712393 m 35.713,41.008608 C 239.63777,68.045774 231.01446,57.330564 221.2524,47.780596 l -8.85479,9.049206 c 9.04921,8.854787 17.05565,18.778845 23.7314,29.484257 l -10.70541,6.675757 c -6.15485,-9.81829 -13.54441,-18.951197 -21.88077,-27.110805 2.77878,2.71987 5.45237,5.547884 8.0101,8.473379 l 9.53564,-8.322037 c 2.77401,3.178548 5.4215,6.465239 7.93179,9.849412 l 10.15252,-7.530888 m 24.68366,48.411113 C 259.8011,103.70071 254.03109,91.230849 246.83443,79.638312 l -10.70541,6.675756 c 6.67575,10.705413 12.02083,22.192182 15.7473,34.172392 l -11.9802,3.72647 c -3.39752,-10.90114 -8.31766,-21.40481 -14.47251,-31.223102 2.05161,3.272764 3.96604,6.621682 5.73262,10.036092 l 11.19432,-5.756646 c 1.91888,3.731446 3.67925,7.539036 5.27043,11.412126 l 11.61926,-4.77356 m 11.35099,53.5103 c -0.33839,-13.95018 -2.67926,-27.59887 -6.73469,-40.65815 l -11.98021,3.72648 c 3.72647,11.98021 5.83435,24.45385 6.03572,37.13303 l -12.67917,0.20137 c -0.0643,-11.40817 -1.93925,-22.70678 -5.33676,-33.60792 1.13251,3.63371 2.09583,7.31159 2.87931,11.02297 l 12.27718,-2.61542 c 0.87181,4.09239 1.55311,8.22895 2.03323,12.399 l 12.51017,-1.44038"
       inkscape:path-effect="#path-effect5831"
       inkscape:original-d="M 257.92796,159.622 A 145.85027,145.85027 0 0 1 112.07769,305.47227 145.85027,145.85027 0 0 1 -33.772589,159.622 145.85027,145.85027 0 0 1 112.07769,13.771723 145.85027,145.85027 0 0 1 257.92796,159.622 Z" />
    <path
       id="path5281"
       style="fill:none;stroke:#ff0000;stroke-width:0.264583px;stroke-linecap:butt;stroke-linejoin:miter;stroke-opacity:1"
       d="m 120.12128,156.09751 v 12.70001 m 38.10001,-25.40001 h -12.70001 m -12.7,25.4 h -12.7 m 12.7,-12.7 h 25.4 v 12.7 h -25.4 z m -12.7,-12.7 h 25.4 v 12.7 h -25.4 z m 38.10001,0 v 12.7" />
    <path
       style="fill:none;stroke:#000000;stroke-width:0.264583px;stroke-linecap:butt;stroke-linejoin:miter;stroke-opacity:1"
       d="M 108.38292,59.079776 H 70.282912 v 12.7 h 38.099998 v 12.7 h -38.099993 12.7 v -12.7 h 12.699997 v -12.7"
       id="path6605" />
    <path
       id="path6999"
       style="fill:none;stroke:#000000;stroke-width:0.264583px;stroke-linecap:butt;stroke-linejoin:miter;stroke-opacity:1"
       d="m 59.32285,118.7971 v -12.7 m -12.699997,25.4 v -12.7 m 25.400008,-12.7 H 33.922848 v 12.7 h 38.100013 l -1.1e-5,12.7 H 33.922853" />
  </g>
  <g
     inkscape:groupmode="layer"
     id="layer3"
     inkscape:label="layer 2">
    <path
       id="rect846-2"
       style="display:inline;fill:#ffffff;stroke:#000000;stroke-width:0.4"
       d="m 291.97226,86.430856 h 25.4 v 12.7 h -25.4 z" />
    <path
       id="path1068-1-2-4"
       style="display:inline;fill:none;stroke:#000000;stroke-width:0.382629"
       d="m 248.21346,148.12892 h 12.71737 c -0.0142,9.04371 -0.91781,18.04085 -2.63939,26.86739 l -12.44903,-2.44376 m 0,0 12.44903,2.44376 c -1.72156,8.82656 -4.26111,17.48252 -7.54728,25.84393 l -11.8148,-4.67564 m 11.8148,4.67564 c -3.28617,8.36139 -7.31894,16.42824 -12.02694,24.0765 l -10.81466,-6.69563 c 4.31364,-7.01026 8.01303,-14.40376 11.0268,-22.05651 z m -12.02694,24.0765 c -4.70801,7.64827 -10.09126,14.87797 -16.07835,21.56512 l -9.4486,-8.50373 c 5.47077,-6.11977 10.39867,-12.74678 14.71229,-19.75702 z m -16.07835,21.56512 c -5.98712,6.68715 -12.57808,12.83176 -19.70153,18.30981 l -7.71662,-10.09994 c 6.48514,-4.98131 12.49879,-10.59383 17.96955,-16.7136 z m -19.70153,18.30981 c -4.74896,3.65202 -9.73457,7.0078 -14.9357,10.0306 -2.60533,1.50317 -5.2556,2.91792 -7.94551,4.24426 l -5.6106,-11.42307 c 2.44056,-1.2086 4.84147,-2.4978 7.19744,-3.86755 4.72136,-2.72304 9.25433,-5.76334 13.57775,-9.08418 z m -22.88121,14.27486 c -8.06972,3.97896 -16.49631,7.16213 -25.13702,9.54951 l -3.36636,-12.27062 c 7.89263,-2.17548 15.57114,-5.07615 22.89278,-8.70196 z m -25.13702,9.54951 c -8.64071,2.38737 -17.49555,3.97895 -26.42175,4.77475 l -1.12211,-12.6944 c 8.17813,-0.72515 16.28488,-2.17548 24.1775,-4.35097 z m -26.42175,4.77475 c -8.9262,0.79579 -17.92379,0.79578 -26.84999,-2e-5 l 1.12213,-12.69439 c 8.17812,0.72517 16.42762,0.72518 24.60575,1e-5 z m -26.84999,-2e-5 c -8.926207,-0.7958 -17.781038,-2.3874 -26.421746,-4.77478 l 3.36637,-12.27062 c 7.892626,2.17551 15.999374,3.62585 24.177506,4.35101 z m -26.421746,-4.77478 c -8.640707,-2.38739 -17.06729,-5.57057 -25.137002,-9.54954 l 5.610611,-11.42306 c 7.321631,3.62582 15.000134,6.52649 22.892761,8.70198 z m -25.137002,-9.54954 c -2.689873,-1.32632 -5.340093,-2.74105 -7.945375,-4.24419 -5.201171,-3.02283 -10.186827,-6.37864 -14.93582,-10.0307 l 7.716624,-10.09993 c 4.32345,3.32088 8.856459,6.3612 13.577879,9.08427 2.355924,1.36973 4.756788,2.6589 7.197303,3.86749 z M 27.207427,264.79156 C 20.083981,259.3135 13.493022,253.16889 7.505924,246.48173 l 9.448596,-8.50371 c 5.470759,6.11977 11.484393,11.7323 17.969531,16.71361 z M 7.505924,246.48173 C 1.5188264,239.79457 -3.864409,232.56487 -8.57241,224.9166 l 10.8146556,-6.69562 c 4.3136324,7.01024 9.2415154,13.63726 14.7122744,19.75704 z M -8.57241,224.9166 c -4.708,-7.64827 -8.740765,-15.71512 -12.026919,-24.07651 l 11.814804,-4.67564 c 3.013756,7.65276 6.7131381,15.04627 11.0267706,22.05653 z m -12.026919,-24.07651 c -3.286156,-8.36142 -5.8257,-17.01738 -7.54726,-25.84395 l 12.44904,-2.44374 c 1.571134,8.04728 3.899267,15.95929 6.913024,23.61205 z m -7.54726,-25.84395 c -1.721559,-8.82654 -2.625136,-17.82367 -2.639353,-26.86739 l 12.717365,2e-5 c -0.01424,8.19381 0.799895,16.37635 2.371028,24.42363 z m 273.988999,-51.29084 12.44903,-2.44376 c 1.72157,8.82654 2.62516,17.82366 2.63939,26.86738 h -12.71737 m -9.28411,-48.03566 11.8148,-4.675645 c 3.28617,8.361405 5.82572,17.017365 7.54729,25.843925 l -12.44903,2.44376 m -17.93986,-45.668545 10.81465,-6.69563 c 4.70801,7.64826 8.74078,15.71509 12.02695,24.07649 l -11.8148,4.675645 m -25.73909,-41.813529 9.44859,-8.503734 c 5.98709,6.68715 11.37034,13.916855 16.07835,21.565128 l -10.81465,6.69563 M 195.2207,41.566148 202.93731,31.466202 c 7.12346,5.478049 13.71442,11.622645 19.70154,18.309795 l -9.44859,8.503734 M 181.64297,32.48198 c -2.35598,-1.369766 -4.75689,-2.658957 -7.19747,-3.867573 l 5.6106,-11.423062 c 2.68992,1.326334 5.34021,2.74109 7.94554,4.244269 5.20112,3.022797 10.18672,6.378572 14.93567,10.030588 L 195.2207,41.566148 M 151.55272,19.91245 154.91909,7.641838 c 8.6407,2.387375 17.06729,5.570544 25.13701,9.549507 l -5.6106,11.423062 m -47.07027,-13.052925 1.1221,-12.694388 c 8.9262,0.795788 17.78104,2.387368 26.42176,4.774744 L 151.55272,19.91245 M 102.76947,15.561502 101.64734,2.867115 c 8.9262,-0.795801 17.92379,-0.795808 26.84999,-2.1e-5 l -1.1221,12.694388 M 78.591969,19.912509 75.225597,7.6419 C 83.866304,5.254511 92.721135,3.662916 101.64734,2.867115 l 1.12213,12.694387 m -47.07026,13.053 -5.610613,-11.423052 c 8.069711,-3.978977 16.496294,-7.162161 25.137,-9.54955 l 3.366372,12.270609 M 55.69921,28.614502 c -2.440507,1.208592 -4.841363,2.497754 -7.19728,3.867488 -4.721427,2.723051 -9.254443,5.763394 -13.5779,9.084287 L 27.207405,31.466345 c 4.748999,-3.652068 9.734663,-7.007887 14.935842,-10.030721 2.605274,-1.503144 5.255486,-2.917868 7.94535,-4.244174 z M 34.92403,41.566277 C 28.438894,46.547579 22.425261,52.160113 16.954503,58.279886 L 7.505905,49.776167 c 5.987097,-6.68716 12.578054,-12.831765 19.7015,-18.309822 z M 16.954503,58.279886 C 11.483745,64.39966 6.555863,71.026675 2.2422317,78.036935 L -8.572425,71.341315 C -3.864426,63.693038 1.5188086,56.463325 7.505905,49.776167 Z M 2.2422317,78.036935 C -2.0713995,85.047185 -5.77078,92.440695 -8.784535,100.09345 L -20.59934,95.417825 c 3.286153,-8.3614 7.318916,-16.42824 12.026915,-24.07651 z M -8.784535,100.09345 c -3.013756,7.65277 -5.341887,15.56478 -6.913019,23.61205 l -12.44904,-2.44374 c 1.721558,-8.82656 4.2611,-17.48253 7.547254,-25.843935 z m -6.913019,23.61205 c -1.571131,8.04728 -2.385264,16.22982 -2.371023,24.42363 l -12.717365,2e-5 c 0.01422,-9.04371 0.91779,-18.04085 2.639348,-26.86739 z"
       inkscape:label="outside circle"
       sodipodi:nodetypes="ccccccccccccccccccccccccccccccccccccccccccccccccccccccccccccccccccccccccccccccccccccccccccccccccccccccccccccccccccccccccccccccccccccccccccccccccccccccccccccccccccccc" />
    <path
       id="path1068-1-2-4-7"
       style="display:inline;fill:none;stroke:#000000;stroke-width:0.34881"
       d="m 561.31866,147.18295 c -0.0129,8.24436 -0.83668,16.44627 -2.4061,24.49265 l -11.34868,-2.22776 c 1.43226,-7.33599 2.17444,-14.7953 2.16147,-22.26489 z m -2.4061,24.49265 c -1.5694,8.04641 -3.88448,15.93728 -6.8802,23.55965 l -10.77051,-4.26237 c 2.74739,-6.97636 4.86975,-14.18905 6.30203,-21.52504 z m -6.8802,23.55965 c -2.9957,7.62234 -6.67203,14.97619 -10.9639,21.94843 l -9.85878,-6.10381 c 3.93237,-6.39064 7.30478,-13.13065 10.05217,-20.10699 z m -10.9639,21.94843 c -4.29189,6.97227 -9.19932,13.56295 -14.65722,19.65904 l -8.61347,-7.75211 c 4.98722,-5.57885 9.47956,-11.62012 13.41191,-18.01074 z m -14.65722,19.65904 c -5.45794,6.09609 -11.46633,11.69759 -17.96017,16.69145 l -7.03457,-9.20723 c 5.91194,-4.54103 11.39406,-9.65747 16.38127,-15.23633 z m -17.96017,16.69145 c -4.32921,3.32923 -8.87415,6.38839 -13.61556,9.14402 -2.37505,1.37031 -4.79107,2.66002 -7.24324,3.86912 l -5.11468,-10.41341 c 2.22485,-1.10177 4.41354,-2.27703 6.56127,-3.52571 4.30405,-2.48235 8.43637,-5.25393 12.37764,-8.28125 z m -20.8588,13.01314 c -7.35644,3.62727 -15.03823,6.52909 -22.91521,8.70545 l -3.06881,-11.18605 c 7.19502,-1.98319 14.19484,-4.62748 20.86934,-7.93281 z m -22.91521,8.70545 c -7.87698,2.17636 -15.94916,3.62727 -24.0864,4.35273 l -1.02292,-11.57238 c 7.45528,-0.66105 14.84549,-1.9832 22.04051,-3.9664 z m -24.0864,4.35273 c -8.13723,0.72544 -16.33955,0.72544 -24.47678,-2e-5 l 1.02294,-11.57237 c 7.45529,0.66108 14.97562,0.66109 22.43092,1e-5 z m -24.47678,-2e-5 c -8.13725,-0.72546 -16.20942,-2.17639 -24.0864,-4.35275 l 3.06883,-11.18606 c 7.19502,1.98323 14.58523,3.30538 22.04051,3.96644 z m -24.0864,-4.35275 c -7.87697,-2.17638 -15.55875,-5.07821 -22.91519,-8.70548 l 5.11469,-10.4134 c 6.67449,3.30533 13.67431,5.94963 20.86933,7.93282 z m -22.91519,-8.70548 c -2.45213,-1.20909 -4.8681,-2.49878 -7.24311,-3.86906 -4.74145,-2.75565 -9.28644,-5.81484 -13.61568,-9.14411 l 7.03457,-9.20722 c 3.94131,3.02736 8.07366,5.79895 12.37777,8.28133 2.14768,1.24866 4.33634,2.42389 6.56114,3.52566 z M 348.2535,253.53407 C 341.75968,248.5402 335.75128,242.9387 330.29337,236.8426 l 8.61345,-7.75209 c 4.98722,5.57886 10.46932,10.69531 16.38125,15.23634 z M 330.29337,236.8426 c -5.45792,-6.09609 -10.36534,-12.68678 -14.65721,-19.65904 l 9.85877,-6.10381 c 3.93236,6.39062 8.42468,12.4319 13.41189,18.01076 z m -14.65721,-19.65904 c -4.29187,-6.97226 -7.96819,-14.3261 -10.96389,-21.94844 l 10.77052,-4.26238 c 2.74738,6.97635 6.11978,13.71637 10.05214,20.10701 z m -10.96389,-21.94844 c -2.9957,-7.62238 -5.31078,-15.51326 -6.88018,-23.55968 l 11.3487,-2.22774 c 1.43227,7.33601 3.55462,14.54869 6.302,21.52504 z m -6.88018,-23.55968 c -1.56939,-8.04638 -2.3931,-16.24827 -2.40606,-24.49264 l 11.5933,2e-5 c -0.013,7.46958 0.7292,14.92888 2.16146,22.26488 z m 251.93326,-24.49249 c 0.0129,-7.46957 -0.72922,-14.92887 -2.16147,-22.26487 l 11.34868,-2.22776 c 1.56941,8.04638 2.39313,16.24826 2.4061,24.49263 z m -2.16147,-22.26487 c -1.43228,-7.336 -3.55465,-14.54869 -6.30204,-21.52502 l 10.77052,-4.262394 c 2.99571,7.622364 5.31079,15.513244 6.8802,23.559654 z m -6.30204,-21.52502 c -2.74739,-6.976354 -6.1198,-13.716364 -10.05217,-20.107004 l 9.85877,-6.10381 c 4.29188,6.97225 7.96821,14.32607 10.96392,21.94842 z M 531.20967,83.286056 c -3.93236,-6.39062 -8.42469,-12.43189 -13.41191,-18.01074 l 8.61346,-7.75211 c 5.4579,6.09609 10.36534,12.68678 14.65722,19.65904 z m -13.41191,-18.01074 c -4.98722,-5.57885 -10.46934,-10.6953 -16.38127,-15.23631 l 7.03456,-9.20724 c 6.49384,4.99386 12.50223,10.59535 17.96017,16.69144 z m -16.38127,-15.23631 c -3.94127,-3.02732 -8.07359,-5.7989 -12.37763,-8.28124 -2.14774,-1.2487 -4.33643,-2.42394 -6.5613,-3.52573 l 5.11469,-10.413408 c 2.45217,1.209109 4.86821,2.498812 7.24326,3.86913 4.7414,2.755622 9.28633,5.814788 13.61554,9.144008 z m -18.93893,-11.80697 c -6.67449,-3.30534 -13.67431,-5.949606 -20.86934,-7.932809 l 3.06882,-11.186042 c 7.87697,2.176356 15.55876,5.078174 22.91521,8.705443 z M 461.60822,30.299227 C 454.4132,28.316023 447.023,26.993893 439.56772,26.332828 l 1.02291,-11.572364 c 8.13724,0.725452 16.20942,2.176356 24.08641,4.352721 z m -22.0405,-3.966399 c -7.45529,-0.661066 -14.97564,-0.661056 -22.43092,1.8e-5 l -1.02295,-11.572364 c 8.13723,-0.725462 16.33956,-0.725462 24.47678,-1.8e-5 z m -22.43092,1.8e-5 c -7.45528,0.661074 -14.84549,1.983222 -22.04051,3.966435 L 392.02746,19.11324 c 7.87697,-2.176375 15.94915,-3.627288 24.08639,-4.352758 z m -22.04051,3.966435 c -7.19502,1.983213 -14.19484,4.627495 -20.86933,7.932845 l -5.11469,-10.413397 c 7.35644,-3.627288 15.03821,-6.529115 22.91519,-8.705489 z m -20.86933,7.932845 c -2.2248,1.10177 -4.41344,2.27698 -6.56112,3.52565 -4.30412,2.48237 -8.43647,5.25398 -12.37778,8.28135 l -7.03457,-9.20723 c 4.32924,-3.32927 8.87423,-6.388471 13.61569,-9.144129 2.375,-1.370281 4.79096,-2.659957 7.24309,-3.869038 z m -18.9389,11.807 c -5.91194,4.54102 -11.39404,9.65747 -16.38125,15.23633 l -8.61346,-7.75209 c 5.45791,-6.0961 11.46631,-11.6976 17.96014,-16.69147 z m -16.38125,15.23633 c -4.98721,5.57886 -9.47953,11.62013 -13.41189,18.01077 l -9.85878,-6.10381 c 4.29187,-6.97226 9.1993,-13.56296 14.65721,-19.65905 z m -13.41189,18.01077 c -3.93236,6.39063 -7.30476,13.13065 -10.05214,20.107004 l -10.77052,-4.262374 c 2.9957,-7.62235 6.67201,-14.97618 10.96388,-21.94844 z m -10.05214,20.107004 c -2.74738,6.97635 -4.86973,14.18903 -6.30199,21.52503 l -11.3487,-2.22774 c 1.56939,-8.04641 3.88447,-15.9373 6.88017,-23.559664 z m -6.30199,21.52503 c -1.43226,7.336 -2.17444,14.7953 -2.16146,22.26488 l -11.5933,2e-5 c 0.013,-8.24436 0.83666,-16.44626 2.40606,-24.49264 z"
       inkscape:label="outside circle" />
    <path
       style="fill:none;stroke:#000000;stroke-width:0.264583px;stroke-linecap:butt;stroke-linejoin:miter;stroke-opacity:1"
       d="M 327.57823,63.858438 H 340.2956"
       id="path7653" />
    <path
       style="fill:none;stroke:#000000;stroke-width:0.264583px;stroke-linecap:butt;stroke-linejoin:miter;stroke-opacity:1"
       d="m 1.3652503,342.46704 266.2820397,1.5e-4"
       id="path8301" />
    <path
       id="path8790"
       style="fill:none;stroke:#ff0000;stroke-width:0.364146"
       d="M 550.37813,186.36968 A 132.95892,132.95892 0 0 1 417.4192,319.32861 132.95892,132.95892 0 0 1 284.46027,186.36968 132.95892,132.95892 0 0 1 417.4192,53.410759 132.95892,132.95892 0 0 1 550.37813,186.36968 Z" />
  </g>
</svg>
