<?xml version="1.0" encoding="UTF-8" standalone="no"?>
<svg
   xmlns:dc="http://purl.org/dc/elements/1.1/"
   xmlns:cc="http://creativecommons.org/ns#"
   xmlns:rdf="http://www.w3.org/1999/02/22-rdf-syntax-ns#"
   xmlns:svg="http://www.w3.org/2000/svg"
   xmlns="http://www.w3.org/2000/svg"
   xmlns:sodipodi="http://sodipodi.sourceforge.net/DTD/sodipodi-0.dtd"
   xmlns:inkscape="http://www.inkscape.org/namespaces/inkscape"
   sodipodi:docname="comic hunter logo.svg"
   inkscape:version="1.0 (4035a4fb49, 2020-05-01)"
   id="svg8"
   version="1.1"
   viewBox="0 0 210 297"
   height="297mm"
   width="210mm">
  <defs
     id="defs2" />
  <sodipodi:namedview
     inkscape:window-maximized="1"
     inkscape:window-y="-11"
     inkscape:window-x="-11"
     inkscape:window-height="1346"
     inkscape:window-width="2160"
     showgrid="false"
     inkscape:document-rotation="0"
     inkscape:current-layer="layer1"
     inkscape:document-units="mm"
     inkscape:cy="533.15065"
     inkscape:cx="577.5391"
     inkscape:zoom="1.0235762"
     inkscape:pageshadow="2"
     inkscape:pageopacity="0.0"
     borderopacity="1.0"
     bordercolor="#666666"
     pagecolor="#ffffff"
     id="base" />
  <metadata
     id="metadata5">
    <rdf:RDF>
      <cc:Work
         rdf:about="">
        <dc:format>image/svg+xml</dc:format>
        <dc:type
           rdf:resource="http://purl.org/dc/dcmitype/StillImage" />
        <dc:title></dc:title>
      </cc:Work>
    </rdf:RDF>
  </metadata>
  <g
     id="layer1"
     inkscape:groupmode="layer"
     inkscape:label="Layer 1">
    <path
       id="path847"
       d="m 7.8302096,207.76509 c -3.89308,-1.04988 -7.30466396,-3.80135 -8.906264,-7.183 l -0.85785,-1.81125 V 125.87813 52.985408 l 0.85785,-1.81125 c 1.62626004,-3.4337 5.044354,-6.16093 9.019194,-7.19624 2.2572804,-0.58795 235.3524304,-0.57379 237.8474404,0.0144 4.87047,1.14829 8.5671,4.72532 9.58715,9.27696 0.41354,1.8453 0.39254,144.159952 -0.0215,145.697582 -1.10939,4.11995 -4.83975,7.59819 -9.41373,8.7775 -1.47206,0.37954 -12.7362,0.4175 -119.19479,0.40174 C 27.88935,208.1315 8.9640096,208.0708 7.8302096,207.76505 Z M 244.65777,204.71048 c 3.40086,-0.88408 6.13326,-3.35226 7.01484,-6.33652 0.49611,-1.67941 0.50669,-3.39073 0.45077,-72.89271 l -0.0573,-71.172922 -0.7006,-1.49436 c -1.23173,-2.6272 -3.6702,-4.58283 -6.69717,-5.37105 -1.41377,-0.36814 -13.6109,-0.41016 -117.87188,-0.40604 -123.7252204,0.005 -118.2734204,-0.0484 -120.6476404,1.17936 -0.45455,0.23506 -1.57466,1.16616 -2.48912,2.06911 -2.83035396,2.79472 -2.550884,-5.53611 -2.550884,76.039892 0,77.48064 -0.10733,72.02135 1.462694,74.39382 0.9439,1.42632 3.2598,3.18149 4.96486,3.76274 1.31101,0.44692 7.0547304,0.47046 118.7203704,0.48672 80.423,0.0117 117.67569,-0.0695 118.40104,-0.25804 z M 54.5978,184.09233 c -3.04287,-1.4048 -8.99295,-8.61213 -12.71809,-15.40545 -0.61469,-1.12096 -1.31828,-2.0905 -1.56353,-2.15452 -0.24525,-0.064 -1.04122,-0.26093 -1.76883,-0.43758 -6.36882,-1.5462 -12.83866,-4.59475 -17.59479,-8.29054 C 6.6678696,146.70418 0.73870564,129.22558 5.3731896,111.87773 7.9168896,102.35612 13.79383,93.967028 22.27548,87.750388 c 3.02045,-2.21384 8.11132,-4.73696 12.28471,-6.08851 4.84705,-1.56972 7.62743,-1.95457 14.04133,-1.94356 5.29176,0.009 6.12389,0.0746 9.15499,0.72119 3.86518,0.82445 7.01593,1.87988 10.56339,3.53848 l 2.52047,1.17843 1.58057,-0.44268 c 1.08303,-0.30332 2.9965,-0.47943 6.0785,-0.55945 4.06219,-0.10547 4.5922,-0.0675 5.4712,0.39245 l 0.97329,0.50924 1.27567,-0.75113 c 2.90591,-1.71101 6.83466,-2.34756 14.48912,-2.34756 5.07882,0 6.16228,0.0744 8.0553,0.5531 1.20296,0.3042 2.21417,0.51256 2.24712,0.46302 0.033,-0.0495 0.26374,-0.41597 0.51287,-0.81428 0.95153,-1.52132 2.29263,-1.8825 10.10251,-2.72077 3.46817,-0.37225 4.12208,-0.37857 5.18443,-0.0501 1.04907,0.32435 1.64739,0.32468 4.36563,0.002 3.67403,-0.43561 5.43325,-0.19679 6.75728,0.91731 l 0.82309,0.69258 0.55377,-0.77838 c 1.77037,-2.48848 3.06697,-3.08059 7.80156,-3.56267 1.55356,-0.15818 4.07481,-0.46032 5.60278,-0.67141 3.41439,-0.47171 4.08217,-0.46591 5.42396,0.0471 1.38406,0.52915 3.47596,0.46548 4.34614,-0.13228 1.26372,-0.86809 2.25273,-1.08321 7.42782,-1.61563 2.83766,-0.29194 5.93328,-0.64599 6.87917,-0.78678 1.81256,-0.26978 3.30711,-0.0413 4.42829,0.67699 0.51461,0.32969 1.17062,0.32619 5.02709,-0.0268 2.43938,-0.22328 5.12345,-0.51662 5.9646,-0.65186 0.84114,-0.13525 2.09774,-0.17858 2.79245,-0.0963 1.04179,0.12338 1.51554,0.0214 2.70397,-0.58216 3.72196,-1.89017 11.86132,-3.68242 18.10964,-3.98765 3.45248,-0.16865 4.93527,0.13788 6.13949,1.26919 l 0.59831,0.56208 3.90714,-0.69376 c 6.85291,-1.21683 11.61441,-1.54081 13.96095,-0.94995 1.19936,0.302 3.07965,1.70616 3.626,2.70781 0.39389,0.72215 0.5345,11.77295 0.16833,13.22981 -0.3463,1.37779 -2.05445,3.15969 -3.7339,3.89513 -1.11992,0.49042 -2.08758,0.6416 -5.08716,0.79479 -3.75315,0.19167 -6.39374,0.75426 -8.00354,1.7052 -1.65811,0.97947 -2.46938,3.15907 -2.51015,6.74392 -0.0455,4.000852 1.67533,5.528332 7.45036,6.613232 0.96923,0.18208 2.13086,0.18298 3.58105,0.003 3.62732,-0.45075 6.68833,0.74329 7.79659,3.04129 0.46209,0.95814 0.5056,1.60931 0.45973,6.87917 -0.0491,5.64083 -0.0707,5.85596 -0.69733,6.957 -0.74374,1.30673 -2.53492,2.59638 -4.18218,3.01116 -1.13198,0.28503 -1.13434,0.28814 -0.53141,0.6988 2.8407,1.93482 5.65847,5.44931 6.70965,8.36868 0.88428,2.45583 1.25271,5.65107 1.11521,9.67164 -0.10444,3.05387 -0.22418,3.83514 -0.82561,5.38716 -1.27236,3.28339 -3.29208,5.84732 -6.74068,8.55692 l -0.61164,0.48058 1.28412,1.60005 c 0.70627,0.88003 1.62507,2.18183 2.04178,2.89289 0.41671,0.71106 1.30472,1.99934 1.97335,2.86285 2.97754,3.84532 3.72925,5.24117 3.72925,6.9248 0,1.67646 -0.5685,2.87261 -1.74532,3.67228 -1.71493,1.16533 -3.22393,1.34531 -7.09463,0.84618 -1.86708,-0.24076 -5.65713,-0.60846 -8.42234,-0.8171 -4.79526,-0.36182 -5.05614,-0.35694 -5.64417,0.1056 -1.3041,1.02581 -2.68685,1.17835 -6.36715,0.70238 -1.87134,-0.24201 -5.31979,-0.60215 -7.66321,-0.80029 -4.45527,-0.37671 -5.81909,-0.7393 -6.98649,-1.85745 -0.89298,-0.85531 -4.56666,-1.23467 -5.57668,-0.57587 -1.18719,0.77435 -2.6887,0.93368 -5.18154,0.54982 -1.2849,-0.19786 -4.09408,-0.47816 -6.24262,-0.62289 -4.08384,-0.27511 -5.96699,-0.78528 -6.96362,-1.88654 -0.59432,-0.65671 -1.45648,-0.63849 -2.82507,0.0597 -0.98402,0.502 -1.3851,0.54656 -3.62748,0.40299 -1.38663,-0.0888 -3.94989,-0.34309 -5.69614,-0.56514 -1.74625,-0.22204 -4.3061,-0.52261 -5.68854,-0.66793 -12.86737,-1.3526 -12.07834,-1.23199 -13.65851,-2.08785 -1.19851,-0.64914 -2.0295,-0.8645 -4.26423,-1.1051 -2.44946,-0.26373 -2.9488,-0.24438 -4.24923,0.16466 -1.38995,0.43719 -1.66229,0.43879 -4.79821,0.0282 -1.82854,-0.2394 -4.09852,-0.50859 -5.04441,-0.59819 -0.94588,-0.0896 -2.3151,-0.44256 -3.04271,-0.78434 -1.67411,-0.7864 -5.71248,-1.27 -7.18788,-0.86077 -0.57756,0.1602 -1.92548,0.21475 -3.13087,0.12672 -4.3911,-0.32072 -7.62354,-0.72928 -8.16785,-1.03238 -0.92672,-0.51603 -4.41312,-0.92951 -5.45819,-0.64734 -0.60807,0.16419 -2.10708,0.14027 -4.36562,-0.0697 -4.79284,-0.44549 -5.93166,-0.70332 -7.04288,-1.59454 -0.9551,-0.76601 -0.96062,-0.76691 -2.24896,-0.36795 -2.31135,0.71576 -11.25342,0.5996 -13.85387,-0.17997 -0.51226,-0.15356 -1.58622,-0.57705 -2.38658,-0.94108 l -1.45521,-0.66188 -2.05561,1.17408 c -2.65329,1.51544 -8.13123,3.67594 -11.67345,4.604 -2.70852,0.70963 -2.7808,0.74798 -2.62529,1.39302 0.42652,1.76909 2.34054,7.4453 3.39677,10.07342 0.65793,1.63709 1.18189,3.37422 1.17972,3.91125 -0.0106,2.6259 -2.49773,4.10238 -4.98003,2.95637 z m 0.70425,-5.0991 c -2.03063,-4.97895 -4.97015,-14.90502 -4.5249,-15.27951 0.11309,-0.0951 1.15812,-0.32463 2.32229,-0.51003 2.37996,-0.37902 7.25866,-1.7951 9.26041,-2.68792 l 1.32292,-0.59004 -1.05833,-0.20751 c -0.58209,-0.11413 -1.74769,-0.21437 -2.59023,-0.22276 -0.98365,-0.01 -1.90285,-0.2045 -2.56841,-0.54404 -0.91086,-0.46469 -1.20152,-0.49341 -2.39761,-0.23689 -0.7486,0.16054 -1.73594,0.21105 -2.19409,0.11224 -0.45815,-0.0988 -1.84503,-0.26963 -3.08195,-0.37958 -2.72436,-0.24218 -4.05979,-0.83274 -4.96038,-2.19362 l -0.67981,-1.02727 -0.0585,-15.2694 c -0.0487,-12.70428 0.005,-15.42404 0.31839,-16.18994 0.28835,-0.70432 0.31519,-1.20151 0.11427,-2.11667 -0.15975,-0.72759 -0.24211,-6.86274 -0.21028,-15.66266 0.0512,-14.156612 0.064,-14.482182 0.59784,-15.197192 1.18771,-1.59081 1.68367,-1.76871 5.60127,-2.00919 2.14453,-0.13164 4.02368,-0.3857 4.56884,-0.61771 0.55456,-0.23602 1.88129,-0.41117 3.30729,-0.43663 2.56181,-0.0457 3.69809,0.3125 4.46521,1.40772 0.39503,0.56398 0.40201,0.5617 2.18755,-0.71243 l 1.79125,-1.27821 -1.44388,-0.63455 c -2.34278,-1.0296 -5.74804,-2.09761 -8.71992,-2.73488 -2.34177,-0.50215 -3.60927,-0.5975 -8.06979,-0.60705 -4.57177,-0.01 -5.68578,0.0728 -8.18867,0.60712 -8.40616,1.79453 -15.40394,5.52523 -21.17044,11.28654 -1.60603,1.60458 -3.61201,3.89032 -4.45774,5.079422 -3.09041,4.34514 -5.5574804,9.99052 -6.6802804,15.28649 -0.56576,2.66856 -0.86406,8.78971 -0.58023,11.90625 1.59581,17.52214 15.6683304,32.35616 34.0327304,35.87434 1.65237,0.31655 1.69754,0.34781 2.22421,1.53897 0.89691,2.02855 3.56278,6.36079 5.55117,9.02107 1.70309,2.27857 6.19062,7.14375 6.58923,7.14375 0.0896,0 -0.18917,-0.8632 -0.61945,-1.91823 z m 167.42849,-6.04681 c 0.67556,-0.56066 0.24505,-1.66227 -1.95039,-4.99085 -1.12835,-1.71073 -2.3794,-3.69245 -2.78012,-4.40383 -0.40072,-0.71137 -1.50205,-2.3981 -2.4474,-3.74828 -0.94535,-1.35018 -1.71882,-2.72685 -1.71882,-3.05927 0,-0.46455 0.37465,-0.81481 1.61922,-1.51387 3.10757,-1.74546 5.84504,-5.56369 6.60464,-9.21219 0.41131,-1.97556 0.16231,-8.38136 -0.40748,-10.48271 -0.58266,-2.14883 -1.8068,-4.14507 -3.74322,-6.10418 -1.85838,-1.88015 -4.35793,-3.23205 -7.64503,-4.13486 -2.00465,-0.55058 -2.74586,-0.5865 -14.00545,-0.67862 -10.31255,-0.0844 -12.03262,-0.0423 -12.97375,0.31709 -2.07519,0.79252 -1.95361,-0.54005 -1.9819,21.72344 -0.0139,10.90836 -0.0379,20.18289 -0.0535,20.61008 -0.0465,1.27764 1.21437,2.18865 3.26181,2.35672 0.92163,0.0757 3.16397,0.27835 4.98298,0.45043 6.49055,0.614 6.22061,0.60878 6.69983,0.12956 0.39465,-0.39465 0.42997,-1.00983 0.31552,-5.49579 -0.13335,-5.22696 -0.0474,-5.75825 0.93102,-5.75825 0.6394,0 1.54547,1.12932 2.90011,3.61467 0.6217,1.14063 1.51242,2.60966 1.97938,3.2645 0.46696,0.65485 1.35473,2.11762 1.97284,3.25062 0.6181,1.13299 1.40658,2.24526 1.75217,2.4717 0.43196,0.28303 2.03558,0.52962 5.13065,0.78896 2.47626,0.20748 5.54633,0.54593 6.82236,0.75211 2.56982,0.41521 4.11473,0.36719 4.73451,-0.14718 z m -24.04663,-26.79501 c -2.29164,-0.8499 -2.61344,-1.67115 -2.34406,-5.98206 0.19636,-3.14245 0.23056,-3.282 0.95771,-3.90747 0.67129,-0.57742 0.94828,-0.63767 2.52281,-0.5487 3.34032,0.18875 4.67934,2.05908 4.42241,6.17722 -0.14709,2.35778 -0.50324,3.23425 -1.60849,3.95843 -0.8952,0.58656 -2.79277,0.73191 -3.95038,0.30258 z m -22.91326,21.81945 c 0.58996,-0.47715 0.62949,-0.69883 0.7123,-3.99426 0.056,-2.23046 -0.0224,-3.7548 -0.21744,-4.2257 -0.43969,-1.06149 -1.81512,-1.53552 -4.89732,-1.6878 -1.45521,-0.0719 -3.24115,-0.24999 -3.96875,-0.39576 -0.72761,-0.14577 -2.02736,-0.3907 -2.88833,-0.54427 -2.30011,-0.41029 -2.80021,-0.9868 -2.80021,-3.228 0,-3.61249 0.5532,-3.93655 5.78734,-3.39017 5.14569,0.53714 5.93839,0.50589 6.7606,-0.26654 0.67062,-0.63001 0.68122,-0.69916 0.68122,-4.44234 0,-3.6843 -0.0202,-3.82253 -0.64943,-4.45179 -0.5345,-0.53451 -0.92079,-0.65243 -2.18281,-0.66636 -0.84336,-0.009 -3.24889,-0.10856 -5.34562,-0.22055 -3.70823,-0.19806 -3.82914,-0.22327 -4.43177,-0.92387 -0.50764,-0.59016 -0.61953,-1.02079 -0.61953,-2.38428 0,-2.67397 0.0357,-2.68873 6.27258,-2.59312 3.3165,0.0508 5.4724,-0.0271 6.05306,-0.21869 1.53119,-0.50533 1.69727,-0.99778 1.69727,-5.0324 0,-3.39272 -0.0341,-3.6308 -0.59531,-4.15055 -0.58222,-0.53924 -0.85723,-0.55309 -12.50156,-0.62943 -6.54844,-0.0429 -12.17545,0.0143 -12.50447,0.12713 -1.34904,0.46272 -1.33382,0.24119 -1.42318,20.71391 -0.0902,20.67214 -0.16415,19.55207 1.34067,20.31507 0.3744,0.18983 2.22854,0.4838 4.12031,0.65326 1.89177,0.16945 4.39208,0.41915 5.55625,0.55487 1.16417,0.13573 3.78354,0.44039 5.82083,0.67703 2.0373,0.23665 4.35902,0.52378 5.15938,0.63808 2.73914,0.39118 4.38543,0.31528 5.06392,-0.23347 z m -36.94652,-3.82749 c 0.4779,-0.34946 0.49492,-0.92038 0.42797,-14.35365 -0.0697,-13.98939 -0.0697,-13.98973 0.49811,-14.59457 0.51399,-0.54751 0.76888,-0.59769 2.68799,-0.52917 3.01485,0.10763 3.08791,-0.005 3.10768,-4.80915 0.0147,-3.58245 -0.004,-3.70836 -0.66468,-4.49367 l -0.67984,-0.80795 h -10.90377 c -8.12794,0 -10.98461,0.0808 -11.22128,0.3175 -0.21899,0.21899 -0.3175,1.56075 -0.3175,4.32462 0,4.74524 0.0822,4.90657 2.58379,5.07365 2.40301,0.16051 2.71185,0.28127 3.08867,1.20771 0.31616,0.77731 0.33264,7.24176 0.0657,25.7616 -0.007,0.45872 0.18416,1.13345 0.42395,1.49941 0.37058,0.56559 0.70503,0.69103 2.23018,0.83646 0.98682,0.0941 2.86578,0.32579 4.17547,0.51486 3.24268,0.46811 3.91826,0.47598 4.49761,0.0523 z m -20.34299,-2.21981 c 0.21018,-0.13887 0.30704,-5.17818 0.33915,-17.6444 0.0247,-9.5975 0.10802,-17.70128 0.1851,-18.0084 0.0819,-0.32635 -0.0595,-0.80493 -0.34027,-1.15167 -0.45155,-0.55764 -0.71085,-0.59811 -4.31575,-0.67349 -4.15528,-0.0869 -5.09437,0.12456 -5.37849,1.21104 -0.0854,0.3264 -0.0854,3.75422 -3e-5,7.61737 0.10047,4.54797 0.0645,6.93064 -0.10191,6.75932 -0.14139,-0.14552 -0.53429,-1.03848 -0.87311,-1.98437 -0.77869,-2.17387 -1.70269,-4.26713 -4.63016,-10.48932 -0.88533,-1.88172 -1.56632,-3.00004 -1.88199,-3.09061 -0.27206,-0.0781 -2.0781,-0.13577 -4.01342,-0.12823 -2.5102,0.01 -3.61688,0.11181 -3.86108,0.356 -0.27174,0.27174 -0.34611,3.51103 -0.36075,15.71174 -0.0101,8.45318 -0.0984,15.84265 -0.1961,16.42104 -0.3902,2.30957 0.34698,3.1798 2.69363,3.1798 0.66789,0 2.2625,0.13955 3.5436,0.31012 1.82321,0.24274 2.41407,0.23973 2.71964,-0.0139 0.32954,-0.27349 0.37788,-1.38367 0.31018,-7.12314 -0.0441,-3.73953 -0.16604,-7.12657 -0.27094,-7.52675 -0.2944,-1.12303 0.30551,-0.88465 0.66587,0.26458 0.17112,0.54571 0.88436,2.36141 1.58498,4.0349 0.70063,1.67349 1.59516,3.81661 1.98783,4.7625 2.06885,4.98342 2.49402,5.92114 2.84286,6.26998 0.24558,0.24557 1.40436,0.47213 3.26366,0.63807 1.58558,0.14152 3.00194,0.30257 3.14746,0.3579 0.47956,0.18235 2.63994,0.13818 2.94004,-0.0601 z m -33.78548,-3.83333 c 1.96474,-0.73115 3.56526,-2.26896 4.29301,-4.12481 0.56609,-1.44359 0.58965,-1.87197 0.66437,-12.08 0.0426,-5.82084 0.0934,-11.92894 0.11297,-13.57356 0.0485,-4.08428 0.15801,-3.98441 -4.38011,-3.99482 -3.22648,-0.007 -3.55429,0.0368 -4.00949,0.54113 -0.46723,0.51763 -0.49706,1.1901 -0.51902,11.69864 -0.0128,6.13219 -0.0426,11.48227 -0.0661,11.88907 -0.0515,0.88957 -1.12425,2.0385 -1.90326,2.0385 -0.30885,0 -0.92534,-0.3638 -1.36998,-0.80844 l -0.80844,-0.80844 0.14377,-11.87188 c 0.13382,-11.05115 0.11194,-11.90068 -0.31653,-12.28844 -0.67978,-0.61519 -6.94032,-0.6098 -7.45174,0.006 -0.28187,0.33963 -0.34611,2.96576 -0.326,13.32621 0.0283,14.56193 0.0687,14.9287 1.8653,16.90107 1.14565,1.25777 3.67369,2.83203 5.22395,3.25308 3.051,0.82864 6.44893,0.7888 8.84735,-0.10374 z M 65.333,156.23906 c 0.16492,-0.20992 0.23789,-6.01903 0.19977,-15.90385 -0.0498,-12.91877 -0.1224,-15.61261 -0.42586,-15.8048 -0.20119,-0.12742 -1.75021,-0.2335 -3.44226,-0.23573 -2.41198,-0.003 -3.14742,0.0814 -3.40499,0.3918 -0.23932,0.28837 -0.31627,1.72153 -0.28339,5.27808 0.0432,4.67054 0.0205,4.90683 -0.52241,5.44977 -0.46023,0.46023 -0.75048,0.53395 -1.53495,0.38988 -0.53206,-0.0977 -1.08334,-0.29032 -1.22506,-0.42799 -0.14925,-0.14499 -0.26058,-2.41299 -0.26458,-5.39005 -0.005,-3.5503 -0.10223,-5.23507 -0.31513,-5.44804 -0.39125,-0.39136 -5.87271,-0.34283 -6.35358,0.0563 -0.26778,0.22224 -0.3371,3.34531 -0.33144,14.93138 0.008,16.23401 -0.0794,15.45652 1.73593,15.45652 0.50744,0 1.77123,0.13167 2.80844,0.2926 2.62848,0.40782 2.58116,0.50902 2.58116,-5.51993 0,-2.84527 0.11359,-5.07388 0.27389,-5.37339 0.34525,-0.64512 2.13795,-0.70797 2.74952,-0.0964 0.67466,0.67466 0.75911,1.52169 0.62273,6.24569 -0.16072,5.56739 -0.22435,5.44411 2.96844,5.7508 3.371,0.32381 3.88002,0.3186 4.16377,-0.0426 z m 33.01019,-34.32387 c 4.56611,-0.73547 7.6647,-2.66662 9.13677,-5.69436 1.45962,-3.00214 1.87936,-5.63739 2.03102,-12.75134 0.14563,-6.830782 -0.0238,-8.719872 -1.0484,-11.687082 -0.79268,-2.29563 -2.07135,-3.6719 -4.52254,-4.86773 -2.90487,-1.41716 -3.96185,-1.61582 -7.67138,-1.4418 -5.52827,0.25933 -8.52765,1.38412 -11.42976,4.28623 -1.39096,1.39096 -2.10022,2.73093 -2.69472,5.09098 -0.37803,1.50072 -0.44823,3.08023 -0.43243,9.729082 0.0187,7.86363 0.0254,7.95771 0.72694,10.11096 0.86188,2.64558 1.96891,4.16208 3.87679,5.3107 3.00433,1.80875 7.87271,2.58362 12.02771,1.91436 z M 93.26293,113.045 c -1.00103,-0.70115 -1.13339,-1.78494 -1.11469,-9.12729 0.0163,-6.409272 0.0627,-7.106212 0.54004,-8.114702 0.79737,-1.68466 2.76287,-2.20265 4.07506,-1.07396 0.95326,0.81996 1.19777,3.18849 1.03963,10.070662 -0.1482,6.44951 -0.23842,7.10051 -1.10401,7.9661 -0.79114,0.79115 -2.50616,0.93051 -3.43603,0.27919 z m -14.39826,8.30822 c 0.46262,-0.49657 0.51813,-0.94781 0.51813,-4.21194 0,-4.50277 -0.0732,-4.65052 -2.25135,-4.54258 -2.31717,0.11484 -4.57923,-1.05797 -5.50922,-2.85638 -1.07973,-2.08796 -0.97844,-7.33901 0.18745,-9.71744 0.82664,-1.686372 2.73532,-2.721752 5.01741,-2.721752 2.49437,0 2.59839,-0.20524 2.59839,-5.12698 0,-3.32248 -0.074,-4.13003 -0.40327,-4.40334 -0.82936,-0.6883 -6.60996,0.20843 -8.98944,1.39453 -1.48644,0.74094 -4.44604,2.96138 -5.40893,4.05805 -1.16933,1.33179 -1.98228,3.08488 -2.68845,5.79753 -0.5269,2.023952 -0.61537,2.976742 -0.58964,6.350002 0.0166,2.18281 0.15814,4.72789 0.31442,5.65574 0.37536,2.22855 1.4958,4.56028 3.14033,6.53533 2.61462,3.1401 5.34033,4.26596 10.44748,4.3154 2.8292,0.0274 3.14359,-0.0184 3.61669,-0.52617 z m 139.65394,-0.32971 c 1.49935,-0.77534 1.52195,-0.8699 1.56409,-6.5456 0.043,-5.79465 0.0727,-5.686 -1.71691,-6.28683 -0.6471,-0.21726 -1.3845,-0.22306 -2.68602,-0.0211 -2.6656,0.41358 -6.41968,-0.40565 -9.1256,-1.99142 -2.9408,-1.72342 -4.25798,-5.64217 -3.57451,-10.634512 0.51596,-3.76881 1.9618,-6.32451 4.23957,-7.49399 2.13784,-1.09763 5.25723,-1.85938 7.62043,-1.86089 2.74109,-0.002 3.98314,-0.30369 4.79226,-1.16496 0.57792,-0.61517 0.60149,-0.83128 0.6567,-6.01968 0.0315,-2.95988 -0.0342,-5.57363 -0.14596,-5.80833 -0.55891,-1.17368 -3.68844,-1.29265 -9.48385,-0.36053 -5.41141,0.87036 -9.13834,1.95182 -12.32434,3.57621 -8.34927,4.25689 -11.04041,6.85326 -12.92266,12.46756 -1.06199,3.16766 -1.47591,5.57849 -1.47591,8.59627 0,3.409532 0.66301,9.004132 1.24409,10.497902 0.56858,1.46161 2.61599,4.54944 3.82369,5.76672 1.16408,1.17332 4.39254,3.60079 6.06586,4.5609 3.12444,1.79272 7.88955,2.82373 14.26636,3.08676 5.82355,0.2402 8.19548,0.14606 9.18271,-0.36446 z m -167.93271,-0.83392 0.13229,-1.05834 4.01262,-0.0729 4.01262,-0.0729 0.0984,-1.77917 c 0.0541,-0.97854 0.0468,-1.94007 -0.0163,-2.13673 -0.0915,-0.28505 -0.92514,-0.33871 -4.11102,-0.26458 l -3.9963,0.093 -0.13229,-0.92605 c -0.13103,-0.91723 -0.14489,-0.92605 -1.45521,-0.92605 H 47.8078 l -0.0737,3.8243 c -0.0406,2.10336 -0.012,3.98517 0.0635,4.1818 0.0951,0.24794 0.52318,0.33275 1.39665,0.27675 1.25408,-0.0804 1.26004,-0.0853 1.39176,-1.13909 z m 75.39998,0.71973 c 0.56429,-0.45694 0.58093,-0.62351 0.56144,-5.6224 -0.0273,-6.9982 0.2253,-11.94524 0.60384,-11.8267 0.16291,0.051 0.89151,0.93685 1.61911,1.96853 2.37742,3.37098 4.36755,5.87969 4.88324,6.15569 0.27826,0.14892 0.96773,0.27076 1.53216,0.27076 0.77933,0 1.18877,-0.17505 1.70187,-0.7276 0.75436,-0.81237 2.45563,-3.68185 3.82166,-6.4459 0.49534,-1.00228 1.06072,-1.82232 1.2564,-1.82232 0.51213,0 0.68146,4.58165 0.42253,11.4322 -0.11594,3.06719 -0.15296,5.7274 -0.0823,5.91157 0.2968,0.77346 1.65052,0.94064 7.84048,0.96827 4.42146,0.0197 6.35931,-0.0627 6.62328,-0.28178 0.31345,-0.26015 0.37937,-3.09132 0.41217,-17.70278 0.0215,-9.566212 0.16041,-18.613722 0.30876,-20.105572 0.41096,-4.13277 0.22954,-4.28231 -4.45359,-3.67111 -1.705,0.22252 -4.34533,0.5393 -5.8674,0.70395 -1.52206,0.16466 -3.0971,0.46988 -3.50007,0.67827 -0.80631,0.41696 -1.95846,2.10221 -4.05238,5.92739 -1.53147,2.79771 -4.19755,7.00933 -4.59107,7.25254 -0.48757,0.30133 -1.05229,-0.15527 -2.03927,-1.64884 -0.54615,-0.82646 -1.67825,-2.33609 -2.51578,-3.35474 -0.83753,-1.01865 -2.04756,-2.74505 -2.68896,-3.83646 -1.49201,-2.53881 -2.00006,-2.80913 -4.53597,-2.41344 -1.03626,0.1617 -3.25193,0.41858 -4.92372,0.57085 -4.37599,0.39858 -4.4903,0.5166 -4.21934,4.35613 0.0822,1.16417 0.13214,9.06378 0.11107,17.554692 -0.0321,12.92541 0.0221,15.49836 0.33255,15.80885 0.29312,0.29311 1.46983,0.37084 5.6143,0.37084 4.63292,0 5.31117,-0.0548 5.82498,-0.47089 z m 53.33647,-0.28987 0.81042,-0.4942 -0.0719,-7.50847 c -0.0395,-4.12965 -0.13486,-7.92516 -0.21187,-8.43449 -0.077,-0.50932 -0.0369,-6.581512 0.0891,-13.493752 0.24807,-13.60901 0.25274,-13.55272 -1.14698,-13.8203 -0.37351,-0.0714 -1.24398,-0.0313 -1.93436,0.0891 -0.69038,0.1204 -3.62357,0.4651 -6.51819,0.76599 -4.29244,0.4462 -5.40242,0.64639 -6.01927,1.08563 -0.41598,0.2962 -0.76482,0.67927 -0.7752,0.85126 -0.16599,2.74856 -0.0915,40.131562 0.0807,40.478162 0.13057,0.26287 0.4975,0.58274 0.81541,0.71083 0.31791,0.12809 3.61411,0.23999 7.32489,0.24867 6.13869,0.0144 6.81993,-0.0288 7.55729,-0.47842 z M 54.48477,111.73988 c 2.21714,-0.0624 4.1519,-0.18804 4.29948,-0.27925 0.3222,-0.19913 0.35332,-3.29503 0.0381,-3.79216 -0.15805,-0.24929 -0.7379,-0.32558 -2.01098,-0.26459 -1.47433,0.0706 -1.84143,0.004 -2.08762,-0.37732 -0.21808,-0.33803 -0.22017,-0.58801 -0.008,-0.92604 0.22373,-0.35603 0.7245,-0.48092 2.16722,-0.54047 2.14177,-0.0884 2.13631,-0.0819 2.11023,-2.52504 -0.0117,-1.09773 -0.12809,-1.58699 -0.4025,-1.69229 -0.2123,-0.0815 -1.71334,-0.0137 -3.33564,0.15066 -1.6223,0.16434 -3.78307,0.3177 -4.80171,0.3408 -2.66833,0.0605 -2.77813,0.1537 -2.77813,2.35742 v 1.84278 h 2.00114 2.00114 l -0.0829,0.85989 -0.0829,0.8599 -1.85208,0.13228 -1.85209,0.13229 -0.0798,1.69192 c -0.11096,2.35371 -0.045,2.45666 1.46426,2.2856 0.69374,-0.0786 3.07537,-0.194 5.2925,-0.25638 z m 23.85893,-6.64036 c -0.0306,-1.96937 -0.15937,-3.64482 -0.28621,-3.72321 -0.12683,-0.0784 -0.4177,0.30529 -0.64639,0.8526 -0.51846,1.24086 -0.43083,5.34093 0.12855,6.01421 0.73784,0.8881 0.85928,0.41329 0.80405,-3.1436 z M 54.79951,99.953038 c 2.56445,-0.17158 3.88698,-0.36607 4.03084,-0.59275 0.24766,-0.39024 0.30144,-7.36367 0.0616,-7.98865 -0.18191,-0.47406 -1.06616,-0.54257 -2.07113,-0.16048 -0.63702,0.24219 -0.67869,0.36888 -0.67869,2.06375 0,1.84892 -0.26257,2.44072 -1.08294,2.44072 -0.58682,0 -0.76914,-0.53152 -0.76914,-2.2423 0,-1.55581 -0.15498,-1.6998 -1.5875,-1.47494 l -0.92604,0.14536 -0.0777,1.91823 c -0.0745,1.8395 -0.10441,1.91823 -0.7276,1.91823 -0.62217,0 -0.64987,-0.0719 -0.64987,-1.6874 0,-1.95318 -0.24364,-2.26012 -1.65365,-2.0833 l -0.99218,0.12443 v 3.8957 c 0,2.14264 0.0878,3.983492 0.19508,4.090792 0.10729,0.10729 0.85143,0.12598 1.65364,0.0415 0.80221,-0.0845 3.1761,-0.26847 5.2753,-0.408922 z"
       style="fill:#000000;stroke-width:0.264583" />
  </g>
</svg>
