<?xml version="1.0" encoding="UTF-8" standalone="no"?>
<svg
   xmlns:dc="http://purl.org/dc/elements/1.1/"
   xmlns:cc="http://creativecommons.org/ns#"
   xmlns:rdf="http://www.w3.org/1999/02/22-rdf-syntax-ns#"
   xmlns:svg="http://www.w3.org/2000/svg"
   xmlns="http://www.w3.org/2000/svg"
   xmlns:sodipodi="http://sodipodi.sourceforge.net/DTD/sodipodi-0.dtd"
   xmlns:inkscape="http://www.inkscape.org/namespaces/inkscape"
   sodipodi:docname="d&amp;d.svg"
   inkscape:version="1.0 (4035a4fb49, 2020-05-01)"
   id="svg858"
   version="1.1"
   viewBox="0 0 210 297"
   height="297mm"
   width="210mm">
  <defs
     id="defs852" />
  <sodipodi:namedview
     inkscape:window-maximized="1"
     inkscape:window-y="-11"
     inkscape:window-x="-11"
     inkscape:window-height="1346"
     inkscape:window-width="2160"
     showgrid="false"
     inkscape:document-rotation="0"
     inkscape:current-layer="layer1"
     inkscape:document-units="mm"
     inkscape:cy="347.39488"
     inkscape:cx="252.35936"
     inkscape:zoom="2.0471523"
     inkscape:pageshadow="2"
     inkscape:pageopacity="0.0"
     borderopacity="1.0"
     bordercolor="#666666"
     pagecolor="#ffffff"
     id="base" />
  <metadata
     id="metadata855">
    <rdf:RDF>
      <cc:Work
         rdf:about="">
        <dc:format>image/svg+xml</dc:format>
        <dc:type
           rdf:resource="http://purl.org/dc/dcmitype/StillImage" />
        <dc:title></dc:title>
      </cc:Work>
    </rdf:RDF>
  </metadata>
  <g
     id="layer1"
     inkscape:groupmode="layer"
     inkscape:label="Layer 1">
    <path
       id="path1449"
       d="m 53.496583,103.09566 c -2.6432,-0.5195 -4.53547,-2.32935 -5.4855,-5.246559 l -0.55187,-1.694624 -0.57261,1.182846 c -0.65585,1.35482 -0.69513,2.062451 -0.19265,3.470867 l 0.35673,0.99987 -0.8277,-0.4834 c -0.45523,-0.26587 -1.18653,-0.99372 -1.62511,-1.617443 -0.75635,-1.075645 -0.804227,-1.300501 -0.929705,-4.366398 -0.09933,-2.42706 -0.244256,-3.402777 -0.581705,-3.916418 C 42.839286,91.048167 41.182971,89.506413 39.405765,87.99828 37.628558,86.49015 35.958966,84.958569 35.695557,84.594767 35.432151,84.230965 35.109472,83.231351 34.978494,82.3734 34.756875,80.921726 34.637024,80.722857 33.251135,79.507213 32.090876,78.48948 31.761918,78.033095 31.761918,77.441127 v -0.759806 l 0.631897,0.631896 c 0.347543,0.347543 1.091684,0.704699 1.653645,0.793679 2.503427,0.396385 2.575113,0.44374 3.081896,2.035881 0.507963,1.595837 0.796202,1.795724 2.599285,1.802545 1.151596,0.0044 1.873385,0.473626 5.955282,3.871828 3.12405,2.600802 4.3779,3.294965 5.54768,3.071347 0.97711,-0.186785 1.96018,-1.514829 1.96932,-2.660385 l 0.008,-0.971886 0.77301,0.849534 c 1.50691,1.656099 1.67988,4.595125 0.36256,6.160667 l -0.66895,0.795007 h 1.35493 c 4.36758,0 6.46252,-3.789677 3.52213,-6.371381 l -0.97796,-0.85866 1.18282,0.183531 c 1.71399,0.265948 3.82772,1.376148 4.75839,2.499264 1.03792,1.252541 1.69788,3.463034 1.46633,4.911355 -0.49494,3.095842 -3.19568,5.337667 -6.87496,5.706758 l -1.8711,0.187701 1.32292,0.619712 c 0.82948,0.388566 1.84578,0.627666 2.72474,0.641026 l 1.40183,0.0213 -0.77709,0.69759 c -1.55008,1.39149 -5.09691,2.25096 -7.41169,1.79601 z m -30.141202,-1.13887 c -2.469114,-0.62941 -4.740561,-1.977785 -6.42087,-3.811549 -1.692078,-1.846603 -2.213588,-1.925751 -2.059749,-0.312597 0.120527,1.263843 -0.105251,1.12086 -1.404646,-0.889558 -2.20077,-3.405018 -2.801545,-8.1582 -1.592421,-12.598842 0.295069,-1.083673 0.47739,-2.065938 0.405157,-2.182813 -0.211349,-0.341968 -0.801956,-0.245152 -1.163741,0.190773 -0.557433,0.671663 -0.557441,0.289049 -3.2e-5,-1.487482 0.592142,-1.887231 2.607967,-4.82219 3.985975,-5.803419 l 0.866758,-0.617185 -0.18504,1.040429 c -0.27167,1.527516 -0.704686,6.012333 -0.591435,6.125585 0.05354,0.05354 0.777324,-0.677142 1.608397,-1.623748 1.327566,-1.512114 4.244729,-3.812016 4.504996,-3.551748 0.05178,0.05177 -0.05673,0.896954 -0.24112,1.878177 -0.184391,0.98122 -0.269793,1.784038 -0.189782,1.784038 0.08001,0 0.824417,-0.47625 1.654234,-1.058334 1.095247,-0.768273 1.774814,-1.058333 2.479507,-1.058333 h 0.97075 l -0.962589,1.124479 c -3.686909,4.306983 -3.913947,10.397054 -0.499643,13.402442 3.345689,2.944993 7.651595,1.647955 11.633353,-3.504231 l 0.785082,-1.015855 2.298047,1.905212 2.298049,1.905212 -0.426675,0.830434 c -1.461151,2.843824 -4.448228,6.216793 -6.646363,7.504983 -3.192702,1.87105 -7.89314,2.64298 -11.106199,1.82393 z M 28.61491,82.977301 c 1.00942,-1.080588 0.966254,-1.291096 -0.22643,-1.104226 l -0.992187,0.155456 0.501602,-0.566285 c 0.291759,-0.329382 0.554624,-1.118092 0.628343,-1.88531 0.118905,-1.237458 0.06724,-1.378529 -0.835548,-2.281314 -0.949635,-0.949634 -0.986314,-0.960932 -2.789024,-0.85907 -1.577342,0.08913 -1.796494,0.04803 -1.605228,-0.301054 0.296054,-0.540329 2.118896,-2.251752 2.75859,-2.589974 0.443079,-0.234267 0.337819,-0.320604 -0.79375,-0.651047 l -1.304569,-0.380965 0.967179,-0.417714 c 0.531948,-0.229742 1.633276,-0.555995 2.447396,-0.725005 0.814119,-0.169011 1.480217,-0.375395 1.480217,-0.458633 0,-0.314006 -4.145676,0.162927 -5.159375,0.593553 -2.045551,0.868963 -3.16965,1.976554 -2.006014,1.976554 1.411434,0 1.27968,0.352028 -0.441596,1.179883 -0.982148,0.472369 -2.327573,1.274231 -2.989834,1.781916 l -1.204111,0.923063 0.253171,-1.396754 c 0.210928,-1.163701 0.177759,-1.511845 -0.198789,-2.086531 -0.585729,-0.893935 -1.573888,-1.256108 -3.135224,-1.149099 -1.241277,0.08507 -1.248891,0.08072 -0.661458,-0.378125 0.326849,-0.255304 1.559365,-0.996319 2.738923,-1.646701 1.179559,-0.650381 2.295376,-1.364123 2.479595,-1.586092 0.473844,-0.570948 -0.06405,-1.765907 -1.272516,-2.826953 l -0.948687,-0.832959 1.660615,0.187878 c 0.913338,0.103332 1.851839,0.261256 2.085558,0.350943 0.337201,0.129396 0.380039,0.05798 0.207468,-0.345889 -0.369943,-0.865769 -0.778639,-3.000195 -0.607283,-3.17155 0.08942,-0.08942 0.610632,0.333345 1.158243,0.939484 0.54761,0.60614 2.091775,1.747173 3.431477,2.53563 1.339702,0.788456 2.805913,1.855067 3.258246,2.370247 0.452333,0.515179 0.822424,0.807571 0.822424,0.64976 0,-0.629824 -0.838253,-1.845009 -1.899096,-2.753052 -1.063245,-0.910097 -1.124574,-1.042057 -1.226221,-2.638391 -0.07194,-1.129726 0.04797,-2.19006 0.365893,-3.23573 l 0.472892,-1.555353 0.16813,1.058334 c 0.335672,2.112965 1.499772,3.66662 5.557986,7.417909 0.945885,0.874347 2.106744,2.06068 2.579687,2.636295 0.472943,0.575614 0.859896,0.94057 0.859896,0.811014 0,-0.652196 -1.873551,-2.997634 -3.983763,-4.987146 l -2.366237,-2.230892 0.0186,-1.426715 c 0.0188,-1.442005 0.450732,-3.146738 0.491974,-1.941686 0.04738,1.384254 1.522057,3.493752 4.521635,6.468096 3.164918,3.138293 3.948429,4.315526 4.167851,6.262237 0.07093,0.629285 0.34504,1.321713 0.622699,1.572991 0.272799,0.246877 0.495996,0.60901 0.495996,0.804738 0,0.543843 0.48319,0.425897 1.20265,-0.293566 l 0.649433,-0.64943 v 0.734591 c 0,1.22518 -0.774805,3.101301 -1.725038,4.177022 l -0.898768,1.017458 -0.01101,-0.747956 c -0.01714,-1.164389 -1.226899,-2.193985 -2.838289,-2.415608 l -1.344544,-0.184923 0.283826,-0.751941 c 0.465842,-1.23417 -0.0577,-1.588113 -2.349095,-1.588113 -1.066425,0 -2.569894,0.141409 -3.341041,0.314243 l -1.402085,0.31424 1.282634,0.196691 c 0.705449,0.10818 1.321651,0.23571 1.369338,0.283395 0.04769,0.04769 -0.04321,0.573448 -0.202004,1.168355 -0.345507,1.294445 -0.123414,2.067023 0.544034,1.892483 0.406074,-0.106191 0.471991,0.04976 0.459805,1.087898 -0.0132,1.124873 0.03939,1.221825 0.732691,1.350714 l 0.746915,0.138856 -0.746915,0.697399 c -0.826152,0.771382 -1.965448,1.388991 -3.034027,1.644735 l -0.699612,0.167439 z m 5.94143,-10.257267 c -0.575211,-1.112336 -2.529839,-2.661729 -2.529839,-2.005351 0,0.513974 1.124863,2.190941 1.633902,2.435852 1.101639,0.530024 1.334727,0.418024 0.895937,-0.430501 z m 9.104308,9.362459 c -0.796229,-0.64444 -1.596517,-1.17625 -1.778418,-1.181801 -0.630962,-0.01926 -0.320474,-0.506251 1.675461,-2.627942 3.476912,-3.695975 6.762132,-5.76261 10.373922,-6.525925 l 1.7751,-0.375149 -1.99529,0.104673 c -2.97667,0.156157 -6.3935,1.700333 -9.05892,4.094015 -0.962481,0.864354 -0.990241,0.872302 -0.739045,0.211609 0.661685,-1.740366 4.375515,-6.268456 5.141235,-6.268456 0.16772,0 0.15131,0.124246 -0.0419,0.3175 -0.41835,0.418347 -0.40871,1.53499 0.0132,1.533109 0.1819,-8.2e-4 1.15025,-0.655655 2.15189,-1.455208 1.00164,-0.799554 1.8503,-1.453734 1.88592,-1.453734 0.0356,0 0.52578,-0.18239 1.08925,-0.405312 l 1.0245,-0.405311 -0.7276,0.559671 c -0.83549,0.642653 -0.98079,1.573869 -0.24557,1.573869 0.26511,0 1.04853,-0.193026 1.74091,-0.428945 2.03618,-0.693795 5.15021,-0.415031 7.30205,0.65367 0.94589,0.469768 2.13403,1.196132 2.64032,1.614142 l 0.92053,0.760017 -1.74027,0.01336 c -2.08559,0.01601 -3.80621,0.374085 -5.40205,1.124218 -1.1214,0.527122 -1.23301,0.533532 -2.24425,0.128916 -2.02234,-0.809181 -4.61271,-0.410792 -6.45232,0.992343 -1.25244,0.955284 -3.38588,3.862219 -4.72963,6.444396 l -1.13133,2.173988 -1.447685,-1.17171 z M 34.16301,64.638672 31.945577,62.409659 32.382914,60.851001 c 0.519802,-1.85256 0.544682,-2.691762 0.121664,-4.103669 -0.644609,-2.151515 -2.84474,-3.418118 -4.951825,-2.850739 -1.250855,0.33682 -2.543785,1.721178 -2.905516,3.110975 -0.457472,1.757642 -1.077998,4.936771 -1.149922,5.891366 l -0.06977,0.926042 -1.058334,-1.06979 c -0.699199,-0.706768 -1.32728,-1.757638 -1.850894,-3.096814 -0.435909,-1.114863 -0.875405,-1.943145 -0.976658,-1.840627 -0.101253,0.102519 -0.53403,1.436554 -0.961725,2.964522 l -0.777629,2.778125 -0.428526,-1.437084 c -0.890966,-2.987901 -0.290667,-6.498499 1.536949,-8.98821 1.179277,-1.606496 3.664782,-3.317116 5.675089,-3.905812 1.876608,-0.549545 5.484341,-0.557526 7.506905,-0.01661 5.271871,1.409918 8.234763,6.392107 7.087593,11.917995 -0.310597,1.496141 -2.241433,5.737011 -2.612017,5.737011 -0.10332,0 -1.185698,-1.003056 -2.405286,-2.229012 z"
       style="fill:#000000;stroke-width:0.264583" />
  </g>
</svg>
