<?xml version="1.0" encoding="UTF-8" standalone="no"?>
<svg
   xmlns:dc="http://purl.org/dc/elements/1.1/"
   xmlns:cc="http://creativecommons.org/ns#"
   xmlns:rdf="http://www.w3.org/1999/02/22-rdf-syntax-ns#"
   xmlns:svg="http://www.w3.org/2000/svg"
   xmlns="http://www.w3.org/2000/svg"
   xmlns:sodipodi="http://sodipodi.sourceforge.net/DTD/sodipodi-0.dtd"
   xmlns:inkscape="http://www.inkscape.org/namespaces/inkscape"
   sodipodi:docname="d20.svg"
   inkscape:version="1.0 (4035a4fb49, 2020-05-01)"
   id="svg8"
   version="1.1"
   viewBox="0 0 210 297"
   height="297mm"
   width="210mm">
  <defs
     id="defs2" />
  <sodipodi:namedview
     inkscape:window-maximized="1"
     inkscape:window-y="-11"
     inkscape:window-x="-11"
     inkscape:window-height="1346"
     inkscape:window-width="2160"
     showgrid="false"
     inkscape:document-rotation="0"
     inkscape:current-layer="layer1"
     inkscape:document-units="mm"
     inkscape:cy="689.08828"
     inkscape:cx="509.18383"
     inkscape:zoom="1.4"
     inkscape:pageshadow="2"
     inkscape:pageopacity="0.0"
     borderopacity="1.0"
     bordercolor="#666666"
     pagecolor="#ffffff"
     id="base" />
  <metadata
     id="metadata5">
    <rdf:RDF>
      <cc:Work
         rdf:about="">
        <dc:format>image/svg+xml</dc:format>
        <dc:type
           rdf:resource="http://purl.org/dc/dcmitype/StillImage" />
        <dc:title></dc:title>
      </cc:Work>
    </rdf:RDF>
  </metadata>
  <g
     id="layer1"
     inkscape:groupmode="layer"
     inkscape:label="Layer 1">
    <path
       id="path847"
       d="m 57.653959,231.19858 c -0.571077,-0.69122 -6.178102,-7.89077 -12.460055,-15.99899 -7.766955,-10.02494 -11.421732,-14.94492 -11.421732,-15.37567 0,-0.75133 13.616208,-35.60503 14.092381,-36.07257 0.373787,-0.36701 38.966746,-10.73922 39.507533,-10.61801 0.194593,0.0436 6.020033,8.05649 12.945424,17.80639 10.04519,14.1421 12.57063,17.86085 12.48781,18.38854 -0.15338,0.97727 -13.926036,35.26048 -14.33418,35.68097 -0.28367,0.29224 -38.187614,7.44611 -39.452383,7.44611 -0.179563,0 -0.793721,-0.56555 -1.364798,-1.25677 z m 20.105193,-5.00738 c 8.549349,-1.55914 15.544271,-2.90357 15.544271,-2.98762 0,-0.084 -4.554141,-3.00244 -10.120313,-6.48532 -5.566172,-3.48288 -10.727954,-6.71717 -11.470627,-7.1873 l -1.350314,-0.85479 -4.272177,9.97136 c -2.349696,5.48425 -4.272132,10.06066 -4.272081,10.1698 5.3e-5,0.10914 0.08939,0.20074 0.198532,0.20356 0.109141,0.003 7.19336,-1.27054 15.742709,-2.82969 z m -14.414021,-8.33153 c 2.367888,-5.54797 4.261149,-10.13132 4.207245,-10.18523 -0.134588,-0.13459 -28.867137,-5.87986 -28.959219,-5.79059 -0.117432,0.11384 20.063893,26.07416 20.265278,26.06831 0.0998,-0.003 2.11881,-4.54451 4.486696,-10.09249 z m 34.499791,-14.44234 c 0.819896,-9.85904 1.462865,-17.95542 1.428818,-17.99197 -0.109479,-0.11753 -26.701546,20.71918 -26.77601,20.98084 -0.07134,0.25067 23.074233,14.89231 23.587855,14.92142 0.165516,0.009 0.840793,-6.86501 1.759337,-17.91029 z m 11.661258,-13.8474 c -0.10751,-0.0967 -1.74328,-1.20443 -3.63505,-2.46173 l -3.43958,-2.286 -0.18731,0.73168 c -0.19101,0.74609 -2.346488,26.64729 -2.317786,27.85147 0.0087,0.3638 2.211636,-4.8108 4.895476,-11.49912 2.68384,-6.68832 4.79175,-12.23965 4.68425,-12.3363 z m -41.867341,14.94638 c 0,-0.42636 -8.830651,-32.54813 -8.999871,-32.7373 -0.189476,-0.21183 -20.950043,26.29383 -20.932525,26.72519 0.0068,0.16823 28.294678,6.03903 29.601667,6.14347 0.181901,0.0145 0.330729,-0.0446 0.330729,-0.13136 z m 16.685303,-11.14648 c 7.412458,-5.78079 13.476139,-10.57306 13.474843,-10.64948 -0.0031,-0.18242 -36.218731,-12.3003 -36.329531,-12.156 -0.15894,0.20701 8.946254,33.31329 9.1625,33.31465 0.118245,8e-4 6.27973,-4.72838 13.692188,-10.50917 z M 48.55962,179.67098 c 4.520702,-5.82084 8.222123,-10.64629 8.22538,-10.72324 0.01186,-0.28021 -6.931574,-2.42091 -7.142606,-2.2021 -0.119533,0.12394 -2.145636,5.04737 -4.50245,10.94096 -4.270333,10.67865 -5.132692,12.90424 -4.914682,12.68386 0.0632,-0.0639 3.813656,-4.87865 8.334358,-10.69948 z m 57.02563,3.53741 c -0.46653,-0.75486 -7.620266,-10.97579 -7.846225,-11.21033 -0.1402,-0.14552 0.817946,1.88598 2.12921,4.51443 l 2.384125,4.77902 1.67709,1.10557 c 1.82765,1.20481 1.92998,1.25495 1.6558,0.81131 z m -7.519327,-3.8012 c 0,-0.34616 -11.532547,-23.15184 -11.707598,-23.15184 -0.42503,0 -22.952819,11.39032 -22.952819,11.60522 0,0.21037 33.594773,11.6212 34.329688,11.66045 0.181901,0.01 0.330729,-0.0415 0.330729,-0.11383 z M 66.051339,163.13452 c 3.710782,-1.87611 6.666124,-3.41752 6.56743,-3.42535 -0.09869,-0.008 -4.294886,1.11686 -9.32487,2.49931 -5.029985,1.38245 -9.235485,2.52289 -9.345556,2.53432 -0.255013,0.0265 4.736602,1.78751 5.091538,1.79629 0.145521,0.004 3.300677,-1.52846 7.011458,-3.40457 z"
       style="fill:#000000;stroke-width:0.264583" />
  </g>
</svg>
