<?xml version="1.0" encoding="UTF-8" standalone="no"?>
<svg
   sodipodi:docname="DDM v2p2.svg"
   inkscape:version="1.1 (c68e22c387, 2021-05-23)"
   id="svg5"
   version="1.1"
   viewBox="0 0 210 297"
   height="297mm"
   width="210mm"
   xmlns:inkscape="http://www.inkscape.org/namespaces/inkscape"
   xmlns:sodipodi="http://sodipodi.sourceforge.net/DTD/sodipodi-0.dtd"
   xmlns="http://www.w3.org/2000/svg"
   xmlns:svg="http://www.w3.org/2000/svg"
   xmlns:rdf="http://www.w3.org/1999/02/22-rdf-syntax-ns#"
   xmlns:cc="http://creativecommons.org/ns#"
   xmlns:dc="http://purl.org/dc/elements/1.1/">
  <metadata
     id="metadata26">
    <rdf:RDF>
      <cc:Work
         rdf:about="">
        <dc:format>image/svg+xml</dc:format>
        <dc:type
           rdf:resource="http://purl.org/dc/dcmitype/StillImage" />
      </cc:Work>
    </rdf:RDF>
  </metadata>
  <sodipodi:namedview
     id="namedview7"
     pagecolor="#ffffff"
     bordercolor="#111111"
     borderopacity="1"
     inkscape:pageshadow="0"
     inkscape:pageopacity="0"
     inkscape:pagecheckerboard="1"
     inkscape:document-units="mm"
     showgrid="false"
     inkscape:zoom="0.5968715"
     inkscape:cx="431.41614"
     inkscape:cy="372.77705"
     inkscape:window-width="1440"
     inkscape:window-height="897"
     inkscape:window-x="-8"
     inkscape:window-y="-8"
     inkscape:window-maximized="1"
     inkscape:current-layer="layer1"
     inkscape:snap-global="true" />
  <defs
     id="defs2" />
  <g
     id="layer1"
     inkscape:groupmode="layer">
    <path
       inkscape:label="cm guide"
       d="m 102.42388,10.66418 h 10 v 10 h -10 z"
       id="path5" />
    <g
       id="g8389"
       inkscape:label="tile"
       style="display:inline"
       transform="translate(33.246268,-117.47015)">
      <path
         id="rect1284-16-8-1-6"
         style="opacity:0.98;fill:#944c33;stroke-width:4.35851;stroke-linejoin:round"
         d="m 340.93359,526.90234 v 88.82032 h 88.81836 v 88.81836 88.81836 88.81835 h 88.81836 88.82031 v -88.81835 h -88.82031 v -88.81836 -88.81836 -88.82032 h -88.81836 z"
         transform="scale(0.26458333)" />
      <g
         id="g8255">
        <path
           id="rect3314-5-1-83-0"
           style="opacity:0.98;fill:#6b2500;stroke-width:1.35433;stroke-linejoin:round"
           inkscape:label="sticker"
           d="M 93.435225,142.63971 H 110.47522 V 159.6797 H 93.435225 Z" />
        <path
           id="rect3314-5-1-83-7"
           style="opacity:0.98;fill:#6b2500;stroke-width:1.35433;stroke-linejoin:round"
           inkscape:label="sticker"
           d="m 116.93522,142.63971 h 17.04 v 17.03999 h -17.04 z" />
        <path
           id="rect3314-5-1-83-2"
           style="opacity:0.98;fill:#6b2500;stroke-width:1.35433;stroke-linejoin:round"
           inkscape:label="sticker"
           d="m 116.93522,166.13971 h 17.04 v 17.03999 h -17.04 z" />
        <path
           id="rect3314-5-1-83-5"
           style="opacity:0.98;fill:#6b2500;stroke-width:1.35433;stroke-linejoin:round"
           inkscape:label="sticker"
           d="m 116.93522,189.63971 h 17.04 v 17.03999 h -17.04 z" />
        <path
           id="rect3314-5-1-83-3"
           style="opacity:0.98;fill:#6b2500;stroke-width:1.35433;stroke-linejoin:round"
           inkscape:label="sticker"
           d="m 116.93522,213.13971 h 17.04 v 17.03999 h -17.04 z" />
        <path
           id="rect3314-5-1-83-29"
           style="opacity:0.98;fill:#6b2500;stroke-width:1.35433;stroke-linejoin:round"
           inkscape:label="sticker"
           d="m 140.43522,213.13971 h 17.04 v 17.03999 h -17.04 z" />
      </g>
      <path
         id="path5250-29"
         style="opacity:0.98;stroke-width:4.0252;stroke-linejoin:round"
         inkscape:transform-center-x="1.6288255e-06"
         inkscape:transform-center-y="-0.74100443"
         transform="matrix(0.22312347,0,0,-0.22312347,10.603058,386.33749)"
         d="m 514.74713,980.15989 -10.22114,-20.71029 -22.85516,-3.32105 16.53815,-16.12071 -3.90413,-22.76281 20.44228,10.74714 20.44228,-10.74714 -3.90413,22.76281 16.53815,16.12071 -22.85516,3.32105 z" />
      <path
         id="path8294"
         style="font-variation-settings:normal;opacity:1;vector-effect:none;fill:none;fill-opacity:1;stroke:#000000;stroke-width:0.0649999;stroke-linecap:butt;stroke-linejoin:miter;stroke-miterlimit:4;stroke-dasharray:none;stroke-dashoffset:0;stroke-opacity:1;-inkscape-stroke:none;stop-color:#000000;stop-opacity:1"
         d="m 113.70522,209.90971 h 23.5 v 23.5 m 0,-47 h -23.5 m 0,-47 v 23.5 h 23.5" />
    </g>
    <g
       id="g8528"
       inkscape:label="tile"
       style="display:inline"
       transform="translate(33.246268,-117.47015)">
      <path
         id="rect1284-16-8-8"
         style="opacity:0.98;fill:#944c33;stroke-width:4.35851;stroke-linejoin:round"
         d="m 19.255859,481.66602 v 88.82031 88.81836 h 88.818361 v 88.81836 88.82031 h 88.82031 88.81836 v -88.82031 h -88.81836 v -88.81836 -88.81836 h -88.82031 v -88.82031 z"
         transform="scale(0.26458333)"
         inkscape:label="main" />
      <g
         id="g8397">
        <path
           id="rect3314-5-1-6"
           style="opacity:0.98;fill:#6b2500;stroke-width:1.35433;stroke-linejoin:round"
           inkscape:label="sticker"
           d="M 8.3247759,130.67105 H 25.364776 v 17.04 H 8.3247759 Z" />
        <path
           id="rect3314-5-1-61"
           style="opacity:0.98;fill:#6b2500;stroke-width:1.35433;stroke-linejoin:round"
           inkscape:label="sticker"
           d="m 8.324776,154.17105 h 17.04 v 17.04 h -17.04 z" />
        <path
           id="rect3314-5-1-1"
           style="opacity:0.98;fill:#6b2500;stroke-width:1.35433;stroke-linejoin:round"
           inkscape:label="sticker"
           d="m 31.824776,154.17105 h 17.04 v 17.03999 h -17.04 z" />
        <path
           id="rect3314-5-1-8"
           style="opacity:0.98;fill:#6b2500;stroke-width:1.35433;stroke-linejoin:round"
           inkscape:label="sticker"
           d="m 31.824776,177.67105 h 17.04 v 17.04 h -17.04 z" />
        <path
           id="rect3314-5-1-81"
           style="opacity:0.98;fill:#6b2500;stroke-width:1.35433;stroke-linejoin:round"
           inkscape:label="sticker"
           d="m 31.824776,201.17105 h 17.04 v 17.03999 h -17.04 z" />
        <path
           id="rect3314-5-1-83"
           style="opacity:0.98;fill:#6b2500;stroke-width:1.35433;stroke-linejoin:round"
           inkscape:label="sticker"
           d="m 55.324776,201.17104 h 17.04 v 17.03999 h -17.04 z" />
      </g>
      <path
         id="path5250-3"
         style="opacity:0.98;stroke-width:4.0252;stroke-linejoin:round"
         inkscape:transform-center-x="1.6288255e-06"
         inkscape:transform-center-y="-0.74100443"
         transform="matrix(0.22312347,0,0,-0.22312347,-74.50739,374.36883)"
         d="m 514.74713,980.15989 -10.22114,-20.71029 -22.85516,-3.32105 16.53815,-16.12071 -3.90413,-22.76281 20.44228,10.74714 20.44228,-10.74714 -3.90413,22.76281 16.53815,16.12071 -22.85516,3.32105 z" />
      <path
         id="path8434"
         style="font-variation-settings:normal;opacity:1;vector-effect:none;fill:none;fill-opacity:1;stroke:#000000;stroke-width:0.0649999;stroke-linecap:butt;stroke-linejoin:miter;stroke-miterlimit:4;stroke-dasharray:none;stroke-dashoffset:0;stroke-opacity:1;-inkscape-stroke:none;stop-color:#000000;stop-opacity:1"
         d="m 28.594775,197.94105 h 23.5 v 23.49999 M 5.0947759,150.94105 H 28.594775 v 23.5 l 23.5,-1e-5" />
    </g>
    <g
       id="g8750"
       inkscape:label="tile"
       style="display:inline"
       transform="translate(33.246268,-117.47015)">
      <path
         id="rect1284-16-8-1-24"
         style="opacity:0.98;fill:#944c33;stroke-width:4.35851;stroke-linejoin:round"
         d="m -59.488281,892.14062 v 88.81836 h 88.818359 v 88.82032 88.8184 88.8183 h 88.820312 v -88.8183 -88.8184 -88.82032 h 88.81836 V 892.14062 H 118.15039 29.330078 Z"
         transform="scale(0.26458333)"
         inkscape:label="main" />
      <g
         id="g8536">
        <path
           id="rect3314-5-1-83-9"
           style="opacity:0.98;fill:#6b2500;stroke-width:1.35433;stroke-linejoin:round"
           inkscape:label="sticker"
           d="M -12.509552,239.27553 H 4.5304479 v 17.03999 H -12.509552 Z" />
        <path
           id="rect3314-5-1-83-87"
           style="opacity:0.98;fill:#6b2500;stroke-width:1.35433;stroke-linejoin:round"
           inkscape:label="sticker"
           d="m 10.990448,239.27553 h 17.04 v 17.03999 h -17.04 z" />
        <path
           id="rect3314-5-1-83-88"
           style="opacity:0.98;fill:#6b2500;stroke-width:1.35433;stroke-linejoin:round"
           inkscape:label="sticker"
           d="m 34.490448,239.27553 h 17.04 v 17.04 h -17.04 z" />
        <path
           id="rect3314-5-1-83-92"
           style="opacity:0.98;fill:#6b2500;stroke-width:1.35433;stroke-linejoin:round"
           inkscape:label="sticker"
           d="m 10.990448,262.77553 h 17.04 v 17.03999 h -17.04 z" />
        <path
           id="rect3314-5-1-83-54"
           style="opacity:0.98;fill:#6b2500;stroke-width:1.35433;stroke-linejoin:round"
           inkscape:label="sticker"
           d="m 10.990448,286.27553 h 17.04 v 17.03999 h -17.04 z" />
        <path
           id="rect3314-5-1-83-86"
           style="opacity:0.98;fill:#6b2500;stroke-width:1.35433;stroke-linejoin:round"
           inkscape:label="sticker"
           d="m 10.990448,309.77553 h 17.04 v 17.03999 h -17.04 z" />
      </g>
      <path
         id="path5250-91"
         style="opacity:0.98;stroke-width:4.0252;stroke-linejoin:round"
         inkscape:transform-center-x="1.6288255e-06"
         inkscape:transform-center-y="-0.74100443"
         transform="matrix(0.22312347,0,0,-0.22312347,-95.341718,482.97331)"
         d="m 514.74713,980.15989 -10.22114,-20.71029 -22.85516,-3.32105 16.53815,-16.12071 -3.90413,-22.76281 20.44228,10.74714 20.44228,-10.74714 -3.90413,22.76281 16.53815,16.12071 -22.85516,3.32105 z"
         inkscape:label="star" />
      <path
         id="path8575"
         style="font-variation-settings:normal;opacity:1;vector-effect:none;fill:none;fill-opacity:1;stroke:#000000;stroke-width:0.0649999;stroke-linecap:butt;stroke-linejoin:miter;stroke-miterlimit:4;stroke-dasharray:none;stroke-dashoffset:0;stroke-opacity:1;-inkscape-stroke:none;stop-color:#000000;stop-opacity:1"
         d="M 7.7604479,306.54553 H 31.260446 m 0,-23.5 H 7.7604479 m 0,-47 2e-7,23.5 H 31.260446 v -23.5"
         inkscape:label="deboss" />
    </g>
    <g
       id="g8889"
       inkscape:label="tile"
       transform="translate(33.246268,-117.47015)">
      <path
         id="rect1284-16-8-1-818"
         style="opacity:0.98;fill:#944c33;stroke-width:4.35851;stroke-linejoin:round"
         d="m 275.5918,996.01562 v 88.81838 h 88.82031 v 88.8203 88.8184 88.8183 h 88.81836 v -88.8183 -88.8184 h 88.81836 v -88.8203 h -88.81836 v -88.81838 h -88.81836 z"
         transform="scale(0.26458333)"
         inkscape:label="main" />
      <g
         id="g8758">
        <path
           id="rect3314-5-1-83-60"
           style="opacity:0.98;fill:#6b2500;stroke-width:1.35433;stroke-linejoin:round"
           inkscape:label="sticker"
           d="m 76.147165,266.75911 h 17.04 v 17.03999 h -17.04 z" />
        <path
           id="rect3314-5-1-83-98"
           style="opacity:0.98;fill:#6b2500;stroke-width:1.35433;stroke-linejoin:round"
           inkscape:label="sticker"
           d="M 99.647165,266.75911 H 116.68716 V 283.7991 H 99.647165 Z" />
        <path
           id="rect3314-5-1-83-56"
           style="opacity:0.98;fill:#6b2500;stroke-width:1.35433;stroke-linejoin:round"
           inkscape:label="sticker"
           d="M 99.647157,290.25911 H 116.68716 V 307.2991 H 99.647157 Z" />
        <path
           id="rect3314-5-1-83-28"
           style="opacity:0.98;fill:#6b2500;stroke-width:1.35433;stroke-linejoin:round"
           inkscape:label="sticker"
           d="m 123.14716,290.25911 h 17.04 v 17.03999 h -17.04 z" />
        <path
           id="rect3314-5-1-83-4"
           style="opacity:0.98;fill:#6b2500;stroke-width:1.35433;stroke-linejoin:round"
           inkscape:label="sticker"
           d="M 99.647156,313.75911 H 116.68716 V 330.7991 H 99.647156 Z" />
        <path
           id="rect3314-5-1-83-73"
           style="opacity:0.98;fill:#6b2500;stroke-width:1.35433;stroke-linejoin:round"
           inkscape:label="sticker"
           d="m 99.64716,337.25911 h 17.04 v 17.03999 h -17.04 z" />
      </g>
      <path
         id="path5250-0"
         style="opacity:0.98;stroke-width:4.0252;stroke-linejoin:round"
         inkscape:transform-center-x="1.6288255e-06"
         inkscape:transform-center-y="-0.74100443"
         transform="matrix(0.22312347,0,0,-0.22312347,-6.685009,510.45689)"
         d="m 514.74713,980.15989 -10.22114,-20.71029 -22.85516,-3.32105 16.53815,-16.12071 -3.90413,-22.76281 20.44228,10.74714 20.44228,-10.74714 -3.90413,22.76281 16.53815,16.12071 -22.85516,3.32105 z"
         inkscape:label="star" />
      <path
         id="path8795"
         style="font-variation-settings:normal;opacity:1;vector-effect:none;fill:none;fill-opacity:1;stroke:#000000;stroke-width:0.0649999;stroke-linecap:butt;stroke-linejoin:miter;stroke-miterlimit:4;stroke-dasharray:none;stroke-dashoffset:0;stroke-opacity:1;-inkscape-stroke:none;stop-color:#000000;stop-opacity:1"
         d="M 96.417155,334.0291 H 119.91716 M 96.417163,263.52911 v 23.49999 h 23.499997 v 23.5 H 96.417155"
         inkscape:label="deboss" />
    </g>
  </g>
</svg>
