<?xml version="1.0" encoding="UTF-8" standalone="no"?>
<!-- Created with Inkscape (http://www.inkscape.org/) -->

<svg
   width="210mm"
   height="297mm"
   viewBox="0 0 210 297"
   version="1.1"
   id="svg5"
   inkscape:version="1.1 (c68e22c387, 2021-05-23)"
   sodipodi:docname="DDM star.svg"
   xmlns:inkscape="http://www.inkscape.org/namespaces/inkscape"
   xmlns:sodipodi="http://sodipodi.sourceforge.net/DTD/sodipodi-0.dtd"
   xmlns="http://www.w3.org/2000/svg"
   xmlns:svg="http://www.w3.org/2000/svg">
  <sodipodi:namedview
     id="namedview7"
     pagecolor="#ffffff"
     bordercolor="#111111"
     borderopacity="1"
     inkscape:pageshadow="0"
     inkscape:pageopacity="0"
     inkscape:pagecheckerboard="1"
     inkscape:document-units="mm"
     showgrid="false"
     inkscape:zoom="9.5499439"
     inkscape:cx="114.66036"
     inkscape:cy="226.65055"
     inkscape:window-width="1440"
     inkscape:window-height="897"
     inkscape:window-x="-8"
     inkscape:window-y="-8"
     inkscape:window-maximized="1"
     inkscape:current-layer="layer1" />
  <defs
     id="defs2" />
  <g
     inkscape:label="Layer 1"
     inkscape:groupmode="layer"
     id="layer1">
    <path
       style="color:#000000;opacity:0.98;fill:#000000;stroke-width:0.0525401;stroke-linejoin:round;-inkscape-stroke:none"
       d="m 31.237633,66.91005 c -0.09401,-0.01067 -0.185205,-0.03872 -0.26896,-0.08271 l -3.733521,-1.962863 -3.733523,1.962863 c -0.560067,0.29425 -1.214482,-0.181253 -1.10765,-0.804827 l 0.712984,-4.157331 -3.020435,-2.944191 c -0.45301,-0.441702 -0.203026,-1.21112 0.423091,-1.302213 l 4.174161,-0.60657 1.866811,-3.78247 c 0.280144,-0.567192 1.088976,-0.567192 1.369119,0 l 1.866813,3.78247 4.174263,0.60657 c 0.626117,0.09109 0.876101,0.860511 0.42309,1.302213 l -3.020537,2.944191 0.713087,4.157331 c 0.08589,0.501405 -0.33334,0.945002 -0.838793,0.887536 z m -7.077304,-2.154038 2.719562,-1.429766 c 0.22241,-0.116916 0.48811,-0.116916 0.710521,0 l 2.719664,1.429766 -0.519448,-3.028234 c -0.04248,-0.247641 0.0396,-0.500327 0.219498,-0.675735 l 2.200215,-2.1447 -3.040548,-0.441869 c -0.248652,-0.03611 -0.463619,-0.192255 -0.574862,-0.41755 l -1.359779,-2.755374 -1.359781,2.755374 c -0.111242,0.225295 -0.326209,0.381437 -0.574862,0.41755 l -3.040548,0.441869 2.200215,2.1447 c 0.179896,0.175408 0.261976,0.428094 0.219498,0.675735 z"
       sodipodi:nodetypes="ccccccccccccccccccccccccccccccccc"
       inkscape:label="star"
       id="path9360" />
  </g>
</svg>
