<?xml version="1.0" encoding="UTF-8" standalone="no"?>
<svg
   xmlns:dc="http://purl.org/dc/elements/1.1/"
   xmlns:cc="http://creativecommons.org/ns#"
   xmlns:rdf="http://www.w3.org/1999/02/22-rdf-syntax-ns#"
   xmlns:svg="http://www.w3.org/2000/svg"
   xmlns="http://www.w3.org/2000/svg"
   xmlns:sodipodi="http://sodipodi.sourceforge.net/DTD/sodipodi-0.dtd"
   xmlns:inkscape="http://www.inkscape.org/namespaces/inkscape"
   sodipodi:docname="deck box divider.svg"
   inkscape:version="1.0 (4035a4fb49, 2020-05-01)"
   id="svg8"
   version="1.1"
   viewBox="0 0 210 297"
   height="297mm"
   width="210mm">
  <defs
     id="defs2" />
  <sodipodi:namedview
     inkscape:window-maximized="1"
     inkscape:window-y="-11"
     inkscape:window-x="-11"
     inkscape:window-height="1346"
     inkscape:window-width="2160"
     showgrid="false"
     inkscape:document-rotation="0"
     inkscape:current-layer="layer1"
     inkscape:document-units="mm"
     inkscape:cy="416.62521"
     inkscape:cx="405.70516"
     inkscape:zoom="5.8990864"
     inkscape:pageshadow="2"
     inkscape:pageopacity="0.0"
     borderopacity="1.0"
     bordercolor="#666666"
     pagecolor="#ffffff"
     id="base" />
  <metadata
     id="metadata5">
    <rdf:RDF>
      <cc:Work
         rdf:about="">
        <dc:format>image/svg+xml</dc:format>
        <dc:type
           rdf:resource="http://purl.org/dc/dcmitype/StillImage" />
        <dc:title />
      </cc:Work>
    </rdf:RDF>
  </metadata>
  <g
     id="layer1"
     inkscape:groupmode="layer"
     inkscape:label="Layer 1">
    <g
       transform="translate(-38.057826,-4.8206579)"
       id="g933">
      <path
         id="path851"
         style="font-variation-settings:normal;opacity:1;vector-effect:none;fill:#46a2e2;fill-opacity:1;stroke:none;stroke-width:0.264583px;stroke-linecap:butt;stroke-linejoin:miter;stroke-miterlimit:4;stroke-dasharray:none;stroke-dashoffset:0;stroke-opacity:1;stop-color:#000000;stop-opacity:1"
         d="m 49.77654,84.549876 a 5,5 0 0 0 -4.980056,5.000212 v 6.999573 87.019499 c 0.01069,2.7537 2.245961,4.98042 4.999694,4.98057 h 56.019832 c 2.75372,-0.0107 4.98044,-2.24596 4.98058,-4.9997 v -82.01979 c -0.0107,-2.753724 -2.24596,-4.980436 -4.9997,-4.980579 H 77.296826 a 2.4999999,2.4999999 0 0 1 -1.76785,-0.732255 2.4999999,2.4999999 0 0 1 -0.732256,-1.767851 v -4.51962 a 5,5 0 0 0 -5.000212,-4.980059 z" />
      <path
         style="font-variation-settings:normal;opacity:1;vector-effect:none;fill:none;fill-opacity:1;stroke:#ff0000;stroke-width:0.264583px;stroke-linecap:butt;stroke-linejoin:miter;stroke-miterlimit:4;stroke-dasharray:none;stroke-dashoffset:0;stroke-opacity:1;stop-color:#000000;stop-opacity:1"
         d="M 44.669625,96.549661 H 77.169967"
         id="path928" />
    </g>
    <path
       id="rect878-4"
       style="opacity:0.998;fill:#e8a2e2;fill-opacity:1;stroke:none;stroke-width:0.401159;stroke-linecap:round"
       d="m 79.830023,91.312028 a 2.5,2.5 0 0 1 -1.76785,-0.73225 2.5,2.5 0 0 1 -0.73226,-1.76786 v 2.50011 z" />
    <path
       id="rect876-7-3"
       style="opacity:0.998;fill:#e8a2e2;fill-opacity:1;stroke:none;stroke-width:0.490773;stroke-linecap:round"
       d="m 80.475572,93.414258 a 5.0000001,5.0000001 0 0 1 4.999694,-5.00021 h -4.999694 z" />
    <g
       id="g1013">
      <path
         id="path851-7"
         style="font-variation-settings:normal;opacity:1;vector-effect:none;fill:#46a2e2;fill-opacity:1;stroke:none;stroke-width:0.999999px;stroke-linecap:butt;stroke-linejoin:miter;stroke-miterlimit:4;stroke-dasharray:none;stroke-dashoffset:0;stroke-opacity:1;stop-color:#000000;stop-opacity:1"
         d="m 358.93945,347.74805 a 18.897638,18.897638 0 0 0 -18.82226,18.89843 v 17.00586 a 9.4488188,9.4488188 0 0 1 -2.76758,6.68164 9.4488188,9.4488188 0 0 1 -6.68164,2.76758 c -10.40772,0.0404 -18.82365,8.48869 -18.82422,18.89649 v 211.72851 c 0.0404,10.40776 8.48869,18.82369 18.89648,18.82422 h 309.9961 c 10.40776,-0.0404 18.82365,-8.48865 18.82422,-18.89648 V 411.92383 a 18.897638,18.897638 0 0 0 -18.89844,-18.82227 h -158.8125 a 9.4488188,9.4488188 0 0 1 -6.68164,-2.76758 9.4488188,9.4488188 0 0 1 -2.76758,-6.68164 v -17.08398 a 18.897638,18.897638 0 0 0 -18.89844,-18.82031 z"
         transform="scale(0.26458333)" />
      <path
         style="font-variation-settings:normal;opacity:1;vector-effect:none;fill:none;fill-opacity:1;stroke:#ff0000;stroke-width:0.264583px;stroke-linecap:butt;stroke-linejoin:miter;stroke-miterlimit:4;stroke-dasharray:none;stroke-dashoffset:0;stroke-opacity:1;stop-color:#000000;stop-opacity:1"
         d="M 87.489233,104.00812 H 127.48937"
         id="path1008" />
    </g>
  </g>
</svg>
