<?xml version="1.0" encoding="UTF-8" standalone="no"?>
<svg
   xmlns:dc="http://purl.org/dc/elements/1.1/"
   xmlns:cc="http://creativecommons.org/ns#"
   xmlns:rdf="http://www.w3.org/1999/02/22-rdf-syntax-ns#"
   xmlns:svg="http://www.w3.org/2000/svg"
   xmlns="http://www.w3.org/2000/svg"
   xmlns:sodipodi="http://sodipodi.sourceforge.net/DTD/sodipodi-0.dtd"
   xmlns:inkscape="http://www.inkscape.org/namespaces/inkscape"
   sodipodi:docname="deli box.svg"
   inkscape:version="1.0 (4035a4fb49, 2020-05-01)"
   id="svg8"
   version="1.1"
   viewBox="0 0 210 297"
   height="297mm"
   width="210mm">
  <defs
     id="defs2" />
  <sodipodi:namedview
     inkscape:window-maximized="1"
     inkscape:window-y="-11"
     inkscape:window-x="-11"
     inkscape:window-height="1346"
     inkscape:window-width="2160"
     inkscape:snap-midpoints="true"
     showgrid="false"
     inkscape:document-rotation="0"
     inkscape:current-layer="layer1"
     inkscape:document-units="mm"
     inkscape:cy="539.22747"
     inkscape:cx="545.8995"
     inkscape:zoom="1.4475553"
     inkscape:pageshadow="2"
     inkscape:pageopacity="0.0"
     borderopacity="1.0"
     bordercolor="#666666"
     pagecolor="#ffffff"
     id="base" />
  <metadata
     id="metadata5">
    <rdf:RDF>
      <cc:Work
         rdf:about="">
        <dc:format>image/svg+xml</dc:format>
        <dc:type
           rdf:resource="http://purl.org/dc/dcmitype/StillImage" />
        <dc:title></dc:title>
      </cc:Work>
    </rdf:RDF>
  </metadata>
  <g
     id="layer1"
     inkscape:groupmode="layer"
     inkscape:label="Layer 1">
    <g
       id="g952">
      <rect
         style="opacity:0.998;fill:none;stroke:#000000;stroke-width:0.248077;stroke-linecap:round;stroke-linejoin:round;stroke-miterlimit:4;stroke-dasharray:none"
         id="rect833"
         width="119.75192"
         height="119.75192"
         x="20.124039"
         y="60.124039" />
      <path
         id="path946"
         style="fill:none;stroke:#ff0000;stroke-width:0.264583px;stroke-linecap:butt;stroke-linejoin:miter;stroke-opacity:1"
         d="M 50.131328,179.87596 20.124039,150.13134 m 119.751921,-0.26267 -29.74462,30.00729 M 110,59.999998 139.87596,89.868665 M 20.124039,90.131327 50,59.999998 M 80.236998,100.0796 60.124048,120 79.999998,139.87595 99.875958,120 Z M 20.124039,120 h 40.00001 M 20.124039,90.131328 60.124049,120 20.124039,150.13134 M 80,179.87596 V 139.87595 M 50.13133,179.87596 80,139.87595 110.13134,179.87596 M 139.87596,120 H 99.875958 M 139.87596,149.86867 99.875957,120 139.87596,89.868666 m -59.638963,-29.789069 -2e-6,40.000003 M 110,60 80.237,100.0796 50,60" />
    </g>
  </g>
</svg>
