<?xml version="1.0" encoding="UTF-8" standalone="no"?>
<svg
   xmlns:dc="http://purl.org/dc/elements/1.1/"
   xmlns:cc="http://creativecommons.org/ns#"
   xmlns:rdf="http://www.w3.org/1999/02/22-rdf-syntax-ns#"
   xmlns:svg="http://www.w3.org/2000/svg"
   xmlns="http://www.w3.org/2000/svg"
   xmlns:sodipodi="http://sodipodi.sourceforge.net/DTD/sodipodi-0.dtd"
   xmlns:inkscape="http://www.inkscape.org/namespaces/inkscape"
   sodipodi:docname="dice.svg"
   inkscape:version="1.0 (4035a4fb49, 2020-05-01)"
   id="svg8"
   version="1.1"
   viewBox="0 0 210 297"
   height="297mm"
   width="210mm">
  <defs
     id="defs2" />
  <sodipodi:namedview
     inkscape:window-maximized="1"
     inkscape:window-y="-11"
     inkscape:window-x="-11"
     inkscape:window-height="1346"
     inkscape:window-width="2160"
     showgrid="false"
     inkscape:document-rotation="0"
     inkscape:current-layer="layer1"
     inkscape:document-units="mm"
     inkscape:cy="477.25638"
     inkscape:cx="673.33065"
     inkscape:zoom="1.1411677"
     inkscape:pageshadow="2"
     inkscape:pageopacity="0.0"
     borderopacity="1.0"
     bordercolor="#666666"
     pagecolor="#ffffff"
     id="base" />
  <metadata
     id="metadata5">
    <rdf:RDF>
      <cc:Work
         rdf:about="">
        <dc:format>image/svg+xml</dc:format>
        <dc:type
           rdf:resource="http://purl.org/dc/dcmitype/StillImage" />
        <dc:title></dc:title>
      </cc:Work>
    </rdf:RDF>
  </metadata>
  <g
     id="layer1"
     inkscape:groupmode="layer"
     inkscape:label="Layer 1">
    <path
       id="path919"
       d="m 33.87465,80.375785 c -0.696746,-0.4593 -10.709266,-14.432648 -10.634671,-14.841617 0.0449,-0.246163 3.653511,-7.381301 8.019136,-15.85586 5.307361,-10.302658 8.101229,-15.460282 8.431618,-15.565198 0.30112,-0.09562 0.677564,0.03476 0.963785,0.333811 1.015715,1.061245 23.635277,32.803562 23.740357,33.315147 0.0616,0.299892 -0.0464,0.675777 -0.24001,0.8353 -0.35939,0.296124 -29.429145,11.984217 -29.787942,11.976847 -0.108565,-0.002 -0.330088,-0.0915 -0.492273,-0.19843 z m 14.682585,-7.668871 c 7.18167,-2.874037 13.03625,-5.344584 13.01017,-5.490105 -0.0643,-0.359021 -21.226507,-29.807478 -21.339196,-29.694789 -0.04914,0.04914 -1.164078,8.715096 -2.47765,19.257688 -1.313572,10.542593 -2.458779,19.614837 -2.544905,20.160537 -0.08613,0.54571 -0.05521,0.99219 0.0687,0.99219 0.123912,0 6.101208,-2.35148 13.282879,-5.225521 z m -0.221406,-6.515119 -0.567836,-1.706343 -2.397212,0.803984 c -2.681531,0.89934 -2.732814,0.882573 -3.006941,-0.983043 -0.110452,-0.751708 0.145472,-2.306641 0.883334,-5.366923 0.571363,-2.369723 1.104683,-4.374431 1.185159,-4.454906 0.151141,-0.151142 2.118987,-0.640015 2.207649,-0.548447 0.02744,0.02834 0.626094,1.7184 1.330343,3.755692 1.239248,3.584956 1.303042,3.701537 1.982402,3.622448 0.60173,-0.07005 0.74779,0.0572 1.02308,0.891333 0.32383,0.981218 0.22461,1.211199 -0.65556,1.519526 -0.13965,0.04892 0.009,0.7742 0.33073,1.615345 0.71003,1.855414 0.71084,1.709769 -0.0111,1.979859 -1.777683,0.665027 -1.693427,0.706297 -2.304016,-1.128525 z M 45.91595,62.563593 c 0.59723,-0.178935 1.085873,-0.419407 1.085873,-0.534382 0,-0.211214 -1.22229,-4.264991 -1.507249,-4.99886 -0.138366,-0.356339 -0.825188,2.448065 -1.255072,5.124664 -0.131882,0.821134 -0.08973,0.994971 0.213087,0.878769 0.207619,-0.07967 0.86613,-0.291256 1.463361,-0.470191 z m -9.424268,-3.985342 c 1.274379,-10.208239 2.285263,-18.592039 2.246409,-18.630668 -0.140678,-0.139864 -13.035226,25.114391 -13.035226,25.529776 0,0.398312 8.04204,11.641026 8.336924,11.654956 0.07416,0.003 1.177514,-8.345825 2.451893,-18.554064 z"
       style="fill:#000000;stroke-width:0.264583" />
    <path
       id="path923"
       d="m 156.3083,141.3433 c 0.0746,-0.25329 1.58657,-7.12803 3.36003,-15.2772 1.77346,-8.14917 3.24726,-14.84559 3.27511,-14.88095 0.0279,-0.0353 5.57795,-1.97535 12.33357,-4.3111 6.75561,-2.33575 12.89471,-4.47306 13.64244,-4.74959 l 1.35951,-0.50277 -0.37661,1.63887 c -0.20714,0.90138 -1.77607,7.65153 -3.48651,15.00033 l -3.10989,13.36146 -12.1605,4.55422 c -6.68827,2.50481 -12.79325,4.79565 -13.5666,5.09074 -1.29381,0.49367 -1.39528,0.49974 -1.27055,0.076 z m 7.28412,-3.49164 c 1.15469,-0.58908 2.31749,-1.8628 2.84096,-3.11196 1.2044,-2.87411 -0.93816,-4.54571 -3.56511,-2.78143 -4.1495,2.78684 -3.50282,8.04983 0.72415,5.89339 z m 10.28384,-12.32813 c 3.0595,-1.27608 4.78504,-5.16038 2.91127,-6.55343 -0.65074,-0.48379 -0.82485,-0.50245 -1.85209,-0.19851 -1.49366,0.44195 -3.51148,2.5 -3.91296,3.99099 -0.36273,1.34707 -0.0634,2.3881 0.81565,2.8366 0.81639,0.41654 0.86213,0.41484 2.03813,-0.0757 z m 11.12535,-12.81685 c 1.39742,-1.01229 2.43152,-2.57788 2.61722,-3.96238 0.11991,-0.89397 0.0369,-1.20373 -0.46563,-1.73871 -0.33635,-0.35802 -0.89226,-0.65095 -1.23537,-0.65095 -2.43275,0 -5.4163,3.41573 -4.98619,5.70844 0.31078,1.6566 2.24855,1.96302 4.06997,0.6436 z m -37.92291,22.54861 c -3.78354,-3.27213 -8.91724,-7.70997 -11.40822,-9.86185 l -4.52906,-3.91252 2.96563,-14.77303 c 1.87113,-9.320899 3.0738,-14.750289 3.25873,-14.711409 0.64337,0.13528 23.33933,18.448669 23.34442,18.836639 0.008,0.63792 -6.40034,30.02722 -6.5878,30.21058 -0.0905,0.0885 -3.26016,-2.51628 -7.0437,-5.78841 z m 5.34937,0.23054 c 1.16452,-1.73403 0.55595,-4.84778 -1.26987,-6.49729 -1.25171,-1.13085 -2.13988,-1.20253 -3.02786,-0.24438 -1.44915,1.56366 -1.07583,4.66686 0.79651,6.62094 0.97007,1.01242 1.2708,1.17699 2.01867,1.1047 0.65419,-0.0632 1.03309,-0.31472 1.48255,-0.98397 z m -14.73414,-12.07401 c 1.60306,-1.70639 0.4928,-6.14878 -1.82808,-7.31451 -1.03693,-0.52083 -1.77212,-0.33596 -2.49053,0.62627 -1.44252,1.9321 -0.3698,6.00138 1.88008,7.13192 1.02339,0.51424 1.64483,0.40117 2.43853,-0.44368 z m 8.8547,-3.10041 c 1.71867,-1.48268 1.21167,-5.37129 -0.93594,-7.17837 -1.86709,-1.57106 -3.69337,-0.37587 -3.69337,2.4171 0,1.63702 0.53104,3.0645 1.53539,4.12731 1.25166,1.3245 2.09352,1.497 3.09392,0.63396 z m 9.67855,-3.61766 c 1.48021,-1.48022 0.95566,-5.194 -0.97278,-6.88719 -1.96927,-1.72904 -3.81008,-0.58118 -3.81008,2.37584 0,1.83992 0.9826,3.95622 2.19848,4.73505 1.14441,0.73306 1.6734,0.68727 2.58438,-0.2237 z m -14.72825,-12.21149 c 1.42741,-1.69638 0.62555,-5.670059 -1.42412,-7.057299 -1.16628,-0.78936 -1.74485,-0.75083 -2.67376,0.17808 -0.69011,0.69011 -0.77339,0.9518 -0.77339,2.430009 0,3.88703 3.02188,6.64708 4.87127,4.44921 z m 8.97153,-4.823999 c -6.42921,-5.121 -11.69641,-9.37044 -11.70488,-9.4432 -0.0218,-0.18715 25.90792,-7.73906 26.57231,-7.73906 0.64723,0 24.03424,17.02261 23.74381,17.28231 -0.25158,0.22497 -26.33434,9.247669 -26.67194,9.226509 -0.1374,-0.009 -5.51008,-4.20556 -11.9393,-9.326559 z m 17.28139,5.013169 c 0.79726,-0.92687 0.78913,-1.02278 -0.18028,-2.12687 -2.01114,-2.29057 -7.66058,-2.32319 -7.66058,-0.0442 0,1.74874 2.51147,3.09887 5.52575,2.97057 1.46859,-0.0625 1.77105,-0.16696 2.31511,-0.79946 z m 14.18907,-4.45224 c 0.43779,-0.16862 0.79899,-0.552569 0.90057,-0.957309 0.70217,-2.79765 -6.35393,-4.82113 -8.00813,-2.29649 -0.35775,0.54599 -0.35967,0.70481 -0.0166,1.36829 0.97339,1.882329 4.62387,2.848489 7.12412,1.885509 z m -22.14173,-1.129689 c 0.79763,-0.52262 0.86046,-1.77578 0.12587,-2.51037 -1.8426,-1.8426 -5.91727,-2.33701 -7.36111,-0.89316 -0.77601,0.776 -0.61472,1.51629 0.55402,2.54287 1.64654,1.44627 5.10712,1.892059 6.68122,0.86066 z m 14.0678,-4.51908 c 1.61422,-0.67446 1.85277,-1.69628 0.66223,-2.83661 -2.01881,-1.93368 -6.2631,-2.27673 -7.36484,-0.59527 -0.78153,1.19276 0.25906,2.53252 2.59325,3.3388 1.72571,0.59609 2.84482,0.62144 4.10936,0.0931 z m -21.38774,-1.55606 c 2.30733,-2.0881 -3.47293,-5.25009 -6.75249,-3.69383 -1.82267,0.86491 -1.34321,2.57092 1.04142,3.70562 1.13736,0.54119 1.68929,0.63755 3.26368,0.56981 1.40468,-0.0604 2.03776,-0.21088 2.44739,-0.5816 z m 14.30662,-4.25229 c 1.40953,-0.7289 1.22051,-2.0581 -0.44808,-3.15098 -2.65561,-1.73936 -6.95597,-1.43805 -6.95597,0.48739 0,1.01116 0.25409,1.4211 1.26995,2.04893 2.01405,1.24476 4.44464,1.48831 6.1341,0.61466 z"
       style="fill:#000000;stroke-width:0.264583" />
    <path
       id="path921"
       d="m 26.429682,129.00729 -9.56177,-6.93391 9.77973,-0.0694 c 5.37886,-0.0382 14.10164,-0.0382 19.38396,0 l 9.60421,0.0694 -9.59865,6.94531 c -5.27926,3.81993 -9.69924,6.94018 -9.82219,6.93391 -0.12294,-0.006 -4.52632,-3.13166 -9.78529,-6.94531 z m 10.42354,-1.99874 c 0.44993,-0.55988 1.18423,-1.16964 1.63178,-1.35502 0.44756,-0.18538 0.81373,-0.5012 0.81373,-0.70183 0,-0.28872 -0.63112,-0.36478 -3.02709,-0.36478 -1.73266,0 -3.09702,0.11315 -3.19062,0.26459 -0.10399,0.16826 0.63515,0.26458 2.03037,0.26458 h 2.19388 l -1.38452,1.21114 c -0.76148,0.66613 -1.38452,1.32098 -1.38452,1.45521 0,0.13424 0.33727,0.24407 0.74947,0.24407 0.55129,0 0.96579,-0.26918 1.56752,-1.01796 z m -19.76391,-9.63152 c 15.24578,-26.265017 18.97503,-32.609899 19.16671,-32.609899 0.19169,0 3.92094,6.344882 19.16673,32.609899 l 1.57419,2.71198 h -20.74092 -20.74091 z m 20.85261,-5.51793 c 0.99511,-0.34691 1.35681,-0.92926 1.35681,-2.18454 0,-0.67477 -0.18152,-1.06702 -0.67254,-1.45325 -0.53235,-0.41875 -0.59555,-0.57442 -0.30321,-0.74681 0.60722,-0.35806 0.99988,-1.35244 0.81886,-2.07368 -0.22039,-0.8781 -1.36027,-1.4514 -2.88582,-1.4514 -1.52554,0 -2.66542,0.5733 -2.88581,1.4514 -0.18102,0.72124 0.21164,1.71562 0.81886,2.07368 0.29234,0.17239 0.22914,0.32806 -0.30321,0.74681 -0.67934,0.53437 -0.89524,1.71909 -0.50065,2.74735 0.38276,0.99747 2.86066,1.48168 4.55671,0.89044 z m -2.55902,-1.34801 c -0.74216,-0.74216 -0.18302,-2.06375 0.87312,-2.06375 0.3056,0 0.6985,0.14288 0.87313,0.3175 0.17462,0.17463 0.3175,0.56753 0.3175,0.87313 0,0.30559 -0.14288,0.6985 -0.3175,0.87312 -0.17463,0.17463 -0.56753,0.3175 -0.87313,0.3175 -0.30559,0 -0.6985,-0.14287 -0.87312,-0.3175 z m -0.005,-3.82112 c -0.52452,-0.93728 0.33782,-1.92377 1.34412,-1.53762 0.99328,0.38116 0.61749,1.97207 -0.46582,1.97207 -0.34934,0 -0.74457,-0.1955 -0.8783,-0.43445 z m -20.68523,1.73726 v -9.129325 l 7.85579,-5.677887 c 10.79897,-7.805115 10.77077,-7.785161 10.61388,-7.510006 -4.0879,7.169351 -17.85946,30.784748 -18.11244,31.059128 -0.3005,0.3259 -0.35723,-1.06242 -0.35723,-8.74191 z m 5.14142,-4.62993 c 1.09515,-1.09516 2.10822,-2.92777 2.15532,-3.898929 0.0274,-0.565215 0.24233,-1.220154 0.47759,-1.455419 0.39395,-0.393951 0.42776,-0.357987 0.42776,0.455088 0,1.45007 0.72753,0.512378 0.83516,-1.076415 l 0.0909,-1.34156 -1.35501,1.491079 c -1.14141,1.256035 -1.35161,1.646638 -1.33345,2.477906 0.0233,1.06565 -0.71548,2.44204 -1.31072,2.44204 -0.47747,0 -0.46726,-0.55932 0.022,-1.2062 0.21366,-0.28248 0.3896,-0.69219 0.391,-0.91047 0.002,-0.26132 -0.17432,-0.17096 -0.51527,0.26459 -1.36019,1.73759 -1.26054,4.13355 0.11473,2.75829 z m 37.35553,13.05056 c -0.20777,-0.32742 -4.03584,-6.90562 -8.50684,-14.61823 -4.47099,-7.712603 -8.43751,-14.554182 -8.81449,-15.203507 l -0.68542,-1.180592 1.46266,1.0483 c 0.80446,0.576565 4.99776,3.603349 9.31844,6.726187 l 7.85579,5.677887 v 9.072635 c 0,4.98995 -0.0568,9.07263 -0.1262,9.07263 -0.0694,0 -0.29618,-0.26789 -0.50394,-0.59531 z m -3.91415,-14.42811 c -1.08157,-1.49648 -4.56303,-5.590792 -4.6662,-5.487614 -0.0669,0.06688 0.0731,0.418789 0.3111,0.782012 0.238,0.363224 0.43272,0.775908 0.43272,0.917075 0,0.141168 0.13218,0.591841 0.29372,1.001496 0.24028,0.609281 0.32453,0.662611 0.46302,0.293044 0.13309,-0.355155 0.50884,-0.03733 1.7568,1.485957 0.87313,1.06576 1.62617,1.83767 1.67343,1.71537 0.0472,-0.1223 -0.0718,-0.4406 -0.26459,-0.70734 z"
       style="fill:#000000;stroke-width:0.264583" />
    <path
       id="path925"
       d="m 80.184323,166.09571 -4.354792,-4.54243 -2.022413,-21.1883 c -1.247704,-13.07187 -1.928679,-21.28965 -1.777717,-21.45289 0.134582,-0.14552 10.032348,-2.77931 21.995036,-5.85288 20.967873,-5.38726 21.775143,-5.57287 22.439743,-5.15938 0.37917,0.23591 2.96176,2.51253 5.73908,5.05914 l 5.04968,4.63021 0.0156,21.49235 0.0156,21.49236 -0.59531,0.14416 c -30.118486,7.29361 -41.128434,9.92009 -41.584046,9.92009 -0.386794,0 -1.942862,-1.43651 -4.920481,-4.54243 z m 8.116148,-2.9982 c -0.535887,-1.7376 -14.849557,-40.04974 -14.932038,-39.96726 -0.126555,0.12655 1.465171,17.6349 1.69718,18.6683 0.142541,0.6349 0.160724,0.62427 0.452794,-0.26458 0.651574,-1.98293 2.375565,-1.06004 3.797486,2.03289 0.705666,1.53495 2.192871,8.80083 2.194372,10.72081 0.0034,4.41226 -3.381057,3.31808 -4.667311,-1.50891 -0.193886,-0.7276 -0.355892,-1.8587 -0.360014,-2.51354 -0.0071,-1.12234 -0.986868,-5.61189 -1.039372,-4.7625 -0.01349,0.21828 0.293874,3.79016 0.683037,7.9375 l 0.707569,7.54062 4.102529,4.31561 4.102529,4.31561 1.671419,-3.12498 c 0.91928,-1.71874 1.634699,-3.24405 1.58982,-3.38957 z m 8.231101,3.81926 3.510958,-0.83832 -0.864347,-0.43214 c -1.029055,-0.51448 -1.22426,-1.19483 -0.558366,-1.94609 0.530437,-0.59844 3.369433,-1.97129 5.595403,-2.70578 1.34252,-0.44298 1.42813,-0.44268 1.92469,0.007 0.49518,0.44814 0.60973,0.44891 2.43143,0.0164 1.05148,-0.24962 2.62615,-0.7464 3.49927,-1.10396 1.84035,-0.75366 2.65699,-0.8207 2.88116,-0.23653 0.24354,0.63465 -0.24697,1.3185 -1.30626,1.82117 -0.52632,0.24975 -1.36783,0.73293 -1.87002,1.07373 -0.50219,0.34079 -1.27483,0.69908 -1.71696,0.79619 -0.44213,0.0971 -0.75342,0.22703 -0.69174,0.28871 0.0971,0.0971 15.55439,-3.53216 15.71102,-3.6888 0.0321,-0.0321 -3.43716,-0.98335 -7.70954,-2.11382 l -7.76797,-2.05539 -10.009634,3.69465 c -5.505301,2.03206 -10.18874,3.76506 -10.407644,3.85112 -0.327168,0.12862 -3.438452,5.58719 -3.438452,6.03256 0,0.0739 1.63711,-0.26079 3.638021,-0.74384 2.000912,-0.48305 5.217953,-1.25551 7.148981,-1.71659 z m 6.112208,-2.33157 c 1.03,-0.4383 2.73564,-0.8841 4.02039,-1.05081 1.84574,-0.2395 2.70021,-0.52902 4.94342,-1.675 1.49159,-0.762 2.71198,-1.53929 2.71198,-1.72731 0,-0.45042 0.0443,-0.45907 -2.18931,0.4282 -1.06618,0.42353 -2.70639,0.91954 -3.64491,1.10226 -0.93852,0.18271 -2.51991,0.67658 -3.51419,1.09749 -0.99427,0.42091 -2.12537,0.72856 -2.51354,0.68368 -0.57225,-0.0662 -0.33408,-0.23177 1.25905,-0.87537 1.08065,-0.43656 2.01191,-0.93838 2.06947,-1.11516 0.22387,-0.68757 -6.472233,2.0705 -6.965843,2.86918 -0.24951,0.40371 0.604134,1.02411 1.409133,1.02411 0.34397,0 1.43043,-0.34257 2.41435,-0.76127 z m 2.94454,0.11472 c 2.36095,-0.59019 2.41717,-0.61948 0.92604,-0.48231 -0.87312,0.0803 -2.12328,0.36067 -2.77812,0.62301 -1.60458,0.64283 -1.14161,0.60766 1.85208,-0.1407 z m 3.36793,-0.83622 c -0.0879,-0.0879 -0.31613,-0.0973 -0.50712,-0.0209 -0.21107,0.0845 -0.14837,0.14716 0.15985,0.15986 0.27891,0.0115 0.43519,-0.0511 0.34727,-0.13897 z m -9.71793,-4.69373 10.18646,-3.7703 4.46399,-13.16244 c 2.4552,-7.23934 4.41225,-13.21417 4.34901,-13.27742 -0.11662,-0.11661 -44.734502,-9.38626 -45.179191,-9.38626 -0.145011,0 -0.143416,0.34392 0.004,0.8599 0.479868,1.67978 15.703729,42.53156 15.845283,42.5193 0.0792,-0.007 4.72791,-1.70911 10.330462,-3.78278 z m -6.217708,-12.18042 c -1.641639,-0.77516 -5.466666,-4.64404 -6.209057,-6.28024 -0.384714,-0.84789 -0.526196,-1.72884 -0.526196,-3.27638 0,-3.34493 1.179995,-5.39511 3.824836,-6.64546 1.92656,-0.91079 3.359517,-0.83362 5.632068,0.30329 4.358297,2.18037 7.107747,6.7075 6.391217,10.52353 -0.88757,4.72698 -5.154971,7.24413 -9.112868,5.37526 z m 5.174194,-0.56845 c 1.072322,-0.55452 2.544784,-2.3988 3.013524,-3.77449 0.68639,-2.01441 0.54055,-3.69388 -0.50135,-5.77344 -1.048954,-2.09366 -2.52495,-3.64049 -4.741309,-4.96886 -2.506028,-1.50198 -4.574947,-1.46656 -6.797978,0.11638 -1.975635,1.40678 -2.857156,4.77376 -2.011467,7.68283 0.648688,2.23141 4.438429,6.17265 6.766561,7.03707 1.093321,0.40594 3.169439,0.25068 4.272019,-0.31949 z m -5.20373,-3.81572 c -2.280863,-1.30821 -3.789747,-3.58918 -3.801112,-5.74612 -0.0078,-1.48917 0.16028,-1.83584 1.202801,-2.48016 2.212447,-1.36736 5.100815,-0.25746 7.054012,2.71063 1.074507,1.63282 1.301218,2.56159 0.942445,3.86096 -0.673844,2.44046 -2.859868,3.11054 -5.398146,1.65469 z m 4.024744,-0.64808 c 1.052054,-1.05205 1.162127,-2.06876 0.404528,-3.73649 -0.876588,-1.92968 -3.323829,-3.83059 -4.931501,-3.83059 -0.914504,0 -2.160526,0.66815 -2.528604,1.35592 -0.74888,1.39929 0.647221,4.5436 2.599379,5.85433 2.373312,1.59351 3.156785,1.65625 4.456198,0.35683 z m 29.21,10.23962 v -7.5933 l -1.88817,3.77094 c -1.76068,3.51631 -1.93486,3.76551 -2.57969,3.69069 l -0.69151,-0.0802 -0.0722,-5.01661 c -0.10497,-7.29484 0.48171,-10.46151 1.9382,-10.46151 0.52646,0 0.64091,0.17213 0.79422,1.19447 0.0985,0.65696 0.13216,2.36391 0.0747,3.79323 l -0.10438,2.59877 0.83614,-0.88656 c 0.54821,-0.58127 0.9836,-0.82997 1.26438,-0.72222 0.39064,0.1499 0.42826,-0.86379 0.42826,-11.54132 0,-11.45607 -0.0105,-11.6922 -0.49143,-11.07466 -0.27028,0.34705 -1.91979,2.50293 -3.66557,4.79086 l -3.17414,4.15987 -4.40632,13.03805 c -2.42348,7.17093 -4.40538,13.16592 -4.40422,13.32222 0.001,0.15629 3.60374,1.24887 8.00574,2.42796 4.40201,1.17908 8.03341,2.15254 8.06979,2.16323 0.0364,0.0107 0.0661,-3.39756 0.0661,-7.57387 z m -45.655628,3.83026 c 0.553219,-0.78983 0.518834,-2.12497 -0.144573,-5.61376 -0.824488,-4.3359 -1.491424,-6.46891 -2.507504,-8.01955 -0.924168,-1.41038 -1.512243,-1.72702 -1.802529,-0.97055 -0.287659,0.74963 -0.163803,3.12392 0.230806,4.42449 0.212123,0.69912 0.504822,2.42553 0.650444,3.83646 0.317633,3.07755 0.816623,4.64506 1.895213,5.95358 0.938739,1.13885 1.123185,1.18165 1.678143,0.38933 z m -1.754262,-2.78286 c -0.555959,-0.94152 -0.849475,-2.52394 -0.630203,-3.39759 0.138939,-0.55357 0.24437,-0.62674 0.544362,-0.37777 0.949161,0.78774 1.552919,4.16655 0.78917,4.41644 -0.149702,0.049 -0.4662,-0.23951 -0.703329,-0.64108 z m 0.456309,-1.32545 c -0.09883,-0.40019 -0.288257,-0.83864 -0.420941,-0.97435 -0.13484,-0.13791 -0.126582,0.15307 0.01872,0.65972 0.142982,0.49854 0.259967,0.937 0.259967,0.97434 0,0.0373 0.07244,0.0679 0.160975,0.0679 0.08854,0 0.08011,-0.32742 -0.01872,-0.7276 z m -1.624292,-5.49393 c -0.239748,-0.3659 -0.499299,-1.2291 -0.576781,-1.91823 -0.126875,-1.12843 -0.09862,-1.21795 0.284277,-0.90081 0.518254,0.42926 1.509961,2.42499 1.509961,3.03869 0,0.66718 -0.721699,0.53698 -1.217457,-0.21965 z m 45.996553,1.91993 c 1.83832,-3.60969 2.45135,-5.40056 1.77102,-5.17379 -0.1988,0.0663 -0.79794,0.92692 -1.33142,1.91256 -0.53348,0.98564 -1.15017,1.97228 -1.37041,2.19252 -0.35755,0.35755 -0.36016,0.23438 -0.0244,-1.14952 0.41928,-1.72819 0.8005,-7.98995 0.52944,-8.69632 -0.26712,-0.6961 -0.84915,-0.0624 -1.19152,1.29728 -0.37076,1.4724 -0.7325,13.12587 -0.40736,13.123 0.1322,-10e-4 1.04329,-1.57875 2.02465,-3.50573 z m -0.85464,-25.30921 c 2.43363,-3.19424 3.4382,-4.71067 3.2748,-4.94341 -0.55217,-0.78647 -9.98977,-9.24045 -10.38491,-9.30257 -0.38835,-0.0611 -41.633828,10.4363 -41.312263,10.51435 0.07276,0.0177 10.014479,2.09249 22.092708,4.61074 20.181405,4.20772 21.995195,4.5442 22.389785,4.1536 0.23615,-0.23376 2.00909,-2.49848 3.93988,-5.03271 z m -18.25987,-1.43956 c -2.52637,-0.9978 -7.698019,-3.69173 -7.934139,-4.13293 -0.363094,-0.67844 -0.337731,-1.51942 0.05311,-1.76098 0.741807,-0.45846 2.904619,-0.5782 5.609259,-0.31054 l 2.8876,0.28577 0.68427,-0.83245 c 0.84934,-1.03324 1.7881,-1.08171 2.79933,-0.14453 0.67895,0.62923 0.85994,0.66889 2.29337,0.50252 1.21665,-0.14121 1.69932,-0.0869 2.21193,0.249 1.50305,0.98484 0.19948,2.53409 -2.13224,2.53409 -1.32529,0 -1.40789,0.0409 -1.68411,0.83324 -0.15975,0.45827 -0.29046,1.0404 -0.29046,1.2936 0,0.25321 -0.20836,0.71489 -0.46302,1.02598 -0.5986,0.73121 -2.72973,0.97271 -4.0349,0.45723 z m 3.48836,-0.87607 c 0.26422,-0.23911 0.48105,-0.62465 0.48186,-0.85675 8e-4,-0.23211 0.12168,-0.85475 0.26858,-1.38364 l 0.26711,-0.96162 1.71909,-0.10946 c 1.1471,-0.073 1.86829,-0.25865 2.16748,-0.55785 0.7483,-0.7483 0.0657,-1.09618 -2.01097,-1.02482 -1.6123,0.0554 -1.91148,-0.0141 -2.61777,-0.60843 -1.07172,-0.90179 -1.49118,-0.84663 -2.15815,0.28381 -0.45672,0.77408 -0.6745,0.9233 -1.15061,0.78841 -0.323,-0.0915 -2.20494,-0.24098 -4.1821,-0.33215 -3.189118,-0.14705 -3.613686,-0.11659 -3.762005,0.26992 -0.09195,0.23963 -0.109894,0.58499 -0.03987,0.76747 0.12737,0.33192 7.456745,4.02739 8.455035,4.26302 0.82383,0.19445 2.03373,-0.0595 2.56232,-0.53791 z m -4.697,-1.91939 c -0.86322,-0.40701 -1.74808,-0.80693 -1.96636,-0.88871 -0.21828,-0.0818 0.70445,-0.15808 2.05052,-0.16957 2.4305,-0.0207 2.44739,-0.0164 2.44739,0.63126 0,1.12747 -0.77038,1.25742 -2.53155,0.42702 z m 2.00239,-0.28542 c 0,-0.14552 -0.30469,-0.26458 -0.67708,-0.26458 -0.384,0 -0.60629,0.11452 -0.51355,0.26458 0.0899,0.14552 0.39462,0.26458 0.67708,0.26458 0.28245,0 0.51355,-0.11906 0.51355,-0.26458 z"
       style="fill:#000000;stroke-width:0.264583" />
    <path
       id="path929"
       d="m 110.00353,225.28101 -7.06962,-5.22552 -4.088056,-6.34701 c -2.24843,-3.49086 -4.088055,-6.50179 -4.088055,-6.69095 0,-0.50195 3.413243,-14.90815 3.686675,-15.56026 0.245979,-0.58664 8.453296,-12.2799 8.619066,-12.2799 0.0537,0 4.20792,-0.89297 9.23164,-1.98438 5.02372,-1.0914 9.28742,-1.97979 9.47489,-1.97419 0.18747,0.006 3.25789,1.59799 6.82315,3.53864 l 6.48229,3.52846 5.21796,7.11084 c 2.86989,3.91096 5.22137,7.29706 5.22553,7.52467 0.004,0.22761 -0.80371,4.09714 -1.79525,8.59896 l -1.80279,8.18512 -4.71386,6.61458 c -2.59261,3.63803 -4.76066,6.66694 -4.81788,6.73093 -0.11418,0.12768 -18.22358,3.42941 -18.89823,3.44554 -0.22981,0.005 -3.59917,-2.34149 -7.48746,-5.21553 z m 17.15573,3.11296 c 4.94221,-0.88537 9.04986,-1.70407 9.12812,-1.81932 0.0783,-0.11526 2.14974,-3.03489 4.60329,-6.48809 2.45354,-3.45319 4.41779,-6.32172 4.365,-6.37452 -0.0528,-0.0528 -3.14883,-0.95074 -6.88008,-1.99544 l -6.78409,-1.89945 -7.82789,5.33377 c -4.30534,2.93358 -7.90011,5.45062 -7.98836,5.59342 -0.0883,0.1428 0.23148,2.33839 0.71054,4.87909 0.71524,3.79333 0.94402,4.59807 1.27932,4.49989 0.22457,-0.0658 4.45194,-0.84397 9.39415,-1.72935 z m -11.12448,-3.04681 c -0.49168,-2.47386 -0.89624,-4.51921 -0.89902,-4.54523 -0.003,-0.026 -3.2495,-2.87445 -7.21494,-6.32984 -3.96544,-3.45539 -7.57947,-6.62553 -8.031171,-7.04476 l -0.821276,-0.76224 -1.824558,0.31208 c -1.003507,0.17165 -1.86205,0.34463 -1.907875,0.38442 -0.04582,0.0398 1.703692,2.85216 3.887815,6.2497 l 3.971135,6.17737 6.82781,5.05951 c 3.75529,2.78273 6.84541,5.04542 6.86693,5.02821 0.0215,-0.0172 -0.36316,-2.05537 -0.85485,-4.52922 z M 122.978,215.2605 c 4.19696,-2.85552 7.78896,-5.33961 7.98221,-5.52019 0.29053,-0.27148 0.0204,-1.99545 -1.56022,-9.95553 -1.05138,-5.29497 -1.9937,-9.72084 -2.09404,-9.83529 -0.16258,-0.18543 -17.56952,-2.30546 -18.92944,-2.30546 -0.46386,0 -1.2006,1.44111 -4.80711,9.40302 l -4.259302,9.40302 7.976452,6.98757 c 4.38705,3.84317 7.99539,6.99368 8.01854,7.00115 0.0231,0.007 3.47595,-2.32276 7.67291,-5.17829 z m -8.56913,-6.28389 c -2.55473,-2.09505 -2.67558,-2.23871 -2.22572,-2.64583 0.36734,-0.33244 1.03438,-0.4305 2.92841,-0.4305 2.69696,0 3.88794,-0.37913 4.78885,-1.52445 0.81691,-1.03853 0.64448,-1.63424 -0.90844,-3.13836 -1.37259,-1.32945 -1.4107,-1.40331 -0.94272,-1.82683 0.2839,-0.25692 0.63288,-0.35669 0.83511,-0.23875 1.17378,0.68457 2.42556,1.90623 2.89392,2.8243 0.74603,1.46233 0.50695,2.53542 -0.83498,3.74777 -0.57838,0.52254 -1.08103,0.96466 -1.11699,0.9825 -0.036,0.0178 -1.31554,0.10712 -2.84351,0.19843 l -2.77813,0.16602 2.03719,1.5814 c 1.90725,1.48053 2.01011,1.61131 1.61264,2.05052 -0.2335,0.25801 -0.49648,0.46912 -0.58439,0.46912 -0.0879,0 -1.37547,-0.9969 -2.86124,-2.21534 z m -5.59206,-4.62737 -0.62537,-0.48095 2.53639,-3.0189 c 1.39502,-1.66039 2.53964,-3.09468 2.5436,-3.18729 0.004,-0.0926 -0.5357,-0.24981 -1.19924,-0.34932 -0.93459,-0.14015 -1.18732,-0.28106 -1.12156,-0.62535 0.1163,-0.60882 4.05171,-0.79011 4.82809,-0.22241 0.48511,0.35472 0.38586,0.51922 -1.95812,3.24559 -1.35803,1.57957 -2.83919,3.37566 -3.29149,3.99132 -0.45229,0.61566 -0.88188,1.12138 -0.95464,1.12382 -0.0728,0.002 -0.41371,-0.21199 -0.75766,-0.47651 z m 38.63387,0.63261 1.79446,-8.16168 -5.07231,-6.97839 c -2.78977,-3.83811 -5.20498,-6.94454 -5.36712,-6.90317 -0.6602,0.16844 -10.97492,6.70069 -10.97397,6.94975 0.002,0.42785 3.90469,19.47877 4.00745,19.56037 0.22349,0.17749 13.347,3.80914 13.56938,3.75504 0.1362,-0.0331 1.05515,-3.733 2.04211,-8.22192 z m -50.013677,1.56922 1.488578,-0.1744 4.302649,-9.49669 4.30265,-9.4967 -0.18117,-2.31702 c -0.0996,-1.27436 -0.25138,-2.94066 -0.33718,-3.70289 l -0.156,-1.38587 -2.94678,4.164 c -5.70935,8.0677 -4.921251,6.38157 -6.8929,14.74732 -0.960301,4.07459 -1.801158,7.56495 -1.86857,7.75637 -0.0805,0.22857 0.03579,0.30208 0.338788,0.21415 0.253746,-0.0736 1.131216,-0.21235 1.949935,-0.30827 z m 39.049357,-22.70545 c 1.19534,-0.73468 2.14784,-1.35415 2.11666,-1.37659 -0.0312,-0.0224 -2.92357,-1.59521 -6.42754,-3.49505 l -6.37087,-3.45425 -9.23955,1.99741 c -5.08175,1.09858 -9.26198,2.01343 -9.28938,2.03299 -0.1068,0.0763 0.68988,7.36694 0.81913,7.49619 0.0755,0.0755 4.45768,0.63206 9.73816,1.23678 l 9.60087,1.09949 3.43958,-2.10059 c 1.89177,-1.15532 4.4176,-2.70169 5.61294,-3.43638 z"
       style="fill:#000000;stroke-width:0.264583" />
    <path
       id="path917"
       d="m 129.09851,86.638905 c -0.57108,-0.691224 -6.1781,-7.890772 -12.46006,-15.998994 -7.76695,-10.02494 -11.42173,-14.944915 -11.42173,-15.375664 0,-0.75133 13.61621,-35.605033 14.09238,-36.072573 0.37379,-0.367012 38.96675,-10.7392164 39.50753,-10.6180054 0.1946,0.04362 6.02004,8.0564884 12.94543,17.8063844 10.04519,14.142097 12.57063,17.86085 12.48781,18.388541 -0.15338,0.977273 -13.92604,35.260485 -14.33418,35.680969 -0.28367,0.292245 -38.18762,7.446113 -39.45239,7.446113 -0.17956,0 -0.79372,-0.565547 -1.36479,-1.256771 z m 20.10519,-5.007377 c 8.54935,-1.559147 15.54427,-2.903577 15.54427,-2.987619 0,-0.08405 -4.55414,-3.002439 -10.12031,-6.485321 -5.56617,-3.482883 -10.72796,-6.71717 -11.47063,-7.187306 l -1.35031,-0.854792 -4.27218,9.971363 c -2.3497,5.484251 -4.27213,10.060661 -4.27208,10.169802 5e-5,0.109141 0.0894,0.200745 0.19853,0.203563 0.10914,0.0028 7.19336,-1.270543 15.74271,-2.82969 z m -14.41402,-8.331531 c 2.36789,-5.547973 4.26115,-10.131324 4.20724,-10.185227 -0.13458,-0.134591 -28.86713,-5.879862 -28.95921,-5.790597 -0.11744,0.11384 20.06389,26.074166 20.26527,26.068316 0.0998,-0.0029 2.11881,-4.544518 4.4867,-10.092492 z m 34.49979,-14.442341 c 0.8199,-9.859036 1.46287,-17.955424 1.42882,-17.991971 -0.10948,-0.11753 -26.70155,20.719179 -26.77601,20.980844 -0.0713,0.250669 23.07423,14.892303 23.58785,14.92142 0.16552,0.0094 0.8408,-6.865016 1.75934,-17.910293 z m 11.66126,-13.847405 c -0.10751,-0.09665 -1.74328,-1.204428 -3.63505,-2.461728 l -3.43958,-2.286 -0.18732,0.731681 c -0.191,0.746093 -2.34648,26.647293 -2.31778,27.851472 0.009,0.363802 2.21164,-4.810802 4.89548,-11.499119 2.68384,-6.688317 4.79175,-12.239656 4.68425,-12.336306 z m -41.86734,14.946386 c 0,-0.426363 -8.83065,-32.548134 -8.99987,-32.737306 -0.18948,-0.211822 -20.95005,26.293832 -20.93253,26.725198 0.007,0.168222 28.29468,6.039021 29.60167,6.143468 0.1819,0.01453 0.33073,-0.04458 0.33073,-0.13136 z m 16.6853,-11.146485 c 7.41246,-5.780789 13.47614,-10.573054 13.47484,-10.649479 -0.003,-0.182414 -36.21873,-12.300303 -36.32953,-12.155998 -0.15894,0.207005 8.94626,33.313295 9.1625,33.314652 0.11825,7.94e-4 6.27973,-4.728387 13.69219,-10.509175 z m -35.76452,-13.69885 c 4.5207,-5.820833 8.22212,-10.646289 8.22538,-10.723237 0.0119,-0.280212 -6.93158,-2.420908 -7.14261,-2.202101 -0.11953,0.123936 -2.14563,5.04737 -4.50245,10.940963 -4.27033,10.678652 -5.13269,12.904235 -4.91468,12.683858 0.0632,-0.06388 3.81366,-4.878649 8.33436,-10.699483 z m 57.02563,3.537416 c -0.46653,-0.754864 -7.62027,-10.975795 -7.84623,-11.210332 -0.1402,-0.145521 0.81795,1.885974 2.12921,4.514434 l 2.38412,4.779016 1.6771,1.105566 c 1.82764,1.20481 1.92998,1.254953 1.6558,0.811316 z m -7.51933,-3.8012 c 0,-0.346165 -11.53255,-23.15184 -11.7076,-23.15184 -0.42503,0 -22.95282,11.390317 -22.95282,11.605216 0,0.21037 33.59478,11.6212 34.32969,11.660453 0.1819,0.0097 0.33073,-0.04151 0.33073,-0.113829 z M 137.49589,18.574845 c 3.71078,-1.876112 6.66612,-3.417518 6.56743,-3.425348 -0.0987,-0.0078 -4.29489,1.116858 -9.32487,2.499306 -5.02999,1.382448 -9.23549,2.522892 -9.34556,2.53432 -0.25501,0.02648 4.7366,1.787515 5.09154,1.796291 0.14552,0.0036 3.30068,-1.528458 7.01146,-3.404569 z"
       style="fill:#000000;stroke-width:0.264583" />
  </g>
</svg>
