<?xml version="1.0" encoding="UTF-8" standalone="no"?>
<svg
   xmlns:dc="http://purl.org/dc/elements/1.1/"
   xmlns:cc="http://creativecommons.org/ns#"
   xmlns:rdf="http://www.w3.org/1999/02/22-rdf-syntax-ns#"
   xmlns:svg="http://www.w3.org/2000/svg"
   xmlns="http://www.w3.org/2000/svg"
   xmlns:sodipodi="http://sodipodi.sourceforge.net/DTD/sodipodi-0.dtd"
   xmlns:inkscape="http://www.inkscape.org/namespaces/inkscape"
   sodipodi:docname="doctor who logo.svg"
   inkscape:version="1.0 (4035a4fb49, 2020-05-01)"
   id="svg8"
   version="1.1"
   viewBox="0 0 210 297"
   height="297mm"
   width="210mm">
  <defs
     id="defs2" />
  <sodipodi:namedview
     inkscape:window-maximized="1"
     inkscape:window-y="-11"
     inkscape:window-x="-11"
     inkscape:window-height="1346"
     inkscape:window-width="2160"
     showgrid="false"
     inkscape:document-rotation="0"
     inkscape:current-layer="layer1"
     inkscape:document-units="mm"
     inkscape:cy="560"
     inkscape:cx="400"
     inkscape:zoom="0.51178808"
     inkscape:pageshadow="2"
     inkscape:pageopacity="0.0"
     borderopacity="1.0"
     bordercolor="#666666"
     pagecolor="#ffffff"
     id="base" />
  <metadata
     id="metadata5">
    <rdf:RDF>
      <cc:Work
         rdf:about="">
        <dc:format>image/svg+xml</dc:format>
        <dc:type
           rdf:resource="http://purl.org/dc/dcmitype/StillImage" />
        <dc:title></dc:title>
      </cc:Work>
    </rdf:RDF>
  </metadata>
  <g
     id="layer1"
     inkscape:groupmode="layer"
     inkscape:label="Layer 1">
    <path
       id="path847"
       d="m 129.62724,137.59485 -6.59928,-3.29143 v -0.74259 c 0,-0.40843 0.0794,-0.79165 0.17639,-0.85161 0.25264,-0.15614 0.24302,-33.249312 -0.01,-33.249312 -0.1116,0 -0.16454,-0.329706 -0.13229,-0.82387 l 0.0538,-0.82387 6.57278,-3.656934 c 4.54398,-2.528161 6.68314,-3.628073 6.93032,-3.563432 0.90649,0.237052 0.87259,-0.737899 0.87259,25.095888 0,25.89327 0.0367,24.8581 -0.89019,25.10049 -0.26188,0.0685 -2.36754,-0.89562 -6.97442,-3.19333 z m 0.83926,-8.61714 c 0.30694,-0.27777 0.32257,-0.92168 0.32257,-13.29002 0,-12.78288 -0.006,-13.0034 -0.35349,-13.31801 -0.29209,-0.26433 -0.42998,-0.28506 -0.79375,-0.11932 l -0.44026,0.2006 v 13.30821 c 0,12.52616 0.0181,13.31295 0.30868,13.38888 0.54352,0.14203 0.62765,0.12705 0.95625,-0.17034 z m 9.54296,11.27992 c -0.29506,-0.45028 -0.31535,-1.86722 -0.35867,-25.04722 -0.0253,-13.51347 -4e-5,-24.569946 0.056,-24.569946 0.0561,0 1.20783,0.561132 2.55946,1.246961 l 2.45751,1.246961 v 18.053204 c 0,9.92925 0.0482,18.17875 0.10707,18.3322 0.1519,0.39585 0.53191,0.34551 0.85307,-0.11301 0.24407,-0.34846 0.27459,-2.34825 0.27459,-17.99328 V 93.812247 l 1.74069,0.873521 c 1.0469,0.525358 1.77289,1.000551 1.82149,1.192233 0.0444,0.175292 0.0747,7.367979 0.0673,15.983759 -0.007,8.61577 0.0435,15.81905 0.1131,16.00729 0.1519,0.41063 0.58775,0.4508 0.73475,0.0677 0.0579,-0.151 0.10775,-7.33444 0.11068,-15.9632 0.004,-12.294638 0.0523,-15.687271 0.2222,-15.682233 0.11928,0.0035 0.93125,0.380567 1.80438,0.837847 1.51296,0.792383 1.58998,0.861113 1.64051,1.463877 0.0343,0.409162 -0.0435,0.712599 -0.22048,0.859446 -0.24348,0.20207 -0.27351,2.022933 -0.27351,16.587963 0,14.3279 0.0329,16.38826 0.26459,16.58056 0.32066,0.26612 0.35005,1.29806 0.0441,1.5481 -0.61656,0.50389 -12.84079,6.56578 -13.24036,6.56578 -0.3116,0 -0.56926,-0.15796 -0.77849,-0.47728 z m -4.10494,-53.189042 1.8e-4,-2.337153 1.36684,-0.733753 1.36684,-0.733752 1.36701,0.69179 1.36702,0.69179 v 2.379116 c 0,1.308513 -0.072,2.379115 -0.15995,2.379115 -0.088,0 -0.69985,-0.242239 -1.35974,-0.538308 l -1.19978,-0.538309 -1.16788,0.538309 c -0.64233,0.296069 -1.26076,0.538308 -1.37429,0.538308 -0.14726,0 -0.20637,-0.669876 -0.20625,-2.337153 z"
       style="fill:#000000;stroke-width:0.176389" />
  </g>
</svg>
