<?xml version="1.0" encoding="UTF-8" standalone="no"?>
<svg
   xmlns:dc="http://purl.org/dc/elements/1.1/"
   xmlns:cc="http://creativecommons.org/ns#"
   xmlns:rdf="http://www.w3.org/1999/02/22-rdf-syntax-ns#"
   xmlns:svg="http://www.w3.org/2000/svg"
   xmlns="http://www.w3.org/2000/svg"
   xmlns:xlink="http://www.w3.org/1999/xlink"
   xmlns:sodipodi="http://sodipodi.sourceforge.net/DTD/sodipodi-0.dtd"
   xmlns:inkscape="http://www.inkscape.org/namespaces/inkscape"
   sodipodi:docname="doodle.svg"
   inkscape:version="1.0 (4035a4fb49, 2020-05-01)"
   id="svg8"
   version="1.1"
   viewBox="0 0 210 297"
   height="297mm"
   width="210mm">
  <defs
     id="defs2">
    <linearGradient
       inkscape:collect="always"
       id="linearGradient1035-4">
      <stop
         style="stop-color:#ff00c5;stop-opacity:1"
         offset="0"
         id="stop1039" />
      <stop
         style="stop-color:#0900c5;stop-opacity:0.25882354"
         offset="1"
         id="stop1041" />
    </linearGradient>
    <linearGradient
       y2="223.32718"
       x2="191.85208"
       y1="282.2627"
       x1="76.319588"
       gradientUnits="userSpaceOnUse"
       id="linearGradient1051"
       xlink:href="#linearGradient1035-4"
       inkscape:collect="always" />
  </defs>
  <sodipodi:namedview
     inkscape:window-maximized="1"
     inkscape:window-y="-11"
     inkscape:window-x="-11"
     inkscape:window-height="1346"
     inkscape:window-width="2160"
     showgrid="false"
     inkscape:document-rotation="0"
     inkscape:current-layer="layer1"
     inkscape:document-units="mm"
     inkscape:cy="914.46136"
     inkscape:cx="381.95345"
     inkscape:zoom="2.0471523"
     inkscape:pageshadow="2"
     inkscape:pageopacity="0.0"
     borderopacity="1.0"
     bordercolor="#666666"
     pagecolor="#ffffff"
     id="base" />
  <metadata
     id="metadata5">
    <rdf:RDF>
      <cc:Work
         rdf:about="">
        <dc:format>image/svg+xml</dc:format>
        <dc:type
           rdf:resource="http://purl.org/dc/dcmitype/StillImage" />
        <dc:title></dc:title>
      </cc:Work>
    </rdf:RDF>
  </metadata>
  <g
     id="layer1"
     inkscape:groupmode="layer"
     inkscape:label="Layer 1">
    <path
       id="path835"
       d="m 100.94001,33.732835 c 0.0431,-1.206283 -0.13572,-2.441237 0.12925,-3.618849 0.13639,-0.606177 0.66538,-1.05073 1.03396,-1.550935 1.38348,-1.877594 3.06843,-2.624341 5.16978,-3.489604 1.1498,-0.473447 2.32667,-1.048287 3.61885,-0.904712 2.76579,0.307311 6.18122,2.155836 7.10845,5.04054 0.33825,1.05234 0.14471,2.767854 0,3.877336 -0.14163,1.085808 -0.18299,1.988254 -0.64623,2.972626 -0.51495,1.094279 -1.80908,2.687878 -2.58489,3.618849 -0.23551,0.282609 -1.03396,0.702709 -1.03396,1.163201 0,0.09633 0.17485,-0.08145 0.25849,-0.129247 0.73504,-0.420018 0.9757,-0.454803 1.80943,-0.775467 2.29831,-0.883965 4.40886,-0.954905 6.72072,-0.129244 5.25329,1.876177 7.97263,7.147917 6.84996,12.536723 -0.0669,0.321204 -0.24667,0.608486 -0.38773,0.904714 -0.28992,0.608827 -0.44845,1.312894 -0.90472,1.809422 -2.7937,3.040213 -6.22653,4.78205 -10.33956,4.78205 -1.44296,0 -1.92172,-0.125855 -3.23112,-0.387734 -0.21122,-0.04224 -0.4939,-0.152315 -0.64622,0 -0.06,0.05999 0.51583,0.178882 0.77547,0.646224 0.31868,0.573619 0.58691,1.180898 0.77547,1.809424 0.0743,0.247587 0.0234,0.518038 0,0.775467 -0.0629,0.691814 -0.11681,1.387846 -0.25849,2.067912 -0.0751,0.360352 -0.25989,0.688782 -0.38774,1.033958 -0.12173,0.328686 -0.91929,2.774658 -1.42169,3.489602 -0.90162,1.283081 -1.8806,2.510237 -2.84338,3.748093 -0.24385,0.313526 -0.47486,0.645099 -0.77547,0.904714 -1.7028,1.470604 -3.48213,2.636014 -5.42827,3.748092 -1.79368,1.024962 -3.57227,1.826737 -5.68676,1.550935 -2.01144,-0.262364 -3.110423,-1.951503 -4.135827,-3.489605 -0.139343,-0.209016 -0.308295,-0.407906 -0.387733,-0.646221 -0.181761,-0.545286 -0.248328,-1.122564 -0.387734,-1.680181 -0.07607,-0.304274 -0.242004,-0.591508 -0.258487,-0.904711 -0.02727,-0.518054 0.0649,-1.036172 0.129243,-1.550935 0.190397,-1.523177 0.475851,-2.890372 1.163201,-4.265073 0.264414,-0.528828 0.793528,-0.90471 0.646224,-0.90471 -0.04308,0 0.01045,0.08745 0,0.129243 -0.03304,0.13217 -0.05368,0.274381 -0.129246,0.387734 -0.101386,0.152082 -0.258488,0.25849 -0.387734,0.387733 -0.671277,0.67128 -1.547114,1.011428 -2.326402,1.550935 -0.226806,0.157022 -0.40749,0.378764 -0.646224,0.51698 -3.536928,2.047698 -5.497208,2.526231 -9.434853,1.163201 -0.648227,-0.224385 -1.944164,-0.664858 -2.584892,-1.163201 -0.629113,-0.489312 -3.080184,-2.569747 -3.489603,-3.231115 -2.34882,-3.79425 -2.600134,-7.470519 -0.904711,-11.632012 0.998784,-2.451561 1.512295,-3.841271 3.489603,-5.686761 1.034095,-0.965155 2.000589,-1.743901 3.360359,-2.197158 0.426702,-0.142233 0.847183,-0.324123 1.292445,-0.387734 0.07938,-0.01135 1.064342,0.09886 1.163201,0 0.150915,-0.150913 -0.948304,-1.138272 -1.033955,-1.292445 -0.534797,-0.962631 -0.897776,-2.55715 -1.163201,-3.618849 -0.230045,-0.920178 -0.162179,-1.921229 -0.129246,-2.843379 0.128968,-3.611078 2.417357,-6.532512 5.169783,-8.659386 0.500454,-0.386715 2.057469,-1.540788 2.714136,-1.809425 2.391934,-0.978518 3.431138,-0.223102 5.686761,0.904711 0.603141,0.301572 1.301938,0.460661 1.809424,0.904714 1.259867,1.102381 2.204548,3.028026 3.101868,4.52356 z"
       style="fill:#c47fc1;stroke:#000000;stroke-width:0.264583px;stroke-linecap:butt;stroke-linejoin:miter;stroke-opacity:1;fill-opacity:1" />
    <path
       id="path839"
       d="m 92.926847,53.765743 c 1.965516,3.373737 4.128061,7.753263 8.400903,8.530143 0.76901,0.139819 1.69545,-0.03422 2.45565,-0.129246 1.02354,-0.127942 2.24933,-0.370869 3.10187,-1.033957 0.55364,-0.430612 0.65615,-0.854978 1.03395,-1.421689 0.49228,-0.738417 1.11263,-1.556557 1.29245,-2.455648 0.19733,-0.986665 0,-2.209652 0,-3.231113"
       style="fill:none;stroke:#000000;stroke-width:0.264583px;stroke-linecap:butt;stroke-linejoin:miter;stroke-opacity:1" />
    <path
       id="path841"
       d="m 102.23246,79.226925 c -0.34465,1.938668 -0.88294,3.852738 -1.03396,5.816005 -0.33556,4.362291 -0.0173,7.936825 0.38774,12.148989 0.14335,1.490927 0.4391,3.302511 0.51698,4.782051 0.0566,1.07555 -0.0566,2.15556 0,3.23111 0.0845,1.60574 0.31808,3.30613 0.12924,4.9113 -0.23636,2.00904 -0.23884,0.76295 -0.38773,2.3264 -0.27513,2.88878 -0.58563,5.78761 -0.90472,8.65939 -0.14861,1.33755 -0.47979,2.67511 -0.64622,4.00658 -0.0644,0.51476 -0.0592,1.03692 -0.12925,1.55093 -0.0594,0.43532 -0.212491,0.85552 -0.258483,1.29245 -0.04059,0.3856 0.02974,0.77661 0,1.1632 -0.01363,0.17711 -0.118814,0.33966 -0.129246,0.51698 -0.107564,1.82861 0,3.72782 0,5.55752 0,4.92969 0.129246,9.80879 0.129246,14.73388"
       style="fill:none;stroke:#00b300;stroke-width:0.265;stroke-linecap:butt;stroke-linejoin:miter;stroke-opacity:1;stroke-miterlimit:4;stroke-dasharray:none" />
    <path
       id="path843"
       d="M 85.689153,90.98818 C 97.152879,89.463151 108.75277,88.403289 120.3267,88.403289"
       style="fill:none;stroke:#00a100;stroke-width:0.264583px;stroke-linecap:butt;stroke-linejoin:miter;stroke-opacity:1" />
    <path
       id="path849"
       d="m 85.689153,90.988178 c 0.132496,7.022261 0.129244,4.566237 0.129244,7.366944 0,0.765437 -0.373735,4.293068 -0.129244,4.782048 0.02527,0.0505 0.638636,0 0.904711,0 0.927886,0 1.925545,0.0874 2.843382,0 0.437367,-0.0417 0.856491,-0.20399 1.292445,-0.25849 0.256495,-0.0321 0.518974,0.0321 0.775467,0 1.62638,-0.2033 3.296994,-0.46798 4.911293,-0.77546 0.728787,-0.13882 4.512989,-1.33269 5.428279,-0.64623 0.0771,0.0578 0.0611,0.19037 0.12924,0.25849 1.19549,1.19549 2.48571,2.23056 3.61885,3.4896 0.66783,0.74204 1.48696,1.55224 1.93867,2.45565 0.15187,0.30376 0,0.38063 0,0.77547"
       style="fill:none;stroke:#008600;stroke-width:0.264583px;stroke-linecap:butt;stroke-linejoin:miter;stroke-opacity:1" />
    <path
       id="path851"
       d="m 120.3267,88.403289 c 0.12924,2.972625 0.28153,5.944338 0.38773,8.917876 0.0231,0.645811 0,1.292445 0,1.938668 0,0.172326 0.12186,0.395126 0,0.516978 -0.42927,0.429269 -2.25068,0.875899 -2.84338,1.033959 -5.03784,1.34342 1.88629,-0.40311 -2.71413,0.51698 -0.2275,0.0455 -0.41776,0.21817 -0.64623,0.25849 -1.17867,0.208 -2.42833,0.17912 -3.61884,0.25849 -0.84606,0.0564 -1.18821,0.17614 -1.93867,0.12924 -1.13158,-0.0707 -2.23538,-0.28546 -3.36036,-0.38773 -0.80063,-0.0728 -1.65052,0 -2.45565,0 -0.38146,0 -1.16673,-0.12807 -1.55093,0 -0.48291,0.16096 -0.99622,0.99621 -1.29245,1.29244 -0.409842,0.40984 -0.861631,0.77547 -1.292447,1.1632 -0.646221,0.64622 -1.305237,1.2799 -1.938668,1.93867 -1.563407,1.62595 -0.776991,1.03518 -2.067912,2.06791 -0.09043,0.0724 -0.920363,0.77547 -1.033957,0.77547"
       style="fill:none;stroke:#009800;stroke-width:0.264583px;stroke-linecap:butt;stroke-linejoin:miter;stroke-opacity:1" />
    <path
       id="path853"
       d="m 82.845771,150.95766 c 12.226899,-0.64352 2.590864,0.19662 15.509351,-1.93867 16.710418,-2.76205 0.791128,0.0307 11.502768,-1.42168 10.46758,-1.86922 -0.0792,-0.0928 5.04054,-0.77547 0.52287,-0.0697 1.07843,-0.37523 1.55093,-0.51698 0.76285,-0.22886 1.65455,-0.12925 2.45565,-0.12925"
       style="fill:none;stroke:#009600;stroke-width:0.264583px;stroke-linecap:butt;stroke-linejoin:miter;stroke-opacity:1" />
    <path
       id="path855"
       d="m 82.845769,150.95766 c -2.110994,1.93867 -4.277709,3.81836 -6.332982,5.81601 -2.555936,2.48428 -4.994561,5.08647 -7.496183,7.62543 -0.387734,0.38773 -0.77547,0.77547 -1.163204,1.1632 -0.172325,0.12925 -0.364662,0.23542 -0.516977,0.38773 -0.02796,0.028 -0.0204,0.47619 0,0.51698 0.917684,1.83537 2.449767,3.22523 3.877336,4.65281 1.5318,1.5318 1.297911,1.607 2.843382,2.84338 0.300207,0.86928 1.243444,0.72299 1.809425,1.1632 0.240461,0.18703 0.40576,0.45919 0.646221,0.64622 0.925078,0.71951 1.914472,1.35337 2.843382,2.06791 0.193167,0.14859 0.322013,0.37076 0.516977,0.51698 1.04349,0.78262 2.346089,1.47229 3.231115,2.45565 0.24792,0.27547 0.395798,0.63152 0.646224,0.90471 0.227364,0.24804 0.537541,0.4083 0.775467,0.64622 0.31391,0.31391 -0.03843,0.18979 0.258488,0.38774 0.08015,0.0534 0.205054,0.0491 0.25849,0.12924 0.07169,0.10754 -0.09139,0.29635 0,0.38774 0.246766,0.24676 1.372187,0.48674 1.1632,0.90471 -0.121083,0.24217 -4.613846,1.40708 -4.652803,1.42169 -0.974823,0.36556 -1.876732,0.90579 -2.843382,1.29244 -0.974066,0.38963 -2.004221,0.63046 -2.972625,1.03396 -0.11248,0.0469 -0.152692,0.19803 -0.258488,0.25849 -0.488489,0.27914 -0.777068,0.38774 -1.292447,0.38774"
       style="fill:none;stroke:#009600;stroke-width:0.264583px;stroke-linecap:butt;stroke-linejoin:miter;stroke-opacity:1" />
    <path
       id="path857"
       d="m 118.90501,146.17561 c 4.13582,1.55093 8.22396,3.23554 12.40748,4.65281 6.37503,2.1597 12.91248,3.82796 19.25744,6.07449 3.50904,1.24244 6.79472,3.04347 10.21032,4.52356 2.12321,0.92006 4.20831,1.92809 6.20374,3.10187 1.12534,0.66197 2.21754,1.36727 3.36036,1.93867 0.19267,0.0963 0.31262,0.31962 0.51698,0.38774 0.35433,0.11811 0.3628,-0.0771 0.77546,0.12924 0.5973,0.29865 1.29108,0.81809 1.93867,1.03396 0.84345,0.28115 1.7273,0.61884 2.5849,0.90471 0.04,0.0133 0.94679,0.45161 1.03395,0.51698 0.28076,0.21056 0.11123,0.38173 0.51698,0.51698 0.47862,0.15954 1.25477,-1.06207 1.55094,-1.4217 0.95384,-1.15824 1.97988,-2.26252 2.84337,-3.4896 4.28889,-6.09473 -1.0082,0.87038 1.68019,-2.71413 0.5725,-0.76334 1.38421,-1.47599 1.80942,-2.32641 0.13207,-0.26415 0.60872,-1.29244 -0.12925,-1.29244"
       style="fill:none;stroke:#009800;stroke-width:0.264583px;stroke-linecap:butt;stroke-linejoin:miter;stroke-opacity:1" />
    <path
       id="path859"
       d="m 111.15034,228.11667 c -2.16298,-2.88396 -5.64582,-22.97926 -6.59148,-25.71967 13.05101,-5.12716 -2.92145,1.40284 5.68676,-2.71413 1.25578,-0.60059 2.60746,-0.98078 3.87734,-1.55093 0.84385,-0.37888 1.6283,-0.87878 2.45565,-1.29245 2.26044,-1.13022 4.51292,-2.25735 6.84996,-3.23111 0.76907,-0.32045 3.17276,-1.45922 4.00658,-1.29245 1.88519,0.37704 2.38607,2.7407 2.84338,4.26507 0.73993,2.46644 1.25984,4.96507 2.19716,7.36694 0.16888,1.42554 1.17169,2.47687 1.68018,3.74809 0.66174,1.65435 1.05955,3.22669 1.93867,4.78205 0.39997,0.70765 0.92892,1.34087 1.29244,2.06792 0.66851,1.33702 1.34241,2.66498 1.93867,4.00658 0.18917,0.42563 0.90329,0.91042 0.77547,1.42169 -0.0431,0.17232 0.004,0.40001 -0.12924,0.51698 -1.43231,1.25326 -3.07988,1.80675 -4.78205,2.58489 -1.66279,0.76013 -3.2439,1.70532 -4.9113,2.45565 -0.94296,0.42433 -3.6512,1.37386 -4.13582,1.55093 -2.48856,0.90928 -4.9657,1.91884 -7.49619,2.71414 -2.52994,0.79512 -5.15241,1.41821 -7.75467,1.93867"
       style="fill:none;stroke:#000000;stroke-width:0.264583px;stroke-linecap:butt;stroke-linejoin:miter;stroke-opacity:1" />
    <path
       id="path861"
       d="m 104.55886,202.397 c 5.19136,-16.79558 2.01913,-9.86238 8.27165,-21.32535"
       style="fill:none;stroke:#000000;stroke-width:0.264583px;stroke-linecap:butt;stroke-linejoin:miter;stroke-opacity:1" />
    <path
       id="path863"
       d="m 112.83051,181.07165 c 3.23111,-1.50786 6.4054,-3.14401 9.69335,-4.52356 2.87817,-1.20762 5.84707,-2.18734 8.78863,-3.23112 1.49189,-0.52938 3.39452,-1.17478 5.04054,-1.42169 0.25562,-0.0383 0.51697,0 0.77546,0 0.12925,0 0.307,-0.10092 0.38774,0 0.53771,0.67215 -0.29995,1.76213 -0.51698,2.32641 -0.55761,1.44979 -1.04972,2.92407 -1.55094,4.39431 -0.14513,0.42573 -0.19261,0.88719 -0.38773,1.29245 -0.36861,0.76558 -0.87728,1.45579 -1.29244,2.19715 -0.6308,1.12642 -1.10283,2.33489 -1.68019,3.48961 -0.77732,1.55464 -1.61168,3.13367 -2.45564,4.6528 -0.46903,0.84426 -1.29245,1.68891 -1.29245,2.71414"
       style="fill:none;stroke:#000000;stroke-width:0.264583px;stroke-linecap:butt;stroke-linejoin:miter;stroke-opacity:1" />
    <path
       id="path865"
       d="m 136.87,173.05848 c 2.40901,9.45434 4.13577,19.06157 6.33299,28.56306 0.30401,1.31465 0.75687,2.59061 1.1632,3.87733 0.26418,0.83658 0.64485,1.56052 0.51698,2.45565 -0.10167,0.71164 -0.47466,1.53948 -0.64622,2.19716 -0.12147,0.4656 -0.70191,3.06661 -0.77547,3.4896 -0.0107,0.0613 -0.22058,2.06448 -0.25849,2.19716 -0.16485,0.57697 -0.44994,1.11313 -0.64622,1.68018 -0.31352,0.90572 -0.3607,1.78238 -1.03396,2.45565"
       style="fill:none;stroke:#000000;stroke-width:0.264583px;stroke-linecap:butt;stroke-linejoin:miter;stroke-opacity:1" />
    <path
       id="path867"
       d="m 39.161106,208.34225 c 0.129243,-2.54181 -1.215531,-5.6488 0.387733,-7.62543 4.99808,-6.16201 11.89232,-6.1019 12.148989,2.19716 0.071,2.2956 -1.548122,4.3543 -2.714135,6.33299 -3.358068,5.69854 -8.738306,10.51761 -10.339565,17.18952 -0.09104,0.37935 -0.07137,0.7774 -0.129246,1.1632 -0.134038,0.8936 -0.630769,2.21262 0.129246,2.97263"
       style="fill:none;stroke:#ff0000;stroke-width:0.264583px;stroke-linecap:butt;stroke-linejoin:miter;stroke-opacity:1" />
    <path
       id="path869"
       d="m 39.161106,208.34225 c -1.507853,-1.85251 -2.605588,-4.13386 -4.52356,-5.55751 -2.367802,-1.75755 -5.092915,-4.15748 -8.013163,-3.7481 -2.384678,0.3343 -7.803185,5.96084 -5.945251,9.5641 1.67537,3.24921 6.464115,5.63829 9.30561,7.49619 2.125565,1.38979 4.055666,3.41282 5.428271,5.55752 0.478197,0.74718 0.942999,1.51102 1.292447,2.3264 0.65532,1.52908 0.972675,3.12824 1.938668,4.52356 0.402199,0.58095 0.900499,1.09226 1.292445,1.68018 0.05344,0.0802 0.223708,0.2396 0.129246,0.25849 -0.466611,0.0933 -0.947795,0.0862 -1.421691,0.12924"
       style="fill:none;stroke:#ff0000;stroke-width:0.264583px;stroke-linecap:butt;stroke-linejoin:miter;stroke-opacity:1" />
    <path
       id="path871"
       d="m 30.113986,256.0335 c 1.895586,0.56006 4.063605,2.80814 5.686761,1.68018 1.98275,-1.37784 0.722079,-4.89362 1.938668,-6.97921 1.274106,-2.18418 3.409106,-3.74834 5.299027,-5.42827 0.461029,-0.4098 1.154848,-0.45218 1.680181,-0.77547 0.496475,-0.30552 -0.680559,-0.31211 -1.163201,-0.25848 -1.317389,0.14637 -2.989053,2.41566 -3.618849,3.36036 -1.285147,1.92772 -1.49265,4.01997 -0.904711,6.20373 0.100177,0.37209 0.329843,0.69712 0.516977,1.03396 1.574864,2.83476 4.471414,4.31041 6.074495,0.64622 0.508831,-1.16304 0.723228,-2.49431 0.775467,-3.74809 0.05306,-1.27348 0.196877,-2.59236 0.129246,-3.87734 -0.07876,-1.49651 -0.36881,-2.91264 -0.516979,-4.39431 -0.03429,-0.34294 0.04027,-0.69167 0,-1.03396 -0.04641,-0.39447 -0.216909,-0.76819 -0.258488,-1.1632 -0.0451,-0.42845 0.02687,-0.86247 0,-1.29245 -0.08276,-1.32408 -0.741288,-2.47986 -1.033957,-3.74809 -0.03875,-0.16791 0,-0.34465 0,-0.51698 -0.08616,-0.2154 -0.194755,-0.42314 -0.25849,-0.64622 -0.11525,-0.40338 -0.189968,-0.96544 -0.516977,-1.29244 -0.03046,-0.0305 -0.10998,0.0385 -0.129244,0 -0.0578,-0.1156 0,-0.51698 0,-0.38774 0,2.63533 0.623136,5.2113 1.292445,7.75467 0.371176,1.41048 0.263675,0.20792 0.646223,2.19716 0.469868,2.44332 0.572339,4.30196 2.067912,6.46223 0.3449,0.49819 1.567204,2.43938 2.455648,1.55094 1.104125,-1.10413 1.214962,-2.70794 1.550935,-4.13583 0.426016,-1.81057 2.045647,-6.40698 3.489603,-7.75467 0.447627,-0.41779 0.936363,-0.78988 1.42169,-1.1632 0.123122,-0.0947 0.413822,-0.38774 0.25849,-0.38774 -1.420876,0 -3.702952,3.61329 -4.135826,4.78205 -0.47421,1.28036 -0.73007,3.45074 -0.387734,4.78205 0.231111,0.89877 0.683824,1.72547 1.033955,2.58489 0.492376,1.20856 1.221094,2.69273 2.584892,3.10187 0.165058,0.0495 0.344651,0 0.51698,0 1.078367,0 0.796591,0.18278 1.680178,-0.90471 2.135182,-2.62792 2.558505,-8.71216 1.033957,-11.76126 -0.156392,-0.31278 -1.326816,-1.61144 -1.033957,-2.19715 0.03462,-0.0692 2.278002,-1.50791 2.326402,-1.55094 1.025067,-0.91117 1.988928,-2.29246 3.101869,-3.10187 1.295456,-0.94215 2.525382,-1.24816 4.006583,-1.68018 5.336145,-1.55638 -1.04154,0.26102 2.455648,-0.90471 0.164065,-0.0547 1.033954,-0.10307 1.033954,-0.38773 0,-0.0431 0.03853,-0.10998 0,-0.12925 -0.455927,-0.22796 -2.513779,0.87238 -2.843379,1.1632 -1.734304,1.53027 -3.398657,3.5363 -4.006582,5.81601 -0.513236,1.92464 -1.099114,7.16292 0,9.04712 0.523208,0.89693 0.683077,0.99866 1.550934,1.55093 1.141976,0.72671 2.374887,-0.0303 3.360359,-0.64622 3.037959,-1.89872 3.231116,-7.16663 3.231116,-10.33957 0,-0.73714 0.09228,-1.58818 0,-2.3264 -0.07493,-0.59946 -0.841238,-2.58259 -0.51698,-3.23111 0.239636,-0.47927 0.699148,-0.90778 0.904713,-1.42169 0.032,-0.08 -0.02725,-0.17675 0,-0.25849 0.279977,-0.83993 1.121212,-1.63845 1.680179,-2.32641 1.791903,-2.20541 1.726448,-2.23598 4.135826,-3.36035 0.174593,-0.0815 0.330065,-0.21176 0.51698,-0.25849 0.728983,-0.18225 1.579486,-0.25849 2.326402,-0.25849 0.689303,0 1.378609,0 2.067912,0 0.172328,0 0.344654,0 0.51698,0 0.04308,0 0.129243,0.0431 0.129243,0 0,-0.0431 -0.08616,0 -0.129243,0 -0.132292,0 -0.513932,0 -0.646224,0 -1.471927,0 -4.991767,1.61922 -5.299027,3.36036 -0.527394,2.98856 0.560636,4.55767 2.067912,7.10845 0.394618,0.66781 1.302885,2.11883 2.326404,1.68018 0.565518,-0.24237 0.904068,-2.57997 0.904711,-2.58489 0.281091,-2.15503 -0.787635,-5.68419 -1.163201,-7.88392 -0.416213,-2.43782 -0.656384,-4.70555 -1.292445,-7.10845 -0.139448,-0.5268 -0.377533,-1.02414 -0.516979,-1.55094 -0.395799,-1.49524 -0.698421,-3.01365 -1.033958,-4.52356 -0.01384,-0.0623 -0.290012,-1.42169 -0.258487,-1.42169 0.313936,0 0.635352,0.92815 0.775467,1.29245 0.303874,0.79007 0.803275,2.72511 0.904711,3.10187 0.677199,2.51531 -0.283498,-0.75824 0.646224,4.00658 0.154133,0.78993 0.463341,1.54263 0.646223,2.3264 0.687549,2.94664 -0.343087,0.1384 0.904711,4.00658 0.474118,1.46976 1.213096,2.84051 1.809425,4.26507 0.787376,1.88096 0.754787,2.48253 1.809424,3.7481 0.825514,0.99061 1.361948,1.76217 2.584892,2.06791 1.599055,0.39976 3.066804,-3.19074 3.360357,-4.39432 0.302315,-1.23948 0.599154,-2.4845 0.77547,-3.74809 0.08335,-0.59735 0.02938,-1.207 0,-1.80942 -0.21104,-4.32628 -1.155065,-7.59288 -2.197159,-11.76126 -0.371615,-1.48646 -0.667136,-3.32299 -1.292447,-4.78205 -0.265631,-0.61981 -0.630838,-1.19321 -0.904711,-1.80942 -0.127328,-0.28649 -0.137596,-0.78382 -0.387733,-1.03396 -0.152318,-0.15232 -0.04031,0.43462 0,0.64622 0.330504,1.73515 0.807013,3.43973 1.163201,5.16979 0.877691,4.26308 1.113956,8.59207 2.326401,12.79521 0.134623,0.46669 1.181561,3.816 1.938669,4.6528 0.633915,0.70065 1.316349,1.36605 2.067914,1.93867 0.460476,0.35084 2.098866,0.17163 2.584892,-0.12924 0.681371,-0.4218 1.361024,-0.86626 1.938664,-1.42169 2.28537,-2.19747 3.50791,-6.33372 2.84338,-9.43486 -0.0959,-0.44744 -1.19581,-2.2572 -1.68017,-2.3264 -1.20817,-0.17259 -1.49895,0.94514 -1.80943,1.93867 -0.654269,2.09366 0.16713,6.16331 1.1632,8.01316 0.36822,0.68383 0.8342,1.3116 1.29245,1.93867 1.23472,1.68963 2.24292,2.64055 4.26507,1.29245"
       style="fill:none;stroke:#000000;stroke-width:0.264583px;stroke-linecap:butt;stroke-linejoin:miter;stroke-opacity:1" />
    <path
       id="path873"
       d="m 149.53597,26.624383 c 11.43324,-5.519497 7.98893,-6.927655 15.76784,10.468811 0.29269,0.65456 -0.64398,1.314926 -1.1632,1.809422 -0.27395,0.260905 -3.55965,1.651603 -3.61885,1.680181 -2.71621,1.311275 -0.64235,0.528158 -3.4896,1.809424 -0.24847,0.111813 -0.51698,0.172326 -0.77547,0.258487 -0.34465,0.129247 -0.69975,0.233485 -1.03396,0.387734 -0.11744,0.0542 -1.16559,0.90352 -1.42169,0.77547 -0.37976,-0.189884 -0.82631,-2.942243 -0.90471,-3.360359 -0.17781,-0.948341 -0.0975,-0.989248 -0.51698,-2.067915 -0.13966,-0.359132 -0.37865,-0.674306 -0.51697,-1.033957 -0.28285,-0.735399 -0.39636,-1.57679 -0.64623,-2.326402 -0.35477,-1.06431 -0.90097,-2.057929 -1.29244,-3.101869 -0.15108,-0.40287 -0.14424,-0.782341 -0.25849,-1.163201 -0.29638,-0.987917 -0.77547,-1.923865 -0.77547,-2.972625"
       style="fill:none;stroke:#000000;stroke-width:0.264583px;stroke-linecap:butt;stroke-linejoin:miter;stroke-opacity:1" />
    <path
       id="path875"
       d="m 154.44727,44.072399 c 1.41712,-1.265412 -11.68597,0.681287 -11.37352,4.78205 0.28504,3.741209 1.83185,7.282117 2.97262,10.856545 0.15989,0.500981 0.48401,0.976918 0.90471,1.292445 0.17574,0.131804 0.42989,-0.09107 0.64623,-0.129244 0.51613,-0.09108 1.04623,-0.117174 1.55093,-0.25849 1.56719,-0.438812 2.61019,-1.093859 4.26507,-1.292445 1.70519,-0.204623 3.57343,0 5.29903,0 0.073,0 1.22788,0.129016 1.29244,-0.129246 0.30545,-1.221793 -0.60026,-2.565596 -1.03395,-3.618846 -0.30157,-0.732386 -0.6309,-1.453949 -0.90472,-2.197159 -0.35806,-0.971888 -0.54103,-2.002821 -0.90471,-2.972625 -0.26721,-0.712573 -0.79679,-1.356416 -1.03395,-2.067912 -0.13825,-0.414726 -0.20746,-1.508966 -0.38774,-1.809425 -0.27608,-0.460139 -0.64622,-0.874164 -0.64622,-1.42169"
       style="fill:none;stroke:#000000;stroke-width:0.264583px;stroke-linecap:butt;stroke-linejoin:miter;stroke-opacity:1" />
    <path
       id="path877"
       d="m 167.11323,37.868661 c 4.07863,3.79254 1.98341,9.909572 4.26508,14.346147 0.39809,0.774065 2.07855,-0.267681 3.61884,-1.1632 2.35713,-1.370426 2.37205,-1.719469 4.26508,-2.455649 0.73702,-0.28662 1.78866,-0.630698 2.58489,-0.775467 0.17041,-0.03099 1.26508,0.156612 1.42169,0 0.0914,-0.09139 0,-0.25849 0,-0.387734 0,-2.088806 -1.19297,-3.781091 -1.93867,-5.686761 -0.53667,-1.371488 -1.03649,-2.723406 -1.42169,-4.135826 -0.13268,-0.486489 -0.39468,-0.932489 -0.51698,-1.421691 -0.0314,-0.125386 0.0254,-0.260998 0,-0.387733 -0.0971,-0.485326 -0.52359,-0.931162 -0.64622,-1.421691 -0.0186,-0.07414 0.0657,-0.58056 0,-0.646221 -0.16844,-0.168434 -1.0135,0.07934 -1.16321,0.129243 -1.5671,0.522367 -3.26385,0.886725 -4.78204,1.550935 -1.21351,0.53091 -2.39366,1.175689 -3.61885,1.680181 -0.7261,0.298979 -1.37903,0.431027 -2.06792,0.775467 z"
       style="fill:none;stroke:#000000;stroke-width:0.264583px;stroke-linecap:butt;stroke-linejoin:miter;stroke-opacity:1" />
    <path
       id="path879"
       d="m 158.58309,60.486461 c 5.06354,-3.857932 7.40801,-6.154962 12.53673,-8.788633 0.12119,-0.06223 0.32452,0.0086 0.38773,0.129247 0.4306,0.822055 0.68931,1.72326 1.03396,2.584892 1.00958,2.523966 1.91791,5.120494 2.97262,7.625429 0.29802,0.707792 2.05161,3.667754 1.80943,4.394316 -0.31552,0.94656 -2.55496,2.500836 -3.23112,3.101869 -1.23159,1.094751 -2.39967,2.25202 -3.61885,3.360359 -1.71023,1.554756 -3.28603,3.178027 -5.16978,4.52356 -0.15749,0.112491 -0.57718,0.261438 -0.77547,0.129244 -0.0801,-0.05344 -0.0782,-0.176797 -0.12924,-0.258487 -0.9791,-1.566556 -1.40907,-3.275203 -1.93867,-5.04054 -0.25849,-0.861629 -0.61914,-1.699012 -0.77547,-2.584892 -0.17222,-0.975921 -0.23828,-2.00121 -0.38773,-2.972626 -0.12515,-0.813435 -0.4013,-1.645861 -0.51698,-2.455645 -0.06,-0.420108 0.0698,-0.873908 0,-1.292447 -0.0902,-0.541018 -0.52192,-1.053714 -0.64622,-1.550935 -0.11363,-0.454501 0,-1.073269 0,-1.550934"
       style="fill:none;stroke:#000000;stroke-width:0.264583px;stroke-linecap:butt;stroke-linejoin:miter;stroke-opacity:1" />
    <path
       id="path881"
       d="m 148.88975,27.787584 c -0.0862,-2.067914 -0.32118,-4.134982 -0.25849,-6.20374 0.024,-0.79402 0.36834,-1.546048 0.51698,-2.326402 0.0242,-0.126962 -0.0409,-0.265122 0,-0.387734 0.049,-0.146872 1.16962,-0.453961 1.42169,-0.516978 2.49908,-0.62477 -0.73902,0.321456 1.03396,-0.387734 1.07806,-0.431226 2.18603,-0.588409 3.23111,-1.163201 0.86163,-0.473897 1.67718,-1.043478 2.58489,-1.421691 0.33978,-0.141572 0.69886,-0.235417 1.03396,-0.387733 0.77999,-0.354545 -0.0389,-0.20244 0.90471,-0.516979 0.0817,-0.02725 0.17849,0.032 0.25849,0 1.01302,0.448949 0.22425,-0.305992 0.38773,-0.387733 0.0304,-0.01521 0.6333,-0.02585 0.64623,0 0.37474,0.749485 -0.82956,3.380926 -1.03396,3.877337 -0.36915,0.896507 -0.67411,1.814521 -1.03396,2.714136 -0.19756,0.493907 -0.28372,0.436676 -0.38773,0.904712 -0.0568,0.255814 -0.0464,0.52686 -0.12925,0.775467 -0.2345,0.703501 -0.38773,0.69257 -0.38773,1.292446"
       style="fill:none;stroke:#000000;stroke-width:0.264583px;stroke-linecap:butt;stroke-linejoin:miter;stroke-opacity:1" />
    <path
       id="path883"
       d="m 159.61705,14.475392 c 1.72326,2.024832 3.82702,3.779595 5.16978,6.074495 1.07338,1.834504 1.34695,4.03307 1.93867,6.074496 0.27059,0.933537 0.4023,1.902523 0.64622,2.843379 0.12292,0.474112 0.39097,1.021014 0.25849,1.550935 -0.43209,1.728382 -0.91216,3.541773 -1.1632,5.29903 -0.006,0.04405 -0.28505,1.059325 -0.12924,1.1632 0.24046,0.160309 0.51697,0.258488 0.77546,0.387734"
       style="fill:none;stroke:#000000;stroke-width:0.264583px;stroke-linecap:butt;stroke-linejoin:miter;stroke-opacity:1" />
    <path
       id="path885"
       d="m 167.8887,30.889453 c 1.98175,-0.947793 3.91912,-1.994596 5.94525,-2.843379 1.16867,-0.489577 2.40054,-0.815113 3.61885,-1.163204 0.93457,-0.267017 1.88806,-0.4671 2.84338,-0.646221 0.0921,-0.01727 2.70142,-0.400456 2.71414,-0.387734 0.16917,0.169174 -0.49015,1.283375 -0.64623,1.550935 -0.78747,1.349962 -1.93882,2.585239 -2.58489,4.006583 -0.0735,0.161708 -0.0862,0.344651 -0.12924,0.516977 -0.0862,0.215408 -0.15474,0.438714 -0.25849,0.646224 -0.27563,0.551249 -0.51698,0.807537 -0.51698,1.421688"
       style="fill:none;stroke:#000000;stroke-width:0.264583px;stroke-linecap:butt;stroke-linejoin:miter;stroke-opacity:1" />
    <path
       id="path887"
       d="m 183.39805,25.978159 c 1.07704,2.714136 2.20912,5.40707 3.23111,8.142409 1.22912,3.289697 1.16321,2.442602 1.16321,4.26507 0,0.180621 0.0746,0.626192 0,0.775468 -0.47066,0.941308 -0.25812,0.12868 -0.77547,0.904713 -0.76874,1.153107 -1.5662,2.716469 -2.06791,4.00658 -0.12925,0.344652 -0.25849,0.689306 -0.38774,1.033958 0,0.129243 0.0314,0.262347 0,0.387733 -0.12439,0.497586 -0.49415,0.965483 -0.64622,1.421691 -0.009,0.02609 0.043,0.473977 0,0.516977 -0.0305,0.03046 -0.0862,0 -0.12924,0"
       style="fill:none;stroke:#000000;stroke-width:0.264583px;stroke-linecap:butt;stroke-linejoin:miter;stroke-opacity:1" />
    <path
       id="path889"
       d="m 160.13403,59.840238 c 1.03396,-2.714136 1.96251,-5.470806 3.10187,-8.14241 0.21541,-0.215405 0.43081,-0.430813 0.64622,-0.64622 0.0431,0 0.10998,0.03853 0.12924,0 0.20435,-0.408692 -0.54212,-1.445948 -0.64622,-1.680181 -0.66421,-1.494478 -1.27284,-3.025447 -1.93867,-4.52356 -0.37685,-0.847932 -0.72836,-1.414444 -1.1632,-2.197159 -0.11267,-0.202803 -0.12979,-0.453186 -0.25849,-0.646221 -0.14275,-0.214132 -0.38773,-0.255796 -0.38773,-0.516979"
       style="fill:none;stroke:#000000;stroke-width:0.264583px;stroke-linecap:butt;stroke-linejoin:miter;stroke-opacity:1" />
    <path
       id="path891"
       d="m 163.88212,51.051608 c 2.11952,0.372655 3.05668,-2.545485 4.91129,-3.10187 0.37177,-0.111529 0.74749,0.157229 1.03396,-0.129246"
       style="fill:none;stroke:#000000;stroke-width:0.264583px;stroke-linecap:butt;stroke-linejoin:miter;stroke-opacity:1" />
    <path
       id="path893"
       d="m 178.22827,65.656245 c -2.35043,-0.777505 1.03668,-6.194187 0.51698,-8.013166 -0.5264,-1.842386 -1.57468,-3.545009 -2.32641,-5.299027 -0.15713,-0.366652 -0.63883,-2.455645 -1.29244,-2.455645"
       style="fill:none;stroke:#000000;stroke-width:0.264583px;stroke-linecap:butt;stroke-linejoin:miter;stroke-opacity:1" />
    <path
       id="path895"
       d="m 143.71997,48.078982 c 3.98835,-0.374772 -0.56221,-7.19247 1.68018,-9.434854 0.0431,-0.04308 0.34465,-0.08616 0.38773,-0.129246 0.0681,-0.06812 0.0862,-0.172326 0.12924,-0.258487 0.21541,-0.08616 0.46063,-0.11929 0.64623,-0.25849 0.34119,-0.255892 0.58771,-0.619408 0.90471,-0.904711 0.90176,-0.811586 2.39229,-1.03922 3.4896,-1.292447"
       style="fill:none;stroke:#000000;stroke-width:0.264583px;stroke-linecap:butt;stroke-linejoin:miter;stroke-opacity:1" />
    <path
       id="path897"
       d="m 11.890501,22.617801 c -0.258489,2.84338 -0.775467,5.675036 -0.775467,8.530142 0,2.55492 0.536989,5.081664 0.775467,7.625429 0.0201,0.214469 -0.04225,0.434999 0,0.646224 0.02046,0.102298 5.045211,-0.25849 5.169783,-0.25849 2.024832,0 4.049663,0 6.074495,0 0.05895,0 1.113907,0.07394 1.163201,0 0.346591,-0.519885 0.516978,-2.949446 0.516978,-3.618847 0,-2.197158 0,-4.394316 0,-6.591474 0,-1.281642 -0.03025,-2.601393 0.129245,-3.877338 0.0516,-0.412797 0.793714,-1.668014 0.387734,-1.938668 -0.862189,-0.574793 -3.723074,-0.258489 -4.78205,-0.258489 -2.283321,0 -4.566641,0 -6.849962,0"
       style="fill:none;stroke:#000000;stroke-width:0.264583px;stroke-linecap:butt;stroke-linejoin:miter;stroke-opacity:1" />
    <path
       id="path901"
       d="m 39.548839,22.488556 c -0.618431,2.828424 -0.516977,5.55538 -0.516977,8.400897 0,2.031039 -0.129246,4.047339 -0.129246,6.074494 0,0.131782 -0.01318,1.796249 0,1.809425 0.34309,0.343091 2.655533,0.07047 3.101871,0 1.090981,-0.17226 2.290829,-0.23177 3.36036,-0.516977 1.561467,-0.416394 3.166536,-0.914662 4.782047,-1.163201 0.170323,-0.02619 0.345985,0.02138 0.51698,0 1.01732,-0.127167 2.126194,-0.779696 3.101869,-0.129247 0.229386,0.152924 1.986904,1.793963 2.197158,1.163201 0.436872,-1.310618 0.322924,-2.645558 0.387734,-4.00658 0.06756,-1.418865 0.312793,-2.841201 0.387733,-4.265072 0.04261,-0.809684 0.215874,-1.645963 0.25849,-2.455646 0.04913,-0.933572 0,-1.904979 0,-2.843381 0,-0.122778 0.133432,-1.288258 0,-1.42169 -0.429289,-0.429289 -2.969056,-0.387734 -3.618849,-0.387734 -4.394316,0 -8.78863,0 -13.182946,0"
       style="fill:none;stroke:#000000;stroke-width:0.264583px;stroke-linecap:butt;stroke-linejoin:miter;stroke-opacity:1" />
    <path
       id="path903"
       d="m 24.814958,39.161106 c -0.986204,8.45318 -0.851981,5.444855 -1.033956,11.632012 -0.0053,0.179072 -0.135009,0.90471 0.129244,0.90471 2.24024,0 4.480479,0 6.720717,0 1.019286,0 2.084086,-0.0727 3.101872,0 0.867725,0.06198 1.719778,0.387737 2.584892,0.387737 0.487666,0 2.257104,0.538975 2.584889,0.129243 0.598014,-0.747516 0.51181,-1.969695 0.646223,-2.843381 0.180129,-1.170835 0.216964,-0.404053 0.387734,-2.197159 0.127738,-1.341239 0,-2.785252 0,-4.135826 0,-0.149418 -0.0837,-1.083186 0,-1.292445 0.04525,-0.113138 0.203996,-0.1495 0.25849,-0.258489 0.07965,-0.159293 0.04988,-1.063443 0,-1.163201 -0.01926,-0.03853 -0.09071,0.01926 -0.129244,0 -0.256627,-0.128313 -0.511852,-0.38517 -0.77547,-0.516978 -0.560242,-0.280122 -1.323295,-0.29306 -1.938668,-0.387733 -1.203621,-0.185174 -2.404025,-0.129247 -3.618846,-0.129247 -2.721655,0 -5.421744,0.129247 -8.142409,0.129247"
       style="fill:none;stroke:#000000;stroke-width:0.264583px;stroke-linecap:butt;stroke-linejoin:miter;stroke-opacity:1" />
    <path
       id="path905"
       d="m 24.427225,51.827075 c -2.197158,0 -4.394461,0.02524 -6.591474,0 -1.55143,-0.01783 -3.101672,-0.09399 -4.652804,-0.129247 -0.344564,-0.0078 -0.689305,0 -1.033957,0 -0.08616,0 -0.197563,-0.06093 -0.258489,0 -0.559714,0.559716 -0.456426,3.827209 -0.516979,4.523563 -0.168513,1.937904 -0.323414,3.880363 -0.516978,5.816005 -0.0078,0.07818 -0.229906,2.820183 -0.258489,2.972625 -0.09724,0.518631 -1.0067931,3.156196 -0.7754674,3.618849 0.1195557,0.23911 2.9570524,0.129244 3.3603594,0.129244 0.529166,0 0.763279,0 1.292445,0 2.154077,0 4.308153,0 6.462229,0 0.818549,0 1.637098,0 2.455647,0 0.301571,0 0.603141,0 0.904712,0 0.08616,0 0.258489,0.08616 0.258489,0 0,-0.04308 -0.172326,0 -0.129244,0 0.353885,0 0.735271,0.03587 0.904712,-0.387734 0.134928,-0.337322 -0.02163,-0.924856 0,-1.292447 0.147661,-2.51024 0.129244,-1.015378 0.129244,-2.584889 0,-3.145859 -0.129244,-6.285846 -0.129244,-9.434856 0,-1.255152 -0.250867,-3.512471 0.129244,-4.652804"
       style="fill:none;stroke:#000000;stroke-width:0.264583px;stroke-linecap:butt;stroke-linejoin:miter;stroke-opacity:1" />
    <path
       id="path907"
       d="m 40.841287,52.344052 c -0.51698,2.369484 -1.241333,4.703069 -1.550938,7.108452 -0.253047,1.966 -0.09675,3.963299 -0.129243,5.945251 -0.01058,0.646136 0,1.292444 0,1.938668 0,0.129244 -0.06649,0.276908 0,0.387734 0.364222,0.607039 1.882005,0.08888 2.326402,0 0.790164,-0.158033 1.554871,-0.440481 2.326404,-0.646224 2.166422,-0.577712 0.488024,-0.100499 2.067912,-0.258487 2.156161,-0.215617 2.781924,-0.32266 5.040537,0 0.3932,0.05617 0.771414,0.193191 1.163204,0.258487 1.059074,0.176514 2.090825,0.199274 2.972623,0.904714 0.128058,0.102444 0.630901,0.661545 0.904713,0.387733 0.585139,-0.585142 0.612254,-2.647026 0.646224,-3.360359 0.09669,-2.03051 0.129243,-4.037679 0.129243,-6.074494 0,-2.154076 0,-4.308153 0,-6.462229 0,-0.137482 0.118423,-0.915535 0,-1.033957 -0.09139,-0.09139 -0.25849,0 -0.387733,0 -0.88034,0 -1.850763,-0.132826 -2.714136,0 -0.392575,0.0604 -0.770001,0.202316 -1.163201,0.258487 -1.810797,0.258686 -3.62055,0.360794 -5.428273,0.646224 -2.210004,0.348948 -4.06241,1.284798 -6.203738,0 z"
       style="fill:none;stroke:#000000;stroke-width:0.264583px;stroke-linecap:butt;stroke-linejoin:miter;stroke-opacity:1" />
    <path
       id="path911"
       d="m 11.890501,22.617801 c 0.473897,-1.163202 0.947793,-2.326403 1.42169,-3.489604 0.129245,-0.430815 0.226271,-0.872641 0.387734,-1.292446 -0.448948,-1.013025 0.305992,-0.224251 0.387734,-0.387733 0.0578,-0.1156 -0.09139,-0.296344 0,-0.387734 0.0465,-0.0465 3.211002,0 3.360359,0 1.62067,0 3.362172,-0.162122 4.911293,-0.646223 2.561438,-0.800449 4.984072,-0.987111 7.625431,-1.163201 0.02724,-0.0018 2.09441,-0.231991 2.197158,-0.129245 0.4034,0.403401 -0.487548,1.360523 -0.646223,1.550935 -0.722959,0.86755 -1.567768,1.61272 -2.326402,2.455647 -0.07489,0.08321 -0.871739,1.065753 -1.163201,1.292446 -0.245227,0.19073 -0.532879,0.322907 -0.775468,0.516978 -0.141123,0.112899 -1.586822,1.550935 -1.68018,1.550935"
       style="fill:none;stroke:#000000;stroke-width:0.264583px;stroke-linecap:butt;stroke-linejoin:miter;stroke-opacity:1" />
    <path
       id="path913"
       d="m 24.814958,39.161106 c 8.086241,-9.819005 2.496159,-4.047546 7.625429,-8.271653 0.03326,-0.02739 -0.01513,-0.08891 0,-0.129244 0.662554,-1.766808 0.646224,-2.88808 0.646224,-4.78205 0,-3.144951 0,-6.289902 0,-9.434853"
       style="fill:none;stroke:#000000;stroke-width:0.264583px;stroke-linecap:butt;stroke-linejoin:miter;stroke-opacity:1" />
    <path
       id="path915"
       d="m 32.957367,31.277187 c 4.611677,0 2.762877,0.124814 5.557515,-0.129244"
       style="fill:none;stroke:#000000;stroke-width:0.264583px;stroke-linecap:butt;stroke-linejoin:miter;stroke-opacity:1" />
    <path
       id="path917"
       d="m 39.548839,22.488556 c 2.160749,-1.7286 6.301055,-5.23325 9.176367,-7.108452 0.113831,-0.07424 1.675804,0.556189 2.067912,0.516979 0.906912,-0.09069 1.830355,-0.44333 2.714135,-0.516979 0.601059,-0.05009 1.209,0.05718 1.809425,0 1.77923,-0.16945 3.153671,-0.258489 4.911293,-0.258489 1.373725,0 2.751855,-0.129244 4.135827,-0.129244 0.08182,0 0.870508,-0.06841 0.904713,0 0.283004,0.566007 -0.626081,1.505463 -0.904713,1.809424 -0.658712,0.718595 -1.399802,1.358046 -2.067912,2.067913 -0.720559,0.765592 -1.448149,1.722602 -2.326405,2.326402 -0.493194,0.339072 -1.052946,0.57272 -1.550934,0.904712 -0.208344,0.138896 -1.680179,1.635762 -1.680179,1.809424"
       style="fill:none;stroke:#000000;stroke-width:0.264583px;stroke-linecap:butt;stroke-linejoin:miter;stroke-opacity:1" />
    <path
       id="path919"
       d="m 57.384592,37.868661 c 1.938668,-2.24024 3.877336,-4.48048 5.816005,-6.720718 0.516977,-0.51698 1.055031,-1.013709 1.550934,-1.550935 0.02922,-0.03166 0.04308,-0.129246 0,-0.129246 -0.04308,0 0,0.172326 0,0.129246 0,-1.545928 0.08114,-3.111087 0,-4.652805 -0.07519,-1.428583 -0.29265,-2.838833 -0.387733,-4.265071 -0.06267,-0.940085 0,-1.899101 0,-2.843381"
       style="fill:none;stroke:#000000;stroke-width:0.264583px;stroke-linecap:butt;stroke-linejoin:miter;stroke-opacity:1" />
    <path
       id="path921"
       d="m 40.841287,52.344052 c 1.077036,-1.335527 2.106149,-2.711167 3.231112,-4.00658 0.344652,-0.301572 0.689306,-0.603141 1.033958,-0.904714 0.08616,0 0.181422,0.03853 0.25849,0 0.03607,-0.01804 -0.01786,-0.343061 0,-0.387733 0.24353,-0.608828 0.516977,-0.984724 0.516977,-1.680178 0,-2.724513 -0.02254,-0.189402 0.129244,-4.135827 0.02716,-0.70608 -0.20551,-2.614586 0,-3.231115 0.09139,-0.274169 0.25849,-0.516978 0.387733,-0.775468"
       style="fill:none;stroke:#000000;stroke-width:0.264583px;stroke-linecap:butt;stroke-linejoin:miter;stroke-opacity:1" />
    <path
       id="path923"
       d="m 45.106357,47.432758 c 2.929543,-0.172325 5.860745,-0.318476 8.78863,-0.516977 2.15601,-0.146172 4.319952,-0.233442 6.462231,-0.51698 0.102631,-0.01357 2.680702,-0.938144 2.972622,-0.646221 0.412901,0.412901 -1.072806,1.571705 -1.163201,1.680178 -0.237251,0.284705 -0.414707,0.615321 -0.646221,0.904714 -0.603141,0.753925 -0.201048,0 -0.904713,0.904711 -0.154226,0.198289 -0.200525,0.478719 -0.387734,0.646224 -0.34685,1.229569 -1.683665,1.147725 -2.455645,1.809421 -0.40427,0.346517 -0.784918,0.784919 -1.163201,1.163204"
       style="fill:none;stroke:#000000;stroke-width:0.264583px;stroke-linecap:butt;stroke-linejoin:miter;stroke-opacity:1" />
    <path
       id="path925"
       d="m 56.350635,68.887358 c -0.469223,-4.899192 6.378257,-5.3056 7.625429,-9.04712 0.136237,-0.408708 0,-0.861629 0,-1.292445 0,-1.767017 -0.242059,-3.421695 -0.387734,-5.169784 -0.08165,-0.979879 0,-1.989261 0,-2.972625 0,-0.633534 -0.101041,-1.798881 0,-2.455646 0.285737,-1.857287 0.25849,-0.186745 0.25849,-1.033957"
       style="fill:none;stroke:#000000;stroke-width:0.264583px;stroke-linecap:butt;stroke-linejoin:miter;stroke-opacity:1" />
    <path
       id="path929"
       d="m 25.71967,68.887358 c 0.430816,-1.163201 0.794218,-2.353644 1.292446,-3.489603 1.019173,-2.323714 1.553065,-3.381563 2.84338,-5.040537 0.187026,-0.240464 0.477244,-0.392756 0.646223,-0.646224 0.05771,-0.08657 0.200779,-0.30117 0.25849,-0.387734 0.0478,-0.07169 -0.06093,-0.197564 0,-0.25849 0.03046,-0.03046 0.09878,0.03046 0.129244,0 0.09139,-0.09139 0,-0.761153 0,-0.904711 0,-1.368782 -1.311915,-4.355377 -0.775467,-5.428273"
       style="fill:none;stroke:#000000;stroke-width:0.264583px;stroke-linecap:butt;stroke-linejoin:miter;stroke-opacity:1" />
    <path
       id="path931"
       d="m 13.053702,51.697828 c 2.160156,-1.392017 3.067883,-4.254402 5.040538,-5.945248 0.162737,-0.139488 0.714125,0.09529 0.904712,0 0.108989,-0.0545 0.149501,-0.203996 0.25849,-0.25849 0.262364,-0.131183 0.653013,-0.17459 0.904712,-0.25849 0.525875,-0.175291 2.136327,-0.387733 2.714136,-0.387733 0.163366,0 1.170275,0 0.904712,0"
       style="fill:none;stroke:#000000;stroke-width:0.264583px;stroke-linecap:butt;stroke-linejoin:miter;stroke-opacity:1" />
    <path
       id="path933"
       d="m 29.209275,127.82288 c -0.861632,-2.41256 -1.784022,-4.80428 -2.584892,-7.23769 -1.15174,-3.49952 -1.439224,-2.68405 1.421691,-4.78205 1.175565,-0.86208 2.439881,-1.59822 3.618846,-2.45565 0.285464,-0.20761 1.329174,-1.75676 1.809425,-1.55093 0.828185,0.35493 2.093931,1.67179 2.584892,2.3264 0.139199,0.1856 0.154733,0.43871 0.25849,0.64622 0.294092,0.58819 0.722182,1.10117 1.033954,1.68018 0.109993,0.20427 0.143386,0.44479 0.25849,0.64622 0.311748,0.54556 0.883163,0.9442 1.292445,1.42169 0.241186,0.28139 0.384169,0.64266 0.646223,0.90472 0.109837,0.10983 0.277897,0.14865 0.387734,0.25849 1.195612,1.19561 -0.23482,-0.17597 0.25849,0.64622 0.118351,0.19725 0.558308,0.43432 0.387734,0.77547 -0.370832,0.74166 -2.316422,1.88893 -2.972626,2.3264 -1.066599,0.71107 -1.999578,1.69652 -3.101869,2.3264 -0.716926,0.40967 -3.004717,0.9368 -3.360359,1.29245"
       style="fill:none;stroke:#000000;stroke-width:0.264583px;stroke-linecap:butt;stroke-linejoin:miter;stroke-opacity:1" />
    <path
       id="path935"
       d="m 20.162154,106.1098 c 2.344549,4.58716 2.853609,5.25997 4.52356,9.43485 0.378454,0.94614 -0.07,0.90471 0.387733,0.90471"
       style="fill:none;stroke:#000000;stroke-width:0.264583px;stroke-linecap:butt;stroke-linejoin:miter;stroke-opacity:1" />
    <path
       id="path937"
       d="m 33.474345,111.02109 c 4.156998,-3.14924 3.43731,-2.87247 7.366942,-5.04054 0.52651,-0.29049 0.488391,-0.25849 0.90471,-0.25849 0.08616,0 0.25849,0.0862 0.25849,0 0,-0.0431 -0.08616,0 -0.129246,0 0.129246,-0.0862 0.25849,-0.17232 0.387734,-0.25849"
       style="fill:none;stroke:#000000;stroke-width:0.264583px;stroke-linecap:butt;stroke-linejoin:miter;stroke-opacity:1" />
    <path
       id="path941"
       d="m 31.147943,127.04742 c -7.671378,3.83569 -1.202145,0.50608 -8.271653,4.39431 -0.422044,0.23212 -0.855113,0.44438 -1.292446,0.64622 -0.182594,0.0843 -0.775468,0.0727 -0.775468,0.25849"
       style="fill:none;stroke:#000000;stroke-width:0.264583px;stroke-linecap:butt;stroke-linejoin:miter;stroke-opacity:1" />
    <path
       id="path943"
       d="m 41.616754,119.80972 c 1.312161,1.85216 2.490187,3.7999 3.748093,5.68676 0.119485,0.17923 0.291398,0.32431 0.387733,0.51698 0.09304,0.18608 0.104458,0.62144 0.258488,0.77547 0.193868,0.19387 0.452358,0.32311 0.646223,0.51698 0.283848,0.28384 -0.381434,1.68018 0.25849,1.68018"
       style="fill:none;stroke:#000000;stroke-width:0.264583px;stroke-linecap:butt;stroke-linejoin:miter;stroke-opacity:1" />
    <path
       id="path945"
       d="m 46.915781,128.98609 c -4.210452,3.70009 -4.101936,4.09585 -9.176366,6.59147 -0.941412,0.46299 -1.994855,0.65371 -2.972626,1.03395 -1.475808,0.57393 -2.778873,1.40561 -4.135826,2.19716 -0.615019,0.35876 -1.292918,0.38793 -1.938668,0.64623 -0.342805,0.13712 -0.646721,0.43953 -1.033955,0.51697 -0.141983,0.0284 -1.462273,0 -1.163203,0"
       style="fill:none;stroke:#000000;stroke-width:0.264583px;stroke-linecap:butt;stroke-linejoin:miter;stroke-opacity:1" />
    <path
       id="path947"
       d="m 20.808376,132.34644 c -5.125496,-12.58076 -0.38831,-1.38744 -7.237696,-16.02632 -0.881305,-1.88358 -2.584891,-4.78598 -2.584891,-7.2377"
       style="fill:none;stroke:#000000;stroke-width:0.264583px;stroke-linecap:butt;stroke-linejoin:miter;stroke-opacity:1" />
    <path
       id="path949"
       d="m 20.162154,106.1098 c 1.378609,-1.1632 2.623463,-2.50657 4.135826,-3.48961 1.10037,-0.71524 2.425794,-1.00412 3.618847,-1.55093 3.291359,-1.508543 1.750881,-1.04516 4.911294,-2.326404 0.808427,-0.327742 1.645706,-0.580737 2.455648,-0.904714 0.970428,-0.38817 2.078101,-0.910531 2.972626,-1.421691 0.397454,-0.227115 1.964393,-1.421688 2.326402,-1.421688"
       style="fill:none;stroke:#000000;stroke-width:0.264583px;stroke-linecap:butt;stroke-linejoin:miter;stroke-opacity:1" />
    <path
       id="path951"
       d="m 42.262975,105.46357 c 3.31339,3.05851 4.999521,4.1818 7.366942,7.49619 1.564907,2.19087 1.325017,2.33862 2.455648,4.39431 0.149714,0.27221 0.378044,0.4976 0.516977,0.77547 0.305435,0.61087 0.344331,1.33489 0.646224,1.93867 0.399497,0.799 1.292444,1.96438 1.292444,2.71414"
       style="fill:none;stroke:#000000;stroke-width:0.264583px;stroke-linecap:butt;stroke-linejoin:miter;stroke-opacity:1" />
    <path
       id="path953"
       d="m 46.915781,128.98609 c 1.249363,1.98175 3.007265,3.72276 3.748093,5.94525 1.191559,3.57467 0.162933,4.26874 -1.809425,5.94525 -0.935804,0.79543 -3.07744,1.75091 -4.394316,1.42169 -1.104474,-0.27612 -2.164043,-0.73638 -3.231113,-1.16321 -0.781553,-0.31262 -1.147582,-0.28103 -1.938671,-0.77546 -0.365384,-0.22837 -1.336474,-1.1935 -1.550934,-1.55094 -0.07571,-0.12618 -0.127712,-0.51545 -0.258488,-0.64622 -0.136236,-0.13624 -0.380743,-0.12225 -0.51698,-0.25849 -0.03046,-0.0305 0.03046,-0.0988 0,-0.12924 -0.41925,-0.41926 -0.90471,-0.62757 -0.90471,-1.29245"
       style="fill:none;stroke:#000000;stroke-width:0.264583px;stroke-linecap:butt;stroke-linejoin:miter;stroke-opacity:1" />
    <path
       id="path955"
       d="m 20.808376,132.34644 c -1.335527,0.6893 -2.506253,1.97966 -4.006581,2.06792 -1.672864,0.0984 -3.308572,-0.7528 -4.782049,-1.55094 -1.688354,-0.91452 -1.505017,-2.11897 -1.421691,-3.61884 0.02888,-0.51978 0.175394,-0.4477 0.258489,-0.90472 0.257566,-1.41661 0.55735,-2.66726 1.421691,-3.87733 0.391631,-0.54829 0.966077,-0.96608 1.42169,-1.4217 0.361073,-0.36107 0.45349,-0.86238 0.904712,-1.1632 0.142575,-0.0951 0.162303,-0.29154 0.258489,-0.38773 0.03046,-0.0305 0.129245,0.0431 0.129245,0 0,-0.0431 -0.172327,0 -0.129245,0 0.301571,0 0.258489,0.0862 0.258489,-0.12924"
       style="fill:none;stroke:#000000;stroke-width:0.264583px;stroke-linecap:butt;stroke-linejoin:miter;stroke-opacity:1" />
    <path
       id="path957"
       d="m 20.162154,106.1098 c -0.56006,-1.37861 -1.492729,-2.65965 -1.68018,-4.13583 -0.170414,-1.34201 0.262916,-2.709237 0.646223,-4.006581 0.506013,-1.712661 1.484657,-2.034776 2.843381,-2.714138 0.427992,-0.213995 0.895736,-0.433806 1.42169,-0.258488 0.976397,0.325464 1.643887,0.971106 2.455647,1.550935 0.149698,0.106926 0.605363,0.173437 0.775468,0.258487 0.510119,0.255061 0.326213,0.326215 0.646223,0.646224 0.264026,0.264027 0.687142,0.449114 0.904711,0.775467 0.09505,0.142579 0.311391,0.235051 0.387734,0.387734 0.116782,0.233563 -0.19013,1.292447 0.129244,1.292447"
       style="fill:none;stroke:#000000;stroke-width:0.264583px;stroke-linecap:butt;stroke-linejoin:miter;stroke-opacity:1" />
    <path
       id="path959"
       d="m 42.262975,105.46357 c 1.163201,-1.20628 2.022671,-2.80875 3.489605,-3.61884 1.546233,-0.85389 3.404251,-1.1097 5.169781,-1.16321 4.564732,-0.13832 5.337601,3.12826 4.135827,6.33299 -0.199464,0.53191 -0.803254,1.23024 -1.163201,1.68018 -0.361633,0.45204 -1.073703,0.58656 -1.550935,0.90471 -0.349991,0.23333 -1.0165,1.1632 -1.421691,1.1632"
       style="fill:none;stroke:#000000;stroke-width:0.264583px;stroke-linecap:butt;stroke-linejoin:miter;stroke-opacity:1" />
    <path
       id="path961"
       d="M 10.985789,109.08242 C 10.037995,107.35916 8.6739237,105.80616 8.1424083,103.91264 6.5649924,98.293096 6.2806579,94.107099 7.8839191,88.791022 c 0.2059311,-0.682823 1.6606155,-2.938388 2.1971579,-3.877336 0.363365,-0.635889 0.565094,-1.376035 1.033957,-1.938668 1.480273,-1.776331 3.996422,-2.980225 6.203739,-3.489606 0.419782,-0.09687 0.861631,0 1.292446,0 2.990292,0 5.830905,0.827241 8.400897,2.326405 0.804921,0.469537 1.763552,0.986861 2.584892,1.421688 0.54515,0.28861 1.15978,0.444307 1.680179,0.775467 0.819925,0.521772 1.450287,1.21193 2.197158,1.809425 1.401045,1.120836 2.759898,2.052897 3.877336,3.489605 0.367964,0.473094 0.55173,1.080291 0.904714,1.550935 0.573717,0.764955 1.406207,1.357966 1.938668,2.067912 0.146222,0.194966 0.40799,0.299 0.516977,0.51698 0.0578,0.115599 -0.0578,0.272132 0,0.387733 0.130019,0.260033 2.127856,-1.64397 2.326402,-1.809424 2.153891,-1.79491 3.739745,-2.4218 6.332985,-3.489606 1.580192,-0.650666 3.153433,-1.415184 4.78205,-1.938668 4.890198,-1.57185 12.962374,-2.141437 17.83575,-0.516977 1.80989,0.603295 3.859001,1.110617 5.04054,2.714135 2.432849,3.301725 1.65835,5.688492 1.033957,9.434854 -0.270592,1.623552 0.04702,-6.1e-5 -0.775467,2.584894 -0.107717,0.33853 -0.111482,0.71054 -0.25849,1.03396 -0.406916,0.89521 -0.981922,1.70535 -1.421691,2.58489 -0.222242,0.44448 -1.187471,2.55667 -1.809425,3.4896 -0.854601,1.2819 -1.869511,2.291 -2.843379,3.4896 -0.495681,0.61007 -0.930524,1.3131 -1.550934,1.80943 -0.894379,0.7155 -1.828938,1.33024 -2.714139,2.06791 -0.768302,0.64025 -1.44994,1.40372 -2.197155,2.06791 -0.502528,0.44669 -1.140669,0.75857 -1.680181,1.1632 -1.452166,1.08913 -2.645415,2.55053 -4.26507,3.36036 -0.155093,0.0776 -0.23264,0.31019 -0.387734,0.38774 -0.12392,0.062 -0.373697,0 -0.51698,0"
       style="fill:none;stroke:#000000;stroke-width:0.264583px;stroke-linecap:butt;stroke-linejoin:miter;stroke-opacity:1" />
    <path
       id="path963"
       d="m 54.54121,122.78235 c 6.44833,5.75121 3.495403,1.91832 6.074495,7.23769 1.685163,3.47565 0.03311,-0.31084 1.292447,2.06791 0.471638,0.89088 1.054709,2.22074 1.292445,3.23112 0.373435,1.5871 0.348575,3.41901 0.25849,5.04054 -0.124929,2.2487 -1.155356,4.4546 -2.067915,6.46223 -0.447085,0.98358 -0.842457,2.36226 -1.421691,3.23111 -4.844137,7.26621 -0.231044,0.2565 -2.197155,2.71414 -0.538258,0.67282 -0.941671,1.45864 -1.550935,2.06791 -1.791009,1.79101 -4.058449,2.86643 -6.332984,3.87734 -3.689874,1.63994 -5.531096,2.46621 -9.434854,0.90471 -2.019869,-0.80795 -4.571696,-3.4769 -5.686764,-5.42827 -0.436628,-0.76411 -0.599397,-1.3715 -1.033954,-2.19716 -0.189294,-0.35966 -0.453536,-0.67611 -0.646224,-1.03396 -0.349022,-0.64818 -0.49771,-1.38614 -0.775467,-2.06791 -0.328224,-0.80564 -1.138092,-2.23852 -1.421691,-3.23112 -0.451617,-1.58066 -0.778698,-2.7836 -1.680178,-4.13582 -0.140026,-0.21004 0.114014,-0.67668 0,-0.90471 -0.0304,-0.0608 -0.794465,-0.0145 -1.033958,0.12924 -0.360063,0.21604 -0.59519,0.24185 -0.904711,0.51698 -1.053388,0.93635 -1.799363,2.15134 -2.972626,2.97263 -0.473516,0.33146 -1.051671,0.48423 -1.550935,0.77546 -1.709472,0.99719 -3.482204,2.08268 -5.428272,2.5849 -0.85082,0.21956 -1.723261,0.34465 -2.584891,0.51697 -0.949955,0.18999 -1.769279,0.41997 -2.714136,0.12925 C 9.9314713,147.60098 8.1234382,146.15664 6.5914732,144.62468 5.9067146,143.93992 5.3962834,143.1646 4.7820492,142.42752 4.5870283,142.1935 4.3228527,142.02176 4.1358264,141.7813 3.584412,141.07234 2.9940813,139.20152 2.714136,138.2917 1.4750002,134.2645 1.4298934,130.1883 1.809424,126.01346 c 0.1020837,-1.12292 0.3012545,-2.23613 0.3877338,-3.36036 0.019825,-0.25773 -0.047637,-0.5214 0,-0.77547 0.1572832,-0.83884 0.4325315,-1.29862 0.6462229,-2.06791 0.6202868,-2.23303 0.063383,-0.89282 1.0339565,-2.97262 0.8231825,-1.76397 2.3098027,-5.313 3.7480927,-6.59148 0.7772083,-0.69085 1.5288242,-1.40326 2.3264024,-2.06791 0.3231117,-0.26926 0,-0.21541 0.6462227,-0.64622 0.07169,-0.0478 0.181423,0.0385 0.258489,0 0.03853,-0.0193 -0.03046,-0.0988 0,-0.12925 0.28739,-0.28739 1.087672,-1.04909 1.033957,-0.64622 -0.109966,0.82474 -0.603141,1.55093 -0.904712,2.3264"
       style="fill:none;stroke:#000000;stroke-width:0.264583px;stroke-linecap:butt;stroke-linejoin:miter;stroke-opacity:1" />
    <path
       id="path965"
       d="m 138.2917,107.78998 c 3.36306,7.71786 5.30522,15.98827 8.78863,23.65175"
       style="fill:none;stroke:#000000;stroke-width:0.264583px;stroke-linecap:butt;stroke-linejoin:miter;stroke-opacity:1" />
    <path
       id="path967"
       d="m 138.2917,107.78998 c 12.62075,-7.4993 5.28469,-2.9317 17.44801,-10.985795 0.33887,-0.224388 0.74657,-0.933611 1.03396,-0.646221 0.88553,0.885531 1.14176,2.229678 1.68018,3.360359 1.27276,2.672807 2.2339,5.505867 2.84338,8.400897 0.26392,1.25362 0.47644,2.53467 0.90471,3.74809 0.66247,1.877 0.32275,0.76672 1.29245,2.58489 0.33559,0.62923 0.57104,1.30842 0.90471,1.93867 0.45625,0.86182 1.07192,1.61737 1.55093,2.45565 0.57394,1.00438 -0.5479,-0.37315 0.51698,0.90471 0.38067,0.4568 0.66639,0.96223 1.03396,1.42169 0.15224,0.1903 0.40799,0.299 0.51698,0.51698 0.0195,0.0389 0.0351,0.57595 0,0.64622 -0.32892,0.65785 -4.45014,1.74081 -5.16979,2.06792 -0.22869,0.10394 -0.41393,0.29208 -0.64622,0.38773 -0.27807,0.1145 -1.68057,0.51717 -2.19716,0.77547 -0.56893,0.28447 -1.08958,0.66847 -1.68018,0.90471 -1.26428,0.50571 -2.62027,0.78962 -3.87733,1.29244 -0.14423,0.0577 -0.24038,0.20937 -0.38774,0.25849 -0.37681,0.12561 -0.7913,0.11903 -1.1632,0.25849 -0.32522,0.12196 -0.59405,0.36165 -0.90471,0.51698 -0.87614,0.43807 -1.8757,0.78938 -2.71414,1.29245 -0.18795,0.11277 -0.31729,0.41713 -0.51697,0.51698 -0.39144,0.19571 -0.31367,-0.2309 -0.77547,0 -0.19716,0.0986 -0.32422,0.29135 -0.51698,0.38773 -0.0808,0.0404 -0.35542,-0.0808 -0.38773,0 -0.08,0.2 0,0.43081 0,0.64622"
       style="fill:none;stroke:#000000;stroke-width:0.264583px;stroke-linecap:butt;stroke-linejoin:miter;stroke-opacity:1" />
    <path
       id="path969"
       d="m 138.2917,107.78998 c 4.19642,-29.724758 -0.10761,0.32965 2.3264,-15.897089 0.0546,-0.364079 -0.0169,-0.258487 0.25849,-0.258487"
       style="fill:none;stroke:#000000;stroke-width:0.264583px;stroke-linecap:butt;stroke-linejoin:miter;stroke-opacity:1" />
    <path
       id="path971"
       d="m 140.87659,91.634404 c 13.14216,-7.127954 2.05164,-1.494996 14.73388,-6.979208 0.84901,-0.367141 1.65665,-0.826365 2.45564,-1.292445 0.78545,-0.458173 0.40417,-0.51698 1.03396,-0.51698"
       style="fill:none;stroke:#000000;stroke-width:0.264583px;stroke-linecap:butt;stroke-linejoin:miter;stroke-opacity:1" />
    <path
       id="path973"
       d="m 156.90291,96.545698 c -0.82525,-4.170651 2.88847,-9.552165 2.19716,-13.699929 2.58185,3.386852 4.93267,6.830645 6.33299,10.856549 0.48667,1.399179 0.60946,2.850098 1.03395,4.265071 0.22318,0.743908 0.52987,1.46035 0.77547,2.197161 0.0562,0.16851 0.0498,0.3581 0.12925,0.51697 0.0545,0.10899 0.1939,0.15516 0.25849,0.25849 0.12924,0.25849 0.25848,0.51698 0.38773,0.77547 0,0.0862 -0.0273,0.17675 0,0.25849 0.16522,0.49566 0.54174,0.89928 0.64622,1.42169 0.0914,0.45704 -0.20907,1.26204 0,1.68018 0.26894,0.53789 -0.009,-0.13817 0.25849,0.12924 0.13852,0.13852 0.17252,0.38774 0.38773,0.38774 -0.1766,2.4068 -0.38161,4.88374 -0.90471,7.23769 -0.25124,1.13058 -0.71263,2.20789 -0.90471,3.36036 -0.0834,0.50066 0.0629,1.04781 0,1.55094 -0.14366,1.14927 -0.12924,2.31175 -0.12924,3.4896"
       style="fill:none;stroke:#000000;stroke-width:0.264583px;stroke-linecap:butt;stroke-linejoin:miter;stroke-opacity:1" />
    <path
       id="path975"
       d="m 140.87659,91.634404 c 0.94779,1.938668 2.03117,3.816736 2.84338,5.816005 0.31483,0.774983 0.2899,1.650566 0.51698,2.455648 0.2478,0.878603 0.57516,1.733563 0.90471,2.584893 0.82612,2.13415 2.07138,4.10084 2.97262,6.20374 0.40246,0.93907 0.71736,1.95169 1.1632,2.84338 0.1232,0.24639 0.39687,0.406 0.51698,0.64622 0.0901,0.18026 0.0391,0.46597 0.12925,0.64622 0.25233,0.50468 0.66085,0.6755 0.90471,1.1632 0.0679,0.1359 0,0.49099 0,0.64623 0,0.0884 0.25572,1.41892 0.25849,1.42169 0.0305,0.0305 0.12924,0.0431 0.12924,0 0,-0.0431 -0.16778,-0.0193 -0.12924,0 0.12185,0.0609 0.25849,0.0862 0.38773,0.12924"
       style="fill:none;stroke:#000000;stroke-width:0.264583px;stroke-linecap:butt;stroke-linejoin:miter;stroke-opacity:1" />
    <path
       id="path979"
       d="m 151.47464,116.19087 c 1.29244,-0.90471 2.60513,-1.78118 3.87734,-2.71413 0.79222,-0.58096 1.44771,-1.37008 2.3264,-1.80943 1.59493,-0.79746 3.32193,-1.27323 4.91129,-2.06791 0.90931,-0.45465 1.65858,-1.21162 2.45565,-1.80942 0.16426,-0.1232 0.59601,-0.20828 0.77547,-0.38774 0.20349,-0.20349 0.42577,-0.60062 0.77547,-0.77546 0.0802,-0.0401 0.45948,0 0.51697,0 1.07692,0 0.73783,-0.0611 2.19716,-1.03396"
       style="fill:none;stroke:#000000;stroke-width:0.264583px;stroke-linecap:butt;stroke-linejoin:miter;stroke-opacity:1" />
    <path
       id="path981"
       d="m 151.47464,116.19087 c -0.34465,1.50785 -0.65882,3.023 -1.03396,4.52356 -0.56268,2.25074 -1.2238,4.47584 -1.80942,6.72072 -0.18983,0.72767 -0.38773,1.2289 -0.38773,1.93867 0,0.19647 0.11715,1.05906 0,1.1632 -0.36713,0.32634 -0.77547,0.60314 -1.1632,0.90471"
       style="fill:none;stroke:#000000;stroke-width:0.264583px;stroke-linecap:butt;stroke-linejoin:miter;stroke-opacity:1" />
    <path
       id="path985"
       d="m 84.655196,280.84846 c -0.732385,-1.24936 -1.611844,-2.42343 -2.197158,-3.74809 -0.589891,-1.33501 -0.304663,-3.66956 0,-5.04055 0.70558,-3.17511 2.148107,-5.90846 4.78205,-7.88391 0.468778,-0.35158 0.877628,-0.81633 1.421691,-1.03396 2.444414,-0.97776 4.870585,-0.30062 7.237695,0.64623 0.572715,0.22908 1.178243,0.41694 1.680181,0.77547 1.423069,1.01647 2.974395,2.59905 4.006585,4.00658 0.13719,0.18709 0.15473,0.43871 0.25849,0.64622 0.28446,0.56893 0.64637,1.09892 0.90471,1.68018 0.40584,0.91313 0.35075,1.97403 0.38773,2.97262 0.0577,1.55901 -0.7331,2.34125 -2.06791,3.23112 -1.05087,0.70056 -2.888927,0.90929 -4.006585,0.38772 -1.181552,-0.55139 -2.633602,-1.28016 -3.489603,-2.3264 -2.087554,-2.55146 -3.076818,-7.99653 -1.033957,-10.85653 0.252034,-0.35285 1.390798,-1.30916 1.680181,-1.4217 1.637551,-0.63682 5.531252,0.72882 6.979204,1.16321 1.72303,0.5169 3.43989,0.93732 5.16979,1.42169 1.47048,0.41172 2.98163,1.05307 4.52356,1.16319 1.72558,0.12327 4.8005,0.16282 6.46222,-0.51697 1.54354,-0.63146 2.63356,-1.67765 3.87734,-2.71414 1.45578,-1.21315 2.53833,-1.99807 3.61885,-3.61885 0.93199,-1.39798 1.63508,-3.20414 1.42169,-4.91129 -0.25064,-2.00514 -1.96414,-4.01932 -3.74809,-4.91129 -0.48742,-0.24371 -1.03706,-0.33561 -1.55094,-0.51698 -0.88018,-0.31065 -0.72896,-0.43814 -1.93867,-0.38774 -4.31123,0.17964 -6.80416,4.09819 -4.78205,8.14241 1.24003,2.48007 3.13278,4.23493 5.55752,5.55752 1.68641,0.91986 4.36144,0.76824 6.20374,0.90471 3.32212,0.24609 6.77618,0.12247 9.95183,1.29244 1.65911,0.61126 1.89676,0.79853 2.97263,2.19717 0.13133,0.17074 0.32695,0.31031 0.38773,0.51697 1.27851,4.34695 -1.29156,8.56428 -5.42827,10.08108 -2.09313,0.76748 -2.67365,0.85061 -4.78205,1.03396 -1.56245,0.13587 -3.2353,0.12505 -4.39431,-1.03396 -1.98736,-1.98737 -0.31151,-5.86931 0.25848,-7.75467 0.59497,-1.96795 1.97736,-3.57111 3.36036,-5.04055 2.91674,-3.09903 5.73219,-3.90364 9.43486,-5.42826 3.23067,-1.33028 -2.51672,0.55565 3.4896,-1.29245 1.23872,-0.38115 2.49582,-0.70002 3.74809,-1.03396 0.34327,-0.0915 0.70932,-0.1142 1.03396,-0.25849 3.41836,-1.51927 4.12582,-2.0579 6.59147,-4.52356 0.36683,-0.36682 0.7462,-0.73155 1.03396,-1.1632 1.89453,-2.84179 2.76382,-5.24919 3.36036,-8.53014 0.34509,-1.89802 1.13756,-5.08327 0,-6.97921 -1.01221,-1.68701 -1.92815,-1.93557 -4.13583,-2.58489 -0.37427,-0.11008 -0.7765,0.0777 -1.1632,0.12925 -3.55495,0.47399 -5.17779,0.90618 -7.75467,3.36035 -0.28763,0.27393 -0.5814,0.55816 -0.77547,0.90472 -0.41463,0.74041 -0.79288,1.51276 -1.03396,2.3264 -0.11015,0.37176 -0.0428,0.77784 0,1.1632 0.12986,1.16871 0.29178,2.33547 0.51698,3.4896 0.50166,2.57102 1.91217,4.84142 3.36036,6.97921 0.55626,0.82114 1.00111,1.73277 1.68018,2.45565 0.62632,0.66672 2.48989,1.94222 3.4896,2.58489 2.00287,1.28756 4.2174,2.71414 6.72072,2.71414 5.81793,0 8.94142,-2.68625 12.40748,-7.10845 2.08537,-2.66065 3.41336,-4.80437 4.78205,-7.88392 0.6432,-1.44719 1.77995,-4.04291 2.19716,-5.81601 0.71792,-3.05119 1.11872,-6.43717 1.29244,-9.5641 0.10003,-1.80046 -0.0965,-2.35748 -0.77547,-4.39431 -0.0681,-0.20436 -0.25316,-0.34878 -0.38773,-0.51698 -1.03708,-1.29636 -3.02211,-2.41992 -4.52356,-1.03396 -2.90674,2.68315 -2.02066,7.47598 -0.77547,10.7273 0.66861,1.74582 2.55514,5.54088 3.61885,7.10845 0.3394,0.50017 2.44401,2.21754 2.58489,2.32641 2.65758,2.05358 5.94601,2.53289 9.04712,1.29244 0.35778,-0.14311 0.74036,-0.26742 1.03396,-0.51698 0.58074,-0.49363 1.04271,-1.11216 1.55093,-1.68018 0.97818,-1.09326 1.84793,-3.07164 1.93867,-4.52356 0.24478,-3.91644 -0.33072,-6.52779 -4.6528,-4.00658 -0.97112,0.56648 -3.61724,3.87547 -3.61885,3.87734 -2.51993,2.92637 -4.67489,6.84885 -6.33298,10.33956 -2.70242,5.6893 -3.1567,12.28262 -1.68018,18.35274 0.2839,1.16718 1.67922,3.34351 2.06791,4.00658 0.20554,0.35063 0.37009,0.73573 0.64622,1.03394 1.81504,1.96025 4.04896,4.28567 6.97921,4.00659 0.33519,-0.0319 0.95296,-0.46011 1.1632,-0.77547 1.07903,-1.61853 0.91898,-1.35877 1.1632,-3.23112 0.39947,-3.06255 -0.46858,-4.96676 -2.45564,-7.23768 -0.4119,-0.47074 -0.85575,-0.88023 -1.42169,-1.16321 -1.99359,-0.99679 -4.24279,-1.42169 -6.46223,-1.42169 -3.173,0 -6.54849,0.39004 -9.5641,1.42169 -0.87805,0.30039 -1.72115,0.69463 -2.58489,1.03396 -0.3426,0.13459 -0.71601,0.20226 -1.03396,0.38774 -0.72254,0.42147 -1.38016,0.94555 -2.06791,1.42167 -3.47522,2.40594 -6.48012,5.42391 -9.17637,8.65939 -0.60739,0.72888 -1.25296,1.42873 -1.80942,2.19718 -0.35103,0.48474 -0.54056,1.07596 -0.90472,1.55094 -1.74789,2.27986 -4.58223,5.06404 -7.75467,4.00655 -0.32951,-0.10982 -0.62128,-0.3162 -0.90471,-0.51696 -0.75236,-0.53293 -1.54522,-1.02823 -2.19716,-1.68019 -1.95231,-1.95231 -3.70619,-4.67233 -3.87734,-7.49617 -0.0444,-0.73232 -0.11863,-1.50665 0.12925,-2.19716 0.37195,-1.03616 1.04662,-1.94307 1.68018,-2.84339 0.58673,-0.83376 3.03686,-1.68003 3.36036,-1.80941 2.8977,-1.15909 6.25248,-1.44358 9.30561,-1.93868 9.63648,-1.56267 14.51265,-6.50345 16.15557,-16.15557 0.50391,-2.96045 0.92158,-8.57422 -1.55094,-10.85655 -2.97001,-2.74155 -6.36852,-3.36035 -10.33956,-3.36035 -0.57478,0 -1.11852,0.26563 -1.68018,0.38773 -2.15757,0.46904 -1.72944,0.13295 -4.52356,1.80942 -0.49701,0.29821 -0.88261,0.75337 -1.29245,1.1632 -2.80603,2.80604 -4.60763,4.83073 -4.00658,8.91788 0.0913,0.6206 0.22348,1.25505 0.51698,1.80943 2.0254,3.82575 4.7001,5.25683 8.91788,5.04053 3.92082,-0.20106 7.66405,-1.86331 10.33956,-4.78204 0.57784,-0.63038 1.16709,-1.25456 1.68018,-1.93868 0.94551,-1.26068 2.0197,-4.05033 2.58489,-5.55751 0.31064,-0.82837 0.33657,-1.71506 0.38773,-2.58489 0.0127,-0.21504 0,-0.43082 0,-0.64623 0,-0.17232 0.0771,-0.67111 0,-0.51697 -0.33089,0.66179 -0.22599,1.37475 -0.38773,2.06791 -0.65422,2.80383 -0.97649,3.94193 -2.84338,6.46223 -2.98021,4.02329 -7.17744,6.40023 -11.37352,8.91787 -0.64622,0.38774 -1.24946,0.85836 -1.93867,1.1632 -1.55865,0.68941 -3.18985,1.2015 -4.78205,1.80943 -5.0974,1.94628 -10.94591,3.38612 -16.41406,1.93867 -3.00189,-0.79462 -3.96003,-1.11256 -5.68676,-3.7481 -2.38027,-3.63303 -0.89397,-10.3503 2.06791,-13.31219 1.23538,-1.23538 3.25255,-2.2931 5.04054,-2.45564 0.55776,-0.0507 1.12012,0 1.68018,0 0.21541,0 0.44187,-0.0681 0.64622,0 2.17933,0.72644 3.82552,2.32972 4.52356,4.52356 0.72798,2.28793 -0.73881,6.04363 -2.06791,7.88392 -0.63306,0.87653 -2.32787,1.58184 -3.36036,1.68018 -0.80857,0.077 -2.512,-0.33294 -3.23111,-0.77547 -0.96361,-0.59299 -1.84389,-3.33163 -2.06792,-4.26507 -0.54415,-2.26729 -0.24904,-5.09725 0.12925,-7.36694 0.46068,-2.76413 3.13636,-9.04421 1.29244,-11.50277 -0.16551,-0.22068 -0.27409,-0.51544 -0.51698,-0.64622 -1.28162,-0.69011 -2.82209,-0.0522 -4.00658,0.38773 -0.86993,0.32312 -1.74395,0.64152 -2.58489,1.03396 -0.95418,0.44528 -1.7911,1.1359 -2.58489,1.80942 -3.42068,2.9024 -6.01975,5.67907 -8.4009,9.5641 -2.65601,4.33349 -5.66785,8.68796 -5.94525,13.95841 -0.13412,2.54828 -0.13473,5.98468 2.32641,7.62543 3.54139,2.36094 7.66929,-0.43277 9.04712,-3.87733 0.72694,-1.81736 0.60148,-3.70833 -0.25849,-5.42828 -0.28447,-0.56893 -0.56505,-1.14237 -0.90472,-1.68017 -1.64574,-2.60576 -5.629,-3.49501 -8.40089,-3.87734 -0.8631,-0.11905 -1.71497,-0.33941 -2.5849,-0.38774 -1.38888,-0.0772 -4.235545,0.35484 -5.557511,0.77547 -0.296043,0.0942 -0.525365,0.33269 -0.77547,0.51698 -0.568844,0.41915 -1.137362,0.8401 -1.680178,1.29244 -1.647111,1.3726 -3.195291,4.68477 -2.714136,6.84997 0.294823,1.3267 0.694256,1.9501 1.421691,3.10187 0.516691,0.81809 0.90379,1.32177 1.809422,1.80942 0.151728,0.0817 0.344654,0 0.51698,0 0.258487,0 0.524695,0.0627 0.775467,0 0.768009,-0.192 1.399463,-2.74397 1.163201,-3.74809 -0.115496,-0.49085 -0.329703,-0.9535 -0.516977,-1.42169 -0.05153,-0.12883 -0.449432,-1.10033 -0.77547,-0.90471 -0.184709,0.11082 -0.406152,0.20302 -0.516978,0.38773 -0.54008,0.90014 -1.17558,4.88626 -1.42169,5.81601 -0.486379,1.83743 -1.269231,3.21982 -2.326402,4.91128 -2.499532,3.99925 -4.291394,5.67158 -7.625429,8.91788 -2.921199,2.84433 -7.267676,7.86892 -11.890502,5.55752 -0.367062,-0.18354 -1.980139,-1.37538 -2.326402,-2.0679 -2.058474,-4.11697 -1.484117,-8.68058 1.421691,-12.27825 0.346662,-0.42918 0.849365,-0.70522 1.292444,-1.03394 3.130553,-2.32268 5.42177,-3.59737 9.434854,-3.87735 0.650362,-0.0454 1.303422,0.1119 1.938671,0.25849 4.87725,1.12552 8.438017,3.2282 9.305607,8.53013 0.553175,3.38053 -0.0095,4.94673 -0.904711,8.27167 -0.212505,0.78931 -0.402828,1.59885 -0.775467,2.3264 -1.9123,3.73354 -5.374108,6.70055 -9.693344,6.97921 -1.268682,0.0818 -2.721414,-0.11457 -3.489602,-1.29246 -1.887226,-2.89373 -1.180571,-6.169 0.258487,-9.04711 0.965554,-1.93112 1.574056,-2.54871 2.972625,-3.87734 5.558571,-5.28063 12.511217,-6.99127 20.032909,-5.81602 1.09622,0.17129 2.82456,0.51586 3.7481,0.90472 3.92279,1.65171 6.45579,4.85605 8.40089,8.53014 0.94537,1.7857 1.59154,5.40155 0.77547,7.2377 -0.50135,1.12803 -1.0739,2.23975 -1.80943,3.23112 -0.27766,0.37425 -0.75345,0.55351 -1.1632,0.77547 -2.56939,1.39176 -4.42388,1.86923 -7.10845,0.25849 -0.28852,-0.17311 -0.56697,-0.38213 -0.77547,-0.64624 -0.44429,-0.56277 -0.85384,-1.16255 -1.1632,-1.80941 -0.8588,-1.79567 -0.1845,-5.51235 0.64623,-7.2377 0.44341,-0.92093 2.9968,-3.67432 3.61884,-4.13583 1.32885,-0.98592 4.32218,-2.2565 5.81601,-2.84337 3.06605,-1.20452 7.19476,-1.76605 8.91788,1.68018 0.11719,0.23439 0.0884,0.51662 0.12924,0.77547 0.0884,0.5597 0.23276,1.1141 0.25849,1.68018 0.0852,1.87365 -0.74233,5.15985 -1.55094,6.9792 -0.1887,0.42458 -1.33387,1.88503 -1.93866,1.80941 -0.89865,-0.11231 -0.99791,-1.69733 -0.90472,-2.3264 0.67149,-4.53252 3.19776,-8.37139 6.59148,-11.37351 1.76532,-1.56163 4.00365,-2.49338 6.07449,-3.61884 1.75667,-0.95472 3.30057,-0.77547 5.29903,-0.77547 7.01006,0 14.98133,5.392 17.70651,11.89048 0.3744,0.89281 0.75029,1.78851 1.03395,2.71415 0.84943,2.7718 1.25531,7.12444 3.74809,9.30561 1.88021,1.64518 3.79968,0.93281 5.94526,0.2585 2.6439,-0.83095 5.06515,-2.68685 6.84996,-4.78206 5.04314,-5.92021 7.25678,-9.30851 8.91787,-17.06028 0.10833,-0.50551 0,-1.03396 0,-1.55093 0,-1.68317 -0.008,-3.47443 -1.03395,-4.9113 -1.09988,-1.53983 -4.62298,-1.76897 -6.20374,-1.55094 -0.42033,0.058 -0.79169,0.31201 -1.1632,0.51698 -0.87981,0.48541 -1.82347,0.89526 -2.58489,1.55094 -2.06172,1.77537 -2.9634,3.9512 -3.7481,6.46222 -0.13104,0.41934 -0.28118,0.85368 -0.25849,1.29244 0.1074,2.07634 0.29297,4.15488 0.64623,6.20374 0.14754,0.85577 2.20413,3.46837 2.3264,3.61886 0.51902,0.63879 1.01354,1.32668 1.68018,1.80941 1.55559,1.12649 3.95611,1.38866 5.816,1.16321 3.12499,-0.37877 6.11339,-1.14027 8.4009,-3.48961 2.9368,-3.01617 5.9991,-11.31419 6.20374,-15.50935 0.12806,-2.62512 0.13682,-5.20936 -1.29244,-7.49618 -0.14621,-0.23392 -0.2816,-0.50237 -0.51698,-0.64622 -2.97559,-1.81841 -6.78509,-1.10052 -9.43486,0.90471 -5.13433,3.88545 -8.66837,8.82853 -6.33298,15.25086 0.34319,0.9438 1.59664,2.35688 2.3264,2.84337 0.41075,0.27385 1.9339,0.7397 2.58489,0.517 1.33275,-0.45596 2.64312,-1.00137 3.87734,-1.68018 0.50786,-0.27932 0.94627,-0.69835 1.29245,-1.16322 1.88342,-2.52915 3.21003,-4.07807 3.87733,-6.84995 1.8289,-7.59695 2.70475,-16.20924 0.25849,-23.781 -1.24212,-3.84466 -3.4258,-6.75201 -5.94525,-9.82259 -2.70904,-3.30164 -4.21059,-5.23567 -7.88392,-7.49619 -0.60682,-0.37343 -3.63553,-1.9015 -4.91129,-2.06791 -1.41234,-0.18422 -2.84077,-0.25849 -4.26507,-0.25849 -4.21546,0 -10.52907,2.49959 -13.69993,5.16979 -0.82742,0.69678 -3.6272,3.10432 -4.52356,4.52356 -1.77328,2.80769 -2.80978,5.45042 -2.97262,8.78863 -0.0297,0.60854 0.14449,1.21092 0.25849,1.80942 0.23083,1.21188 0.32141,2.47178 0.77546,3.61885 0.82628,2.08742 3.11134,4.21905 4.9113,5.29903 1.8131,1.08785 5.27356,1.0793 7.2377,0.90471 0.62767,-0.0558 4.45901,-0.75484 5.29902,-1.29245 3.1407,-2.01004 6.25599,-7.80555 3.87734,-11.37352 -0.16059,-0.24089 -1.02474,-0.9996 -1.29245,-1.1632 -2.53106,-1.54676 -4.68787,-1.50227 -7.62543,-1.29245 -4.04795,0.28914 -1.33597,0.13469 -4.39431,0.51698 -0.47218,0.059 -0.95659,0.0287 -1.42169,0.12925 -3.01591,0.65208 -3.61717,1.01117 -6.46223,2.06791 -0.4727,0.17557 -0.96543,0.30227 -1.42169,0.51698 -2.65074,1.2474 -4.69085,2.78258 -7.10845,4.39431 -0.41804,0.27869 -0.89218,0.47182 -1.29245,0.77547 -2.52099,1.91248 -4.58283,3.86081 -6.59147,6.33298 -1.10519,1.36023 -1.98496,3.93918 -2.58489,5.29903 -1.23714,2.80417 -3.18461,6.82448 -5.68676,8.65939 -2.73202,2.00348 -5.32825,2.67772 -8.65939,2.45565 -1.57251,-0.10485 -2.63353,-0.73287 -3.23112,-2.3264 -0.0908,-0.24204 0,-0.51699 0,-0.77547 0,-0.68931 -0.11711,-1.38863 0,-2.06793 0.47188,-2.73686 3.39107,-4.95318 5.42828,-6.46222 5.1864,-3.84178 10.48074,-3.77469 16.28481,-1.42169 2.56986,1.04184 5.54294,3.42206 7.62543,4.78205 4.56367,2.98037 9.80157,6.57944 15.50935,5.94526 0.54161,-0.0602 1.03839,-0.33189 1.55094,-0.51699 3.57113,-1.28958 2.25094,-0.55581 4.52356,-2.19716 1.0759,-0.77704 2.25938,-1.42246 3.23111,-2.3264 2.67804,-2.49119 6.40412,-8.43064 5.94525,-12.40748 -0.008,-0.0731 -0.31762,-2.81529 -0.77547,-3.36035 -0.68606,-0.81674 -1.52917,-1.48852 -2.3264,-2.19716 -0.36713,-0.32634 -0.72385,-0.68504 -1.1632,-0.90471 -2.08246,-1.04123 -5.75468,-2.50651 -8.14241,-2.71414 -1.58178,-0.13755 -2.77988,0.16382 -4.39431,0.51698 -4.00515,0.87612 -6.12993,4.22829 -7.2377,7.88392 -0.86155,2.84313 -0.53004,6.64492 -0.25849,9.5641 0.16162,1.73733 0.62338,4.17461 0.12925,5.94524 -1.2003,4.3011 -2.37261,7.43763 -5.04054,11.11504 -0.53667,0.73973 -1.29245,1.29244 -1.93867,1.93866 -0.99088,0.99089 -1.98175,1.98175 -2.97263,2.97264"
       style="mix-blend-mode:normal;fill:none;stroke:url(#linearGradient1051);stroke-width:0.264583px;stroke-linecap:butt;stroke-linejoin:miter;stroke-opacity:1" />
    <path
       id="path987"
       d="m 96.674941,40.712042 c -7.869399,2.306836 -1.48984,4.938553 -0.129244,4.394315 0.590595,-0.236238 0.693008,-1.080352 0.904711,-1.680179 0.24983,-0.707848 -0.963946,-1.203596 -1.680178,-0.129245"
       style="fill:none;stroke:#000000;stroke-width:0.264583px;stroke-linecap:butt;stroke-linejoin:miter;stroke-opacity:1" />
    <path
       id="path991"
       d="m 110.7626,40.582797 c -1.58908,0.209089 -7.52176,-0.586831 -5.55752,3.877337 0.27761,0.63093 1.43053,0.262452 2.06791,0 1.20633,-0.496722 -0.108,-1.012716 -0.25849,-1.163201 -0.31633,-0.316336 0.9252,0.08574 -0.25849,-0.387734 -0.2117,-0.08468 -0.67054,0 -0.90471,0"
       style="fill:none;stroke:#000000;stroke-width:0.264583px;stroke-linecap:butt;stroke-linejoin:miter;stroke-opacity:1" />
    <path
       id="path993"
       d="m 123.68706,26.88287 c 0.25849,-0.990874 0.63348,-1.958478 0.77547,-2.972624 0.16138,-1.152756 0.15762,-2.325951 0.12924,-3.489603 -0.0365,-1.498706 -0.80862,-5.073691 -1.80942,-6.074495 -0.0305,-0.03046 0.0193,0.09071 0,0.129244 -0.0695,0.138934 -0.20937,0.240372 -0.25849,0.387734 -0.21082,0.632435 0.13521,1.937702 0.25849,2.584892 0.33485,1.757959 1.04723,3.302229 1.80942,4.911293 0.32823,0.692918 0.77749,2.198168 1.55093,2.584892 0.25259,0.126293 0.84287,-2.164487 1.03396,-2.584892 0.59795,-1.315485 1.73354,-2.354469 2.58489,-3.489603 0.10967,-0.146224 0.22425,-0.305992 0.38774,-0.387734 0.0385,-0.01927 0.12924,0.04308 0.12924,0 0,-0.06943 -0.51626,0.386306 -1.03395,1.42169 -0.59366,1.18731 -0.10367,2.85999 0.38773,4.006582 0.26604,0.620766 1.0164,1.407872 1.55093,0.516979 0.41852,-0.697533 0.12925,-1.77383 0.12925,-2.584892 0,-0.301571 -0.21324,-0.691469 0,-0.904712 0.14628,-0.146284 0.59534,0.595337 0.90471,0.904712 0.4944,0.494398 1.61613,1.629854 2.3264,1.550935 0.32668,-0.0363 0.57348,-1.542495 0.64623,-2.197158 0.15062,-1.355574 -0.1486,-2.691301 -0.38774,-4.006582 -0.21876,-1.203183 -0.30791,-2.103404 -0.64622,-3.231114 -0.0776,-0.258696 -0.20356,-1.163201 -0.64622,-1.163201 -0.14997,0 -0.0503,1.49065 0,1.809424 0.30262,1.916602 0.93835,3.647899 1.68018,5.428272 0.0946,0.227145 0.70522,1.377436 1.1632,1.033957 0.87578,-0.656836 1.18933,-2.174713 1.68018,-3.10187 0.28003,-0.528954 0.57272,-1.052946 0.90471,-1.550935 0.57116,-0.856748 0.97999,-1.163201 1.93867,-1.163201 0.12924,0 -0.26235,-0.03135 -0.38774,0 -0.27391,0.06848 -0.78341,0.383418 -0.90471,0.646223 -0.21131,0.457844 -0.40148,0.930838 -0.51698,1.42169 -0.14554,0.618561 0.0851,3.331978 0.77547,3.10187 0.68132,-0.227108 1.33512,-1.979501 1.42169,-2.455647 0.0925,-0.50864 0,-1.033957 0,-1.550935 0,-0.56006 0,-1.12012 0,-1.680179 0,-0.129245 -0.12925,-0.387734 0,-0.387734 0.19858,0 1.82822,4.098493 2.3264,3.489603 0.0713,-0.0871 1.09178,-1.532209 1.1632,-2.067913 0.203,-1.522497 -0.12188,-3.150193 -0.25849,-4.652804 -0.0195,-0.214524 0.0354,-0.433747 0,-0.646224 -0.10022,-0.6013679 -0.36582,-1.3340396 -0.51697,-1.938668 -0.1565,-0.6259669 -0.12925,-0.1525241 -0.12925,-0.6462229 0,-0.043081 -0.0193,-0.1677778 0,-0.1292447 0.24276,0.4855178 0.19006,1.246782 0.25849,1.6801796 0.21458,1.358976 0.83527,4.844604 2.19716,5.428272 0.51306,0.219885 1.47462,-2.044529 1.55093,-2.197158 0.27225,-0.544485 0.95351,-1.470486 1.29245,-1.809424 0.74421,-0.744216 2.22594,-1.8094237 3.36036,-1.8094237 0.0431,0 -0.0862,0 -0.12925,0 -0.25848,0 -0.52692,-0.071013 -0.77546,0 -1.55254,0.4435827 -2.91362,1.9021247 -3.23112,3.4896037 -0.0845,0.422449 0,0.86163 0,1.292446 0,0.189709 -0.0559,1.033956 0.25849,1.033956 2.2106,0 2.49702,-3.140685 3.10187,-4.652804 0.0337,-0.08412 0.15746,-0.5451895 0.25849,-0.6462236 0.26206,-0.2620547 0.62333,0.405039 0.90471,0.6462236 0.33882,0.290418 1.34376,0.751093 1.55094,0.775467 0.52663,0.06196 1.35828,-0.337335 1.68018,-0.775467 1.39384,-1.8971754 2.67105,-3.877338 4.00658,-5.8160064"
       style="fill:none;stroke:#000000;stroke-width:0.264583px;stroke-linecap:butt;stroke-linejoin:miter;stroke-opacity:1" />
    <path
       id="path995"
       d="m 179.00374,111.9258 c -2.1241,-5.03486 -2.92233,-10.45365 -4.52356,-15.638592 -0.21043,-0.681374 -0.61888,-1.285333 -0.90472,-1.938668 -0.0173,-0.03947 -0.0193,-0.167778 0,-0.129244 0.81245,1.624888 1.21379,4.729924 1.68018,6.462224 0.35525,1.3195 0.35085,0.75182 0.90472,1.93867 0.6544,1.40231 1.09064,2.81669 1.93866,4.13583 0.77134,1.19985 2.3588,2.73337 2.5849,2.3264 0.68818,-1.23873 -0.22558,-3.68927 -0.51698,-4.78205 -0.77131,-2.89241 -1.9692,-5.591296 -2.97263,-8.400896 -0.076,-0.212894 -0.96871,-3.134492 -0.51698,-3.360359 0.6953,-0.347649 0.4283,0.03522 1.03396,0.775467 0.15432,0.188619 0.3565,0.333571 0.51698,0.51698 0.98228,1.122614 1.61962,2.52621 2.45565,3.748093 0.19,0.277696 0.49574,0.474512 0.64622,0.775467 0.84572,1.691458 1.37519,3.625148 1.93867,5.428268 0.23016,0.73652 0.30699,1.4622 0.51698,2.19716 0.15014,0.5255 0.12924,0.37577 0.12924,0.77547 0,0.0862 0,0.34465 0,0.25849 0,-1.29608 -0.43475,-2.56174 -0.51698,-3.87734 -0.0269,-0.42997 0,-0.86163 0,-1.29244 0,-0.44386 0.0584,-2.044022 0.38774,-2.455653 0.40825,-0.510313 1.54646,0.227724 1.80942,0.51698 0.89686,0.986543 1.89564,4.361963 3.74809,2.972623 1.76264,-1.32198 1.51679,-3.61279 1.1632,-5.557515 -0.0678,-0.372761 -0.49106,-1.887003 -1.1632,-1.550935 -0.96357,0.481788 0.53846,5.80885 2.06791,5.29903 1.59696,-0.53232 1.56049,-5.687668 2.06792,-7.108454 0.24283,-0.679942 0.70064,-1.494822 1.29244,-1.938668 0.23046,-0.172839 0.48082,-0.268867 0.64623,-0.51698 0.18782,-0.281729 -0.69607,-0.204984 -1.03396,1.033957 -0.56124,2.057871 -0.3472,2.699726 0.38773,4.78205 0.0971,0.275196 0.6012,1.250336 1.03396,1.033957 1.91263,-0.956318 0.90471,-3.764893 0.90471,-5.428273 0,-0.143283 -0.062,-0.393057 0,-0.516978 0.28625,-0.572494 1.16452,-0.463087 1.55094,-0.904713 1.30266,-1.488755 1.63594,-3.390715 1.80942,-5.299028"
       style="fill:none;stroke:#000000;stroke-width:0.264583px;stroke-linecap:butt;stroke-linejoin:miter;stroke-opacity:1" />
    <path
       id="path997"
       d="m 171.11982,99.259833 c 3.06626,-5.416613 7.5026,-16.289631 12.66597,-20.162154"
       style="fill:none;stroke:#000000;stroke-width:0.264583px;stroke-linecap:butt;stroke-linejoin:miter;stroke-opacity:1" />
  </g>
</svg>
