<?xml version="1.0" encoding="UTF-8" standalone="no"?>
<svg
   xmlns:dc="http://purl.org/dc/elements/1.1/"
   xmlns:cc="http://creativecommons.org/ns#"
   xmlns:rdf="http://www.w3.org/1999/02/22-rdf-syntax-ns#"
   xmlns:svg="http://www.w3.org/2000/svg"
   xmlns="http://www.w3.org/2000/svg"
   xmlns:sodipodi="http://sodipodi.sourceforge.net/DTD/sodipodi-0.dtd"
   xmlns:inkscape="http://www.inkscape.org/namespaces/inkscape"
   inkscape:version="1.0.1 (3bc2e813f5, 2020-09-07)"
   sodipodi:docname="dreidel luminary.svg"
   xml:space="preserve"
   style="enable-background:new 0 0 1127.9 963.1;"
   viewBox="0 0 1127.9 963.1"
   y="0px"
   x="0px"
   id="Layer_1"
   version="1.1"><metadata
   id="metadata38"><rdf:RDF><cc:Work
       rdf:about=""><dc:format>image/svg+xml</dc:format><dc:type
         rdf:resource="http://purl.org/dc/dcmitype/StillImage" /><dc:title /></cc:Work></rdf:RDF></metadata><defs
   id="defs36">
	
	
	
	
	
</defs><sodipodi:namedview
   inkscape:current-layer="layer1"
   inkscape:window-maximized="1"
   inkscape:window-y="-8"
   inkscape:window-x="-8"
   inkscape:cy="567.30529"
   inkscape:cx="663.31481"
   inkscape:zoom="0.78908375"
   inkscape:snap-global="false"
   showgrid="false"
   id="namedview34"
   inkscape:window-height="897"
   inkscape:window-width="1440"
   inkscape:pageshadow="2"
   inkscape:pageopacity="0"
   guidetolerance="10"
   gridtolerance="10"
   objecttolerance="10"
   borderopacity="1"
   bordercolor="#666666"
   pagecolor="#ffffff"
   inkscape:document-rotation="0" />
<style
   id="style2"
   type="text/css">
	.st0{fill:#94AA00;stroke:#000000;stroke-miterlimit:10;}
	.st1{fill:none;stroke:#00BFFF;stroke-miterlimit:10;}
	.st2{fill:#DCDCDC;stroke:#000000;stroke-miterlimit:10;}
	.st3{fill:#75F400;stroke:#00BFFF;stroke-miterlimit:10;}
	.st4{fill:#7DE900;stroke:#00BFFF;stroke-miterlimit:10;}
	.st5{fill:#5B8B00;stroke:#000000;stroke-miterlimit:10;}
</style>




<g
   id="g920" /><g
   inkscape:groupmode="layer"
   id="layer2"
   inkscape:label="Layer 2"
   style="display:inline"><polygon
     transform="translate(-35.844449,60.935563)"
     id="vellum_4_"
     class="st2"
     points="510,793.4 404.6,344.2 602.5,338.8 " /><polygon
     transform="translate(-24.438815,64.103795)"
     id="vellum_6_"
     class="st2"
     points="809.5,439.8 525.3,806.4 629.6,357 " /><polygon
     transform="translate(-35.844449,60.935563)"
     id="vellum_5_"
     class="st2"
     points="843.8,471.1 963.8,628.6 540.8,819.1 " /></g><g
   inkscape:groupmode="layer"
   id="layer1"
   inkscape:label="Layer 1"
   style="display:inline"><g
     id="g1083"><path
       id="path981"
       style="enable-background:accumulate;color:#000000;font-style:normal;font-variant:normal;font-weight:normal;font-stretch:normal;font-size:medium;line-height:normal;font-family:sans-serif;font-variant-ligatures:normal;font-variant-position:normal;font-variant-caps:normal;font-variant-numeric:normal;font-variant-alternates:normal;font-variant-east-asian:normal;font-feature-settings:normal;font-variation-settings:normal;text-indent:0;text-align:start;text-decoration:none;text-decoration-line:none;text-decoration-style:solid;text-decoration-color:#000000;letter-spacing:normal;word-spacing:normal;text-transform:none;writing-mode:lr-tb;direction:ltr;text-orientation:mixed;dominant-baseline:auto;baseline-shift:baseline;text-anchor:start;white-space:normal;shape-padding:0;shape-margin:0;inline-size:0;clip-rule:nonzero;display:inline;overflow:visible;visibility:visible;isolation:auto;mix-blend-mode:normal;color-interpolation:sRGB;color-interpolation-filters:linearRGB;solid-color:#000000;solid-opacity:1;vector-effect:none;fill:#00bde4;fill-opacity:1;fill-rule:nonzero;stroke:none;stroke-width:4;stroke-linecap:butt;stroke-linejoin:miter;stroke-miterlimit:4;stroke-dasharray:none;stroke-dashoffset:0;stroke-opacity:1;color-rendering:auto;image-rendering:auto;shape-rendering:auto;text-rendering:auto;stop-color:#000000;stop-opacity:1;opacity:1"
       d="M 464.05469 182.23633 L 343.25586 391.33594 L 464.05469 899.93555 L 467.65625 901.43555 L 489.45508 901.63477 L 504.95508 902.13477 L 934.95508 717.73633 L 944.45508 694.13477 L 947.55469 672.93555 L 820.85547 502.93555 L 800.45508 499.93555 L 793.85547 479.53516 L 605.15625 384.73633 L 584.95508 391.33594 L 464.05469 182.23633 z M 463.45508 256.63477 C 495.05508 256.63477 520.55469 282.23633 520.55469 313.73633 C 520.55469 345.23633 495.05508 370.83594 463.45508 370.83594 C 431.85508 370.83594 406.35547 345.33633 406.35547 313.73633 C 406.35547 282.13633 431.85508 256.63477 463.45508 256.63477 z M 530.85547 415.93555 L 525.76758 445.41211 C 524.66678 440.18929 519.72181 421.95795 503.42188 416.49023 C 503.41078 416.48651 503.39977 416.48417 503.38867 416.48047 L 530.85547 415.93555 z M 490.80469 416.73047 C 490.35238 416.8902 489.9025 417.05574 489.46289 417.24219 C 485.24955 419.02915 481.57089 421.93923 478.49805 424.99023 C 476.49575 426.9783 474.85772 428.9625 473.4043 430.8418 C 473.27733 431.0171 473.03125 431.30859 473.03125 431.30859 L 473.04688 431.31641 C 472.53951 431.98475 471.9936 432.67582 471.56836 433.27734 L 471.01367 429.09766 L 470.82617 428.76367 C 470.82617 428.76367 469.83469 427.24165 468.44727 425.38672 L 468.51172 425.35156 C 468.51172 425.35156 468.24701 424.9292 467.94336 424.62891 C 467.87136 424.55771 467.71744 424.47865 467.63086 424.4043 C 466.93878 423.54157 466.41213 422.74946 465.51562 421.85938 C 463.86694 420.2224 461.8786 418.63926 459.5332 417.64453 C 459.29357 417.5429 459.04695 417.45293 458.79883 417.36523 L 490.80469 416.73047 z M 450.82227 417.52344 C 440.97363 421.43216 439.25586 433.72461 439.25586 433.72461 L 439.20898 434.02539 L 441.63281 450.42578 C 438.31482 448.68859 434.72511 447.18427 430.89453 446.64062 C 426.3219 445.99169 421.46257 446.65602 417.0957 449.58594 C 404.98718 457.70998 403.00035 472.54567 402.84375 480.3457 L 389.65625 418.73633 L 450.82227 417.52344 z M 497.83984 419.51172 C 499.24553 419.54421 500.68015 419.78803 502.15039 420.28125 C 507.92978 422.21991 512.05437 426.2266 515.05273 430.55859 C 514.17328 430.24149 513.29379 429.91234 512.30859 429.74414 C 510.19257 429.38287 508.43995 430.41876 506.8457 431.63086 C 505.25146 432.84296 503.74781 434.42113 502.39844 436.00391 C 501.02592 437.61383 500.83183 438.04522 499.97461 439.25391 C 499.46468 437.88446 498.92234 436.4146 498.02539 434.79297 C 496.88883 432.73812 495.41777 430.64536 493.44531 429.0293 C 491.47286 427.41324 488.90867 426.29834 485.97852 426.4707 C 484.48152 426.5588 483.45357 426.80725 482.27344 427.00586 C 484.90426 424.53461 487.85732 422.26942 491.02539 420.92578 C 492.7937 420.17581 494.59424 419.68658 496.44336 419.54883 C 496.90564 419.51439 497.37128 419.50089 497.83984 419.51172 z M 454.8457 420.66797 C 455.05757 420.66286 455.26713 420.6678 455.47656 420.68359 C 456.3143 420.74679 457.13636 420.97231 457.9707 421.32617 C 458.65912 421.61814 459.33431 422.05034 460 422.50195 C 458.64943 422.65998 457.40651 423.13351 456.48242 423.89062 C 455.32245 424.84103 454.50393 426.02272 453.87695 427.15625 C 453.69991 427.47634 453.64237 427.71864 453.49414 428.03125 C 453.33217 427.83051 453.3628 427.82638 453.18945 427.62305 C 452.46442 426.7726 451.65477 425.91509 450.73633 425.2168 C 450.04021 424.68754 449.1699 424.27955 448.14453 424.16211 C 449.40957 422.81037 450.96776 421.66455 452.89062 421.01953 C 453.56106 420.79464 454.21011 420.68329 454.8457 420.66797 z M 460.7832 426.3418 C 463.03001 426.47396 464.19909 426.91504 464.73047 427.20117 C 464.80307 427.24027 464.78907 427.24299 464.83984 427.27539 C 466.12425 428.92461 466.99741 430.16457 467.1543 430.43555 L 468.28125 438.92188 L 467.18945 447.14453 L 458.26953 448.41797 L 456.09961 432.32812 C 456.15941 432.09515 456.5088 430.66138 457.37695 429.0918 C 457.84506 428.24548 458.43159 427.46443 459.01758 426.98438 C 459.60357 426.50426 460.10019 426.30162 460.7832 426.3418 z M 447.67969 428.03516 C 447.65098 428.06171 447.92234 428.10258 448.31445 428.40039 C 448.84826 428.80624 449.52987 429.49548 450.14648 430.21875 C 451.25205 431.51556 451.96387 432.62317 452.14062 432.89258 L 454.30859 448.98438 L 445.64648 450.22266 L 443.26562 434.10742 C 443.32252 433.80806 443.78642 431.85897 444.8457 429.41797 C 445.28305 429.09155 446.40303 428.30005 447.67969 428.03516 z M 486.88477 430.45703 C 488.41119 430.51963 489.68845 431.12048 490.91211 432.12305 C 492.31057 433.26883 493.54769 434.96284 494.52539 436.73047 C 496.34914 440.0277 497.1632 443.18756 497.27539 443.63281 L 492.76953 477.05469 L 467.72852 473.47656 L 470.75586 450.67578 L 473.81836 450.23828 L 473.55859 448.27539 L 472.375 439.35352 C 472.65968 438.85856 474.09136 436.46584 476.68164 433.13672 C 476.86821 432.95766 477.19254 432.67878 477.81836 432.3418 C 479.13944 431.63045 481.67319 430.73005 486.21484 430.46289 C 486.44365 430.44943 486.6667 430.44809 486.88477 430.45703 z M 511.63477 433.6875 C 515.15785 434.289 518.15642 436.67543 518.67578 437.09766 C 521.05259 442.45487 521.98075 446.921 522.03711 447.24609 L 517.11719 480.5332 L 496.73047 477.62109 L 501.22852 444.24609 C 501.41975 443.95185 503.09146 441.35833 505.44336 438.59961 C 506.68431 437.14401 508.05797 435.73412 509.26758 434.81445 C 510.47718 433.89479 511.45451 433.65672 511.63477 433.6875 z M 613.85547 436.43555 L 668.88086 463.125 C 668.87378 463.12538 668.86645 463.12461 668.85938 463.125 C 660.00927 463.61807 653.85352 471.51568 653.85352 471.51562 L 653.66211 471.75391 L 647.56055 487.16797 C 645.55566 484.00449 643.19794 480.90759 640.15234 478.52148 C 636.51679 475.67317 631.97725 473.81793 626.73047 474.17188 C 611.13132 475.2242 601.74269 488.78241 598.20898 495.04492 L 613.85547 436.43555 z M 427.48242 450.4043 C 428.42236 450.39617 429.37291 450.46545 430.33203 450.60156 C 433.8159 451.09598 437.33724 452.57597 440.58203 454.35156 C 439.34653 454.46538 438.23063 454.49847 436.69531 454.81836 C 433.79441 455.42277 431.59315 457.19826 430.09766 459.30664 C 428.60217 461.41502 427.71817 463.86205 427.14844 466.18359 C 426.69494 468.0315 426.54654 469.63909 426.4082 471.12891 C 425.25702 470.16282 424.95055 469.78526 423.1875 468.55664 C 421.46013 467.35289 419.58417 466.1937 417.71484 465.41992 C 415.84552 464.64614 413.86114 464.08987 411.89648 465.00391 C 410.9608 465.43921 410.17183 466.00644 409.38477 466.56445 C 411.17298 461.45927 414.16207 456.36976 419.32422 452.90625 C 421.93429 451.15504 424.66262 450.42867 427.48242 450.4043 z M 466.64258 451.26367 L 463.24219 476.87695 L 465.20312 477.15625 L 489.55078 480.63477 L 485.5 511.33008 L 485.44922 511.71094 L 482.69531 532.4707 L 484.6543 532.75 L 496.32031 534.41602 L 494.70312 546.67969 C 494.3879 546.427 494.12682 546.25063 493.82031 546.01367 C 493.65126 545.89182 493.36328 545.65039 493.36328 545.65039 L 493.35547 545.66406 C 489.69959 542.88881 486.76367 541.17578 486.76367 541.17578 L 486.42969 540.98828 L 458.88867 537.33398 L 447.32422 509.10156 L 471.97461 498.44531 L 471.23047 496.62891 L 459.35938 467.70898 L 462.19141 467.33594 L 460.19141 452.18555 L 466.64258 451.26367 z M 456.23047 452.75195 L 457.6582 463.56641 L 456.91797 461.76367 L 456.6543 461.49023 C 456.6543 461.49023 454.21714 459.04906 450.55859 456.17773 L 450.57031 456.16602 C 450.57031 456.16602 450.25417 455.93923 450.08008 455.79688 C 449.28716 455.18622 448.47619 454.61688 447.57422 453.98828 L 456.23047 452.75195 z M 442.98047 458.06836 C 444.40185 458.04986 445.44545 458.19301 446.18164 458.36914 C 446.88152 458.53658 447.2712 458.72777 447.5 458.85547 C 451.05875 461.58093 453.29581 463.80176 453.52734 464.03906 L 466.7832 496.33203 L 443.28125 506.49219 L 430.15234 474.69141 C 430.14534 474.23131 430.11334 470.88492 431.0332 467.13672 C 431.52552 465.1306 432.2913 463.12658 433.35938 461.62109 C 434.42721 460.11561 435.70115 459.11138 437.51172 458.73438 C 439.75892 458.26617 441.55909 458.08683 442.98047 458.06836 z M 670.51953 467.13867 C 671.01256 467.16711 671.51122 467.23019 672.01367 467.33203 C 673.86178 467.70657 675.16655 468.68947 676.25781 470.13672 C 676.70708 470.73255 677.07561 471.44375 677.42578 472.16602 C 676.1783 471.62915 674.86507 471.41985 673.6875 471.61328 C 672.20774 471.85635 670.90857 472.47049 669.79883 473.13867 C 669.48538 473.3274 669.31404 473.50842 669.0293 473.70508 C 668.9895 473.45106 669.019 473.46307 668.9707 473.20117 C 668.76803 472.10214 668.49508 470.95263 668.04883 469.88867 C 667.71077 469.08265 667.16052 468.29403 666.33203 467.67969 C 667.20756 467.41381 668.11907 467.22249 669.05859 467.15234 C 669.53911 467.11644 670.0265 467.11024 670.51953 467.13867 z M 680.00977 468.52344 L 740.85547 498.03516 L 724.16016 520.3457 C 725.87385 512.63063 727.10699 498.93901 718.03906 488.67383 C 714.59751 484.77788 710.11656 482.90677 705.57422 482.34766 C 701.03188 481.78854 696.39174 482.46644 692.20508 483.57227 C 689.49778 484.28734 687.10098 485.18013 684.91406 486.07422 C 684.6862 486.17362 684.31055 486.3125 684.31055 486.3125 L 684.32031 486.32812 C 683.54556 486.65375 682.72652 486.98032 682.05664 487.28906 L 683.66797 483.38867 L 683.67188 483.00586 C 683.67188 483.00586 683.57688 481.19119 683.30273 478.89062 L 683.375 478.89258 C 683.375 478.89258 683.357 478.39431 683.24414 477.98242 C 683.21714 477.88402 683.12412 477.73749 683.08594 477.62891 C 682.91798 476.53672 682.85635 475.58885 682.52539 474.37109 C 681.99386 472.41532 681.21713 470.36542 680.00977 468.52344 z M 413.86328 468.58984 C 414.28578 468.57781 415.11929 468.67468 416.18359 469.11523 C 417.60267 469.70264 419.31071 470.73009 420.90039 471.83789 C 423.91623 473.93953 426.22942 476.06308 426.48828 476.29883 L 439.60938 508.08008 L 420.46875 516.35352 L 406.9707 484.80469 C 406.9417 484.4788 406.67875 479.80207 407.60352 473.86523 C 407.99679 473.31525 410.30347 470.15509 413.58398 468.62891 C 413.62656 468.60911 413.72245 468.59385 413.86328 468.58984 z M 661.68945 470.51758 C 662.38836 470.50481 663.25279 470.56183 663.99609 470.80469 C 663.96895 470.82019 664.17281 470.99081 664.35938 471.43555 C 664.61874 472.05393 664.86279 472.9911 665.03516 473.92578 C 665.34382 475.59956 665.40899 476.90964 665.42773 477.23438 L 659.25781 492.25977 L 651.13672 489 L 657.13086 473.85547 C 657.32763 473.62713 658.70751 472.16694 660.84961 470.58008 C 661.07246 470.55378 661.20731 470.52638 661.68945 470.51758 z M 674.85938 475.50586 C 675.35077 475.49214 675.75698 475.60452 676.18555 475.88672 C 678.06526 477.12458 678.85866 478.09199 679.17578 478.60547 C 679.21948 478.67617 679.20642 478.67087 679.23438 478.72461 C 679.52202 480.79574 679.65785 482.3081 679.6582 482.61914 L 676.39258 490.52539 L 671.33203 497.10547 L 662.9707 493.75 L 669.13867 478.72852 C 669.30756 478.55606 670.32712 477.48939 671.86328 476.56445 C 672.69183 476.06558 673.5884 475.68334 674.33594 475.56055 C 674.52282 475.52985 674.69556 475.51043 674.85938 475.50586 z M 628.53516 478.13477 C 632.03913 478.24609 635.01658 479.57889 637.68555 481.66992 C 640.45614 483.84058 642.76692 486.88395 644.68945 490.04492 C 643.5621 489.52543 642.57833 488.99678 641.08789 488.50586 C 638.27343 487.57884 635.47823 488.01363 633.12891 489.0918 C 630.77958 490.16996 628.79089 491.84662 627.13672 493.57227 C 625.81968 494.94621 624.88825 496.26507 624.02344 497.48633 C 623.50951 496.07401 623.43223 495.59432 622.51953 493.64844 C 621.62546 491.74228 620.58161 489.80009 619.34961 488.19531 C 618.11761 486.59054 616.67799 485.11653 614.51953 484.92578 C 613.49179 484.83498 612.52488 484.93178 611.56445 485.02148 C 615.66565 481.49447 620.79781 478.58247 627 478.16406 C 627.52266 478.1288 628.03459 478.11886 628.53516 478.13477 z M 493.50977 481.19922 L 494.21484 481.30078 L 518.96094 484.83594 L 514.8457 508.67578 C 513.0484 505.08806 510.00109 501.1726 504.89258 499.45898 C 502.09699 498.52122 499.32587 498.88027 496.98047 499.875 C 494.63507 500.86973 492.64674 502.45483 490.99805 504.0918 C 490.74263 504.3454 490.63421 504.56037 490.39453 504.81641 L 493.50977 481.19922 z M 702.48047 486.16211 C 703.36142 486.16272 704.23226 486.21133 705.08594 486.31641 C 708.89872 486.78572 712.30517 488.22299 715.04297 491.32227 C 719.07953 495.89178 720.64786 501.42407 721.07812 506.67578 C 720.47447 505.96046 719.87753 505.2348 719.10742 504.5957 C 717.45553 503.22482 715.4203 503.24546 713.43359 503.49805 C 711.44689 503.75064 709.35646 504.36646 707.39648 505.0625 C 705.40315 505.77038 705.01856 506.04595 703.67188 506.66406 C 703.91494 505.22325 704.18081 503.6807 704.21484 501.82812 C 704.25794 499.4803 704.03102 496.9307 703.13086 494.54492 C 702.23069 492.15915 700.56712 489.91151 697.94336 488.5957 C 696.60384 487.92394 695.58945 487.62496 694.46875 487.20703 C 697.10373 486.58874 699.83762 486.16027 702.48047 486.16211 z M 612.82422 488.87305 C 613.26807 488.85974 613.71756 488.87035 614.16797 488.91016 C 614.35509 488.92666 615.24053 489.41262 616.17578 490.63086 C 617.11103 491.8491 618.07563 493.59344 618.89844 495.34766 C 620.45977 498.67642 621.40193 501.67162 621.50781 502.00391 L 616.98047 536.08594 L 596.26758 533.68164 L 600.35547 499.60547 C 600.49667 499.30157 602.60491 495.12839 606.37109 490.45312 C 606.91093 490.20792 609.71728 488.96618 612.82422 488.87305 z M 687.93945 489.59961 C 689.43922 489.64411 692.08363 490.13241 696.15039 492.17188 C 697.78944 492.99385 698.75046 494.26552 699.38867 495.95703 C 700.02689 497.64854 700.25195 499.73425 700.21484 501.75391 C 700.14564 505.52256 699.26949 508.66761 699.14453 509.10742 L 678.53125 535.79883 L 658.63477 520.17969 L 672.65625 501.94727 L 675.52734 503.09961 L 676.2832 501.26953 L 679.71875 492.95117 C 680.21171 492.66546 682.64913 491.30925 686.55859 489.7207 C 686.80985 489.6589 687.22968 489.57855 687.93945 489.59961 z M 404.97852 490.31055 L 418.36914 521.61914 L 442.98828 510.97656 L 443.65234 510.68945 L 454.31836 536.72656 L 447.79492 535.86133 L 447.51562 537.82031 L 444.03711 562.16797 L 419.67188 558.95117 L 404.97852 490.31055 z M 637.91211 491.98047 C 638.53988 491.98418 639.17721 492.088 639.83594 492.30469 C 644.19642 493.74093 646.42835 495.281 647.52734 496.32227 C 648.04852 496.81606 648.29116 497.17519 648.42578 497.40039 C 650.14607 501.54221 650.97321 504.58843 651.05469 504.9082 L 646.38867 539.5 L 620.95508 536.54688 L 625.48438 502.44531 C 625.70754 502.04487 627.3539 499.12678 630.02539 496.33984 C 631.45481 494.84865 633.1213 493.49642 634.79883 492.72656 C 635.63759 492.34163 636.45677 492.09161 637.28711 492.00977 C 637.49469 491.98929 637.70285 491.97923 637.91211 491.98047 z M 650.92383 493.22461 L 659.04102 496.48047 L 654.86523 506.56836 L 655.12695 504.63086 L 655.03711 504.25977 C 655.03711 504.25977 654.14723 500.92802 652.41406 496.61133 L 652.43164 496.60742 C 652.43164 496.60742 652.26482 496.24454 652.17773 496.01758 C 651.79943 495.10085 651.38588 494.20979 650.92383 493.22461 z M 662.75391 497.9707 L 668.79883 500.39844 L 653.04883 520.88086 L 654.60742 522.10352 L 673.95508 537.29102 L 655.09766 561.84766 L 654.86328 562.15234 L 642.09766 578.75195 L 643.65625 579.97461 L 652.92578 587.25195 L 645.39258 597.0625 C 645.25335 596.70513 645.12197 596.4369 644.98242 596.0957 C 644.88492 595.87307 644.74805 595.5 644.74805 595.5 L 644.73242 595.50977 C 642.95379 591.27778 641.26953 588.32617 641.26953 588.32617 L 641.07422 587.99609 L 619.05078 571.06055 L 623.15039 540.83008 L 649.82812 543.92578 L 650.08984 541.98047 L 654.26758 510.99805 L 656.91016 512.0918 L 662.75391 497.9707 z M 501.66797 502.89844 C 502.30301 502.91429 502.95068 503.02704 503.62109 503.25195 C 505.544 503.89698 507.1041 505.04082 508.36914 506.39258 C 507.34372 506.50999 506.47348 506.91799 505.77734 507.44727 C 504.8589 508.14556 504.0473 509.00502 503.32227 509.85547 C 503.1488 510.05893 503.17964 510.06281 503.01758 510.26367 C 502.86921 509.95073 502.81201 509.70716 502.63477 509.38672 C 502.00779 508.25318 501.19123 507.07148 500.03125 506.12109 C 499.10822 505.36484 497.86624 504.89127 496.51758 504.73242 C 497.1821 504.28189 497.85583 503.85002 498.54297 503.55859 C 499.37731 503.20473 500.19937 502.97726 501.03711 502.91406 C 501.24654 502.89826 501.45629 502.89315 501.66797 502.89844 z M 595.78516 504.12695 L 591.81641 537.19141 L 618.45898 540.28516 L 619.17578 540.36914 L 615.39453 568.24805 L 610.17969 564.23828 L 608.95703 565.79688 L 593.77148 585.14258 L 577.49219 572.64453 L 595.78516 504.12695 z M 714.96484 507.40234 C 715.87882 507.40626 716.44719 507.58628 716.55273 507.67383 C 719.30234 509.95567 720.70601 513.51959 720.94531 514.14648 C 720.32561 519.97243 718.8985 524.3012 718.7832 524.61523 L 697.87891 550.98438 L 681.67773 538.26758 L 702.25977 511.61719 C 702.57051 511.45898 705.31687 510.04566 708.73438 508.83203 C 710.53687 508.19192 712.43207 507.65844 713.93945 507.4668 C 714.3163 507.41888 714.66018 507.40104 714.96484 507.40234 z M 495.73047 508.57422 C 496.41348 508.53402 496.91011 508.73669 497.49609 509.2168 C 498.08208 509.6969 498.66666 510.47595 499.13477 511.32227 C 500.00294 512.89187 500.35426 514.32565 500.41406 514.55859 L 498.24414 530.65234 L 487.17969 529.07031 L 489.35938 512.66797 C 489.51617 512.39714 490.3881 511.15641 491.67188 509.50781 C 491.72278 509.47531 491.70848 509.47279 491.78125 509.43359 C 492.31263 509.14747 493.48366 508.70638 495.73047 508.57422 z M 508.83203 510.26562 C 510.10739 510.53024 511.22713 511.32102 511.66602 511.64844 C 512.72743 514.09378 513.19208 516.04897 513.24805 516.34375 L 511.61328 527.4043 L 510.74414 532.43555 L 502.20312 531.2168 L 504.37305 515.11914 C 504.55169 514.84723 505.26306 513.74629 506.36719 512.45117 C 506.9838 511.7279 507.66346 511.03867 508.19727 510.63281 C 508.5894 510.33467 508.86075 510.29263 508.83203 510.26562 z M 500.28125 534.98242 L 510.06445 536.37891 L 506.0918 559.38867 C 504.34931 556.28682 502.06245 553.51504 499.68164 551.11719 C 499.22747 550.65976 498.77344 550.31361 498.31445 549.88281 L 500.28125 534.98242 z M 677.09961 539.75977 L 677.66016 540.19922 L 697.59375 555.8457 L 681.46094 577.40625 C 682.24509 573.11971 682.41885 566.4605 677.82812 561.26367 C 675.87595 559.05375 673.29612 557.97921 670.76758 557.66797 C 668.23904 557.35673 665.72481 557.73477 663.47852 558.32812 C 663.12984 558.42022 662.92801 558.55219 662.5918 558.6543 L 677.09961 539.75977 z M 451.19531 540.3457 L 485.08789 544.84375 C 485.37569 545.00752 488.04538 546.58525 491.5332 549.29883 C 491.71222 549.48527 491.99283 549.80923 492.33008 550.43555 C 493.04143 551.75662 493.94183 554.29037 494.20898 558.83203 C 494.31666 560.66247 493.69461 562.13083 492.54883 563.5293 C 491.40304 564.92776 489.70903 566.16488 487.94141 567.14258 C 484.64561 568.96552 481.48868 569.77976 481.04102 569.89258 L 447.61719 565.38672 L 451.19531 540.3457 z M 497.66797 554.89258 C 500.13878 557.52313 502.40265 560.47497 503.74609 563.64258 C 504.20337 564.72076 504.54791 565.81391 504.79102 566.91992 L 502.81836 578.35547 C 500.66192 582.31016 497.48729 585.33545 494.11133 587.67188 C 494.42879 586.79178 494.75939 585.91181 494.92773 584.92578 C 495.28901 582.80976 494.25312 581.05713 493.04102 579.46289 C 491.82891 577.86865 490.25075 576.36501 488.66797 575.01562 C 487.05805 573.64311 486.62666 573.44902 485.41797 572.5918 C 486.78739 572.08187 488.25733 571.54145 489.87891 570.64453 C 491.93376 569.50797 494.02652 568.03691 495.64258 566.06445 C 497.25864 564.092 498.37353 561.52781 498.20117 558.59766 C 498.11317 557.10117 497.86648 556.07242 497.66797 554.89258 z M 805.05469 556.03516 L 842.55859 605.76172 C 834.76634 602.17502 825.88477 605.76953 825.88477 605.76953 L 825.59961 605.87891 L 812.60938 616.17773 C 812.45484 612.43559 811.96017 608.57362 810.51562 604.98438 C 808.7913 600.69988 805.78918 596.82467 801.06836 594.50781 C 797.06785 592.54447 792.99292 591.71387 789.06836 591.61523 C 788.50771 591.60114 787.95035 591.6026 787.39648 591.61719 C 779.58549 591.8229 772.53289 594.7594 768.02734 597.15039 L 805.05469 556.03516 z M 669.13086 561.58203 C 669.52396 561.57689 669.90863 561.59117 670.2793 561.63672 C 672.07828 561.85816 673.58166 562.49886 674.83008 563.91211 C 676.17297 565.4323 676.95144 567.20252 677.37109 569.00586 C 676.42451 568.59508 675.46696 568.51277 674.59961 568.62305 C 673.45507 568.76856 672.32266 569.10648 671.26953 569.48047 C 671.01816 569.56977 671.043 569.58893 670.80273 569.68164 C 670.83063 569.337 670.90153 569.09791 670.9082 568.73242 C 670.932 567.43727 670.8145 566.00461 670.28516 564.60156 C 669.86362 563.48432 669.02537 562.45268 667.93555 561.64062 C 668.33623 561.61163 668.73776 561.58717 669.13086 561.58203 z M 420.56055 563.10547 L 443.4707 566.12891 L 443.37109 566.83203 L 439.61719 593.10938 L 458.10156 595.8418 C 457.21884 595.99869 456.33632 596.14578 455.44336 596.44531 C 440.65148 601.40714 435.2166 616.87653 433.51172 623.60742 L 420.56055 563.10547 z M 661.48633 563.3457 C 662.08958 563.3636 663.32407 563.56527 665.33594 564.57422 C 665.94753 564.88093 666.27554 565.30489 666.54297 566.01367 C 666.81039 566.72245 666.92792 567.69122 666.91016 568.6582 C 666.87716 570.45278 666.46071 571.87164 666.39648 572.10156 L 656.47461 584.95117 L 647.68359 578.05078 L 657.76562 564.9375 C 658.03184 564.78417 659.41307 564.14316 661.35352 563.35547 C 661.41402 563.35247 661.40322 563.3435 661.48633 563.3457 z M 447.05078 569.34766 L 480.42188 573.8457 C 480.71317 574.03501 483.31189 575.70723 486.07227 578.06055 C 487.52787 579.3015 488.93776 580.67516 489.85742 581.88477 C 490.77708 583.09437 491.01504 584.07169 490.98438 584.25195 C 490.3832 587.77315 488.00049 590.77091 487.57617 591.29297 C 482.21813 593.67043 477.75092 594.59793 477.42578 594.6543 L 444.13867 589.73438 L 447.05078 569.34766 z M 610.88086 569.82422 L 637.98633 590.66797 C 638.155 590.95597 639.67643 593.65433 641.33984 597.74805 C 641.40164 597.9993 641.48199 598.41914 641.46094 599.12891 C 641.41644 600.62867 640.92814 603.27113 638.88867 607.33789 C 638.0667 608.97694 636.79502 609.93796 635.10352 610.57617 C 633.41201 611.21439 631.3263 611.4414 629.30664 611.4043 C 625.54159 611.3351 622.40209 610.46232 621.95703 610.33594 L 595.26172 589.7207 L 610.88086 569.82422 z M 675.6582 572.58203 C 675.78166 572.59457 675.84209 572.61081 675.83594 572.5918 C 676.80917 573.45931 677.38377 574.70509 677.59961 575.20703 C 677.2963 577.85137 676.723 579.77421 676.62305 580.06055 L 666.50391 592.82422 L 659.62109 587.42188 L 669.54688 574.56836 C 669.83581 574.42305 671.00427 573.82001 672.60938 573.25 C 673.505 572.93193 674.4383 572.67637 675.10352 572.5918 C 675.34825 572.56067 675.53474 572.5695 675.6582 572.58203 z M 576.375 576.83008 L 591.30078 588.28906 L 590.86133 588.84961 L 574.47266 609.72852 L 596.45508 627.15625 C 595.50479 626.78918 594.53532 626.4462 593.48047 626.23242 C 576.2409 622.73868 562.58121 636.7914 559.4043 640.39844 L 576.375 576.83008 z M 501.31836 587.03906 L 492.86133 636.0332 L 490.49414 618.19727 L 490.30859 617.86328 C 490.30859 617.86328 488.59522 614.92896 485.82031 611.27344 L 485.83398 611.26562 C 485.83398 611.26562 485.59441 610.98052 485.47656 610.81641 C 484.02016 608.93183 482.37649 606.94033 480.36719 604.94531 C 477.48521 602.08382 474.02582 599.42421 470.13672 597.62109 L 477.50781 598.71094 L 477.80859 598.66211 C 477.80859 598.66211 491.85836 596.58109 501.31836 587.03906 z M 656.07422 589.72266 L 666.26172 597.7168 L 646.18164 624.55078 C 647.57742 622.10974 648.38224 619.44993 648.71289 616.76367 C 649.27201 612.22133 648.59215 607.5812 647.48633 603.39453 C 647.32178 602.77157 647.10193 602.2449 646.91992 601.64258 L 656.07422 589.72266 z M 592.79102 592.86719 L 619.44336 613.44922 C 619.60157 613.75996 621.01489 616.50636 622.22852 619.92383 C 622.86863 621.72632 623.4021 623.61957 623.59375 625.12695 C 623.7854 626.63433 623.50355 627.60147 623.38672 627.74219 C 621.10671 630.48959 617.54764 631.89158 616.91602 632.13281 C 611.089 631.51326 606.75939 630.08796 606.44531 629.97266 L 580.07617 609.06641 L 592.79102 592.86719 z M 788.86914 595.68164 C 792.33048 595.73094 795.88259 596.42013 799.30469 598.09961 C 803.06685 599.94598 805.35797 602.88381 806.80469 606.47852 C 808.11881 609.74375 808.59914 613.53357 808.68359 617.23242 C 807.96705 616.2189 807.37924 615.26992 806.33398 614.09961 C 804.3601 611.88956 801.72405 610.86985 799.15039 610.62891 C 796.57673 610.38797 794.01608 610.84435 791.7207 611.51172 C 789.8924 612.04329 788.42432 612.72026 787.06445 613.3457 C 787.32558 611.86555 787.50103 611.41156 787.68359 609.26953 C 787.86239 607.17171 787.92858 604.96671 787.66406 602.96094 C 787.39951 600.95516 786.88914 598.95927 785.11523 597.71484 C 784.27035 597.12213 783.38466 596.72294 782.50781 596.32031 C 784.09821 596.0199 785.7184 595.76079 787.39258 595.69922 C 787.88274 595.68119 788.37466 595.6746 788.86914 595.68164 z M 775.29492 598.42773 C 775.97065 598.49363 779.85766 598.91321 782.81836 600.99023 C 782.97214 601.09812 783.49644 601.96171 783.69727 603.48438 C 783.8981 605.00702 783.86181 606.99909 783.69727 608.92969 C 783.38501 612.59345 782.70325 615.65978 782.62891 616 L 761.66797 643.25195 L 744.92969 630.8125 L 765.50391 603.35156 C 765.76967 603.16485 769.68924 600.59593 775.29492 598.42773 z M 461.02539 599.46875 C 461.49395 599.45773 461.95959 599.46947 462.42188 599.50391 C 464.27098 599.64166 466.07153 600.13088 467.83984 600.88086 C 471.00792 602.2245 473.96098 604.48969 476.5918 606.96094 C 475.41166 606.76233 474.38371 606.51384 472.88672 606.42578 C 469.95657 606.25342 467.39238 607.36825 465.41992 608.98438 C 463.44747 610.60041 461.97641 612.69515 460.83984 614.75 C 459.94297 616.37151 459.40056 617.8396 458.89062 619.20898 C 458.03348 618.0005 457.83858 617.57 456.4668 615.96094 C 455.11742 614.37816 453.61377 612.79804 452.01953 611.58594 C 450.42529 610.37384 448.67267 609.33794 446.55664 609.69922 C 445.57075 609.86754 444.69053 610.19823 443.81055 610.51562 C 446.80901 606.18277 450.93447 602.17727 456.71484 600.23828 C 458.18508 599.7451 459.6197 599.5018 461.02539 599.46875 z M 643.85352 605.6582 C 644.67791 609.17151 645.16446 612.86068 644.74414 616.27539 C 644.27482 620.08817 642.83756 623.49267 639.73828 626.23047 C 635.16877 630.26703 629.63648 631.83731 624.38477 632.26758 C 625.10009 631.66392 625.82575 631.06693 626.46484 630.29688 C 627.83573 628.64498 627.81509 626.60975 627.5625 624.62305 C 627.30991 622.63634 626.69409 620.54396 625.99805 618.58398 C 625.29025 616.5909 625.01261 616.20797 624.39453 614.86133 C 625.83566 615.10451 627.37915 615.3683 629.23242 615.40234 C 631.58026 615.44544 634.12986 615.21852 636.51562 614.31836 C 638.9014 613.41819 641.14904 611.75658 642.46484 609.13281 C 643.13661 607.79329 643.43558 606.7789 643.85352 605.6582 z M 832.40625 608.45508 C 832.9064 608.67001 834.15476 609.24602 835.02344 610.2207 C 834.98541 610.20841 835.0857 610.46371 835.02344 610.95312 C 834.93884 611.61834 834.6833 612.55162 834.36523 613.44727 C 833.79522 615.05237 833.19218 616.22083 833.04688 616.50977 L 820.19336 626.43555 L 814.79102 619.55273 L 827.55469 609.43164 C 827.84102 609.33164 829.76197 608.75839 832.40625 608.45508 z M 838.60938 608.68359 C 840.41269 609.10325 842.18295 609.88172 843.70312 611.22461 C 845.11637 612.47303 845.75708 613.97836 845.97852 615.77734 C 846.06982 616.51919 846.03291 617.31915 845.97461 618.12109 C 845.16256 617.03127 844.13091 616.19107 843.01367 615.76953 C 841.61063 615.24016 840.17797 615.12269 838.88281 615.14648 C 838.51649 615.15348 838.277 615.22588 837.93164 615.25391 C 838.02464 615.01284 838.04323 615.03742 838.13281 614.78516 C 838.50681 613.73203 838.84667 612.60157 838.99219 611.45703 C 839.1025 610.58942 839.02057 609.63045 838.60938 608.68359 z M 471.98047 610.41406 C 472.19848 610.40517 472.42159 610.40646 472.65039 610.41992 C 477.19205 610.68708 479.72577 611.58547 481.04688 612.29688 C 481.6732 612.63413 481.99715 612.91474 482.18359 613.09375 C 484.89663 616.58078 486.47404 619.24781 486.63867 619.53711 L 490.58008 649.24414 L 489.82617 653.61914 L 466.0957 657.00977 L 461.58984 623.58398 C 461.70325 623.13411 462.51763 619.98001 464.33984 616.68555 C 465.31754 614.91792 466.55661 613.22393 467.95508 612.07812 C 469.17873 611.07557 470.45442 610.47629 471.98047 610.41406 z M 447.23047 613.64258 C 447.41073 613.61178 448.38805 613.84987 449.59766 614.76953 C 450.80726 615.68919 452.18093 617.09909 453.42188 618.55469 C 455.77378 621.31341 457.44549 623.90693 457.63672 624.20117 L 462.13477 657.57617 L 441.74805 660.48828 L 436.82812 627.19727 C 436.88572 626.86512 437.81472 622.40528 440.18945 617.05273 C 440.70881 616.63051 443.70739 614.24407 447.23047 613.64258 z M 797.35352 614.57422 C 797.8417 614.55776 798.31792 614.56832 798.77734 614.61133 C 800.61505 614.78337 802.11958 615.38429 803.35156 616.76367 C 806.40973 620.18773 807.57278 622.63663 808.00391 624.08789 C 808.20847 624.77648 808.23629 625.20844 808.24023 625.4707 C 807.65941 629.91601 806.8557 632.96486 806.76562 633.28516 L 785.42773 660.91211 L 764.87891 645.63867 L 785.84961 618.37109 C 786.24076 618.13725 789.12718 616.43182 792.83594 615.35352 C 794.32357 614.92099 795.88895 614.6236 797.35352 614.57422 z M 849.97461 615.5957 L 890.05469 668.73633 L 863.74414 681.64258 C 868.94874 675.49272 875.38477 665.01816 872.89258 652.7207 C 871.86008 647.62593 868.91594 643.76514 865.26172 641.00977 C 861.6075 638.25439 857.24898 636.52238 853.07031 635.38672 C 850.33538 634.64343 847.78573 634.21547 845.42383 633.89648 C 845.22696 633.87708 844.86328 633.8125 844.86328 633.8125 L 844.86328 633.82812 C 844.03031 633.72285 843.15773 633.59682 842.42383 633.5293 L 845.76758 630.95703 L 845.96289 630.62891 C 845.96289 630.62891 846.78665 629.00942 847.69922 626.88086 L 847.76172 626.91797 C 847.76172 626.91797 847.99723 626.47757 848.10547 626.06445 C 848.13157 625.96495 848.12313 625.78996 848.14453 625.67578 C 848.54485 624.64654 848.9651 623.79533 849.28711 622.57617 C 849.85642 620.42076 850.22048 618.02029 849.97461 615.5957 z M 750.92578 616.14062 L 739.32227 631.62695 L 760.84766 647.62695 L 761.42773 648.05859 L 742.33594 672.74023 L 741.70117 671.20117 L 739.86328 671.93945 L 717.03711 681.10156 L 709.28711 662.375 L 750.92578 616.14062 z M 838.95703 619.14648 C 839.92401 619.12868 840.89278 619.24428 841.60156 619.51172 C 842.31034 619.77914 842.7343 620.10911 843.04102 620.7207 C 844.04997 622.73258 844.25164 623.96511 844.26953 624.56836 C 844.27153 624.65266 844.26277 624.6421 844.25977 624.70312 C 843.47336 626.64028 842.8347 628.01792 842.67969 628.28711 L 835.89648 633.50391 L 828.22852 636.66992 L 822.66406 629.58203 L 835.51562 619.65625 C 835.74725 619.59155 837.16361 619.17943 838.95703 619.14648 z M 812.49609 623.10547 L 817.89453 629.98242 L 809.23828 636.62891 L 810.43164 635.08398 L 810.53711 634.71875 C 810.53711 634.71875 811.43441 631.38829 812.0918 626.7832 L 812.10547 626.78711 C 812.10547 626.78711 812.13792 626.42635 812.16992 626.24414 C 812.30596 625.23236 812.40058 624.22581 812.49609 623.10547 z M 643.48438 628.1543 L 607.11133 676.75977 L 612.96094 662.59766 L 612.96484 662.21484 C 612.96484 662.21484 612.94874 658.81602 612.37305 654.26172 L 612.38867 654.26172 C 612.38867 654.26172 612.32459 653.89563 612.30469 653.69531 C 611.98569 651.33523 611.55696 648.7887 610.81445 646.05664 C 609.67879 641.87797 607.94679 637.51946 605.19141 633.86523 C 605.15461 633.81643 605.10751 633.77513 605.07031 633.72656 C 605.93682 634.06237 627.59762 642.29272 642.38672 629.22852 C 642.77772 628.88312 643.13343 628.51964 643.48438 628.1543 z M 588.0293 629.69922 C 589.55035 629.69124 591.10504 629.83203 592.68555 630.15234 C 596.7385 630.97371 599.68522 633.20613 601.99805 636.27344 C 604.06971 639.0209 605.49438 642.45875 606.53711 645.91406 C 605.61448 645.1521 604.84791 644.42229 603.5957 643.59766 C 601.1443 641.98331 598.36583 641.66675 595.84961 642.08008 C 593.33339 642.4934 591.01367 643.57193 589.00195 644.7832 C 587.41437 645.7391 586.21032 646.74086 585.08398 647.67188 C 584.94596 646.19646 584.99307 645.72525 584.60938 643.64453 C 584.23217 641.59912 583.71992 639.47965 582.94531 637.63281 C 582.17071 635.78598 581.17137 634.01467 579.1582 633.26953 C 578.22068 632.92252 577.29343 632.76862 576.37305 632.60352 C 579.45614 631.14524 582.85511 630.009 586.51953 629.75586 C 587.01868 629.72138 587.52228 629.70188 588.0293 629.69922 z M 820.36523 633.13086 L 824.38867 638.25586 L 800.50586 648.11719 L 801.24414 649.95508 L 810.40625 672.78125 L 781.80078 684.61914 L 781.79688 684.61914 L 762.08594 692.75977 L 762.82422 694.59766 L 767.21484 705.53516 L 756.47461 709.97852 C 756.49531 709.18163 756.58203 707.60742 756.58203 707.60742 L 756.57812 707.22461 L 742.88672 674.07031 L 745.0625 675.75391 L 764.63867 650.44531 L 786.19336 666.46484 L 787.39258 664.91211 L 806.50391 640.16992 L 808.24414 642.43555 L 820.36523 633.13086 z M 572.27148 636.25 C 573.8793 636.2127 575.94337 636.3436 577.76953 637.01953 C 577.94103 637.08303 578.66814 637.77843 579.25586 639.17969 C 579.84358 640.58094 580.32889 642.49003 580.67578 644.37109 C 581.3336 647.93816 581.48365 651.02391 581.50195 651.37109 L 568.71094 682.51953 L 550.14844 675.06836 L 551.46875 670.12305 L 561.98242 643.56055 C 562.195 643.30574 565.23087 639.90344 569.9668 636.45312 C 570.26813 636.40482 570.92883 636.28119 572.27148 636.25 z M 837.56641 637.26562 C 838.1364 637.26468 840.92785 637.30922 845.10938 637.88867 C 845.35816 637.96117 845.75885 638.10057 846.36133 638.47266 C 847.63791 639.26107 849.6853 641.00507 852.1875 644.80469 C 853.19597 646.33606 853.3907 647.91914 853.09766 649.70312 C 852.80461 651.48712 851.95798 653.40619 850.91602 655.13672 C 848.97178 658.36577 846.64072 660.65219 846.3125 660.9707 L 815.11719 673.77734 L 805.69336 650.30273 L 826.95312 641.52344 L 828.86328 643.95703 L 830.43359 642.75 L 837.56641 637.26562 z M 853.21289 639.66406 C 856.66761 640.70676 860.10652 642.13184 862.85352 644.20312 C 865.92082 646.51595 868.15129 649.46267 868.97266 653.51562 C 870.18369 659.49137 868.77677 665.0687 866.52344 669.83203 C 866.35832 668.91039 866.20493 667.98184 865.85742 667.04297 C 865.11228 665.0298 863.33902 664.03046 861.49219 663.25586 C 859.64535 662.48125 857.52588 661.969 855.48047 661.5918 C 853.40069 661.20826 852.93031 661.25524 851.45508 661.11719 C 852.38605 659.99088 853.38595 658.78673 854.3418 657.19922 C 855.55307 655.1875 856.6316 652.86779 857.04492 650.35156 C 857.45825 647.83534 857.14172 645.05687 855.52734 642.60547 C 854.70282 641.35342 853.97476 640.58661 853.21289 639.66406 z M 597.80078 645.9043 C 598.22427 645.89751 598.63799 645.92687 599.04297 645.99609 C 599.85293 646.1345 600.6308 646.43522 601.39648 646.93945 C 605.1961 649.44165 606.94011 651.48709 607.72852 652.76367 C 608.10178 653.36805 608.24234 653.77111 608.31445 654.01953 C 608.92087 658.39748 608.95129 661.49777 608.94922 661.83008 L 597.45312 689.66602 L 594.92773 693.04102 L 572.42188 684.00977 L 585.23242 652.81055 C 585.55342 652.47981 587.83741 650.15396 591.06445 648.21094 C 592.79498 647.16898 594.71405 646.32039 596.49805 646.02734 C 596.94405 645.95408 597.3773 645.91109 597.80078 645.9043 z M 489.11133 657.76172 L 481.5 701.84961 C 480.33604 698.44955 477.95609 693.62446 473.29688 690.76367 L 469.31445 660.58984 L 489.11133 657.76172 z M 465.35547 661.1543 L 469.04297 689.10156 C 466.63437 688.58089 464.26691 688.79504 462.23633 689.65625 C 459.89093 690.65098 457.90455 692.23608 456.25586 693.87305 C 455.36185 694.7607 454.83529 695.54953 454.14453 696.41016 C 454.05583 696.48616 453.89971 696.5679 453.82617 696.64062 C 453.52252 696.94092 453.25781 697.36328 453.25781 697.36328 L 453.32227 697.39844 C 451.93443 699.2538 450.94336 700.77734 450.94336 700.77734 L 450.75586 701.11133 L 450.50586 702.99414 L 442.25586 664.45508 L 464.65039 661.25586 L 465.35547 661.1543 z M 847.75781 664.69922 C 848.10812 664.71772 851.19071 664.86793 854.75586 665.52539 C 856.63692 665.87228 858.54406 666.35759 859.94531 666.94531 C 861.34657 667.53303 862.04199 668.26014 862.10547 668.43164 C 863.34536 671.78148 862.78032 675.56779 862.67383 676.23242 C 859.22293 680.96983 855.8193 684.00614 855.56445 684.21875 L 824.27734 696.60156 L 816.60742 677.49023 L 847.75781 664.69922 z M 706.32227 665.66797 L 713.32422 682.5918 L 712.66602 682.85547 L 688.03125 692.74414 L 697.6582 717.06836 C 682.83373 707.72961 663.67773 715.11719 663.67773 715.11719 L 663.39453 715.22852 L 657.43164 719.95508 L 706.32227 665.66797 z M 739.51562 676.39062 L 752.56836 707.99609 C 752.57036 708.33196 752.53726 711.425 751.93164 715.79883 C 751.85964 716.0471 751.71944 716.45149 751.3457 717.05664 C 750.55729 718.33323 748.81328 720.38062 745.01367 722.88281 C 743.4823 723.89128 741.89923 724.08601 740.11523 723.79297 C 738.33124 723.49992 736.41217 722.65329 734.68164 721.61133 C 731.45647 719.66943 729.17489 717.34479 728.85156 717.01172 L 716.04102 685.8125 L 739.51562 676.39062 z M 811.89453 676.49219 L 812.16016 677.15234 L 822.04883 701.78711 L 825.32812 700.49023 L 744.94727 739.92188 C 746.4152 738.76285 747.70632 737.42147 748.81055 735.95703 C 751.56593 732.30281 753.29598 727.94429 754.43164 723.76562 C 755.17542 721.02891 755.6029 718.47828 755.92188 716.11523 C 755.94088 715.92066 756.00586 715.55859 756.00586 715.55859 L 755.99023 715.55859 C 756.03803 715.18028 756.08743 714.81039 756.12695 714.45117 L 768.70508 709.24805 L 773.95703 722.33398 L 793.43164 714.62695 L 793.66992 714.43555 C 793.66992 714.43555 803.98699 706.39334 801.77539 695.48047 C 801.18972 692.59053 799.49119 690.36975 797.45703 688.83594 C 795.42287 687.30213 793.05646 686.37104 790.81445 685.76172 C 790.46691 685.66722 790.22653 685.68112 789.88477 685.60156 L 811.89453 676.49219 z M 549.10938 678.96289 L 569.04883 686.96484 L 569.70898 687.23047 L 559.13477 712.7793 C 557.89912 712.16454 556.59371 711.7812 555.29297 711.62109 C 552.76443 711.30985 550.2502 711.68799 548.00391 712.28125 C 546.78475 712.60326 545.93354 713.02351 544.9043 713.42383 C 544.79027 713.44513 544.61505 713.43679 544.51562 713.46289 C 544.10253 713.57113 543.66406 713.80664 543.66406 713.80664 L 543.70117 713.86719 C 541.57141 714.78011 539.95316 715.60547 539.95312 715.60547 L 539.62305 715.80078 L 539.08984 716.49414 L 549.10938 678.96289 z M 712.32812 687.30273 L 725.11914 718.44922 C 725.10084 718.79632 724.95079 721.88406 724.29297 725.45117 C 723.94608 727.33223 723.46076 729.23938 722.87305 730.64062 C 722.28533 732.04188 721.55821 732.73731 721.38672 732.80078 C 718.03685 734.04068 714.25053 733.47563 713.58594 733.36914 C 709.67353 730.5192 707.30802 728.13719 706.36328 727.07031 C 705.85383 725.69816 705.19615 724.37382 704.35352 723.11523 L 693.2168 694.97266 L 712.32812 687.30273 z M 782.56445 688.63086 C 782.87415 688.63119 784.3904 688.76631 786.46484 689.05469 C 786.51774 689.08229 786.51294 689.06873 786.58203 689.11133 C 787.09551 689.42845 788.06097 690.22185 789.29883 692.10156 C 789.67513 692.67298 789.74779 693.20364 789.625 693.95117 C 789.50221 694.69871 789.11997 695.59723 788.62109 696.42578 C 787.69578 697.96257 786.62871 698.98229 786.45703 699.15039 L 771.4375 705.31641 L 767.27539 694.94531 L 782.56445 688.63086 z M 573.41992 688.71875 L 592.44727 696.35742 L 565.88086 731.85742 C 566.73244 727.62831 567.11227 720.70625 562.41797 715.31055 L 573.41992 688.71875 z M 793.01758 690.86133 C 793.74043 691.21169 794.45257 691.5797 795.04883 692.0293 C 796.49607 693.12056 797.47898 694.42532 797.85352 696.27344 C 798.25627 698.26077 798.04371 700.18398 797.50586 701.95508 C 796.89154 701.127 796.10268 700.57626 795.29688 700.23828 C 794.23289 699.79203 793.08536 699.52104 791.98633 699.31836 C 791.72243 699.26966 791.73439 699.29791 791.47852 699.25781 C 791.67532 698.97288 791.85801 698.80196 792.04688 698.48828 C 792.71506 697.37854 793.3292 696.07937 793.57227 694.59961 C 793.76577 693.42161 793.55497 692.10919 793.01758 690.86133 z M 466.92383 692.67969 C 467.55942 692.69501 468.20849 692.80637 468.87891 693.03125 C 470.8018 693.67627 472.35996 694.82208 473.625 696.17383 C 472.60003 696.29147 471.72913 696.6994 471.0332 697.22852 C 470.11476 697.92681 469.30512 698.78627 468.58008 699.63672 C 468.40666 699.84013 468.43741 699.84411 468.27539 700.04492 C 468.127 699.73191 468.06986 699.48849 467.89258 699.16797 C 467.2656 698.03443 466.44708 696.85273 465.28711 695.90234 C 464.36346 695.14558 463.12126 694.67204 461.77148 694.51367 C 462.43668 694.06252 463.11095 693.63158 463.79883 693.33984 C 464.63317 692.98598 465.45523 692.75851 466.29297 692.69531 C 466.5024 692.67951 466.71196 692.67458 466.92383 692.67969 z M 460.98633 698.35352 C 461.66934 698.31332 462.16597 698.51599 462.75195 698.99609 C 463.33794 699.4762 463.92447 700.2572 464.39258 701.10352 C 465.26074 702.6731 465.61011 704.10686 465.66992 704.33984 L 463.5 720.42969 L 453.94727 719.06445 L 452.99805 714.63086 L 454.61328 702.44922 C 454.76965 702.17913 455.64469 700.93708 456.92969 699.28711 C 456.98049 699.25471 456.96649 699.25199 457.03906 699.21289 C 457.57044 698.92676 458.73952 698.48568 460.98633 698.35352 z M 474.08984 700.04688 C 475.3665 700.31176 476.48648 701.10327 476.92383 701.42969 C 477.9832 703.8709 478.44707 705.82202 478.50391 706.12109 L 476.12305 722.23438 L 467.46094 720.99609 L 469.62891 704.9043 C 469.80587 704.63489 470.51748 703.52727 471.62305 702.23047 C 472.23966 701.5072 472.92127 700.81796 473.45508 700.41211 C 473.84722 700.11397 474.11856 700.07332 474.08984 700.04688 z M 787.95117 702.85938 C 788.27583 702.87806 789.58598 702.94328 791.25977 703.25195 C 792.19445 703.42432 793.13162 703.66837 793.75 703.92773 C 794.20426 704.11826 794.37595 704.33134 794.38477 704.29297 C 794.79366 705.5299 794.66959 706.89547 794.60547 707.43945 C 793.01769 709.58226 791.55409 710.96355 791.32812 711.1582 L 776.1875 717.15039 L 772.92773 709.02734 L 787.95117 702.85938 z M 553.65625 715.53711 C 554.04921 715.53198 554.43376 715.5462 554.80469 715.5918 C 556.60367 715.81323 558.10901 716.45199 559.35742 717.86523 C 560.70031 719.38543 561.47878 721.15565 561.89844 722.95898 C 560.95133 722.5474 559.99286 722.46583 559.125 722.57617 C 557.98046 722.72169 556.84998 723.06155 555.79688 723.43555 C 555.54471 723.52505 555.56909 723.54372 555.32812 723.63672 C 555.35613 723.29138 555.42882 723.05184 555.43555 722.68555 C 555.45935 721.39039 555.33995 719.95773 554.81055 718.55469 C 554.38913 717.43779 553.55022 716.40769 552.46094 715.5957 C 552.86191 715.5666 553.26329 715.54223 553.65625 715.53711 z M 683.29102 716.48438 C 688.54282 716.91461 694.07688 718.48485 698.64648 722.52148 C 699.43146 723.2149 700.10649 723.95169 700.68945 724.72656 L 702.12695 728.35938 L 702.31836 728.5957 C 702.31836 728.5957 702.6327 728.93405 702.66406 728.97266 C 703.04594 730.11871 703.49759 731.23522 703.65039 732.47656 C 704.07078 735.89188 703.58639 739.58185 702.76172 743.0957 C 702.34368 741.9745 702.04324 740.95942 701.37109 739.61914 C 700.05529 736.99538 697.80762 735.33181 695.42188 734.43164 C 693.0361 733.53148 690.48853 733.30453 688.14062 733.34766 C 686.28734 733.38166 684.74387 733.64745 683.30273 733.89062 C 683.92087 732.54391 684.1983 732.15953 684.90625 730.16602 C 685.60229 728.20604 686.21811 726.11561 686.4707 724.12891 C 686.72329 722.1422 686.74393 720.10697 685.37305 718.45508 C 684.73387 717.68487 684.00643 717.08808 683.29102 716.48438 z M 675.82031 716.61719 C 676.44687 716.85635 680.01295 718.26 682.29492 721.00977 C 682.4117 721.15049 682.6936 722.11567 682.50195 723.62305 C 682.3103 725.13043 681.77683 727.02563 681.13672 728.82812 C 679.92309 732.24559 678.50977 734.99199 678.35156 735.30273 L 651.69922 755.88477 L 639.30078 740.08789 L 641.36328 737.79688 L 665.35352 718.7793 C 665.66751 718.66402 669.99547 717.23705 675.82031 716.61719 z M 546.01172 717.29883 C 546.61497 717.31673 547.84945 717.5184 549.86133 718.52734 C 550.47292 718.83406 550.80093 719.25802 551.06836 719.9668 C 551.33578 720.67558 551.45331 721.64435 551.43555 722.61133 C 551.40255 724.40483 550.98847 725.82319 550.92383 726.05469 L 541 738.9043 L 534.47461 733.7832 L 536.40625 726.54492 L 542.29297 718.89062 C 542.56062 718.73649 543.94171 718.09627 545.88281 717.30859 C 545.94211 717.30559 545.93111 717.29663 546.01172 717.29883 z M 728.70117 722.15039 C 729.82751 723.0814 731.03155 724.08316 732.61914 725.03906 C 734.63086 726.25033 736.95057 727.32691 739.4668 727.74023 C 741.98302 728.15356 744.76149 727.83703 747.21289 726.22266 C 748.46534 725.39787 749.23155 724.66835 750.1543 723.90625 C 749.11155 727.36204 747.68717 730.801 745.61523 733.54883 C 743.30241 736.61613 740.35569 738.8466 736.30273 739.66797 C 730.3271 740.87898 724.75155 739.47201 719.98828 737.21875 C 720.90934 737.05363 721.83714 736.90001 722.77539 736.55273 C 724.78856 735.8076 725.7879 734.03433 726.5625 732.1875 C 727.3371 730.34067 727.84936 728.22119 728.22656 726.17578 C 728.61009 724.09606 728.56312 723.62561 728.70117 722.15039 z M 454.83984 723.23633 L 461.58398 724.19922 L 459.1543 743.39648 L 454.83984 723.23633 z M 465.54492 724.76367 L 477.25586 726.4375 L 467.55469 782.63477 L 461.68945 755.23633 L 465.54492 724.76367 z M 560.18359 726.53516 C 560.30705 726.54769 560.36748 726.56394 560.36133 726.54492 C 561.33457 727.41245 561.90916 728.65821 562.125 729.16016 C 561.82179 731.80537 561.24841 733.72727 561.14844 734.01367 L 551.0293 746.77734 L 544.14648 741.375 L 554.07227 728.52148 C 554.36125 728.37615 555.5297 727.77508 557.13477 727.20508 C 558.03041 726.88701 558.96369 726.6295 559.62891 726.54492 C 559.87364 726.5138 560.06014 726.52262 560.18359 726.53516 z M 707.625 733.9375 C 713.67469 739.22153 724.3756 746.16612 737.09766 743.58789 C 737.36744 743.53322 737.61992 743.45193 737.88281 743.38672 L 695.58594 764.13672 L 699.98242 760.75586 L 700.17773 760.42578 C 700.17773 760.42578 701.8624 757.47478 703.64062 753.24414 L 703.6543 753.25195 C 703.6543 753.25195 703.78238 752.89923 703.86719 752.71094 C 704.77015 750.50893 705.6722 748.09217 706.39453 745.35742 C 707.34229 741.76919 707.81493 737.84491 707.625 733.9375 z M 688.21289 737.34766 C 690.23255 737.31056 692.32021 737.53757 694.01172 738.17578 C 695.70323 738.814 696.97489 739.77306 697.79688 741.41211 C 699.83632 745.47888 700.3227 748.12329 700.36719 749.62305 C 700.38829 750.33381 700.30789 750.75483 700.24609 751.00586 C 698.58295 755.09853 697.06318 757.79603 696.89453 758.08398 L 677.46094 773.02734 L 668.57812 777.38477 L 654.16992 759.03125 L 680.86523 738.41602 C 681.31232 738.28908 684.44923 737.4168 688.21289 737.34766 z M 533.35156 737.98633 L 537.45703 741.20898 L 529.80078 751.29297 L 533.35156 737.98633 z M 636.58398 743.10547 L 649.76953 759.90234 L 650.20898 760.46289 L 628.4707 777.15234 C 628.4453 777.13284 628.42794 777.10133 628.40234 777.08203 C 626.36818 775.54822 624.00372 774.61909 621.76172 774.00977 C 620.54588 773.67933 619.5986 773.61908 618.50781 773.45117 C 618.39729 773.41217 618.24847 773.31646 618.14844 773.28906 C 617.73655 773.17624 617.23828 773.16016 617.23828 773.16016 L 617.24023 773.23242 C 614.9399 772.95829 613.125 772.86133 613.125 772.86133 L 612.74414 772.86719 L 608.02539 774.81641 L 636.58398 743.10547 z M 540.60156 743.67773 L 550.95508 751.80273 L 517.85547 796.03516 L 527.07812 761.49023 L 540.60156 743.67773 z M 652.67773 763.60742 L 664.90625 779.1875 L 630.18164 796.22266 C 632.17499 792.94724 633.71464 788.63107 632.7207 783.72656 C 632.44384 782.36041 631.88527 781.17069 631.19336 780.10547 L 652.67773 763.60742 z M 613.50781 776.87695 C 613.8161 776.87727 615.33666 777.01373 617.41406 777.30273 C 617.46566 777.32983 617.46066 777.31622 617.52734 777.35742 C 618.04083 777.67455 619.00824 778.46794 620.24609 780.34766 C 620.6224 780.91908 620.69506 781.44973 620.57227 782.19727 C 620.44947 782.9448 620.06528 783.8433 619.56641 784.67188 C 618.6411 786.20866 617.57402 787.22838 617.40234 787.39648 L 602.38281 793.5625 L 598.91602 784.92969 L 601.82422 781.70312 L 613.50781 776.87695 z M 623.96289 779.10742 C 624.66219 779.44624 625.34388 779.80472 625.92578 780.23633 L 627.81641 782.69922 L 627.98828 782.56641 C 628.3317 783.1602 628.64863 783.77069 628.80078 784.52148 C 629.2038 786.51016 628.99179 788.43299 628.45312 790.20508 C 627.83871 789.37514 627.05087 788.82469 626.24414 788.48633 C 625.18018 788.04008 624.03067 787.76713 622.93164 787.56445 C 622.66886 787.51595 622.68062 787.54576 622.42578 787.50586 C 622.62291 787.22051 622.80496 787.04855 622.99414 786.73438 C 623.66232 785.62463 624.27646 784.32546 624.51953 782.8457 C 624.71308 781.66739 624.50063 780.35557 623.96289 779.10742 z M 595.93555 788.24023 L 598.16211 793.78711 L 586.54297 798.66992 L 595.93555 788.24023 z M 618.89453 791.10742 C 619.21651 791.12602 620.53131 791.18902 622.20703 791.49805 C 623.14171 791.67041 624.07888 791.91447 624.69727 792.17383 C 625.15163 792.3644 625.32329 792.57896 625.33203 792.54102 C 625.74115 793.77904 625.61482 795.14508 625.55078 795.6875 C 623.9646 797.82804 622.50559 799.20566 622.27734 799.40234 L 607.13281 805.39648 L 603.87305 797.27539 L 618.89453 791.10742 z M 599.65234 797.5 L 604.24805 808.94336 L 555.95508 832.63477 L 580.25781 805.65039 L 599.65234 797.5 z " /><path
       id="LayerB_Score"
       class="st1"
       d="m 349.35555,391.33556 h 223.5 m 15.6,3 200.9,101.2 m 14.2,11.7 133.2,179.4 m -355.9,-288.1 -116.4,490 m 327.7,-381.3 -320.3,380.7 m 461.9,-190.5 -462.7,198.4"
       style="enable-background:new 0 0 1127.90000000000009095 963.10000000000002274;display:inline" /></g></g></svg>
