<?xml version="1.0" encoding="UTF-8" standalone="no"?>
<svg
   xmlns:dc="http://purl.org/dc/elements/1.1/"
   xmlns:cc="http://creativecommons.org/ns#"
   xmlns:rdf="http://www.w3.org/1999/02/22-rdf-syntax-ns#"
   xmlns:svg="http://www.w3.org/2000/svg"
   xmlns="http://www.w3.org/2000/svg"
   xmlns:sodipodi="http://sodipodi.sourceforge.net/DTD/sodipodi-0.dtd"
   xmlns:inkscape="http://www.inkscape.org/namespaces/inkscape"
   sodipodi:docname="hatching.svg"
   inkscape:version="1.0 (4035a4fb49, 2020-05-01)"
   id="svg3119"
   version="1.1"
   viewBox="0 0 210 297"
   height="297mm"
   width="210mm">
  <defs
     id="defs3113" />
  <sodipodi:namedview
     inkscape:window-maximized="1"
     inkscape:window-y="-11"
     inkscape:window-x="-11"
     inkscape:window-height="1346"
     inkscape:window-width="2160"
     inkscape:snap-others="false"
     inkscape:bbox-paths="true"
     inkscape:snap-bbox="false"
     showgrid="false"
     inkscape:document-rotation="0"
     inkscape:current-layer="layer1"
     inkscape:document-units="mm"
     inkscape:cy="635.01519"
     inkscape:cx="782.17785"
     inkscape:zoom="0.71844976"
     inkscape:pageshadow="2"
     inkscape:pageopacity="0.0"
     borderopacity="1.0"
     bordercolor="#666666"
     pagecolor="#ffffff"
     id="base" />
  <metadata
     id="metadata3116">
    <rdf:RDF>
      <cc:Work
         rdf:about="">
        <dc:format>image/svg+xml</dc:format>
        <dc:type
           rdf:resource="http://purl.org/dc/dcmitype/StillImage" />
        <dc:title></dc:title>
      </cc:Work>
    </rdf:RDF>
  </metadata>
  <g
     id="layer1"
     inkscape:groupmode="layer"
     inkscape:label="Layer 1">
    <path
       d="m 12.136122,286.26898 -5.8703704,-5.87037 m 0,-5.87036 11.7407304,11.74073 m 5.87035,0 -17.6110908,-17.61109 m 0,-5.87036 23.4814498,23.48145 m 5.870371,0 -29.3518316,-29.35181 m 0,-5.87036 35.2221896,35.22217 m 5.87035,0 -41.0925539,-41.09253 m 0,-5.87036 46.9629149,46.96289 m 5.870368,0 -52.8332935,-52.83325 m 0,-5.87036 58.7036545,58.70361 m 5.87035,0 -64.5740151,-64.57397 m 0,-5.87036 70.4443761,70.44433 m 5.870371,0 -76.3147359,-76.31469 m 0,-5.87036 82.1850969,82.18505 m 5.870347,0 -88.0554543,-88.05541 m 0,-5.87036 93.9258143,93.92577 m 5.87038,0 -99.7962048,-99.79613 m 0,-5.87036 105.6665648,105.66649 m 5.87035,0 L 6.265696,174.73213 m 0,-5.87036 117.407264,117.40721 m 5.87037,0 L 6.2656849,162.99141 m 0,-5.87036 129.1480051,129.14793 m 5.87035,0 L 6.2656748,151.25069 m 0,-5.87036 L 147.1544,286.26898 m 5.87037,0 L 6.2656873,139.50997 m 0,-5.87036 152.6294427,152.62937 m 5.87035,0 L 6.2656769,127.76925 m 0,-5.87036 164.3701631,164.37009 m 5.87037,0 L 6.2656664,116.02853 m 0,-5.87036 176.1109036,176.11081 m 5.87035,0 L 6.2656706,104.2878 m 0,-5.870355 L 194.11728,286.26898 m 0,-5.87037 L 6.2656603,92.547076 M 194.11726,274.52825 6.2656603,86.676726 M 6.2656497,80.806358 194.11726,268.65789 m -10e-6,-5.87036 L 6.2656497,74.936 m 6.3e-6,-5.870361 187.851594,187.851531 m -1e-5,-5.87036 L 6.265656,63.195281 m -10e-6,-5.870363 187.851594,187.851532 m -2e-5,-5.87036 L 6.265646,51.454563 M 6.2656349,45.584199 194.11722,233.43573 m -1e-5,-5.87036 L 6.2656349,39.713841 m 8.4e-6,-5.87036 L 194.11721,221.69501 m 2e-5,-5.87036 L 6.2656433,27.973123 M 6.265633,22.10276 194.11723,209.95429 m -2e-5,-5.87036 L 6.265633,16.232402 M 6.2656224,10.362039 194.11721,198.21357 m -1e-5,-5.87036 L 6.2656224,4.4916809 M 12.135982,4.491678 194.1172,186.47285 m 2e-5,-5.87036 L 18.006342,4.491678 m 5.87036,0 170.240518,170.240452 m -2e-5,-5.87036 L 29.747061,4.4916809 M 35.617419,4.491678 194.1172,162.99141 m -1e-5,-5.87036 L 41.48778,4.491678 m 5.870361,0 146.759049,146.759012 m 2e-5,-5.87036 L 53.228501,4.4916809 m 5.870358,-2.9e-6 135.018351,135.018292 m -2e-5,-5.87036 L 64.96922,4.491678 m 5.870358,0 L 194.11719,127.76925 M 76.709938,4.4916809 194.11718,121.89889 m 0,-5.87036 L 82.580302,4.491678 m 5.87036,0 105.666528,105.666482 m 0,-5.87036 L 94.321023,4.491678 m 5.870357,2.9e-6 93.92579,93.9257561 m 0,-5.870361 -88.05543,-88.055398 m 5.87036,0 82.18506,82.185038 m 0,-5.870358 -76.3147,-76.31468 m 5.87036,2.9e-6 70.44436,70.4443161 m 0,-5.870358 -64.574,-64.573961 m 5.87036,0 58.70362,58.703601 m 0,-5.870361 -52.83326,-52.83324 m 5.87036,2.9e-6 46.96289,46.9628761 m 0,-5.870358 -41.09253,-41.092521 m 5.87036,0 35.22219,35.222161 M 164.76534,4.491678 194.11717,33.843481 M 170.6357,4.4916809 194.11715,27.973118 M 176.50606,4.491678 194.11715,22.10276 m -11.74073,-17.611082 11.74072,11.74072 m -5.87036,-11.74072 5.87036,5.870361"
       style="font-variation-settings:normal;vector-effect:none;fill:none;fill-opacity:1;stroke:#ff0000;stroke-width:0.264583px;stroke-linecap:butt;stroke-linejoin:miter;stroke-miterlimit:4;stroke-dasharray:none;stroke-dashoffset:0;stroke-opacity:1;stop-color:#000000"
       id="path5927" />
  </g>
</svg>
