<?xml version="1.0" encoding="UTF-8" standalone="no"?>
<svg
   xmlns:dc="http://purl.org/dc/elements/1.1/"
   xmlns:cc="http://creativecommons.org/ns#"
   xmlns:rdf="http://www.w3.org/1999/02/22-rdf-syntax-ns#"
   xmlns:svg="http://www.w3.org/2000/svg"
   xmlns="http://www.w3.org/2000/svg"
   xmlns:sodipodi="http://sodipodi.sourceforge.net/DTD/sodipodi-0.dtd"
   xmlns:inkscape="http://www.inkscape.org/namespaces/inkscape"
   sodipodi:docname="izzet.svg"
   inkscape:version="1.0 (4035a4fb49, 2020-05-01)"
   id="svg8"
   version="1.1"
   viewBox="0 0 210 297"
   height="297mm"
   width="210mm">
  <defs
     id="defs2" />
  <sodipodi:namedview
     inkscape:window-maximized="1"
     inkscape:window-y="-11"
     inkscape:window-x="-11"
     inkscape:window-height="1346"
     inkscape:window-width="2160"
     showgrid="false"
     inkscape:document-rotation="0"
     inkscape:current-layer="layer1"
     inkscape:document-units="mm"
     inkscape:cy="560"
     inkscape:cx="400"
     inkscape:zoom="0.51178808"
     inkscape:pageshadow="2"
     inkscape:pageopacity="0.0"
     borderopacity="1.0"
     bordercolor="#666666"
     pagecolor="#ffffff"
     id="base" />
  <metadata
     id="metadata5">
    <rdf:RDF>
      <cc:Work
         rdf:about="">
        <dc:format>image/svg+xml</dc:format>
        <dc:type
           rdf:resource="http://purl.org/dc/dcmitype/StillImage" />
        <dc:title></dc:title>
      </cc:Work>
    </rdf:RDF>
  </metadata>
  <g
     id="layer1"
     inkscape:groupmode="layer"
     inkscape:label="Layer 1">
    <path
       id="path847"
       d="m 73.260899,135.39137 c -3.159967,-0.31373 -5.969034,-1.45367 -8.58988,-3.4858 -0.456169,-0.3537 -1.47258,-1.23995 -2.258687,-1.96945 -1.598348,-1.48324 -1.624238,-1.5014 -4.426701,-3.10514 -5.111925,-2.92534 -7.788832,-4.73573 -9.664576,-6.5361 l -0.916132,-0.87933 -0.154341,0.23555 c -0.221992,0.3388 -0.419902,1.05392 -0.419902,1.51723 0,0.21961 0.105441,0.92921 0.234312,1.57688 0.351971,1.76893 0.322242,3.00217 -0.108145,4.48594 l -0.156757,0.54042 -0.410935,-0.76909 c -0.946671,-1.77176 -2.117861,-3.01489 -3.33068,-3.53527 -0.999583,-0.42888 -3.737404,-3.77627 -5.401063,-6.60358 -4.488427,-7.62789 -6.16216,-18.875666 -4.311602,-28.974705 1.854211,-10.118985 7.611733,-19.351199 16.249735,-26.056528 6.527606,-5.067116 14.593853,-8.391582 22.165767,-9.135519 1.380493,-0.135632 4.61993,-0.137595 5.951485,-0.0036 12.630304,1.270939 25.101223,8.971977 32.331743,19.965475 3.72033,5.656514 5.83746,11.589214 6.6725,18.69797 0.23551,2.004891 0.23501,7.407609 -10e-4,9.653587 -0.93404,8.8929 -3.93651,16.11045 -8.82338,21.2103 -0.78538,0.81961 -1.15266,1.12714 -1.67222,1.40016 -1.18451,0.62244 -2.34868,1.93441 -3.11918,3.51516 -0.14446,0.2964 -0.29144,0.53891 -0.3266,0.53891 -0.15591,0 -0.49013,-1.60051 -0.52843,-2.53055 -0.0329,-0.79787 0.005,-1.21468 0.20135,-2.20252 0.31744,-1.599 0.31645,-2.24885 -0.005,-2.96402 -0.13591,-0.30285 -0.2519,-0.55022 -0.25774,-0.5497 -0.006,5.3e-4 -0.36913,0.33989 -0.80729,0.75418 -2.044797,1.93341 -4.385326,3.52152 -9.700452,6.582 -1.340259,0.77172 -2.61412,1.52497 -2.830812,1.67387 -0.216693,0.14891 -0.957067,0.79552 -1.645287,1.43693 -2.269801,2.11542 -3.594273,3.08266 -5.458662,3.98634 -1.708442,0.82811 -3.285257,1.27782 -5.248557,1.49692 -0.7923,0.0884 -2.500277,0.10588 -3.23348,0.0331 z m -10.921915,-25.12685 0.54068,-0.58684 -0.128231,-1.1002 c -0.19793,-1.69822 -0.173536,-5.98623 0.04131,-7.2609 0.227681,-1.350825 0.559144,-2.710347 0.971738,-3.985616 0.187741,-0.580286 0.324078,-1.066568 0.30297,-1.080622 -0.02112,-0.01408 -0.464081,-0.304821 -0.984384,-0.646147 -5.222537,-3.426082 -8.899876,-9.278231 -9.917588,-15.782943 -0.374811,-2.395613 -0.380821,-5.456635 -0.0148,-7.537403 0.06801,-0.386613 0.109599,-0.718718 0.09242,-0.738012 -0.06451,-0.07246 -0.54223,1.113006 -0.977235,2.425047 -1.655913,4.994494 -2.04233,11.750393 -1.018533,17.807596 1.018887,6.028159 3.544201,11.60976 7.157241,15.81936 0.944938,1.10096 3.198605,3.33075 3.318461,3.28331 0.0414,-0.0164 0.318577,-0.29388 0.615952,-0.61663 z m 27.25907,-0.98363 c 4.226131,-4.24942 7.159692,-9.879405 8.449009,-16.215019 0.637862,-3.134426 0.747534,-4.308202 0.750781,-8.035535 0.0029,-3.404664 -0.05315,-4.264303 -0.425436,-6.513828 -0.277544,-1.677224 -0.62108,-3.141681 -1.044329,-4.451899 -0.367919,-1.138946 -0.910368,-2.475013 -0.977573,-2.407808 -0.01833,0.0183 0.02952,0.472643 0.106272,1.00966 0.344484,2.410518 0.274151,5.287462 -0.191313,7.825904 -1.303748,7.11003 -5.765387,13.221479 -11.976267,16.404807 l -1.015256,0.520359 0.06122,0.484249 c 0.257139,2.034188 0.859333,4.56017 1.604804,6.7315 0.289259,0.84252 0.611522,1.70056 0.716145,1.90675 0.363664,0.71676 2.578564,3.88956 2.715242,3.88956 0.04637,0 0.598381,-0.51692 1.226703,-1.1487 z m -5.14875,-15.2549 c 7.011724,-4.176775 10.929257,-12.340385 9.947872,-20.730019 -0.289377,-2.473792 -0.959624,-4.747674 -2.05747,-6.980155 -2.912052,-5.921706 -8.038693,-9.858442 -14.39344,-11.052693 -1.235961,-0.232275 -4.284432,-0.280661 -5.652345,-0.08972 -9.224658,1.287649 -16.31196,8.990523 -17.209051,18.703753 -0.656602,7.109308 2.30223,14.221405 7.725783,18.570355 0.724675,0.581093 2.049186,1.486617 2.174468,1.486617 0.044,0 0.261373,-0.369038 0.483053,-0.820082 1.015903,-2.067051 2.395227,-4.280007 3.914629,-6.280548 0.498743,-0.656677 1.002577,-1.408901 1.119625,-1.671614 0.217683,-0.488569 0.397407,-1.290762 0.438938,-1.95917 0.01916,-0.308369 0.06057,-0.380193 0.233344,-0.404741 0.316347,-0.04496 0.492877,-0.372397 0.492877,-0.91427 0,-0.831325 -0.364128,-1.55173 -0.971527,-1.922105 -0.319644,-0.194908 -1.098797,-0.243256 -1.494663,-0.09275 -0.202162,0.07686 -0.255079,0.04667 -0.451291,-0.25774 -0.297617,-0.461686 -0.810401,-0.708719 -1.299575,-0.626077 -1.028454,0.17376 -1.432833,1.52677 -0.706877,2.365131 l 0.224481,0.259237 -0.239948,0.193087 -0.239941,0.193086 0.189083,0.427457 c 0.103996,0.235101 0.236039,0.456478 0.29343,0.491945 0.05739,0.03547 0.104344,0.09695 0.104344,0.136618 0,0.03966 -0.428869,-0.142063 -0.953042,-0.403857 -1.274862,-0.636718 -1.767904,-1.092412 -2.22549,-2.056886 -1.240408,-2.614479 -1.919088,-5.520421 -1.569853,-6.721746 0.321461,-1.105787 1.536488,-2.622413 3.677867,-4.590808 2.742059,-2.520548 4.124275,-3.605203 5.733662,-4.499332 0.833708,-0.463183 2.754594,-1.211467 3.109909,-1.211467 0.09419,0 0.283667,-0.147379 0.421057,-0.327509 0.351602,-0.460971 1.087598,-0.933825 2.81848,-1.810782 1.910091,-0.967752 2.792139,-1.489811 3.35064,-1.983152 0.244853,-0.216287 0.445188,-0.363249 0.445188,-0.326583 0,0.115876 -0.557164,1.168629 -0.90906,1.717661 -0.444198,0.693033 -0.871531,1.601586 -0.871619,1.853163 -6.5e-5,0.161687 0.06814,0.209012 0.35139,0.243838 0.999946,0.122944 2.539526,-0.303414 4.281874,-1.185784 0.889526,-0.450481 1.137555,-0.544678 1.013617,-0.384955 -0.09025,0.116308 -0.431717,0.557164 -0.758806,0.979681 -1.115717,1.441216 -2.638774,4.033795 -2.638774,4.491783 0,0.09824 0.173676,0.335526 0.385944,0.527298 0.385849,0.34859 0.386102,0.348661 1.007536,0.28362 0.341873,-0.03578 1.486199,-0.226541 2.542938,-0.423909 2.32769,-0.434746 3.013693,-0.531238 4.381606,-0.616305 0.766295,-0.04765 1.054393,-0.03632 1.054393,0.0415 0,0.05888 -0.05839,0.107064 -0.12973,0.107064 -0.262141,0 -1.620979,0.755802 -2.186934,1.216398 -0.727812,0.592325 -1.550958,1.559119 -2.334001,2.741324 l -0.603861,0.911685 0.180559,0.353592 c 0.348744,0.682933 1.049126,1.529424 1.602447,1.936762 0.606466,0.446453 1.57236,0.88073 2.534282,1.139439 0.335062,0.09012 0.643012,0.193494 0.684336,0.229729 0.04131,0.03623 -0.211736,0.09276 -0.562343,0.125611 -2.38292,0.223278 -5.091156,1.867227 -6.35507,3.857639 -0.526122,0.828539 -0.537011,0.902785 -0.611717,4.170724 -0.05983,2.616972 -0.110008,3.34308 -0.35624,5.154831 -0.300543,2.211306 -0.483324,4.259665 -0.483966,5.423501 -5.36e-4,0.838432 -0.04213,0.838102 1.346982,0.01061 z M 95.285795,55.536465 c -0.334909,-0.22673 -0.977962,-0.626536 -1.429007,-0.888459 -0.45105,-0.261921 -0.817478,-0.502612 -0.81429,-0.534866 0.0084,-0.08504 4.129169,-3.218541 4.173847,-3.173865 0.02062,0.02065 -0.06927,0.350436 -0.199811,0.732864 -0.403273,1.181406 -0.806164,2.62633 -0.967549,3.470047 l -0.154267,0.806516 z m -41.650951,0.228498 c -0.01751,-0.06444 -0.126087,-0.560002 -0.241302,-1.10126 -0.115213,-0.541256 -0.413882,-1.615235 -0.663707,-2.386619 -0.249824,-0.771383 -0.44569,-1.408671 -0.435257,-1.416194 0.01044,-0.0075 0.976525,0.724603 2.146876,1.626946 l 2.127911,1.640626 -0.815773,0.482281 c -0.448674,0.265255 -1.077056,0.659827 -1.396405,0.876828 -0.637915,0.433472 -0.675983,0.44809 -0.722343,0.277392 z m 8.380997,-4.123864 c 0.0011,-0.01289 0.06465,-0.360838 0.141424,-0.773224 0.192115,-1.031993 0.274081,-3.956295 0.152258,-5.432105 -0.05514,-0.667984 -0.0902,-1.224572 -0.07791,-1.236861 0.0123,-0.01229 0.610359,0.787297 1.329044,1.776861 0.718684,0.989564 1.742149,2.342007 2.274367,3.00543 0.532213,0.663422 0.955149,1.215716 0.939852,1.227319 -0.0153,0.0116 -0.512835,0.153249 -1.105641,0.314766 -0.592806,0.161518 -1.645443,0.484374 -2.3392,0.717457 -1.28271,0.430957 -1.317439,0.441536 -1.314198,0.400357 z m 24.143237,-0.415001 c -0.664024,-0.227739 -1.706663,-0.550437 -2.316977,-0.717107 l -1.109665,-0.303036 0.573244,-0.700006 c 0.717894,-0.876643 1.929389,-2.47826 3.114326,-4.117194 l 0.912083,-1.261531 -0.07657,1.074083 c -0.151609,2.126578 -0.06339,4.638898 0.216268,6.15862 0.03082,0.167532 0.01974,0.299121 -0.02469,0.292422 -0.04443,-0.0067 -0.624015,-0.198513 -1.288033,-0.426251 z M 71.6622,49.016822 c 0.857553,-1.303025 2.033805,-4.44259 2.767915,-7.387904 0.133926,-0.537339 0.267156,-1.040243 0.296059,-1.117566 0.02887,-0.07732 0.238972,0.555317 0.466819,1.405863 0.793466,2.962021 1.962694,6.049487 2.66383,7.034148 0.112453,0.157922 0.183994,0.307595 0.15898,0.332607 -0.02504,0.02501 -0.778882,-0.0017 -1.675279,-0.05936 -1.180211,-0.07592 -2.025726,-0.07702 -3.0651,-0.004 -2.016043,0.141619 -1.854011,0.162086 -1.613224,-0.203779 z"
       style="fill:#000000;stroke-width:0.0937244" />
  </g>
</svg>
