<?xml version="1.0" encoding="UTF-8" standalone="no"?>
<!-- Created with Inkscape (http://www.inkscape.org/) -->

<svg
   width="210mm"
   height="297mm"
   viewBox="0 0 210 297"
   version="1.1"
   id="svg5"
   inkscape:version="1.3.2 (091e20e, 2023-11-25, custom)"
   sodipodi:docname="jund triangle.svg"
   xmlns:inkscape="http://www.inkscape.org/namespaces/inkscape"
   xmlns:sodipodi="http://sodipodi.sourceforge.net/DTD/sodipodi-0.dtd"
   xmlns="http://www.w3.org/2000/svg"
   xmlns:svg="http://www.w3.org/2000/svg">
  <sodipodi:namedview
     id="namedview7"
     pagecolor="#ffffff"
     bordercolor="#111111"
     borderopacity="1"
     inkscape:pageshadow="0"
     inkscape:pageopacity="0"
     inkscape:pagecheckerboard="1"
     inkscape:document-units="mm"
     showgrid="false"
     inkscape:snap-bbox="true"
     inkscape:snap-bbox-midpoints="false"
     inkscape:snap-center="true"
     inkscape:zoom="0.9943427"
     inkscape:cx="575.75723"
     inkscape:cy="566.70603"
     inkscape:window-width="2160"
     inkscape:window-height="1346"
     inkscape:window-x="-11"
     inkscape:window-y="-11"
     inkscape:window-maximized="1"
     inkscape:current-layer="layer1"
     inkscape:snap-nodes="true"
     inkscape:bbox-paths="false"
     inkscape:snap-others="false"
     inkscape:snap-global="true"
     inkscape:snap-bbox-edge-midpoints="true"
     inkscape:object-paths="false"
     inkscape:object-nodes="true"
     inkscape:bbox-nodes="false"
     inkscape:snap-smooth-nodes="false"
     inkscape:showpageshadow="2"
     inkscape:deskcolor="#d1d1d1" />
  <defs
     id="defs2" />
  <g
     inkscape:label="Layer 1"
     inkscape:groupmode="layer"
     id="layer1"
     style="display:inline">
    <g
       id="g1"
       transform="translate(79.977147,-106.56928)">
      <path
         id="path2011"
         style="opacity:0.98;fill:#73d5d5;stroke-width:0.4;stroke-linecap:round;stroke-linejoin:round"
         d="m 74.538445,190.703 a 50,50 0 0 1 -50,50 50,50 0 0 1 -50,-50 50,50 0 0 1 50,-50 50,50 0 0 1 50,50 z" />
      <path
         id="path945"
         d="m 7.048738,232.05671 c -5.9504,-1.60483 -10.62851,-5.90954 -13.84677,-12.74155 -1.69011,-3.58788 -1.93927,-4.7886 -1.94913,-9.39305 -0.009,-4.49855 0.24836,-5.84124 1.74458,-9.07882 3.10111,-6.71048 8.68583,-10.92361 16.18175,-12.20759 3.34896,-0.57367 4.61914,-0.51438 7.7743,0.36284 6.54118,1.81859 8.89605,1.36011 17.061151,-3.32166 3.024355,-1.73413 5.618865,-3.03293 5.765585,-2.88623 0.46172,0.46174 -1.50974,8.9179 -2.54656,10.9229 -1.123105,2.17188 -3.712035,4.73356 -7.789505,7.70754 -5.123071,3.7366 -4.598981,7.54859 1.1437,8.31884 3.10532,0.4165 5.980375,-1.27298 8.328285,-4.89401 1.2481,-1.92486 1.57808,-3.41509 1.89003,-8.53569 0.38263,-6.28048 1.57152,-9.96243 3.81918,-11.82783 1.55544,-1.29088 1.73828,-0.42244 0.62663,2.97629 -0.8421,2.57456 -0.89553,3.53544 -0.2974,5.34781 0.40101,1.21511 0.94365,2.20932 1.20581,2.20932 1.45946,0 3.87542,-4.54412 4.94363,-9.29835 0.49132,-2.18663 0.42205,-2.634 -0.44935,-2.90302 -7.88505,-2.43405 -14.394395,-9.41939 -13.65195,-14.65023 0.17699,-1.24685 0.42874,-1.0787 2.19686,1.46722 2.48834,3.58298 3.73948,4.15806 4.52893,2.0817 0.6993,-1.8393 0.21854,-4.77335 -1.27016,-7.7521 -2.56384,-5.1299 -5.94501,-6.04958 -11.651125,-3.16914 -4.348881,2.19531 -6.687551,2.37737 -11.039931,0.85949 l -3.06084,-1.06748 4.34766,-0.47982 c 5.61662,-0.61986 7.14261,-1.30384 7.14261,-3.20156 0,-1.08591 -0.57025,-1.76589 -2.08294,-2.48369 -2.98429,-1.41615 -9.25495,-2.79382 -14.90613,-3.27488 -5.99322,-0.5102 -5.14562,-1.16591 2.75971,-2.13498 18.965921,-2.32494 33.423816,4.19792 40.712806,18.36809 1.40572,2.73283 2.89212,6.01944 3.30309,7.30359 0.41099,1.28415 1.00422,2.17601 1.31828,1.9819 1.0522,-0.65029 0.55937,-6.13988 -0.91722,-10.21714 -0.80412,-2.22041 -1.65913,-4.59609 -1.9,-5.27929 -0.31157,-0.88379 0.0317,-0.70459 1.1895,0.62108 2.54827,2.91755 7.11659,12.65882 7.86435,16.76958 1.68544,9.26554 -0.67773,15.39439 -9.69646,25.14762 -5.08988,5.50436 -6.58534,7.45988 -5.70491,7.45988 0.57705,0 9.15406,-3.08283 10.33417,-3.71442 0.75613,-0.40467 2.46803,-1.72344 3.80422,-2.93062 3.04258,-2.74877 3.19556,-1.66678 0.52729,3.72967 -2.30975,4.67135 -4.94356,7.53247 -8.65647,9.4035 -3.69143,1.86016 -5.23216,2.19345 -13.09416,2.83245 -9.727415,0.79065 -13.333235,2.72889 -9.748165,5.23995 1.02346,0.71686 3.071045,0.98001 7.918965,1.01774 l 6.53856,0.0509 -3.10546,1.41908 c -8.10027,3.70145 -29.881026,5.92789 -37.606996,3.84418 z m 12.27168,-61.97582 c -2.30533,-2.44133 -4.025,-4.60532 -3.82146,-4.80887 0.20353,-0.20352 2.05463,0.56311 4.11353,1.70366 l 3.74345,2.07374 1.98413,-1.9231 c 2.30806,-2.23705 4.202501,-2.44052 5.998741,-0.64428 3.0287,3.02872 -0.44637,8.03763 -5.576341,8.03763 -1.9857,0 -2.74374,-0.52233 -6.44205,-4.43878 z m -20.07671,-4.25656 c -0.21854,-1.3664 -0.57489,-2.48437 -0.79198,-2.48437 -0.21714,0 -1.85833,0.98564 -3.6472,2.19033 -3.56808,2.40287 -3.89587,2.12683 -1.96613,-1.65573 2.64977,-5.19403 8.89145,-10.47215 12.38386,-10.47215 0.71379,0 2.08853,0.40891 3.05497,0.90868 4.15226,2.14723 2.85748,7.16558 -1.8488,7.16558 -1.77892,0 -3.62446,1.71077 -5.19267,4.81349 -0.56114,1.1102 -1.14952,2.01854 -1.30751,2.01854 -0.15798,0 -0.46604,-1.11797 -0.68454,-2.48437 z"
         style="display:inline;fill:#000000;stroke-width:0.621095"
         inkscape:label="red" />
    </g>
    <g
       id="g3"
       transform="translate(30.023242,-20.072834)">
      <path
         id="path2011-4"
         style="opacity:0.98;fill:#73d5d5;stroke-width:0.4;stroke-linecap:round;stroke-linejoin:round"
         d="m 174.53635,190.703 a 50,50 0 0 1 -50,50 50,50 0 0 1 -50.000004,-50 50,50 0 0 1 50.000004,-50 50,50 0 0 1 50,50 z" />
      <path
         id="path847"
         d="m 135.70205,230.62891 c -0.2908,-1.35591 -0.39313,-3.66374 -0.2274,-5.12852 0.37289,-3.29605 -0.63737,-6.20076 -2.15665,-6.20076 -0.90285,0 -0.9567,0.19737 -0.68484,2.51038 l 0.29504,2.5104 -2.86409,2.00905 c -1.57526,1.10496 -3.0899,2.00903 -3.36592,2.00903 -0.30831,0 -0.55431,-1.78856 -0.63798,-4.63837 -0.12909,-4.40016 -0.19111,-4.64617 -1.20653,-4.79037 -0.58873,-0.0836 -1.08842,-0.0836 -1.11043,0 -0.0219,0.0836 -0.39666,2.72096 -0.83253,5.86078 l -0.7925,5.70875 -2.2199,0.14331 c -1.81001,0.11687 -2.26171,-0.0144 -2.44643,-0.71359 -0.1246,-0.47134 -0.83337,-3.26697 -1.57507,-6.21255 -0.74171,-2.94555 -1.54716,-5.28936 -1.78989,-5.20847 -0.82178,0.27393 -1.7255,4.3288 -1.42737,6.40433 0.16002,1.11361 0.14384,3.20087 -0.0358,4.63837 -0.31878,2.55139 -0.36254,2.61355 -1.83844,2.61182 -0.83153,-9.5e-4 -2.19599,-0.41889 -3.03209,-0.9287 -2.485,-1.51521 -2.69249,-3.09215 -1.87717,-14.26643 0.96497,-13.22543 1.519,-12.3285 -8.97161,-14.52429 -7.03232,-1.47196 -9.09877,-2.53293 -10.89147,-5.59192 -3.68862,-6.29415 -2.23559,-19.5369 3.14254,-28.64096 1.93633,-3.27778 9.22085,-11.38677 9.86911,-10.98612 0.18646,0.11526 0.72677,2.05726 1.20069,4.31559 0.68928,3.28455 1.06196,4.1832 1.86266,4.49146 1.8836,0.72518 8.61246,2.76586 8.73675,2.64962 0.0683,-0.0638 -1.36774,-1.27334 -3.19116,-2.68776 -3.8362,-2.97574 -4.8915,-4.77438 -5.16365,-8.80072 -0.18097,-2.6775 -0.10033,-2.97418 1.05695,-3.88443 0.6891,-0.54204 3.01324,-1.62095 5.16479,-2.39756 4.59884,-1.66 13.5838,-2.70976 19.02159,-2.22238 7.87363,0.7057 16.03221,3.51925 19.85643,6.84765 l 1.66506,1.44918 -2.14078,1.88344 c -1.17744,1.03588 -3.42526,2.6651 -4.99518,3.62045 l -2.85438,1.73703 1.90292,-0.31194 c 1.04661,-0.17153 3.98772,-1.23892 6.53578,-2.37191 l 4.63288,-2.05998 1.49467,1.494 c 2.49677,2.49568 6.92513,9.59687 8.42167,13.50475 2.2018,5.74952 3.10391,10.57456 2.82198,15.09367 -0.28959,4.64163 -1.42543,7.50511 -3.80615,9.59537 -2.04345,1.79417 -3.2351,2.19938 -10.34125,3.51649 -6.00507,1.11304 -7.98413,1.99395 -8.42487,3.75002 -0.1602,0.63808 -0.16254,5.67109 -0.005,11.18446 0.15733,5.51335 0.162,10.93341 0.0108,12.04459 -0.25162,1.8457 -0.42421,2.05746 -1.99697,2.44988 -4.58164,1.14317 -4.20386,1.25884 -4.78827,-1.46619 z m -5.48066,-18.61978 c 0.16326,-0.86996 0.207,-3.38539 0.0973,-5.58983 -0.16398,-3.29608 -0.52975,-4.80706 -2.05916,-8.50567 l -1.85978,-4.49759 -0.71359,7.82311 c -0.5893,6.46037 -0.84743,7.84855 -1.48185,7.96912 -0.90964,0.17298 -1.17291,-1.45193 -1.66016,-10.2461 -0.17764,-3.20523 -0.46722,-5.8277 -0.64362,-5.8277 -0.58032,0 -2.49468,3.84307 -3.16103,6.34575 -0.73288,2.75254 -0.88624,12.07294 -0.21607,13.13215 0.35423,0.55987 0.66424,0.5818 1.68015,0.11885 1.62003,-0.73813 5.27741,-0.66583 7.3855,0.146 2.31649,0.89207 2.3011,0.89716 2.63226,-0.86815 z m -17.80162,-16.49438 c 3.53855,-0.65469 4.91966,-2.22101 4.52127,-5.12762 -0.45104,-3.29068 -1.93758,-6.09572 -4.67085,-8.8137 -2.98662,-2.96992 -5.43846,-4.23206 -8.77104,-4.51513 -3.24817,-0.27589 -5.58849,0.5653 -8.17278,2.93761 -5.12183,4.7017 -5.94322,12.73114 -1.49101,14.5753 3.02738,1.25398 13.91799,1.8069 18.58441,0.94354 z m 43.08961,-0.60136 c 2.28009,-1.2353 3.00362,-2.5828 2.99175,-5.57168 -0.0308,-7.74328 -7.75433,-13.928 -14.89633,-11.92837 -6.18177,1.73081 -12.07658,10.02129 -11.04297,15.5309 0.51953,2.76935 1.81555,3.07496 12.39143,2.92195 7.48959,-0.10842 9.29894,-0.27168 10.55612,-0.9528 z"
         style="display:inline;fill:#000000;stroke-width:0.475729"
         inkscape:label="black" />
    </g>
    <g
       id="g2"
       transform="translate(60.922197,75.030819)">
      <path
         id="path2011-48"
         style="opacity:0.98;fill:#73d5d5;stroke-width:0.4;stroke-linecap:round;stroke-linejoin:round"
         d="m 43.637392,95.59935 a 50,50 0 0 1 -50.0000004,50 50,50 0 0 1 -49.9999996,-50 50,50 0 0 1 49.9999996,-50 50,50 0 0 1 50.0000004,50 z" />
      <path
         id="path943"
         d="m -8.346558,136.1328 c -0.70154,-0.89185 -1.43101,-2.24115 -1.62109,-2.99841 -0.47982,-1.9118 -1.05051,-1.73758 -3.24238,0.9899 -2.07452,2.58148 -2.75208,2.4506 -3.38711,-0.65436 -0.52105,-2.54769 -2.31318,-3.05235 -9.38961,-2.64406 -4.18947,0.24173 -5.43859,0.14515 -5.26281,-0.40649 0.43853,-1.37642 6.578,-4.19929 10.0264,-4.61005 1.86642,-0.2224 4.05318,-0.83647 4.85946,-1.36477 1.2534,-0.82124 1.46551,-1.40705 1.46271,-4.03936 -0.004,-3.78004 -0.92077,-7.24561 -2.50699,-9.47715 -2.2189,-3.12161 -11.62634,-6.57274 -11.62634,-4.26514 0,1.34022 -3.91747,4.3779 -6.56536,5.0909 -3.45276,0.92975 -6.04591,0.27608 -8.36091,-2.1076 -4.22992,-4.35542 -4.88592,-8.93884 -1.80365,-12.601901 l 1.48299,-1.76244 -1.35919,-1.8395 c -2.87846,-3.89568 -1.07472,-10.231151 3.37048,-11.838561 1.63961,-0.59287 2.04414,-1.05117 2.04414,-2.31578 0,-0.86714 0.36201,-1.87706 0.80443,-2.24425 0.58879,-0.48866 0.73138,-1.73168 0.53189,-4.63708 -0.23781,-3.46367 -0.0948,-4.23213 1.12165,-6.03104 2.68023,-3.96328 8.1058,-5.25822 12.39632,-2.95865 l 2.17279,1.16455 1.85675,-3.48362 c 4.64743,-8.71947 15.73,-10.265215 22.9872099,-3.20617 2.03225,1.97677 2.20905,2.03229 4.69336,1.47411 6.0228901,-1.35324 12.4158301,2.2808 14.5416401,8.26616 0.7101,1.99936 1.34091,2.86679 2.08476,2.86679 0.58661,0 1.74936,0.68281 2.58391,1.51734 1.24162,1.24162 1.46417,1.91372 1.22476,3.69868 -0.26686,1.98952 -0.0964,2.32228 1.93781,3.78454 3.98156,2.86201 5.89143,9.559181 4.08272,14.316471 -0.50286,1.32264 -0.40239,1.81889 0.57996,2.86455 2.71414,2.88906 1.82138,7.613451 -1.79176,9.481891 -2.29212,1.18529 -4.98858,0.66331 -7.17417,-1.3888 -1.43546,-1.34781 -2.10745,-1.52693 -5.59574,-1.49158 -5.21996,0.053 -13.3038301,2.6098 -14.6247301,4.62575 -1.23658,1.88725 -2.82888,11.50941 -2.33779,14.12714 0.21349,1.13852 0.90327,2.54975 1.53263,3.1361 1.57894,1.47099 6.8794101,3.05246 10.2307001,3.05246 2.85611,0 5.06347,0.77937 5.06347,1.78781 0,0.31256 -1.04459,0.56829 -2.32132,0.56829 -2.81472,0 -3.47487,0.76345 -1.45565,1.68346 2.76134,1.25814 0.95953,1.98732 -4.36398,1.76603 -4.9695901,-0.20659 -5.0546801,-0.18678 -5.4142001,1.26272 -0.47763,1.92581 -1.86621,1.6785 -5.2430799,-0.93379 -1.43,-1.10624 -2.90954,-2.01134 -3.28784,-2.01134 -0.37831,0 -1.35696,1.21677 -2.17477,2.7039 l -1.48695,2.7039 z m -5.3753,-31.91223 c -0.007,-3.65408 -5.46633,-7.418891 -9.87834,-6.813201 -3.18417,0.43712 -3.64803,1.12668 -1.08175,1.6081 1.96563,0.36875 8.68102,4.338341 9.45339,5.588061 0.6154,0.99575 1.50917,0.76859 1.5067,-0.38296 z m 23.1176399,-5.135401 3.3675301,-0.97896 -0.93968,-1.43415 c -0.51684,-0.78878 -1.108,-1.41637 -1.31372,-1.39467 -0.20571,0.0223 -1.9498101,1.17076 -3.8757801,2.55341 -3.82848,2.748491 -5.20697,4.612661 -2.29888,3.108811 0.93115,-0.48151 3.20839,-1.316001 5.06053,-1.854441 z m -3.2977,-11.91258 c 0.45961,-1.099991 0.67655,-2.257361 0.48211,-2.571981 -0.29816,-0.48244 -4.0709,-2.32125 -4.76259,-2.32125 -0.12244,0 -0.22263,2.13855 -0.22263,4.752311 v 4.75233 l 1.83371,-1.30574 c 1.00856,-0.71814 2.20977,-2.20571 2.66935,-3.30567 z m -23.7364999,1.9208 c -1.59058,-1.99342 -1.64078,-2.0097 -3.6312,-1.17806 -1.11007,0.46381 -2.11849,0.84332 -2.24089,0.84332 -0.12244,0 -0.22262,0.22062 -0.22262,0.49029 0,0.45684 4.26599,1.60144 6.65165,1.7847 0.89107,0.0684 0.80412,-0.23444 -0.55699,-1.94025 z m 8.63097,-4.389261 c 0,-1.97218 -0.20303,-2.32624 -1.47256,-2.56894 -1.11081,-0.21239 -1.47257,-0.0316 -1.47257,0.73544 0,0.92344 2.08983,4.120941 2.69337,4.120941 0.13847,0 0.25176,-1.029341 0.25176,-2.287441 z"
         style="display:inline;fill:#000000;stroke-width:0.589025"
         inkscape:label="green" />
    </g>
  </g>
</svg>
