<?xml version="1.0" encoding="UTF-8" standalone="no"?>
<!-- Created with Inkscape (http://www.inkscape.org/) -->

<svg
   width="210mm"
   height="297mm"
   viewBox="0 0 210 297"
   version="1.1"
   id="svg5"
   inkscape:version="1.1 (c68e22c387, 2021-05-23)"
   sodipodi:docname="kodama.svg"
   xmlns:inkscape="http://www.inkscape.org/namespaces/inkscape"
   xmlns:sodipodi="http://sodipodi.sourceforge.net/DTD/sodipodi-0.dtd"
   xmlns:xlink="http://www.w3.org/1999/xlink"
   xmlns="http://www.w3.org/2000/svg"
   xmlns:svg="http://www.w3.org/2000/svg">
  <sodipodi:namedview
     id="namedview7"
     pagecolor="#ffffff"
     bordercolor="#111111"
     borderopacity="1"
     inkscape:pageshadow="0"
     inkscape:pageopacity="0"
     inkscape:pagecheckerboard="1"
     inkscape:document-units="mm"
     showgrid="false"
     inkscape:zoom="2.6832492"
     inkscape:cx="324.79279"
     inkscape:cy="417.96342"
     inkscape:window-width="1920"
     inkscape:window-height="1017"
     inkscape:window-x="1912"
     inkscape:window-y="-8"
     inkscape:window-maximized="1"
     inkscape:current-layer="layer1"
     inkscape:snap-global="false" />
  <defs
     id="defs2">
    <linearGradient
       inkscape:collect="always"
       id="linearGradient1691">
      <stop
         style="stop-color:#0000ff;stop-opacity:1"
         offset="0"
         id="stop1687" />
      <stop
         style="stop-color:#00e3ff;stop-opacity:1"
         offset="1"
         id="stop1689" />
    </linearGradient>
    <radialGradient
       inkscape:collect="always"
       xlink:href="#linearGradient1691"
       id="radialGradient1796"
       cx="51.726871"
       cy="114.89528"
       fx="51.726871"
       fy="114.89528"
       r="12.459061"
       gradientTransform="matrix(-0.96443758,-0.01049931,0.02147581,-1.9727028,99.146739,342.09263)"
       gradientUnits="userSpaceOnUse"
       spreadMethod="pad" />
  </defs>
  <g
     inkscape:label="Layer 1"
     inkscape:groupmode="layer"
     id="layer1"
     style="display:inline">
    <g
       id="g9241"
       style="display:none">
      <path
         id="path8742"
         style="display:inline;fill:#ffffff;fill-opacity:1;stroke-width:0.264583"
         d="m 96.961529,134.7432 c 1.24483,-1.30521 1.827374,-3.10796 2.137439,-6.61458 0.292907,-3.31259 0.476972,-3.70553 1.301352,-2.77813 0.69831,0.78558 0.99033,2.45084 0.99187,5.65615 0.002,3.44545 0.18001,3.84758 1.57099,3.54207 2.38581,-0.52401 3.3727,-4.31217 3.10284,-11.9102 -0.17167,-4.83332 -0.6405,-8.29986 -1.48833,-11.00475 -0.65691,-2.09577 -0.68941,-2.547 -0.15131,-2.10041 0.91133,0.75633 1.96269,5.109 2.41456,9.99631 0.18555,2.00692 0.45652,2.32065 1.2485,1.44552 1.73169,-1.91349 1.88723,-6.04044 0.401,-10.63979 -0.90331,-2.79542 -1.77026,-4.25227 -3.73942,-6.28386 -1.84355,-1.90199 -1.87105,-1.91823 -3.24959,-1.91823 -0.76467,0 -1.989164,-0.13823 -2.7211,-0.30718 l -1.330791,-0.30718 -1.798248,1.36728 c -2.039488,1.5507 -3.248406,3.16353 -4.097353,5.46632 -0.506278,1.3733 -0.598604,2.24759 -0.688491,6.51986 -0.09675,4.59833 -0.06517,5.02119 0.464404,6.2177 l 0.568214,1.28383 0.498158,-0.65988 c 0.273986,-0.36292 0.6356,-1.19636 0.803587,-1.85208 0.167984,-0.65571 0.397436,-1.43033 0.509894,-1.72137 0.112456,-0.29105 0.418629,-1.36261 0.680387,-2.38125 1.314611,-5.1159 1.610061,-6.05147 1.946423,-6.16359 0.293259,-0.0978 0.327734,0.13163 0.175678,1.1689 -0.171916,1.17276 -1.497941,6.01775 -1.910096,6.97906 -0.269745,0.62916 -0.277783,1.82641 -0.05951,8.86354 0.150093,4.83883 0.309658,6.86319 0.594376,7.54063 0.658413,1.56658 0.841301,1.62626 1.824562,0.59531 z m 7.363341,-33.67217 c 0.77876,-0.14769 1.91954,-0.51232 2.53507,-0.81029 1.31208,-0.63517 3.26401,-2.498855 3.2672,-3.119501 0.001,-0.237541 -0.20204,-1.22894 -0.45169,-2.203109 -0.3958,-1.544484 -0.41212,-2.035588 -0.12749,-3.836458 0.17952,-1.135883 0.46024,-2.926466 0.62382,-3.979074 0.35481,-2.283238 0.0518,-4.585388 -0.86359,-6.561935 -0.83011,-1.792336 -3.93643,-4.861367 -5.87062,-5.800149 -1.34532,-0.652964 -1.81976,-0.740094 -3.968754,-0.728848 -6.069217,0.03176 -11.029781,3.447387 -13.056727,8.99029 -0.739204,2.02143 -0.763569,3.57683 -0.09309,5.942245 0.653868,2.306796 4.99428,7.673472 7.996703,9.887468 2.76614,2.039761 6.541768,2.876941 10.009168,2.219361 z" />
      <path
         id="path6750"
         style="display:inline;fill:#000000;stroke-width:0.264583"
         d="m 95.081722,135.91353 c -1.022556,-1.23211 -1.538666,-5.34631 -1.611685,-12.84768 l -0.01387,-1.42474 -0.559697,0.71154 c -0.815051,1.03616 -1.556924,0.81708 -2.29952,-0.67909 -0.500248,-1.0079 -0.637791,-1.81873 -0.762981,-4.49792 -0.342935,-7.33894 1.031668,-11.51464 4.79457,-14.56472 1.447914,-1.17362 1.662001,-1.44702 1.306348,-1.66824 -3.298581,-2.051784 -5.237551,-3.852842 -7.769304,-7.216699 -1.636493,-2.174354 -2.263812,-3.256917 -2.684299,-4.632293 -1.2593,-4.119052 -0.04219,-8.096533 3.586086,-11.719197 2.141067,-2.137757 3.755475,-3.021567 7.02741,-3.847166 4.55637,-1.149698 7.92059,-0.209961 11.34757,3.169748 2.56542,2.530045 3.50836,4.530869 3.67979,7.80814 0.0949,1.813604 0.003,3.036644 -0.34195,4.562818 -0.61142,2.703552 -0.6205,4.915988 -0.0273,6.65335 0,0 0.48909,1.084138 0.47571,1.393285 -0.0143,0.331276 -0.69033,1.177962 -0.69033,1.177962 -1.03758,1.770502 -2.51212,2.662782 -6.13519,3.712552 -0.16384,0.0475 0.39403,0.79782 1.23972,1.66745 2.93608,3.01919 4.58892,7.45467 4.60491,12.3575 0.009,2.61502 -0.0602,3.05277 -0.6644,4.23333 -0.45252,0.88416 -0.99553,1.49056 -1.65293,1.84589 l -0.97901,0.52916 -0.005,3.04271 c -0.0112,6.39387 -1.58956,9.78958 -4.55041,9.78958 -1.61508,0 -1.92456,-0.64512 -1.94955,-4.06386 -0.032,-4.37855 -0.13149,-4.79686 -0.497485,-2.09155 -0.519647,3.84115 -2.300674,6.94916 -3.982159,6.94916 -0.326361,0 -0.724477,-0.15796 -0.884704,-0.35102 z m 1.879807,-1.17033 c 1.24483,-1.30521 1.827374,-3.10796 2.137439,-6.61458 0.292907,-3.31259 0.476972,-3.70553 1.301352,-2.77813 0.69831,0.78558 0.99033,2.45084 0.99187,5.65615 0.002,3.44545 0.18001,3.84758 1.57099,3.54207 2.38581,-0.52401 3.3727,-4.31217 3.10284,-11.9102 -0.17167,-4.83332 -0.6405,-8.29986 -1.48833,-11.00475 -0.65691,-2.09577 -0.68941,-2.547 -0.15131,-2.10041 0.91133,0.75633 1.96269,5.109 2.41456,9.99631 0.18555,2.00692 0.45652,2.32065 1.2485,1.44552 1.73169,-1.91349 1.88723,-6.04044 0.401,-10.63979 -0.90331,-2.79542 -1.77026,-4.25227 -3.73942,-6.28386 -1.84355,-1.90199 -1.87105,-1.91823 -3.24959,-1.91823 -0.76467,0 -1.989164,-0.13823 -2.7211,-0.30718 l -1.330791,-0.30718 -1.798248,1.36728 c -2.039488,1.5507 -3.248406,3.16353 -4.097353,5.46632 -0.506278,1.3733 -0.598604,2.24759 -0.688491,6.51986 -0.09675,4.59833 -0.06517,5.02119 0.464404,6.2177 l 0.568214,1.28383 0.498158,-0.65988 c 0.273986,-0.36292 0.6356,-1.19636 0.803587,-1.85208 0.167984,-0.65571 0.397436,-1.43033 0.509894,-1.72137 0.112456,-0.29105 0.418629,-1.36261 0.680387,-2.38125 1.314611,-5.1159 1.610061,-6.05147 1.946423,-6.16359 0.293259,-0.0978 0.327734,0.13163 0.175678,1.1689 -0.171916,1.17276 -1.497941,6.01775 -1.910096,6.97906 -0.269745,0.62916 -0.277783,1.82641 -0.05951,8.86354 0.150093,4.83883 0.309658,6.86319 0.594376,7.54063 0.658413,1.56658 0.841301,1.62626 1.824562,0.59531 z m 7.363341,-33.67217 c 0.77876,-0.14769 1.91954,-0.51232 2.53507,-0.81029 1.31208,-0.63517 3.26401,-2.498855 3.2672,-3.119501 0.001,-0.237541 -0.20204,-1.22894 -0.45169,-2.203109 -0.3958,-1.544484 -0.41212,-2.035588 -0.12749,-3.836458 0.17952,-1.135883 0.46024,-2.926466 0.62382,-3.979074 0.35481,-2.283238 0.0518,-4.585388 -0.86359,-6.561935 -0.83011,-1.792336 -3.93643,-4.861367 -5.87062,-5.800149 -1.34532,-0.652964 -1.81976,-0.740094 -3.968754,-0.728848 -6.069217,0.03176 -11.029781,3.447387 -13.056727,8.99029 -0.739204,2.02143 -0.763569,3.57683 -0.09309,5.942245 0.653868,2.306796 4.99428,7.673472 7.996703,9.887468 2.76614,2.039761 6.541768,2.876941 10.009168,2.219361 z m -2.75481,-0.9662 c -0.34789,-0.347878 -0.16746,-1.601347 0.28663,-1.991343 1.05986,-0.910259 2.44739,-0.687282 2.44739,0.393295 0,1.146643 -2.01036,2.321708 -2.73402,1.598048 z M 89.996558,90.602615 c -0.956382,-1.018024 -0.906791,-2.838961 0.100925,-3.70576 1.628801,-1.401037 4.152434,-0.261514 4.152434,1.874991 0,2.176643 -2.797294,3.380677 -4.253359,1.830769 z m 7.825234,-1.869229 c 0.145521,-0.126621 0.651537,-0.578998 1.124479,-1.005279 0.472943,-0.42628 0.859896,-0.646906 0.859896,-0.490283 0,0.481565 -0.890434,1.345787 -1.5875,1.540769 -0.38278,0.107069 -0.549986,0.08802 -0.396875,-0.04521 z m 4.531968,-4.334954 c -0.92882,-1.103842 -1.1359,-2.391075 -0.54544,-3.390634 0.86629,-1.466521 2.27404,-1.739112 3.5288,-0.683303 1.09202,0.918876 1.51144,2.469453 0.95763,3.540389 -0.82196,1.5895 -2.82436,1.860595 -3.94099,0.533548 z"
         sodipodi:nodetypes="cscssssssssssccssssscssccssssccssscsssssssssscsssscsssscsssssssscssscsssssssssssssssssssssssss" />
    </g>
    <g
       id="g8736"
       style="display:none">
      <path
         id="path8127"
         style="display:inline;fill:#ffffff;fill-opacity:1;stroke-width:0.264583"
         d="m 77.845751,136.87017 c 2.326436,-0.54341 5.233003,-2.08444 5.85485,-3.10418 0.632632,-1.03743 0.624094,-1.60583 -0.03402,-2.26394 -1.494861,-1.49486 -5.465932,0.43695 -8.526894,4.14809 -1.712121,2.07579 -1.454608,2.19189 2.706061,1.22003 z m -3.132535,-1.97399 0.783937,-0.83921 -2.066846,-1.14099 c -2.982285,-1.64636 -4.40037,-2.08186 -5.413068,-1.66239 -1.552937,0.64325 -2.032122,3.14003 -0.688062,3.58513 1.083985,0.35898 4.014952,0.83689 5.317191,0.867 1.118756,0.0259 1.383218,-0.0777 2.066848,-0.80954 z m 1.545035,-2.23309 c 0,-0.50116 0.407003,-1.06384 1.48114,-2.04766 1.873319,-1.71582 2.223026,-2.40671 2.223026,-4.3919 0,-1.24641 0.08783,-1.60064 0.396875,-1.60064 0.312481,0 0.396875,0.36941 0.396875,1.73718 0,2.06945 -0.177112,2.46153 -1.948545,4.31368 l -1.358746,1.42066 1.058333,-0.68276 c 0.582083,-0.37552 1.588204,-0.86913 2.235822,-1.0969 0.64762,-0.22777 1.394526,-0.61055 1.659795,-0.85061 0.707638,-0.64041 1.348134,-3.09176 1.151109,-4.40561 -0.212826,-1.41923 -1.269159,-3.69359 -2.102588,-4.52702 -0.631807,-0.6318 -0.770284,-0.65239 -4.400955,-0.65406 -2.061739,-10e-4 -4.164309,-0.0797 -4.672375,-0.17502 -0.865677,-0.16241 -1.018545,-0.0756 -2.431378,1.38139 -1.639959,1.69116 -2.424933,3.47611 -2.413325,5.48768 0.0061,1.06633 0.360733,3.00454 0.59196,3.23577 0.06346,0.0635 0.758478,0.28365 1.544489,0.48931 0.786011,0.20566 1.667238,0.451 1.958279,0.5452 0.310822,0.10061 0.05048,-0.26204 -0.630944,-0.8789 l -1.160108,-1.05017 0.123249,-2.07877 c 0.119213,-2.01076 0.779891,-3.96974 1.242414,-3.68388 0.117443,0.0726 0.05722,0.93968 -0.133834,1.92688 -0.584343,3.01939 -0.502991,3.53897 0.682424,4.35846 0.699765,0.48375 1.056455,0.94485 1.114438,1.44063 0.06579,0.5625 0.417915,0.92881 1.540486,1.60254 0.800365,0.48036 1.544506,0.87387 1.653646,0.87447 0.109141,5.3e-4 0.198438,-0.30988 0.198438,-0.68995 z m 5.549476,-13.8843 c 1.7515,-0.37563 3.671396,-2.19678 4.774833,-4.52924 0.69406,-1.46711 0.787799,-1.95142 0.787982,-4.07118 2.64e-4,-3.7919 -1.151284,-6.42014 -3.85648,-8.80135 -1.865619,-1.64218 -3.702449,-2.263649 -6.726645,-2.27587 -2.870052,-0.01159 -4.094046,0.412044 -6.551816,2.26768 -3.755443,2.83539 -5.696445,8.06744 -4.539123,12.2354 0.583631,2.10189 3.416893,4.33363 6.460731,5.08907 1.663711,0.41292 7.867534,0.46787 9.650518,0.0855 z" />
      <path
         id="path1915"
         style="display:inline;fill:#000000;stroke-width:0.264583"
         d="m 73.711308,138.1205 c -0.416198,-0.16806 -0.530638,-0.39419 -0.439851,-0.86912 0.1182,-0.61833 0.054,-0.64833 -1.744755,-0.81551 -4.346462,-0.40396 -5.851785,-1.10294 -5.851785,-2.7172 0,-1.035 0.484712,-2.11951 1.261468,-2.82247 0.488915,-0.44246 0.497339,-0.54273 0.133318,-1.58687 -0.260472,-0.74712 -0.351698,-1.77499 -0.276715,-3.11781 0.134245,-2.40407 0.836962,-4.02493 2.495378,-5.75575 0.630235,-0.65775 1.11683,-1.215 1.081321,-1.23834 -0.03551,-0.0233 -0.778936,-0.47021 -1.652061,-0.99307 -3.127381,-1.87278 -4.086149,-3.53818 -4.095232,-7.1135 -0.0068,-2.68714 0.628785,-5.0521 1.8556,-6.90426 1.221306,-1.84383 3.862403,-4.15106 5.806215,-5.072237 1.592887,-0.754869 1.937978,-0.816874 4.503208,-0.809122 2.263064,0.0068 3.060285,0.120772 4.300032,0.614529 2.976989,1.18565 5.430539,3.80109 6.545374,6.97724 0.403651,1.14999 0.531678,2.18925 0.531678,4.31586 0,2.46551 -0.08221,2.9749 -0.68616,4.25154 -0.878464,1.85692 -3.291642,4.47686 -4.4869,4.87133 -0.920691,0.30385 -1.138708,0.61811 -0.641852,0.92518 0.148778,0.0919 0.647366,0.90265 1.107979,1.80155 1.096593,2.14006 1.210488,4.92259 0.277895,6.78918 l -0.592582,1.18604 0.791019,0.61907 c 0.641938,0.50239 0.791017,0.81738 0.791017,1.67136 0,1.45563 -0.581758,2.44224 -2.025975,3.43589 -1.496856,1.02986 -3.247115,1.71551 -5.69205,2.22982 -2.068261,0.43508 -2.491573,0.45135 -3.295584,0.12667 z m 4.134443,-1.25033 c 2.326436,-0.54341 5.233003,-2.08444 5.85485,-3.10418 0.632632,-1.03743 0.624094,-1.60583 -0.03402,-2.26394 -1.494861,-1.49486 -5.465932,0.43695 -8.526894,4.14809 -1.712121,2.07579 -1.454608,2.19189 2.706061,1.22003 z m -3.132535,-1.97399 0.783937,-0.83921 -2.066846,-1.14099 c -2.982285,-1.64636 -4.40037,-2.08186 -5.413068,-1.66239 -1.552937,0.64325 -2.032122,3.14003 -0.688062,3.58513 1.083985,0.35898 4.014952,0.83689 5.317191,0.867 1.118756,0.0259 1.383218,-0.0777 2.066848,-0.80954 z m 1.545035,-2.23309 c 0,-0.50116 0.407003,-1.06384 1.48114,-2.04766 1.873319,-1.71582 2.223026,-2.40671 2.223026,-4.3919 0,-1.24641 0.08783,-1.60064 0.396875,-1.60064 0.312481,0 0.396875,0.36941 0.396875,1.73718 0,2.06945 -0.177112,2.46153 -1.948545,4.31368 l -1.358746,1.42066 1.058333,-0.68276 c 0.582083,-0.37552 1.588204,-0.86913 2.235822,-1.0969 0.64762,-0.22777 1.394526,-0.61055 1.659795,-0.85061 0.707638,-0.64041 1.348134,-3.09176 1.151109,-4.40561 -0.212826,-1.41923 -1.269159,-3.69359 -2.102588,-4.52702 -0.631807,-0.6318 -0.770284,-0.65239 -4.400955,-0.65406 -2.061739,-10e-4 -4.164309,-0.0797 -4.672375,-0.17502 -0.865677,-0.16241 -1.018545,-0.0756 -2.431378,1.38139 -1.639959,1.69116 -2.424933,3.47611 -2.413325,5.48768 0.0061,1.06633 0.360733,3.00454 0.59196,3.23577 0.06346,0.0635 0.758478,0.28365 1.544489,0.48931 0.786011,0.20566 1.667238,0.451 1.958279,0.5452 0.310822,0.10061 0.05048,-0.26204 -0.630944,-0.8789 l -1.160108,-1.05017 0.123249,-2.07877 c 0.119213,-2.01076 0.779891,-3.96974 1.242414,-3.68388 0.117443,0.0726 0.05722,0.93968 -0.133834,1.92688 -0.584343,3.01939 -0.502991,3.53897 0.682424,4.35846 0.699765,0.48375 1.056455,0.94485 1.114438,1.44063 0.06579,0.5625 0.417915,0.92881 1.540486,1.60254 0.800365,0.48036 1.544506,0.87387 1.653646,0.87447 0.109141,5.3e-4 0.198438,-0.30988 0.198438,-0.68995 z m 5.549476,-13.8843 c 1.7515,-0.37563 3.671396,-2.19678 4.774833,-4.52924 0.69406,-1.46711 0.787799,-1.95142 0.787982,-4.07118 2.64e-4,-3.7919 -1.151284,-6.42014 -3.85648,-8.80135 -1.865619,-1.64218 -3.702449,-2.263649 -6.726645,-2.27587 -2.870052,-0.01159 -4.094046,0.412044 -6.551816,2.26768 -3.755443,2.83539 -5.696445,8.06744 -4.539123,12.2354 0.583631,2.10189 3.416893,4.33363 6.460731,5.08907 1.663711,0.41292 7.867534,0.46787 9.650518,0.0855 z m -5.880206,-2.63048 c -0.643395,-0.3932 -0.578347,-0.9578 0.132292,-1.14824 0.884534,-0.23705 2.129287,-0.19251 2.579688,0.0923 0.351025,0.22197 0.348908,0.29895 -0.01834,0.66628 -0.530923,0.53108 -2.092613,0.75699 -2.693657,0.38966 z m 6.416146,-2.30161 c -0.218281,-0.0831 -0.484349,-0.28205 -0.591261,-0.44213 -0.278511,-0.41702 -0.247254,-2.38783 0.05029,-3.17041 0.352534,-0.92724 1.436257,-1.58456 2.268196,-1.37576 1.476349,0.37054 1.394799,2.89359 -0.14324,4.43163 -0.769694,0.76969 -0.90212,0.81623 -1.583981,0.55667 z m -13.871725,-3.13334 c -0.490956,-0.49095 -0.491112,-0.49295 -0.138139,-1.76392 0.439417,-1.58224 2.000776,-2.06661 2.788139,-0.86494 0.48442,0.73932 0.338413,1.81853 -0.349271,2.58162 -0.518721,0.57559 -1.747152,0.60082 -2.300729,0.0472 z m 8.345418,-0.73877 c -0.244406,-0.29449 -0.104042,-0.36079 0.763807,-0.36079 0.86785,0 1.008214,0.0663 0.763807,0.36079 -0.164689,0.19844 -0.508402,0.3608 -0.763807,0.3608 -0.255405,0 -0.599117,-0.16236 -0.763807,-0.3608 z" />
    </g>
    <path
       id="path918"
       style="display:inline;fill:url(#radialGradient1796);fill-opacity:1;stroke-width:0.264583"
       d="m 50.402344,93.373047 c -3.260066,0.185996 -6.568173,2.005397 -7.902914,5.083149 -1.115997,2.180374 -2.205472,4.402454 -2.903969,6.754694 -0.803095,3.19637 -0.179019,6.98366 2.418853,9.2101 0.45643,0.41972 0.947263,0.80348 1.470061,1.1376 -2.669609,3.13694 -3.55076,7.42898 -3.384766,11.45703 0.07336,1.27383 0.665909,2.51 0.533203,3.78321 -0.256278,1.05412 -0.552263,2.48019 0.476563,3.23242 0.631065,0.36253 1.426751,0.31383 2.009766,0.76563 0.381969,0.15151 1.079958,-0.24706 1.153562,0.34041 0.289132,0.94749 1.526536,1.74339 2.397219,0.99552 0.496986,0.067 1.014729,0.5137 1.556445,0.19332 0.598364,-0.27202 1.226613,-0.25636 1.855664,-0.15816 0.71707,0.0307 1.459801,-0.36368 2.144306,-0.18004 0.56095,0.4349 1.370101,0.40176 1.932699,0.0143 0.757852,-0.11051 1.533413,-0.26808 2.271963,-0.38811 0.770607,0.23953 1.906694,0.49049 2.35611,-0.40707 0.712915,-1.61308 0.347786,-3.42413 0.521763,-5.12913 0.04154,-3.15948 0.272514,-6.37124 -0.367451,-9.48616 -0.326808,-1.18936 -0.915399,-2.2895 -1.597671,-3.31049 2.394373,-1.01118 4.502763,-2.79558 5.626953,-5.16797 1.016609,-1.72769 1.31162,-3.7668 1.189186,-5.74168 0.08637,-2.27263 -0.231674,-4.72078 -1.754265,-6.516448 -1.865426,-2.556037 -4.448929,-4.580865 -7.317265,-5.892086 -1.490671,-0.55353 -3.108495,-0.671168 -4.686015,-0.590019 z" />
    <g
       id="g7740"
       style="display:none">
      <path
         id="path7248"
         style="display:inline;fill:#ffffff;fill-opacity:1;stroke-width:0.264583"
         d="m 46.744438,133.99963 c 0.58026,-0.3802 0.651324,-0.37497 0.898939,0.0661 0.253851,0.45222 0.278836,0.45312 0.447263,0.016 0.22362,-0.58041 0.603752,-0.58774 1.227045,-0.0237 0.669479,0.60587 0.835732,0.32176 0.50745,-0.86718 -0.165576,-0.59966 -0.211882,-2.08625 -0.114541,-3.67716 0.205996,-3.36672 0.0096,-3.83249 -1.616258,-3.83249 -0.968045,0 -1.270056,0.13341 -1.842774,0.81405 -0.563789,0.67002 -0.684978,1.08426 -0.684978,2.34133 0,1.82218 0.299581,5.57587 0.445008,5.57587 0.05653,0 0.386308,-0.18578 0.732846,-0.41284 z m 6.128183,-0.26586 c 0.154194,0.40182 0.205489,0.40274 0.637887,0.0114 0.31061,-0.2811 0.529327,-0.32988 0.644382,-0.14371 0.362759,0.58695 0.54051,0.23594 0.560689,-1.10725 0.01148,-0.76398 0.114837,-1.99285 0.22969,-2.73082 0.161301,-1.03645 0.110303,-1.53228 -0.22412,-2.17898 -0.793055,-1.53361 -2.710143,-1.47437 -3.460512,0.10691 -0.400265,0.8435 -0.419773,1.25097 -0.1638,3.4214 0.159819,1.35513 0.29058,2.59515 0.29058,2.7556 0,0.17513 0.263306,0.11921 0.658763,-0.1399 0.610051,-0.39972 0.671162,-0.39933 0.826441,0.005 z m 4.503524,-1.7687 c -0.0062,-1.05502 0.08758,-3.10885 0.208338,-4.56406 0.285035,-3.43475 -0.10859,-6.03836 -1.231389,-8.14495 -0.459603,-0.8623 -1.080292,-1.7204 -1.379305,-1.90688 -0.299016,-0.18648 -1.734288,-0.39991 -3.189497,-0.47429 -1.60491,-0.082 -3.255038,-0.34153 -4.194319,-0.65962 l -1.548485,-0.52441 -0.893475,0.78448 c -1.209063,1.06158 -2.411909,3.60848 -2.89048,6.1203 -0.503173,2.64095 -0.498502,4.06543 0.01989,6.06598 0.375385,1.44866 0.368314,2.02944 -0.04157,3.41382 -0.101333,0.34225 -0.0035,0.40786 0.436521,0.29279 0.336923,-0.0881 0.65905,5.3e-4 0.793603,0.21815 0.172206,0.27863 0.300259,0.29268 0.534325,0.0586 0.169313,-0.16932 0.453937,-0.25178 0.632498,-0.18326 0.244683,0.0939 0.276644,-0.1882 0.129749,-1.14516 -0.244253,-1.59121 -0.0024,-8.51791 0.319142,-9.14109 0.533805,-1.03449 0.769185,-0.43706 0.593155,1.50551 l -0.178383,1.96852 1.096023,-0.54227 c 1.545071,-0.76444 2.792992,-0.50401 3.52432,0.7355 l 0.5455,0.92456 0.595936,-0.55985 c 0.616648,-0.57932 1.678991,-0.74181 2.71013,-0.41454 0.546894,0.17358 0.59404,0.106 0.59404,-0.85151 0,-1.08281 -0.362197,-3.28836 -0.671471,-4.08884 -0.302929,-0.78405 0.550692,-0.53998 0.92536,0.26459 0.410898,0.88236 0.922301,6.15814 0.827122,8.53281 -0.03791,0.94589 -0.08829,2.19604 -0.11195,2.77812 -0.03994,0.98251 0.0084,1.05921 0.674692,1.07049 0.39474,0.007 0.801537,0.096 0.903992,0.19844 0.102457,0.10246 0.206742,0.18628 0.231748,0.18628 0.025,0 0.04041,-0.8632 0.03424,-1.91823 z M 57.25451,115.28386 c 1.808502,-0.88482 3.468458,-2.63074 4.409216,-4.63755 0.62254,-1.32799 0.703741,-1.82266 0.702516,-4.27967 -0.0013,-2.50479 -0.07426,-2.92681 -0.74209,-4.28932 -1.169522,-2.386054 -5.30869,-5.930835 -7.707538,-6.600729 -1.536683,-0.429127 -4.091756,-0.361145 -5.630065,0.1498 -2.243445,0.745151 -3.423805,2.005181 -4.991146,5.328019 -1.678707,3.55895 -2.233137,5.34638 -2.206607,7.11389 0.02457,1.63668 0.384615,2.66301 1.474979,4.20451 2.303409,3.25645 10.679981,4.97333 14.690735,3.01105 z" />
      <path
         id="path6764"
         style="display:inline;fill:#000000;stroke-width:0.264583"
         d="m 45.140052,134.59431 c -0.352153,-0.73847 -0.53403,-0.85946 -1.155012,-0.76832 -0.405373,0.0595 -0.817699,-0.0223 -0.91628,-0.18184 -0.09858,-0.15951 -0.473605,-0.29001 -0.833387,-0.29001 -0.853247,0 -1.061709,-0.60743 -0.687995,-2.0047 0.241496,-0.90293 0.224361,-1.38542 -0.08546,-2.4066 -1.134385,-3.73889 0.21888,-10.00017 2.750141,-12.72434 l 0.802596,-0.86376 -0.980804,-0.62875 c -2.549986,-1.63466 -3.744197,-3.76542 -3.753119,-6.69646 -0.007,-2.29031 0.349164,-3.44138 2.370386,-7.66141 1.346894,-2.812121 1.704944,-3.339589 2.824267,-4.160617 1.761898,-1.29236 3.54956,-1.866979 5.779745,-1.85782 2.410943,0.0099 3.683074,0.401029 5.712835,1.756453 2.491259,1.663599 4.635993,3.890925 5.462159,5.672504 0.645909,1.39287 0.717315,1.84541 0.723924,4.588 0.0069,2.87229 -0.03899,3.13902 -0.819687,4.7625 -1.175515,2.44449 -2.452754,3.79497 -4.541898,4.80232 -0.976159,0.47069 -1.81019,0.87816 -1.853404,0.90549 -0.04321,0.0273 0.267205,0.56994 0.689819,1.20583 1.783927,2.68417 1.906535,3.69771 1.648095,13.62396 -0.08215,3.15536 -0.21739,3.50662 -1.181013,3.06757 -0.467992,-0.21323 -0.890841,-0.22914 -1.35909,-0.0511 -0.373851,0.14214 -1.022141,0.25844 -1.440641,0.25844 -0.418501,0 -0.839289,0.12681 -0.935085,0.28181 -0.115439,0.18679 -0.329028,0.14168 -0.633382,-0.13375 -0.376581,-0.3408 -0.61297,-0.36198 -1.313749,-0.11769 -0.469998,0.16384 -1.274361,0.22977 -1.787475,0.1465 -0.517474,-0.084 -1.148333,-0.0169 -1.416624,0.15068 -0.368126,0.2299 -0.579605,0.22246 -0.885137,-0.0311 -0.29566,-0.24538 -0.540763,-0.25862 -0.930132,-0.0502 -0.74884,0.40077 -0.789636,0.38147 -1.254589,-0.59355 z m 1.604386,-0.59468 c 0.58026,-0.3802 0.651324,-0.37497 0.898939,0.0661 0.253851,0.45222 0.278836,0.45312 0.447263,0.016 0.22362,-0.58041 0.603752,-0.58774 1.227045,-0.0237 0.669479,0.60587 0.835732,0.32176 0.50745,-0.86718 -0.165576,-0.59966 -0.211882,-2.08625 -0.114541,-3.67716 0.205996,-3.36672 0.0096,-3.83249 -1.616258,-3.83249 -0.968045,0 -1.270056,0.13341 -1.842774,0.81405 -0.563789,0.67002 -0.684978,1.08426 -0.684978,2.34133 0,1.82218 0.299581,5.57587 0.445008,5.57587 0.05653,0 0.386308,-0.18578 0.732846,-0.41284 z m 6.128183,-0.26586 c 0.154194,0.40182 0.205489,0.40274 0.637887,0.0114 0.31061,-0.2811 0.529327,-0.32988 0.644382,-0.14371 0.362759,0.58695 0.54051,0.23594 0.560689,-1.10725 0.01148,-0.76398 0.114837,-1.99285 0.22969,-2.73082 0.161301,-1.03645 0.110303,-1.53228 -0.22412,-2.17898 -0.793055,-1.53361 -2.710143,-1.47437 -3.460512,0.10691 -0.400265,0.8435 -0.419773,1.25097 -0.1638,3.4214 0.159819,1.35513 0.29058,2.59515 0.29058,2.7556 0,0.17513 0.263306,0.11921 0.658763,-0.1399 0.610051,-0.39972 0.671162,-0.39933 0.826441,0.005 z m 4.503524,-1.7687 c -0.0062,-1.05502 0.08758,-3.10885 0.208338,-4.56406 0.285035,-3.43475 -0.10859,-6.03836 -1.231389,-8.14495 -0.459603,-0.8623 -1.080292,-1.7204 -1.379305,-1.90688 -0.299016,-0.18648 -1.734288,-0.39991 -3.189497,-0.47429 -1.60491,-0.082 -3.255038,-0.34153 -4.194319,-0.65962 l -1.548485,-0.52441 -0.893475,0.78448 c -1.209063,1.06158 -2.411909,3.60848 -2.89048,6.1203 -0.503173,2.64095 -0.498502,4.06543 0.01989,6.06598 0.375385,1.44866 0.368314,2.02944 -0.04157,3.41382 -0.101333,0.34225 -0.0035,0.40786 0.436521,0.29279 0.336923,-0.0881 0.65905,5.3e-4 0.793603,0.21815 0.172206,0.27863 0.300259,0.29268 0.534325,0.0586 0.169313,-0.16932 0.453937,-0.25178 0.632498,-0.18326 0.244683,0.0939 0.276644,-0.1882 0.129749,-1.14516 -0.244253,-1.59121 -0.0024,-8.51791 0.319142,-9.14109 0.533805,-1.03449 0.769185,-0.43706 0.593155,1.50551 l -0.178383,1.96852 1.096023,-0.54227 c 1.545071,-0.76444 2.792992,-0.50401 3.52432,0.7355 l 0.5455,0.92456 0.595936,-0.55985 c 0.616648,-0.57932 1.678991,-0.74181 2.71013,-0.41454 0.546894,0.17358 0.59404,0.106 0.59404,-0.85151 0,-1.08281 -0.362197,-3.28836 -0.671471,-4.08884 -0.302929,-0.78405 0.550692,-0.53998 0.92536,0.26459 0.410898,0.88236 0.922301,6.15814 0.827122,8.53281 -0.03791,0.94589 -0.08829,2.19604 -0.11195,2.77812 -0.03994,0.98251 0.0084,1.05921 0.674692,1.07049 0.39474,0.007 0.801537,0.096 0.903992,0.19844 0.102457,0.10246 0.206742,0.18628 0.231748,0.18628 0.025,0 0.04041,-0.8632 0.03424,-1.91823 z m -6.909928,-0.67574 c -0.186421,-0.18979 -0.244623,0.43454 -0.250013,0.8711 -0.0054,0.43656 0.212942,1.0311 0.348404,0.8933 0.109447,-0.11134 0.149328,-0.68914 0.138873,-0.90777 -0.0074,-0.15535 -0.123254,-0.74057 -0.237264,-0.85663 z m 6.788293,-16.00547 c 1.808502,-0.88482 3.468458,-2.63074 4.409216,-4.63755 0.62254,-1.32799 0.703741,-1.82266 0.702516,-4.27967 -0.0013,-2.50479 -0.07426,-2.92681 -0.74209,-4.28932 -1.169522,-2.386054 -5.30869,-5.930835 -7.707538,-6.600729 -1.536683,-0.429127 -4.091756,-0.361145 -5.630065,0.1498 -2.243445,0.745151 -3.423805,2.005181 -4.991146,5.328019 -1.678707,3.55895 -2.233137,5.34638 -2.206607,7.11389 0.02457,1.63668 0.384615,2.66301 1.474979,4.20451 2.303409,3.25645 10.679981,4.97333 14.690735,3.01105 z m -11.62178,-3.23451 c -0.719703,-0.50903 -0.771581,-1.47243 -0.111458,-2.06983 0.643007,-0.58191 1.253572,-0.55254 1.897395,0.0913 1.308671,1.30867 -0.26622,3.05341 -1.785937,1.97855 z m 10.850925,-1.85405 c -0.843688,-0.59095 -1.19461,-2.09752 -0.741283,-3.18248 1.111752,-2.66079 4.640879,-1.90237 4.640879,0.99735 0,2.02036 -2.297121,3.30754 -3.899596,2.18513 z m -5.824892,-5.48231 c -0.145355,-0.1819 -0.177551,-0.56885 -0.07155,-0.85989 0.186083,-0.5109 0.199269,-0.50862 0.382006,0.0661 0.112782,0.35474 0.402222,0.59531 0.716222,0.59531 0.289824,0 0.453368,0.11907 0.363431,0.26459 -0.22886,0.3703 -1.073467,0.33011 -1.390113,-0.0661 z m -4.166137,-3.16043 c -0.72421,-0.41068 -0.91725,-0.74862 -0.92199,-1.614094 -0.0054,-0.990875 1.064391,-2.038495 2.081689,-2.038495 1.709726,0 2.197173,1.843209 0.845028,3.195349 -0.83815,0.83815 -1.191053,0.91864 -2.004727,0.45724 z" />
    </g>
  </g>
</svg>
