<?xml version="1.0" encoding="UTF-8" standalone="no"?>
<svg
   xmlns:dc="http://purl.org/dc/elements/1.1/"
   xmlns:cc="http://creativecommons.org/ns#"
   xmlns:rdf="http://www.w3.org/1999/02/22-rdf-syntax-ns#"
   xmlns:svg="http://www.w3.org/2000/svg"
   xmlns="http://www.w3.org/2000/svg"
   xmlns:sodipodi="http://sodipodi.sourceforge.net/DTD/sodipodi-0.dtd"
   xmlns:inkscape="http://www.inkscape.org/namespaces/inkscape"
   width="210mm"
   height="297mm"
   viewBox="0 0 210 297"
   version="1.1"
   id="svg8"
   sodipodi:docname="long box v1.svg"
   inkscape:version="1.0 (4035a4fb49, 2020-05-01)">
  <defs
     id="defs2" />
  <sodipodi:namedview
     id="base"
     pagecolor="#ffffff"
     bordercolor="#666666"
     borderopacity="1.0"
     inkscape:pageopacity="0.0"
     inkscape:pageshadow="2"
     inkscape:zoom="1.042821"
     inkscape:cx="503.68739"
     inkscape:cy="590.83995"
     inkscape:document-units="mm"
     inkscape:current-layer="layer1"
     inkscape:document-rotation="0"
     showgrid="false"
     inkscape:snap-nodes="true"
     inkscape:snap-midpoints="true"
     inkscape:object-nodes="true"
     inkscape:window-width="2160"
     inkscape:window-height="1346"
     inkscape:window-x="-11"
     inkscape:window-y="-11"
     inkscape:window-maximized="1" />
  <metadata
     id="metadata5">
    <rdf:RDF>
      <cc:Work
         rdf:about="">
        <dc:format>image/svg+xml</dc:format>
        <dc:type
           rdf:resource="http://purl.org/dc/dcmitype/StillImage" />
      </cc:Work>
    </rdf:RDF>
  </metadata>
  <g
     inkscape:label="Layer 1"
     inkscape:groupmode="layer"
     id="layer1">
    <g
       id="g991"
       inkscape:label="bottom"
       style="display:inline">
      <path
         transform="scale(0.26458333)"
         d="M 317.08008,-16.667969 305.74219,2.2304688 H 209.36328 V 285.69531 l -30.23633,30.23633 v 294.80274 l 5.66797,18.89843 h 385.51367 l 5.66797,-18.89843 V 315.93164 L 545.74023,285.69531 V 2.2304688 H 449.36328 L 438.02539,-16.667969 Z"
         style="opacity:0.998;fill:#a0a2e2;fill-opacity:1;stroke-width:2;stroke-linecap:round"
         id="rect833" />
      <path
         id="path861"
         d="M 47.393902,161.59035 H 152.3939"
         style="font-variation-settings:normal;vector-effect:none;fill:none;fill-opacity:1;stroke:#ff0000;stroke-width:0.264583px;stroke-linecap:butt;stroke-linejoin:miter;stroke-miterlimit:4;stroke-dasharray:none;stroke-dashoffset:0;stroke-opacity:1;stop-color:#000000" />
      <path
         id="path868"
         d="M 47.393902,83.590346 H 152.3939"
         style="font-variation-settings:normal;vector-effect:none;fill:none;fill-opacity:1;stroke:#ff0000;stroke-width:0.264583px;stroke-linecap:butt;stroke-linejoin:miter;stroke-miterlimit:4;stroke-dasharray:none;stroke-dashoffset:0;stroke-opacity:1;stop-color:#000000" />
      <path
         id="path870"
         d="M 55.393904,75.590346 H 144.3939"
         style="font-variation-settings:normal;vector-effect:none;fill:none;fill-opacity:1;stroke:#ff0000;stroke-width:0.264583px;stroke-linecap:butt;stroke-linejoin:miter;stroke-miterlimit:4;stroke-dasharray:none;stroke-dashoffset:0;stroke-opacity:1;stop-color:#000000" />
      <path
         d="m 83.88351,161.59035 a 3,5 0 0 0 -2.587956,2.50011 3,5 0 0 0 0,5.00021 3,5 0 0 0 2.598291,2.49959 h 32.000115 a 3,5 0 0 0 2.59777,-2.49959 3,5 0 0 0 0,-5.00021 3,5 0 0 0 -2.59777,-2.50011 H 83.893845 a 3,5 0 0 0 -0.01035,0 z"
         style="opacity:0.998;fill:#ffffe2;fill-opacity:1;stroke:none;stroke-width:0.529167;stroke-linecap:round;stroke-opacity:1"
         id="rect885" />
      <path
         transform="scale(0.26458333)"
         d="m -104.33789,455.77344 v 154.96094 l -5.66992,18.89843 h 294.80273 l -5.66797,-18.89843 V 455.77344 Z"
         style="opacity:0.998;fill:#4aa2e2;fill-opacity:1;stroke:none;stroke-width:2.02721;stroke-linecap:round;stroke-opacity:1"
         id="rect916" />
      <path
         id="path962"
         d="M -29.106233,166.59034 H 48.893655"
         style="font-variation-settings:normal;opacity:1;vector-effect:none;fill:none;fill-opacity:1;stroke:#ff0000;stroke-width:0.264583px;stroke-linecap:butt;stroke-linejoin:miter;stroke-miterlimit:4;stroke-dasharray:none;stroke-dashoffset:0;stroke-opacity:1;stop-color:#000000;stop-opacity:1" />
      <path
         id="rect916-4"
         style="opacity:0.998;fill:#4aa2e2;fill-opacity:1;stroke:none;stroke-width:0.536366;stroke-linecap:round;stroke-opacity:1"
         d="m 152.3939,120.59027 v 41.00008 l -1.50017,5.00021 h 77.99989 l -1.49965,-5.00021 v -41.00008 z" />
      <path
         style="font-variation-settings:normal;opacity:1;vector-effect:none;fill:none;fill-opacity:1;stroke:#ff0000;stroke-width:0.264583px;stroke-linecap:butt;stroke-linejoin:miter;stroke-miterlimit:4;stroke-dasharray:none;stroke-dashoffset:0;stroke-opacity:1;stop-color:#000000;stop-opacity:1"
         d="m 150.89373,166.59056 h 77.99989"
         id="path962-6" />
    </g>
    <text
       xml:space="preserve"
       style="font-style:normal;font-weight:normal;font-size:10.5833px;line-height:1.25;font-family:sans-serif;fill:#000000;fill-opacity:1;stroke:none;stroke-width:0.264583"
       x="-28.540907"
       y="25.963018"
       id="text1187"><tspan
         sodipodi:role="line"
         id="tspan1185"
         x="-28.540907"
         y="25.963018"
         style="stroke-width:0.264583">Notes to delete:</tspan><tspan
         sodipodi:role="line"
         x="-28.540907"
         y="39.192142"
         style="stroke-width:0.264583"
         id="tspan1191">Top should be 2 cm longer</tspan></text>
    <g
       inkscape:label="top"
       id="g950">
      <path
         id="path903"
         style="opacity:0.998;fill:#a0a2e2;fill-opacity:1;stroke-width:2;stroke-linecap:round"
         d="m 324.11328,370.91016 -11.33789,18.89843 h -86.93164 -9.44922 -9.44922 v 71.16602 64.89648 l -30.23633,30.23633 v 80.76367 66.63672 l 5.66797,18.89844 h 9.45117 351.4961 9.44922 9.44922 24.56836 l 5.66796,-18.89844 v -66.63672 -80.76367 l -30.23632,-30.23633 v -64.89648 -71.16602 h -9.44922 -9.44922 -86.92774 l -11.33789,-18.89843 z"
         transform="scale(0.26458333)" />
      <path
         id="rect885-1"
         style="opacity:0.998;fill:#ffffe2;fill-opacity:1;stroke:none;stroke-width:0.529167;stroke-linecap:round;stroke-opacity:1"
         d="m 85.744204,186.1363 a 3,5 0 0 0 -2.587956,2.50011 3,5 0 0 0 0,5.00021 3,5 0 0 0 2.598291,2.49959 h 32.000121 a 3,5 0 0 0 2.59776,-2.49959 3,5 0 0 0 0,-5.00021 3,5 0 0 0 -2.59776,-2.50011 H 85.754539 a 3,5 0 0 0 -0.01035,0 z" />
      <path
         id="path919"
         style="opacity:0.998;fill:#4aa2e2;fill-opacity:1;stroke:none;stroke-width:0.536366;stroke-linecap:round;stroke-opacity:1"
         d="m 156.75477,145.13636 v 41.00008 l -1.50017,5.00021 h 18.11311 20.88658 l -1.49965,-5.00021 v -41.00008 h -19.38693 z" />
      <path
         id="path1168"
         d="m 54.75432,139.13654 h 94.00046"
         style="font-variation-settings:normal;vector-effect:none;fill:none;fill-opacity:1;stroke:#ff0000;stroke-width:0.264583px;stroke-linecap:butt;stroke-linejoin:miter;stroke-miterlimit:4;stroke-dasharray:none;stroke-dashoffset:0;stroke-opacity:1;stop-color:#000000" />
      <path
         id="path1170"
         d="M 46.754291,147.13657 H 156.75481"
         style="font-variation-settings:normal;vector-effect:none;fill:none;fill-opacity:1;stroke:#ff0000;stroke-width:0.264583px;stroke-linecap:butt;stroke-linejoin:miter;stroke-miterlimit:4;stroke-dasharray:none;stroke-dashoffset:0;stroke-opacity:1;stop-color:#000000" />
      <path
         id="path1172"
         d="M 46.754291,186.13625 H 156.75481"
         style="font-variation-settings:normal;vector-effect:none;fill:none;fill-opacity:1;stroke:#ff0000;stroke-width:0.264583px;stroke-linecap:butt;stroke-linejoin:miter;stroke-miterlimit:4;stroke-dasharray:none;stroke-dashoffset:0;stroke-opacity:1;stop-color:#000000" />
      <path
         d="m 10.75437,145.13636 v 41.00008 l -1.5001696,5.00022 H 27.36731 48.25389 l -1.49964,-5.00022 V 145.13636 H 27.36731 Z"
         style="opacity:0.998;fill:#4aa2e2;fill-opacity:1;stroke:none;stroke-width:0.536366;stroke-linecap:round;stroke-opacity:1"
         id="path919-2" />
      <path
         style="font-variation-settings:normal;opacity:1;vector-effect:none;fill:none;fill-opacity:1;stroke:#ff0000;stroke-width:0.264583px;stroke-linecap:butt;stroke-linejoin:miter;stroke-miterlimit:4;stroke-dasharray:none;stroke-dashoffset:0;stroke-opacity:1;stop-color:#000000;stop-opacity:1"
         d="M 9.2542002,191.13666 H 48.25389"
         id="path937" />
      <path
         style="font-variation-settings:normal;opacity:1;vector-effect:none;fill:none;fill-opacity:1;stroke:#ff0000;stroke-width:0.264583px;stroke-linecap:butt;stroke-linejoin:miter;stroke-miterlimit:4;stroke-dasharray:none;stroke-dashoffset:0;stroke-opacity:1;stop-color:#000000;stop-opacity:1"
         d="m 155.25512,191.13665 h 38.99917"
         id="path939" />
    </g>
  </g>
</svg>
