<?xml version="1.0" encoding="UTF-8" standalone="no"?>
<svg
   xmlns:dc="http://purl.org/dc/elements/1.1/"
   xmlns:cc="http://creativecommons.org/ns#"
   xmlns:rdf="http://www.w3.org/1999/02/22-rdf-syntax-ns#"
   xmlns:svg="http://www.w3.org/2000/svg"
   xmlns="http://www.w3.org/2000/svg"
   xmlns:sodipodi="http://sodipodi.sourceforge.net/DTD/sodipodi-0.dtd"
   xmlns:inkscape="http://www.inkscape.org/namespaces/inkscape"
   sodipodi:docname="magic symbols.svg"
   inkscape:version="1.0 (4035a4fb49, 2020-05-01)"
   id="svg8"
   version="1.1"
   viewBox="0 0 215.9 279.4"
   height="11in"
   width="8.5in">
  <defs
     id="defs2" />
  <sodipodi:namedview
     inkscape:window-maximized="1"
     inkscape:window-y="-11"
     inkscape:window-x="-11"
     inkscape:window-height="1346"
     inkscape:window-width="2160"
     units="in"
     showgrid="false"
     inkscape:document-rotation="0"
     inkscape:current-layer="layer1"
     inkscape:document-units="in"
     inkscape:cy="417.10577"
     inkscape:cx="210.81219"
     inkscape:zoom="2.3313559"
     inkscape:pageshadow="2"
     inkscape:pageopacity="0.0"
     borderopacity="1.0"
     bordercolor="#666666"
     pagecolor="#ffffff"
     id="base" />
  <metadata
     id="metadata5">
    <rdf:RDF>
      <cc:Work
         rdf:about="">
        <dc:format>image/svg+xml</dc:format>
        <dc:type
           rdf:resource="http://purl.org/dc/dcmitype/StillImage" />
        <dc:title></dc:title>
      </cc:Work>
    </rdf:RDF>
  </metadata>
  <g
     id="layer1"
     inkscape:groupmode="layer"
     inkscape:label="Layer 1">
    <path
       id="path847"
       d="m 35.78533,112.15435 c -0.16173,-0.75411 -0.21864,-2.03764 -0.12647,-2.8523 0.20739,-1.83314 -0.35448,-3.44863 -1.19945,-3.44863 -0.50213,0 -0.53208,0.10977 -0.38088,1.39618 l 0.16409,1.39619 -1.5929,1.11736 c -0.8761,0.61454 -1.71849,1.11735 -1.872,1.11735 -0.17147,0 -0.30829,-0.99473 -0.35482,-2.57969 -0.0718,-2.44721 -0.10629,-2.58403 -0.67103,-2.66423 -0.32743,-0.0465 -0.60534,-0.0465 -0.61758,0 -0.0122,0.0465 -0.22061,1.5133 -0.46302,3.25955 l -0.44076,3.175 -1.23463,0.0797 c -1.00666,0.065 -1.25788,-0.008 -1.36061,-0.39687 -0.0693,-0.26214 -0.46349,-1.81697 -0.876,-3.45519 -0.41251,-1.63821 -0.86047,-2.94175 -0.99547,-2.89676 -0.45704,0.15235 -0.95966,2.40752 -0.79385,3.56185 0.089,0.61935 0.08,1.78021 -0.0199,2.57969 -0.17729,1.41899 -0.20163,1.45356 -1.02247,1.4526 -0.46247,-5.3e-4 -1.22133,-0.23297 -1.68634,-0.51651 -1.38206,-0.8427 -1.49746,-1.71974 -1.04401,-7.93446 0.53668,-7.355495 0.84481,-6.856655 -4.98968,-8.077875 -3.911117,-0.81865 -5.0604023,-1.40872 -6.0574323,-3.11002 -2.051473,-3.50057 -1.243356,-10.8657 1.747766,-15.92904 1.0769153,-1.82298 5.1282963,-6.332903 5.4888363,-6.110073 0.1037,0.0641 0.4042,1.14417 0.66778,2.400173 0.38335,1.82674 0.59062,2.32654 1.03594,2.49798 1.04759,0.40332 4.78993,1.53827 4.85906,1.47362 0.038,-0.0355 -0.76069,-0.70818 -1.77481,-1.49483 -2.13355,-1.655 -2.72047,-2.655333 -2.87183,-4.894633 -0.10065,-1.48913 -0.0558,-1.65413 0.58784,-2.16038 0.38325,-0.301463 1.67585,-0.901509 2.87246,-1.333436 2.55771,-0.923231 7.55481,-1.507063 10.57911,-1.236001 4.37902,0.392484 8.91652,1.957277 11.04341,3.808407 l 0.92604,0.80598 -1.19062,1.0475 c -0.65485,0.57612 -1.905,1.482233 -2.77813,2.013563 l -1.5875,0.96607 1.05833,-0.17349 c 0.58209,-0.0954 2.21782,-0.68904 3.63496,-1.31917 l 2.57663,-1.145683 0.83128,0.83091 c 1.38861,1.388003 3.8515,5.337423 4.68382,7.510843 1.22456,3.19767 1.72628,5.88118 1.56948,8.39454 -0.16106,2.5815 -0.79277,4.17406 -2.11684,5.33659 -1.13649,0.99785 -1.79924,1.22321 -5.75142,1.95574 -3.33979,0.61903 -4.44047,1.10896 -4.68559,2.08562 -0.0891,0.35488 -0.0904,3.154055 -0.003,6.220385 0.0875,3.06632 0.0901,6.08076 0.006,6.69876 -0.13994,1.02651 -0.23593,1.14428 -1.11064,1.36253 -2.54814,0.63579 -2.33803,0.70012 -2.66306,-0.81544 z m -3.04814,-10.35564 c 0.0908,-0.48384 0.11513,-1.882825 0.0541,-3.108855 -0.0912,-1.83316 -0.29463,-2.67351 -1.14523,-4.73054 l -1.03434,-2.50139 -0.39687,4.35092 c -0.32775,3.59302 -0.47131,4.365075 -0.82415,4.432135 -0.50591,0.0962 -0.65233,-0.807515 -0.92332,-5.698505 -0.0988,-1.78263 -0.25985,-3.24115 -0.35796,-3.24115 -0.32275,0 -1.38745,2.13737 -1.75805,3.52927 -0.4076,1.53086 -0.49289,6.714525 -0.12017,7.303615 0.19701,0.31138 0.36943,0.32358 0.93444,0.0661 0.901,-0.41052 2.9351,-0.37031 4.10754,0.0812 1.28835,0.49614 1.27979,0.49897 1.46397,-0.48283 z m -9.9006,-9.173565 c 1.96801,-0.36411 2.73613,-1.23524 2.51456,-2.85179 -0.25085,-1.83015 -1.07761,-3.39021 -2.59775,-4.90185 -1.66105,-1.65176 -3.02467,-2.35372 -4.87813,-2.51115 -1.80651,-0.15344 -3.10811,0.3144 -4.5454,1.63379 -2.848575,2.61491 -3.3054,7.08059 -0.829243,8.10624 1.683713,0.69742 7.740673,1.00493 10.335963,0.52476 z m 23.96484,-0.33445 c 1.2681,-0.68703 1.6705,-1.43646 1.6639,-3.09876 -0.0171,-4.30653 -4.31267,-7.74624 -8.28478,-6.63412 -3.43807,0.96261 -6.71655,5.57347 -6.14169,8.63771 0.28894,1.54021 1.00974,1.71018 6.89165,1.62508 4.16543,-0.0603 5.17172,-0.1511 5.87092,-0.52991 z"
       style="fill:#000000;stroke-width:0.264583" />
    <path
       id="path863"
       d="m 97.055293,115.9385 c 0,-0.16687 0.460207,-1.08424 1.022681,-2.03859 1.22271,-2.07457 1.72879,-3.52723 1.519427,-4.3614 -0.08472,-0.33755 -0.861552,-1.3481 -1.72629,-2.24567 -1.889666,-1.9614 -2.146171,-2.77853 -1.35106,-4.30398 0.515508,-0.98902 0.529959,-1.12927 0.155001,-1.50422 -0.274712,-0.27471 -0.901959,-0.41351 -1.868717,-0.41351 -2.03253,0 -2.329848,0.36253 -2.380011,2.902 -0.0281,1.42244 -0.151149,2.08871 -0.417416,2.26012 -1.439197,0.92653 -4.80223,0.93257 -9.769716,0.0176 l -2.512977,-0.46288 2.586738,-1.00228 c 1.422706,-0.55126 2.937016,-1.29702 3.365132,-1.65726 0.944565,-0.7948 1.34239,-2.09916 1.145995,-3.757414 -0.141993,-1.19892 -0.108416,-1.27483 1.026729,-2.32117 0.645438,-0.59494 1.322602,-1.1314 1.504808,-1.19214 0.502655,-0.16755 0.08869,-1.43006 -0.77047,-2.3498 -1.196718,-1.28109 -2.145578,-1.10815 -3.793905,0.69149 -1.268927,1.38541 -1.420672,1.47296 -2.339268,1.34975 -1.534221,-0.20578 -2.460247,-1.06499 -4.428596,-4.10905 -1.004062,-1.552792 -2.222556,-3.289242 -2.707764,-3.858782 l -0.882195,-1.03553 0.79375,0.197 c 0.436562,0.10836 1.507372,0.63035 2.379578,1.16 1.242679,0.75461 1.866456,0.96468 2.882718,0.97081 1.274125,0.008 1.318626,-0.02 2.535146,-1.57967 1.414809,-1.81385 2.194132,-2.06696 4.062462,-1.3194 1.091095,0.43657 1.095395,0.4359 1.694587,-0.2607 0.452873,-0.52649 0.600716,-1.02684 0.600716,-2.03299 0,-1.17442 -0.112002,-1.44663 -0.933062,-2.26769 -0.98135,-0.98135 -1.002163,-0.98415 -3.445975,-0.46376 -0.698642,0.14877 -0.85076,0.0762 -1.131432,-0.53981 -0.705404,-1.5482 -0.651894,-3.54482 0.208794,-7.79082 0.456191,-2.25051 0.877396,-4.13979 0.936013,-4.19841 0.05862,-0.0586 0.188337,0.2349 0.288267,0.65225 1.16952,4.88444 1.556716,5.77769 2.69144,6.20911 0.471059,0.1791 0.952877,0.10348 1.839477,-0.28871 0.660685,-0.29225 1.4151,-0.53137 1.676478,-0.53137 0.691621,0 1.954747,1.15518 2.753538,2.51821 0.800912,1.36665 1.49184,1.52611 2.653468,0.61237 0.990551,-0.77917 1.5217,-2.1295 1.300799,-3.30701 -0.133761,-0.713 -0.457962,-1.1405 -1.332291,-1.75678 -0.635533,-0.44797 -1.155514,-1.019 -1.155514,-1.26896 0,-0.6122 1.744974,-2.78225 3.395991,-4.22325 1.481703,-1.29322 5.805803,-4.09848 6.007143,-3.89713 0.0699,0.0699 -0.27333,0.65178 -0.76276,1.29305 -1.86178,2.43942 -2.42606,4.28224 -1.71939,5.61513 0.16853,0.31785 0.88171,1.22543 1.58487,2.01684 1.44764,1.62934 1.80108,2.78624 1.2862,4.21012 -0.31839,0.88048 -0.29751,0.96666 0.37408,1.54434 0.92345,0.79431 2.76627,0.84912 3.44207,0.10237 0.38593,-0.42646 0.43069,-0.79297 0.2747,-2.24956 l -0.18635,-1.74009 1.00641,-0.42051 c 1.73497,-0.72491 3.54441,-0.74424 7.90354,-0.0844 2.26403,0.3427 4.11641,0.7125 4.11641,0.82179 0,0.10929 -0.65484,0.38062 -1.45521,0.60297 -3.68925,1.0249 -4.27265,1.22704 -4.85732,1.68298 -0.5991,0.46721 -0.6112,0.54383 -0.30311,1.92049 0.40437,1.80694 0.0656,3.20612 -1.06712,4.40756 -0.4459,0.47295 -0.89399,0.86369 -0.99575,0.86832 -0.10177,0.005 -0.40542,0.17537 -0.67478,0.37944 -0.4736,0.35879 -0.47011,0.40597 0.10614,1.43125 0.65591,1.16704 1.79801,1.81768 2.50053,1.42452 0.23983,-0.13421 0.87807,-0.82885 1.41831,-1.54365 1.06005,-1.40255 1.4435,-1.57781 2.86752,-1.31067 1.24926,0.23437 2.88015,1.95576 4.4528,4.69991 0.68929,1.20275 1.59463,2.682542 2.01187,3.288412 0.41724,0.60587 0.75862,1.1571 0.75862,1.22495 0,0.0678 -1.06518,-0.41904 -2.36706,-1.08196 -3.62689,-1.846832 -5.73874,-1.652782 -6.31744,0.5805 -0.28062,1.08297 -1.38022,1.40414 -3.56837,1.04226 -1.51523,-0.25059 -1.65386,-0.22945 -2.22221,0.3389 -0.96151,0.96151 -0.82988,2.34113 0.32752,3.4327 1.0284,0.9699 2.26072,1.31542 3.80873,1.06788 0.96931,-0.155 1.02024,-0.12635 1.17805,0.66273 0.3107,1.553464 0.16639,4.331604 -0.38985,7.505454 -0.825,4.7074 -0.81223,4.69984 -1.92558,1.14044 -0.73044,-2.33518 -1.13722,-3.22644 -1.66046,-3.63802 -0.87085,-0.685 -1.12131,-0.68113 -2.60623,0.0403 -1.17696,0.57182 -1.22543,0.57441 -2.08529,0.11134 -0.48771,-0.26265 -1.28097,-1.11224 -1.77867,-1.90497 -0.99094,-1.57838 -1.70628,-1.8222 -2.82346,-0.96238 -1.5533,1.19546 -0.95937,4.60486 0.95368,5.47448 0.31601,0.14365 0.57456,0.45321 0.57456,0.68791 0,0.55126 -1.24367,2.23081 -2.54773,3.44065 -1.51863,1.4089 -6.712687,5.02681 -6.712687,4.6757 z M 105.3946,99.716656 c 1.9425,-0.91754 4.10559,-2.91664 5.17124,-4.77921 3.11601,-5.446212 0.90042,-12.604782 -4.72619,-15.270332 -1.67324,-0.79268 -1.9447,-0.83989 -4.82933,-0.83989 -3.001805,0 -3.092523,0.0178 -5.075946,0.9981 -3.214544,1.58871 -5.090235,4.15973 -5.784794,7.92924 -0.815472,4.425722 1.535178,9.475522 5.333562,11.457862 3.202119,1.671154 7.028858,1.865834 9.911458,0.50423 z m -7.423305,-0.63889 c -4.715622,-1.54625 -7.633672,-5.86575 -7.150243,-10.584302 0.595298,-5.81044 5.773908,-9.59211 11.939688,-8.71893 3.36134,0.47603 6.06112,2.46021 7.48796,5.50323 0.61456,1.31067 0.69722,1.81632 0.69722,4.26508 0,2.501522 -0.0757,2.942052 -0.76046,4.424462 -0.90498,1.95923 -2.99921,4.06135 -4.85115,4.86945 -1.86446,0.81357 -5.2763,0.92524 -7.363015,0.24101 z"
       style="fill:#000000;stroke-width:0.264583" />
    <path
       id="path879"
       d="m 24.479393,162.07574 c -3.605942,-1.16583 -5.889865,-3.14585 -7.6231,-6.60875 -2.535036,-5.06484 -2.134672,-11.2337 1.154482,-17.78843 1.498531,-2.98631 4.314185,-7.16089 6.971913,-10.33677 2.301857,-2.75063 7.248544,-7.52515 7.381929,-7.12499 0.04469,0.13408 -0.103852,1.21964 -0.330105,2.41235 -0.52075,2.74517 -0.521351,4.75024 -0.0021,6.75087 0.648163,2.49698 1.432983,3.93679 4.609243,8.45611 1.6364,2.32833 3.32948,4.93378 3.76241,5.78987 2.6731,5.28594 1.46959,11.56541 -2.99778,15.64138 -1.57349,1.43563 -3.71586,2.60425 -5.548972,3.02686 -1.862616,0.42943 -5.727882,0.31496 -7.377903,-0.2185 z m 13.066542,-10.91247 c 0.94467,-0.43043 1.31487,-1.55036 1.15809,-3.50348 -0.15499,-1.93094 -1.22982,-4.54939 -2.27665,-5.54631 l -0.70319,-0.66966 -0.0471,1.50345 c -0.0259,0.82689 -0.40399,2.62034 -0.8402,3.98543 -0.83636,2.61736 -0.80471,3.46919 0.15603,4.19874 0.54187,0.41148 1.68839,0.42577 2.55301,0.0318 z"
       style="fill:#000000;stroke-width:0.264583" />
    <path
       id="path943"
       d="m 61.865676,149.88446 c -0.315121,-0.40061 -0.642797,-1.0067 -0.728173,-1.34685 -0.215532,-0.85876 -0.471881,-0.7805 -1.456436,0.44465 -0.931859,1.15957 -1.236204,1.10078 -1.521452,-0.29393 -0.234053,-1.14439 -1.039053,-1.37108 -4.217701,-1.18768 -1.881865,0.10858 -2.442949,0.0652 -2.36399,-0.18259 0.196978,-0.61827 2.954757,-1.88627 4.503739,-2.07078 0.838369,-0.0999 1.820635,-0.37573 2.182812,-0.61304 0.563004,-0.36889 0.658289,-0.63203 0.657027,-1.81443 -0.0019,-1.69795 -0.413602,-3.25464 -1.126109,-4.25702 -0.996704,-1.40219 -5.222415,-2.9524 -5.222415,-1.91585 0,0.60201 -1.759671,1.9665 -2.949071,2.28677 -1.550945,0.41763 -2.715751,0.12401 -3.75562,-0.94671 -1.900035,-1.9564 -2.194706,-4.01522 -0.810189,-5.66062 l 0.666147,-0.79167 -0.610529,-0.82628 c -1.292973,-1.74989 -0.482758,-4.59571 1.513978,-5.31774 0.73649,-0.26631 0.918201,-0.47217 0.918201,-1.04022 0,-0.38951 0.162603,-0.84315 0.36134,-1.00809 0.264478,-0.2195 0.328524,-0.77785 0.238919,-2.08292 -0.106823,-1.55584 -0.04263,-1.90102 0.50383,-2.70907 1.20393,-1.78026 3.641033,-2.36193 5.568277,-1.32899 l 0.975989,0.5231 0.83403,-1.5648 c 2.087571,-3.91668 7.06573,-4.61101 10.325582,-1.44017 0.912857,0.88794 0.99228,0.91288 2.108205,0.66215 2.705407,-0.60786 5.577033,1.02451 6.531922,3.71306 0.318971,0.89809 0.602324,1.28773 0.93645,1.28773 0.263501,0 0.785799,0.30671 1.160664,0.68157 0.55772,0.55772 0.65769,0.85962 0.550148,1.6614 -0.119867,0.89367 -0.04334,1.04314 0.870444,1.69997 1.788467,1.28558 2.64636,4.29387 1.833907,6.43079 -0.225878,0.59411 -0.180748,0.81702 0.260511,1.28672 1.21916,1.29773 0.818145,3.41987 -0.804844,4.25915 -1.029589,0.53242 -2.240809,0.29795 -3.222543,-0.62383 -0.644794,-0.60542 -0.946639,-0.68588 -2.513541,-0.67 -2.344738,0.0238 -5.975921,1.17229 -6.569252,2.07783 -0.555456,0.84773 -1.270696,5.16989 -1.050108,6.34574 0.09594,0.51141 0.405739,1.14532 0.688438,1.4087 0.709237,0.66075 3.090146,1.37113 4.595508,1.37113 1.282933,0 2.274456,0.35008 2.274456,0.80306 0,0.1404 -0.469222,0.25527 -1.042717,0.25527 -1.264341,0 -1.560862,0.34293 -0.653857,0.75619 1.240359,0.56514 0.431012,0.89268 -1.960253,0.79328 -2.232276,-0.0928 -2.2705,-0.0839 -2.431984,0.5672 -0.214556,0.86505 -0.838279,0.75396 -2.35513,-0.41945 -0.642345,-0.49691 -1.306933,-0.90347 -1.476862,-0.90347 -0.169928,0 -0.609526,0.54656 -0.976881,1.21456 l -0.667919,1.21456 z m -2.414521,-14.33459 c -0.0035,-1.64137 -2.45541,-3.33248 -4.437232,-3.06041 -1.430287,0.19635 -1.638646,0.50609 -0.485915,0.72234 0.882944,0.16564 3.899411,1.94873 4.246354,2.51009 0.276434,0.44728 0.677899,0.34524 0.676793,-0.17202 z m 10.384168,-2.30676 1.512652,-0.43974 -0.422095,-0.6442 c -0.232153,-0.35431 -0.4977,-0.63622 -0.590103,-0.62647 -0.0924,0.01 -0.875832,0.52589 -1.74095,1.14696 -1.71971,1.23459 -2.338914,2.07195 -1.032632,1.39644 0.418261,-0.21629 1.44117,-0.59113 2.273128,-0.83299 z m -1.481286,-5.35099 c 0.206447,-0.4941 0.303898,-1.01398 0.216557,-1.1553 -0.133935,-0.21671 -1.828605,-1.04268 -2.139302,-1.04268 -0.05499,0 -0.09998,0.96061 -0.09998,2.13468 v 2.13469 l 0.823685,-0.58652 c 0.453028,-0.32258 0.992595,-0.99078 1.19904,-1.48487 z m -10.662152,0.8628 c -0.71447,-0.89542 -0.737023,-0.90273 -1.631093,-0.52917 -0.498633,0.20834 -0.951595,0.37881 -1.006583,0.37881 -0.05499,0 -0.09998,0.0991 -0.09998,0.22023 0,0.20521 1.916237,0.71935 2.987842,0.80167 0.400259,0.0307 0.361204,-0.10531 -0.250186,-0.87154 z m 3.876926,-1.9716 c 0,-0.88588 -0.09116,-1.04492 -0.661458,-1.15394 -0.498965,-0.0954 -0.661458,-0.0142 -0.661458,0.33035 0,0.4148 0.938725,1.85108 1.209828,1.85108 0.0622,0 0.113088,-0.46237 0.113088,-1.02749 z"
       style="fill:#000000;stroke-width:0.264583" />
    <path
       id="path945"
       d="m 97.23427,156.52308 c -2.53484,-0.68365 -4.52769,-2.51743 -5.89865,-5.42783 -0.71998,-1.52842 -0.82612,-2.03992 -0.83032,-4.00139 -0.004,-1.91636 0.1058,-2.48834 0.74318,-3.86753 1.32106,-2.85863 3.70012,-4.6534 6.89334,-5.20037 1.42664,-0.24438 1.96773,-0.21912 3.31181,0.15457 2.78651,0.77471 3.78967,0.5794 7.26796,-1.41501 1.28836,-0.73873 2.39361,-1.29201 2.45611,-1.22952 0.19669,0.1967 -0.64314,3.79898 -1.08482,4.6531 -0.47844,0.92521 -1.58131,2.01647 -3.31829,3.28337 -2.1824,1.59177 -1.95914,3.21566 0.48721,3.54378 1.32285,0.17743 2.54761,-0.54228 3.54781,-2.08482 0.53168,-0.81998 0.67225,-1.45481 0.80514,-3.63616 0.163,-2.67545 0.66946,-4.24394 1.62695,-5.03859 0.66261,-0.54991 0.7405,-0.17996 0.26694,1.26788 -0.35873,1.09675 -0.38149,1.50608 -0.12669,2.27814 0.17083,0.51763 0.40199,0.94116 0.51367,0.94116 0.62172,0 1.65091,-1.93577 2.10596,-3.96105 0.2093,-0.93149 0.17979,-1.12207 -0.19142,-1.23667 -3.35899,-1.03689 -6.13194,-4.01261 -5.81566,-6.24092 0.0754,-0.53115 0.18264,-0.45952 0.93585,0.62503 1.06002,1.52633 1.593,1.77131 1.9293,0.88679 0.2979,-0.78353 0.0931,-2.03342 -0.54108,-3.30235 -1.09218,-2.18531 -2.53254,-2.57709 -4.96332,-1.35004 -1.8526,0.93519 -2.84886,1.01275 -4.70295,0.36614 l -1.3039,-0.45474 1.85208,-0.2044 c 2.39265,-0.26406 3.04271,-0.55543 3.04271,-1.36385 0,-0.46259 -0.24292,-0.75226 -0.88732,-1.05804 -1.27129,-0.60327 -3.94256,-1.19015 -6.34993,-1.39508 -2.55308,-0.21734 -2.19201,-0.49667 1.17562,-0.90949 8.07938,-0.99041 14.23837,1.78829 17.34344,7.82471 0.59883,1.16417 1.23203,2.56425 1.4071,3.11129 0.17508,0.54704 0.42779,0.92697 0.56158,0.84428 0.44823,-0.27702 0.23829,-2.61556 -0.39073,-4.35245 -0.34255,-0.94588 -0.70678,-1.95791 -0.80939,-2.24895 -0.13273,-0.37649 0.0135,-0.30015 0.50672,0.26458 1.08555,1.24286 3.03163,5.39259 3.35017,7.14375 0.71799,3.94707 -0.28871,6.55793 -4.13064,10.71275 -2.16826,2.34483 -2.80532,3.17787 -2.43026,3.17787 0.24582,0 3.89958,-1.31327 4.4023,-1.58232 0.32211,-0.17239 1.05137,-0.73418 1.62058,-1.24843 1.29612,-1.17096 1.36129,-0.71004 0.22462,1.58882 -0.98394,1.98997 -2.10593,3.20879 -3.68761,4.00584 -1.57253,0.79242 -2.22887,0.9344 -5.57804,1.20661 -4.14383,0.33681 -5.67989,1.16249 -4.15267,2.23219 0.43599,0.30538 1.30825,0.41748 3.37344,0.43355 l 2.78539,0.0217 -1.32291,0.60452 c -3.45067,1.5768 -12.72916,2.52525 -16.02038,1.6376 z m 5.22767,-26.40137 c -0.98206,-1.03999 -1.71463,-1.96184 -1.62792,-2.04855 0.0867,-0.0867 0.87526,0.23988 1.75234,0.72575 l 1.59469,0.8834 0.84523,-0.81923 c 0.98322,-0.95297 1.79024,-1.03965 2.55543,-0.27446 1.29021,1.29022 -0.19015,3.42399 -2.37549,3.42399 -0.8459,0 -1.16882,-0.22251 -2.74428,-1.8909 z m -8.55257,-1.81327 c -0.0931,-0.58208 -0.2449,-1.05833 -0.33738,-1.05833 -0.0925,0 -0.79164,0.41988 -1.55369,0.93307 -1.51998,1.02361 -1.65962,0.90602 -0.83756,-0.70533 1.12879,-2.21263 3.78771,-4.46108 5.27546,-4.46108 0.30407,0 0.8897,0.17419 1.3014,0.38709 1.76884,0.91471 1.21727,3.0525 -0.78758,3.0525 -0.75781,0 -1.544,0.72878 -2.21205,2.05052 -0.23904,0.47294 -0.48969,0.85989 -0.55699,0.85989 -0.0673,0 -0.19853,-0.47625 -0.29161,-1.05833 z"
       style="fill:#000000;stroke-width:0.264583" />
  </g>
</svg>
