<?xml version="1.0" encoding="UTF-8" standalone="no"?>
<svg
   xmlns:dc="http://purl.org/dc/elements/1.1/"
   xmlns:cc="http://creativecommons.org/ns#"
   xmlns:rdf="http://www.w3.org/1999/02/22-rdf-syntax-ns#"
   xmlns:svg="http://www.w3.org/2000/svg"
   xmlns="http://www.w3.org/2000/svg"
   xmlns:sodipodi="http://sodipodi.sourceforge.net/DTD/sodipodi-0.dtd"
   xmlns:inkscape="http://www.inkscape.org/namespaces/inkscape"
   width="210mm"
   height="297mm"
   viewBox="0 0 210 297"
   version="1.1"
   id="svg901"
   inkscape:version="1.0 (4035a4fb49, 2020-05-01)"
   sodipodi:docname="music note 2.svg">
  <defs
     id="defs895">
    <pattern
       y="0"
       x="0"
       height="6"
       width="6"
       patternUnits="userSpaceOnUse"
       id="EMFhbasepattern" />
  </defs>
  <sodipodi:namedview
     id="base"
     pagecolor="#ffffff"
     bordercolor="#666666"
     borderopacity="1.0"
     inkscape:pageopacity="0.0"
     inkscape:pageshadow="2"
     inkscape:zoom="2.9245033"
     inkscape:cx="196.17455"
     inkscape:cy="345.1055"
     inkscape:document-units="mm"
     inkscape:current-layer="layer1"
     inkscape:document-rotation="0"
     showgrid="false"
     inkscape:window-width="2160"
     inkscape:window-height="1346"
     inkscape:window-x="-11"
     inkscape:window-y="-11"
     inkscape:window-maximized="1"
     inkscape:snap-global="false" />
  <metadata
     id="metadata898">
    <rdf:RDF>
      <cc:Work
         rdf:about="">
        <dc:format>image/svg+xml</dc:format>
        <dc:type
           rdf:resource="http://purl.org/dc/dcmitype/StillImage" />
        <dc:title />
      </cc:Work>
    </rdf:RDF>
  </metadata>
  <g
     inkscape:label="Layer 1"
     inkscape:groupmode="layer"
     id="layer1">
    <path
       style="color:#000000;font-style:normal;font-variant:normal;font-weight:normal;font-stretch:normal;font-size:medium;line-height:normal;font-family:sans-serif;font-variant-ligatures:normal;font-variant-position:normal;font-variant-caps:normal;font-variant-numeric:normal;font-variant-alternates:normal;font-variant-east-asian:normal;font-feature-settings:normal;font-variation-settings:normal;text-indent:0;text-align:start;text-decoration:none;text-decoration-line:none;text-decoration-style:solid;text-decoration-color:#000000;letter-spacing:normal;word-spacing:normal;text-transform:none;writing-mode:lr-tb;direction:ltr;text-orientation:mixed;dominant-baseline:auto;baseline-shift:baseline;text-anchor:start;white-space:normal;shape-padding:0;shape-margin:0;inline-size:0;clip-rule:nonzero;display:inline;overflow:visible;visibility:visible;isolation:auto;mix-blend-mode:normal;color-interpolation:sRGB;color-interpolation-filters:linearRGB;solid-color:#000000;solid-opacity:1;vector-effect:none;fill:none;fill-opacity:1;fill-rule:nonzero;stroke:#000000;stroke-width:0.26458333;stroke-linecap:round;stroke-linejoin:miter;stroke-miterlimit:4;stroke-dasharray:none;stroke-dashoffset:0;stroke-opacity:1;color-rendering:auto;image-rendering:auto;shape-rendering:auto;text-rendering:auto;enable-background:accumulate;stop-color:#000000;stop-opacity:1;opacity:1"
       d="M 88.441406 65.839844 A 1.25 1.25 0 0 0 88.394531 65.841797 A 1.25 1.25 0 0 0 88.382812 65.841797 A 1.25 1.25 0 0 0 88.375 65.841797 A 1.25 1.25 0 0 0 88.289062 65.851562 A 1.25 1.25 0 0 0 88.226562 65.861328 A 1.25 1.25 0 0 0 88.167969 65.871094 A 1.25 1.25 0 0 0 88.154297 65.875 A 1.25 1.25 0 0 0 88.115234 65.884766 A 1.25 1.25 0 0 0 88.089844 65.892578 A 1.25 1.25 0 0 0 88.037109 65.910156 A 1.25 1.25 0 0 0 88.017578 65.917969 A 1.25 1.25 0 0 0 87.953125 65.943359 A 1.25 1.25 0 0 0 87.9375 65.949219 A 1.25 1.25 0 0 0 87.912109 65.962891 A 1.25 1.25 0 0 0 87.882812 65.976562 A 1.25 1.25 0 0 0 87.835938 66 A 1.25 1.25 0 0 0 87.785156 66.029297 A 1.25 1.25 0 0 0 87.763672 66.042969 A 1.25 1.25 0 0 0 87.703125 66.085938 A 1.25 1.25 0 0 0 87.683594 66.099609 A 1.25 1.25 0 0 0 87.638672 66.138672 A 1.25 1.25 0 0 0 87.611328 66.160156 A 1.25 1.25 0 0 0 87.566406 66.203125 A 1.25 1.25 0 0 0 87.539062 66.232422 A 1.25 1.25 0 0 0 87.515625 66.257812 A 1.25 1.25 0 0 0 87.46875 66.3125 A 1.25 1.25 0 0 0 87.443359 66.345703 A 1.25 1.25 0 0 0 87.431641 66.363281 A 1.25 1.25 0 0 0 87.384766 66.431641 A 1.25 1.25 0 0 0 87.376953 66.445312 A 1.25 1.25 0 0 0 87.363281 66.466797 A 1.25 1.25 0 0 0 87.355469 66.480469 A 1.25 1.25 0 0 0 87.320312 66.550781 A 1.25 1.25 0 0 0 87.287109 66.621094 A 1.25 1.25 0 0 0 87.273438 66.662109 A 1.25 1.25 0 0 0 87.261719 66.691406 A 1.25 1.25 0 0 0 87.251953 66.724609 A 1.25 1.25 0 0 0 87.228516 66.810547 A 1.25 1.25 0 0 0 87.222656 66.832031 A 1.25 1.25 0 0 0 87.212891 66.886719 A 1.25 1.25 0 0 0 87.203125 66.966797 A 1.25 1.25 0 0 0 87.199219 67.042969 A 1.25 1.25 0 0 0 87.197266 67.060547 A 1.25 1.25 0 0 0 87.197266 67.095703 A 1.25 1.25 0 0 0 87.201172 67.189453 A 1.25 1.25 0 0 0 87.207031 67.251953 A 1.25 1.25 0 0 0 87.222656 67.341797 A 1.25 1.25 0 0 0 87.236328 67.400391 A 1.25 1.25 0 0 0 87.240234 67.421875 L 93.527344 90.287109 A 1.25 1.25 0 0 0 93.728516 91.015625 L 101.44336 119.07031 C 101.08891 118.98177 100.94252 118.91934 100.45312 118.81641 C 98.001601 118.30076 93.713575 117.61139 86.207031 116.87305 C 80.12789 116.2751 75.732463 118.2632 73.087891 121.40039 C 70.443318 124.53758 69.516851 128.67541 69.8125 132.39062 C 70.458742 140.51151 78.490927 147.69833 89.580078 146 C 97.571788 144.77605 102.15398 141.51254 104.66211 138.48438 C 107.17024 135.45621 107.63672 132.57617 107.63672 132.57617 L 107.67578 132.3125 L 96.720703 92.464844 C 99.753663 93.717625 101.67443 94.368061 103.14258 94.212891 C 105.01526 94.014966 106.01688 93.156623 110.0918 92.515625 C 117.81435 91.30084 126.10156 96.845703 126.10156 96.845703 L 128.75 98.669922 L 128.0293 95.537109 C 128.0293 95.537109 126.85506 90.409222 124.49805 85.257812 C 123.31954 82.682108 121.85022 80.083677 119.99805 78.068359 C 118.14587 76.053041 115.81599 74.57199 113.08398 74.628906 C 108.97524 74.714506 102.84621 72.603391 97.880859 70.412109 C 92.915507 68.220828 89.070312 66.007812 89.070312 66.007812 A 1.25 1.25 0 0 0 89.017578 65.978516 A 1.25 1.25 0 0 0 88.953125 65.949219 A 1.25 1.25 0 0 0 88.933594 65.939453 A 1.25 1.25 0 0 0 88.900391 65.925781 A 1.25 1.25 0 0 0 88.845703 65.90625 A 1.25 1.25 0 0 0 88.84375 65.90625 A 1.25 1.25 0 0 0 88.779297 65.886719 A 1.25 1.25 0 0 0 88.755859 65.878906 A 1.25 1.25 0 0 0 88.728516 65.873047 A 1.25 1.25 0 0 0 88.664062 65.859375 A 1.25 1.25 0 0 0 88.650391 65.857422 A 1.25 1.25 0 0 0 88.570312 65.847656 A 1.25 1.25 0 0 0 88.476562 65.841797 A 1.25 1.25 0 0 0 88.441406 65.839844 z M 90.394531 69.460938 C 91.840019 70.253747 93.222244 71.088929 96.871094 72.699219 C 101.96936 74.949157 108.17209 77.232296 113.13477 77.128906 C 114.93847 77.091329 116.58892 78.05438 118.15625 79.759766 C 119.72358 81.465151 121.11163 83.864395 122.22461 86.296875 C 123.42086 88.911364 124.24563 91.373794 124.80664 93.251953 C 121.57317 91.526236 115.83769 89.081887 109.70312 90.046875 C 105.36807 90.728794 103.91192 91.617382 102.87891 91.726562 C 101.90525 91.829469 100.29722 91.331478 95.886719 89.435547 L 90.394531 69.460938 z M 82.248047 119.35156 C 83.365377 119.23121 84.598654 119.22733 85.960938 119.36133 C 93.408858 120.09391 97.625126 120.77493 99.939453 121.26172 C 101.09662 121.50511 101.77736 121.70061 102.14258 121.82227 C 102.22058 121.84825 102.16204 121.82932 102.20508 121.84375 L 105.10547 132.39062 C 105.05938 132.65936 104.71505 134.49969 102.73633 136.88867 C 100.60877 139.45735 96.684555 142.3832 89.201172 143.5293 C 79.312649 145.04375 72.831053 138.80784 72.304688 132.19336 C 72.054161 129.04516 72.877821 125.52921 75 123.01172 C 76.591634 121.1236 78.896055 119.71263 82.248047 119.35156 z "
       id="path931" />
    <path
       d="m 88.689345,67.583305 c 0,0 15.591535,8.976934 24.662955,8.787945 9.07143,-0.188986 13.70164,19.938246 13.70164,19.938246 0,0 -8.50446,-5.858632 -16.91443,-4.535715 -8.40997,1.322917 -4.9137,3.496281 -15.119055,-0.944941 z m 17.953885,65.295385 c 0,0 -1.53384,10.00867 -17.008945,12.37872 -10.48883,1.60639 -17.74554,-5.10554 -18.33184,-12.47322 -0.54618,-6.86341 3.49628,-15.30803 15.02455,-14.1741 14.954475,1.47093 17.008945,2.74033 17.008945,2.74033 z"
       style="fill:none;stroke:#000000;stroke-width:0.264583;stroke-linecap:round;stroke-linejoin:miter;stroke-miterlimit:4;stroke-dasharray:none;stroke-opacity:1"
       id="path927"
       sodipodi:nodetypes="cscscccssscc" />
  </g>
</svg>
