<?xml version="1.0" encoding="UTF-8" standalone="no"?>
<svg
   xmlns:dc="http://purl.org/dc/elements/1.1/"
   xmlns:cc="http://creativecommons.org/ns#"
   xmlns:rdf="http://www.w3.org/1999/02/22-rdf-syntax-ns#"
   xmlns:svg="http://www.w3.org/2000/svg"
   xmlns="http://www.w3.org/2000/svg"
   xmlns:sodipodi="http://sodipodi.sourceforge.net/DTD/sodipodi-0.dtd"
   xmlns:inkscape="http://www.inkscape.org/namespaces/inkscape"
   sodipodi:docname="music note.svg"
   inkscape:version="1.0 (4035a4fb49, 2020-05-01)"
   id="svg880"
   version="1.1"
   viewBox="0 0 210 297"
   height="297mm"
   width="210mm">
  <defs
     id="defs874">
    <pattern
       id="EMFhbasepattern"
       patternUnits="userSpaceOnUse"
       width="6"
       height="6"
       x="0"
       y="0" />
  </defs>
  <sodipodi:namedview
     inkscape:snap-global="false"
     inkscape:window-maximized="1"
     inkscape:window-y="-11"
     inkscape:window-x="-11"
     inkscape:window-height="1346"
     inkscape:window-width="2160"
     showgrid="false"
     inkscape:document-rotation="0"
     inkscape:current-layer="layer1"
     inkscape:document-units="mm"
     inkscape:cy="529.05379"
     inkscape:cx="591.05042"
     inkscape:zoom="2.8951106"
     inkscape:pageshadow="2"
     inkscape:pageopacity="0.0"
     borderopacity="1.0"
     bordercolor="#666666"
     pagecolor="#ffffff"
     id="base" />
  <metadata
     id="metadata877">
    <rdf:RDF>
      <cc:Work
         rdf:about="">
        <dc:format>image/svg+xml</dc:format>
        <dc:type
           rdf:resource="http://purl.org/dc/dcmitype/StillImage" />
        <dc:title />
      </cc:Work>
    </rdf:RDF>
  </metadata>
  <g
     id="layer1"
     inkscape:groupmode="layer"
     inkscape:label="Layer 1">
    <path
       id="path895"
       style="fill:#000000;stroke:#000000;stroke-width:0.999999px;stroke-linecap:butt;stroke-linejoin:miter;stroke-opacity:1;fill-opacity:1"
       d="M 439.49609 361.8457 C 436.22432 362.02284 436.89062 367.19141 436.89062 367.19141 L 486.38867 564.67578 C 393.45462 531.34076 365.48022 574.02734 370.2207 616.69727 C 373.73623 648.3411 426.23359 666.03764 459.05859 651.78516 C 479.03472 643.11163 508.91664 624.47089 508.86523 615.43555 L 464.66992 453.30664 C 475.02398 464.9234 500.27801 463.91228 520.22852 457.09375 C 540.17905 450.27522 583.86719 473.00391 583.86719 473.00391 C 583.86719 473.00391 582.10135 405.07124 531.59375 393.70703 C 481.08611 382.34282 442.44727 362.64453 442.44727 362.64453 C 441.21614 362.02897 440.25112 361.80483 439.49609 361.8457 z M 448.00195 375.01953 C 448.00195 375.01953 503.81275 401.03006 529.82422 401.53516 C 555.83565 402.04021 572.75586 458.10352 572.75586 458.10352 C 572.75586 458.10352 544.21968 442.95237 525.2793 447.49805 C 506.33895 452.04372 475.0234 455.83217 467.44727 441.4375 C 459.87113 427.04283 448.00195 375.01953 448.00195 375.01953 z M 430.83008 561.89648 C 458.16733 562.59097 485.63086 574.27148 485.63086 574.27148 L 493.96484 620.23438 C 451.91726 655.33719 421.03394 656.67817 403.83984 644.16211 C 386.31999 631.40893 390.67671 639.42666 376.78711 615.43555 C 362.89751 591.44443 403.49283 561.20203 430.83008 561.89648 z "
       transform="scale(0.26458333)" />
    <path
       id="path847"
       d="m 179.21524,141.19711 c 0,0 -31.52946,-13.3429 -30.61556,12.24622 0,0 8.40786,22.02492 34.36253,0.36556 z"
       style="fill:none;fill-opacity:1;stroke:#000000;stroke-width:0.264583px;stroke-linecap:butt;stroke-linejoin:miter;stroke-opacity:1" />
    <path
       id="path849"
       d="m 160.20616,104.91539 5.75756,20.92825 c 0,0 6.58006,5.20921 17.91238,1.18807 0,0 6.85423,0.36555 12.15483,3.38142 0,0 -0.27417,-10.50982 -8.13368,-16.35876 0,0 -27.78248,-7.40257 -27.69109,-9.13898 z"
       style="fill:none;stroke:#000000;stroke-width:0.264583px;stroke-linecap:butt;stroke-linejoin:miter;stroke-opacity:1" />
  </g>
</svg>
