<?xml version="1.0" encoding="UTF-8" standalone="no"?>
<svg
   fill-rule="evenodd"
   viewBox="0 0 4538 1275"
   version="1.1"
   id="svg8"
   sodipodi:docname="One_Ring_inscription.svg"
   inkscape:version="1.1 (c68e22c387, 2021-05-23)"
   xmlns:inkscape="http://www.inkscape.org/namespaces/inkscape"
   xmlns:sodipodi="http://sodipodi.sourceforge.net/DTD/sodipodi-0.dtd"
   xmlns="http://www.w3.org/2000/svg"
   xmlns:svg="http://www.w3.org/2000/svg">
  <defs
     id="defs12" />
  <sodipodi:namedview
     id="namedview10"
     pagecolor="#ffffff"
     bordercolor="#111111"
     borderopacity="1"
     inkscape:pageshadow="0"
     inkscape:pageopacity="0"
     inkscape:pagecheckerboard="1"
     showgrid="false"
     inkscape:zoom="0.35355339"
     inkscape:cx="3364.4141"
     inkscape:cy="272.94322"
     inkscape:window-width="1920"
     inkscape:window-height="1017"
     inkscape:window-x="1912"
     inkscape:window-y="-8"
     inkscape:window-maximized="1"
     inkscape:current-layer="svg8" />
  <path
     id="path831"
     style="display:inline"
     d="m 2794,832 8,-32 c -9,-9 -27,0 -27,0 20.8118,-33.54354 46.4159,-63.86418 76,-90 14,-13 54,-45 77,-22 9,13 9,27 0,36 -5,9 -12,8.53553 -27,3.53553 C 2887.7184,723.10835 2891,710 2891,710 c 14,10 37,-4 23,-22 -9,-14 -54,18 -27,45 27,27 81,-14 63,-50 -22,-40 -67,-13 -103,14 -31.8854,34.49937 -60.3518,72.00807 -85,112 l -45,23 c 0,0 18,-27 -5,-32 -22,-9 -63,18 -63,18 0,0 0,-18 -18,-22 -22,0 -67,36 -67,36 0,0 18,-32 9,-36 -18,-10 -63,27 -63,27 0,0 50,-77 99,-126 45,-45 63,-32 63,-32 l 13,-13 c -18,-5 -45,4 -94,45 -34.3877,29.12119 -63.4827,63.96754 -86,103 -45,10 -45,-4 -134,-4 -100,0 -153,50 -153,50 90,-41 121,-32 121,-32 0,0 -67,45 -50,76 14,36 82,-13 82,-13 9,45 67,13 67,13 0,0 -27,45 -76,95 -63,72 -176,134 -176,134 h 10 c 0,0 120,-67 180,-134 62,-59 120,-144 120,-144 23,-18 45,-27 45,-23 5,0 -4,23 -13,32 -85.0522,155.599 -213.1708,283.3703 -369,368 h 10 c 0,0 134,-76 206,-152 49.2138,-47.1212 94.3733,-98.30196 135,-153 13,-10 31,-14 112,-10 77,10 113,-30 113,-30 -23,17 -59,13 -59,13 l 32,-40 c 27,-14 58,-28 63,-23 0,0 0,18 -14,45 l -31,40 c 31,-4 54,-54 54,-54 27,-27 45,-45 63,-40 13,4 13,36 0,54 -14,31 -36,22 -36,22 13,-4 9,-18 0,-22 -8.8573,-3.17398 -15.943,4.54052 -18,9 -4.2647,9.37084 -5,36 36,22 40,-13 71,-80 42,-98.5 -29,-18.5 -73,31.5 -73,31.5 z m -423,31 c 0,0 -45,36 -59,10 -13,-28 45,-60 45,-60 l 54,5 c 0,0 -36,23 -40,45 z m 85,0 c 0,0 -45,36 -59,10 -13,-23 27,-55 27,-55 l 68,-4 -36,50 z m 135,18 c 0,0 -45,0 -72,18 l 31,-45 c 0,0 54,-54 72,-31 18,18 -27,58 -27,58 z m 18,0 c 0,0 36,-31 36,-50 0,0 36,-26 45,-13 18,18 -10,54 -27,68 -18.2228,-1.88949 -36.2483,-3.58163 -54,-5 z m 309,86 c 14,13 28,-10 23,-14 -4,-9 -13,0 -13,0 9,-31 58,0 31,27 -22,23 -90,10 -85,-36 4,-45 94,-85 94,-85 l 5,-10 c -10,5 -50,32 -63,19 -10,-14 9,-68 45,-108 80,-86 117,-95 117,-95 l 4,-9 c -18,0 -108,72 -153,126 -17.2815,20.97457 -29.5892,45.59005 -36,72 -9,45 23,32 23,32 -27,22 -90,80 -36,112 28.9798,15.8745 64.7375,12.2987 90,-9 18,-18 22,-45 4,-58.5 -36,-22.5 -67,22.5 -50,36.5 z m 819,-63 c 54,-14 54,0 94,-5 45,-9 59,-36 59,-36 -40,27 -63,18 -63,18 0,0 67,-63 36,-80 -32,-19 -94,40 -94,40 0,0 22,-40 9,-45 -14,-5 -72,36 -72,36 0,0 13,-32 0,-36 -32,-10 -72,22 -72,22 0,0 0,-22 -10,-22 -13,0 -62,27 -62,27 5.1131,-10.60161 12.6496,-19.85098 22,-27 h -80 c -55,0 -90,27 -90,27 0,0 13,-23 8,-27 -18,-10 -76,27 -76,27 0,0 40,-72 80,-117 46,-45 77,-45 77,-45 v -10 c -45,5 -108,68 -130,100 l -63,103 c -36,27 -54,32 -63,18 -13,-9 -13,-31 0,-50 14,-22 36,-13 36,-13 -13,14 5,36 23,18 9,-13 0,-22 -5,-27 -13,-13 -45,0 -63,18 -31,32 -27,59 -27,59 -27,27 -72,13 -72,13 l 32,-31 c 9,-10 31,-32 18,-54 -18,-32 -72,13 -72,13 0,-31 -27,-18 -27,-18 24.3039,-37.76141 54.7189,-71.21784 90,-99 13,-9 58,-31 76,-13 18,22 0,45 -18,40 -13,-4 -13,-13 -13,-13 9,4 31,-14 18,-23 -18,-18 -45,23 -27,36 18,18 36.4195,10.56263 50,0 6.3148,-4.91152 26,-31 13,-54 -23,-27 -54,-13 -90,14 -44.6768,32.87688 -84.1231,72.32316 -117,117 -18,4 -36,27 -36,27 0,0 18,-27 9,-32 -14,-13 -63,18 -63,18 v 10 c 0,0 45,-23 45,-10 0,13 -23,36 -45,63 -14,18 -32,27 -32,27 45,-13 104,-9 167,0 34.2442,0.29623 68.1042,-7.22822 99,-22 13,36 80,-10 80,-10 -26,46 -90,145 -125,190 -36,44 -100,90 -100,90 h 10 l 76,-68 c 73.9876,-73.0729 134.8729,-158.31241 180,-252 0,0 45,-27 54,-22 4,4 -10,36 -23,54 -12.4207,17.3748 -27.6252,32.57933 -45,45 23,-5 45,-14 54,-27 14,-14 27,-45 27,-45 36,-27 72,-27 72,-27 0,0 -63,40 -45,72 18,31 81,0 81,0 0,0 -54,90 -144,180 -90,98 -180,148 -180,148 h 10 c 67,-36 170,-126 238,-207 72,-80 112,-166 112,-166 l 45,-23 c 23,-9 18,18 18,59 0,36 45,22 45,22 l -58,81 c -39.0509,43.9727 -84.5732,81.7394 -135,112 h 9 c 95.511,-58.8272 173.273,-142.4645 225,-242 15.6701,-15.17268 33.9675,-27.37092 54,-36 9,4 0,27 0,36 -41.7342,113.98928 -115.3152,213.6014 -212,287 h 10 c 48.2502,-34.5174 90.4826,-76.7498 125,-125 25.9233,-32.89298 47.128,-69.24377 63,-108 z m -674,-24 c 0,0 -45,0 -72,10 0,0 63,-86 90,-73 31,10 0,54 -18,63 z m 13,5 c 0,0 36,-32 40,-54 0,0 28,-32 46,-14 18,14 -10,55 -36,73 z m 445,-18 c 0,0 -54,36 -67,0 -10,-32 45,-54 45,-54 h 50 z m 140,13 c 0,0 -27,23 -27,-13 v -40 c 0,0 22,-23 45,-14 23,9 -19,67 -19,67 z m 148,-58 c 13,-10 27,-14 31,-5 5,14 -9,45 -22,63 0,0 -36,-9 -72,10 0,0 23,-50 63,-68 m -477,-76 36,-45 c 5,-9 -9,-9 -18,0 l -22,36 c -10,10 -13,14 -10,18 0,0 10,0 14,-9 z m 122,-9 c -10,10 -18,14 -14,18 l 18,-9 32,-45 c 4,-9 -5,-9 -11.5,-2 z m 436,-44 c 4,-10 -10,-10 -18,0 l -23,35 c -4,10 -13,10 -9,14 0,0 10,0 12,-4.5 z m 31,44 c -4,14 -27,23 -58,14 -30.277,-4.70917 -61.255,-1.61137 -90,9 -27,9 -36,31 -36,31 40,-40 80,-27 132,-20 52,7 52,-34 52,-34 z m 427,-49 c -18,-14 -58,31 -22,54 22,13 45,0 58,-18 14,-18 18,-45 0,-54 -36,-32 -90,9 -126,45 -40,31 -80,76 -80,76 -47.4417,2.97648 -93.5945,16.6514 -135,40 0,0 9,-44 -27,-35 -40,0 -77,40 -77,40 0,0 27,-54 -9,-45 -45,18 -58,40 -58,40 0,0 45,-26 50,-22 8,10 0,27 -10,45 -10,18 -18,59 -103,176 -80,112 -180,188 -180,188 h 10 c 118.7618,-97.6353 216.4102,-218.41995 287,-355 13,-13 31,-36 58,-45 27,-13 45,14 27,45 -13,32 -45,23 -45,23 10,0 14,-23 -9,-23 -18,0 -27,40 18,36 45,-4 63,-58 63,-58 90,-45 158,-23 158,-23 -90,23 -149,100 -108,144 26.1302,22.2212 59.6989,32.02442 94,32 26.6028,-0.0189 52.9935,-4.64285 76,-18 68,-32 68,-108 5,-104 -58,10 -50,68 -18,63 31,0 22,-27 9,-27 -10,0 -13,10 -13,10 -14,0 -10,-14 -10,-14 18,-32 63,-23 63,4 5,27 -44.3556,72.17569 -94,68 -57.7959,-4.86134 -121,-32 -99,-86 23,-50 122,-67 122,-67 40,13 62,18 98,4 40,-13 59,-45 59,-45 l -23,10 c -22,40 -58,30 -90,17 l -80,-13 c 25.6057,-35.46135 57.4594,-65.95957 94,-90 45,-36 72,-27 85,-18 10,4 14,22 5,36 -8.6115,8.25667 -21.3055,8.28626 -32.875,5.375 C 4325.518,726.20268 4326,710 4326,710 c 18,14 36,-13 22,-22 z m -1933,72 c 0,0 10,0 14,-14 9,-9 13,-36 9,-45 -10,0 -18,10 -18,14 0,9 9,9 0,27 z m 27,-10 14,-22 18,-22 4,-23 c 0,0 -9,0 -13,10 -10,8 -10,22 -14,35 -4,10 -13,18 -9,23 z m 23,-17 -10,18 c 0,9 5,9 10,0 0,-10 13,-18 18,-23 9,0 22,-13 9,-22 -10,0 -23,18 -27,27 z m 1542,27 c 0,0 9,0 18,-14 9,-9 13,-36 4,-45 l -13,14 c 0,9 9,9 0,27 0,13 -14,18 -10,18 z m 45,-32 18,-22 c 0,-10 9,-23 0,-23 l -14,10 -13,35 c 0,10 -14,18 -7,20 7,2 11,-11 16,-20 z m 4,5 -9,18 c 0,9 10,9 14,0 0,-10 9,-18 18,-23 9,0 18,-13 9,-22 -10,0 -27,18 -32,27 z"
     sodipodi:nodetypes="ccccccsccsccccccccccsccccsccccccccccccccccccccccccccccccccccccccccccccccccccccccccccccccccccccccccccccccccccsccsccccccccccccscccccccccccccscccccccsccccccccccccccccccccccccsccccccccccccccccccccccccccscscccccccccccccccccccccccccccccccccccccccccccscccccccsscccscccscccsccccccccccscccccscccccccccccccccccccccscccccccccccccc" />
  <path
     id="path6"
     style="display:inline"
     d="m 1984,877 c -10,0 -18,9 -18,13 0,10 4,14 13,14 10,0 18,-10 18,-14 0,-4 0,-13 -13,-13 z M 1540,760 c 0,0 9,0 18,-14 4,-9 13,-36 0,-45 l -14,14 c 0,9 10,9 0,27 z m 27,-10 c 4,0 13,-13 13,-22 l 18,-22 5,-23 -14,10 -13,35 c -5,10 -14,18 -10,23 z m 22,-17 -9,17 c 0,9 5,9 10,0 0,-10 13,-18 17,-23 10,0 23,-13 14,-22 -14,0 -27,18 -32,27 z m -207,27 c 0,0 9,0 18,-14 4,-9 13,-36 4,-45 l -18,14 c 0,9 10,9 0,27 z m 27,-10 c 9,0 13,-13 18,-22 l 13,-22 5,-23 -14,10 -13,35 c -5,10 -14,18 -10,23 z m 22,-17 -9,18 c 0,9 10,9 10,0 0,-9 13,-18 22,-23 4,0 17,-13 8,-22 -8,0 -26,18 -30,27 z m -679,27 c 0,0 10,0 18,-14 5,-9 14,-36 5,-45 l -18,14 c 0,9 9,9 0,27 z m 27,-10 c 10,0 14,-13 18,-22 l 14,-22 4,-23 -13,10 -14,35 c 0,10 -13,18 -9,23 z m 23,-17 -10,18 c 0,9 10,9 10,0 0,-9 13,-18 22,-23 5,0 18,-13 10,-22 -10,0 -28,18 -32,27 z m -360,27 c 0,0 10,0 14,-14 9,-9 13,-36 9,-45 -10,0 -18,10 -18,14 0,9 9,9 0,27 z m 27,-10 14,-22 18,-22 4,-23 c 0,0 -9,0 -13,10 -10,8 -10,22 -14,35 -4,10 -13,18 -9,23 z m 23,-17 -10,18 c 0,9 5,9 10,0 0,-10 13,-18 18,-23 9,0 17,-13 9,-22 -10,0 -23,18 -27,27 m 566,67 h -36 c -45,0 -162,-22 -234,32 0,0 10,-27 -18,-32 l -36,14 -36,22 c 0,0 0,-22 -13,-36 -14,-9 -50,18 -59,27 0,0 0,-18 -13,-22 -14,-5 -45,13 -59,22 0,0 10,-18 0,-22 -9,-5 -44,9 -62,27 l 49,-77 c 31,-45 67,-90 112,-85 v -5 c 0,0 -40,-18 -117,81 l -76,114 c 0,0 -45,45 -63,22 -18,-18 0,-76 36,-67 0,0 -9,9 0,18 10,4 36,-14 23,-23 -14,-9 -45,-13 -72,27 -32,40 -14,59 0,68 9,4 31,4 58,-23 0,0 -54,90 -126,171 -52.78792,53.205 -111.50509,100.1787 -175,140 h 9 c 0,0 103,-68 180,-140 58.10172,-62.00979 109.39429,-130.06464 153,-203 0,0 31,-32 44,-27 10,0 -4,27 -13,45 l -36,45 c 0,0 14,0 36,-23 0,0 40,-72 76,-67 14,0 10,18 5,36 -5,22 -14,36 -40,36 0,0 13,-18 0,-23 -23,0 -32,32 -10,36 23,5 68,-18 77,-67 0,0 27,-27 45,-18 18,9 4,76 -23,72 0,0 10,-14 0,-18 -18,-10 -40,22 -13,31 36,5 67,-45 67,-63 l 36,-22 c 14,-10 27,-5 32,4 0,23 -23,63 -50,81 h 10 c 0,0 35,-31 49,-9 18,18 0,77 -72,140 -41.46643,38.733 -86.68992,73.2368 -135,103 h 4 c 0,0 140,-85 194,-153 54,-72 54,-126 -6,-112 0,0 18,-18 27,-40 0,0 23,-19 86,-23 0,0 -68,36 -45,76 13,36 72,-9 72,-9 0,0 0,45 63,10 0,0 -27,58 -167,184 -60.69722,55.1904 -126.30238,104.729 -196,148 h 10 c 0,0 107,-63 233,-180 72.4899,-61.69676 134.61257,-134.62336 184,-216 l 32,-27 z m -158,72 c 0,0 -45,36 -50,14 -18,-36 40,-72 40,-72 h 60 c -50,31 -50,58 -50,58 z m 85,-9 c 0,0 -45,36 -58,23 -23,-32 36,-68 36,-68 h 53 l -30,45 z M 2060,680 c -31,-18 -90,18 -112,50 l -45,71 c -112,5 -135,54 -135,54 45,-36 95,-31 95,-31 l -50,54 c -27,27 -54,27 -54,27 5,-36 -36,-45 -50,-36 -13,9 -13,22 0,36 14,9 37,9 37,9 -10,36 -45,58 -100,54 -58,0 -76,-50 -35,-100 36,-44 90,-44 90,-44 0,0 45,13 80,0 37,-18 37,-36 37,-36 l -23,9 c -4,22 -31,18 -58,13 l -63,-13 c 18,-18 36,-45 80,-77 46,-36 73,-45 90,-31 14,9 14,27 10,36 -5,9 -14,18 -36,13 -23,-9 -10,-22 -10,-22 0,4 19,13 28,0 9,-14 -14,-32 -32,-14 -13,10 -22,32 -4,45 18,10 45,0 58,-9 10,-13 32,-45 5,-63 -23,-18 -63,0 -113,40 -50,40 -85,86 -85,86 -59,0 -90,27 -90,27 0,0 0,-22 -14,-27 -40,0 -80,40 -80,40 0,0 22,-44 8,-44 -35,9 -90,50 -90,50 12.1458,-16.80462 24.4799,-33.47234 37,-50 -14,9 -23,9 -72,0 -45,0 -81,31 -81,31 0,0 9,-22 -10,-27 -13,0 -26,0 -35,10 l -23,22 c 0,0 32,-23 45,-10 10,10 -27,64 -27,64 0,0 -18,9 -22,4 -14,-9 9,-85 -5,-90 -13,0 -54,32 -54,32 0,0 0,-23 -9,-27 -27,-10 -76,40 -76,40 58,-121 80,-144 126,-175 58,-45 90,-27 90,-27 l 13,-14 c -27,-13 -117,32 -157,72 -43.0772,48.11354 -78.1867,102.80345 -104,162 -13,36 -27,45 -27,45 27,0 32,-27 54,-50 32,-26 54,-40 63,-35 10,4 14,31 0,54 -14,23 -40,18 -40,18 22,-23 0,-32 -14,-14 -22,27 32,32 59,0 31,-27 22,-45 22,-45 l 18,-13 c 23,-14 18,27 18,58 0,32 32,23 32,23 0,0 -5,18 -81,103 -30.5213,41.4352 -68.922,76.4377 -113,103 h 5 c 64.0832,-41.7051 121.4125,-92.9642 170,-152 33.4365,-36.72814 59.5692,-79.49059 77,-126 27,-18 59,-14 59,-14 -32,18 -63,54 -50,77 14,27 63,0 63,0 l -67,99 c -56.0115,57.9657 -116.1707,111.7747 -180,161 h 4 c 0,0 113,-72 180,-157 40.474,-41.23083 76.6593,-86.46254 108,-135 22.0309,-19.98334 47.8852,-35.29179 76,-45 l -17,45 c -10,18 -45,108 -190,225 -58.1176,56.9497 -122.9235,106.6454 -193,148 h 18 c 32,-22 122,-80 220,-170 100,-90 113,-117 127,-140 13,-22 26,-54 49,-76 18,-18 45,-32 58,-27 10,0 14,31 0,54 -9,27 -36,18 -36,18 0,0 18,-14 5,-23 -18,-9 -36,23 -14,32 14,9 40,0 59,-23 13,-18 18,-45 18,-45 36,-36 108,-18 108,-18 -81,27 -135,90 -108,135 27,45 108,32 144,10 20.2694,-9.10236 36.3453,-25.53543 45,-46 31,0 63,-40 63,-40 0,0 0,27 22,31 23,0 45,-22 45,-22 -83.6673,127.1484 -192.5903,235.731 -320,319 h 10 c 0,0 103,-63 162,-122 53.3158,-49.0298 101.5592,-103.30356 144,-162 53,-81 76,-100 76,-100 0,0 27,0 58,-13 32,-13 36,-36 36,-36 l -13,10 c -10,30 -90,22 -90,22 67,-86 90,-100 130,-117 36,-14 63,18 45,40 -8.5785,8.51667 -22.4215,8.51667 -31,0 l -10,-9 c 19,10 41,-9 23,-22 -18,-13 -58,22 -18,45 36,22 81,-36 54,-68 -31,-27 -90,10 -90,10 z m -314,225 c 0,0 -14,0 -23,-10 -9,0 -13,-13 -9,-17 l 23,4 c 9,10 9,23 9,23 z m -382,-27 c 0,0 -45,31 -54,0 -10,-27 31,-54 40,-59 h 45 z m 485,0 c -9,-32 32,-59 32,-59 h 31 l 27,5 -36,50 c -17.8545,10.88061 -45.7779,23.97735 -54,4 z m 63,-77 45,-67 c 22,-23 58,-45 76,-32 0,0 -22,14 -90,100 z"
     sodipodi:nodetypes="ssssscccccccccccccccccccccccccccccccccccccsccccccccccccccccccccsccccccscccccccccccccccccscccccccccccccccccccccccccccccccccccccscccccccccccccccccccccccccccccccccccccccccccccccccccccccccccccccccsccccccccccccsccccccccccccccscccccsccccccccccccccccccccccccccccccsccccccccccccccccccsccccccccccccccccccccccccc" />
  <path
     id="path869"
     style="display:inline"
     d="m 4332,239 c 0,0 11,8 14,-5 2,-11 -25,-21 -50,-7 -23,13 -29,35 -63,25 -34,-10 -25,20 -6,12 19,-6 28,15 76,-14 23,-13 23,-20 28,-11 z m -4,-86 c 0,0 15,4 13,-13 0,-15 -42,-18 -60,9 -19,29 -8,63 -45,66 -38,5 -17,38 0,19 15,-17 25,4 62,-56 18,-26 21,-34 30,-25 m -1571,-3 c 4,0 13,0 18,-14 9,-9 13,-36 9,-45 -10,0 -18,10 -18,14 0,9 9,9 0,27 0,13 -10,18 -10,18 z m 31,-10 14,-22 18,-27 4,-18 c 0,0 -9,0 -13,10 -10,8 -10,22 -14,35 -4,10 -13,18 -9,23 z m 23,-17 -10,18 c 0,9 5,9 10,0 0,-10 13,-18 18,-23 9,0 18,-18 9,-22 -10,0 -23,18 -27,27 z m 265,27 c 4,0 13,0 18,-14 9,-9 13,-36 9,-45 -10,0 -18,10 -18,14 0,9 9,9 0,27 0,13 -10,18 -10,18 z m 31,-10 14,-22 18,-27 4,-18 c 0,0 -9,0 -13,10 -10,8 -10,22 -14,35 -4,10 -13,18 -9,23 z m 23,-17 -10,18 c 0,9 5,9 10,0 0,-10 13,-18 18,-23 9,0 18,-18 9,-22 -10,0 -23,18 -27,27 z m 764,27 14,-14 c 9,-9 13,-36 4,-45 l -13,14 c 0,9 9,9 0,27 0,13 -10,18 -10,18 z m 27,-10 14,-22 18,-27 c 0,-4 9,-18 0,-18 l -10,10 -17,35 c 0,10 -14,18 -5,23 z m 18,-17 -4,18 c 0,9 4,9 9,0 0,-10 13,-18 18,-23 9,0 17,-18 9,-22 -10,0 -23,18 -32,27 m 180,63 -81,-10 c 25.8147,-39.20501 59.5349,-72.58469 99,-98 31,-18 45,-14 54,-10 9,5 18,19 13,32 -4,10 -18,18 -31,14 -14,-5 -10,-14 -10,-14 23,10 28,-13 19,-22 -10,-10 -18,0 -23,0 -4,9 -22,31 0,45 27,13 45,0 54,-10 10,-8 23,-44 0,-62 -22,-18 -63,0 -103,36 -36,31 -81,90 -81,90 -54,0 -90,22 -90,22 0,0 0,-22 -22,-22 -40,0 -81,36 -81,36 9,-14 18,-36 0,-36 l -59,31 c 0,0 10,-27 -22,-31 -20.0495,0.65022 -39.2043,8.45405 -54,22 0,-9 0,-22 -27,-22 -27,0 -72,31 -72,31 4,-4 13,-27 4,-31 -22.2598,7.5471 -43.4388,17.96853 -63,31 l 18,-31 c -40.5377,1.75712 -114.8567,-2.36756 -151.2567,2.88082 C 3373.3432,185.12921 3378.862,190.25065 3346,208 l 27,-40 c -14,0 -10,9 -36,13 h -122 c -54,0 -99,27 -99,27 0,0 5,-31 -13,-27 -18,0 -72,36 -72,36 0,0 0,-31 -13,-36 -23,-9 -63,23 -63,23 0,0 0,-23 -18,-27 -27,-5 -63,31 -63,31 0,0 13,-27 0,-31 l -32,18 c 54,-90 63,-104 90,-130 27,-23 45,-19 45,-19 l 5,-4 c -36,0 -72,27 -100,63 -44,58 -80,121 -80,121 -45,45 -72,40 -81,36 -14,-4 -18,-36 0,-54 13,-22 36,-13 36,-13 0,0 -14,13 0,18 l 18,-5 c 4,-9 9,-18 0,-27 -23,-13 -63,10 -77,36 -18,23 -18,50 0,63 27,23 90,-36 90,-36 -41.4893,82.31526 -94.3393,158.39233 -157,226 -80,85 -144,126 -144,126 h 5 c 106.9159,-71.3248 198.6752,-163.08414 270,-270 l 67,-112 c 9,-5 22,-18 27,-14 0,0 0,18 -18,45 l -28,45 c 0,0 22,-9 36,-36 27,-50 67,-58 76,-54 5,10 10,27 -4,50 -18,31 -32,22 -32,22 0,0 18,-13 5,-22 -18,-18 -36,18 -23,27 18,13 36,9 54,-14 13.8038,-11.53741 23.3158,-27.39081 27,-45 45,-31 59,-13 50,18 0,32 -23,32 -23,32 0,0 5,-5 -4,-14 -18,-13 -32,14 -23,23 10,9 23.3443,13.12706 48,-7 24.7164,-20.17668 29,-43 29,-43 0,0 62,-36 62,-18 10,32 -58,77 -58,77 h 18 c 9,0 22,-10 31,-5 10,0 45,27 -27,104 -47.4145,52.802 -100.0117,100.70902 -157,143 h 10 c 147,-108 215,-181 215,-238 0,-45 -54,-22 -54,-22 31,-23 45,-45 45,-45 54,-27 80,-27 80,-27 0,0 -58,45 -44,72 13,36 72,0 72,0 13,40 76,-5 76,-5 l -102,157 c -51.5348,66.42949 -113.7082,123.87224 -184,170 h 4 c 36,-27 112,-76 189,-170 76,-90 135,-203 135,-203 l 63,-22 c 0,0 -60,45 -45,75 13,32 72,-9 72,-9 13,40 63,5 63,5 0,0 -54,80 -108,140 -104,107 -225,188 -225,188 h 13 c 0,0 135,-90 230,-193 90,-90 134,-180 134,-180 23,-14 45,-27 50,-23 4,0 0,18 -14,36 -73.0955,132.64861 -292,342 -292,342 h 11 c 0,0 147.1946,-129.41372 263,-283 0,0 14,-14 40,-14 37,0 68,18 109,10 67,-10 80,-32 80,-32 -43,23 -61,13 -61,13 45,-22 58,-54 58,-54 18,-18 40,-27 45,-22 5,9 -9,45 -27,67 -76.2003,129.38305 -176.7141,242.80064 -296,334 h 9 c 0,0 134,-108 210,-202 68,-81 109,-158 109,-158 45,-45 72,-40 76,-36 5,5 18,27 -4,50 -27,27 -36,13 -36,13 v -12 c -14,-10 -40,9 -23,27 14,18 40,4 63,-18 15.9313,-10.45752 27.3524,-26.51853 32,-45 67,-36 116,-18 116,-18 -103,36 -125,108 -116,140 9,35 62,49 112,35 50,-18 76,-54 72,-76 0,-23 -32,-36 -54,-32 -27,10 -32,40 -10,36 19,0 14,-22 14,-22 23,-10 50,22 27,54 -27,31 -80,31 -112,18 -31,-18 -45,-54 0,-100 45,-44 94,-44 94,-44 0,0 59,13 90,9 63,-10 81,-45 81,-45 l -18,4 c -31.5662,32.05316 -76.71,20.28144 -113,13 z m -895,72 c 0,0 -44,18 -49,0 -10,-18 13,-54 50,-63 h 44 c 0,0 -45,31 -45,63 z m 81,-14 c 0,0 -45,27 -58,14 -14,-14 18,-54 36,-59 l 58,-9 z m 122,10 c 0,0 -36,22 -45,4 -10,-14 0,-50 36,-63 h 54 c 0,0 -45,31 -45,58 z m 72,0 c 0,0 -32,13 -45,0 -14,-5 9,-46 31,-60 h 45 z m 143,13 c 0,0 -45,-5 -76,9 l 27,-45 31,-27 c 18,-10 35.9274,-16.33061 45,0 6.5337,11.76058 5.8038,24.12138 0,31 z m 63,4 h -54 c 0,0 45,-36 45,-63 0,0 45,-27 54,-4 10,18 -18,58 -45,67 m 0,-112 c 36,9 68,0 81,0 14,-10 32,-36 18,-36 -13,0 -13,22 -13,22 -32,10 -45,0 -90,-4 -32,0 -54,0 -72,9 -14.9579,4.17388 -27.8049,13.80909 -36,27 36,-23 72,-23 112,-18 z m 10,-27 c 0,0 13,-5 13,-14 4,-9 18,-22 27,-22 4,-5 9,-14 0,-14 -5,0 -18,5 -23,14 0,9 -13,22 -18,27 -4,4 -9,9 0,9 z"
     sodipodi:nodetypes="cccscccccccccccsccsccsccccccccccccccsccsccscccccccccccccccsccccccccccccccccccccccccccscccccccscccccsccccccccscccccccccccccccccccccccccccccccccccccccccccscccsccccscccccccccccccccccccccccccsccccccccccsccccccccccccccccccccccccccccsccsccccscccccsccccssccccccccsccccscccscss" />
  <path
     id="path865"
     style="display:inline"
     d="m 503,233 c -2,-13 27,-23 52,-8 25,14 30,38 67,25 35,-8 25,23 6,15 -20,-7 -28,15 -81,-16 -23,-14 -23,-21 -29,-11 -6.1567,5.23751 -12.40323,1.80426 -15,-5 z m 17,-85 c 0,0 -14,2 -12,-14 0,-16 44,-20 63,10 20,29 9,65 47,70 40,4 18,38 2,19 -17,-19 -28,4 -68,-59 -18,-29 -21,-36 -31,-26 z m 1554,-25 -5,18 c 0,9 0,9 10,0 0,-10 8,-18 17,-23 10,0 18,-18 10,-22 -10,0 -28,18 -32,27 z m -1030,27 c 5,0 14,0 18,-14 10,-9 14,-36 10,-45 -10,0 -19,10 -19,14 0,9 10,9 0,27 0,13 -9,18 -9,18 z m 32,-10 13,-22 18,-27 c 5,-4 10,-18 0,-18 l -9,10 -18,35 c 0,10 -13,18 -4,23 z m 18,-17 -5,18 c 0,9 5,9 10,0 0,-10 13,-18 17,-23 10,0 18,-18 10,-22 -10,0 -23,18 -32,27 z m -369,27 c 0,0 9.81054,0.48905 18,-14 4.8462,-8.57405 8.73034,-35.73818 0,-45 -4.1066,-4.356602 -10.16667,0.416667 -12.5,2.75 -2.33333,2.333333 -1.5,11.25 -1.5,11.25 0.85328,8.95946 10,9 0,27 z m 26,-9 c 4,0 14,-14 14,-23 l 18,-27 5,-18 -14,10 -13,35 c -5,10 -14,18 -10,23 z m 23,-18 -9,18 c 0,9 5,9 10,0 0,-10 13,-18 17,-23 10,0 23,-18 14,-22 -14,0 -27,18 -32,27 z m 946.1872,175.17678 c 0,0 24.8128,-18.17678 69.8128,-9.17678 45,9 117,0 135,-31 0,0 -18,13 -50,9 0,0 64,-45 41,-77 -18,-22 -72,14 -72,14 0,0 0,-23 -18,-23 -22,0 -63,32 -76,45 0,0 18,-36 9,-45 -10,-9 -68,32 -68,32 0,0 10,-27 -13,-32 -27,0 -54,18 -76,45 0,0 27,-45 4,-45 0,0 23,-45 63,-80 45,-37 76,-32 90,-23 9,13 0.6879,42.70502 -14,45 -17.7842,2.77878 -27,-10 -22,-18 0,0 13.1716,1.44454 16.2322,-5.707107 C 1742.2929,92.141243 1741,78 1727,78 c -14,0 -22,9 -22,27 0,18 13,27 31,27 18,0 45,-18 45,-45 0,-32 -18,-36 -31,-36 -18,0 -45,0 -90,45 -45,45 -72,90 -72,90 l -45,31 c 0,0 0,-27 -18,-31 -22,-10 -50,9 -72,22 0,0 0,-22 -22,-27 -23,-4 -63,36 -63,36 0,0 9,-27 0,-31 -14,-10 -59,31 -59,31 l 18,-27 18,-13 c 0,0 -18,13 -45,9 h -103 c -45,0 -67,0 -103,22 0,0 0,-18 -14,-22 -22,0 -72,27 -72,27 0,0 5,-23 -18,-27 -31,-10 -67,27 -67,27 0,0 4,-23 -10,-27 -13,-5 -53,18 -58,22 0,0 10,-18 0,-22 0,-5 -40,9 -63,27 l 78,-104 c 30.54701,-40.729351 67,-63 90,-58 v -5 c 0,0 -32,-13 -104,59 -38.79338,40.6868 -72.38377,86.03383 -100,135 l -35,22 c -18,10 -32,10 -36,-13 -5,-23 13,-59 44,-54 0,0 -8,18 5,22 13,0 22,-13 22,-18 0,-18 -35,-18 -53,-9 -36,23 -59,72 -32,90 23,23 67,-18 67,-18 0,0 -71,108 -125,168 -90,80 -198,157 -198,157 h 9 l 63,-45 99,-76 c 37.5908,-28.31622 72.11246,-60.49174 103,-96 58,-72 103,-144 103,-144 0,0 36,-22 45,-18 10,0 -36,77 -58,90 l 21,-8 36,-36 c 10,-18 40,-50 59,-36 18,10 -5,72 -36,63 0,0 9,-13 0,-22 -5,-5 -14,0 -23,13 0,14 0,27 23,23 33.50497,-7.97933 59.51789,-34.3805 67,-68 0,0 36,-22 54,-18 14,10 0,81 -31,72 0,0 13,-22 0,-27 -14,-9 -32,23 -18,36 13,14 45,0 58,-18 18,-22 18,-31 23,-45 0,0 45,-31 58,-13 10,13 -13,58 -54,80 h 14 c 0,0 22,-17 45,-8 13,9 0,63 -23,90 -50.9149,45.40658 -108.18534,83.1377 -170,112 h 4 c 0,0 130,-54 180,-108 45,-45 45,-99 31,-108 -9,-13 -36,0 -36,0 0,0 27,-27 36,-50 0,0 27,-17 68,-17 0,0 -63,45 -45,80 22,37 80,-17 80,-17 0,0 -4,22 14,27 22,0 50,-18 50,-18 0,0 -46,99 -144,189 -61.6999,59.62462 -129.77666,112.27512 -203,157 h 10 c 0,0 98,-59 210,-162 108,-103 167,-225 167,-225 0,0 36,-31 45,-27 9,0 -10,40 -14,45 0,10 -31,77 -90,149 -56.6923,70.45556 -122.2327,133.30709 -195,187 h 9 c 0,0 111,-80 191,-180 41.4633,-51.58051 77.6447,-107.19258 108,-166 0,0 31,-36 50,-36 17,0 26,14 22,36 -5,23 -23,36 -36,36 0,0 9,-13 -5,-22 -13,-5 -27,13 -22,27 9,13 40,13 58,-5 23,-22 27,-31 32,-50 0,0 36,-35 58,-22 23,18 -9,77 -36,72 0,0 23,-13 10,-22 -14,-14 -37,13 -23,27 9,18 36,9 50,0 17,-18 26,-32 30,-50 0,0 37,-31 46,-27 9,5 -10,54 -45,90 l 22,-9 c 10,0 14,-9 18,-18 l 10,-22 c 0,0 40,-45 66,-40 18,4 0,76 -26,71 0,0 13,-13 0,-22 -14,-5 -36,18 -23,31 18,14 45,0 63,-18 13,-18 18,-45 18,-45 0,0 31,-22 45,-18 9,0 -18,59 -27,77 -10,18 -36,67 -90,126 -35.6085,45.99419 -76.1878,87.91498 -121,125 h 13 l 122,-120 c 34.6544,-35.07629 56.6838,-77.71534 83.1872,-117.82322 z M 1197,253 c 0,0 -45,32 -54,10 -9,-23 14,-55 36,-64 h 54 c 0,0 -32,27 -36,54 z m 90,-36 c -5.6921,8.22192 -12.0708,24.57403 -23,36 -11.5042,12.02716 -26.3857,16.13652 -36,14 -8.7857,-1.95237 -5.4486,-16.62702 0,-36 3.7904,-13.47711 18,-27 18,-27 h 50 z m 557,0 c 0,0 32,-31 45,-13 18,31 -27,67 -27,67 l -58,-4 c 40,-32 40,-50 40,-50 z m -27,-13 c 23,27 -27,63 -27,63 -27,-5 -67,13 -67,13 l 36,-49.5 c 22,-22.5 50,-35.5 58,-26.5 z m 706,-36 c -18,31 -99,18 -99,18 18,-36 59,-77 81,-100 27,-17 50,-22 68,-8 17,9 13,27 9,31 -5,10 -18,18 -32,14 -13,-10 -9,-18 -9,-18 10,9 19.8904,5.59734 23,0 2.4282,-4.37079 9,-14 0,-23 -18,-13 -59,27 -23,50 18,13 40,0 54,-18 9,-14 18,-45 0,-59 -27,-27 -80,18 -80,18 -19,-18 -46,-18 -77,14 -32,36 -63,90 -63,90 -45,-5 -59,0 -81,9 -22,9 -45,4 -77,0 -31,-10 -58,-5 -58,-5 27,-45 67,-80 90,-94 18,-18 45,-27 58,-18 14,4 23,27 5,40 -14,14 -32,-4 -32,-4 18,0 32,-23 18,-32 -9,-9 -22,0 -27,10 0,4 -13,26 0,35 18,14 45,10 54,0 14,-18 23,-45 10,-58 -19,-18 -60,-14 -104,27 -31.4027,27.25237 -58.6867,58.91529 -81,94 -40,10 -72,32 -72,32 0,0 0,-32 -18,-32 -45,0 -90,45 -90,45 27,-40 18,-45 0,-40 l -45,27 c 0,0 -4,4 0,9 h 5 c 9,-10 27,-23 31,-18 5,4 -9,31 -22,58 -14,27 -36,77 -140,190 -53.8414,59.88319 -114.2174,113.55072 -180,160 h 5 c 127.9042,-95.79542 238.7844,-212.42239 328,-345 36,-45 63,-63 86,-68 18,0 22,14 9,45 -14,27 -32,27 -32,27 0,-18 -8.5603,-19.57598 -19.9445,-13.88388 C 1987.0056,261.14104 1984,271 1988,280 c 10,10 27,14 54,-9 15.0473,-13.41911 26.1171,-30.71567 32,-50 53,-35 94,-22 94,-22 -121,59 -117,126 -90,153 32,27 85,27 117,10 50,-32 40,-64 40,-64 40,-13 72,-45 72,-45 0,0 -9,32 23,32 36,0 72,-32 72,-32 0,0 -45,95 -113,185 -36,44 -72,80 -99,103 l -54,45 h 10 c 91.9064,-69.71419 169.3492,-156.66755 228,-256 l 72,-126 c 63,4 94,-40 94,-40 0,0 -14.1231,3.37459 -17,4 z m -54,-86 c 13.5591,-5.305735 27,5 27,5 -30.2368,28.11053 -58.1462,63.54684 -81.0607,97.88909 l -30.2322,-5.3033 L 2427,116 c 10.7531,-16.166945 32.4123,-30.248279 42,-34 z m -234,207 c 0,0 0,-18 -13,-31 -18,-14 -27,-5 -36,0 -10,13 -14,31 0,45 18,9 36,0 36,0 0.2725,16.54841 -8.5608,31.91081 -23,40 -27,14 -63,18 -90,-4 -40,-27 -26,-68 0,-95 36,-27 72,-40 81,-40 l 45,9 c 23,0 36,-10 59,-18 18,-10 54,0 54,0 0,0 -42.8464,47.51019 -68,67 -13.8277,10.71418 -45,27 -45,27 z m -13,5 c -32,0 -36,-23 -32,-27 5,-5 14,0 18,0 7.8758,6.93497 12.8703,16.56705 14,27 z m 207,-90 -14,27 c 0,0 -54,58 -76,27 -18,-27 27,-63 27,-63 z m 67,67 c 0.1833,-3.9958 0,-13 -13,-13 -10,0 -18,4 -18,13 0,5 4.03,14.91663 18,14 7.9995,-0.52488 12.628,-5.88807 13,-14 z M 2024,150 c 0,0 10,0 18,-14 10,-9 14,-36 5,-45 l -14,14 c 0,9 10,9 0,27 0,13 -9,18 -9,18 z m 45,-32 18,-27 c 0,-4 10,-18 0,-18 l -9,10 -18,35 c 0,10 -11.1263,21.15243 -6.5,22.5 4.6709,1.36054 11.5,-13.5 15.5,-22.5 z"
     sodipodi:nodetypes="ccccccccccccccccccccccccscccccccccccccccccsssscccccccccccccccccsccccsccccccccsczsssssscccccccccccscccccccccsccccccccsccccccccccccccccscccccccccccccccccccccccccccccccccccccscccccccccccccccccccccccccccccccccccssssccccccccccccccccccccsccccccccsccccccccccccccscccccccccccccscccccccccscccccccsscccssccccccccccccssccscccccssssscccccccsccccc" />
</svg>
