<?xml version="1.0" encoding="UTF-8" standalone="no"?>
<!-- Created with Inkscape (http://www.inkscape.org/) -->

<svg
   width="210mm"
   height="297mm"
   viewBox="0 0 210 297"
   version="1.1"
   id="svg5"
   inkscape:version="1.1 (c68e22c387, 2021-05-23)"
   sodipodi:docname="paizo goblin - line only.svg"
   xmlns:inkscape="http://www.inkscape.org/namespaces/inkscape"
   xmlns:sodipodi="http://sodipodi.sourceforge.net/DTD/sodipodi-0.dtd"
   xmlns="http://www.w3.org/2000/svg"
   xmlns:svg="http://www.w3.org/2000/svg">
  <sodipodi:namedview
     id="namedview7"
     pagecolor="#ffffff"
     bordercolor="#111111"
     borderopacity="1"
     inkscape:pageshadow="0"
     inkscape:pageopacity="0"
     inkscape:pagecheckerboard="1"
     inkscape:document-units="mm"
     showgrid="false"
     inkscape:object-nodes="false"
     inkscape:object-paths="true"
     inkscape:snap-nodes="true"
     inkscape:snap-global="true"
     inkscape:snap-smooth-nodes="false"
     inkscape:snap-intersection-paths="false"
     inkscape:snap-others="false"
     inkscape:zoom="2.387486"
     inkscape:cx="385.552"
     inkscape:cy="358.32671"
     inkscape:window-width="1440"
     inkscape:window-height="897"
     inkscape:window-x="-8"
     inkscape:window-y="-8"
     inkscape:window-maximized="1"
     inkscape:current-layer="layer1" />
  <defs
     id="defs2" />
  <g
     inkscape:label="Layer 1"
     inkscape:groupmode="layer"
     id="layer1">
    <path
       id="path4696"
       style="font-variation-settings:normal;vector-effect:none;fill:none;fill-opacity:1;stroke:#000000;stroke-width:0.0649999;stroke-linecap:butt;stroke-linejoin:miter;stroke-miterlimit:4;stroke-dasharray:none;stroke-dashoffset:0;stroke-opacity:1;-inkscape-stroke:none;stop-color:#000000"
       d="m 118.13507,73.363433 c 0,0 6.76008,6.870896 13.18769,-0.554106 0,0 -2.74836,-1.318768 -3.21381,-1.939364 -0.66493,-0.886569 -4.59906,-1.883955 -6.76007,-0.166233 -2.16101,1.717725 -2.54888,2.49347 -3.21381,2.659703 z m -34.022011,4.266605 c 0,0 1.302146,1.565345 3.490859,2.126376 2.188713,0.56103 5.263993,0.117747 8.810261,-3.899511 0,0 -1.648461,-1.842397 -4.010331,-2.541954 -1.180935,-0.349779 -3.443778,-0.473964 -4.625906,0.513412 -0.977476,0.816438 -1.794779,2.236331 -3.664883,3.801677 z" />
    <path
       id="path5634"
       style="font-variation-settings:normal;vector-effect:none;fill:none;fill-opacity:1;stroke:#000000;stroke-width:0.0649999;stroke-linecap:butt;stroke-linejoin:miter;stroke-miterlimit:4;stroke-dasharray:none;stroke-dashoffset:0;stroke-opacity:1;-inkscape-stroke:none;stop-color:#000000"
       d="m 80.997961,87.884988 0.07347,-1.418542 m 1.96823,3.675586 -0.140298,-3.133169 -1.25671,1.674188 m 3.945514,3.605514 -0.352843,-4.609692 -1.309076,3.268488 m 4.567465,3.307207 c -0.850701,-1.952514 -0.748189,-3.905028 -0.572458,-5.857542 0,0 -1.59584,1.388406 -1.228341,4.688448 m 5.276871,3.051088 c 0,0 -1.839087,-4.797518 -1.689442,-7.289464 0,0 -1.541745,5.575961 -0.816866,5.978768 m 6.767957,3.051776 c 0,0 -2.696504,-7.514021 -2.368283,-9.283168 0,0 -1.784559,3.843636 -0.963255,7.972298 m 8.509164,2.673053 c 0,0 -3.742725,-7.448989 -3.717058,-11.303084 0,0 -1.930098,6.351304 -0.482041,10.260258 m 9.753749,1.604246 c 0,0 -4.57503,-10.049113 -3.73686,-13.589116 0,0 -2.66942,7.415604 -0.91563,13.182777 m 9.26637,0.129349 c 0,0 0.69894,-9.621829 -3.13255,-14.138142 0,0 -3.20086,10.778442 -0.53841,14.415222 m 8.65973,-1.413587 c 0,0 0.69258,-9.441566 -2.61317,-13.009586 0,0 -0.10352,13.797999 -1.35269,13.987158 m 9.05292,-3.162461 c 0,0 -0.60158,-7.362624 -2.15994,-10.015686 0,0 -0.1818,11.251636 -1.65884,11.759322 m 8.27244,-4.666785 c 0,0 -0.17333,-4.369154 -2.21359,-7.057376 0,0 0.18729,8.596352 -1.0758,9.315166 m 6.35039,-4.922763 c 0,0 -0.32282,-2.558619 -2.05568,-5.093891 0,0 0.49115,6.553833 -0.14378,7.067561 m 4.62111,-4.530492 c 0,0 -1.26865,-3.946734 -1.60251,-3.768717 -0.33386,0.178017 -0.26742,5.780267 -0.26742,5.780267 m 4.12603,-4.809008 -1.6232,-2.31539 0.10792,4.24148 m 3.24164,-4.378894 -1.19082,-1.015884 0.009,2.726076 m 1.75557,-3.668791 -0.14942,1.309605 m -56.067071,3.961405 c 3.697711,8.44606 36.600881,28.835536 57.204411,-5.798804 l -5.72044,3.056128 c 0,0 -5.25027,4.231558 -13.24321,2.585953 -7.99295,-1.645608 -15.359,0.07836 -16.92624,0.940345 -1.567243,0.861983 -9.388503,2.282348 -11.597605,1.880693 -2.585955,-0.470173 -9.716916,-2.664315 -9.716916,-2.664315 z" />
    <path
       id="path8925"
       style="font-variation-settings:normal;display:inline;opacity:1;vector-effect:none;fill:none;fill-opacity:1;stroke:#000000;stroke-width:0.0649999;stroke-linecap:butt;stroke-linejoin:miter;stroke-miterlimit:4;stroke-dasharray:none;stroke-dashoffset:0;stroke-opacity:1;-inkscape-stroke:none;stop-color:#000000;stop-opacity:1"
       d="m 68.279525,85.359795 3.421595,1.579198 c 0,0 -0.941978,-0.05541 -1.939366,1.163619 -0.997388,1.21903 -2.992164,4.211194 -2.992164,4.211194 0,0 -0.443284,0.886567 -0.277053,1.329851 l -3.13069,-2.050187 c -0.350504,-1.582474 2.968405,-7.156199 4.917678,-6.233675 z m -1.786988,8.28386 c 0.877492,-0.175998 1.381196,-1.034917 2.10698,-2.067406"
       sodipodi:nodetypes="ccscccccc" />
    <path
       id="path14775"
       style="font-variation-settings:normal;display:inline;opacity:1;vector-effect:none;fill:none;fill-opacity:1;stroke:#000000;stroke-width:0.0649999;stroke-linecap:butt;stroke-linejoin:miter;stroke-miterlimit:4;stroke-dasharray:none;stroke-dashoffset:0;stroke-opacity:1;-inkscape-stroke:none;stop-color:#000000;stop-opacity:1"
       d="m 76.798881,77.685447 -14.960822,-8.64403 c 0,0 -4.100373,-3.546269 -10.417165,-3.435448 -6.316789,0.11082 -4.558108,-0.581457 -7.203357,-0.332462 -1.753415,0.165047 -5.703093,3.858148 0.886568,5.208582 2.577732,0.52826 9.761904,8.281653 13.298507,16.013619 0.737743,1.114334 4.257144,3.917299 5.101607,3.826813 m 12.768196,3.45936 c -1.080566,1.246434 -4.952792,-1.14252 -5.901147,-1.689719 0,0 -2.294101,-0.839372 -2.842636,-0.907939 m 7.34477,-3.520921 c 0,0 -11.040831,-9.26435 -12.425828,-12.803788 C 59.954105,68.487313 51.191863,65.609689 51.191863,65.609689 M 142.2891,81.628595 c 0,0 12.30605,-14.249492 11.64112,-17.241654 -0.66492,-2.992165 7.48041,-11.192912 7.48041,-11.192912 m -22.25054,18.033539 c 0,0 5.46118,-4.070106 5.90446,-4.901263 0.44329,-0.831157 7.59123,-7.812873 7.59123,-7.812873 0,0 4.98694,-4.599067 8.75485,-5.319403 0,0 4.37743,-2.327238 6.48302,-2.715112 2.1056,-0.387874 5.15318,0.941977 2.05019,3.657089 -3.10298,2.715112 -4.48824,4.654479 -4.59907,5.153173 -0.11082,0.498692 -0.60951,2.438059 -1.21903,3.324627 -0.60951,0.886566 -5.04235,11.414551 -5.04235,11.414551 0,0 -1.36571,5.310398 -6.3722,7.425 -3.49086,1.474442 -3.74275,2.439802 -4.70988,3.324627 -1.42678,1.305351 -1.42581,2.737847 -5.4228,2.061554 M 76.798881,77.685447 c 0,0 13.298506,-18.174626 29.256719,-18.839553 15.9582,-0.664925 24.98999,4.712844 33.02462,12.301119 1.99477,1.883957 4.15908,13.606397 3.43545,15.958209 -0.88657,2.881345 -15.95821,23.161568 -32.02723,23.050748 -17.969317,-0.12394 -34.243666,-16.401494 -34.243666,-16.401494 0,0 -3.657089,-9.198134 0.554107,-16.069029 z" />
  </g>
</svg>
