<?xml version="1.0" encoding="UTF-8" standalone="no"?>
<svg
   xmlns:dc="http://purl.org/dc/elements/1.1/"
   xmlns:cc="http://creativecommons.org/ns#"
   xmlns:rdf="http://www.w3.org/1999/02/22-rdf-syntax-ns#"
   xmlns:svg="http://www.w3.org/2000/svg"
   xmlns="http://www.w3.org/2000/svg"
   xmlns:sodipodi="http://sodipodi.sourceforge.net/DTD/sodipodi-0.dtd"
   xmlns:inkscape="http://www.inkscape.org/namespaces/inkscape"
   sodipodi:docname="planeswalker.svg"
   inkscape:version="1.0 (4035a4fb49, 2020-05-01)"
   id="svg8"
   version="1.1"
   viewBox="0 0 210 297"
   height="297mm"
   width="210mm">
  <defs
     id="defs2" />
  <sodipodi:namedview
     inkscape:window-maximized="0"
     inkscape:window-y="38"
     inkscape:window-x="38"
     inkscape:window-height="997"
     inkscape:window-width="1624"
     showgrid="false"
     inkscape:document-rotation="0"
     inkscape:current-layer="layer1"
     inkscape:document-units="mm"
     inkscape:cy="560"
     inkscape:cx="400"
     inkscape:zoom="0.35"
     inkscape:pageshadow="2"
     inkscape:pageopacity="0.0"
     borderopacity="1.0"
     bordercolor="#666666"
     pagecolor="#ffffff"
     id="base" />
  <metadata
     id="metadata5">
    <rdf:RDF>
      <cc:Work
         rdf:about="">
        <dc:format>image/svg+xml</dc:format>
        <dc:type
           rdf:resource="http://purl.org/dc/dcmitype/StillImage" />
        <dc:title></dc:title>
      </cc:Work>
    </rdf:RDF>
  </metadata>
  <g
     id="layer1"
     inkscape:groupmode="layer"
     inkscape:label="Layer 1">
    <path
       id="path847"
       d="m 107.73317,217.5798 c -0.0863,-0.41457 -0.33797,-2.71829 -0.55919,-5.11938 -1.34012,-14.54535 -3.69765,-24.16371 -8.203683,-33.4698 -3.12956,-6.46332 -6.69768,-11.49392 -11.75217,-16.56906 -4.93007,-4.95019 -10.46469,-8.81309 -15.89402,-11.09325 -1.09141,-0.45835 -2.07368,-0.91671 -2.18284,-1.01857 -0.44548,-0.41572 3.09886,-40.41996 3.73307,-42.1344 0.30641,-0.8283 0.62733,1.01437 1.75789,10.09341 1.01922,8.18504 1.66276,12.42651 2.50898,16.53646 0.61356,2.97997 1.76023,6.92115 2.06925,7.11213 0.33126,0.20473 4.32714,-1.30101 4.56085,-1.71863 0.39603,-0.70767 1.56239,-5.69163 2.22952,-9.52692 0.88006,-5.05949 2.03865,-14.44616 3.18007,-25.7645 1.02285,-10.142526 1.34417,-12.806866 1.57201,-13.034696 0.0827,-0.0827 0.15037,0.0377 0.15037,0.26749 0,0.22983 0.47935,5.57772 1.06522,11.884196 1.63677,17.61858 2.81654,27.04177 3.98382,31.81978 0.28179,1.15345 0.54161,2.12645 0.57738,2.16223 0.1319,0.1319 4.390943,-0.23669 4.660593,-0.40334 0.41855,-0.25868 1.53148,-4.69763 2.2618,-9.02122 1.33317,-7.89261 2.1704,-16.7949 3.19691,-33.993186 0.37349,-6.2574 0.79251,-12.38912 0.93117,-13.62604 0.13865,-1.23693 0.2567,-2.36802 0.26231,-2.51354 0.006,-0.14553 0.11709,-0.0821 0.24771,0.1409 0.32409,0.55336 0.69833,5.03454 1.33611,15.99868 0.94172,16.189206 1.95274,26.977806 3.1861,33.998956 0.75413,4.29301 1.82128,8.65415 2.18865,8.94437 0.17138,0.13539 1.30091,0.31064 2.51006,0.38945 2.58753,0.16864 2.35169,0.44912 3.18455,-3.78721 1.17591,-5.98123 2.09856,-13.69474 3.60672,-30.15286 0.5134,-5.602546 1.01394,-10.662706 1.11232,-11.244786 l 0.17886,-1.05834 0.20549,1.19063 c 0.11302,0.65484 0.695,6.01265 1.29329,11.906246 1.28201,12.62879 2.11999,19.51461 3.05778,25.12652 0.80379,4.81 2.07738,10.03567 2.55372,10.47815 0.18474,0.1716 1.05027,0.55228 1.92339,0.84595 0.87313,0.29367 1.78765,0.61591 2.03228,0.71609 0.36868,0.15099 0.56247,-0.19042 1.13268,-1.99544 1.44582,-4.57683 2.32515,-9.50779 3.84214,-21.54523 1.18526,-9.40515 1.2982,-10.13726 1.59184,-10.31874 0.50937,-0.31481 1.44621,9.17939 3.92588,39.78597 l 0.2009,2.47974 -0.77612,0.27056 c -1.32724,0.46268 -5.77516,2.70705 -7.71627,3.89355 -9.71588,5.93881 -18.28989,16.24158 -23.04528,27.69184 -3.58162,8.62401 -5.46873,17.09465 -6.70635,30.10265 -0.51066,5.36739 -0.84442,6.86424 -1.17576,5.27319 z"
       style="fill:#000000;stroke-width:0.264583" />
  </g>
</svg>
