<?xml version="1.0" encoding="UTF-8" standalone="no"?>
<svg
   xmlns:dc="http://purl.org/dc/elements/1.1/"
   xmlns:cc="http://creativecommons.org/ns#"
   xmlns:rdf="http://www.w3.org/1999/02/22-rdf-syntax-ns#"
   xmlns:svg="http://www.w3.org/2000/svg"
   xmlns="http://www.w3.org/2000/svg"
   xmlns:sodipodi="http://sodipodi.sourceforge.net/DTD/sodipodi-0.dtd"
   xmlns:inkscape="http://www.inkscape.org/namespaces/inkscape"
   sodipodi:docname="racoon.svg"
   inkscape:version="1.0 (4035a4fb49, 2020-05-01)"
   id="svg8"
   version="1.1"
   viewBox="0 0 210 297"
   height="297mm"
   width="210mm">
  <defs
     id="defs2" />
  <sodipodi:namedview
     inkscape:window-maximized="1"
     inkscape:window-y="-11"
     inkscape:window-x="-11"
     inkscape:window-height="1346"
     inkscape:window-width="2160"
     showgrid="false"
     inkscape:document-rotation="0"
     inkscape:current-layer="layer1"
     inkscape:document-units="mm"
     inkscape:cy="673.61979"
     inkscape:cx="599.23786"
     inkscape:zoom="0.65461754"
     inkscape:pageshadow="2"
     inkscape:pageopacity="0.0"
     borderopacity="1.0"
     bordercolor="#666666"
     pagecolor="#ffffff"
     id="base" />
  <metadata
     id="metadata5">
    <rdf:RDF>
      <cc:Work
         rdf:about="">
        <dc:format>image/svg+xml</dc:format>
        <dc:type
           rdf:resource="http://purl.org/dc/dcmitype/StillImage" />
        <dc:title></dc:title>
      </cc:Work>
    </rdf:RDF>
  </metadata>
  <g
     id="layer1"
     inkscape:groupmode="layer"
     inkscape:label="Layer 1">
    <path
       id="path38"
       d="m 89.621077,123.58053 c -9.62358,-0.76737 -17.55013,-5.50027 -22.84796,-13.64239 -1.55451,-2.3891 -3.02792,-5.4409 -3.7826,-7.83471 l -0.27343,-0.86731 0.44383,-1.291693 c 0.87646,-2.55081 2.34799,-5.533883 3.6605,-7.420529 l 0.31735,-0.456173 -0.91251,-0.949206 c -1.02114,-1.0622 -1.76547,-2.119996 -2.38121,-3.384035 -1.10169,-2.261646 -1.40519,-4.007681 -1.05396,-6.063658 0.41666,-2.439033 1.90826,-5.410824 4.08032,-8.129434 0.98378,-1.231319 1.61547,-1.854985 1.87887,-1.854985 0.45687,0 3.91538,1.849061 5.7578,3.078358 2.75731,1.839723 4.99114,4.05139 5.89845,5.839933 0.16104,0.317461 0.23974,0.395967 0.35076,0.349901 0.58877,-0.244311 2.45831,-0.84311 3.40279,-1.089888 2.97016,-0.776054 6.39527,-1.111689 9.94833,-0.974864 2.65338,0.102178 4.85784,0.434719 7.239003,1.091994 0.74872,0.206668 2.94223,0.94127 3.39404,1.13665 0.10189,0.04406 0.19929,-0.06371 0.40303,-0.445964 1.22922,-2.306262 3.77223,-4.64827 7.46692,-6.876724 1.29561,-0.78145 3.96005,-2.109396 4.23237,-2.109396 0.18339,0 0.3663,0.140684 0.83393,0.64142 1.57079,1.681984 3.18493,4.087368 4.09641,6.104445 1.30777,2.894039 1.50393,5.240801 0.64516,7.718102 -0.76609,2.209943 -2.12626,4.25707 -3.77397,5.680027 l -0.52444,0.452907 0.30727,0.475382 c 1.49365,2.310829 2.98799,5.390864 3.75657,7.74281 l 0.24912,0.76235 -0.3122,0.93811 c -1.44211,4.33325 -4.1431,8.84437 -7.27927,12.15767 -5.28533,5.58381 -11.5953,8.57629 -19.447383,9.22284 -1.2254,0.1009 -4.49795,0.0998 -5.77389,-0.002 z m 6.56167,-1.13245 c 7.919473,-0.85943 14.485953,-4.4207 19.365463,-10.50267 2.31438,-2.88472 4.16478,-6.16554 5.40125,-9.57661 l 0.39137,-1.07969 -0.35503,-1.02185 c -1.14152,-3.285623 -3.06114,-6.723573 -5.36892,-9.615521 -0.95461,-1.196234 -3.11487,-3.405265 -4.19413,-4.288803 -5.52357,-4.521877 -12.066793,-6.647725 -19.812003,-6.436792 -4.2838,0.116665 -7.96402,0.901902 -11.5432,2.462931 -7.08219,3.088844 -12.94547,9.617828 -15.81267,17.608014 -0.31944,0.890191 -0.40919,1.242421 -0.36715,1.440921 0.0968,0.45682 1.04493,2.89891 1.50911,3.8868 1.63533,3.48036 3.71562,6.45394 6.35142,9.07876 3.21608,3.20269 6.57121,5.28532 10.75602,6.67661 2.62738,0.87351 4.74683,1.25935 8.3868,1.5268 0.84562,0.0621 4.1766,-0.0379 5.29167,-0.1589 z m -5.67267,-2.53845 c -4.938,-0.63891 -8.83202,-3.30764 -9.73081,-6.66889 -0.28979,-1.08371 -0.30096,-2.0178 -0.0369,-3.08539 0.0413,-0.16681 0.002,-0.18619 -0.4912,-0.24112 -1.75809,-0.1959 -3.47845,-0.89731 -5.42464,-2.21168 -1.65985,-1.121 -3.45118,-2.72101 -3.45095,-3.08239 8e-5,-0.17228 0.72865,-1.60982 1.18435,-2.33691 0.10156,-0.16204 0.0709,-0.24159 -0.3149,-0.8185 -0.86637,-1.29532 -2.19754,-4.16636 -2.28522,-4.928678 -0.0471,-0.409274 0.0554,-0.518444 1.2463,-1.328116 2.49535,-1.696512 4.96244,-2.891264 7.17985,-3.477034 0.91242,-0.241033 1.10058,-0.261845 2.38748,-0.264071 1.28807,-0.0022 1.45642,0.01579 2.159,0.231049 1.78904,0.548132 3.10778,1.315715 4.23334,2.464042 1.43462,1.463645 2.0883,3.237384 1.95143,5.29513 -0.0325,0.48895 -0.0472,1.060448 -0.0326,1.269998 0.0512,0.73347 0.0278,2.1627 -0.042,2.57286 -0.0691,0.4058 -0.0666,0.41281 0.127,0.36004 0.10859,-0.0296 0.65464,-0.11495 1.21344,-0.18967 1.29166,-0.17272 4.04416,-0.12511 5.11028,0.0884 0.38919,0.0779 0.72154,0.12779 0.73854,0.11078 0.017,-0.017 -0.0126,-0.18118 -0.0657,-0.36482 -0.0557,-0.1925 -0.0875,-0.78211 -0.0751,-1.39224 0.0287,-1.41362 0.0285,-1.65059 -0.003,-2.836337 -0.02,-0.755073 0.0116,-1.177559 0.12296,-1.64508 0.67611,-2.83909 3.21658,-5.100188 6.575523,-5.85242 1.95539,-0.43791 4.49458,0.03648 7.24986,1.354485 2.19567,1.050304 5.10617,2.889848 5.24014,3.31196 0.15151,0.477361 -1.34235,3.807432 -2.3805,5.306552 l -0.36576,0.52815 0.37857,0.64032 c 0.72131,1.22004 0.97481,1.79077 0.89208,2.00836 -0.0845,0.22233 -1.20028,1.29828 -2.03958,1.96682 -2.38244,1.89772 -4.72309,3.00957 -6.77862,3.21996 l -0.55547,0.0568 0.1092,0.52102 c 0.46044,2.19669 -0.50434,4.66532 -2.48724,6.36416 -1.76739,1.51421 -4.017843,2.50322 -6.755683,2.9689 -1.06837,0.18172 -3.67318,0.2272 -4.78367,0.0835 z m 1.60299,-2.86306 c 0.003,-1.03611 -0.0228,-1.92808 -0.058,-1.98217 -0.0352,-0.0541 -0.31155,-0.14174 -0.61403,-0.1948 -3.17518,-0.55695 -4.56886,-3.19001 -2.7362,-5.1695 0.56124,-0.60621 1.47961,-1.0997 2.44703,-1.31493 1.01257,-0.22528 2.65103,-0.13936 3.54919,0.18612 1.69239,0.61328 2.61733,1.68598 2.61733,3.03545 0,0.45732 -0.0496,0.70017 -0.21712,1.06342 -0.48089,1.04268 -1.72976,1.88308 -3.22735,2.17179 l -0.73919,0.1425 v 1.98508 1.98508 l 0.86783,-0.0585 c 2.40959,-0.16238 5.05336,-1.07879 6.744943,-2.338 1.28451,-0.95619 2.17512,-2.09701 2.57716,-3.3012 0.55349,-1.65778 0.25404,-3.30005 -0.88087,-4.83095 -3.010973,-4.06158 -10.917093,-5.31848 -16.372963,-2.60295 -1.17188,0.58328 -1.97545,1.16228 -2.73856,1.97324 -0.72933,0.77507 -1.1198,1.37624 -1.44431,2.22369 -0.19234,0.50228 -0.2188,0.6978 -0.22041,1.62911 -0.002,0.93272 0.0245,1.13094 0.22011,1.67004 0.46308,1.27625 1.51932,2.5435 2.88203,3.45778 1.83472,1.23096 4.54179,2.08113 6.81399,2.13997 l 0.52329,0.0135 0.006,-1.88384 z m 1.62815,-3.23401 c 1.08123,-0.22916 2.02127,-0.82834 2.36904,-1.51003 0.13407,-0.2628 0.16676,-0.45182 0.13804,-0.7982 -0.15573,-1.87786 -3.53664,-2.86741 -5.87411,-1.71929 -0.64261,0.31564 -1.25647,0.95183 -1.38733,1.43779 -0.4568,1.69644 2.18349,3.13462 4.75436,2.58973 z m -12.0641,-5.61365 c 1.09617,-1.64974 3.11299,-3.12993 5.33235,-3.91355 l 0.77505,-0.27366 0.12837,-0.52048 c 0.30521,-1.23754 0.25628,-2.28243 -0.17109,-3.653148 -0.68332,-2.191616 -2.0382,-3.590114 -3.81722,-3.940116 -0.68006,-0.133793 -2.49348,-0.061 -3.23583,0.129887 -2.21198,0.568791 -4.47451,2.603911 -6.73037,6.053897 -0.38061,0.58208 -0.8576,1.36113 -1.05998,1.73121 l -0.36796,0.67288 0.54432,0.49839 c 1.29705,1.18761 2.81663,2.24766 4.20388,2.93259 1.32154,0.6525 2.26108,0.91505 3.32647,0.92959 l 0.63602,0.009 z m 0.4933,-5.01449 c -0.51939,-0.11133 -0.7975,-0.23657 -1.22953,-0.55371 -1.33611,-0.9808 -1.41176,-2.843759 -0.16136,-3.973426 0.5944,-0.536998 1.00865,-0.678635 1.98355,-0.678198 0.75682,3.38e-4 0.89351,0.02486 1.28804,0.231025 0.96416,0.503832 1.45935,1.20989 1.52874,2.179709 0.0541,0.75548 -0.13163,1.30525 -0.62693,1.85614 -0.67579,0.75165 -1.83307,1.14196 -2.78251,0.93846 z m 1.48409,-1.23091 c 1.03841,-0.5262 1.20259,-1.74601 0.3399,-2.52539 -0.85438,-0.77188 -2.39192,-0.518434 -2.87207,0.47343 -0.41479,0.85683 -0.0533,1.74009 0.87874,2.14727 0.43293,0.18912 1.17674,0.14625 1.65343,-0.0953 z m 22.872093,6.53795 c 1.02923,-0.34695 1.64575,-0.64303 2.71084,-1.30187 1.26037,-0.77963 3.37064,-2.50447 3.37064,-2.75501 0,-0.15941 -0.58433,-1.16064 -1.40391,-2.40557 -2.4016,-3.647968 -4.54186,-5.511302 -6.93906,-6.041223 -0.95527,-0.211172 -2.45843,-0.229206 -3.19504,-0.03833 -1.914033,0.495976 -3.151093,1.985909 -3.788303,4.562703 -0.15653,0.63299 -0.18052,0.91365 -0.14476,1.69333 0.0236,0.51402 0.10424,1.12954 0.17924,1.36782 l 0.13637,0.43324 0.7409,0.2774 c 1.51701,0.568 2.954163,1.40392 3.952023,2.2987 0.55991,0.50209 1.35651,1.47205 1.61487,1.96635 l 0.16934,0.32396 0.84666,-0.0385 c 0.68056,-0.0309 1.02393,-0.0982 1.75019,-0.34303 z m -4.52433,-5.31155 c -0.51339,-0.12894 -0.98659,-0.40721 -1.37894,-0.8109 -0.987863,-1.01644 -0.942343,-2.714164 0.0985,-3.673576 0.5514,-0.508267 0.99816,-0.700384 1.72625,-0.742341 0.51292,-0.02956 0.73135,-2.54e-4 1.13613,0.152458 0.60642,0.228773 1.17082,0.72884 1.47376,1.305788 0.19114,0.36402 0.22412,0.532496 0.22443,1.146401 4.2e-4,0.86138 -0.17709,1.32211 -0.71775,1.86277 -0.64088,0.64087 -1.73875,0.96624 -2.56238,0.7594 z m 1.41596,-1.20612 c 0.51628,-0.29242 0.83022,-0.79851 0.83512,-1.34626 0.009,-0.967203 -0.6774,-1.635696 -1.67827,-1.635324 -1.70805,6.78e-4 -2.24401,2.204644 -0.73058,3.004364 0.43741,0.23113 1.14348,0.22091 1.57373,-0.0228 z m -29.791143,-1.31204 c 0.4935,-0.755191 1.67747,-2.178287 2.4501,-2.944961 1.85583,-1.841518 3.35699,-2.624235 5.60892,-2.924539 2.38396,-0.317911 4.55926,0.519351 5.84451,2.249527 0.32163,0.43297 0.37049,0.471806 0.32241,0.256295 -0.0312,-0.1397 -0.20711,-0.562635 -0.39098,-0.939855 -0.89119,-1.828337 -3.07527,-3.335853 -5.49912,-3.795648 -0.86401,-0.1639 -1.26218,-0.165549 -2.29728,-0.0095 -1.68253,0.253632 -3.66574,1.025707 -5.8349,2.27156 -0.76032,0.436687 -2.794,1.742029 -2.794,1.793361 0,0.0094 0.15162,0.389734 0.33694,0.845187 0.52453,1.289128 1.76508,3.605043 1.92895,3.601053 0.0343,-8.5e-4 0.18035,-0.18195 0.32445,-0.40247 z m 38.785583,-0.33684 c 0.80192,-1.367824 1.79392,-3.557448 1.68877,-3.727589 -0.18087,-0.292643 -2.62088,-1.76513 -4.24503,-2.561768 -2.58786,-1.269337 -4.68912,-1.775382 -6.33111,-1.524718 -1.90227,0.290398 -4.045973,1.455981 -5.106443,2.776497 -0.37732,0.469838 -0.97884,1.617399 -1.07618,2.053073 l -0.0473,0.211667 0.13953,-0.211667 c 0.0767,-0.116416 0.43583,-0.518901 0.79798,-0.894411 0.51766,-0.536749 0.8079,-0.757624 1.35732,-1.032915 1.043523,-0.522868 1.599283,-0.644357 2.942533,-0.643248 2.0941,0.0017 3.60032,0.505337 5.25681,1.757621 0.95851,0.724616 2.32986,2.166192 3.30886,3.478298 0.4345,0.58234 0.81023,1.05907 0.83495,1.05939 0.0247,3.4e-4 0.24042,-0.33278 0.4793,-0.74023 z m 6.11587,-9.832103 c 1.67994,-1.692917 2.9846,-4.185132 3.30869,-6.320403 0.33704,-2.220588 -0.61373,-5.107217 -2.71819,-8.252664 -0.9144,-1.366721 -2.25524,-3.03998 -2.43994,-3.044842 -0.0982,-0.0026 -2.50362,1.206579 -2.62567,1.319877 -0.02,0.01854 0.0405,0.13802 0.13431,0.265506 1.57564,2.140472 2.68596,4.367698 3.26006,6.539458 0.24955,0.944008 0.3104,2.975765 0.11567,3.86229 -0.25346,1.153963 -0.98935,2.9422 -1.62539,3.949746 l -0.2084,0.330126 0.49823,0.606752 c 0.27402,0.333715 0.66209,0.825828 0.86237,1.093586 0.20027,0.267758 0.4191,0.486833 0.48627,0.486833 0.0672,0 0.49556,-0.376319 0.95199,-0.836265 z M 68.511467,90.17752 c 0.38772,-0.493653 0.79636,-1.009055 0.9081,-1.145337 l 0.20315,-0.247786 -0.42733,-0.823162 c -0.54197,-1.043989 -0.9835,-2.232316 -1.16787,-3.143202 -0.20992,-1.037106 -0.13703,-2.799258 0.16313,-3.943786 0.5077,-1.93585 1.5152,-4.013556 2.86861,-5.915726 0.22706,-0.319121 0.4298,-0.624448 0.45054,-0.678506 0.0221,-0.05754 -0.50908,-0.378631 -1.28111,-0.774447 l -1.31884,-0.676161 -0.46905,0.508 c -1.00862,1.092388 -2.38912,3.079836 -3.15544,4.542772 -1.26199,2.409167 -1.77434,4.494661 -1.53281,6.23918 0.20197,1.458797 1.04544,3.4666 2.04769,4.874359 0.57479,0.807338 1.74268,2.082292 1.90689,2.081708 0.0547,-1.69e-4 0.41662,-0.404252 0.80434,-0.897906 z M 115.4803,87.438916 c 0.23792,-0.463187 0.58888,-1.309618 0.7799,-1.88096 0.28544,-0.853733 0.35512,-1.191628 0.3911,-1.896616 0.11354,-2.224569 -0.78366,-4.772284 -2.69602,-7.655707 l -0.84318,-1.271332 -0.56951,0.358006 c -3.14787,1.978821 -5.25326,3.942954 -6.39864,5.969329 l -0.29587,0.523443 1.24217,0.644738 c 1.4079,0.730759 3.25606,1.92969 4.47847,2.905242 0.99558,0.794532 2.76571,2.415189 3.1019,2.83998 0.13321,0.168318 0.27256,0.306033 0.30965,0.306033 0.0371,0 0.2621,-0.37897 0.50003,-0.842156 z M 73.365077,85.241614 c 1.66396,-1.336011 3.38274,-2.425344 5.32134,-3.372571 1.02707,-0.501843 0.99534,-0.431382 0.53772,-1.194047 -1.04807,-1.746717 -3.27827,-3.76335 -6.17316,-5.582019 l -0.56811,-0.356903 -0.75093,1.123804 c -2.16819,3.244768 -3.11116,6.162952 -2.72785,8.441861 0.13319,0.791839 0.58492,2.10464 1.0262,2.982303 l 0.33599,0.668263 0.9914,-0.947466 c 0.54527,-0.521108 1.4486,-1.314559 2.0074,-1.763225 z"
       style="fill:#000000;stroke-width:0.0846667" />
  </g>
</svg>
