<?xml version="1.0" encoding="UTF-8" standalone="no"?>
<!-- Created with Inkscape (http://www.inkscape.org/) -->

<svg
   width="210mm"
   height="297mm"
   viewBox="0 0 210 297"
   version="1.1"
   id="svg848"
   inkscape:version="1.1 (c68e22c387, 2021-05-23)"
   sodipodi:docname="rakdos.svg"
   xmlns:inkscape="http://www.inkscape.org/namespaces/inkscape"
   xmlns:sodipodi="http://sodipodi.sourceforge.net/DTD/sodipodi-0.dtd"
   xmlns="http://www.w3.org/2000/svg"
   xmlns:svg="http://www.w3.org/2000/svg">
  <sodipodi:namedview
     id="namedview850"
     pagecolor="#ffffff"
     bordercolor="#111111"
     borderopacity="1"
     inkscape:pageshadow="0"
     inkscape:pageopacity="0"
     inkscape:pagecheckerboard="1"
     inkscape:document-units="mm"
     showgrid="false"
     inkscape:zoom="2.6832492"
     inkscape:cx="390.7576"
     inkscape:cy="499.20821"
     inkscape:window-width="1920"
     inkscape:window-height="1017"
     inkscape:window-x="1912"
     inkscape:window-y="-8"
     inkscape:window-maximized="1"
     inkscape:current-layer="layer1" />
  <defs
     id="defs845" />
  <g
     inkscape:label="Layer 1"
     inkscape:groupmode="layer"
     id="layer1">
    <path
       id="path1332"
       style="fill:#000000;stroke-width:0.067218"
       d="m 96.188482,154.58717 c 0,-0.0206 0.16883,-0.13268 0.37518,-0.24914 0.72841,-0.41109 1.43997,-1.19694 1.6084,-1.77632 0.0893,-0.30711 0.09,-0.38991 0.006,-0.67008 -0.22451,-0.74601 -1.22124,-2.0399 -1.79812,-2.3342 -0.51671,-0.2636 -0.94729,-0.0943 -1.14405,0.44984 -0.0453,0.12524 -0.10811,0.22772 -0.13959,0.22772 -0.0315,0 -0.15066,-0.19961 -0.26482,-0.44358 -0.27211,-0.58148 -0.32576,-1.21084 -0.15212,-1.78435 l 0.12246,-0.40443 -0.28067,-0.56593 c -0.17108,-0.34495 -0.32127,-0.56592 -0.38466,-0.56592 -0.18483,0 -0.63506,0.26755 -0.90576,0.53825 -0.48333,0.48333 -0.85389,1.21754 -1.14585,2.27038 -0.0791,0.28526 -0.16563,0.54188 -0.19228,0.57027 -0.0586,0.0624 -0.44255,-0.45866 -0.57947,-0.78636 -0.0541,-0.12958 -0.0984,-0.31218 -0.0984,-0.4058 0,-0.12373 -0.0357,-0.1702 -0.13062,-0.1702 -0.30872,0 -0.4533,0.66121 -0.23633,1.0808 0.12713,0.24583 0.0825,0.33078 -0.17391,0.33078 -0.21621,0 -0.34051,-0.15698 -0.72052,-0.90993 -0.6134,-1.21539 -0.62528,-1.55173 -0.31322,-8.87028 0.0967,-2.26766 0.0966,-2.62049 -3.8e-4,-3.99947 -0.28012,-3.97877 -0.28901,-6.48792 -0.0249,-7.03972 0.0885,-0.18493 0.0942,-0.18633 0.82774,-0.2042 0.40624,-0.01 1.21833,0.005 1.80463,0.0337 l 1.06599,0.0517 0.11869,-0.16814 c 0.22596,-0.32014 0.59441,-1.11713 0.74375,-1.60881 0.20629,-0.67914 0.15416,-1.44429 -0.16113,-2.36516 -0.29063,-0.84884 -0.71301,-1.51207 -1.83752,-2.88532 -0.99272,-1.21229 -1.35135,-1.76267 -1.56259,-2.39796 -0.16988,-0.51092 -0.18347,-1.271 -0.0332,-1.85772 0.12864,-0.50232 0.58655,-1.38416 0.99084,-1.90816 0.35887,-0.46511 1.40366,-1.4815 1.9618,-1.90846 0.5404,-0.41338 1.58049,-1.08793 1.61865,-1.04977 0.0168,0.0168 -0.16568,0.43588 -0.40556,0.93124 -0.51659,1.06673 -0.66658,1.58574 -0.66822,2.31222 -0.002,0.97382 0.28927,1.76435 0.96031,2.60448 0.46728,0.58502 0.83626,0.90683 2.29264,1.99953 2.14847,1.61198 2.891438,2.62186 2.889878,3.92806 -5.7e-4,0.47455 -0.356838,2.2985 -0.747068,3.82473 -0.14966,0.5853 -0.25906,1.07723 -0.24312,1.09317 0.0159,0.016 0.41437,0.0762 0.885388,0.13401 l 0.85641,0.10502 0.27414,-0.18993 c 0.98164,-0.68008 2.1013,-2.05916 2.77374,-3.41638 0.58493,-1.1806 0.77603,-1.85812 0.82173,-2.91336 0.0468,-1.08117 -0.0177,-1.35412 -0.6223,-2.63212 -0.27108,-0.57304 -0.54032,-1.20825 -0.59832,-1.41158 -0.12432,-0.43588 -0.30842,-1.61348 -0.30475,-1.94932 l 0.003,-0.23526 0.14057,0.26887 c 0.3747,0.71669 0.83554,1.09061 2.49827,2.0271 1.61135,0.90756 2.25901,1.36301 3.04211,2.13933 1.2252,1.21456 1.93056,2.52127 2.3772,4.40386 0.17837,0.75178 0.17222,0.80882 -0.0536,0.49741 -0.37968,-0.52354 -0.93019,-0.90072 -1.31464,-0.90072 -0.1144,0 -0.20731,-0.0689 -0.30416,-0.22562 -0.35391,-0.57264 -1.1598,-1.1047 -1.05817,-0.69863 0.0208,0.0832 0.0735,0.57472 0.11711,1.0923 0.16907,2.00711 -0.0764,4.90226 -0.51122,6.02895 -0.0342,0.0887 0.0442,0.15828 0.35636,0.31583 0.89697,0.45279 1.85247,1.16502 2.70967,2.01978 0.88117,0.87865 1.3633,1.50886 2.56733,3.3559 1.4855,2.27881 2.60575,3.00961 4.91751,3.20797 l 0.53426,0.0458 -0.19817,0.15999 c -0.36129,0.29168 -1.53308,0.82496 -2.1811,0.99262 -0.94365,0.24414 -1.6081,0.32845 -2.6215,0.33262 -1.30201,0.005 -1.79439,-0.15453 -3.11592,-1.01179 -1.2752,-0.82721 -2.07174,-1.11726 -3.38415,-1.23231 -1.23548,-0.10831 -1.96373,0.0726 -2.75767,0.68514 -0.79701,0.61489 -1.55384,1.98313 -1.93405,3.49647 -0.15982,0.63612 -0.13096,0.60068 -0.3982,0.48902 -0.48726,-0.20359 -1.21274,-0.0808 -1.38108,0.23374 -0.18469,0.3451 0.0607,1.11833 0.80687,2.5429 1.29129,2.46515 3.13638,4.45622 4.88992,5.2768 l 0.44144,0.20658 -0.25651,0.0888 c -0.49987,0.17306 -1.3877,0.23666 -2.23159,0.15987 -0.76786,-0.0699 -2.04078,-0.29244 -2.35426,-0.41162 -0.12605,-0.0479 -0.23622,0.006 -0.64102,0.31115 -0.90261,0.68144 -2.347578,1.29586 -3.626798,1.54218 -0.56226,0.10826 -2.20583,0.22087 -2.20583,0.15112 z m -0.25317,-13.22037 c 0.59337,-0.15176 1.24678,-0.46424 1.64262,-0.78556 0.17367,-0.14097 0.44225,-0.49937 0.70579,-0.94181 0.4338,-0.72829 1.04545,-1.4663 1.35059,-1.6296 0.15034,-0.0805 0.17251,-0.14151 0.19502,-0.53697 0.0202,-0.35519 0.0779,-0.5476 0.282898,-0.94333 l 0.25751,-0.49713 -0.595028,0.0469 c -1.38395,0.10919 -2.7191,0.50537 -4.14576,1.23018 -0.98819,0.50206 -2.26362,1.31938 -2.26362,1.45058 0,0.0489 0.0707,0.29849 0.15714,0.5547 0.14019,0.41561 0.18911,0.48448 0.45372,0.63879 0.24078,0.14041 0.35413,0.27972 0.60243,0.74038 0.23258,0.43147 0.36142,0.59558 0.53775,0.68495 0.28223,0.14303 0.20798,0.14413 0.81894,-0.0121 z" />
    <path
       id="path1051"
       style="fill:#000000;stroke-width:0.067218"
       d="m 80.426921,154.527 c -1.524006,-0.19522 -3.553208,-1.02232 -4.348124,-1.77228 l -0.240256,-0.22666 -0.361439,0.0965 c -1.184351,0.31616 -2.696404,0.47117 -3.598913,0.36893 -0.6021,-0.0682 -1.034503,-0.1782 -1.026798,-0.2612 0.0022,-0.0241 0.243347,-0.15856 0.535794,-0.29877 1.740929,-0.8347 3.575595,-2.89986 4.856642,-5.4668 0.838175,-1.67952 0.91948,-2.20207 0.385582,-2.47816 -0.248358,-0.12843 -0.809352,-0.13083 -1.111101,-0.005 l -0.231606,0.0968 -0.07337,-0.28162 c -0.527376,-2.0242 -1.262891,-3.32779 -2.236627,-3.96411 -0.752601,-0.49181 -1.409913,-0.62342 -2.573034,-0.51518 -0.849751,0.0791 -1.715268,0.29978 -2.265734,0.57776 -0.191966,0.0969 -0.67837,0.38772 -1.080899,0.64617 -1.347765,0.86536 -1.862027,1.02843 -3.200381,1.01484 -1.023917,-0.0104 -1.941243,-0.14215 -2.766418,-0.39732 -0.622051,-0.19236 -1.667144,-0.68743 -1.960574,-0.92874 l -0.189781,-0.15607 0.761133,-0.0773 c 1.553327,-0.15781 2.386755,-0.52736 3.356024,-1.48807 0.533181,-0.52848 0.815446,-0.89733 1.62135,-2.11867 1.137619,-1.72407 1.621649,-2.34161 2.449861,-3.12564 0.697258,-0.66006 1.408562,-1.18257 2.293522,-1.68479 0.429892,-0.24396 0.613265,-0.384 0.58824,-0.44921 -0.510271,-1.32975 -0.722277,-5.07944 -0.39716,-7.02444 0.03782,-0.22628 0.02733,-0.25207 -0.102597,-0.25207 -0.167825,0 -0.648094,0.42185 -0.909167,0.79858 -0.14469,0.20879 -0.232599,0.26712 -0.445621,0.29569 -0.33525,0.045 -0.834007,0.39807 -1.137114,0.80505 -0.128044,0.17192 -0.243359,0.30203 -0.256254,0.28913 -0.0129,-0.0129 0.03958,-0.29127 0.116613,-0.61862 0.473528,-2.01221 1.272731,-3.47505 2.56031,-4.68632 0.636051,-0.59835 1.469856,-1.16537 2.786267,-1.89478 1.63601,-0.9065 2.252278,-1.39971 2.582488,-2.0668 l 0.139732,-0.28229 -1.91e-4,0.30248 c -3.81e-4,0.49708 -0.193725,1.53709 -0.400593,2.15455 -0.10662,0.31824 -0.358501,0.89827 -0.559735,1.28896 -0.491916,0.95504 -0.611045,1.46235 -0.569582,2.42555 0.06464,1.50157 0.66356,3.02535 1.788262,4.54972 0.441056,0.59778 1.326546,1.4974 1.777954,1.80632 l 0.321927,0.22031 0.868395,-0.10587 c 0.477603,-0.0582 0.880702,-0.10588 0.89576,-0.10588 0.01505,0 -0.03028,-0.20417 -0.100759,-0.45372 -0.213512,-0.75601 -0.503386,-2.00723 -0.728024,-3.14244 -0.240817,-1.21696 -0.242467,-1.69243 -0.0082,-2.34999 0.332016,-0.9318 0.962654,-1.60736 2.764479,-2.9614 2.478105,-1.86227 3.200107,-2.89788 3.185853,-4.56965 -0.007,-0.82009 -0.180658,-1.40691 -0.734694,-2.48255 -0.205698,-0.39936 -0.359286,-0.74082 -0.341305,-0.7588 0.01799,-0.018 0.299261,0.14066 0.625067,0.35254 1.916996,1.24667 3.261987,2.67873 3.805527,4.0519 0.16405,0.41445 0.21066,0.64698 0.23435,1.16904 0.0517,1.13936 -0.23686,1.78741 -1.456698,3.27162 -1.753425,2.13343 -2.217704,3.01723 -2.333746,4.44251 -0.06064,0.74486 0.233734,1.70807 0.791777,2.59071 l 0.169993,0.26887 0.8669,-0.0437 c 0.476796,-0.024 1.282114,-0.0467 1.789594,-0.0504 1.09968,-0.008 1.08016,-0.0222 1.19085,0.86537 0.12803,1.02653 0.0808,2.88626 -0.16504,6.49416 -0.0895,1.31429 -0.0899,1.73466 -0.003,3.66338 0.29462,6.51596 0.28923,7.49408 -0.047,8.51824 -0.20499,0.62443 -0.71513,1.45194 -0.91231,1.47988 -0.3044,0.0431 -0.36613,-0.0274 -0.23892,-0.27298 0.23112,-0.44621 0.0831,-1.12711 -0.24507,-1.12711 -0.10077,0 -0.13289,0.0455 -0.13289,0.18846 0,0.21358 -0.254518,0.75466 -0.495576,1.05354 l -0.161408,0.20011 -0.21621,-0.70425 c -0.279062,-0.90896 -0.581618,-1.55737 -0.931992,-1.99734 -0.272816,-0.34258 -0.870724,-0.75515 -1.096232,-0.75643 -0.07414,-3.8e-4 -0.205137,0.19206 -0.388397,0.57067 l -0.276524,0.5713 0.109686,0.3773 c 0.166977,0.57438 0.110722,1.22757 -0.154207,1.79059 -0.117423,0.24954 -0.229807,0.45372 -0.249738,0.45372 -0.01993,0 -0.08035,-0.10558 -0.134269,-0.23462 -0.338467,-0.81007 -1.026597,-0.75401 -1.868254,0.15221 -0.357527,0.38495 -0.855471,1.12727 -1.018934,1.519 -0.171977,0.41213 -0.139718,0.80524 0.103529,1.26162 0.246956,0.46334 0.906842,1.11002 1.439351,1.41055 0.200777,0.11331 0.365048,0.21826 0.365048,0.23321 0,0.0476 -1.158504,0.0125 -1.645798,-0.0499 z m 2.755627,-13.15427 c 0.128202,-0.0782 0.312227,-0.3275 0.502038,-0.68016 0.250574,-0.46555 0.350435,-0.58509 0.609732,-0.72986 0.28571,-0.15952 0.322028,-0.21038 0.46209,-0.64715 0.0836,-0.26071 0.164252,-0.50426 0.179221,-0.54123 0.03048,-0.0753 -0.933691,-0.72982 -1.753817,-1.19058 -1.104109,-0.6203 -2.296075,-1.08204 -3.416258,-1.32336 -0.71636,-0.15433 -1.792991,-0.25471 -1.793433,-0.16722 -1.34e-4,0.0328 0.109192,0.27572 0.243019,0.53978 0.188778,0.37251 0.24332,0.56013 0.24332,0.83703 0,0.35566 0.0017,0.35844 0.479574,0.80674 0.348398,0.3268 0.624642,0.68336 1.009931,1.30355 0.562547,0.90551 0.744588,1.08505 1.477622,1.45731 0.358446,0.18203 1.203401,0.44656 1.453745,0.45512 0.05546,0.002 0.191903,-0.0521 0.303216,-0.11997 z" />
  </g>
</svg>
