<?xml version="1.0" encoding="UTF-8" standalone="no"?>
<svg
   xmlns:dc="http://purl.org/dc/elements/1.1/"
   xmlns:cc="http://creativecommons.org/ns#"
   xmlns:rdf="http://www.w3.org/1999/02/22-rdf-syntax-ns#"
   xmlns:svg="http://www.w3.org/2000/svg"
   xmlns="http://www.w3.org/2000/svg"
   xmlns:sodipodi="http://sodipodi.sourceforge.net/DTD/sodipodi-0.dtd"
   xmlns:inkscape="http://www.inkscape.org/namespaces/inkscape"
   sodipodi:docname="rawr.svg"
   inkscape:version="1.0 (4035a4fb49, 2020-05-01)"
   id="svg8"
   version="1.1"
   viewBox="0 0 210 297"
   height="297mm"
   width="210mm">
  <defs
     id="defs2" />
  <sodipodi:namedview
     inkscape:window-maximized="1"
     inkscape:window-y="-11"
     inkscape:window-x="-11"
     inkscape:window-height="1346"
     inkscape:window-width="2160"
     showgrid="false"
     inkscape:document-rotation="0"
     inkscape:current-layer="layer1"
     inkscape:document-units="mm"
     inkscape:cy="387.01486"
     inkscape:cx="158.59265"
     inkscape:zoom="8.1886093"
     inkscape:pageshadow="2"
     inkscape:pageopacity="0.0"
     borderopacity="1.0"
     bordercolor="#666666"
     pagecolor="#ffffff"
     id="base" />
  <metadata
     id="metadata5">
    <rdf:RDF>
      <cc:Work
         rdf:about="">
        <dc:format>image/svg+xml</dc:format>
        <dc:type
           rdf:resource="http://purl.org/dc/dcmitype/StillImage" />
        <dc:title></dc:title>
      </cc:Work>
    </rdf:RDF>
  </metadata>
  <g
     id="layer1"
     inkscape:groupmode="layer"
     inkscape:label="Layer 1">
    <g
       style="font-style:normal;font-weight:normal;font-size:10.5833px;line-height:1.25;font-family:sans-serif;fill:#000000;fill-opacity:1;stroke:none;stroke-width:0.264583"
       id="text835"
       aria-label="Rawr">
      <path
         id="path837"
         style="font-style:normal;font-variant:normal;font-weight:normal;font-stretch:normal;font-family:'love and heart';-inkscape-font-specification:'love and heart';stroke-width:0.264583"
         d="m 33.508982,95.436058 q 0.275166,-0.582081 0.624415,-1.132413 0.349248,-0.550331 0.77258,-0.941914 0.433916,-0.402165 0.931331,-0.592664 0.507998,-0.1905 1.079496,-0.05292 0.592665,0.137583 0.867831,0.507999 0.285749,0.370415 0.338666,0.857247 0.0635,0.476248 -0.05292,1.005413 -0.105833,0.529165 -0.306916,0.984247 -0.169332,0.380999 -0.412748,0.783164 -0.232833,0.391582 -0.539749,0.761998 -0.296332,0.359832 -0.645581,0.666748 -0.349249,0.306915 -0.730248,0.518581 0.328083,0.349249 0.624415,0.772581 0.306916,0.423332 0.539748,0.867835 0.232833,0.4445 0.359833,0.89958 0.137582,0.45508 0.137582,0.87841 0,0.0847 -0.09525,0.1905 -0.08467,0.10584 -0.201083,0.17992 -0.105833,0.0741 -0.201083,0.0953 -0.08467,0.0318 -0.08467,-0.0529 0,-0.4445 -0.148166,-0.93133 -0.148166,-0.47625 -0.391582,-0.9525 -0.243416,-0.46566 -0.560915,-0.899579 -0.306916,-0.433915 -0.634998,-0.783164 -0.338666,0.08467 -0.677331,0.07408 -0.338666,-0.01058 -0.677331,-0.158749 -0.0635,-0.01058 -0.148167,-0.0635 -0.03175,0.328082 -0.0635,0.783164 -0.02117,0.444498 -0.07408,0.920748 -0.05292,0.48683 -0.137582,0.94191 -0.08467,0.46566 -0.22225,0.80433 -0.126999,0.33867 -0.328082,0.508 -0.201083,0.16933 -0.486832,0.0635 -0.08467,-0.0318 -0.116416,-0.22225 -0.03175,-0.17992 -0.02117,-0.4445 0.01058,-0.254 0.03175,-0.55033 0.03175,-0.29633 0.07408,-0.56092 0.04233,-0.254 0.07408,-0.4445 0.03175,-0.19049 0.04233,-0.24341 0.08467,-0.571495 0.222249,-1.19591 0.137583,-0.634998 0.317499,-1.301746 0.03175,-0.412749 0.05292,-0.825497 0.03175,-0.412749 0.05292,-0.804331 0.03175,-0.529165 0.05292,-0.93133 0.02117,-0.402166 0.04233,-0.709081 0.02117,-0.264583 0,-0.539749 -0.01058,-0.285749 -0.08467,-0.518581 -0.07408,-0.243416 -0.222249,-0.402166 -0.137583,-0.169333 -0.359832,-0.222249 -0.285749,-0.0635 -0.560915,0.03175 -0.275166,0.09525 -0.497415,0.285749 -0.22225,0.190499 -0.380999,0.455082 -0.15875,0.264582 -0.222249,0.550331 -0.148167,0.656165 0.126999,1.291163 0.02117,0.04233 0.05292,0.09525 0.03175,0.05292 0.07408,0.116416 0.04233,0.0635 0.09525,0.137583 0.05292,0.07408 0.105833,0.158749 0.03175,0.04233 -0.01058,0.127 -0.03175,0.08467 -0.116416,0.158749 -0.08467,0.08467 -0.169333,0.105833 -0.07408,0.02117 -0.105833,-0.02117 -0.05292,-0.08467 -0.105833,-0.15875 -0.05292,-0.07408 -0.105833,-0.148166 -0.08467,-0.127 -0.126999,-0.222249 -0.148167,-0.338666 -0.179917,-0.709081 -0.03175,-0.370416 0.04233,-0.730248 0.08467,-0.423332 0.285749,-0.783164 0.211666,-0.359832 0.518581,-0.624415 0.306916,-0.275166 0.698498,-0.444498 0.402166,-0.169333 0.867831,-0.201083 0.306915,-0.02117 0.539748,0.105833 0.232833,0.126999 0.370416,0.391582 0.148166,0.253999 0.211665,0.624415 0.0635,0.370415 0.03175,0.825497 -0.01058,0.201083 -0.02117,0.444499 -0.01058,0.243416 -0.03175,0.550331 z m -0.148166,2.285993 q 0.137583,-0.09525 0.296332,-0.09525 0.264583,0 0.613831,0.201083 0.359833,0.201083 0.730248,0.539748 0.423332,-0.190499 0.814914,-0.518581 0.391582,-0.338666 0.709081,-0.740831 0.328083,-0.402166 0.560915,-0.825498 0.243416,-0.423332 0.370416,-0.804331 0.126999,-0.391582 0.158749,-0.77258 0.03175,-0.380999 -0.0635,-0.698498 -0.08467,-0.317499 -0.317499,-0.539749 -0.232832,-0.232832 -0.634998,-0.328082 -0.391582,-0.08467 -0.740831,0.04233 -0.349248,0.116417 -0.666747,0.380999 -0.306916,0.253999 -0.582082,0.613832 -0.264582,0.359832 -0.486832,0.761997 -0.222249,0.391582 -0.391582,0.783164 -0.169333,0.380999 -0.285749,0.698498 -0.02117,0.317499 -0.04233,0.645581 -0.02117,0.317499 -0.04233,0.656165 z m 0.888997,0.846664 q -0.243416,-0.201083 -0.465665,-0.306916 -0.22225,-0.116416 -0.402166,-0.116416 0.01058,0.116416 0.07408,0.201083 0.07408,0.08467 0.169333,0.148166 0.296333,0.09525 0.624415,0.07408 z" />
      <path
         id="path839"
         style="font-style:normal;font-variant:normal;font-weight:normal;font-stretch:normal;font-family:'love and heart';-inkscape-font-specification:'love and heart';stroke-width:0.264583"
         d="m 40.212179,97.732634 q -0.02117,0.03175 -0.05292,0.0635 -0.02117,0.03175 -0.0635,0.0635 -0.08467,0.0635 -0.15875,0.0635 -0.0635,0 -0.08467,-0.05292 -0.03175,-0.158749 -0.09525,-0.306916 -0.05292,-0.158749 -0.232832,-0.211666 -0.179916,-0.05292 -0.391582,0.07408 -0.211666,0.116416 -0.402166,0.338665 -0.179916,0.222249 -0.306916,0.507998 -0.116416,0.28575 -0.105833,0.560915 -0.02117,0.359833 0.08467,0.613832 0.116416,0.253999 0.296332,0.338665 0.201083,0.08467 0.423332,-0.105833 0.232833,-0.190499 0.433916,-0.486831 0.211666,-0.296333 0.359832,-0.603249 0.158749,-0.306915 0.222249,-0.455081 0.02117,-0.105833 0.03175,-0.201083 0.02117,-0.105833 0.04233,-0.201083 z m 0.687915,2.233076 q 0.116416,-0.07408 0.296332,-0.285749 0.179916,-0.222249 0.359832,-0.476248 0.179916,-0.264583 0.317499,-0.507999 0.148166,-0.253999 0.201083,-0.380998 0.03175,-0.08467 0.105833,-0.15875 0.08467,-0.08467 0.169333,-0.105833 0.08467,-0.03175 0.116416,0.01058 0.04233,0.03175 0.01058,0.116416 -0.08467,0.222249 -0.306915,0.613831 -0.211666,0.380999 -0.497416,0.772581 -0.285749,0.391582 -0.592664,0.698499 -0.306916,0.29634 -0.560915,0.33867 -0.15875,0.0212 -0.285749,-0.0106 -0.116417,-0.0318 -0.169333,-0.11642 -0.07408,-0.10583 -0.105833,-0.27517 -0.02117,-0.17991 -0.02117,-0.370416 0,-0.1905 0.01058,-0.370416 0.02117,-0.190499 0.03175,-0.317499 -0.15875,0.275166 -0.359833,0.539748 -0.190499,0.264583 -0.433915,0.465673 -0.328082,0.30691 -0.613831,0.32808 -0.285749,0.0212 -0.497415,-0.0952 -0.28575,-0.15875 -0.412749,-0.444503 -0.127,-0.296333 -0.137583,-0.634998 -0.02117,-0.338666 0.05292,-0.677332 0.07408,-0.349249 0.1905,-0.613831 0.126999,-0.275166 0.306916,-0.518582 0.190499,-0.243416 0.412748,-0.402165 0.22225,-0.169333 0.476249,-0.243416 0.253999,-0.07408 0.529165,-0.01058 0.264582,0.0635 0.476248,0.253999 0.211666,0.190499 0.285749,0.465665 0.04233,-0.190499 0.05292,-0.275166 0.02117,-0.08467 0.05292,-0.201082 0.04233,-0.148167 0.169333,-0.296333 0.137583,-0.158749 0.296332,-0.232832 0.15875,-0.07408 0.243416,-0.02117 0.09525,0.05292 0.0635,0.201083 -0.08467,0.359832 -0.201083,0.89958 -0.105833,0.539748 -0.169332,1.142997 -0.01058,0.05292 -0.02117,0.264582 0,0.211666 0,0.433915 0.01058,0.22225 0.04233,0.391582 0.04233,0.158757 0.116417,0.105833 z" />
      <path
         id="path841"
         style="font-style:normal;font-variant:normal;font-weight:normal;font-stretch:normal;font-family:'love and heart';-inkscape-font-specification:'love and heart';stroke-width:0.264583"
         d="m 43.051645,99.859877 q 0.05292,-0.179916 0.137583,-0.412748 0.09525,-0.243416 0.179916,-0.497415 0.07408,-0.211666 0.137583,-0.412749 0.0635,-0.201083 0.148166,-0.370416 -0.0635,-0.116416 0.08467,-0.338665 0.105833,-0.169333 0.264582,-0.275166 0.169333,-0.105833 0.285749,-0.09525 0.148166,0.01058 0.222249,0.317499 0.08467,0.306916 0.169333,0.719665 0.08467,0.433915 0.15875,0.825497 0.07408,0.391582 0.158749,0.507999 0.08467,-0.317499 0.179916,-0.613832 0.09525,-0.306916 0.148167,-0.634998 -0.05292,-0.148166 -0.07408,-0.412749 -0.01058,-0.264582 0.01058,-0.539748 0.02117,-0.285749 0.08467,-0.518581 0.07408,-0.232833 0.1905,-0.306916 0.169332,-0.105833 0.253999,-0.03175 0.0635,0.05292 0.08467,0.211666 0.03175,0.148166 0.01058,0.380999 0,0.09525 -0.02117,0.222249 -0.01058,0.127 -0.04233,0.275166 -0.02117,0.137583 -0.04233,0.285749 -0.02117,0.137583 -0.04233,0.253999 0.03175,0.08467 0.08467,0.15875 0.05292,0.0635 0.148166,0.08467 0.137583,0.04233 0.296332,-0.03175 0.07408,-0.04233 0.148166,-0.127 0.08467,-0.09525 0.137583,-0.169332 0.116417,-0.15875 0.264583,-0.137583 0.07408,0.01058 0.07408,0.08467 0,0.0635 -0.0635,0.148166 -0.222249,0.328083 -0.518582,0.518582 -0.285749,0.179916 -0.687914,0.02117 -0.02117,0.105833 -0.08467,0.306915 -0.05292,0.1905 -0.127,0.402166 -0.07408,0.201082 -0.148166,0.391584 -0.07408,0.1905 -0.137583,0.28575 -0.02117,0.0529 -0.0635,0.0847 -0.03175,0.0423 -0.07408,0.0847 -0.116416,0.0953 -0.243416,0.14816 -0.116416,0.0529 -0.201083,0.0529 -0.126999,-0.0106 -0.222249,-0.16933 -0.09525,-0.14817 -0.169333,-0.381 -0.07408,-0.243415 -0.137583,-0.529164 -0.0635,-0.285749 -0.116416,-0.560915 -0.02117,-0.127 -0.04233,-0.243416 -0.01058,-0.127 -0.03175,-0.232833 -0.01058,0.05292 -0.02117,0.105833 0,0.04233 -0.02117,0.09525 -0.0635,0.179916 -0.137583,0.391582 -0.0635,0.211666 -0.148166,0.433916 -0.07408,0.211666 -0.169333,0.423327 -0.08467,0.20109 -0.190499,0.35984 -0.04233,0.0635 -0.116417,0.127 -0.0635,0.0741 -0.148166,0.12699 -0.08467,0.0635 -0.179916,0.0847 -0.08467,0.0317 -0.15875,0.0106 -0.137582,-0.0318 -0.243415,-0.29633 -0.09525,-0.26458 -0.148167,-0.666745 -0.05292,-0.359832 -0.08467,-0.793747 -0.03175,-0.444499 -0.02117,-0.867831 0.01058,-0.306915 0.03175,-0.571498 0.03175,-0.275166 0.08467,-0.486832 0.04233,-0.148166 0.179916,-0.296332 0.137583,-0.15875 0.296332,-0.232833 0.15875,-0.07408 0.243416,-0.01058 0.08467,0.05292 0.04233,0.201083 -0.04233,0.179916 -0.0635,0.412748 -0.02117,0.232833 -0.03175,0.507999 -0.01058,0.402165 0.02117,0.825497 0.03175,0.412749 0.08467,0.761998 0.03175,0.222249 0.05292,0.380999 0.03175,0.148166 0.07408,0.243415 z" />
      <path
         id="path843"
         style="font-style:normal;font-variant:normal;font-weight:normal;font-stretch:normal;font-family:'love and heart';-inkscape-font-specification:'love and heart';stroke-width:0.264583"
         d="m 48.600104,97.161136 q 0.169333,-0.105833 0.338666,-0.03175 0.179916,0.0635 0.190499,0.179916 0.01058,0.148166 -0.09525,0.444499 -0.105833,0.285749 -0.264583,0.645581 -0.148166,0.349249 -0.317499,0.719664 -0.158749,0.370416 -0.275165,0.677332 -0.105833,0.306912 -0.137583,0.508002 -0.02117,0.21166 0.105833,0.22225 0.105833,0.0106 0.285749,-0.13759 0.190499,-0.13758 0.359832,-0.3175 0.328082,-0.370412 0.719664,-0.857244 0.391582,-0.497415 0.740831,-0.984247 0.07408,-0.105833 0.15875,-0.148166 0.08467,-0.04233 0.137583,-0.03175 0.0635,0.01058 0.0635,0.07408 0.01058,0.05292 -0.0635,0.15875 -0.571499,0.772581 -0.984247,1.291162 -0.412749,0.508005 -0.719665,0.814915 -0.0635,0.0635 -0.201082,0.20109 -0.137583,0.14816 -0.306916,0.28574 -0.169333,0.14817 -0.359832,0.24342 -0.179916,0.10583 -0.338666,0.0847 -0.275166,-0.0317 -0.338665,-0.26459 -0.05292,-0.23283 0.01058,-0.57149 0.07408,-0.32809 0.232833,-0.709088 0.158749,-0.391582 0.306915,-0.751415 0.15875,-0.359832 0.275166,-0.634998 0.127,-0.285749 0.116416,-0.391582 -0.116416,0.0635 -0.328082,0.201083 -0.211666,0.127 -0.465665,0.253999 -0.243416,0.116417 -0.497415,0.1905 -0.253999,0.0635 -0.455082,-0.02117 -0.232833,-0.08467 -0.232833,-0.338666 -0.01058,-0.264582 0.137583,-0.550331 0.08467,-0.169333 0.211666,-0.296332 0.116416,-0.137583 0.243416,-0.201083 0.137583,-0.07408 0.264583,-0.08467 0.126999,-0.02117 0.222249,0.02117 0.116416,0.05292 0.148166,0.15875 0.03175,0.09525 0.02117,0.201082 -0.01058,0.105833 -0.05292,0.201083 -0.03175,0.09525 -0.05292,0.158749 0.285749,-0.105833 0.613831,-0.275165 0.328082,-0.179916 0.582081,-0.338666 z m -1.809744,0.582082 q 0,0.03175 0.04233,0.05292 0.04233,0.01058 0.08467,-0.01058 0.08467,-0.05292 0.148166,-0.15875 0.07408,-0.105833 0.04233,-0.137583 -0.08467,-0.0635 -0.201082,0.04233 -0.105833,0.09525 -0.116417,0.211666 z" />
    </g>
  </g>
</svg>
