<?xml version="1.0" encoding="UTF-8" standalone="no"?>
<svg
   xmlns:dc="http://purl.org/dc/elements/1.1/"
   xmlns:cc="http://creativecommons.org/ns#"
   xmlns:rdf="http://www.w3.org/1999/02/22-rdf-syntax-ns#"
   xmlns:svg="http://www.w3.org/2000/svg"
   xmlns="http://www.w3.org/2000/svg"
   xmlns:sodipodi="http://sodipodi.sourceforge.net/DTD/sodipodi-0.dtd"
   xmlns:inkscape="http://www.inkscape.org/namespaces/inkscape"
   sodipodi:docname="rogue squad patch.svg"
   inkscape:version="1.0 (4035a4fb49, 2020-05-01)"
   id="svg8"
   version="1.1"
   viewBox="0 0 210 297"
   height="297mm"
   width="210mm">
  <defs
     id="defs2" />
  <sodipodi:namedview
     inkscape:window-maximized="1"
     inkscape:window-y="-11"
     inkscape:window-x="-11"
     inkscape:window-height="1346"
     inkscape:window-width="2160"
     showgrid="false"
     inkscape:document-rotation="0"
     inkscape:current-layer="layer1"
     inkscape:document-units="mm"
     inkscape:cy="542.38046"
     inkscape:cx="326.06222"
     inkscape:zoom="2.8951106"
     inkscape:pageshadow="2"
     inkscape:pageopacity="0.0"
     borderopacity="1.0"
     bordercolor="#666666"
     pagecolor="#ffffff"
     id="base" />
  <metadata
     id="metadata5">
    <rdf:RDF>
      <cc:Work
         rdf:about="">
        <dc:format>image/svg+xml</dc:format>
        <dc:type
           rdf:resource="http://purl.org/dc/dcmitype/StillImage" />
        <dc:title></dc:title>
      </cc:Work>
    </rdf:RDF>
  </metadata>
  <g
     id="layer1"
     inkscape:groupmode="layer"
     inkscape:label="Layer 1">
    <circle
       r="47.821079"
       cy="143.64391"
       cx="76.929428"
       id="path833"
       style="opacity:0.998;fill:#0000a7;fill-opacity:1;stroke:#000000;stroke-width:0.357845;stroke-linejoin:round;stroke-dashoffset:3.806;stroke-opacity:1" />
    <circle
       r="36"
       cy="144.29681"
       cx="77.490936"
       id="path847"
       style="opacity:0.998;fill:#000000;fill-opacity:1;stroke:none;stroke-width:0.433144;stroke-linejoin:round;stroke-dashoffset:3.806;stroke-opacity:1" />
    <path
       inkscape:transform-center-x="-1.9073486e-06"
       inkscape:transform-center-y="-6.9043709e-06"
       d="m 76.929429,167.64391 -3.105829,-12.40889 -8.894171,9.1935 3.514718,-12.29933 -12.299328,3.51472 9.193499,-8.89418 -12.40889,-3.10582 12.40889,-3.10583 -9.1935,-8.89417 12.299329,3.51471 -3.514719,-12.29932 8.894171,9.1935 3.105828,-12.40889 3.105829,12.40889 8.894172,-9.1935 -3.514719,12.29932 12.299328,-3.51471 -9.193499,8.89417 12.408892,3.10582 -12.408892,3.10583 9.1935,8.89418 -12.299328,-3.51472 3.514719,12.29933 -8.894172,-9.1935 z"
       inkscape:randomized="0"
       inkscape:rounded="0"
       inkscape:flatsided="false"
       sodipodi:arg2="1.8325957"
       sodipodi:arg1="1.5707963"
       sodipodi:r2="12"
       sodipodi:r1="24"
       sodipodi:cy="143.64391"
       sodipodi:cx="76.929428"
       sodipodi:sides="12"
       id="path845"
       style="opacity:0.998;fill:#9b0000;fill-opacity:1;stroke:none;stroke-width:0.20083;stroke-linejoin:round;stroke-dashoffset:3.806;stroke-opacity:1"
       sodipodi:type="star" />
    <g
       style="fill:#0000a7;fill-opacity:1;stroke:none"
       transform="matrix(0.01329427,0,0,0.01329427,72.78608,137.70322)"
       id="g851">
	<path
   style="fill:#0000a7;fill-opacity:1;stroke:none"
   d="m 14.5,-93.11 c -0.8,1.14 -1.51,2.35 -2.41,3.41 -53.6,63.7 -92.91,135.05 -114.69,215.62 -10.96,40.53 -15.2,81.85 -11.2,123.77 5.34,56.06 25.47,106.48 58.7,151.81 20.99,28.62 44.98,53.96 76.5,71.33 22.56,12.44 46.15,21.67 72.14,23.04 35.93,1.9 65.41,-12.26 90.38,-37.28 16.22,-16.24 25.4,-36.54 33.03,-57.57 20.68,-57.07 20.31,-114.85 4.75,-172.96 -8.05,-30.05 -19.61,-58.84 -35.07,-85.73 C 165.42,105.44 133.08,80.47 95.38,61.94 91.95,60.25 88.45,58.69 85,57.05 84.73,56.92 84.54,56.64 84.02,56.17 91.04,48.39 98.04,40.6 105.08,32.84 c 14.44,-15.93 28.98,-31.76 43.25,-47.83 2.65,-2.99 4.59,-3.09 7.95,-1.3 37.96,20.25 68.48,48.75 93.35,83.58 0.95,1.33 1.92,2.65 3.37,3.84 -0.08,-25.99 -5.94,-50.84 -14.69,-75.12 -8.81,-24.42 -21.1,-47.02 -36.28,-68.4 35.12,-39.86 70.11,-79.58 105.36,-119.6 12.54,14.23 24.76,28.09 36.97,41.95 21.37,24.27 42.66,48.59 64.16,72.74 2.61,2.93 2.57,4.77 0.53,8.01 -23.25,36.89 -39.71,76.44 -46.47,119.71 -1.03,6.57 -1.49,13.23 -2.2,19.86 -0.06,0.58 -0.01,1.17 -0.01,3.28 13.93,-20.09 29.29,-37.05 46.56,-52.25 17.28,-15.22 35.82,-28.67 56.43,-39.72 22.19,24.94 44.21,49.68 65.68,73.81 -13.08,7.56 -26.5,14.21 -38.74,22.61 -42.86,29.42 -71.52,69.44 -87.21,118.99 -12.93,40.83 -20.1,82.49 -18.92,125.36 1.17,42.63 9.83,83.42 33.73,119.56 24.53,37.1 59.11,56.4 104.03,54.9 25.73,-0.86 48.83,-10.67 70.89,-23.36 33.4,-19.21 59.01,-46.31 80.3,-77.97 29.83,-44.37 49.38,-92.73 56.58,-145.8 6.43,-47.4 2.15,-94.06 -11.04,-139.95 -14.93,-51.93 -39.38,-99.25 -70.62,-143.05 -14,-19.63 -29.72,-38.03 -44.64,-57 -0.95,-1.21 -1.76,-2.54 -2.63,-3.82 0.31,-0.4 0.61,-0.8 0.92,-1.2 2.8,1.18 5.95,1.88 8.35,3.62 46.39,33.52 91.18,68.89 130.17,111.12 59.07,63.96 98.75,138.38 120.84,222.41 12.54,47.7 19.93,96.23 21.83,145.45 1.21,31.34 -2.33,62.55 -6.6,93.62 -7.44,54.18 -21.02,106.74 -41.83,157.34 -37.66,91.57 -94.3,168.91 -173.26,229.25 -58.73,44.88 -124.32,75.59 -195.93,93.69 -54.61,13.81 -110.11,19.7 -166.34,18.63 -59.02,-1.12 -116.8,-10.52 -172.43,-30.33 -167.91,-59.83 -284.26,-173.72 -351.2,-338.35 -19.54,-48.04 -31.1,-98.29 -36.48,-149.93 -12.07,-115.89 8.88,-225.5 62.88,-328.68 31.52,-60.22 73.05,-112.85 122.86,-158.99 25.96,-24.05 53.75,-45.79 83.26,-65.34 1.74,-1.15 3.83,-1.75 5.76,-2.61 0.31,0.44 0.62,0.88 0.93,1.32 z"
   id="path849" />

</g>
  </g>
</svg>
