<?xml version="1.0" encoding="UTF-8" standalone="no"?>
<svg
   xmlns:dc="http://purl.org/dc/elements/1.1/"
   xmlns:cc="http://creativecommons.org/ns#"
   xmlns:rdf="http://www.w3.org/1999/02/22-rdf-syntax-ns#"
   xmlns:svg="http://www.w3.org/2000/svg"
   xmlns="http://www.w3.org/2000/svg"
   xmlns:sodipodi="http://sodipodi.sourceforge.net/DTD/sodipodi-0.dtd"
   xmlns:inkscape="http://www.inkscape.org/namespaces/inkscape"
   sodipodi:docname="sailor neptune.svg"
   inkscape:version="1.0 (4035a4fb49, 2020-05-01)"
   id="svg8"
   version="1.1"
   viewBox="0 0 210 297"
   height="297mm"
   width="210mm">
  <defs
     id="defs2" />
  <sodipodi:namedview
     inkscape:window-maximized="1"
     inkscape:window-y="-11"
     inkscape:window-x="-11"
     inkscape:window-height="1346"
     inkscape:window-width="2160"
     showgrid="false"
     inkscape:document-rotation="0"
     inkscape:current-layer="layer1"
     inkscape:document-units="mm"
     inkscape:cy="479.40774"
     inkscape:cx="506.36944"
     inkscape:zoom="2.8951106"
     inkscape:pageshadow="2"
     inkscape:pageopacity="0.0"
     borderopacity="1.0"
     bordercolor="#666666"
     pagecolor="#ffffff"
     id="base" />
  <metadata
     id="metadata5">
    <rdf:RDF>
      <cc:Work
         rdf:about="">
        <dc:format>image/svg+xml</dc:format>
        <dc:type
           rdf:resource="http://purl.org/dc/dcmitype/StillImage" />
        <dc:title></dc:title>
      </cc:Work>
    </rdf:RDF>
  </metadata>
  <g
     id="layer1"
     inkscape:groupmode="layer"
     inkscape:label="Layer 1">
    <path
       id="path847"
       d="m 144.12765,199.7589 c -0.19834,-0.19832 -0.26995,-0.52652 -0.26463,-1.21275 0.002,-0.32597 0.0334,-0.80222 0.0687,-1.05834 0.0352,-0.25611 0.10744,-0.80199 0.16042,-1.21306 l 0.0963,-0.7474 -0.13756,-2.02544 c -0.0757,-1.11399 -0.15919,-2.37786 -0.18563,-2.8086 -0.0639,-1.0417 -0.0643,-4.54138 -5.5e-4,-5.37633 0.14295,-1.87237 0.19295,-2.3395 0.30812,-2.87867 0.63011,-2.94979 0.87523,-5.5213 0.83126,-8.72066 -0.0406,-2.95021 -0.31962,-5.29832 -0.92716,-7.801 l -0.17239,-0.71017 -0.83239,-1.23717 c -1.04153,-1.54801 -1.72931,-2.51943 -3.46851,-4.899 -0.75729,-1.0361 -1.671,-2.2934 -2.03046,-2.794 -0.69185,-0.96346 -2.12363,-3.09498 -2.12363,-3.16148 0,-0.0217 -0.0491,-0.10502 -0.10909,-0.18521 l -0.10908,-0.14581 0.0264,-1.05833 c 0.0603,-2.41875 0.19261,-3.81726 0.55362,-5.85007 0.34469,-1.94091 0.93584,-4.27024 1.72115,-6.78195 0.19438,-0.62167 0.21167,-0.70772 0.16596,-0.8255 -1.19192,-3.07101 -1.87004,-6.15679 -2.07557,-9.44481 -0.0233,-0.37254 -0.0547,-1.03032 -0.0697,-1.46173 l -0.0274,-0.7844 -0.19686,-0.0786 c -0.10828,-0.0432 -0.52156,-0.2347 -0.9184,-0.42551 -0.75427,-0.36267 -0.9083,-0.48158 -0.9083,-0.70118 0,-0.10397 -0.0478,-0.14387 -0.43392,-0.3625 -1.05465,-0.59709 -2.02588,-1.32944 -3.13206,-2.36169 -0.66542,-0.62095 -0.87902,-0.86681 -0.87902,-1.01183 0,-0.1566 0.13523,-0.32798 0.50912,-0.64519 l 0.38354,-0.3254 -0.13941,-0.16177 c -0.0767,-0.089 -0.32866,-0.3775 -0.55996,-0.64116 -0.44183,-0.50366 -0.99695,-1.22592 -1.10949,-1.44355 -0.0792,-0.15326 -0.0533,-0.38356 0.0571,-0.507 0.0417,-0.0466 0.30449,-0.26051 0.58389,-0.47523 2.31586,-1.77977 4.87234,-3.31045 7.14629,-4.27882 0.51561,-0.21957 0.5819,-0.25912 0.56159,-0.33504 -0.0796,-0.29741 -0.11201,-0.79564 -0.071,-1.09073 0.15211,-1.09363 0.94921,-2.06452 1.69497,-2.06452 0.11785,0 0.21429,-0.005 0.21429,-0.0109 0,-0.0999 0.29119,-0.81476 0.39498,-0.96962 l 0.1399,-0.20872 -0.12914,-0.62944 c -0.071,-0.34619 -0.14274,-0.62103 -0.15937,-0.61076 -0.0166,0.0103 -0.28501,0.29917 -0.5964,0.64199 -0.93942,1.03421 -1.33835,1.38291 -1.91481,1.6737 -0.75187,0.37926 -1.47544,0.49835 -1.94973,0.3209 -0.36245,-0.13561 -0.56684,-0.3617 -0.75339,-0.83336 -0.53213,-1.34542 -0.62624,-2.7673 -0.3165,-4.78208 0.0904,-0.58786 0.0908,-0.60965 0.0175,-0.84214 -0.18887,-0.59916 -0.16538,-0.8716 0.10416,-1.20833 0.12495,-0.15609 0.12509,-0.1569 0.12509,-0.7397 v -0.58344 l 0.25246,-0.24023 0.25246,-0.24023 0.0523,-0.666689 c 0.0426,-0.54338 0.0683,-0.69098 0.13912,-0.79806 0.093,-0.14067 0.36912,-0.29441 0.94711,-0.52733 0.19373,-0.0781 0.36323,-0.17332 0.37665,-0.21166 0.0134,-0.0384 0.22919,-0.51739 0.47948,-1.06455 0.51707,-1.13037 0.71465,-1.63871 0.84808,-2.18205 0.11046,-0.44981 0.32293,-0.93529 0.46577,-1.06429 0.0563,-0.0509 0.2072,-0.17576 0.33526,-0.27751 l 0.23283,-0.18501 0.0264,-0.44216 c 0.0457,-0.76491 0.20652,-1.15944 0.56552,-1.38757 0.2142,-0.13611 0.27588,-0.21003 0.27588,-0.33059 0,-0.0526 0.0216,-0.19628 0.048,-0.31926 0.0527,-0.2459 0.2602,-0.500229 0.40804,-0.500229 0.0743,0 0.0856,-0.0363 0.10263,-0.331102 0.0132,-0.22812 0.0495,-0.39379 0.11674,-0.532658 0.19767,-0.408344 0.74375,-0.884554 1.19789,-1.044627 0.0873,-0.03078 0.15814,-0.06642 0.15741,-0.0792 -7.2e-4,-0.01279 -0.12573,-0.107103 -0.27777,-0.209595 -0.36607,-0.246783 -0.86839,-0.719918 -1.12697,-1.0615 -0.25586,-0.337981 -0.51659,-0.86079 -0.61275,-1.228651 -0.0788,-0.301255 -0.10365,-1.070682 -0.0354,-1.092998 0.0227,-0.0074 0.0814,0.116401 0.13041,0.275167 0.34607,1.121144 0.98823,1.361837 1.66743,0.624989 0.15948,-0.173008 0.42558,-0.649124 0.42567,-0.7616 1e-5,-0.02435 -0.21428,-0.18511 -0.47622,-0.35724 -1.22033,-0.801931 -1.64498,-1.644217 -1.30873,-2.595796 0.0477,-0.135105 0.19444,-0.407405 0.32599,-0.605111 0.41478,-0.623378 0.41203,-0.774732 -0.0262,-1.443682 -0.16474,-0.251475 -0.40065,-0.666779 -0.52426,-0.922895 -0.38964,-0.807323 -0.52911,-1.354123 -0.52911,-2.074334 0,-0.807398 0.19122,-1.41632 0.67461,-2.148237 0.41394,-0.626755 0.83524,-1.055453 1.53342,-1.560349 0.92681,-0.670228 1.57177,-1.379041 1.76788,-1.942913 0.34523,-0.992599 1.37873,-2.363223 2.20329,-2.921961 0.52119,-0.353173 1.2521,-0.527562 2.18016,-0.520166 0.60455,0.0048 0.80575,0.03315 1.48235,0.20873 0.0536,0.01391 0.19438,-0.04157 0.37846,-0.149132 0.68292,-0.399083 1.46029,-0.567732 2.21055,-0.479582 0.69784,0.08199 2.07555,0.48339 2.49031,0.725554 0.48135,0.281051 1.06424,0.886819 1.77567,1.84539 0.47169,0.635538 0.7253,1.044598 1.05174,1.6964 0.20761,0.414535 0.37531,0.674794 0.66831,1.037167 0.75614,0.935191 1.08958,1.251986 1.46678,1.393579 0.12164,0.04566 0.50814,0.131589 0.8589,0.190951 1.17843,0.199436 2.02727,0.648154 2.92043,1.543822 0.68006,0.681971 0.91575,1.164972 0.96706,1.981815 l 0.0278,0.4421 0.25689,0.09288 c 0.36154,0.130724 0.80551,0.38194 1.06409,0.602107 0.49418,0.420756 1.02954,1.314381 1.2644,2.11051 0.14852,0.503486 0.18826,1.332082 0.0853,1.778 -0.0996,0.431075 -0.48425,1.181899 -0.76094,1.485173 -0.1257,0.137771 -0.2415,0.237963 -0.25736,0.222647 -0.0159,-0.01532 0.0107,-0.210245 0.059,-0.433178 0.15539,-0.717212 0.0927,-1.151727 -0.21254,-1.47387 -0.1381,-0.145723 -0.17255,-0.160605 -0.37183,-0.160605 -0.45342,0 -0.80851,0.281396 -1.64316,1.30213 -0.9545,1.167297 -1.08449,1.276889 -1.62811,1.372646 -0.13615,0.02398 -0.24756,0.06538 -0.24757,0.092 0,0.09625 -0.26227,0.601546 -0.37321,0.719217 -0.10215,0.108347 -0.76976,0.482112 -0.76976,0.430951 0,-0.01155 0.0583,-0.115811 0.12963,-0.231687 0.28874,-0.469249 0.40657,-1.075342 0.2757,-1.418032 -0.0838,-0.219484 -0.4089,-0.536716 -0.72561,-0.708087 -0.26504,-0.143418 -0.83244,-0.354427 -0.71689,-0.266602 0.62763,0.477011 0.8862,0.78738 1.03925,1.247467 0.17364,0.522004 0.0513,1.081439 -0.36241,1.657306 l -0.14657,0.204023 0.11587,0.02617 c 2.32648,0.525522 3.9268,1.884161 6.08717,5.167908 0.52539,0.7986 0.76131,1.21147 0.86459,1.51314 0.18794,0.54897 0.11878,0.59651 -0.53784,0.36973 -1.5327,-0.52936 -3.25766,-0.93626 -5.85295,-1.38064 -0.47461,-0.0813 -0.86947,-0.14122 -0.87745,-0.13324 -0.008,0.008 0.005,0.066 0.029,0.12898 0.0787,0.20709 0.052,0.32376 -0.1088,0.47545 l -0.15233,0.14366 0.0499,0.28467 c 0.0707,0.40282 0.0603,1.12194 -0.0205,1.42621 -0.13502,0.50821 -0.30255,0.77117 -0.82468,1.29438 -0.53547,0.53658 -0.86663,0.7716 -1.42834,1.01366 -0.36948,0.15922 -0.37101,0.16052 -0.43123,0.36594 -0.3478,1.18643 -0.96824,2.860209 -1.49853,4.042619 -0.29351,0.65445 -1.12125,2.31743 -1.44601,2.90511 -0.11431,0.20686 -0.17121,0.34913 -0.13956,0.34896 0.0294,0 0.21536,-0.0392 0.41327,-0.0868 1.16229,-0.27942 2.19104,-0.4509 2.94414,-0.49077 0.88408,-0.0468 0.89067,-0.0211 0.298,1.16325 -0.53273,1.06454 -0.75716,1.55749 -1.08264,2.37795 -0.31639,0.79756 -0.44202,1.18524 -0.39679,1.22451 0.02,0.0174 0.25553,0.0635 0.52329,0.10249 0.96848,0.14094 2.02889,0.42258 2.921,0.77581 0.26775,0.10603 0.52017,0.22214 0.56091,0.25804 0.12927,0.11389 0.0923,0.31438 -0.10825,0.58724 -1.07891,1.46788 -1.69451,2.85092 -1.79898,4.04168 l -0.033,0.3763 0.14991,0.14197 c 0.0824,0.0781 0.67379,0.58063 1.31408,1.11677 1.52341,1.27562 2.19412,1.88857 2.27296,2.07726 0.0888,0.21255 0.0459,0.363 -0.22661,0.79455 -1.07614,1.70423 -2.43137,3.22084 -4.01485,4.49294 -0.57262,0.46002 -1.69687,1.23555 -2.19075,1.51122 -0.15716,0.0877 -0.28575,0.17564 -0.28575,0.19538 0,0.0197 -0.047,0.29039 -0.10446,0.60147 -0.66362,3.59312 -2.68491,8.33182 -7.05598,16.54207 -0.0932,0.17514 -0.10067,0.69228 -0.036,2.51106 0.11706,3.29468 0.57189,5.34565 1.77618,8.0094 0.4261,0.94249 0.783,2.08054 1.28777,4.10634 0.82211,3.2993 1.15155,5.31007 1.04037,6.35 l -0.0453,0.42333 0.21286,0.85859 c 0.51866,2.09206 0.94147,4.51739 1.2304,7.05774 0.10504,0.92361 0.13893,1.1075 0.30428,1.651 0.21158,0.69543 0.1446,0.64134 0.82722,0.66801 0.3211,0.0125 0.65976,0.0482 0.75256,0.0791 0.24459,0.0817 0.71039,0.53745 0.86454,0.84592 0.1355,0.27116 0.20952,0.58323 0.31998,1.34909 0.14345,0.9946 0.44742,2.02074 0.89654,3.02654 0.25488,0.57079 0.2718,0.7021 0.13693,1.06258 -0.11877,0.31744 -0.33249,0.54865 -0.59249,0.64099 -0.1137,0.0404 -0.20673,0.0938 -0.20673,0.11863 0,0.0249 0.0673,0.3194 0.14962,0.65453 0.19699,0.80228 0.54942,1.86649 0.92351,2.78868 l 0.3027,0.74622 -8.9e-4,1.03716 c -9.3e-4,1.06874 -0.0256,1.34435 -0.21433,2.39184 -0.29232,1.62256 -0.62258,2.56971 -1.04881,3.0079 -0.2521,0.25918 -0.43449,0.31678 -0.74515,0.23533 -0.57512,-0.15078 -1.47437,-1.15489 -2.09485,-2.33915 l -0.16704,-0.3188 -0.30962,0.0199 c -0.36788,0.0236 -0.63236,-0.059 -0.79043,-0.24685 -0.0567,-0.0674 -0.17419,-0.33744 -0.26115,-0.60021 -0.26979,-0.81518 -0.47514,-1.13078 -0.83278,-1.27995 -0.27847,-0.11615 -0.30718,-0.0992 -0.40799,0.24127 -0.30739,1.03808 -0.52061,2.42516 -0.764,4.97029 -0.0669,0.6995 -0.074,0.93995 -0.0391,1.3335 0.0613,0.6929 0.0323,0.91501 -0.17372,1.33074 -0.21875,0.44146 -0.31613,0.56263 -1.32366,1.64706 -0.97127,1.04538 -1.93371,1.99203 -2.31992,2.28185 -0.59517,0.44664 -1.03737,0.56079 -1.27025,0.3279 z m 6.35025,-17.38556 c 0,-0.0125 -0.0968,-0.36965 -0.21511,-0.79375 -0.37135,-1.33116 -0.82678,-3.19001 -1.01853,-4.15714 l -0.18453,-0.93069 -0.0705,1.00422 c -0.11969,1.70536 -0.31256,3.11668 -0.46009,3.36672 l -0.0918,0.15553 0.0989,0.0645 c 0.22939,0.14956 0.33733,0.283 0.38719,0.47865 l 0.0516,0.20253 0.40217,0.13833 c 0.22119,0.0761 0.54504,0.21592 0.71967,0.31076 0.32469,0.17634 0.381,0.20005 0.381,0.16038 z m 7.76378,-95.640108 c -0.0498,-0.213622 -0.20571,-0.449838 -0.35373,-0.536074 -0.32796,-0.191073 -0.91725,-0.02956 -1.29089,0.353795 l -0.16735,0.171695 0.29435,0.004 c 0.16188,0.0022 0.50389,0.02794 0.76,0.05722 0.25612,0.02929 0.53747,0.05607 0.62523,0.05952 0.1534,0.006 0.15851,0.0018 0.13239,-0.11014 z m -4.63228,-0.124358 c -0.0576,-0.03929 -0.20515,-0.156303 -0.32795,-0.260024 -0.12281,-0.10372 -0.23104,-0.180823 -0.24053,-0.171339 -0.009,0.0095 0.0132,0.126494 0.0503,0.260023 l 0.0676,0.242781 h 0.27762 c 0.27361,0 0.27611,-10e-4 0.17295,-0.07144 z"
       style="fill:#000000;stroke-width:0.0423333" />
  </g>
</svg>
