<?xml version="1.0" encoding="UTF-8" standalone="no"?>
<svg
   xmlns:dc="http://purl.org/dc/elements/1.1/"
   xmlns:cc="http://creativecommons.org/ns#"
   xmlns:rdf="http://www.w3.org/1999/02/22-rdf-syntax-ns#"
   xmlns:svg="http://www.w3.org/2000/svg"
   xmlns="http://www.w3.org/2000/svg"
   xmlns:sodipodi="http://sodipodi.sourceforge.net/DTD/sodipodi-0.dtd"
   xmlns:inkscape="http://www.inkscape.org/namespaces/inkscape"
   sodipodi:docname="sheep.svg"
   inkscape:version="1.0 (4035a4fb49, 2020-05-01)"
   id="svg907"
   version="1.1"
   viewBox="0 0 210 297"
   height="297mm"
   width="210mm">
  <defs
     id="defs901">
    <pattern
       id="EMFhbasepattern"
       patternUnits="userSpaceOnUse"
       width="6"
       height="6"
       x="0"
       y="0" />
  </defs>
  <sodipodi:namedview
     inkscape:snap-global="false"
     inkscape:window-maximized="1"
     inkscape:window-y="-11"
     inkscape:window-x="-11"
     inkscape:window-height="1346"
     inkscape:window-width="2160"
     showgrid="false"
     inkscape:document-rotation="0"
     inkscape:current-layer="layer1"
     inkscape:document-units="mm"
     inkscape:cy="542.53005"
     inkscape:cx="442.37742"
     inkscape:zoom="2.8951105"
     inkscape:pageshadow="2"
     inkscape:pageopacity="0.0"
     borderopacity="1.0"
     bordercolor="#666666"
     pagecolor="#ffffff"
     id="base" />
  <metadata
     id="metadata904">
    <rdf:RDF>
      <cc:Work
         rdf:about="">
        <dc:format>image/svg+xml</dc:format>
        <dc:type
           rdf:resource="http://purl.org/dc/dcmitype/StillImage" />
        <dc:title />
      </cc:Work>
    </rdf:RDF>
  </metadata>
  <g
     id="layer1"
     inkscape:groupmode="layer"
     inkscape:label="Layer 1">
    <path
       id="path922"
       style="fill:#000000;stroke:#000000;stroke-width:0.999999px;stroke-linecap:butt;stroke-linejoin:miter;stroke-opacity:1;fill-opacity:1"
       d="M 533.21484 373.21484 C 533.21484 373.21484 385.71457 373.21513 357.85742 393.57227 C 357.85742 393.57227 278.57199 367.49971 253.21484 444.64258 C 252.14342 449.99972 201.78627 619.99944 300.71484 564.28516 C 300.71484 564.28516 330.00084 555.35632 316.07227 646.42773 C 316.07227 646.42773 323.92774 694.99942 358.92773 659.28516 L 405 584.28516 C 405 584.28516 448.21457 548.21457 482.85742 585.35742 L 505 646.42773 C 505 646.42773 525.35742 685.3563 557.85742 648.92773 L 565.71484 572.85742 C 565.71484 572.85742 623.57146 565.3571 590 485 C 590 485 623.21484 423.92911 533.21484 373.21484 z M 525.71289 382.21875 C 529.55779 382.21446 531.71484 382.23828 531.71484 382.23828 C 607.91825 443.2987 582.27148 484.08789 582.27148 484.08789 C 583.15663 487.14165 583.92168 490.08198 584.58203 492.91797 C 578.21491 499.43644 569.84009 504.31055 560.5957 506.74805 C 535.84578 513.27389 508.23828 500.83676 501.08008 478.15039 C 494.79708 458.23799 507.16615 436.06388 529.63477 430.48633 C 549.02934 425.67185 570.58348 435.54892 575.78906 453.40039 C 580.18624 468.47975 570.66172 485.20301 553.55664 489.01562 C 539.52272 492.1437 523.99363 484.83085 520.75 471.82422 C 518.19673 461.58583 524.88136 450.27121 536.60352 448.23633 C 545.26042 446.73355 554.84668 451.49007 556.10547 459.61719 C 556.52074 462.29828 555.73667 465.24239 554.0625 467.45508 C 552.38829 469.66773 549.956 471.13394 546.83203 471.24609 C 545.26553 471.30232 543.25378 470.70809 541.94727 469.73438 C 540.64075 468.76065 540.01491 467.68302 540.38477 466.18359 C 540.37201 466.23546 541.07125 465.29212 541.57422 464.99023 A 1.9896351 1.7949087 0 0 0 544.03125 465.87305 A 1.9896351 1.7949087 0 0 0 545.2207 463.57422 C 544.80049 462.52906 543.81423 461.58561 542.63672 461.33789 C 541.45921 461.09018 540.45648 461.4171 539.66602 461.82031 C 538.08502 462.62667 536.91051 463.72928 536.49805 465.40234 C 535.78623 468.28784 537.2739 470.91034 539.41211 472.50391 C 541.55036 474.0975 544.31235 474.93004 546.98828 474.83398 C 551.45307 474.67368 555.09389 472.46179 557.34961 469.48047 C 559.60536 466.49918 560.60783 462.73692 560.04688 459.11523 C 558.4404 448.7432 546.57275 442.8495 535.84961 444.71094 C 521.74122 447.16006 513.84583 460.51167 516.86328 472.61133 C 520.62985 487.71491 538.41597 496.08419 554.51367 492.49609 C 573.90204 488.17454 584.57911 469.42673 579.63867 452.48438 C 575.28976 437.57069 560.81795 427.71354 544.79883 425.96289 C 539.45912 425.37934 533.94342 425.69157 528.57812 427.02344 C 521.81929 428.70125 515.90647 431.73946 511.01367 435.70312 C 514.5397 424.53627 513.04154 412.08845 505.19336 402.0625 C 493.75461 387.4496 471.04002 382.88691 455.36523 394.42188 C 442.82371 403.65106 438.98842 421.66888 449.54492 433.78125 C 457.5525 442.96905 472.87337 445.70554 482.69922 437.15625 C 486.1176 434.18195 488.26618 429.98853 488.68164 425.66211 C 489.09707 421.33565 487.68706 416.79236 483.88867 413.57031 C 481.63435 411.65802 478.52348 410.51944 475.38477 410.52148 C 472.24601 410.52353 468.90719 411.89118 467.23828 415.00195 C 466.31704 416.71918 466.4424 418.56486 467.16016 420.33984 C 467.51905 421.22735 468.11216 422.16335 469.25391 422.70117 C 470.39561 423.23904 471.89211 423.06709 473.05859 422.41406 A 1.940149 1.8406885 0 0 0 473.74219 419.89648 A 1.940149 1.8406885 0 0 0 471.08984 419.24023 C 470.97532 419.30434 470.98742 419.301 470.95117 419.32227 C 471.01107 419.4012 471.04248 419.43155 470.98047 419.40234 C 470.90014 419.3645 470.85583 419.3782 470.95117 419.32227 C 470.90401 419.26012 470.8424 419.17367 470.7793 419.01758 C 470.49275 418.30899 470.64763 416.76966 470.70117 416.66992 C 471.67384 414.85688 473.29804 414.20644 475.38477 414.20508 C 477.47149 414.20372 479.85161 415.08097 481.29883 416.30859 C 484.12171 418.70315 485.14642 421.94624 484.82227 425.32227 C 484.49807 428.69833 482.738 432.12343 480.07617 434.43945 C 472.05608 441.41759 459.23332 439.12123 452.5332 431.43359 C 443.4867 421.0538 446.83408 405.36018 457.74609 397.33008 C 471.58517 387.14603 491.86944 391.22772 502.07227 404.26172 C 514.494 420.13037 509.24109 442.95126 492.66602 454.26758 C 473.05934 467.65368 445.23005 461.74933 431.58594 443.32617 C 418.67943 425.89898 420.94868 402.06515 435.125 386.13086 C 472.62045 382.64448 511.19823 382.23496 525.71289 382.21875 z M 429.74609 386.65039 C 416.64727 403.71357 415.19852 427.59562 428.41211 445.4375 C 443.25784 465.48317 473.47826 471.89364 494.92969 457.24805 C 495.788 456.66205 496.60965 456.04008 497.41211 455.40039 C 494.96447 462.97607 494.75859 471.21409 497.25781 479.13477 C 505.04662 503.81966 534.89573 517.26868 561.71484 510.19727 C 570.74582 507.81604 578.96089 503.29845 585.52344 497.26562 C 596.82691 553.2782 564.44336 564.93164 564.44336 564.93164 C 534.20695 551.94418 497.65252 563.37842 486.12109 567.62695 C 478.97747 565.58905 473.40846 559.40293 469.53906 553.20703 C 465.20946 546.27424 463.11719 539.63086 463.11719 539.63086 A 1.8897638 1.8897638 0 0 0 463.08789 539.54297 A 1.8897638 1.8897638 0 0 0 463.03711 539.41602 A 1.8897638 1.8897638 0 0 0 463 539.33594 A 1.8897638 1.8897638 0 0 0 462.97656 539.29102 C 456.22788 526.8312 458.58421 510.39987 469.06836 501.09766 C 479.92165 491.46806 496.8594 492.2145 506.13867 503.76953 C 514.26881 513.89371 513.55141 529.8232 503.66602 538.31641 C 495.15391 545.62972 482.01028 544.96364 474.98047 535.84375 C 469.06037 528.16367 469.70386 516.19081 477.24609 510.05078 C 483.4051 505.03682 492.76959 505.61381 497.54688 512.28906 C 501.28274 517.50919 500.72274 525.54812 495.54688 529.32617 C 491.77275 532.08099 486.15538 531.62005 483.63867 527.42188 C 482.8283 526.07005 482.49598 524.25871 482.76758 522.68945 C 483.03921 521.12019 483.80829 519.86695 485.16016 519.16797 C 485.76012 518.85775 486.77986 518.74913 487.49219 518.95508 C 488.15209 519.14587 488.44554 519.44632 488.60742 520.06836 A 1.8897638 1.8897638 0 0 0 487.13086 520.55664 A 1.8897638 1.8897638 0 0 0 487.02734 523.22852 C 487.625 523.87417 488.70889 524.36968 489.67773 524.17383 C 490.64658 523.97797 491.19914 523.38914 491.56836 522.86719 C 492.30673 521.82324 492.67844 520.84619 492.40234 519.43359 C 491.98183 517.2824 490.27419 515.82336 488.54102 515.32227 C 486.8078 514.82118 484.98654 515.0094 483.42578 515.81641 C 480.9127 517.11581 479.47898 519.54234 479.04688 522.03906 C 478.61472 524.53578 479.08384 527.17622 480.39844 529.36914 C 484.11863 535.5749 492.36458 536.32446 497.77539 532.375 C 504.84152 527.21719 505.50699 516.92041 500.61719 510.08789 C 494.53986 501.59612 482.6012 500.82017 474.86133 507.12109 C 465.57012 514.68495 464.84424 528.88387 471.99023 538.1543 C 480.35811 549.01004 496.06521 549.83725 506.13281 541.1875 C 517.69843 531.25074 518.48223 513.11147 509.08398 501.4082 C 503.76517 494.78488 496.23582 491.25065 488.48242 490.74805 C 480.72902 490.24545 472.75367 492.77119 466.55664 498.26953 C 462.80975 501.59401 460.00289 505.67883 458.14258 510.14844 C 454.42371 478.59145 432.80821 450.10132 400.48242 441.21484 C 395.68072 439.89484 390.82011 439.08411 385.96875 438.75 C 369.42556 437.61063 353.0074 442.04277 339.44922 450.83594 C 348.15539 431.95658 336.51701 410.37969 315.20898 402.78711 C 311.65304 401.52 307.92027 400.66526 304.125 400.2168 C 330.15346 393.17883 357.08203 403.48828 357.08203 403.48828 C 371.02276 394.84504 399.64066 389.70483 429.74609 386.65039 z M 296.71484 403.39258 C 302.50245 403.24423 308.32176 404.14102 313.67578 406.04883 C 333.12704 412.97982 343.71431 432.83827 335.50391 449.94336 C 328.30226 464.94685 307.95367 473.10254 290.52344 466.60938 C 275.49095 461.00944 267.32909 445.44868 274.04102 432.21875 C 279.7041 421.05619 295.12715 415.01134 308.09961 420.19922 C 318.72556 424.44876 324.46717 435.72623 319.25781 445.07031 C 315.16728 452.40893 304.65069 456.36196 296.15625 452.48633 C 289.90985 449.63637 286.54236 442.61133 290.23047 437.18555 C 291.43606 435.41192 293.54863 433.97764 295.78906 433.37695 C 298.0295 432.77626 300.28441 432.94305 302.25391 434.20117 C 303.20716 434.81016 304.12702 436.02246 304.39258 437.12109 C 304.65814 438.21972 304.48342 439.01119 303.51172 439.69336 C 303.63363 439.60778 303.12148 439.71303 302.73633 439.78516 A 2.0257706 1.7628887 0 0 0 301.35547 438.20117 A 2.0257706 1.7628887 0 0 0 298.79297 439.30859 C 298.4411 440.21718 298.53822 441.38904 299.24219 442.16406 C 299.94616 442.93909 300.87622 443.20562 301.67383 443.31641 C 303.26904 443.53806 304.69254 443.39454 306.05859 442.43555 C 308.27765 440.87768 308.84323 438.43054 308.35156 436.39648 C 307.85989 434.36243 306.51886 432.55049 304.6543 431.35938 C 301.58339 429.39766 297.84184 429.13995 294.59766 430.00977 C 291.35347 430.87958 288.49544 432.81024 286.74414 435.38672 C 281.75354 442.72864 286.13555 451.89765 294.2793 455.61328 C 304.96467 460.48857 317.87012 455.63595 322.90039 446.61133 C 329.16862 435.36799 322.38169 422.03211 309.78906 416.99609 C 294.64071 410.93808 276.87712 417.89764 270.33594 430.79102 C 262.66556 445.91013 271.89291 463.50229 288.93164 469.84961 C 299.43096 473.76084 310.80835 472.96313 320.34961 468.80664 C 315.43321 475.53827 311.65238 483.24123 309.375 491.75977 C 307.29819 499.52808 306.70509 507.46437 307.41602 515.20703 C 291.70538 480.31815 261.33789 446.23047 261.33789 446.23047 C 268.12946 422.54083 280.91749 409.85647 294.98633 403.48047 C 295.56227 403.44485 296.13779 403.40737 296.71484 403.39258 z M 382.25781 442.37109 C 388.00158 442.48514 393.78489 443.29613 399.47852 444.86133 C 440.41484 456.11487 463.38195 500.57166 452.04492 540.90039 C 450.14199 547.66958 447.34415 554.18256 443.77344 560.24219 C 417.9355 562.06522 397.86914 576.89844 397.86914 576.89844 C 349.99775 587.1566 316.29297 555.89453 316.29297 555.89453 C 316.79979 551.7193 316.6614 547.29593 316.01562 542.71875 C 324.27126 557.31987 337.88587 568.78752 355.26172 573.26953 C 385.89047 581.17007 419.44069 563.45429 427.16797 532.03516 C 433.74295 505.30139 418.13082 476.07224 390.57617 469.73242 C 367.74002 464.47827 342.81721 477.99764 337.88477 501.69531 C 333.94371 520.62995 345.38698 541.27933 365.24023 544.76953 C 380.26704 547.41119 396.69615 538.01077 398.67383 521.98047 C 399.35906 516.42615 397.86802 510.65211 394.67969 506.13867 C 391.49135 501.6252 386.48175 498.36388 380.35938 498.21875 C 376.76568 498.13364 372.97973 499.46618 370.13477 501.89453 C 367.2898 504.32288 365.41774 508.12996 366.42969 512.35547 C 366.95584 514.55258 368.57128 516.2742 370.60742 517.38281 C 371.62549 517.93716 372.85262 518.3318 374.20312 517.99414 C 375.55364 517.65652 376.67748 516.46463 377.18555 514.99023 A 1.8897638 1.8897638 0 0 0 376.01953 512.58398 A 1.8897638 1.8897638 0 0 0 373.61133 513.75781 C 373.3799 514.4294 373.31615 514.31892 373.28711 514.32617 C 373.25807 514.33343 372.91915 514.33449 372.41602 514.06055 C 371.40976 513.51267 370.19767 511.86162 370.10547 511.47656 C 369.44171 508.705 370.52035 506.52874 372.58594 504.76562 C 374.65152 503.00256 377.73211 501.93791 380.27148 501.99805 C 385.11971 502.11298 388.97068 504.61102 391.59375 508.32422 C 394.21678 512.03742 395.48664 516.95367 394.92383 521.51562 C 393.23839 535.17733 378.94914 543.34451 365.89062 541.04883 C 348.31061 537.95827 338.05029 519.43885 341.58203 502.4707 C 346.05335 480.98847 368.85811 468.61458 389.72656 473.41602 C 415.1042 479.25493 429.58864 506.36269 423.49805 531.12695 C 416.29945 560.39645 384.86254 577.00144 356.20508 569.60938 C 323.04562 561.05608 304.31973 525.28915 313.02148 492.74023 C 321.37852 461.48077 351.24146 441.75522 382.25781 442.37109 z M 256.45312 464.79102 C 256.45312 464.79102 306.52351 511.93008 301.63867 553.45117 C 301.63867 553.45117 221.52658 602.54333 256.45312 464.79102 z M 457.25195 535.25391 C 457.84101 537.04542 458.57134 538.79946 459.44922 540.49414 C 459.45504 540.50537 459.45121 540.52006 459.45703 540.53125 A 1.8897638 1.8897638 0 0 0 459.50781 540.75977 C 459.50781 540.75977 459.60261 540.96396 459.60352 540.9668 C 459.62483 541.00652 459.62697 541.05215 459.64844 541.0918 A 1.8897638 1.8897638 0 0 0 459.72266 541.21094 C 459.85634 541.63141 461.86472 548.05536 466.33594 555.21484 C 468.45859 558.61374 471.12205 562.13242 474.35938 565.08008 C 465.45488 561.35682 456.59763 559.97358 448.23438 560.05273 C 451.39703 554.3199 453.91044 548.23333 455.68359 541.92578 C 456.30601 539.71169 456.82405 537.48581 457.25195 535.25391 z M 514.80469 574.16992 C 517.85827 574.11253 520.9599 574.86818 523.89844 576.89844 L 529.51562 653.3457 L 514.12891 646.75195 L 493.61328 584.95898 C 493.61328 584.95898 503.89903 574.3749 514.80469 574.16992 z M 545.65039 574.73047 C 548.81026 574.68467 552.47485 575.06693 556.62695 576.16602 L 551.49805 645.04297 L 539.04102 653.3457 L 531.22656 578.85352 C 531.22656 578.85352 536.17077 574.86786 545.65039 574.73047 z M 324.35352 577.14258 C 324.35352 577.14258 336.56431 588.13313 346.33398 587.40039 L 329.48242 657.00977 L 321.66602 649.92773 C 318.73512 641.62351 332.90198 584.95834 324.35352 577.14258 z M 351.46289 588.86719 C 360.98832 596.43872 393.22852 591.79688 393.22852 591.79688 L 347.80078 663.60547 L 333.87891 662.62695 L 351.46289 588.86719 z "
       transform="scale(0.26458333)" />
    <path
       sodipodi:nodetypes="ccc"
       id="path887"
       d="m 56.844404,151.43276 c 0,0 -12.652489,43.28259 12.728511,27.71871 0,0 4.818314,-7.97853 -12.728511,-27.71871 z"
       style="fill:none;stroke:#ff0000;stroke-width:0.264583px;stroke-linecap:butt;stroke-linejoin:miter;stroke-opacity:1" />
    <path
       id="path889"
       d="m 66.166153,112.8663 c 0,0 18.55212,21.93353 13.43429,27.5083 0,0 13.43429,12.06344 24.218267,6.94562 10.78399,-5.11782 8.22507,-7.58534 22.75604,-1.7364 0,0 8.77341,-5.02644 20.28852,-1.55363 0,0 13.06873,-1.91918 6.30589,-22.75604 0,0 8.04229,-12.15483 -14.43958,-28.330813 0,0 -36.00754,0.54834 -45.969017,5.39199 0,0 -23.1216,-7.21978 -26.59441,14.530973 z"
       style="fill:none;stroke:#ff0000;stroke-width:0.264583px;stroke-linecap:butt;stroke-linejoin:miter;stroke-opacity:1" />
    <path
       id="path891"
       d="m 83.80437,149.33079 c 0,0 2.376133,4.75227 0.731118,22.39049 0,0 1.188066,8.40785 7.493955,4.3867 l 14.165407,-21.38519 c 0,0 -13.708458,3.01586 -22.39048,-5.392 z"
       style="fill:none;stroke:#ff0000;stroke-width:0.264583px;stroke-linecap:butt;stroke-linejoin:miter;stroke-opacity:1" />
    <path
       id="path893"
       d="m 128.58533,152.62082 6.85423,19.74018 c 0,0 5.84894,5.75756 11.24093,-1.27945 l 1.8278,-20.4713 c 0,0 -11.33233,-2.92447 -19.92296,2.01057 z"
       style="fill:none;stroke:#ff0000;stroke-width:0.264583px;stroke-linecap:butt;stroke-linejoin:miter;stroke-opacity:1" />
  </g>
</svg>
