<?xml version="1.0" encoding="UTF-8" standalone="no"?>
<svg
   xmlns:dc="http://purl.org/dc/elements/1.1/"
   xmlns:cc="http://creativecommons.org/ns#"
   xmlns:rdf="http://www.w3.org/1999/02/22-rdf-syntax-ns#"
   xmlns:svg="http://www.w3.org/2000/svg"
   xmlns="http://www.w3.org/2000/svg"
   xmlns:sodipodi="http://sodipodi.sourceforge.net/DTD/sodipodi-0.dtd"
   xmlns:inkscape="http://www.inkscape.org/namespaces/inkscape"
   width="210mm"
   height="297mm"
   viewBox="0 0 210 297"
   version="1.1"
   id="svg939"
   inkscape:version="1.0 (4035a4fb49, 2020-05-01)"
   sodipodi:docname="sheep 2 FINAL.svg">
  <defs
     id="defs933">
    <pattern
       y="0"
       x="0"
       height="6"
       width="6"
       patternUnits="userSpaceOnUse"
       id="EMFhbasepattern" />
  </defs>
  <sodipodi:namedview
     inkscape:snap-global="false"
     id="base"
     pagecolor="#ffffff"
     bordercolor="#666666"
     borderopacity="1.0"
     inkscape:pageopacity="0.0"
     inkscape:pageshadow="2"
     inkscape:zoom="2.1166901"
     inkscape:cx="465.07056"
     inkscape:cy="507.14745"
     inkscape:document-units="mm"
     inkscape:current-layer="layer1"
     inkscape:document-rotation="0"
     showgrid="false"
     inkscape:window-width="2160"
     inkscape:window-height="1346"
     inkscape:window-x="-11"
     inkscape:window-y="-11"
     inkscape:window-maximized="1" />
  <metadata
     id="metadata936">
    <rdf:RDF>
      <cc:Work
         rdf:about="">
        <dc:format>image/svg+xml</dc:format>
        <dc:type
           rdf:resource="http://purl.org/dc/dcmitype/StillImage" />
        <dc:title />
      </cc:Work>
    </rdf:RDF>
  </metadata>
  <g
     inkscape:label="Layer 1"
     inkscape:groupmode="layer"
     id="layer1">
    <path
       transform="scale(0.26458333)"
       d="M 534.5293 347.79102 C 533.90035 347.78672 533.20009 347.84325 532.35938 348.18164 C 531.76 348.42288 531.08192 348.88864 530.54688 349.51562 C 530.25275 349.63991 529.64179 349.84682 528.78711 350.04883 C 526.97384 350.47739 524.17986 350.89812 520.74805 351.25977 C 513.88442 351.98306 504.40953 352.48863 493.85547 352.80273 C 472.74726 353.43096 447.26728 353.30567 428.91016 352.80273 C 391.90314 351.78885 359.61131 368.35297 357.65234 369.36719 C 309.53226 359.82952 282.63916 373.90998 268.67773 390.99609 C 255.1158 407.59332 253.59297 425.76847 253.48633 427.15234 C 240.76472 466.97099 237.51336 493.82705 240.16211 512.19336 C 242.81086 530.55967 252.02532 540.56731 262.88477 544.43555 C 273.7442 548.30378 285.64466 546.56686 294.85547 544.10352 C 302.52311 542.05286 306.35428 540.07718 308.13477 539.23242 C 308.98949 540.19537 310.18573 541.48644 313.01367 544.11914 L 312.83789 544.21484 C 312.83789 544.21484 316.18386 550.46176 318.25586 563.32031 C 320.32786 576.17891 320.97538 595.34411 315.0293 620.36719 L 314.95508 621.74023 C 314.95508 621.74023 316.14849 631.98394 322.05664 640.3418 C 325.01071 644.52071 329.38488 648.37585 335.38867 649.6582 C 341.39247 650.94056 348.60057 649.57068 356.9668 644.71289 L 358.30859 643.38281 L 411.97656 553.61133 C 432.4785 543.45785 449.31649 542.31402 461.24219 544.40625 C 473.77147 546.60435 480.20115 551.2543 481.22461 552.01758 L 506.04297 625.48242 L 506.61914 626.56836 C 506.61914 626.56836 512.67857 634.71893 522.43164 638.80664 C 527.30818 640.85046 533.29931 641.86194 539.63867 640.05469 C 545.978 638.24739 552.43844 633.71383 558.60156 625.54102 L 559.32617 623.80664 L 570.58984 545.92773 C 583.36484 543.13621 592.12939 535.67339 597.02539 526.02539 C 602.29674 515.63777 603.69201 503.14329 603.43164 491.10156 C 602.92057 467.46398 595.95224 445.66558 595.68945 444.84766 C 598.678 412.96802 584.31211 387.56724 568.82617 370.98438 C 560.9959 362.59944 552.90785 356.40182 546.44531 352.5293 C 543.21404 350.59303 540.42275 349.23801 538.04297 348.46289 C 536.8531 348.07533 535.7872 347.79961 534.5293 347.79102 z M 530.7168 349.41211 C 530.72026 349.42592 530.69175 349.45828 530.625 349.48828 C 530.61084 349.49464 530.5691 349.50673 530.55273 349.51367 C 530.64525 349.43322 530.71248 349.39487 530.7168 349.41211 z M 530.44922 349.62305 C 530.27187 349.84513 530.11206 350.08449 529.98242 350.34375 C 530.17324 349.96212 530.3239 349.76269 530.44922 349.62305 z M 536.74414 353.72461 C 536.64904 353.91483 536.53053 354.09076 536.39844 354.25195 C 536.51789 354.10618 536.63467 353.94355 536.74414 353.72461 z M 536.1875 354.4707 C 535.84412 354.81961 535.46087 355.08214 535.17969 355.19531 C 535.08868 355.23194 535.11106 355.2026 535.03906 355.22461 C 535.42483 354.96855 535.81991 354.81162 536.1875 354.4707 z M 534.81055 355.42969 C 534.97938 355.45765 535.15524 355.47389 535.70312 355.65234 C 537.20613 356.14189 539.66777 357.27829 542.56055 359.01172 C 548.34613 362.47858 555.98268 368.30389 563.30469 376.14453 C 577.94866 391.82581 591.33232 415.34753 588.18945 445.08398 L 588.35156 446.63477 C 588.35156 446.63477 588.55606 447.30698 588.83984 448.27148 C 588.33582 450.28777 587.71828 452.27743 586.96484 454.2207 C 577.72696 478.0472 550.57885 491.35316 526.90039 481.63281 C 506.21231 473.14002 494.68056 448.55833 503.35742 427.24609 C 510.80336 408.95735 531.95643 398.77998 550.1543 406.72266 C 565.4073 413.38002 573.87638 431.87011 566.94531 447.59766 C 561.31965 460.3631 546.13801 467.4321 533.4375 461.26562 C 523.59866 456.48854 518.15801 444.06089 523.34375 433.94727 C 527.07376 426.67265 536.34623 422.62863 543.49414 427.01367 C 545.73012 428.38537 547.55896 430.80789 548.31445 433.35547 C 549.06994 435.90301 548.83673 438.45409 547.13477 440.64062 C 546.43386 441.54105 544.85913 442.51863 543.51562 442.75391 C 542.17208 442.98919 541.36672 442.81957 540.71094 441.64648 A 1.9209102 -1.9551111 0 0 0 538.08984 440.92188 A 1.9209102 -1.9551111 0 0 0 537.36914 443.58008 C 538.84214 446.21504 541.77275 447.02686 544.16797 446.60742 C 546.56319 446.18794 548.73035 444.8857 550.14648 443.06641 C 552.68085 439.81055 553.03817 435.74977 551.99219 432.22266 C 550.9462 428.69558 548.58162 425.57445 545.4707 423.66602 C 536.2132 417.98676 524.60255 423.03091 519.93359 432.13672 C 513.65336 444.38496 520.10462 459.12066 531.7832 464.79102 C 546.57051 471.97074 563.98292 463.86576 570.44727 449.19727 C 578.31084 431.35368 568.81716 410.61806 551.67188 403.13477 C 534.96132 395.84126 516.16238 402.19851 505.45703 415.98828 C 512.04739 399.35709 504.774 379.31103 487.41992 372.10938 C 472.30099 365.83528 453.55305 372.0466 447.18164 387.35156 C 441.93871 399.94573 447.48321 415.50822 461.01367 420.50977 C 471.7153 424.4656 484.9088 419.8452 488.76367 408.73633 C 491.63635 400.4578 487.68694 390.23039 478.40234 387.77344 C 475.26754 386.94388 471.84361 387.30017 468.95898 388.73047 C 466.07436 390.16081 463.70295 392.81072 463.20117 396.35156 C 462.91645 398.36084 463.42272 400.49301 464.6543 402.27539 C 465.88588 404.05777 468.30557 405.48032 470.95117 404.83203 A 1.9783168 1.929655 0 0 0 472.38867 402.48633 A 1.9783168 1.929655 0 0 0 469.99414 401.08398 C 468.99913 401.32782 468.55485 401.01261 467.9375 400.11914 C 467.32015 399.22571 466.9968 397.74208 467.11914 396.87891 C 467.43191 394.67188 468.79025 393.14063 470.75195 392.16797 C 472.71361 391.19527 475.24586 390.93526 477.36523 391.49609 C 484.20155 393.30518 487.21824 401.15252 485.01562 407.5 C 481.94187 416.35789 471.15073 420.12864 462.41211 416.89844 C 451.10832 412.72 446.40264 399.48564 450.85156 388.79883 C 456.34009 375.61466 472.69947 370.19578 485.86719 375.66016 C 501.59172 382.18558 507.98806 400.88354 501.22266 415.88086 C 493.33337 433.36944 471.35454 440.43152 453.77344 432.69141 C 433.6405 423.82781 425.56009 399.64024 434.66992 380.3418 C 438.60904 371.99704 445.40887 365.09271 453.69727 360.75977 C 467.06805 360.84382 481.32124 360.741 494.07812 360.36133 C 504.73722 360.04409 514.32176 359.54162 521.53711 358.78125 C 525.14482 358.40107 528.1442 357.9642 530.52148 357.40234 C 531.71011 357.12141 532.74174 356.82461 533.72461 356.38281 C 534.07743 356.22423 534.43456 355.6501 534.81055 355.42969 z M 425.37305 360.32227 C 426.48003 360.3183 427.59061 360.33085 428.70312 360.36133 C 434.07819 360.50859 440.08255 360.6195 446.36719 360.69336 C 439.82164 365.30964 434.48455 371.50814 431.07617 378.72852 C 421.07056 399.92466 429.9192 426.42701 452.14258 436.21094 C 468.80631 443.5472 488.97889 438.92217 500.01953 425.26367 C 499.95088 425.42625 499.87527 425.58428 499.80859 425.74805 C 490.27449 449.16593 502.84751 475.96957 525.45898 485.25195 C 531.89492 487.89399 538.55381 488.97876 545.08008 488.71484 C 564.659 487.92298 583.03416 475.00289 590.53516 455.65625 C 590.59331 455.50627 590.64245 455.35356 590.69922 455.20312 C 592.79297 463.66954 595.57165 477.32557 595.87305 491.26562 C 596.11777 502.58365 594.67338 513.95998 590.28516 522.60742 C 585.96051 531.12946 579.09983 537.13839 567.11328 539.0918 C 565.72699 538.7671 552.11892 535.61919 534.88477 534.69922 C 519.70276 533.88879 502.32621 534.90295 489.21289 542.07422 L 472.23438 532.38867 A 1.8897638 1.8897638 0 0 0 472.19727 532.36719 C 472.19273 532.36424 472.18614 532.36232 472.18164 532.35938 C 458.86637 523.65811 452.95375 506.19749 459.16797 491.43359 C 465.53133 476.31545 483.42762 468.19624 498.69922 474.75977 C 512.0233 480.48628 519.16443 496.35898 513.22656 509.82227 C 508.14038 521.3544 494.28221 527.52032 482.62891 522.20898 C 472.88585 517.7683 467.69194 505.92639 472.375 496.08594 C 476.16231 488.12784 485.99455 483.89159 494.01758 487.94336 C 500.1976 491.06442 503.47873 498.90018 500.06445 505.09766 C 497.63391 509.50965 491.78893 511.86052 487.43359 509.09961 C 486.10501 508.25742 485.00582 506.76682 484.58398 505.24609 C 484.16215 503.72536 484.33225 502.29076 485.35938 501.05273 A 1.8897638 1.8897638 0 0 0 485.10742 498.39648 A 1.8897638 1.8897638 0 0 0 482.45117 498.64648 C 480.58201 500.89939 480.25129 503.77626 480.9375 506.25 C 481.62367 508.72378 483.23277 510.90878 485.41016 512.28906 C 491.81218 516.34741 499.98497 513.08254 503.37891 506.92188 C 507.91615 498.68587 503.69258 488.59536 495.72266 484.57031 C 485.66919 479.49316 473.61069 484.68247 468.95703 494.46094 C 463.31068 506.32552 469.47632 520.36967 481.0625 525.65039 C 494.73517 531.88215 510.7807 524.73654 516.6875 511.34375 C 523.51442 495.86469 515.38807 477.82122 500.18945 471.28906 C 495.86832 469.43192 491.37638 468.60114 486.95312 468.67578 C 473.68339 468.89964 461.0592 477.21189 455.69141 489.96484 C 455.67478 490.00436 455.66101 490.04444 455.64453 490.08398 C 454.87204 464.22962 442.13062 439.12737 418.96094 425.19336 C 393.79105 410.05643 361.8483 412.45529 339.55664 429.82031 C 347.1623 411.77775 340.59416 389.94159 324.09375 378.61719 C 321.62295 376.92147 318.98047 375.49453 316.22656 374.33398 C 327.41098 373.01378 340.92858 373.588 357.3418 376.95703 L 359.85156 376.60156 C 359.85156 376.60156 391.05655 360.4453 425.37305 360.32227 z M 308.18359 375.67773 C 313.09907 376.82726 317.80222 378.87829 321.96094 381.73242 C 339.0599 393.46763 344.45413 417.66994 332.46484 434.91211 C 321.84764 450.18106 300.09523 454.97338 284.69727 444.09375 C 271.25624 434.59686 267.06668 415.29669 276.83594 401.74414 C 285.20929 390.12807 302.06226 386.5472 313.76758 395.20508 C 323.56279 402.45013 326.55257 416.85555 319.00781 426.71094 C 312.89832 434.69149 300.92085 437.0886 292.91992 430.66016 C 286.74443 425.69839 284.93473 416.15031 290.24023 410.01172 C 294.03124 405.62546 301.18074 404.37691 305.44141 408.54297 C 306.75314 409.82559 307.6391 411.7794 307.75195 413.61523 C 307.86481 415.45106 307.3102 417.06717 305.82422 418.24219 C 305.26755 418.68235 304.03809 419.09593 303.14453 419.04102 C 302.25098 418.98614 301.91635 418.85408 301.69141 418.08789 A 1.8897638 -1.8897638 0 0 0 299.34375 416.81055 A 1.8897638 -1.8897638 0 0 0 298.05859 419.1582 C 298.74149 421.48428 300.96679 422.69326 302.9082 422.8125 C 304.84962 422.93174 306.7264 422.35394 308.17188 421.21094 C 310.69225 419.21807 311.69698 416.20187 311.52344 413.37891 C 311.34989 410.55594 310.11428 407.82699 308.08398 405.8418 C 302.09069 399.98156 292.48128 401.64232 287.38477 407.53906 C 280.55741 415.4385 282.81988 427.38769 290.55859 433.60547 C 300.33269 441.45857 314.67088 438.58719 322.00586 429.00586 C 330.91325 417.37055 327.44324 400.61166 316.01953 392.16211 C 302.53 382.1845 283.334 386.27135 273.77148 399.53711 C 262.71396 414.87678 267.41214 436.50539 282.51953 447.17969 C 286.81635 450.21563 291.53997 452.16182 296.39844 453.10742 C 305.49293 454.87745 315.0438 453.14486 323.08984 448.50391 C 322.84512 448.91493 322.58695 449.31221 322.34961 449.73047 C 305.07336 480.17514 314.07554 521.21772 344.53516 538.96875 C 354.56193 544.81205 365.88404 547.28611 376.92383 546.61914 C 395.32344 545.50752 412.94963 535.66821 422.51367 518.13477 C 435.72494 493.91515 428.36536 461.48082 403.93359 447.95312 C 383.28932 436.52252 355.75432 443.20718 344.60156 465.11328 C 335.44564 483.09724 341.16893 506.9733 359.60938 516.22852 C 374.14423 523.52355 393.36663 518.4975 400.28711 502.67773 C 405.41541 490.95487 401.28864 475.45653 388.73242 470.63867 C 384.54043 469.03022 379.73599 469.09125 375.58398 470.76758 C 371.43199 472.44394 367.88787 475.88075 366.74023 480.85742 C 366.11292 483.57774 366.52787 486.72789 367.93359 489.36523 C 369.33932 492.00258 372.17595 494.15859 375.68359 493.60938 A -1.8690765 -1.9106706 0 0 0 377.25 491.42969 A -1.8690765 -1.9106706 0 0 0 375.11719 489.83008 C 373.19892 490.13043 372.12181 489.23848 371.21289 487.5332 C 370.30397 485.82796 370.00873 483.34161 370.37891 481.73633 C 371.22729 478.05737 373.71483 475.63326 376.95703 474.32422 C 380.19924 473.01521 384.15069 472.96346 387.41211 474.21484 C 397.72442 478.17173 401.1972 491.23703 396.875 501.11719 C 390.89423 514.7889 374.01037 519.20226 361.25586 512.80078 C 344.83485 504.55911 339.68453 483.05476 347.91992 466.87891 C 358.04912 446.98325 383.2716 440.85532 402.1543 451.31055 C 424.65603 463.76963 431.47974 493.84375 419.24805 516.26758 C 405.00675 542.3757 371.37359 550.21092 346.38867 535.65039 C 317.81154 518.99648 309.32119 480.30764 325.58203 451.65234 C 343.92116 419.33462 385.98629 409.80128 417.0625 428.49023 C 451.71356 449.32904 461.87851 496.65051 441.57227 531.5293 C 440.52246 533.33251 439.39346 535.08553 438.20508 536.79688 C 426.85617 538.48855 413.85927 542.77036 399.58984 551.33203 C 375.518 565.77512 354.17171 561.06241 338.11914 552.73438 C 323.05247 544.91782 314.01323 534.63601 312.86719 533.3125 C 316.54726 509.70251 303.55956 483.56568 289.64258 462.81445 C 276.30364 442.92518 263.12043 429.20148 261.14258 427.16016 C 261.33514 425.08656 262.91621 409.99625 274.5332 395.7793 C 281.5331 387.21276 291.98739 379.2651 308.18359 375.67773 z M 258.86133 435.90039 C 263.65807 441.0715 272.80759 451.28125 283.36914 467.0293 C 296.87821 487.17225 308.52951 512.23593 305.43359 532.21875 C 304.06265 532.87514 300.18387 534.85427 292.89844 536.80273 C 284.46315 539.05866 273.88356 540.32596 265.42383 537.3125 C 256.9641 534.29908 250.01889 527.54402 247.64844 511.10742 C 245.41943 495.65161 248.14567 471.31294 258.86133 435.90039 z M 453.63867 510.90234 C 455.55099 520.53005 461.23678 529.38272 469.67188 535.09766 A 1.8897638 1.8897638 0 0 0 470.11523 535.51172 C 470.12117 535.51561 470.12493 535.52345 470.13086 535.52734 A 1.8897638 1.8897638 0 0 0 470.16797 535.54883 A 1.8897638 1.8897638 0 0 0 470.22656 535.58594 L 470.33008 535.64453 L 485.54102 544.32227 C 485.14339 544.59539 484.75035 544.87297 484.36328 545.16016 C 481.76361 543.39784 474.97003 539.13951 462.54102 536.95898 C 456.92506 535.97373 450.40889 535.55947 443.12305 536.20312 C 443.69281 535.3065 444.25032 534.40304 444.78516 533.48438 C 448.93834 526.3507 451.86368 518.72101 453.63867 510.90234 z M 534.48633 542.25195 C 548.72177 543.01186 558.98223 545.1121 562.94336 545.97266 L 552.00977 621.5625 C 546.77357 628.2735 541.86385 631.5575 537.56445 632.7832 C 537.4228 632.82357 537.29903 632.7838 537.1582 632.82031 C 538.53376 601.85907 538.2439 572.67227 529.65039 542.49414 C 531.27083 542.5268 532.8993 542.16725 534.48633 542.25195 z M 521.98047 542.87109 C 530.76477 572.61197 531.01678 601.47959 529.60547 632.96094 C 528.15787 632.68159 526.70772 632.40546 525.35352 631.83789 C 518.2737 628.87062 513.41026 622.89871 512.95312 622.33008 L 488.91016 551.1543 C 496.97862 545.28053 509.30941 543.35816 521.98047 542.87109 z M 323.32617 552.46875 C 326.69952 554.86096 330.45314 557.2699 334.64258 559.44336 C 338.09134 561.23259 342.02381 562.66838 345.99609 564.02148 L 329.38086 637.19727 C 329.01762 636.76031 328.56541 636.45511 328.22852 635.97852 C 323.9729 629.95837 322.66312 621.91354 322.55078 621.20117 C 328.48375 595.67625 327.91229 575.72807 325.71875 562.11523 C 325.04421 557.92918 324.1638 555.48009 323.32617 552.46875 z M 399.70703 559.40625 L 352.43359 638.48828 C 345.58716 642.28965 340.57231 643.03142 336.96875 642.26172 C 336.63037 642.18945 336.3988 641.95222 336.07617 641.85547 L 353.30469 565.95508 C 367.06407 569.10562 382.94698 568.25208 399.70703 559.40625 z "
       style="color:#000000;font-style:normal;font-variant:normal;font-weight:normal;font-stretch:normal;font-size:medium;line-height:normal;font-family:sans-serif;font-variant-ligatures:normal;font-variant-position:normal;font-variant-caps:normal;font-variant-numeric:normal;font-variant-alternates:normal;font-variant-east-asian:normal;font-feature-settings:normal;font-variation-settings:normal;text-indent:0;text-align:start;text-decoration:none;text-decoration-line:none;text-decoration-style:solid;text-decoration-color:#000000;letter-spacing:normal;word-spacing:normal;text-transform:none;writing-mode:lr-tb;direction:ltr;text-orientation:mixed;dominant-baseline:auto;baseline-shift:baseline;text-anchor:start;white-space:normal;shape-padding:0;shape-margin:0;inline-size:0;clip-rule:nonzero;display:inline;overflow:visible;visibility:visible;opacity:1;isolation:auto;mix-blend-mode:normal;color-interpolation:sRGB;color-interpolation-filters:linearRGB;solid-color:#000000;solid-opacity:1;vector-effect:none;fill:none;fill-opacity:1;fill-rule:nonzero;stroke:#000000;stroke-width:1;stroke-linecap:butt;stroke-linejoin:bevel;stroke-miterlimit:4;stroke-dasharray:none;stroke-dashoffset:0;stroke-opacity:1;color-rendering:auto;image-rendering:auto;shape-rendering:auto;text-rendering:auto;enable-background:accumulate;stop-color:#000000;stop-opacity:1"
       id="path976" />
    <path
       id="path968"
       style="fill:none;stroke:#000000;stroke-width:0.264583px;stroke-linecap:butt;stroke-linejoin:miter;stroke-opacity:1"
       d="m 68.237147,113.58358 c -13.36348,41.82768 13.764535,28.19673 13.764535,28.19673 2.405419,-11.75987 -13.764535,-28.19673 -13.764535,-28.19673 z" />
    <path
       id="path978"
       style="fill:none;stroke:#000000;stroke-width:0.264583px;stroke-linecap:butt;stroke-linejoin:miter;stroke-opacity:1"
       d="m 139.58799,142.85897 c -4.23622,-0.0473 -8.77495,0.58518 -11.52281,2.98225 l 6.68176,19.7776 c 0,0 6.01381,7.88456 12.16101,-0.26716 l 3.07372,-21.2478 c 0,0 -4.94712,-1.18411 -10.39368,-1.24489 z" />
    <path
       sodipodi:nodetypes="scscccscccs"
       id="path980"
       style="fill:none;fill-opacity:1;stroke:#000000;stroke-width:0.264583px;stroke-linecap:butt;stroke-linejoin:miter;stroke-opacity:1"
       d="m 141.61458,92.842089 c -0.15764,-0.0011 -0.26158,0.03998 -0.30334,0.123505 -0.66818,1.33635 -17.90705,1.469782 -27.66239,1.20251 -9.75533,-0.267258 -18.708937,4.410067 -18.708937,4.410067 -25.390599,-5.211749 -26.72705,14.566039 -26.72705,14.566039 6.838153,8.14909 14.051301,17.54817 13.764533,28.19724 0,0 11.09136,13.22965 24.454844,5.21157 13.36346,-8.01809 21.91649,-1.33635 21.91649,-1.33635 6.28083,-5.47902 21.91597,-1.73736 21.91597,-1.73736 14.16527,-2.13816 6.54792,-25.7912 6.54792,-25.7912 1.62867,-15.40976 -12.83333,-24.829873 -15.19804,-24.846021 z" />
    <path
       sodipodi:nodetypes="ccccc"
       d="m 83.381109,143.79556 c 0,0 3.8754,7.34991 0.66817,20.84702 0,0 1.33635,10.15624 9.6217,5.34539 L 107.9699,146.06734 c -9.519181,6.42429 -20.739251,2.17075 -24.588791,-2.27178 z"
       style="fill:none;stroke:#000000;stroke-width:0.264583px;stroke-linecap:butt;stroke-linejoin:miter;stroke-opacity:1"
       id="path978-6" />
  </g>
</svg>
