<?xml version="1.0" encoding="UTF-8" standalone="no"?>
<!-- Created with Inkscape (http://www.inkscape.org/) -->

<svg
   width="210mm"
   height="297mm"
   viewBox="0 0 210 297"
   version="1.1"
   id="svg5"
   inkscape:version="1.1 (c68e22c387, 2021-05-23)"
   sodipodi:docname="simple life pad.svg"
   xmlns:inkscape="http://www.inkscape.org/namespaces/inkscape"
   xmlns:sodipodi="http://sodipodi.sourceforge.net/DTD/sodipodi-0.dtd"
   xmlns="http://www.w3.org/2000/svg"
   xmlns:svg="http://www.w3.org/2000/svg">
  <sodipodi:namedview
     id="namedview7"
     pagecolor="#ffffff"
     bordercolor="#111111"
     borderopacity="1"
     inkscape:pageshadow="0"
     inkscape:pageopacity="0"
     inkscape:pagecheckerboard="1"
     inkscape:document-units="mm"
     showgrid="false"
     inkscape:snap-midpoints="false"
     inkscape:snap-bbox="true"
     inkscape:bbox-nodes="true"
     inkscape:object-nodes="true"
     inkscape:snap-nodes="false"
     inkscape:snap-bbox-midpoints="false"
     inkscape:bbox-paths="false"
     inkscape:snap-intersection-paths="false"
     inkscape:snap-global="true"
     inkscape:snap-bbox-edge-midpoints="false"
     inkscape:snap-smooth-nodes="false"
     inkscape:zoom="0.60803817"
     inkscape:cx="512.30336"
     inkscape:cy="527.10506"
     inkscape:window-width="1366"
     inkscape:window-height="705"
     inkscape:window-x="-8"
     inkscape:window-y="-8"
     inkscape:window-maximized="1"
     inkscape:current-layer="layer1" />
  <defs
     id="defs2" />
  <g
     inkscape:label="Layer 1"
     inkscape:groupmode="layer"
     id="layer1">
    <path
       id="rect846"
       style="display:inline;opacity:0.98;fill:#ffffff;stroke-width:0.0649999;stroke-linecap:round;stroke-linejoin:round"
       d="M 38.495945,58.266827 H 153.49594 V 198.26683 H 38.495945 Z"
       sodipodi:insensitive="true" />
    <path
       id="path827"
       style="color:#000000;display:inline;fill:#000000;stroke:none;-inkscape-stroke:none"
       d="m 125.1163,156.27722 q 0,0.26355 -0.21877,0.43236 -0.21704,0.16881 -0.59428,0.16881 -0.21359,0 -0.39274,-0.05 -0.17742,-0.0517 -0.298,-0.11196 v -0.36346 h 0.0172 q 0.1533,0.11541 0.34106,0.18431 0.18776,0.0672 0.36002,0.0672 0.21359,0 0.33417,-0.0689 0.12058,-0.0689 0.12058,-0.21704 0,-0.11369 -0.0655,-0.17226 -0.0655,-0.0586 -0.25149,-0.0999 -0.0689,-0.0155 -0.18087,-0.0362 -0.11024,-0.0207 -0.20154,-0.0448 -0.25321,-0.0672 -0.36001,-0.19637 -0.10508,-0.13092 -0.10508,-0.3204 0,-0.11885 0.0482,-0.22393 0.0499,-0.10507 0.14986,-0.18776 0.0965,-0.081 0.2446,-0.12747 0.14986,-0.0482 0.33417,-0.0482 0.17226,0 0.34796,0.0431 0.17742,0.0413 0.29456,0.10163 v 0.34623 h -0.0172 q -0.12402,-0.0913 -0.30145,-0.15331 -0.17742,-0.0637 -0.34795,-0.0637 -0.17742,0 -0.29972,0.0689 -0.12231,0.0672 -0.12231,0.20154 0,0.11885 0.0741,0.17914 0.0724,0.0603 0.23427,0.0982 0.0896,0.0207 0.19982,0.0413 0.11196,0.0207 0.18603,0.0379 0.22566,0.0517 0.34796,0.17742 0.1223,0.12747 0.1223,0.33762 z m -3.86713,0.53743 q -0.0913,0.0241 -0.19981,0.0396 -0.1068,0.0155 -0.1912,0.0155 -0.29456,0 -0.44787,-0.15847 -0.1533,-0.15847 -0.1533,-0.50815 v -1.0232 h -0.21877 v -0.27216 h 0.21877 v -0.55294 h 0.32384 v 0.55294 h 0.66834 v 0.27216 h -0.66834 v 0.87678 q 0,0.15159 0.007,0.23771 0.007,0.0844 0.0482,0.15848 0.0379,0.0689 0.10335,0.10163 0.0672,0.031 0.20326,0.031 0.0792,0 0.16537,-0.0224 0.0861,-0.0241 0.12402,-0.0396 h 0.0172 z m -3.79649,0.0172 h -0.42203 l -1.21612,-2.29444 v 2.29444 h -0.31867 V 154.267 h 0.52882 l 1.10933,2.09462 V 154.267 h 0.31867 z m 4.79839,-90.000004 H 121.91 v -2.210031 l -0.71314,1.503786 h -0.20326 l -0.70797,-1.503786 v 2.210031 h -0.31867 V 64.267 h 0.46509 l 0.68385,1.427993 0.66146,-1.427993 h 0.4737 z M 90.116366,156.27722 q 0,0.26355 -0.218764,0.43236 -0.217041,0.16881 -0.594279,0.16881 -0.213596,0 -0.392741,-0.05 -0.177423,-0.0517 -0.298001,-0.11196 v -0.36346 h 0.01722 q 0.153307,0.11541 0.341065,0.18431 0.187758,0.0672 0.360013,0.0672 0.213596,0 0.334174,-0.0689 0.120579,-0.0689 0.120579,-0.21704 0,-0.11369 -0.06546,-0.17226 -0.06546,-0.0586 -0.251492,-0.0999 -0.0689,-0.0155 -0.180868,-0.0362 -0.110243,-0.0207 -0.201538,-0.0448 -0.253215,-0.0672 -0.360013,-0.19637 -0.105075,-0.13092 -0.105075,-0.3204 0,-0.11885 0.04823,-0.22393 0.04995,-0.10507 0.149862,-0.18776 0.09646,-0.081 0.244602,-0.12747 0.149861,-0.0482 0.334174,-0.0482 0.172255,0 0.347955,0.0431 0.177423,0.0413 0.294556,0.10163 v 0.34623 h -0.01723 q -0.124023,-0.0913 -0.301446,-0.15331 -0.177422,-0.0637 -0.347955,-0.0637 -0.177422,0 -0.299723,0.0689 -0.122301,0.0672 -0.122301,0.20154 0,0.11885 0.07407,0.17914 0.07235,0.0603 0.234266,0.0982 0.08957,0.0207 0.199816,0.0413 0.111966,0.0207 0.186035,0.0379 0.225654,0.0517 0.347955,0.17742 0.122301,0.12747 0.122301,0.33762 z m -3.867122,0.53743 q -0.0913,0.0241 -0.199816,0.0396 -0.106798,0.0155 -0.191203,0.0155 -0.294556,0 -0.447863,-0.15847 -0.153307,-0.15847 -0.153307,-0.50815 v -1.0232 h -0.218763 v -0.27216 h 0.218763 v -0.55294 h 0.32384 v 0.55294 h 0.668349 v 0.27216 h -0.668349 v 0.87678 q 0,0.15159 0.0069,0.23771 0.0069,0.0844 0.04823,0.15848 0.0379,0.0689 0.103353,0.10163 0.06718,0.031 0.203261,0.031 0.07924,0 0.165365,-0.0224 0.08613,-0.0241 0.124023,-0.0396 h 0.01723 z m -3.796498,0.0172 h -0.422025 l -1.216119,-2.29444 v 2.29444 H 80.49593 V 154.267 h 0.528823 l 1.109321,2.09462 V 154.267 h 0.318672 z m 4.798395,-90.000004 h -0.341064 v -2.210031 l -0.713136,1.503786 h -0.20326 l -0.707968,-1.503786 v 2.210031 H 84.967032 V 64.267 H 85.43212 L 86.115972,65.694993 86.77743,64.267 h 0.473701 z M 55.116435,156.27722 q 0,0.26355 -0.218764,0.43236 -0.217041,0.16881 -0.594279,0.16881 -0.213596,0 -0.392742,-0.05 -0.177422,-0.0517 -0.298,-0.11196 v -0.36346 h 0.01722 q 0.153307,0.11541 0.341065,0.18431 0.187757,0.0672 0.360012,0.0672 0.213596,0 0.334175,-0.0689 0.120578,-0.0689 0.120578,-0.21704 0,-0.11369 -0.06546,-0.17226 -0.06546,-0.0586 -0.251492,-0.0999 -0.0689,-0.0155 -0.180867,-0.0362 -0.110243,-0.0207 -0.201539,-0.0448 -0.253214,-0.0672 -0.360012,-0.19637 -0.105076,-0.13092 -0.105076,-0.3204 0,-0.11885 0.04823,-0.22393 0.04995,-0.10507 0.149861,-0.18776 0.09646,-0.081 0.244602,-0.12747 0.149862,-0.0482 0.334175,-0.0482 0.172255,0 0.347955,0.0431 0.177422,0.0413 0.294556,0.10163 v 0.34623 h -0.01723 q -0.124023,-0.0913 -0.301446,-0.15331 -0.177423,-0.0637 -0.347955,-0.0637 -0.177422,0 -0.299723,0.0689 -0.122301,0.0672 -0.122301,0.20154 0,0.11885 0.07407,0.17914 0.07235,0.0603 0.234267,0.0982 0.08957,0.0207 0.199816,0.0413 0.111965,0.0207 0.186035,0.0379 0.225654,0.0517 0.347955,0.17742 0.122301,0.12747 0.122301,0.33762 z m -3.867123,0.53743 q -0.0913,0.0241 -0.199815,0.0396 -0.106798,0.0155 -0.191203,0.0155 -0.294556,0 -0.447863,-0.15847 -0.153307,-0.15847 -0.153307,-0.50815 v -1.0232 H 50.03836 v -0.27216 h 0.218764 v -0.55294 h 0.323839 v 0.55294 h 0.668349 v 0.27216 h -0.668349 v 0.87678 q 0,0.15159 0.0069,0.23771 0.0069,0.0844 0.04823,0.15848 0.0379,0.0689 0.103353,0.10163 0.06718,0.031 0.203261,0.031 0.07924,0 0.165364,-0.0224 0.08613,-0.0241 0.124024,-0.0396 h 0.01723 z m -3.796497,0.0172 H 47.03079 l -1.216119,-2.29444 v 2.29444 H 45.495999 V 154.267 h 0.528823 l 1.109321,2.09462 V 154.267 h 0.318672 z m 4.798384,-90.000004 h -0.341064 v -2.210031 l -0.713136,1.503786 h -0.20326 l -0.707968,-1.503786 v 2.210031 H 49.9671 V 64.267 h 0.465088 L 51.11604,65.694993 51.777498,64.267 h 0.473701 z m 1.436479,-1.977438 c -0.268177,0.0056 -0.485802,0.09839 -0.652672,0.277503 -0.171108,0.184886 -0.256833,0.434655 -0.256833,0.749308 0,0.318098 0.08957,0.563502 0.268718,0.736907 0.179144,0.172254 0.428511,0.258382 0.747758,0.258382 0.125171,0 0.24443,-0.0155 0.358119,-0.04651 0.113686,-0.03101 0.22525,-0.0693 0.334346,-0.115239 V 66.36181 h -0.01707 c -0.05627,0.05053 -0.151008,0.102201 -0.284218,0.155027 -0.132064,0.05167 -0.263896,0.07751 -0.394809,0.07751 -0.09876,0 -0.189134,-0.01378 -0.271819,-0.04134 -0.08153,-0.02756 -0.15216,-0.0689 -0.211873,-0.124023 -0.06201,-0.05627 -0.11116,-0.128215 -0.14676,-0.21549 -0.0356,-0.08842 -0.05323,-0.191778 -0.05323,-0.31006 h 1.417484 V 65.72777 c 2e-6,-0.279054 -0.07062,-0.494372 -0.211873,-0.645954 -0.1401,-0.151585 -0.339916,-0.227378 -0.599446,-0.227378 -0.0088,0 -0.0172,-1.8e-4 -0.02585,0 z m 0.0088,0.267169 c 0.172254,0 0.300125,0.04651 0.383955,0.139525 0.08499,0.09302 0.128059,0.224332 0.129191,0.39429 h -1.102259 c 0.01378,-0.151582 0.07194,-0.278649 0.174151,-0.380854 0.103351,-0.102204 0.241557,-0.152961 0.414962,-0.152961 z m 18.70842,-0.213942 c -0.121727,0 -0.236736,0.02503 -0.344681,0.07441 -0.106799,0.04823 -0.203261,0.108521 -0.289388,0.180869 v -0.201539 h -0.324011 v 2.63343 h 0.324011 v -0.806151 c 0.08383,0.04593 0.166108,0.07998 0.246497,0.101801 0.08153,0.02183 0.17191,0.03256 0.271817,0.03256 0.114837,0 0.223356,-0.02281 0.325562,-0.06873 0.103354,-0.04708 0.192926,-0.11294 0.268716,-0.197919 0.08153,-0.08957 0.144867,-0.199011 0.189653,-0.327628 0.04479,-0.129767 0.06718,-0.272738 0.06718,-0.428916 0,-0.311206 -0.06506,-0.554085 -0.19482,-0.728636 -0.128617,-0.175702 -0.308565,-0.263551 -0.540536,-0.263551 z m -0.100253,0.308509 c 0.0058,-1.59e-4 0.01175,0 0.01757,0 0.164216,0 0.285599,0.05725 0.364837,0.172082 0.07924,0.114835 0.118856,0.288412 0.118856,0.520383 0,0.23886 -0.05036,0.419325 -0.151413,0.541052 -0.101055,0.121726 -0.241904,0.182417 -0.422196,0.182417 -0.08383,0 -0.158702,-0.0073 -0.225311,-0.02223 -0.06546,-0.01492 -0.144291,-0.04341 -0.236159,-0.08475 V 65.43476 c 0.08613,-0.06546 0.176101,-0.117936 0.270266,-0.158131 0.08828,-0.03768 0.176279,-0.05811 0.263549,-0.06046 z m -2.098062,-0.308509 c -0.121726,0 -0.23622,0.02503 -0.344164,0.07441 -0.106799,0.04823 -0.203261,0.108521 -0.289391,0.180869 v -0.201539 h -0.324009 v 2.63343 h 0.324009 v -0.806151 c 0.08383,0.04593 0.165595,0.07998 0.245981,0.101801 0.08153,0.02183 0.172426,0.03256 0.272335,0.03256 0.114837,0 0.223356,-0.02281 0.325562,-0.06873 0.103352,-0.04708 0.192924,-0.11294 0.268716,-0.197919 0.08153,-0.08957 0.144868,-0.199011 0.189654,-0.327628 0.04479,-0.129767 0.06718,-0.272738 0.06718,-0.428916 0,-0.311206 -0.06506,-0.554085 -0.194821,-0.728636 -0.128616,-0.175702 -0.309083,-0.263551 -0.541052,-0.263551 z m -0.09974,0.308509 c 0.0058,-1.59e-4 0.01125,0 0.01707,0 0.164216,0 0.286115,0.05725 0.365352,0.172082 0.07923,0.114835 0.118854,0.288412 0.118854,0.520383 0,0.23886 -0.05036,0.419325 -0.151411,0.541052 -0.101057,0.121726 -0.241903,0.182417 -0.422195,0.182417 -0.08383,0 -0.159221,-0.0073 -0.225827,-0.02223 -0.06546,-0.01492 -0.143775,-0.04341 -0.235646,-0.08475 V 65.43476 c 0.08613,-0.06546 0.176104,-0.117936 0.270269,-0.158131 0.08828,-0.03768 0.176279,-0.05811 0.263549,-0.06046 z m -2.564701,-0.949296 c -0.176848,0 -0.34049,0.0302 -0.490924,0.08992 -0.149289,0.05971 -0.274632,0.145844 -0.37569,0.258382 -0.105651,0.118282 -0.186208,0.260336 -0.241329,0.426847 -0.05512,0.165367 -0.08268,0.352721 -0.08268,0.561723 0,0.212447 0.02756,0.401527 0.08268,0.566891 0.05627,0.165365 0.136427,0.30489 0.239779,0.418579 0.103354,0.113691 0.228182,0.200218 0.375171,0.259932 0.14814,0.05971 0.3127,0.0894 0.492993,0.0894 0.184888,0 0.348932,-0.02928 0.492477,-0.08785 0.144695,-0.05856 0.270039,-0.145497 0.375687,-0.261482 0.1022,-0.111392 0.181438,-0.250515 0.237712,-0.417028 0.05742,-0.167662 0.08578,-0.357143 0.08578,-0.568442 0,-0.211299 -0.02797,-0.400378 -0.08423,-0.566891 -0.05512,-0.166513 -0.13476,-0.306842 -0.239262,-0.421679 -0.102204,-0.111393 -0.227145,-0.197118 -0.374137,-0.256831 -0.145844,-0.06087 -0.310287,-0.09147 -0.494027,-0.09147 z m 0.0016,0.294555 c 0.258384,0 0.462045,0.09089 0.611333,0.272336 0.149289,0.180292 0.224277,0.436951 0.224277,0.769977 0,0.336471 -0.07579,0.594453 -0.227378,0.773597 -0.150437,0.177996 -0.353295,0.26665 -0.608232,0.26665 -0.254936,0 -0.458197,-0.08865 -0.60978,-0.26665 -0.151585,-0.179144 -0.227377,-0.437126 -0.227377,-0.773597 0,-0.333026 0.07407,-0.589685 0.222207,-0.769977 0.149289,-0.181443 0.354272,-0.272336 0.61495,-0.272336 z m 21.143894,0.293005 c -0.268179,0.0056 -0.485804,0.09839 -0.652674,0.277503 -0.171106,0.184886 -0.256831,0.434655 -0.256831,0.749308 0,0.318098 0.08957,0.563502 0.268716,0.736907 0.179144,0.172254 0.428511,0.258382 0.747757,0.258382 0.125172,0 0.24443,-0.0155 0.358119,-0.04651 0.113689,-0.03101 0.22525,-0.0693 0.334346,-0.115239 V 66.36181 h -0.01707 c -0.05627,0.05053 -0.151011,0.102201 -0.284221,0.155027 -0.132062,0.05167 -0.263896,0.07751 -0.394809,0.07751 -0.09876,0 -0.189135,-0.01378 -0.271817,-0.04134 -0.08154,-0.02756 -0.152162,-0.0689 -0.211873,-0.124023 -0.06201,-0.05627 -0.111162,-0.128215 -0.146762,-0.21549 -0.0356,-0.08842 -0.05323,-0.191778 -0.05323,-0.31006 h 1.417484 V 65.72777 c 0,-0.279054 -0.07063,-0.494372 -0.211873,-0.645954 -0.140102,-0.151585 -0.339915,-0.227378 -0.599448,-0.227378 -0.0088,0 -0.0172,-1.8e-4 -0.02582,0 z m 0.0088,0.267169 c 0.172254,0 0.300125,0.04651 0.383955,0.139525 0.085,0.09302 0.128059,0.224332 0.129191,0.39429 h -1.102257 c 0.01378,-0.151582 0.07194,-0.278649 0.174149,-0.380854 0.103352,-0.102204 0.241559,-0.152961 0.414962,-0.152961 z m 18.708414,-0.213942 c -0.12173,0 -0.23673,0.02503 -0.34468,0.07441 -0.1068,0.04823 -0.20326,0.108521 -0.28939,0.180869 v -0.201539 h -0.32401 v 2.63343 h 0.32401 v -0.806151 c 0.0838,0.04593 0.16611,0.07998 0.2465,0.101801 0.0815,0.02183 0.17191,0.03256 0.27182,0.03256 0.11483,0 0.22335,-0.02281 0.32556,-0.06873 0.10335,-0.04708 0.19292,-0.11294 0.26872,-0.197919 0.0815,-0.08957 0.14485,-0.199011 0.18965,-0.327628 0.0448,-0.129767 0.0672,-0.272738 0.0672,-0.428916 0,-0.311206 -0.0651,-0.554085 -0.19482,-0.728636 -0.12862,-0.175702 -0.30857,-0.263551 -0.54054,-0.263551 z m -0.10025,0.308509 c 0.006,-1.59e-4 0.0118,0 0.0176,0 0.16421,0 0.2856,0.05725 0.36484,0.172082 0.0792,0.114835 0.11885,0.288412 0.11885,0.520383 0,0.23886 -0.0504,0.419325 -0.15141,0.541052 -0.10106,0.121726 -0.2419,0.182417 -0.4222,0.182417 -0.0838,0 -0.15871,-0.0073 -0.22531,-0.02223 -0.0655,-0.01492 -0.14429,-0.04341 -0.23616,-0.08475 V 65.43476 c 0.0861,-0.06546 0.1761,-0.117936 0.27027,-0.158131 0.0883,-0.03768 0.17628,-0.05811 0.26355,-0.06046 z m -2.09806,-0.308509 c -0.12173,0 -0.23622,0.02503 -0.34417,0.07441 -0.10679,0.04823 -0.20326,0.108521 -0.28939,0.180869 v -0.201539 h -0.32401 v 2.63343 h 0.32401 v -0.806151 c 0.0838,0.04593 0.1656,0.07998 0.24598,0.101801 0.0815,0.02183 0.17243,0.03256 0.27234,0.03256 0.11484,0 0.22335,-0.02281 0.32556,-0.06873 0.10335,-0.04708 0.19293,-0.11294 0.26872,-0.197919 0.0815,-0.08957 0.14485,-0.199011 0.18965,-0.327628 0.0448,-0.129767 0.0672,-0.272738 0.0672,-0.428916 0,-0.311206 -0.065,-0.554085 -0.19482,-0.728636 -0.12862,-0.175702 -0.30908,-0.263551 -0.54105,-0.263551 z m -0.0997,0.308509 c 0.006,-1.59e-4 0.0113,0 0.017,0 0.16422,0 0.28612,0.05725 0.36535,0.172082 0.0792,0.114835 0.11886,0.288412 0.11886,0.520383 0,0.23886 -0.0504,0.419325 -0.15141,0.541052 -0.10106,0.121726 -0.24191,0.182417 -0.4222,0.182417 -0.0838,0 -0.15922,-0.0073 -0.22583,-0.02223 -0.0654,-0.01492 -0.14377,-0.04341 -0.23564,-0.08475 V 65.43476 c 0.0861,-0.06546 0.1761,-0.117936 0.27027,-0.158131 0.0883,-0.03768 0.17628,-0.05811 0.26355,-0.06046 z m -2.5647,-0.949296 c -0.17685,0 -0.34049,0.0302 -0.49093,0.08992 -0.14928,0.05971 -0.27462,0.145844 -0.37568,0.258382 -0.10564,0.118282 -0.1862,0.260336 -0.24133,0.426847 -0.0551,0.165367 -0.0827,0.352721 -0.0827,0.561723 0,0.212447 0.0275,0.401527 0.0827,0.566891 0.0563,0.165365 0.13642,0.30489 0.23978,0.418579 0.10335,0.113691 0.22817,0.200218 0.37517,0.259932 0.14814,0.05971 0.3127,0.0894 0.49299,0.0894 0.18489,0 0.34893,-0.02928 0.49248,-0.08785 0.14469,-0.05856 0.27004,-0.145497 0.37568,-0.261482 0.10221,-0.111392 0.18145,-0.250515 0.23771,-0.417028 0.0574,-0.167662 0.0858,-0.357143 0.0858,-0.568442 0,-0.211299 -0.028,-0.400378 -0.0842,-0.566891 -0.0551,-0.166513 -0.13477,-0.306842 -0.23927,-0.421679 -0.1022,-0.111393 -0.22715,-0.197118 -0.37413,-0.256831 -0.14585,-0.06087 -0.3103,-0.09147 -0.49403,-0.09147 z m 0.002,0.294555 c 0.25839,0 0.46204,0.09089 0.61133,0.272336 0.14929,0.180292 0.22428,0.436951 0.22428,0.769977 0,0.336471 -0.0758,0.594453 -0.22738,0.773597 -0.15043,0.177996 -0.35329,0.26665 -0.60823,0.26665 -0.25494,0 -0.4582,-0.08865 -0.60978,-0.26665 -0.15159,-0.179144 -0.22738,-0.437126 -0.22738,-0.773597 0,-0.333026 0.0741,-0.589685 0.22221,-0.769977 0.14928,-0.181443 0.35427,-0.272336 0.61495,-0.272336 z m 21.14389,0.293005 c -0.26818,0.0056 -0.4858,0.09839 -0.65267,0.277503 -0.17111,0.184886 -0.25684,0.434655 -0.25684,0.749308 0,0.318098 0.0896,0.563502 0.26872,0.736907 0.17915,0.172254 0.42851,0.258382 0.74776,0.258382 0.12517,0 0.24443,-0.0155 0.35812,-0.04651 0.11368,-0.03101 0.22525,-0.0693 0.33434,-0.115239 V 66.36181 h -0.0171 c -0.0563,0.05053 -0.15102,0.102201 -0.28422,0.155027 -0.13207,0.05167 -0.2639,0.07751 -0.39481,0.07751 -0.0988,0 -0.18914,-0.01378 -0.27182,-0.04134 -0.0815,-0.02756 -0.15214,-0.0689 -0.21187,-0.124023 -0.062,-0.05627 -0.11116,-0.128215 -0.14676,-0.21549 -0.0356,-0.08842 -0.0532,-0.191778 -0.0532,-0.31006 h 1.41748 V 65.72777 c 0,-0.279054 -0.0706,-0.494372 -0.21187,-0.645954 -0.1401,-0.151585 -0.33991,-0.227378 -0.59945,-0.227378 -0.009,0 -0.0172,-1.8e-4 -0.0258,0 z m 0.009,0.267169 c 0.17226,0 0.30013,0.04651 0.38396,0.139525 0.0848,0.09302 0.12786,0.224332 0.12919,0.39429 h -1.10226 c 0.0138,-0.151582 0.072,-0.278649 0.17415,-0.380854 0.10335,-0.102204 0.24156,-0.152961 0.41496,-0.152961 z m 18.70842,-0.213942 c -0.12172,0 -0.23673,0.02503 -0.34468,0.07441 -0.1068,0.04823 -0.20326,0.108521 -0.28939,0.180869 v -0.201539 h -0.32401 v 2.63343 h 0.32401 v -0.806151 c 0.0838,0.04593 0.16611,0.07998 0.2465,0.101801 0.0815,0.02183 0.1719,0.03256 0.27182,0.03256 0.11483,0 0.22335,-0.02281 0.32556,-0.06873 0.10335,-0.04708 0.19292,-0.11294 0.26872,-0.197919 0.0815,-0.08957 0.14485,-0.199011 0.18965,-0.327628 0.0448,-0.129767 0.0672,-0.272738 0.0672,-0.428916 0,-0.311206 -0.0651,-0.554085 -0.19482,-0.728636 -0.12862,-0.175702 -0.30857,-0.263551 -0.54054,-0.263551 z m -0.10025,0.308509 c 0.006,-1.59e-4 0.0118,0 0.0176,0 0.16422,0 0.2856,0.05725 0.36483,0.172082 0.0792,0.114835 0.11886,0.288412 0.11886,0.520383 0,0.23886 -0.0504,0.419325 -0.15141,0.541052 -0.10106,0.121726 -0.2419,0.182417 -0.4222,0.182417 -0.0838,0 -0.15871,-0.0073 -0.22531,-0.02223 -0.0655,-0.01492 -0.14429,-0.04341 -0.23616,-0.08475 V 65.43476 c 0.0861,-0.06546 0.1761,-0.117936 0.27027,-0.158131 0.0883,-0.03768 0.17628,-0.05811 0.26355,-0.06046 z m -2.09806,-0.308509 c -0.12173,0 -0.23622,0.02503 -0.34417,0.07441 -0.10679,0.04823 -0.20326,0.108521 -0.28939,0.180869 v -0.201539 h -0.32401 v 2.63343 h 0.32401 v -0.806151 c 0.0838,0.04593 0.1656,0.07998 0.24598,0.101801 0.0815,0.02183 0.17243,0.03256 0.27234,0.03256 0.11484,0 0.22336,-0.02281 0.32556,-0.06873 0.10335,-0.04708 0.19293,-0.11294 0.26872,-0.197919 0.0815,-0.08957 0.14485,-0.199011 0.18965,-0.327628 0.0448,-0.129767 0.0672,-0.272738 0.0672,-0.428916 0,-0.311206 -0.065,-0.554085 -0.19482,-0.728636 -0.12861,-0.175702 -0.30908,-0.263551 -0.54105,-0.263551 z m -0.0997,0.308509 c 0.006,-1.59e-4 0.0113,0 0.017,0 0.16422,0 0.28612,0.05725 0.36535,0.172082 0.0792,0.114835 0.11886,0.288412 0.11886,0.520383 0,0.23886 -0.0504,0.419325 -0.15141,0.541052 -0.10106,0.121726 -0.2419,0.182417 -0.4222,0.182417 -0.0838,0 -0.15923,-0.0073 -0.22582,-0.02223 -0.0655,-0.01492 -0.14378,-0.04341 -0.23565,-0.08475 V 65.43476 c 0.0861,-0.06546 0.1761,-0.117936 0.27027,-0.158131 0.0883,-0.03768 0.17628,-0.05811 0.26355,-0.06046 z m -2.5647,-0.949296 c -0.17685,0 -0.34049,0.0302 -0.49093,0.08992 -0.14928,0.05971 -0.27462,0.145844 -0.37568,0.258382 -0.10564,0.118282 -0.1862,0.260336 -0.24133,0.426847 -0.0551,0.165367 -0.0827,0.352721 -0.0827,0.561723 0,0.212447 0.0275,0.401527 0.0827,0.566891 0.0563,0.165365 0.13642,0.30489 0.23978,0.418579 0.10335,0.113691 0.22817,0.200218 0.37517,0.259932 0.14813,0.05971 0.3127,0.0894 0.49299,0.0894 0.18489,0 0.34893,-0.02928 0.49248,-0.08785 0.1447,-0.05856 0.27004,-0.145497 0.37568,-0.261482 0.10221,-0.111392 0.18145,-0.250515 0.23772,-0.417028 0.0574,-0.167662 0.0858,-0.357143 0.0858,-0.568442 0,-0.211299 -0.028,-0.400378 -0.0842,-0.566891 -0.0551,-0.166513 -0.13477,-0.306842 -0.23927,-0.421679 -0.1022,-0.111393 -0.22715,-0.197118 -0.37413,-0.256831 -0.14585,-0.06087 -0.31029,-0.09147 -0.49403,-0.09147 z m 0.002,0.294555 c 0.25838,0 0.46204,0.09089 0.61133,0.272336 0.14929,0.180292 0.22428,0.436951 0.22428,0.769977 0,0.336471 -0.0758,0.594453 -0.22738,0.773597 -0.15043,0.177996 -0.35329,0.26665 -0.60823,0.26665 -0.25494,0 -0.4582,-0.08865 -0.60978,-0.26665 -0.15159,-0.179144 -0.22738,-0.437126 -0.22738,-0.773597 0,-0.333026 0.0741,-0.589685 0.22221,-0.769977 0.14928,-0.181443 0.35427,-0.272336 0.61495,-0.272336 z m -15.10403,90.292677 c -0.2802,0 -0.50677,0.0926 -0.67902,0.2775 -0.17111,0.18489 -0.25632,0.43466 -0.25632,0.74931 0,0.3181 0.0896,0.56403 0.26872,0.73743 0.17914,0.17225 0.42799,0.25838 0.74724,0.25838 0.12517,0 0.24494,-0.0155 0.35863,-0.0465 0.11369,-0.031 0.22474,-0.0693 0.33383,-0.11524 v -0.35347 h -0.0171 c -0.0563,0.0506 -0.15101,0.10223 -0.28422,0.15503 -0.13206,0.0517 -0.26338,0.0775 -0.39429,0.0775 -0.0988,0 -0.18966,-0.0138 -0.27234,-0.0413 -0.0815,-0.0276 -0.15214,-0.0689 -0.21187,-0.12403 -0.062,-0.0563 -0.11064,-0.12769 -0.14624,-0.21497 -0.0356,-0.0884 -0.0538,-0.19177 -0.0538,-0.31006 h 1.418 v -0.17622 c 0,-0.27904 -0.0706,-0.49385 -0.21187,-0.64543 -0.1401,-0.15159 -0.33992,-0.2279 -0.59945,-0.2279 z m -0.0176,0.26717 c 0.17226,0 0.30064,0.0465 0.38448,0.13953 0.0848,0.093 0.12785,0.22484 0.12919,0.3948 H 121.834 c 0.0138,-0.15158 0.0719,-0.27864 0.17415,-0.38085 0.10335,-0.1022 0.24156,-0.15348 0.41496,-0.15348 z m -3.58582,-0.26665 c -0.26029,0.006 -0.46799,0.097 -0.62374,0.27388 -0.15962,0.18144 -0.23978,0.42857 -0.23978,0.74208 0,0.3135 0.0802,0.56115 0.23978,0.74259 0.16078,0.18144 0.3769,0.27233 0.64906,0.27233 0.26986,0 0.48518,-0.0909 0.64595,-0.27233 0.16077,-0.18144 0.24133,-0.42909 0.24133,-0.74259 0,-0.31351 -0.0806,-0.56064 -0.24133,-0.74208 -0.16077,-0.18259 -0.37609,-0.27388 -0.64595,-0.27388 -0.008,0 -0.0169,-1.8e-4 -0.0253,0 z m 0.009,0.27905 c 0.005,-1.2e-4 0.0105,0 0.016,0 0.1734,0 0.30908,0.0607 0.40669,0.18242 0.0976,0.12057 0.14625,0.30529 0.14625,0.55449 0,0.24345 -0.049,0.42736 -0.1478,0.55138 -0.0976,0.12288 -0.23289,0.18449 -0.40514,0.18449 -0.17455,0 -0.31064,-0.062 -0.40825,-0.18604 -0.0976,-0.12517 -0.14624,-0.30868 -0.14624,-0.54983 0,-0.2492 0.0482,-0.43392 0.14469,-0.55449 0.0946,-0.11792 0.22593,-0.17873 0.39378,-0.18242 z m -31.405845,-0.27957 c -0.280201,0 -0.506772,0.0926 -0.679029,0.2775 -0.171106,0.18489 -0.256315,0.43466 -0.256315,0.74931 0,0.3181 0.08957,0.56403 0.268719,0.73743 0.179144,0.17225 0.427995,0.25838 0.747241,0.25838 0.125172,0 0.244946,-0.0155 0.358632,-0.0465 0.113689,-0.031 0.224737,-0.0693 0.33383,-0.11524 v -0.35347 h -0.01704 c -0.05627,0.0506 -0.151008,0.10223 -0.284221,0.15503 -0.132061,0.0517 -0.263376,0.0775 -0.39429,0.0775 -0.09876,0 -0.189653,-0.0138 -0.272335,-0.0413 -0.08154,-0.0276 -0.152159,-0.0689 -0.211873,-0.12403 -0.06201,-0.0563 -0.110644,-0.12769 -0.146246,-0.21497 -0.0356,-0.0884 -0.05374,-0.19177 -0.05374,-0.31006 h 1.418002 v -0.17622 c 0,-0.27904 -0.07062,-0.49385 -0.211875,-0.64543 -0.1401,-0.15159 -0.339916,-0.2279 -0.599446,-0.2279 z m -0.01757,0.26717 c 0.172254,0 0.300641,0.0465 0.384474,0.13953 0.08499,0.093 0.128058,0.22484 0.129191,0.3948 h -1.102776 c 0.01378,-0.15158 0.07195,-0.27864 0.174149,-0.38085 0.103354,-0.1022 0.241559,-0.15348 0.414962,-0.15348 z m -3.585829,-0.26665 c -0.260287,0.006 -0.467987,0.097 -0.623734,0.27388 -0.159623,0.18144 -0.239779,0.42857 -0.239779,0.74208 0,0.3135 0.08016,0.56115 0.239779,0.74259 0.160771,0.18144 0.376891,0.27233 0.649054,0.27233 0.269868,0 0.485185,-0.0909 0.645957,-0.27233 0.160771,-0.18144 0.241329,-0.42909 0.241329,-0.74259 0,-0.31351 -0.08056,-0.56064 -0.241329,-0.74208 -0.160772,-0.18259 -0.376089,-0.27388 -0.645957,-0.27388 -0.0085,0 -0.01693,-1.8e-4 -0.02532,0 z m 0.0093,0.27905 c 0.0054,-1.2e-4 0.01053,0 0.01601,0 0.173403,0 0.309084,0.0607 0.406694,0.18242 0.09761,0.12057 0.146245,0.30529 0.146245,0.55449 0,0.24345 -0.04904,0.42736 -0.147796,0.55138 -0.09761,0.12288 -0.232889,0.18449 -0.405143,0.18449 -0.174551,0 -0.310634,-0.062 -0.408244,-0.18604 -0.09761,-0.12517 -0.146243,-0.30868 -0.146243,-0.54983 0,-0.2492 0.04823,-0.43392 0.144692,-0.55449 0.09456,-0.11792 0.225931,-0.17873 0.393774,-0.18242 z m -31.405819,-0.27957 c -0.280202,0 -0.506775,0.0926 -0.67903,0.2775 -0.171106,0.18489 -0.256315,0.43466 -0.256315,0.74931 0,0.3181 0.08957,0.56403 0.268716,0.73743 0.179147,0.17225 0.427998,0.25838 0.747242,0.25838 0.125172,0 0.244946,-0.0155 0.358635,-0.0465 0.113689,-0.031 0.224734,-0.0693 0.33383,-0.11524 v -0.35347 h -0.01704 c -0.05627,0.0506 -0.151011,0.10223 -0.284221,0.15503 -0.132062,0.0517 -0.263377,0.0775 -0.394293,0.0775 -0.09876,0 -0.18965,-0.0138 -0.272333,-0.0413 -0.08154,-0.0276 -0.152162,-0.0689 -0.211873,-0.12403 -0.06201,-0.0563 -0.110646,-0.12769 -0.146246,-0.21497 -0.0356,-0.0884 -0.05374,-0.19177 -0.05374,-0.31006 h 1.418 v -0.17622 c 0,-0.27904 -0.07062,-0.49385 -0.211873,-0.64543 -0.140099,-0.15159 -0.339915,-0.2279 -0.599445,-0.2279 z m -0.01757,0.26717 c 0.172255,0 0.300641,0.0465 0.384472,0.13953 0.08499,0.093 0.128058,0.22484 0.129193,0.3948 h -1.102775 c 0.01378,-0.15158 0.07194,-0.27864 0.174148,-0.38085 0.103352,-0.1022 0.24156,-0.15348 0.414962,-0.15348 z m -3.585831,-0.26665 c -0.260284,0.006 -0.467987,0.097 -0.623734,0.27388 -0.159624,0.18144 -0.239779,0.42857 -0.239779,0.74208 0,0.3135 0.08016,0.56115 0.239779,0.74259 0.160771,0.18144 0.376893,0.27233 0.649057,0.27233 0.269864,0 0.485182,-0.0909 0.645954,-0.27233 0.160771,-0.18144 0.241329,-0.42909 0.241329,-0.74259 0,-0.31351 -0.08056,-0.56064 -0.241329,-0.74208 -0.160772,-0.18259 -0.37609,-0.27388 -0.645954,-0.27388 -0.0085,0 -0.01693,-1.8e-4 -0.02532,0 z m 0.0093,0.27905 c 0.0054,-1.2e-4 0.01053,0 0.01603,0 0.173402,0 0.309081,0.0607 0.406693,0.18242 0.09761,0.12057 0.146244,0.30529 0.146244,0.55449 0,0.24345 -0.04904,0.42736 -0.147794,0.55138 -0.09761,0.12288 -0.232889,0.18449 -0.405143,0.18449 -0.174554,0 -0.310634,-0.062 -0.408244,-0.18604 -0.09761,-0.12517 -0.146244,-0.30868 -0.146246,-0.54983 2e-6,-0.2492 0.04823,-0.43392 0.144695,-0.55449 0.09456,-0.11792 0.22593,-0.17873 0.393774,-0.18242 z M 43.09556,62.866962 v 0.399976 0.398942 129.20142 0.39945 0.39946 H 148.89634 V 62.866962 Z m 0.800984,0.798918 h 16.90026 v 89.40074 h -16.90026 z m 17.298686,0 h 16.90026 v 89.40074 H 61.19523 Z m 17.701246,0 h 16.90026 v 89.40074 h -16.90026 z m 17.298686,0 h 16.900258 v 89.40074 H 96.195162 Z m 17.701248,0 h 16.90026 v 89.40074 h -16.90026 z m 17.29868,0 h 16.90078 v 89.40074 H 131.19509 Z M 43.896544,153.4666 H 78.09549 v 39.4007 H 43.896544 Z m 34.999932,0 h 34.198944 v 39.4007 H 78.896476 Z m 34.999934,0 h 34.19946 v 39.4007 h -34.19946 z" />
  </g>
</svg>
