<?xml version="1.0" encoding="UTF-8" standalone="no"?>
<svg
   xmlns:dc="http://purl.org/dc/elements/1.1/"
   xmlns:cc="http://creativecommons.org/ns#"
   xmlns:rdf="http://www.w3.org/1999/02/22-rdf-syntax-ns#"
   xmlns:svg="http://www.w3.org/2000/svg"
   xmlns="http://www.w3.org/2000/svg"
   xmlns:sodipodi="http://sodipodi.sourceforge.net/DTD/sodipodi-0.dtd"
   xmlns:inkscape="http://www.inkscape.org/namespaces/inkscape"
   width="210mm"
   height="297mm"
   viewBox="0 0 210 297"
   version="1.1"
   id="svg8"
   sodipodi:docname="staff only.svg"
   inkscape:version="1.0 (4035a4fb49, 2020-05-01)">
  <defs
     id="defs2" />
  <sodipodi:namedview
     id="base"
     pagecolor="#ffffff"
     bordercolor="#666666"
     borderopacity="1.0"
     inkscape:pageopacity="0.0"
     inkscape:pageshadow="2"
     inkscape:zoom="0.74836297"
     inkscape:cx="400"
     inkscape:cy="560"
     inkscape:document-units="mm"
     inkscape:current-layer="layer1"
     inkscape:document-rotation="0"
     showgrid="false"
     inkscape:window-width="2160"
     inkscape:window-height="1346"
     inkscape:window-x="-11"
     inkscape:window-y="-11"
     inkscape:window-maximized="1" />
  <metadata
     id="metadata5">
    <rdf:RDF>
      <cc:Work
         rdf:about="">
        <dc:format>image/svg+xml</dc:format>
        <dc:type
           rdf:resource="http://purl.org/dc/dcmitype/StillImage" />
      </cc:Work>
    </rdf:RDF>
  </metadata>
  <g
     inkscape:label="Layer 1"
     inkscape:groupmode="layer"
     id="layer1">
    <g
       style="font-style:normal;font-variant:normal;font-weight:900;font-stretch:normal;font-size:47.624px;line-height:1.25;font-family:Arial;-inkscape-font-specification:'Arial Heavy';fill:#000000;fill-opacity:1;stroke:none;stroke-width:1.1906"
       id="text842"
       aria-label="STAFF
ONLY">
      <path
         id="path846"
         style="font-style:normal;font-variant:normal;font-weight:900;font-stretch:normal;font-family:Arial;-inkscape-font-specification:'Arial Heavy';stroke-width:1.1906"
         d="m 34.929035,72.125092 10.022434,-0.627856 q 0.325554,2.44166 1.325472,3.720625 1.627774,2.069598 4.650782,2.069598 2.255628,0 3.464832,-1.046426 1.232457,-1.06968 1.232457,-2.464914 0,-1.325473 -1.162696,-2.371898 Q 53.299621,70.357795 49.06741,69.427639 42.137746,67.869627 39.1845,65.288443 36.208,62.70726 36.208,58.707588 q 0,-2.627692 1.511504,-4.953082 1.534757,-2.348645 4.581019,-3.674118 3.069516,-1.348726 8.39466,-1.348726 6.534348,0 9.952672,2.44166 3.441579,2.418406 4.092688,7.720297 l -9.929418,0.581348 q -0.395316,-2.302137 -1.674281,-3.348563 -1.255711,-1.046426 -3.488086,-1.046426 -1.837059,0 -2.767215,0.790633 -0.930156,0.767379 -0.930156,1.883566 0,0.813887 0.767378,1.464997 0.744125,0.674363 3.534594,1.255711 6.906411,1.48825 9.882911,3.023007 2.999753,1.511504 4.34848,3.767133 1.371981,2.255629 1.371981,5.046098 0,3.278801 -1.813805,6.046016 -1.813805,2.767215 -5.069352,4.208957 -3.255547,1.418488 -8.208629,1.418488 -8.696961,0 -12.045523,-3.348562 -3.348563,-3.348563 -3.790387,-8.51093 z" />
      <path
         id="path848"
         style="font-style:normal;font-variant:normal;font-weight:900;font-stretch:normal;font-family:Arial;-inkscape-font-specification:'Arial Heavy';stroke-width:1.1906"
         d="m 68.786724,49.313009 h 32.020626 v 8.417915 H 90.064049 V 83.403236 H 79.530029 V 57.730924 H 68.786724 Z" />
      <path
         id="path850"
         style="font-style:normal;font-variant:normal;font-weight:900;font-stretch:normal;font-family:Arial;-inkscape-font-specification:'Arial Heavy';stroke-width:1.1906"
         d="m 123.31714,77.775791 h -11.99902 l -1.65103,5.627445 H 98.900535 L 111.71344,49.313009 h 11.48743 l 12.8129,34.090227 h -11.02235 z m -2.20912,-7.371488 -3.76714,-12.254809 -3.74388,12.254809 z" />
      <path
         id="path852"
         style="font-style:normal;font-variant:normal;font-weight:900;font-stretch:normal;font-family:Arial;-inkscape-font-specification:'Arial Heavy';stroke-width:1.1906"
         d="m 139.40884,49.313009 h 26.04437 v 7.324981 h -15.46384 v 5.953 h 13.20821 v 6.883156 h -13.20821 v 13.92909 h -10.58053 z" />
      <path
         id="path854"
         style="font-style:normal;font-variant:normal;font-weight:900;font-stretch:normal;font-family:Arial;-inkscape-font-specification:'Arial Heavy';stroke-width:1.1906"
         d="m 171.22018,49.313009 h 26.04437 v 7.324981 h -15.46384 v 5.953 h 13.20822 v 6.883156 h -13.20822 v 13.92909 h -10.58053 z" />
      <path
         id="path856"
         style="font-style:normal;font-variant:normal;font-weight:900;font-stretch:normal;font-family:Arial;-inkscape-font-specification:'Arial Heavy';stroke-width:1.1906"
         d="m 35.440621,125.91138 q 0,-8.34815 4.650781,-12.99894 4.650781,-4.65078 12.952426,-4.65078 8.51093,0 13.115203,4.58102 4.604274,4.55777 4.604274,12.78965 0,5.97625 -2.02309,9.81315 -1.999836,3.81364 -5.813477,5.953 -3.790386,2.1161 -9.46434,2.1161 -5.766968,0 -9.557355,-1.83705 -3.767133,-1.83706 -6.115778,-5.81348 -2.348644,-3.97642 -2.348644,-9.95267 z m 10.534019,0.0465 q 0,5.16236 1.906821,7.41799 1.930074,2.25563 5.232129,2.25563 3.39507,0 5.255383,-2.20912 1.860312,-2.20912 1.860312,-7.92958 0,-4.81356 -1.953328,-7.02268 -1.930074,-2.23238 -5.255383,-2.23238 -3.185785,0 -5.115859,2.25563 -1.930075,2.25563 -1.930075,7.46451 z" />
      <path
         id="path858"
         style="font-style:normal;font-variant:normal;font-weight:900;font-stretch:normal;font-family:Arial;-inkscape-font-specification:'Arial Heavy';stroke-width:1.1906"
         d="m 76.553526,108.84301 h 9.836402 l 12.836157,18.85892 v -18.85892 h 9.929415 v 34.09023 H 99.226085 L 86.45969,124.21384 v 18.7194 h -9.906164 z" />
      <path
         id="path860"
         style="font-style:normal;font-variant:normal;font-weight:900;font-stretch:normal;font-family:Arial;-inkscape-font-specification:'Arial Heavy';stroke-width:1.1906"
         d="m 116.20143,108.84301 h 10.53402 v 25.69557 h 16.44052 v 8.39466 h -26.97454 z" />
      <path
         id="path862"
         style="font-style:normal;font-variant:normal;font-weight:900;font-stretch:normal;font-family:Arial;-inkscape-font-specification:'Arial Heavy';stroke-width:1.1906"
         d="m 140.94359,108.84301 h 11.69672 l 6.88316,11.51068 6.88315,-11.51068 h 11.62696 l -13.25473,19.81233 v 14.2779 h -10.55727 v -14.2779 z" />
    </g>
  </g>
</svg>
