<?xml version="1.0" encoding="UTF-8" standalone="no"?>
<svg
   xmlns:dc="http://purl.org/dc/elements/1.1/"
   xmlns:cc="http://creativecommons.org/ns#"
   xmlns:rdf="http://www.w3.org/1999/02/22-rdf-syntax-ns#"
   xmlns:svg="http://www.w3.org/2000/svg"
   xmlns="http://www.w3.org/2000/svg"
   xmlns:sodipodi="http://sodipodi.sourceforge.net/DTD/sodipodi-0.dtd"
   xmlns:inkscape="http://www.inkscape.org/namespaces/inkscape"
   sodipodi:docname="star pattern bow 1.svg"
   inkscape:version="1.0 (4035a4fb49, 2020-05-01)"
   id="svg8"
   version="1.1"
   viewBox="0 0 210 297"
   height="297mm"
   width="210mm">
  <defs
     id="defs2" />
  <sodipodi:namedview
     inkscape:window-maximized="1"
     inkscape:window-y="-11"
     inkscape:window-x="-11"
     inkscape:window-height="1346"
     inkscape:window-width="2160"
     inkscape:snap-intersection-paths="false"
     inkscape:snap-midpoints="false"
     showgrid="false"
     inkscape:document-rotation="0"
     inkscape:current-layer="layer1"
     inkscape:document-units="mm"
     inkscape:cy="229.90749"
     inkscape:cx="260.48087"
     inkscape:zoom="2.0320828"
     inkscape:pageshadow="2"
     inkscape:pageopacity="0.0"
     borderopacity="1.0"
     bordercolor="#666666"
     pagecolor="#ffffff"
     id="base" />
  <metadata
     id="metadata5">
    <rdf:RDF>
      <cc:Work
         rdf:about="">
        <dc:format>image/svg+xml</dc:format>
        <dc:type
           rdf:resource="http://purl.org/dc/dcmitype/StillImage" />
        <dc:title></dc:title>
      </cc:Work>
    </rdf:RDF>
  </metadata>
  <g
     style="opacity:0.639535"
     id="layer1"
     inkscape:groupmode="layer"
     inkscape:label="Layer 1">
    <path
       d="M 7.305379,7.707327 4.123399,4.525348 m 0,3.18198 3.18198,-3.181981 M 1.71439,6.116337 H 9.714389 M 5.71439,2.116338 l -1e-6,7.999999"
       style="font-variation-settings:normal;vector-effect:none;fill:none;fill-opacity:1;stroke:#000000;stroke-width:0.264583px;stroke-linecap:butt;stroke-linejoin:miter;stroke-miterlimit:4;stroke-dasharray:none;stroke-dashoffset:0;stroke-opacity:1;stop-color:#000000"
       id="path875-3" />
    <path
       id="path875-3-0"
       style="font-variation-settings:normal;vector-effect:none;fill:none;fill-opacity:1;stroke:#000000;stroke-width:0.132291px;stroke-linecap:butt;stroke-linejoin:miter;stroke-miterlimit:4;stroke-dasharray:none;stroke-dashoffset:0;stroke-opacity:1;stop-color:#000000"
       d="m 14.509884,13.911835 -1.59099,-1.59099 m 0,1.590991 1.59099,-1.590991 m -2.795495,0.795495 h 4 m -2,-2 v 4" />
    <path
       id="path875-3-5"
       style="font-variation-settings:normal;vector-effect:none;fill:none;fill-opacity:1;stroke:#000000;stroke-width:0.264583px;stroke-linecap:butt;stroke-linejoin:miter;stroke-miterlimit:4;stroke-dasharray:none;stroke-dashoffset:0;stroke-opacity:1;stop-color:#000000"
       d="m 7.305379,21.70733 -3.18198,-3.181979 m 0,3.18198 3.18198,-3.181981 M 1.71439,20.11634 h 7.999999 m -3.999999,-3.999999 -1e-6,7.999999" />
    <path
       id="path875-3-56"
       style="font-variation-settings:normal;vector-effect:none;fill:none;fill-opacity:1;stroke:#000000;stroke-width:0.264583px;stroke-linecap:butt;stroke-linejoin:miter;stroke-miterlimit:4;stroke-dasharray:none;stroke-dashoffset:0;stroke-opacity:1;stop-color:#000000"
       d="M 7.305379,35.707329 4.123399,32.52535 m 0,3.18198 3.18198,-3.181981 M 1.71439,34.116339 H 9.714389 M 5.71439,30.11634 l -1e-6,7.999999" />
    <path
       id="path875-3-1"
       style="font-variation-settings:normal;vector-effect:none;fill:none;fill-opacity:1;stroke:#000000;stroke-width:0.264583px;stroke-linecap:butt;stroke-linejoin:miter;stroke-miterlimit:4;stroke-dasharray:none;stroke-dashoffset:0;stroke-opacity:1;stop-color:#000000"
       d="m 7.305378,49.707331 -3.18198,-3.181979 m 0,3.18198 3.18198,-3.181981 m -5.590989,1.59099 h 7.999999 m -3.999999,-3.999999 -1e-6,7.999999" />
    <path
       d="m 7.305378,63.707334 -3.18198,-3.181979 m 0,3.18198 3.18198,-3.181981 m -5.590989,1.59099 h 7.999999 m -3.999999,-3.999999 -1e-6,7.999999"
       style="font-variation-settings:normal;vector-effect:none;fill:none;fill-opacity:1;stroke:#000000;stroke-width:0.264583px;stroke-linecap:butt;stroke-linejoin:miter;stroke-miterlimit:4;stroke-dasharray:none;stroke-dashoffset:0;stroke-opacity:1;stop-color:#000000"
       id="path875-3-5-6" />
    <path
       d="m 7.305378,77.707332 -3.18198,-3.181979 m 0,3.18198 3.18198,-3.181981 m -5.590989,1.59099 h 7.999999 m -3.999999,-3.999999 -1e-6,7.999999"
       style="font-variation-settings:normal;vector-effect:none;fill:none;fill-opacity:1;stroke:#000000;stroke-width:0.264583px;stroke-linecap:butt;stroke-linejoin:miter;stroke-miterlimit:4;stroke-dasharray:none;stroke-dashoffset:0;stroke-opacity:1;stop-color:#000000"
       id="path875-3-56-8" />
    <path
       id="path875-3-56-8-8"
       style="font-variation-settings:normal;vector-effect:none;fill:none;fill-opacity:1;stroke:#000000;stroke-width:0.264583px;stroke-linecap:butt;stroke-linejoin:miter;stroke-miterlimit:4;stroke-dasharray:none;stroke-dashoffset:0;stroke-opacity:1;stop-color:#000000"
       d="M 7.305376,91.707339 4.123396,88.52536 m 0,3.18198 3.18198,-3.181981 m -5.590989,1.59099 h 7.999999 m -3.999999,-3.999999 -1e-6,7.999999" />
    <path
       id="path875-3-56-8-0"
       style="font-variation-settings:normal;vector-effect:none;fill:none;fill-opacity:1;stroke:#000000;stroke-width:0.264583px;stroke-linecap:butt;stroke-linejoin:miter;stroke-miterlimit:4;stroke-dasharray:none;stroke-dashoffset:0;stroke-opacity:1;stop-color:#000000"
       d="m 7.305374,105.70734 -3.18198,-3.18198 m 0,3.18198 3.18198,-3.18198 m -5.590989,1.59099 h 7.999999 m -3.999999,-4 -1e-6,8" />
    <path
       id="path875-3-56-8-5"
       style="font-variation-settings:normal;vector-effect:none;fill:none;fill-opacity:1;stroke:#000000;stroke-width:0.264583px;stroke-linecap:butt;stroke-linejoin:miter;stroke-miterlimit:4;stroke-dasharray:none;stroke-dashoffset:0;stroke-opacity:1;stop-color:#000000"
       d="m 7.305373,119.70735 -3.18198,-3.18198 m 0,3.18199 3.18198,-3.18199 m -5.590989,1.59099 h 7.999999 m -3.999999,-3.99999 -1e-6,7.99999" />
    <path
       d="m 14.509884,27.911836 -1.59099,-1.590989 m 0,1.590991 1.59099,-1.590991 m -2.795495,0.795495 h 4 m -2,-2 v 4"
       style="font-variation-settings:normal;vector-effect:none;fill:none;fill-opacity:1;stroke:#000000;stroke-width:0.132291px;stroke-linecap:butt;stroke-linejoin:miter;stroke-miterlimit:4;stroke-dasharray:none;stroke-dashoffset:0;stroke-opacity:1;stop-color:#000000"
       id="path875-3-0-0" />
    <path
       d="m 14.509884,41.911837 -1.59099,-1.59099 m 0,1.590991 1.59099,-1.590991 m -2.795495,0.795495 h 4 m -2,-2 v 4"
       style="font-variation-settings:normal;vector-effect:none;fill:none;fill-opacity:1;stroke:#000000;stroke-width:0.132291px;stroke-linecap:butt;stroke-linejoin:miter;stroke-miterlimit:4;stroke-dasharray:none;stroke-dashoffset:0;stroke-opacity:1;stop-color:#000000"
       id="path875-3-0-5" />
    <path
       d="m 14.509884,55.911839 -1.59099,-1.59099 m 0,1.590991 1.59099,-1.590991 m -2.795495,0.795495 h 4 m -2,-2 v 4"
       style="font-variation-settings:normal;vector-effect:none;fill:none;fill-opacity:1;stroke:#000000;stroke-width:0.132291px;stroke-linecap:butt;stroke-linejoin:miter;stroke-miterlimit:4;stroke-dasharray:none;stroke-dashoffset:0;stroke-opacity:1;stop-color:#000000"
       id="path875-3-0-3" />
    <path
       d="m 14.509885,69.911842 -1.59099,-1.59099 m 0,1.590991 1.59099,-1.590991 m -2.795495,0.795495 h 4 m -2,-2 v 4"
       style="font-variation-settings:normal;vector-effect:none;fill:none;fill-opacity:1;stroke:#000000;stroke-width:0.132291px;stroke-linecap:butt;stroke-linejoin:miter;stroke-miterlimit:4;stroke-dasharray:none;stroke-dashoffset:0;stroke-opacity:1;stop-color:#000000"
       id="path875-3-0-38" />
    <path
       id="path875-3-0-0-6"
       style="font-variation-settings:normal;vector-effect:none;fill:none;fill-opacity:1;stroke:#000000;stroke-width:0.132291px;stroke-linecap:butt;stroke-linejoin:miter;stroke-miterlimit:4;stroke-dasharray:none;stroke-dashoffset:0;stroke-opacity:1;stop-color:#000000"
       d="m 14.509885,83.911844 -1.59099,-1.59099 m 0,1.590991 1.59099,-1.590991 m -2.795495,0.795495 h 4 m -2,-2 v 4" />
    <path
       id="path875-3-0-5-7"
       style="font-variation-settings:normal;vector-effect:none;fill:none;fill-opacity:1;stroke:#000000;stroke-width:0.132291px;stroke-linecap:butt;stroke-linejoin:miter;stroke-miterlimit:4;stroke-dasharray:none;stroke-dashoffset:0;stroke-opacity:1;stop-color:#000000"
       d="m 14.509885,97.911844 -1.59099,-1.59099 m 0,1.590991 1.59099,-1.590991 m -2.795495,0.795495 h 4 m -2,-2 v 4" />
    <path
       id="path875-3-0-3-1"
       style="font-variation-settings:normal;vector-effect:none;fill:none;fill-opacity:1;stroke:#000000;stroke-width:0.132291px;stroke-linecap:butt;stroke-linejoin:miter;stroke-miterlimit:4;stroke-dasharray:none;stroke-dashoffset:0;stroke-opacity:1;stop-color:#000000"
       d="m 14.509885,111.91185 -1.59099,-1.59099 m 0,1.59099 1.59099,-1.59099 m -2.795495,0.79549 h 4 m -2,-2 v 4" />
    <path
       d="m 14.509885,125.91185 -1.59099,-1.59099 m 0,1.59099 1.59099,-1.59099 m -2.795495,0.7955 h 4 m -2,-2 v 4"
       style="font-variation-settings:normal;vector-effect:none;fill:none;fill-opacity:1;stroke:#000000;stroke-width:0.132291px;stroke-linecap:butt;stroke-linejoin:miter;stroke-miterlimit:4;stroke-dasharray:none;stroke-dashoffset:0;stroke-opacity:1;stop-color:#000000"
       id="path875-3-0-1" />
    <path
       id="path875-3-7"
       style="font-variation-settings:normal;vector-effect:none;fill:none;fill-opacity:1;stroke:#000000;stroke-width:0.264583px;stroke-linecap:butt;stroke-linejoin:miter;stroke-miterlimit:4;stroke-dasharray:none;stroke-dashoffset:0;stroke-opacity:1;stop-color:#000000"
       d="M 23.30538,7.707328 20.1234,4.525349 m 0,3.18198 3.18198,-3.181981 m -5.590989,1.59099 h 7.999999 m -3.999999,-3.999999 -10e-7,7.999999" />
    <path
       d="m 30.509885,13.911836 -1.59099,-1.59099 m 0,1.590991 1.59099,-1.590991 m -2.795495,0.795495 h 4 m -2,-2 v 4"
       style="font-variation-settings:normal;vector-effect:none;fill:none;fill-opacity:1;stroke:#000000;stroke-width:0.132291px;stroke-linecap:butt;stroke-linejoin:miter;stroke-miterlimit:4;stroke-dasharray:none;stroke-dashoffset:0;stroke-opacity:1;stop-color:#000000"
       id="path875-3-0-01" />
    <path
       d="M 23.30538,21.707331 20.1234,18.525352 m 0,3.18198 3.18198,-3.181981 m -5.590989,1.59099 h 7.999999 m -3.999999,-3.999999 -10e-7,7.999999"
       style="font-variation-settings:normal;vector-effect:none;fill:none;fill-opacity:1;stroke:#000000;stroke-width:0.264583px;stroke-linecap:butt;stroke-linejoin:miter;stroke-miterlimit:4;stroke-dasharray:none;stroke-dashoffset:0;stroke-opacity:1;stop-color:#000000"
       id="path875-3-5-2" />
    <path
       d="M 23.30538,35.70733 20.1234,32.525351 m 0,3.18198 3.18198,-3.181981 m -5.590989,1.59099 h 7.999999 m -3.999999,-3.999999 -10e-7,7.999999"
       style="font-variation-settings:normal;vector-effect:none;fill:none;fill-opacity:1;stroke:#000000;stroke-width:0.264583px;stroke-linecap:butt;stroke-linejoin:miter;stroke-miterlimit:4;stroke-dasharray:none;stroke-dashoffset:0;stroke-opacity:1;stop-color:#000000"
       id="path875-3-56-3" />
    <path
       d="m 23.305379,49.707332 -3.18198,-3.181979 m 0,3.18198 3.18198,-3.181981 m -5.590989,1.59099 h 7.999999 m -3.999999,-3.999999 -1e-6,7.999999"
       style="font-variation-settings:normal;vector-effect:none;fill:none;fill-opacity:1;stroke:#000000;stroke-width:0.264583px;stroke-linecap:butt;stroke-linejoin:miter;stroke-miterlimit:4;stroke-dasharray:none;stroke-dashoffset:0;stroke-opacity:1;stop-color:#000000"
       id="path875-3-1-8" />
    <path
       id="path875-3-5-6-4"
       style="font-variation-settings:normal;vector-effect:none;fill:none;fill-opacity:1;stroke:#000000;stroke-width:0.264583px;stroke-linecap:butt;stroke-linejoin:miter;stroke-miterlimit:4;stroke-dasharray:none;stroke-dashoffset:0;stroke-opacity:1;stop-color:#000000"
       d="m 23.305379,63.707335 -3.18198,-3.181979 m 0,3.18198 3.18198,-3.181981 m -5.590989,1.59099 h 7.999999 m -3.999999,-3.999999 -1e-6,7.999999" />
    <path
       id="path875-3-56-8-2"
       style="font-variation-settings:normal;vector-effect:none;fill:none;fill-opacity:1;stroke:#000000;stroke-width:0.264583px;stroke-linecap:butt;stroke-linejoin:miter;stroke-miterlimit:4;stroke-dasharray:none;stroke-dashoffset:0;stroke-opacity:1;stop-color:#000000"
       d="m 23.305379,77.70733 -3.18198,-3.181979 m 0,3.18198 3.18198,-3.181981 m -5.590989,1.59099 h 7.999999 m -3.999999,-3.999999 -1e-6,7.999999" />
    <path
       d="m 23.305377,91.70734 -3.18198,-3.181979 m 0,3.18198 3.18198,-3.181981 m -5.590989,1.59099 h 7.999999 m -3.999999,-3.999999 -1e-6,7.999999"
       style="font-variation-settings:normal;vector-effect:none;fill:none;fill-opacity:1;stroke:#000000;stroke-width:0.264583px;stroke-linecap:butt;stroke-linejoin:miter;stroke-miterlimit:4;stroke-dasharray:none;stroke-dashoffset:0;stroke-opacity:1;stop-color:#000000"
       id="path875-3-56-8-8-7" />
    <path
       d="m 23.305375,105.70734 -3.18198,-3.18198 m 0,3.18198 3.18198,-3.18198 m -5.590989,1.59099 h 7.999999 m -3.999999,-4 -1e-6,8"
       style="font-variation-settings:normal;vector-effect:none;fill:none;fill-opacity:1;stroke:#000000;stroke-width:0.264583px;stroke-linecap:butt;stroke-linejoin:miter;stroke-miterlimit:4;stroke-dasharray:none;stroke-dashoffset:0;stroke-opacity:1;stop-color:#000000"
       id="path875-3-56-8-0-7" />
    <path
       d="m 23.305374,119.70735 -3.18198,-3.18198 m 0,3.18198 3.18198,-3.18198 m -5.590989,1.59099 h 7.999999 m -3.999999,-4 -1e-6,8"
       style="font-variation-settings:normal;vector-effect:none;fill:none;fill-opacity:1;stroke:#000000;stroke-width:0.264583px;stroke-linecap:butt;stroke-linejoin:miter;stroke-miterlimit:4;stroke-dasharray:none;stroke-dashoffset:0;stroke-opacity:1;stop-color:#000000"
       id="path875-3-56-8-5-5" />
    <path
       id="path875-3-0-0-4"
       style="font-variation-settings:normal;vector-effect:none;fill:none;fill-opacity:1;stroke:#000000;stroke-width:0.132291px;stroke-linecap:butt;stroke-linejoin:miter;stroke-miterlimit:4;stroke-dasharray:none;stroke-dashoffset:0;stroke-opacity:1;stop-color:#000000"
       d="m 30.509885,27.911837 -1.59099,-1.59099 m 0,1.590991 1.59099,-1.590991 m -2.795495,0.795495 h 4 m -2,-2 v 4" />
    <path
       id="path875-3-0-5-5"
       style="font-variation-settings:normal;vector-effect:none;fill:none;fill-opacity:1;stroke:#000000;stroke-width:0.132291px;stroke-linecap:butt;stroke-linejoin:miter;stroke-miterlimit:4;stroke-dasharray:none;stroke-dashoffset:0;stroke-opacity:1;stop-color:#000000"
       d="m 30.509885,41.911837 -1.59099,-1.59099 m 0,1.590991 1.59099,-1.590991 m -2.795495,0.795495 h 4 m -2,-2 v 4" />
    <path
       id="path875-3-0-3-9"
       style="font-variation-settings:normal;vector-effect:none;fill:none;fill-opacity:1;stroke:#000000;stroke-width:0.132291px;stroke-linecap:butt;stroke-linejoin:miter;stroke-miterlimit:4;stroke-dasharray:none;stroke-dashoffset:0;stroke-opacity:1;stop-color:#000000"
       d="m 30.509885,55.91184 -1.59099,-1.59099 m 0,1.590991 1.59099,-1.590991 m -2.795495,0.795495 h 4 m -2,-2 v 4" />
    <path
       id="path875-3-0-38-8"
       style="font-variation-settings:normal;vector-effect:none;fill:none;fill-opacity:1;stroke:#000000;stroke-width:0.132291px;stroke-linecap:butt;stroke-linejoin:miter;stroke-miterlimit:4;stroke-dasharray:none;stroke-dashoffset:0;stroke-opacity:1;stop-color:#000000"
       d="m 30.509886,69.911844 -1.59099,-1.59099 m 0,1.590991 1.59099,-1.590991 m -2.795495,0.795495 h 4 m -2,-2 v 4" />
    <path
       d="m 30.509886,83.911844 -1.59099,-1.59099 m 0,1.590991 1.59099,-1.590991 m -2.795495,0.795495 h 4 m -2,-2 v 4"
       style="font-variation-settings:normal;vector-effect:none;fill:none;fill-opacity:1;stroke:#000000;stroke-width:0.132291px;stroke-linecap:butt;stroke-linejoin:miter;stroke-miterlimit:4;stroke-dasharray:none;stroke-dashoffset:0;stroke-opacity:1;stop-color:#000000"
       id="path875-3-0-0-6-1" />
    <path
       d="m 30.509886,97.911844 -1.59099,-1.59099 m 0,1.590991 1.59099,-1.590991 m -2.795495,0.795495 h 4 m -2,-2 v 4"
       style="font-variation-settings:normal;vector-effect:none;fill:none;fill-opacity:1;stroke:#000000;stroke-width:0.132291px;stroke-linecap:butt;stroke-linejoin:miter;stroke-miterlimit:4;stroke-dasharray:none;stroke-dashoffset:0;stroke-opacity:1;stop-color:#000000"
       id="path875-3-0-5-7-7" />
    <path
       d="m 30.509886,111.91184 -1.59099,-1.59099 m 0,1.591 1.59099,-1.591 m -2.795495,0.7955 h 4 m -2,-2 v 4"
       style="font-variation-settings:normal;vector-effect:none;fill:none;fill-opacity:1;stroke:#000000;stroke-width:0.132291px;stroke-linecap:butt;stroke-linejoin:miter;stroke-miterlimit:4;stroke-dasharray:none;stroke-dashoffset:0;stroke-opacity:1;stop-color:#000000"
       id="path875-3-0-3-1-7" />
    <path
       id="path875-3-0-1-6"
       style="font-variation-settings:normal;vector-effect:none;fill:none;fill-opacity:1;stroke:#000000;stroke-width:0.132291px;stroke-linecap:butt;stroke-linejoin:miter;stroke-miterlimit:4;stroke-dasharray:none;stroke-dashoffset:0;stroke-opacity:1;stop-color:#000000"
       d="m 30.509886,125.91185 -1.59099,-1.59099 m 0,1.591 1.59099,-1.591 m -2.795495,0.7955 h 4 m -2,-2 v 4" />
  </g>
</svg>
