<?xml version="1.0" encoding="UTF-8" standalone="no"?>
<svg
   xmlns:dc="http://purl.org/dc/elements/1.1/"
   xmlns:cc="http://creativecommons.org/ns#"
   xmlns:rdf="http://www.w3.org/1999/02/22-rdf-syntax-ns#"
   xmlns:svg="http://www.w3.org/2000/svg"
   xmlns="http://www.w3.org/2000/svg"
   xmlns:sodipodi="http://sodipodi.sourceforge.net/DTD/sodipodi-0.dtd"
   xmlns:inkscape="http://www.inkscape.org/namespaces/inkscape"
   width="210mm"
   height="297mm"
   viewBox="0 0 210 297"
   version="1.1"
   id="svg8"
   inkscape:version="1.0 (4035a4fb49, 2020-05-01)"
   sodipodi:docname="tardis police box - plain.svg">
  <defs
     id="defs2">
    <rect
       x="34.77381"
       y="187.47619"
       width="36.380208"
       height="20.032738"
       id="rect879" />
    <rect
       x="41.860863"
       y="192.1064"
       width="29.198661"
       height="12.37872"
       id="rect873" />
    <rect
       x="50.081845"
       y="166.87649"
       width="109.6131"
       height="32.505952"
       id="rect867" />
    <inkscape:perspective
       sodipodi:type="inkscape:persp3d"
       inkscape:vp_x="0 : 148.5 : 1"
       inkscape:vp_y="0 : 1000 : 0"
       inkscape:vp_z="210 : 148.5 : 1"
       inkscape:persp3d-origin="105 : 99 : 1"
       id="perspective835" />
  </defs>
  <sodipodi:namedview
     id="base"
     pagecolor="#ffffff"
     bordercolor="#666666"
     borderopacity="1.0"
     inkscape:pageopacity="0.0"
     inkscape:pageshadow="2"
     inkscape:zoom="2.8"
     inkscape:cx="384.89689"
     inkscape:cy="721.48147"
     inkscape:document-units="mm"
     inkscape:current-layer="layer1"
     inkscape:document-rotation="0"
     showgrid="false"
     inkscape:window-width="2160"
     inkscape:window-height="1346"
     inkscape:window-x="-11"
     inkscape:window-y="-11"
     inkscape:window-maximized="1" />
  <metadata
     id="metadata5">
    <rdf:RDF>
      <cc:Work
         rdf:about="">
        <dc:format>image/svg+xml</dc:format>
        <dc:type
           rdf:resource="http://purl.org/dc/dcmitype/StillImage" />
        <dc:title></dc:title>
      </cc:Work>
    </rdf:RDF>
  </metadata>
  <g
     inkscape:label="Layer 1"
     inkscape:groupmode="layer"
     id="layer1">
    <g
       style="font-style:normal;font-variant:normal;font-weight:normal;font-stretch:normal;font-size:10.5833px;line-height:1.25;font-family:'Gill Sans MT';-inkscape-font-specification:'Gill Sans MT';white-space:pre;shape-inside:url(#rect867);fill:#000000;fill-opacity:1;stroke:none"
       id="text865"
       aria-label="POLICE        BOX">
      <path
         id="path857"
         style="font-style:normal;font-variant:normal;font-weight:normal;font-stretch:normal;font-family:'Gill Sans MT';-inkscape-font-specification:'Gill Sans MT'"
         d="m 50.821002,176.14015 v -7.22951 h 2.289259 q 1.033525,0 1.648472,0.5581 0.614948,0.5581 0.614948,1.49861 0,0.63045 -0.315225,1.11621 -0.315225,0.48576 -0.862994,0.70796 -0.547768,0.21704 -1.570958,0.21704 h -0.764809 v 3.13159 z m 2.108392,-6.30968 h -1.069699 v 2.25826 h 1.13171 q 0.630451,0 0.971514,-0.29456 0.341063,-0.29972 0.341063,-0.85266 0,-1.11104 -1.374588,-1.11104 z" />
      <path
         id="path859"
         style="font-style:normal;font-variant:normal;font-weight:normal;font-stretch:normal;font-family:'Gill Sans MT';-inkscape-font-specification:'Gill Sans MT'"
         d="m 59.81784,168.81762 q 1.674311,0 2.785351,1.05936 1.116207,1.05937 1.116207,2.65616 0,1.5968 -1.126542,2.64583 -1.121375,1.04386 -2.83186,1.04386 -1.63297,0 -2.723339,-1.04386 -1.085202,-1.04903 -1.085202,-2.62516 0,-1.61746 1.095537,-2.67683 1.095537,-1.05936 2.769848,-1.05936 z m 0.04134,0.98185 q -1.24023,0 -2.041212,0.77514 -0.795815,0.77515 -0.795815,1.9792 0,1.16789 0.800982,1.94303 0.800982,0.77514 2.005039,0.77514 1.209225,0 2.015375,-0.79064 0.811317,-0.79065 0.811317,-1.96887 0,-1.14721 -0.811317,-1.92752 -0.80615,-0.78548 -1.984369,-0.78548 z" />
      <path
         id="path861"
         style="font-style:normal;font-variant:normal;font-weight:normal;font-stretch:normal;font-family:'Gill Sans MT';-inkscape-font-specification:'Gill Sans MT'"
         d="m 64.995802,168.92097 h 1.033525 v 6.27867 h 3.250438 v 0.94051 h -4.283963 z" />
      <path
         id="path863"
         style="font-style:normal;font-variant:normal;font-weight:normal;font-stretch:normal;font-family:'Gill Sans MT';-inkscape-font-specification:'Gill Sans MT'"
         d="m 70.194434,168.92097 h 1.033526 v 7.21918 h -1.033526 z" />
      <path
         id="path865"
         style="font-style:normal;font-variant:normal;font-weight:normal;font-stretch:normal;font-family:'Gill Sans MT';-inkscape-font-specification:'Gill Sans MT'"
         d="m 79.051746,174.46583 v 1.13688 q -1.136878,0.62012 -2.625154,0.62012 -1.209225,0 -2.051548,-0.48576 -0.842323,-0.48576 -1.333248,-1.33841 -0.490924,-0.85266 -0.490924,-1.84485 0,-1.57612 1.121375,-2.65099 1.126542,-1.07487 2.775015,-1.07487 1.136878,0 2.52697,0.59428 v 1.11104 q -1.266069,-0.72347 -2.475293,-0.72347 -1.240231,0 -2.061883,0.78548 -0.816485,0.78031 -0.816485,1.95853 0,1.18856 0.806149,1.95337 0.80615,0.7648 2.061883,0.7648 1.312578,0 2.563143,-0.80615 z" />
      <path
         id="path867"
         style="font-style:normal;font-variant:normal;font-weight:normal;font-stretch:normal;font-family:'Gill Sans MT';-inkscape-font-specification:'Gill Sans MT'"
         d="m 80.333319,168.92097 h 4.09276 v 0.91984 h -3.059235 v 2.20141 h 2.955883 v 0.925 h -2.955883 v 2.24275 h 3.15742 v 0.91984 h -4.190945 z" />
      <path
         id="path869"
         style="font-style:normal;font-variant:normal;font-weight:normal;font-stretch:normal;font-family:'Gill Sans MT';-inkscape-font-specification:'Gill Sans MT'"
         d="m 111.55095,176.14015 h -2.44429 v -7.21918 h 1.89135 q 0.894,0 1.39526,0.24288 0.50126,0.23771 0.76481,0.66146 0.26355,0.41857 0.26355,0.97151 0,1.06453 -1.1007,1.52445 0.79064,0.14986 1.25573,0.65112 0.47025,0.50126 0.47025,1.19889 0,0.55294 -0.28422,0.98702 -0.28421,0.43408 -0.83715,0.70796 -0.54777,0.27389 -1.37459,0.27389 z m -0.52193,-6.29934 h -0.88883 v 2.1704 h 0.68729 q 0.82682,0 1.17305,-0.31522 0.3514,-0.31523 0.3514,-0.81649 0,-1.03869 -1.32291,-1.03869 z m 0.0775,3.09024 h -0.96634 v 2.28926 h 1.01802 q 0.84749,0 1.14721,-0.12919 0.30489,-0.13436 0.48576,-0.41341 0.18604,-0.27905 0.18604,-0.59945 0,-0.33073 -0.19637,-0.60461 -0.19121,-0.27388 -0.54777,-0.40824 -0.35657,-0.13436 -1.12655,-0.13436 z" />
      <path
         id="path871"
         style="font-style:normal;font-variant:normal;font-weight:normal;font-stretch:normal;font-family:'Gill Sans MT';-inkscape-font-specification:'Gill Sans MT'"
         d="m 118.60476,168.81762 q 1.67431,0 2.78535,1.05936 1.11621,1.05937 1.11621,2.65616 0,1.5968 -1.12654,2.64583 -1.12138,1.04386 -2.83186,1.04386 -1.63297,0 -2.72334,-1.04386 -1.0852,-1.04903 -1.0852,-2.62516 0,-1.61746 1.09553,-2.67683 1.09554,-1.05936 2.76985,-1.05936 z m 0.0413,0.98185 q -1.24023,0 -2.04121,0.77514 -0.79582,0.77515 -0.79582,1.9792 0,1.16789 0.80099,1.94303 0.80098,0.77514 2.00504,0.77514 1.20922,0 2.01537,-0.79064 0.81132,-0.79065 0.81132,-1.96887 0,-1.14721 -0.81132,-1.92752 -0.80615,-0.78548 -1.98437,-0.78548 z" />
      <path
         id="path873"
         style="font-style:normal;font-variant:normal;font-weight:normal;font-stretch:normal;font-family:'Gill Sans MT';-inkscape-font-specification:'Gill Sans MT'"
         d="m 128.17004,168.92097 h 1.25057 l -2.87837,3.48298 3.07991,3.7362 h -1.25057 l -2.45462,-2.98689 -2.48563,2.98689 h -1.2609 l 3.11091,-3.7362 -2.8887,-3.48298 h 1.2609 l 2.26342,2.75435 z" />
    </g>
    <g
       style="font-style:normal;font-weight:normal;font-size:4.93889px;line-height:0.85;font-family:sans-serif;text-align:center;white-space:pre;shape-inside:url(#rect873);fill:#000000;fill-opacity:1;stroke:none"
       id="text871"
       transform="translate(40.348958,-23.056548)"
       aria-label="PUBLIC
CALL">
      <path
         id="path876"
         style="font-size:4.93889px;text-align:center;text-anchor:middle"
         d="m 50.156124,193.11797 q 0,0.23875 -0.0844,0.44373 -0.08199,0.20257 -0.231511,0.35209 -0.18569,0.18569 -0.438905,0.27974 -0.253214,0.0916 -0.639065,0.0916 h -0.47749 v 1.33842 h -0.477491 v -3.59082 h 0.974273 q 0.32315,0 0.547426,0.0555 0.224276,0.0531 0.397909,0.16881 0.204983,0.13746 0.315915,0.34244 0.113344,0.20499 0.113344,0.51849 z m -0.496783,0.0121 q 0,-0.18569 -0.06511,-0.32315 -0.06511,-0.13746 -0.197749,-0.22428 -0.115755,-0.0748 -0.265272,-0.10611 -0.147106,-0.0338 -0.373793,-0.0338 h -0.472667 v 1.43489 h 0.402731 q 0.289388,0 0.470256,-0.0507 0.180867,-0.053 0.294211,-0.1664 0.113344,-0.11575 0.159164,-0.24356 0.04823,-0.12782 0.04823,-0.28698 z" />
      <path
         id="path878"
         style="font-size:4.93889px;text-align:center;text-anchor:middle"
         d="m 53.491321,194.18147 q 0,0.39068 -0.08682,0.68248 -0.08441,0.28938 -0.279742,0.48231 -0.185691,0.18328 -0.434082,0.26768 -0.248391,0.0844 -0.578776,0.0844 -0.33762,0 -0.588423,-0.0892 -0.250803,-0.0892 -0.422024,-0.26286 -0.195337,-0.19775 -0.282153,-0.47749 -0.0844,-0.27974 -0.0844,-0.6873 v -2.1487 h 0.47749 v 2.17282 q 0,0.2918 0.03858,0.46061 0.041,0.16881 0.135048,0.30627 0.106109,0.15675 0.286977,0.23633 0.183279,0.0796 0.438905,0.0796 0.258038,0 0.438905,-0.0772 0.180868,-0.0796 0.289388,-0.23874 0.09405,-0.13746 0.132636,-0.31351 0.041,-0.17845 0.041,-0.44131 v -2.18488 h 0.47749 z" />
      <path
         id="path880"
         style="font-size:4.93889px;text-align:center;text-anchor:middle"
         d="m 57.113496,194.51909 q 0,0.26769 -0.101286,0.47267 -0.101286,0.20498 -0.272507,0.33762 -0.202572,0.15916 -0.44614,0.22669 -0.241157,0.0675 -0.61495,0.0675 h -1.273308 v -3.59082 h 1.063502 q 0.393085,0 0.588422,0.0289 0.195337,0.0289 0.373793,0.12058 0.197749,0.1037 0.286977,0.26769 0.08923,0.16157 0.08923,0.38826 0,0.25563 -0.130225,0.43649 -0.130225,0.17846 -0.347266,0.28698 v 0.0193 q 0.364147,0.0748 0.573953,0.32074 0.209807,0.24357 0.209807,0.61736 z m -0.803052,-1.61816 q 0,-0.13022 -0.04341,-0.21945 -0.04341,-0.0892 -0.13987,-0.1447 -0.113344,-0.0651 -0.274919,-0.0796 -0.161575,-0.0169 -0.40032,-0.0169 h -0.56913 v 1.03697 h 0.617361 q 0.224276,0 0.356912,-0.0217 0.132636,-0.0241 0.24598,-0.0965 0.113344,-0.0724 0.159163,-0.18569 0.04823,-0.11576 0.04823,-0.27251 z m 0.306269,1.63745 q 0,-0.21704 -0.06511,-0.34485 -0.06511,-0.12781 -0.236333,-0.21704 -0.115755,-0.0603 -0.282154,-0.0772 -0.163986,-0.0193 -0.40032,-0.0193 h -0.749997 v 1.336 h 0.63183 q 0.313504,0 0.513664,-0.0314 0.20016,-0.0338 0.327973,-0.12057 0.135048,-0.0941 0.197749,-0.21463 0.0627,-0.12058 0.0627,-0.3111 z" />
      <path
         id="path882"
         style="font-size:4.93889px;text-align:center;text-anchor:middle"
         d="m 60.062842,195.62359 h -2.271696 v -3.59082 h 0.47749 v 3.16638 h 1.794206 z" />
      <path
         id="path884"
         style="font-size:4.93889px;text-align:center;text-anchor:middle"
         d="m 61.806406,195.62359 h -1.418001 v -0.36656 h 0.470255 v -2.85771 h -0.470255 v -0.36655 h 1.418001 v 0.36655 h -0.470255 v 2.85771 h 0.470255 z" />
      <path
         id="path886"
         style="font-size:4.93889px;text-align:center;text-anchor:middle"
         d="m 65.397229,195.36314 q -0.132636,0.0579 -0.241157,0.10852 -0.106109,0.0506 -0.279741,0.10611 -0.147106,0.0458 -0.320739,0.0772 -0.171221,0.0338 -0.378616,0.0338 -0.390674,0 -0.711412,-0.10852 -0.318327,-0.11093 -0.554661,-0.34485 -0.23151,-0.2291 -0.361735,-0.58119 -0.130225,-0.3545 -0.130225,-0.82234 0,-0.44373 0.125402,-0.79341 0.125401,-0.34968 0.361735,-0.59083 0.229099,-0.23393 0.552249,-0.35692 0.325562,-0.12299 0.721059,-0.12299 0.289388,0 0.576364,0.0699 0.289388,0.0699 0.641477,0.24598 v 0.56672 h -0.03617 q -0.296623,-0.24839 -0.588423,-0.36174 -0.291799,-0.11334 -0.624596,-0.11334 -0.272507,0 -0.491959,0.0892 -0.217042,0.0868 -0.388263,0.2725 -0.166398,0.18087 -0.260449,0.4582 -0.09164,0.27492 -0.09164,0.63666 0,0.37861 0.101286,0.65112 0.103698,0.27251 0.265273,0.44373 0.168809,0.17845 0.393085,0.26527 0.226687,0.0844 0.47749,0.0844 0.344855,0 0.6463,-0.11816 0.301446,-0.11817 0.564307,-0.3545 h 0.03376 z" />
      <path
         id="path888"
         style="font-size:4.93889px;text-align:center;text-anchor:middle"
         d="m 53.551611,199.5612 q -0.132637,0.0579 -0.241157,0.10852 -0.106109,0.0506 -0.279742,0.10611 -0.147105,0.0458 -0.320738,0.0772 -0.171222,0.0338 -0.378616,0.0338 -0.390674,0 -0.711413,-0.10852 -0.318327,-0.11093 -0.55466,-0.34485 -0.231511,-0.2291 -0.361735,-0.58119 -0.130225,-0.3545 -0.130225,-0.82235 0,-0.44372 0.125401,-0.7934 0.125402,-0.34968 0.361736,-0.59084 0.229098,-0.23392 0.552249,-0.35691 0.325561,-0.12299 0.721058,-0.12299 0.289388,0 0.576365,0.0699 0.289388,0.0699 0.641477,0.24598 v 0.56672 h -0.03617 q -0.296623,-0.24839 -0.588422,-0.36174 -0.2918,-0.11334 -0.624596,-0.11334 -0.272507,0 -0.49196,0.0892 -0.217041,0.0868 -0.388262,0.2725 -0.166398,0.18087 -0.26045,0.4582 -0.09164,0.27492 -0.09164,0.63665 0,0.37862 0.101286,0.65113 0.103697,0.2725 0.265272,0.44373 0.16881,0.17845 0.393086,0.26527 0.226687,0.0844 0.47749,0.0844 0.344854,0 0.6463,-0.11816 0.301446,-0.11817 0.564307,-0.3545 h 0.03376 z" />
      <path
         id="path890"
         style="font-size:4.93889px;text-align:center;text-anchor:middle"
         d="m 57.062853,199.82165 h -0.508841 l -0.352089,-1.0008 h -1.553049 l -0.352089,1.0008 H 53.81206 l 1.307069,-3.59082 h 0.636654 z m -1.008035,-1.41077 -0.62942,-1.76285 -0.63183,1.76285 z" />
      <path
         id="path892"
         style="font-size:4.93889px;text-align:center;text-anchor:middle"
         d="m 59.879563,199.82165 h -2.271696 v -3.59082 h 0.47749 v 3.16638 h 1.794206 z" />
      <path
         id="path894"
         style="font-size:4.93889px;text-align:center;text-anchor:middle"
         d="m 62.62875,199.82165 h -2.271697 v -3.59082 h 0.47749 v 3.16638 h 1.794207 z" />
    </g>
    <text
       xml:space="preserve"
       id="text877"
       style="fill:black;fill-opacity:1;line-height:1.25;stroke:none;font-family:sans-serif;font-style:normal;font-weight:normal;font-size:10.58333333px;white-space:pre;shape-inside:url(#rect879);" />
  </g>
</svg>
