  0
SECTION
  2
HEADER
  9
$ACADVER
  1
AC1006
  9
$EXTMIN
 10
0.000000
 20
0.000000
 30
0.000000
  9
$EXTMAX
 10
4000.000000
 20
3200.000000
 30
0.000000
  0
ENDSEC
  0
SECTION
  2
ENTITIES
  0
POLYLINE
  8
0
 66
1
 70
1
  0
VERTEX
  8
0
 10
2263.801058
 20
3140.972583
 42
0.051321
  0
VERTEX
  8
0
 10
2258.821655
 20
3139.596801
 42
0.037415
  0
VERTEX
  8
0
 10
2253.639987
 20
3137.113436
 42
0.036889
  0
VERTEX
  8
0
 10
2248.796625
 20
3133.832108
 42
0.044982
  0
VERTEX
  8
0
 10
2244.825945
 20
3130.064923
 42
0.089425
  0
VERTEX
  8
0
 10
2216.870434
 20
3083.786925
 42
0.024559
  0
VERTEX
  8
0
 10
2190.309716
 20
3002.530926
 42
0.024407
  0
VERTEX
  8
0
 10
2169.245958
 20
2907.450525
 42
0.025788
  0
VERTEX
  8
0
 10
2158.023603
 20
2812.500000
 42
0.012969
  0
VERTEX
  8
0
 10
2157.057618
 20
2788.450618
 42
0.010956
  0
VERTEX
  8
0
 10
2157.253719
 20
2762.988433
 42
0.010458
  0
VERTEX
  8
0
 10
2158.404955
 20
2740.223404
 42
0.043061
  0
VERTEX
  8
0
 10
2160.567883
 20
2726.605177
 42
0.071417
  0
VERTEX
  8
0
 10
2165.148404
 20
2715.339353
 42
0.071699
  0
VERTEX
  8
0
 10
2172.708628
 20
2705.834135
 42
0.071861
  0
VERTEX
  8
0
 10
2182.628341
 20
2698.867741
 42
0.072273
  0
VERTEX
  8
0
 10
2194.095079
 20
2695.010659
 42
0.027332
  0
VERTEX
  8
0
 10
2197.693746
 20
2694.556502
 42
0.001892
  0
VERTEX
  8
0
 10
2207.899805
 20
2693.870610
 42
0.002688
  0
VERTEX
  8
0
 10
2220.083283
 20
2693.163876
 42
0.002018
  0
VERTEX
  8
0
 10
2233.500000
 20
2692.512240
 42
0.000007
  0
VERTEX
  8
0
 10
2248.943337
 20
2691.824854
 42
0.000004
  0
VERTEX
  8
0
 10
2267.353125
 20
2691.005859
 42
0.000004
  0
VERTEX
  8
0
 10
2285.715424
 20
2690.189295
 42
0.000007
  0
VERTEX
  8
0
 10
2301.000000
 20
2689.509957
 42
0.000655
  0
VERTEX
  8
0
 10
2320.425333
 20
2688.672347
 42
0.000112
  0
VERTEX
  8
0
 10
2357.412500
 20
2687.134252
 42
0.000122
  0
VERTEX
  8
0
 10
2400.855311
 20
2685.348006
 42
0.000108
  0
VERTEX
  8
0
 10
2446.000000
 20
2683.512603
 42
-0.000164
  0
VERTEX
  8
0
 10
2603.566468
 20
2677.089195
 42
-0.000741
  0
VERTEX
  8
0
 10
2695.445749
 20
2673.177109
 42
-0.000093
  0
VERTEX
  8
0
 10
2762.640696
 20
2670.203694
 42
-0.127983
  0
VERTEX
  8
0
 10
2765.075915
 20
2669.453082
 42
-0.280084
  0
VERTEX
  8
0
 10
2765.998260
 20
2667.642029
 42
-0.104562
  0
VERTEX
  8
0
 10
2765.166910
 20
2664.788465
 42
-0.047112
  0
VERTEX
  8
0
 10
2762.314127
 20
2660.490780
 42
-0.011213
  0
VERTEX
  8
0
 10
2756.759089
 20
2653.930170
 42
-0.014044
  0
VERTEX
  8
0
 10
2724.076322
 20
2619.065078
 42
-0.003088
  0
VERTEX
  8
0
 10
2665.922811
 20
2561.139924
 42
-0.002364
  0
VERTEX
  8
0
 10
2582.299128
 20
2479.641810
 42
-0.000786
  0
VERTEX
  8
0
 10
2459.000000
 20
2360.981920
 42
0.000271
  0
VERTEX
  8
0
 10
2378.691670
 20
2283.854359
 42
0.000746
  0
VERTEX
  8
0
 10
2322.170523
 20
2229.350521
 42
0.000993
  0
VERTEX
  8
0
 10
2276.175458
 20
2184.687344
 42
0.001036
  0
VERTEX
  8
0
 10
2231.000000
 20
2140.462431
 42
-0.005685
  0
VERTEX
  8
0
 10
2207.944229
 20
2118.307818
 42
-0.034524
  0
VERTEX
  8
0
 10
2195.130691
 20
2107.837959
 42
-0.068795
  0
VERTEX
  8
0
 10
2185.375653
 20
2102.775702
 42
-0.084768
  0
VERTEX
  8
0
 10
2175.290879
 20
2101.021962
 42
-0.036627
  0
VERTEX
  8
0
 10
2169.845530
 20
2101.404712
 42
-0.066357
  0
VERTEX
  8
0
 10
2165.555223
 20
2102.619453
 42
-0.019138
  0
VERTEX
  8
0
 10
2159.248377
 20
2105.640421
 42
-0.000654
  0
VERTEX
  8
0
 10
2135.000000
 20
2118.458695
 42
0.003805
  0
VERTEX
  8
0
 10
2116.705867
 20
2127.982388
 42
0.002097
  0
VERTEX
  8
0
 10
2094.201184
 20
2139.362450
 42
0.002083
  0
VERTEX
  8
0
 10
2071.083721
 20
2150.810705
 42
0.003118
  0
VERTEX
  8
0
 10
2050.789033
 20
2160.599501
 42
0.017005
  0
VERTEX
  8
0
 10
1902.649370
 20
2224.839642
 42
0.020047
  0
VERTEX
  8
0
 10
1758.317154
 20
2275.097034
 42
0.021169
  0
VERTEX
  8
0
 10
1618.022416
 20
2311.317294
 42
0.024597
  0
VERTEX
  8
0
 10
1482.000000
 20
2333.427673
 42
0.005764
  0
VERTEX
  8
0
 10
1444.081940
 20
2337.248577
 42
0.008468
  0
VERTEX
  8
0
 10
1410.668768
 20
2339.657267
 42
0.008340
  0
VERTEX
  8
0
 10
1376.812371
 20
2340.956246
 42
0.005355
  0
VERTEX
  8
0
 10
1337.500000
 20
2341.387127
 42
0.003135
  0
VERTEX
  8
0
 10
1305.454680
 20
2341.194190
 42
0.007383
  0
VERTEX
  8
0
 10
1281.552407
 20
2340.547280
 42
0.007937
  0
VERTEX
  8
0
 10
1258.734290
 20
2339.229249
 42
0.004207
  0
VERTEX
  8
0
 10
1230.500000
 20
2336.909248
 42
0.020696
  0
VERTEX
  8
0
 10
1138.345200
 20
2324.693808
 42
0.021228
  0
VERTEX
  8
0
 10
1048.303316
 20
2304.972272
 42
0.021223
  0
VERTEX
  8
0
 10
960.238445
 20
2277.681252
 42
0.020665
  0
VERTEX
  8
0
 10
874.001251
 20
2242.808775
 42
0.008085
  0
VERTEX
  8
0
 10
853.352258
 20
2233.042958
 42
0.003672
  0
VERTEX
  8
0
 10
826.641521
 20
2219.632874
 42
0.003569
  0
VERTEX
  8
0
 10
800.742401
 20
2206.157172
 42
0.010998
  0
VERTEX
  8
0
 10
783.500000
 20
2196.537393
 42
0.028538
  0
VERTEX
  8
0
 10
719.505345
 20
2153.878793
 42
0.027873
  0
VERTEX
  8
0
 10
660.253492
 20
2103.896082
 42
0.027991
  0
VERTEX
  8
0
 10
607.169340
 20
2047.859924
 42
0.029395
  0
VERTEX
  8
0
 10
561.601176
 20
1987.116402
 42
0.029908
  0
VERTEX
  8
0
 10
522.708923
 20
1919.977041
 42
0.029850
  0
VERTEX
  8
0
 10
492.076869
 20
1848.634550
 42
0.029315
  0
VERTEX
  8
0
 10
469.704524
 20
1772.908816
 42
0.026681
  0
VERTEX
  8
0
 10
455.492799
 20
1692.671628
 42
0.016272
  0
VERTEX
  8
0
 10
451.743916
 20
1650.855631
 42
0.011544
  0
VERTEX
  8
0
 10
450.152963
 20
1603.783211
 42
0.011344
  0
VERTEX
  8
0
 10
450.731737
 20
1555.507964
 42
0.013464
  0
VERTEX
  8
0
 10
453.538580
 20
1510.000000
 42
0.033203
  0
VERTEX
  8
0
 10
471.075015
 20
1397.701231
 42
0.040578
  0
VERTEX
  8
0
 10
502.722534
 20
1296.256736
 42
0.042556
  0
VERTEX
  8
0
 10
548.732965
 20
1205.357845
 42
0.043804
  0
VERTEX
  8
0
 10
609.084239
 20
1124.500000
 42
0.025872
  0
VERTEX
  8
0
 10
651.852132
 20
1081.308332
 42
0.024113
  0
VERTEX
  8
0
 10
699.831805
 20
1041.678248
 42
0.023382
  0
VERTEX
  8
0
 10
752.908849
 20
1005.722806
 42
0.021088
  0
VERTEX
  8
0
 10
810.936228
 20
973.531939
 42
0.019625
  0
VERTEX
  8
0
 10
872.586173
 20
945.625072
 42
0.017534
  0
VERTEX
  8
0
 10
938.574046
 20
921.480868
 42
0.016482
  0
VERTEX
  8
0
 10
1010.094663
 20
900.703006
 42
0.013165
  0
VERTEX
  8
0
 10
1088.384801
 20
882.912477
 42
-0.002945
  0
VERTEX
  8
0
 10
1108.927198
 20
878.684002
 42
-0.031224
  0
VERTEX
  8
0
 10
1117.160216
 20
876.393701
 42
-0.073237
  0
VERTEX
  8
0
 10
1122.187876
 20
873.776469
 42
-0.056080
  0
VERTEX
  8
0
 10
1126.777267
 20
869.600898
 42
-0.057088
  0
VERTEX
  8
0
 10
1129.360901
 20
865.876434
 42
-0.060260
  0
VERTEX
  8
0
 10
1130.978958
 20
861.729993
 42
-0.032505
  0
VERTEX
  8
0
 10
1132.152646
 20
855.516484
 42
-0.005490
  0
VERTEX
  8
0
 10
1133.488652
 20
843.500000
 42
0.036475
  0
VERTEX
  8
0
 10
1154.699217
 20
721.880170
 42
0.035480
  0
VERTEX
  8
0
 10
1193.482670
 20
603.465662
 42
0.035481
  0
VERTEX
  8
0
 10
1248.617256
 20
491.727380
 42
0.036482
  0
VERTEX
  8
0
 10
1318.547583
 20
390.000000
 42
0.011221
  0
VERTEX
  8
0
 10
1339.228355
 20
365.327609
 42
0.008338
  0
VERTEX
  8
0
 10
1363.117255
 20
338.992463
 42
0.008388
  0
VERTEX
  8
0
 10
1387.627604
 20
313.724593
 42
0.012149
  0
VERTEX
  8
0
 10
1410.174435
 20
292.314554
 42
0.036343
  0
VERTEX
  8
0
 10
1501.624500
 20
220.959248
 42
0.038895
  0
VERTEX
  8
0
 10
1600.461827
 20
165.389571
 42
0.039891
  0
VERTEX
  8
0
 10
1704.264405
 20
126.945023
 42
0.042726
  0
VERTEX
  8
0
 10
1810.500000
 20
106.562430
 42
0.015526
  0
VERTEX
  8
0
 10
1847.532406
 20
103.850239
 42
0.012878
  0
VERTEX
  8
0
 10
1887.051654
 20
103.205905
 42
0.012520
  0
VERTEX
  8
0
 10
1927.792457
 20
104.611669
 42
0.012440
  0
VERTEX
  8
0
 10
1968.500000
 20
108.055917
 42
0.035225
  0
VERTEX
  8
0
 10
2060.695631
 20
124.804914
 42
0.036553
  0
VERTEX
  8
0
 10
2148.454897
 20
154.199697
 42
0.036685
  0
VERTEX
  8
0
 10
2230.708318
 20
195.941668
 42
0.036034
  0
VERTEX
  8
0
 10
2306.500000
 20
249.478719
 42
0.015504
  0
VERTEX
  8
0
 10
2336.055759
 20
275.298402
 42
0.012964
  0
VERTEX
  8
0
 10
2365.820902
 20
304.448776
 42
0.012869
  0
VERTEX
  8
0
 10
2394.288727
 20
335.366308
 42
0.014543
  0
VERTEX
  8
0
 10
2419.950537
 20
366.500000
 42
0.043839
  0
VERTEX
  8
0
 10
2500.422116
 20
491.318868
 42
0.036480
  0
VERTEX
  8
0
 10
2563.688239
 20
636.051280
 42
0.034726
  0
VERTEX
  8
0
 10
2607.893750
 20
795.937438
 42
0.031336
  0
VERTEX
  8
0
 10
2631.454558
 20
966.000000
 42
0.004911
  0
VERTEX
  8
0
 10
2633.227153
 20
993.151878
 42
0.005967
  0
VERTEX
  8
0
 10
2634.334333
 20
1018.625047
 42
0.004951
  0
VERTEX
  8
0
 10
2634.961265
 20
1047.642225
 42
0.002108
  0
VERTEX
  8
0
 10
2635.252065
 20
1086.500000
 42
0.002160
  0
VERTEX
  8
0
 10
2635.211982
 20
1124.544534
 42
0.007207
  0
VERTEX
  8
0
 10
2634.717812
 20
1149.514421
 42
0.009050
  0
VERTEX
  8
0
 10
2633.575642
 20
1171.332370
 42
0.005247
  0
VERTEX
  8
0
 10
2631.454150
 20
1197.500000
 42
0.014467
  0
VERTEX
  8
0
 10
2621.732248
 20
1277.909046
 42
0.012815
  0
VERTEX
  8
0
 10
2607.058030
 20
1360.961247
 42
0.012295
  0
VERTEX
  8
0
 10
2587.442097
 20
1446.628266
 42
0.010855
  0
VERTEX
  8
0
 10
2562.882838
 20
1534.888217
 42
0.009024
  0
VERTEX
  8
0
 10
2540.823864
 20
1603.480120
 42
0.009170
  0
VERTEX
  8
0
 10
2516.415024
 20
1670.863080
 42
0.009686
  0
VERTEX
  8
0
 10
2491.461585
 20
1732.399003
 42
0.016195
  0
VERTEX
  8
0
 10
2467.824505
 20
1783.000000
 42
-0.006302
  0
VERTEX
  8
0
 10
2458.243585
 20
1802.495079
 42
-0.025117
  0
VERTEX
  8
0
 10
2453.131914
 20
1814.791893
 42
-0.041100
  0
VERTEX
  8
0
 10
2450.681247
 20
1823.945845
 42
-0.061300
  0
VERTEX
  8
0
 10
2450.209806
 20
1832.210449
 42
-0.037349
  0
VERTEX
  8
0
 10
2451.004727
 20
1837.846082
 42
-0.042475
  0
VERTEX
  8
0
 10
2452.614048
 20
1843.054302
 42
-0.041134
  0
VERTEX
  8
0
 10
2455.132810
 20
1848.052236
 42
-0.031518
  0
VERTEX
  8
0
 10
2458.649055
 20
1853.061329
 42
-0.025857
  0
VERTEX
  8
0
 10
2460.741032
 20
1855.414221
 42
-0.001187
  0
VERTEX
  8
0
 10
2468.300035
 20
1863.042439
 42
-0.001973
  0
VERTEX
  8
0
 10
2477.332326
 20
1872.042958
 42
-0.001413
  0
VERTEX
  8
0
 10
2487.500000
 20
1882.038561
 42
0.000383
  0
VERTEX
  8
0
 10
2518.275949
 20
1912.169225
 42
0.000108
  0
VERTEX
  8
0
 10
2566.231783
 20
1959.211795
 42
0.000093
  0
VERTEX
  8
0
 10
2627.778011
 20
2019.634359
 42
0.000049
  0
VERTEX
  8
0
 10
2704.006840
 20
2094.513889
 42
-0.000223
  0
VERTEX
  8
0
 10
2757.366638
 20
2146.892666
 42
-0.000314
  0
VERTEX
  8
0
 10
2805.015720
 20
2193.565249
 42
-0.000347
  0
VERTEX
  8
0
 10
2848.441114
 20
2235.988286
 42
-0.000428
  0
VERTEX
  8
0
 10
2889.000000
 20
2275.488260
 42
-0.001261
  0
VERTEX
  8
0
 10
2897.341005
 20
2283.556775
 42
-0.000447
  0
VERTEX
  8
0
 10
2909.318750
 20
2295.064289
 42
-0.000443
  0
VERTEX
  8
0
 10
2922.496052
 20
2307.679234
 42
-0.000522
  0
VERTEX
  8
0
 10
2935.000000
 20
2319.603391
 42
-0.001804
  0
VERTEX
  8
0
 10
2975.385089
 20
2357.758772
 42
-0.006662
  0
VERTEX
  8
0
 10
3001.295925
 20
2381.421748
 42
-0.004432
  0
VERTEX
  8
0
 10
3019.887251
 20
2397.658599
 42
-0.179139
  0
VERTEX
  8
0
 10
3024.861915
 20
2399.500000
 42
0.000000
  0
VERTEX
  8
0
 10
3027.500000
 20
2399.500000
 42
0.000000
  0
VERTEX
  8
0
 10
3027.712047
 20
2385.000000
 42
-0.001211
  0
VERTEX
  8
0
 10
3027.834827
 20
2374.937254
 42
-0.000053
  0
VERTEX
  8
0
 10
3028.173233
 20
2339.950000
 42
-0.000090
  0
VERTEX
  8
0
 10
3028.562701
 20
2298.451168
 42
-0.000064
  0
VERTEX
  8
0
 10
3028.984271
 20
2252.000000
 42
0.000496
  0
VERTEX
  8
0
 10
3029.756976
 20
2174.259315
 42
0.001460
  0
VERTEX
  8
0
 10
3030.498004
 20
2120.769866
 42
0.001402
  0
VERTEX
  8
0
 10
3031.567914
 20
2066.128046
 42
0.000428
  0
VERTEX
  8
0
 10
3033.488445
 20
1983.500000
 42
0.001129
  0
VERTEX
  8
0
 10
3034.802439
 20
1933.651883
 42
0.008148
  0
VERTEX
  8
0
 10
3035.880734
 20
1909.656665
 42
0.016709
  0
VERTEX
  8
0
 10
3037.255810
 20
1895.167286
 42
0.048998
  0
VERTEX
  8
0
 10
3039.499613
 20
1885.406416
 42
0.054348
  0
VERTEX
  8
0
 10
3045.188971
 20
1873.081138
 42
0.074176
  0
VERTEX
  8
0
 10
3052.956812
 20
1863.652708
 42
0.072786
  0
VERTEX
  8
0
 10
3063.260514
 20
1856.779602
 42
0.050113
  0
VERTEX
  8
0
 10
3076.500000
 20
1852.054409
 42
0.036133
  0
VERTEX
  8
0
 10
3116.240470
 20
1845.215023
 42
0.015667
  0
VERTEX
  8
0
 10
3169.792838
 20
1841.628936
 42
0.013993
  0
VERTEX
  8
0
 10
3232.825993
 20
1841.153221
 42
0.010348
  0
VERTEX
  8
0
 10
3302.500000
 20
1844.020779
 42
0.004678
  0
VERTEX
  8
0
 10
3331.217808
 20
1846.068506
 42
0.003447
  0
VERTEX
  8
0
 10
3362.982142
 20
1848.852911
 42
0.003424
  0
VERTEX
  8
0
 10
3392.479732
 20
1851.847604
 42
0.009609
  0
VERTEX
  8
0
 10
3413.070272
 20
1854.481815
 42
0.064426
  0
VERTEX
  8
0
 10
3433.074387
 20
1860.128839
 42
0.118362
  0
VERTEX
  8
0
 10
3446.580901
 20
1870.173182
 42
0.119884
  0
VERTEX
  8
0
 10
3453.949490
 20
1885.154656
 42
0.067117
  0
VERTEX
  8
0
 10
3455.671555
 20
1905.500000
 42
0.019238
  0
VERTEX
  8
0
 10
3453.653367
 20
1928.358250
 42
0.007602
  0
VERTEX
  8
0
 10
3449.194371
 20
1959.606803
 42
0.006162
  0
VERTEX
  8
0
 10
3442.423473
 20
1999.225535
 42
0.003112
  0
VERTEX
  8
0
 10
3432.963643
 20
2049.000000
 42
-0.001993
  0
VERTEX
  8
0
 10
3418.320773
 20
2125.116901
 42
-0.005156
  0
VERTEX
  8
0
 10
3408.545032
 20
2180.164669
 42
-0.006516
  0
VERTEX
  8
0
 10
3401.319121
 20
2227.207463
 42
-0.005723
  0
VERTEX
  8
0
 10
3394.978254
 20
2276.500000
 42
-0.014301
  0
VERTEX
  8
0
 10
3384.625789
 20
2393.987014
 42
-0.012415
  0
VERTEX
  8
0
 10
3380.366019
 20
2517.555610
 42
-0.011613
  0
VERTEX
  8
0
 10
3382.157398
 20
2649.322597
 42
-0.009209
  0
VERTEX
  8
0
 10
3390.018735
 20
2791.500000
 42
-0.003346
  0
VERTEX
  8
0
 10
3391.719455
 20
2812.621730
 42
-0.004109
  0
VERTEX
  8
0
 10
3393.601383
 20
2832.318373
 42
-0.003738
  0
VERTEX
  8
0
 10
3395.952801
 20
2853.424804
 42
-0.002107
  0
VERTEX
  8
0
 10
3399.105160
 20
2879.000000
 42
0.007349
  0
VERTEX
  8
0
 10
3401.494681
 20
2900.216128
 42
0.014045
  0
VERTEX
  8
0
 10
3402.683203
 20
2917.322315
 42
0.017069
  0
VERTEX
  8
0
 10
3402.779132
 20
2930.751736
 42
0.048148
  0
VERTEX
  8
0
 10
3401.626890
 20
2940.055910
 42
0.060570
  0
VERTEX
  8
0
 10
3397.602583
 20
2951.417000
 42
0.091639
  0
VERTEX
  8
0
 10
3391.319623
 20
2959.782298
 42
0.082735
  0
VERTEX
  8
0
 10
3381.950121
 20
2965.904129
 42
0.041329
  0
VERTEX
  8
0
 10
3368.519099
 20
2970.520228
 42
0.038359
  0
VERTEX
  8
0
 10
3350.950560
 20
2973.567644
 42
0.017563
  0
VERTEX
  8
0
 10
3327.713038
 20
2974.962313
 42
0.007824
  0
VERTEX
  8
0
 10
3289.231315
 20
2975.315423
 42
0.000932
  0
VERTEX
  8
0
 10
3204.000000
 20
2974.604954
 42
-0.002000
  0
VERTEX
  8
0
 10
3144.208012
 20
2974.234315
 42
-0.004311
  0
VERTEX
  8
0
 10
3098.164900
 20
2974.530128
 42
-0.004898
  0
VERTEX
  8
0
 10
3055.998373
 20
2975.577886
 42
-0.003536
  0
VERTEX
  8
0
 10
3009.000000
 20
2977.539358
 42
-0.014063
  0
VERTEX
  8
0
 10
2852.794723
 20
2989.576441
 42
-0.017867
  0
VERTEX
  8
0
 10
2709.607604
 20
3009.866147
 42
-0.019159
  0
VERTEX
  8
0
 10
2577.342286
 20
3038.723069
 42
-0.022134
  0
VERTEX
  8
0
 10
2454.000000
 20
3076.523848
 42
-0.001814
  0
VERTEX
  8
0
 10
2433.695037
 20
3083.827121
 42
-0.003554
  0
VERTEX
  8
0
 10
2417.588619
 20
3089.816329
 42
-0.002935
  0
VERTEX
  8
0
 10
2399.711338
 20
3096.729412
 42
-0.000875
  0
VERTEX
  8
0
 10
2372.500000
 20
3107.490961
 42
0.001227
  0
VERTEX
  8
0
 10
2341.441906
 20
3119.748542
 42
0.003894
  0
VERTEX
  8
0
 10
2320.584815
 20
3127.734264
 42
0.005704
  0
VERTEX
  8
0
 10
2305.487110
 20
3133.184945
 42
0.013182
  0
VERTEX
  8
0
 10
2294.000000
 20
3136.848055
 42
0.010450
  0
VERTEX
  8
0
 10
2286.722003
 20
3138.795328
 42
0.009542
  0
VERTEX
  8
0
 10
2279.145612
 20
3140.501089
 42
0.007298
  0
VERTEX
  8
0
 10
2272.401091
 20
3141.782610
 42
0.070818
  0
VERTEX
  8
0
 10
2269.500000
 20
3141.874827
 42
0.010729
  0
VERTEX
  8
0
 10
2268.874985
 20
3141.792427
 42
0.001119
  0
VERTEX
  8
0
 10
2267.413436
 20
3141.564391
 42
0.001389
  0
VERTEX
  8
0
 10
2265.673581
 20
3141.283985
 42
0.001112
  0
SEQEND
  0
POLYLINE
  8
0
 66
1
 70
1
  0
VERTEX
  8
0
 10
1398.500000
 20
1953.969555
 42
-0.017315
  0
VERTEX
  8
0
 10
1541.158595
 20
1941.353857
 42
-0.023634
  0
VERTEX
  8
0
 10
1668.337302
 20
1919.511166
 42
-0.026175
  0
VERTEX
  8
0
 10
1781.158852
 20
1888.325047
 42
-0.033845
  0
VERTEX
  8
0
 10
1880.500000
 20
1847.526520
 42
-0.024925
  0
VERTEX
  8
0
 10
1940.955928
 20
1813.932456
 42
-0.027803
  0
VERTEX
  8
0
 10
1995.511469
 20
1775.589241
 42
-0.028517
  0
VERTEX
  8
0
 10
2044.237500
 20
1732.400157
 42
-0.029303
  0
VERTEX
  8
0
 10
2087.263643
 20
1684.317778
 42
-0.034498
  0
VERTEX
  8
0
 10
2131.504834
 20
1619.982574
 42
-0.031069
  0
VERTEX
  8
0
 10
2168.221214
 20
1547.935969
 42
-0.029235
  0
VERTEX
  8
0
 10
2197.614560
 20
1467.597815
 42
-0.023583
  0
VERTEX
  8
0
 10
2219.923090
 20
1378.422010
 42
-0.021050
  0
VERTEX
  8
0
 10
2235.624376
 20
1278.512921
 42
-0.016520
  0
VERTEX
  8
0
 10
2244.470746
 20
1169.196706
 42
-0.016545
  0
VERTEX
  8
0
 10
2246.071273
 20
1059.760503
 42
-0.021382
  0
VERTEX
  8
0
 10
2239.925546
 20
959.500000
 42
-0.030173
  0
VERTEX
  8
0
 10
2220.830433
 20
844.331191
 42
-0.041711
  0
VERTEX
  8
0
 10
2189.088277
 20
744.554765
 42
-0.047170
  0
VERTEX
  8
0
 10
2145.516825
 20
662.004326
 42
-0.064978
  0
VERTEX
  8
0
 10
2090.936072
 20
598.464332
 42
-0.046897
  0
VERTEX
  8
0
 10
2042.207100
 20
562.364696
 42
-0.049957
  0
VERTEX
  8
0
 10
1988.595209
 20
536.859617
 42
-0.048050
  0
VERTEX
  8
0
 10
1929.137523
 20
521.792039
 42
-0.038069
  0
VERTEX
  8
0
 10
1863.000000
 20
516.751612
 42
-0.011029
  0
VERTEX
  8
0
 10
1837.356026
 20
517.318279
 42
-0.014998
  0
VERTEX
  8
0
 10
1814.277159
 20
519.032581
 42
-0.015475
  0
VERTEX
  8
0
 10
1791.926436
 20
522.070318
 42
-0.013068
  0
VERTEX
  8
0
 10
1768.500000
 20
526.628348
 42
-0.058102
  0
VERTEX
  8
0
 10
1683.044678
 20
556.317392
 42
-0.059071
  0
VERTEX
  8
0
 10
1607.229917
 20
604.747127
 42
-0.057488
  0
VERTEX
  8
0
 10
1543.160518
 20
670.888433
 42
-0.050149
  0
VERTEX
  8
0
 10
1492.400039
 20
752.864726
 42
-0.028425
  0
VERTEX
  8
0
 10
1469.614228
 20
807.154997
 42
-0.025279
  0
VERTEX
  8
0
 10
1452.104781
 20
865.831454
 42
-0.024030
  0
VERTEX
  8
0
 10
1439.877018
 20
928.936544
 42
-0.020378
  0
VERTEX
  8
0
 10
1432.920910
 20
996.500000
 42
-0.014481
  0
VERTEX
  8
0
 10
1432.234054
 20
1017.378649
 42
-0.003109
  0
VERTEX
  8
0
 10
1432.317082
 20
1053.603029
 42
-0.002897
  0
VERTEX
  8
0
 10
1432.834034
 20
1089.741499
 42
-0.017918
  0
VERTEX
  8
0
 10
1433.872169
 20
1108.283299
 42
0.027180
  0
VERTEX
  8
0
 10
1434.231627
 20
1117.885700
 42
0.073103
  0
VERTEX
  8
0
 10
1433.126298
 20
1124.611943
 42
0.091415
  0
VERTEX
  8
0
 10
1430.331789
 20
1129.836714
 42
0.061509
  0
VERTEX
  8
0
 10
1425.482407
 20
1134.581217
 42
0.067404
  0
VERTEX
  8
0
 10
1422.856560
 20
1136.074228
 42
0.031031
  0
VERTEX
  8
0
 10
1419.115805
 20
1137.315333
 42
0.017291
  0
VERTEX
  8
0
 10
1413.269635
 20
1138.645578
 42
0.003501
  0
VERTEX
  8
0
 10
1402.802132
 20
1140.573627
 42
-0.018120
  0
VERTEX
  8
0
 10
1346.009667
 20
1152.760896
 42
-0.019614
  0
VERTEX
  8
0
 10
1291.751535
 20
1168.766109
 42
-0.019426
  0
VERTEX
  8
0
 10
1238.444326
 20
1189.130920
 42
-0.017084
  0
VERTEX
  8
0
 10
1184.500000
 20
1214.390482
 42
-0.043428
  0
VERTEX
  8
0
 10
1067.901278
 20
1287.312611
 42
-0.053367
  0
VERTEX
  8
0
 10
974.221047
 20
1374.993076
 42
-0.058829
  0
VERTEX
  8
0
 10
908.599888
 20
1472.091601
 42
-0.078368
  0
VERTEX
  8
0
 10
875.118158
 20
1573.000000
 42
-0.022225
  0
VERTEX
  8
0
 10
871.822228
 20
1600.446574
 42
-0.020900
  0
VERTEX
  8
0
 10
870.883413
 20
1628.648090
 42
-0.021024
  0
VERTEX
  8
0
 10
872.300366
 20
1656.650501
 42
-0.023250
  0
VERTEX
  8
0
 10
876.059196
 20
1683.500000
 42
-0.027185
  0
VERTEX
  8
0
 10
884.842539
 20
1719.401092
 42
-0.025976
  0
VERTEX
  8
0
 10
897.577405
 20
1754.700260
 42
-0.026686
  0
VERTEX
  8
0
 10
913.457345
 20
1787.445763
 42
-0.033889
  0
VERTEX
  8
0
 10
931.659836
 20
1815.679395
 42
-0.048257
  0
VERTEX
  8
0
 10
965.623868
 20
1853.113182
 42
-0.043624
  0
VERTEX
  8
0
 10
1007.239315
 20
1884.770823
 42
-0.040686
  0
VERTEX
  8
0
 10
1056.556321
 20
1910.559101
 42
-0.031992
  0
VERTEX
  8
0
 10
1113.500000
 20
1930.479295
 42
-0.018589
  0
VERTEX
  8
0
 10
1153.943767
 20
1940.178777
 42
-0.015979
  0
VERTEX
  8
0
 10
1197.086918
 20
1947.418201
 42
-0.014526
  0
VERTEX
  8
0
 10
1244.533139
 20
1952.430268
 42
-0.010290
  0
VERTEX
  8
0
 10
1298.000000
 20
1955.406982
 42
-0.010634
  0
VERTEX
  8
0
 10
1314.505825
 20
1955.634273
 42
-0.001701
  0
VERTEX
  8
0
 10
1346.769371
 20
1955.282600
 42
-0.001866
  0
VERTEX
  8
0
 10
1379.161852
 20
1954.698390
 42
-0.007953
  0
SEQEND
  0
ENDSEC
  0
EOF
