<?xml version="1.0" encoding="utf-8"?>
<!-- Generator: Adobe Illustrator 18.1.1, SVG Export Plug-In . SVG Version: 6.00 Build 0)  -->
<svg version="1.1" id="Layer_1" xmlns="http://www.w3.org/2000/svg" xmlns:xlink="http://www.w3.org/1999/xlink" x="0px" y="0px"
	 viewBox="0 0 612 748" enable-background="new 0 0 612 748" xml:space="preserve">
<g id="Layer_1_1_">
</g>
<g id="Layer_2">
	<path fill="#EE2424" d="M554.3,285.9c-7.8-2.6-20.4-1.5-26.2-8.3c-0.2-0.2-0.3-0.4-0.5-0.6c-10-12.6,23.3-17.5,30.1-22.7
		c12.1-9.5,13.6-30.5,9.5-43.4c-3.8-11.8-19.6-29.1-34.6-29.2c-5.3,0-17,5.9-22.2,6.8c-4.7,0.8-13.4-0.6-16.3-4.8
		c-3.6-5-0.4-10.9,3.1-14.8c2.9-3.3,6.6-6,9-9.6c8.6-12.9,16-37.7,7.9-48.7c-35-48.2-68.5-6.8-75.2-0.9L422,141.1l-12.9-11.5
		c-7-6.7-2.1-1.3-9.9-7c0.4,0-6.5-4.5-6.4-4.5c1.7,0,22.8,4.2,36.4-6.6c5-4,8-7.9,9.8-10.2c2.1-2.7,4.1-6.1,8-12.7
		c4-6.8,6.1-10.2,6.6-12.3c2-7.1,0.4-13.3-0.5-17.1c-1.8-6.8-4.9-11.2-10.9-19.5c-6.7-9.2-10-13.8-15.6-16.4c-4.2-2-9-2.1-18.4-2.2
		c-12.6-0.1-19-0.2-26,2.7c-2.4,1-10.9,4.8-17.5,13.6c-3.4,4.6-5.1,9.2-8.4,18.5c-2.3,6.4-3.8,10.7-4.7,16.6
		c-1,7.1,1.8,11.3,4.5,18.6c0.1,0.2,4.5,8.8,6.1,11.5c-2.3-0.8-11.9-6.1-14.2-6.8c-6.1-2-22.4-6.7-28.5-8.2
		c8.9-6.1,26.9-18.9,26.9-18.9l1.6-3.2c0.3-3.9,0.8-10.2,2-18.1c2.5-17.5,5.2-23.7,1.4-29.5c-2.6-3.9-6.9-5.5-12-7.4
		c-7.1-2.7-8.7-0.8-16.4-3.2c-9.2-2.8-9.8-6.4-16.2-7c-5.3-0.5-7.2,1.7-16,4.8c-17.6,6.3-24.2,2.4-27.5,7.8c-3,5.1,2.7,8.7,2.2,21.8
		c-0.4,9.8-3.7,10.2-3.6,19.4c0.2,8.3,3,14.5,5.7,20.7c1.9,4.2,15.4,8.7,17.2,11.5c-3.7,0.1-19.3-1-23.1-0.6c-6,0.5-19.5,0.9-25.8,2
		c3.9-4.7,15.9-12.9,17.6-24.1c1-6.5,2-12.9-0.5-20.5c-0.7-2.3-4.2-7.1-11.2-16.6c-5.9-8.2-8.5-11.3-12.6-11.9
		c-2.9-0.5-3.1,0.8-7,0.8c-9,0-13-7.1-17.2-5.1c-3,1.4-2,5.1-5.1,6.5c-4.3,1.8-7.7-4.9-13-4c-4.9,0.8-4.4,7.2-12.5,15.6
		c-6,6.1-8.2,4.6-11,9.3c-4.1,6.8-2.4,14.9-1.3,20.4c1.4,6.2,3.6,10.5,6.4,15.8c1.6,2.8,4.8,8.5,10.1,14.8
		c5.7,6.9,11.7,5.5,16.7,7.9c0.6,0.3,10.9,1.1,11.5,1.4c-10.1,4.2-32.6,13.4-41.6,19c0.1-0.2-7.3,6.9-7.2,6.7
		c5-10.9,10.5-29.4,9.3-35.7c-0.6-3.8-1.6-6.7-2.7-10.5c-2.1-6.9-3.1-10.3-5.1-13.5c-2.7-4.4-4.1-3.8-14.8-12.7
		c-8.4-6.9-11.7-10.8-15-9.5c-2.2,0.7-2.1,2.8-4.9,4.1c-3.2,1.5-6-0.2-9.2-0.6c-6-0.8-10.9,2.8-20.5,9.9c-2.1,1.6-7,5.3-12,11.4
		c-3.2,3.9-4.9,5.7-6.2,9.1c-1.8,4.7-0.6,6.4-2.3,12.4c-1.9,6.7-3.8,6.2-4,9.6c-0.3,4.8,3.1,5.3,11.5,18.4c2.5,3.9,4.5,7.3,8.6,11.1
		c1.7,1.5,3.2,2.6,4.6,3.7c3.9,2.9,7.4,4.9,10.7,6.6c8.2,4.5,12.2,6.8,17.3,7.2c3.6,0.3,14.5-5.5,18-6.6c-6.6,7.6-23.6,27.2-28.5,36
		c-2.2-10.9-4.2-24.1-6.9-27c-0.5-0.5-1.1-1.1-1.8-1.7c-2.7-2.2-6.6-5.1-11.6-8c-4.2-2.5-7.3-4.4-11.7-5.9c-2.9-1-9.5-3.2-18.1-2.4
		c-5.5,0.5-12.6,1.1-18.1,6.4c-4.1,3.9-4,7.3-10.2,12.4c-2.4,1.9-3.3,2.3-4.9,4.2c-0.6,0.7-3,3.8-4.5,11.5
		c-0.7,3.7-0.7,7.9-0.8,16.4c0,5.1-0.1,7.7,0,8.6c0.3,2.5,1.5,10.6,7.1,17.5c5.5,6.8,12.3,9.2,19.3,11.6c8.6,3,15.6,3.2,23.6,3.4
		c9.2,0.3,9.6-1.3,14.9-3.6c1.4-0.6,8.2-4.6,9.5-5.4c-0.7,2.2-2.7,9.4-3.3,11.5c-2.4,7.9-4.4,23.9-5.4,32.5
		c-0.6-1.3-1.4-10.7-2.8-12.5c-8.2-10.6-19.9-14-24.2-14.9l-2.4-0.5c-3.4-2.7-5.7-2.8-7.1-2.4c-2.2,0.6-2.9,2.9-5,2.9
		c-1.5,0-2.2-1.1-3.4-2c-4-2.9-10.1-1.1-14.1,0.1c-4.7,1.4-7.7,3.6-10.7,5.6c-6.3,4.5-9.8,9.3-10.9,10.7c-0.6,0.8-3.6,5-5.9,11.1
		c-2.7,7.2-3,13.2-3.1,14.5c-0.4,7.7,1.4,13.6,1.9,15.3c1.8,5.7,4.5,9.4,9.7,16.7c4.5,6.2,6.8,9.3,9.9,10.7
		c3.4,1.6,4.5,0.3,13.5,1.5c5.4,0.7,5.1,1.1,11.8,2.1c8.2,1.1,11.3,0.8,14.1,0c1.5-0.4,2.8-1.1,5.4-2.3c4.4-2.1,7.8-4.3,10.9-6.3
		c7.1-4.7,11.1-15.9,13.8-19.5c1.5,9.5,7.2,34.4,10.1,43.4c-0.8-0.6-5.4-8-6.7-8.7c-8.5-4.6-25.2-3.3-25.2-3.3l-12-0.2
		c-4.8,0.9-10.9,2.8-17.3,6.3c-6.9,3.8-12.6,6.8-15.5,13.2c-1.9,4.3-1.5,8.6-0.7,17.1c0.6,7.3,1.1,12.3,4.3,17.7
		c3,5.1,4.7,4.1,9.3,10.3c5.2,7.3,4,10,8.5,14.8c4.8,5.1,10.8,6.9,12.6,7.3c9.8,2.7,18.3-0.9,23.4-3.1c8.5-3.7,13.6-8.9,17.3-12.6
		c4.8-4.8,7.7-9.2,10.1-12.9c4.2-6.5,2.5-17.2,3.3-21.3c4.5,6.4,21,24.9,26.4,30.5c-4.9,0.2-20-3.9-28,0.8c-4.6,2.7-7.7,5.6-9.4,7.3
		c-2.1,2-4.2,4.6-8.3,9.7c-4.2,5.2-6.3,7.8-7,9.5c-2.5,5.6-2,11.1-1.6,14.4c0.7,6,2.7,9.9,6.8,17.6c4.5,8.5,6.8,12.7,11.1,15.6
		c3.3,2.2,7.2,2.7,15,4c10.6,1.6,15.8,2.4,22.1,0.8c2.1-0.5,9.6-2.7,16.2-9.2c3.4-3.4,5.3-7.1,9.2-14.4c2.6-5.1,4.4-8.5,5.9-13.4
		c1.6-5.4-2.5-16.4-3.6-22.4c0.4,0.2,6.4,6.7,6.9,6.9c3.7,1.9,17.2,5.1,20.9,6.7c-2.1,2.5-13.7,3.7-15.4,6.7
		c-2.7,4.6-4,8.3-5.9,13.8c-2.7,8-4.2,12-4.2,17c-0.1,9.4,3.8,16.5,4.9,18.5c3.4,5.7,7.9,9.1,16.9,15.8c6.7,5,10.1,7.4,14.2,8.4
		c5.3,1.1,10.2-0.1,20.1-2.8c8.9-2.4,13.4-3.8,18.4-7.4c2.8-2.1,7.3-5.4,9.8-11.4c0.7-1.7,1.1-5.1,2.1-11.9c0.9-6.7,1.4-10,1.4-13
		c0-2.5,0-6.9-1.4-12.2c-1.6-6.2-11.5-11.7-14.1-15.4c4.2-0.5,25-4.5,29.2-5.4c-0.8,4.1-9.9,11.9-9.3,18.9
		c0.6,7.7,1.3,14.3,4.6,22.4c2.7,6.5,5.3,12.9,12,17.8c6.9,5,14.6,5.7,17,5.9c0.8,0,3.3-0.1,8.2-0.4c8-0.5,12.1-0.8,15.6-1.7
		c7.2-1.8,10-4.3,10.7-4.9c1.8-1.7,2-2.6,3.8-4.9c4.6-6.3,7.8-6.3,11.3-10.5c4.6-5.4,4.9-12.3,5.1-17.6c0.3-8.2-2.1-14.3-3.2-17
		c-1.7-4.1-3.7-7-6.2-10.9c-3.1-4.6-6.1-8.2-8.4-10.7c-0.5-0.5-1.1-1-1.7-1.6c-2-1.7-12.3-0.8-18-3.1c3.6-2.7,21.8-19.9,25.1-23.1
		c1.1,4.5-2.4,14.7,2.7,21.7c2.1,2.8,1.8,9.6,5,13c2,2,2.9,3.1,4.1,4c2.3,1.7,5,3,12.7,4.8c6.4,1.5,6.2,0.9,11.4,2.2
		c8.5,2,9,3.4,12.6,3.2c3.3-0.1,6.5-2.2,12.6-6.2c7.3-4.8,11-7.2,14.6-11.7c1-1.4,4.6-6,7-13.1c0.4-1.1,2.2-6.7,2.2-14.1
		c0-6.4-1.1-11.1-1.4-12c-0.4-1.6-2-7.1-6.1-13.4c-2-2.9-4-6-7.7-8.8c-3.1-2.5-8-6.2-12.7-4.9c-1.4,0.3-2.4,1.1-3.8,0.6
		c-1.9-0.7-1.8-3-3.6-4.4c-1.1-0.9-3.1-1.6-7.3-0.3l-2.3-0.3c-3.4-0.5-11.6-1.3-20.3,1.9c1.7-5.5,3.7-16.2,4.5-21.8
		c4.6,3.8,8.8,10.5,12.6,11.6c1.6,0.5,9.3,2.7,19.1,2c5.9-0.5,7.3-1.7,14.1-1.8c2.2,0,6.4,0.1,10.5,0.2c6.1,0.2,8.2,0.5,10.3-0.8
		c1.8-1,6.4-2.9,8.3-6.7c5-9.8,6.4-13.4,6.4-13.4c4.8-10.8,2.4-12.3,2.7-14.2c0.7-4.2,0.2-8.2-1-16.1c-0.8-5.6-1.3-8.4-2.4-11.1
		c-2-4.8-4.9-7.7-7.9-10.8c-2.8-2.9-6.8-7-13.4-10c-5.9-2.7-10.8-3.2-15.4-3.8c-4.8-0.5-10.3-1.1-16.7,0.6c-4.5,1.1-7.5,3.1-13.5,7
		c-12,7.7-14.9,15.9-16.6,19c0,0-3.3,4.6-3.3,4.7c-2.5-5.9-12.2-25.4-15.6-30.5c1.9,0.1,9.7,6.4,11.5,6.1c5.2-0.7,8.6-0.4,16.8-5.6
		c4.4-2.8,9.5-6.2,15.2-11.7c4.5-4.4,10.7-10.3,14.9-20.2c2.6-6,7-15.8,4-27.4c-0.5-2.3-2.5-9.2-8.5-14.9c-5.5-5.3-8.8-3.8-17.2-10
		c-7.4-5.4-6.1-7.3-12.1-11c-6.2-3.8-12.1-4.4-20.6-5.2c-10-1-15-1.6-20.1,0.6c-7.4,3.2-11.1,9.9-15.6,18
		c-4.2,7.6-6.4,14.7-7.5,20.3l0.1,14.1c0,0,4.8,17,7.7,27.4c-3.8-0.9-13.6-4.4-17.7-4.7c-2.1-0.2-14.6,0.6-16.9,0.6
		c0.4-0.6,8.5-4.8,8.8-5.4c2.6-4.6,5.6-6.8,6.5-16.5c0.3-3.8,0.6-7.9,0.4-13.1c-0.1-1.9-0.2-3.9-0.5-6.2c-0.8-5.7-2.7-9.4-4.6-13.9
		c-6.5-14.8-4.9-18.2-9.2-20.7c-3.1-1.9-3.8,0-10.7-2.2c-6.3-2-7-4.1-12.1-5.2c-3.6-0.8-6.3-0.5-11.5,0.1
		c-8.2,0.9-14.3,2.9-16.8,3.9c-11.7,4.2-17.8,6.4-20.5,12c-1.6,3.1-1.6,6.4-4.8,8.4c-2.7,1.8-4.5,0.4-6.4,1.9
		c-2.9,2.2-1.6,7.3-0.4,18.6c1.5,14.6,0.1,15.5,2.4,20.3c1.7,3.6,4,6.5,8.8,12.3c2.5,3.1,4.6,5.6,7.5,8.4c4.4,4.3,17.5,5.3,28,8.2
		c-1.4,1.1-8.3,8.5-9.4,9.7c-1.7,1.8-9.5,12.7-10.9,14.7c-2.2-5.4,0.7-18.1-4.7-23.4c-5-4.9-10.1-9.9-18.2-13.1
		c-8.9-3.4-10.6-0.4-20.3-3.6c-13.1-4.3-14.5-11.2-20.6-10c-6.5,1.3-5.1,9.2-17.6,24.1c-6.2,7.4-9,8.5-10.5,13.9
		c-1.7,6.5,1.6,8.3,1,18.3c-0.4,8.5-2.7,9.2-2.7,17.2c0.1,5.7,0.1,10.5,2.9,14.4c4.2,6,11.4,5.5,29.4,9.3c8.2,1.7,14.6,3.4,18.5,4.6
		l3.8-0.3c0,0,19.5-2.1,28.3-9.1c3.7-2.9,5.2-12.5,5.2-12.5c0.1-0.2,0.7,6.4,0.8,6.2c0.6,4.7,1.7,9.3,3.2,13.8
		c-3.6,1.4-7.2,3.7-12.6,7.1c-7.3,4.7-12.3,9.2-14.7,11.6c-4.4,4.3-8,7.8-11.3,13.6c-2.8,5.1-7.1,12.6-5.1,20.6
		c1.4,5.4,4,4.8,7.9,12.6c5.5,10.8,2.9,17,7.6,19.4c4.9,2.5,10.3-3,14.1,0.1c2.7,2.3,0.5,5.7,3.1,8c3.8,3.2,9.8-2.5,18.8,0.3
		c3.9,1.3,3.6,2.6,6.7,3c4.4,0.6,7.9-1.7,16.3-7.8c9.8-7.3,14.7-11,16.3-13c4.9-6.7,6-13.4,7-20.2c1.5-9.5,0.5-17.8-1.1-23.7
		c9.9,5.7,27.4,4.5,36.5-4.7c17.9-18,11.6-55.9-23.6-54.1c-20.8,1-30.2,19.9-28.4,34.9c-5.1-1-10.9-9.5-13-14.3
		c-3.8-8.4-4-20.5-2.4-29.4c1.7-9.2,13.4-20.7,22.1-24.2c31.1-12.7,62.2,6.6,74.7,37.9c11.2,27.9,2.1,61.2-17.3,83.2
		c-23.1,26.1-59.2,38.2-93.3,38.2c-23.5,0-44.6-12.1-63.1-26.9c-57.8-46.2-62.8-138.8-24.5-199c44.5-69.9,141.9-88.7,215-55
		c72.8,33.8,122.9,112.6,124.8,192.1c1,48-22.8,93.4-50.3,131.1c-42.4,58-106.3,105.4-180.8,105.4c-59.9,0-125.8-15.8-166.3-63.1
		c-5.2-6.2-9.8-12.5-13.5-19.6c-0.5-0.6-46.3,30.8-50.9,35.3c-18.1,17.9-11.9,40.2,3.9,57.6c8.7,9.5,22.1,23,36,15.9
		c8.3-4.2,17.1-18.7,27.9-10.6c8.8,6.7,0.7,18,0.2,26.3C83.8,610,98,618.4,110.2,624c11.2,5.1,28.4,12.1,38.6,1.3
		c5.6-6.1,8-17.9,16.1-21.6c15.8-7.4,13.3,18.3,15.2,25.9c3.6,14.7,19.6,18.8,32.9,20.6c59,7.8,27.6-33.9,49.4-35.3v-0.9
		c24.8-5.7,4.5,41.1,58.8,25.8c57.3-16.2,11.9-42,31.4-52l-0.2-0.5c22.3-12.9,16.1,38,63.9,7.8c11.3-7.1,27.1-18.4,21.5-33.7
		c-1.8-4.9-6.1-8.6-7.9-13.5c-2.2-5.9-4.2-16,2.8-19.5c7.2-3.6,16.3,5,22.6,7.5c14.5,6,27.1-5,36.3-15.3
		c8.6-9.5,20.6-24.1,12.3-37.2c-2.8-4.5-7.5-7-10.8-11.1c-3.2-4.1-7.5-12.6-3.1-17.3c3.2-3.6,8.6-2.2,12.5-1.1
		c4.3,1.1,8.3,3.2,12.6,3.8c15.3,1.9,24.7-11.9,30.9-23.9c5.7-11.1,13.8-28.1,3-38.8c-3.8-3.8-9.3-5-13.6-7.9
		c-6.5-4.4-12.3-14.4-8.7-22.3c4.9-10.3,17.7-4.6,26.1-8.4c12.6-5.6,21.9-21.1,22.6-33.3C575.9,310,569,290.8,554.3,285.9z"/>
	<g>
		<path fill="#096637" d="M690.3,202.2c8-2.2,9.6,1.8,15.9-2.6c6.1-4.2,14.9-10.7,14.9-10.7s-6.7,17.1-1.6,27
			c5,9.6,11.3,26.1,17.1,42.6c6.1,16.5,12.2,31.2,11.7,40c-0.6,8.9-3,15.5-4.1,22.2c-1,6.7-2.4,10.7-3.2,14.9c-0.6,4.4,1,8.3,1,8.3
			l3.2-1.8c0,0-0.6,0.4-0.2-6.7c0.2-7,1.4-11.9,5.6-18.5s7-13.5,8.9-23.1c1.8-9.6,2.2-19.5,2.4-33.2c0.2-13.9,2.8-25,3.2-40.4
			c0.4-15.5,2-21.3,0.2-26.1c-1.8-5-4.6-10.5-4.6-10.5s7.6,9.1,21.5,9.5c13.9,0.6,36.7,1.3,48.3-1.8s20-3,29.2-5.4
			c9.3-2.2,13.1-3.4,18.1-1.6c5,1.8,14.7,6.7,19.5,12.2c4.8,5.6,9.6,13.9,9.6,13.9l1.3-6.1c0,0-17.3-20.4-25.2-25.8
			c-7.8-5.4-20.4-14.3-34-15.5c-13.7-1.3-30.4-5.9-43.5-9.6c-13.3-3.9-16.7-3.7-22.4-5.4c-5.6-2-12.2-2.8-12.2-2.8s6.3-4.1,6.8-13.5
			c0.6-9.5,2.4-16.3,5-29.6c2.6-13.3,6.1-21.1,8.7-31.8c2.4-10.7,4.6-23.3,8.5-33.7c3.9-10.3,13.7-25.9,13.7-25.9L811.5,8
			c0,0-6.5,8.5-9.6,14.3c-3.2,5.9-4.8,13.5-10,21.9c-5.2,8.5-7.4,18.9-15.9,27.4c-9.5,9.1-11.3,11.3-17.7,19.1
			c-6.5,7.8-6.7,7.2-13.7,15.7c-7.2,8.5-13.7,20.7-13.7,20.7s0.6-5.9-5-9.6c-5.6-3.9-15.5-7.6-19.8-11.1
			c-4.1-3.2-14.9-15.3-20.4-19.1c-5.6-3.9-9.8-7.6-18.3-10.7s-12.2-5.2-16.9-8c-4.6-2.8-5.9-1.3-8.9-5.2c-3-4.1-3.2-2.6-5-7.4
			c-1.8-4.8-1.8-4.2-1.8-7.8c0-3.4,0-5.6,0-5.6l-2.6-1.3c0,0-3,4.4-2.6,6.5c0.2,2.2,0.2,6.3,2.4,11.7s5.2,8,7.6,10.2
			c2.6,2.2,4.2,1,5.9,5.6c1.7,4.6,6.5,11.7,11.5,19.1c5,7.4,6.7,9.8,9.1,16.3c2.4,6.3,6.1,17.7,10.7,23.1c4.6,5.4,3.9,5.9,9.1,10.5
			c5.2,4.6,5.2,4.8,7,5.6c1.8,0.8,4.6,2.6,4.6,2.6s-13.9,6.3-17.3,9.6c-3.4,3.4-0.6,1.4-8.7,7.8c-8,6.5-12.4,12.1-28.7,23.3
			c-16.3,11.3-24.4,15.5-32,20.9c-7.6,5.4-15,17.3-16.5,22.6c-1.4,5.2-4.1,12.6-2.4,17.6c1.6,4.8,4.4,10.9,4.4,10.9s1.4-9.6,3.4-15
			c2-5.4,4.4-10.2,8-15.7s6.7-11.5,13.9-16.3c7.2-4.8,17.1-7.4,27.2-10.2c10-2.8,11.5-2.6,21.9-3.7
			C681.1,203.2,682.3,204.5,690.3,202.2z M734.5,154.4c1.8,0,3.1,1.4,3.1,3.1s-1.4,3.1-3.1,3.1c-1.8,0-3.1-1.4-3.1-3.1
			S732.9,154.4,734.5,154.4z"/>
		<path fill="#096637" d="M1157.3,266.7c0,0-3.2-0.6-5.2-0.8c-2-0.2-6.1-3.4-6.1-3.4l1.6-2.8l-9.8-2.4l1.6-3.4l-11.7-1.3l2.8-2.8
			l-8.5-0.2l2.2-2l-5.2-0.2l2-2.4l-10.9,0.8l1.3-3.2l-7,1.3l1.8-2.6l-10.5,2l1.3-3.2l-9.1,1.8l0.6-2.4l-5.4,2.8l0.6-2.8l-9.5,4.1
			l0.2-2.8l-4.8,3.4l0.2-3.7l-11.5,4.4l0.6-3.9l-7,4.2l0.2-1.4l-4.8,2.4l0.4-2.4l-8.5,6.3l-0.6-2.2l-6.7,8.3l-0.6-3.2l-7.4,10.7
			l-1.4-2.8l-3.4,12.4l-2-2.4l0.4,9.1l-1.6-1.3c0,0,0.2,2,0,4.8s-1.8,2.8-1.8,2.8l-0.6-1l-1.4-55l3-2.8l10-5l-0.8-3.7l12.2-2.6
			l-0.8-2.4l10.9-4.2l-4.2-1.4l7.6-2.6l-3.9-2l6.7-3.9l-2.2-1.8l7.8-7.8l-3.2-0.6l6.8-8.5l-4.2,0.6l4.8-10.2l-3.9,0.2l6.8-13.3
			l-3.9,1.6l3.9-7l-2.8,1l3-9.5l-5,0.4c0,0,2.6-4.4,3.7-6.3c1-1.8,0.8-6.7,0.8-6.7l-3.9,0.8l2.6-6.5l-4.6,1.4l2.6-6.5l-3.4,1.3
			c0,0,1.3-3,0.8-4.6c-0.4-1.6-0.6-6.3-0.6-6.3l-4.6,2.6c0,0,1.6-2.8,1.4-4.4s-1-3-1.4-4.8c-0.4-1.8,0-7.6,0-7.6l-6.3,0.8l2.2-8
			l-3.2,2.2l0.8-8l-4.1,2.6l-0.2-6.1l-3.7,0.6c0,0,1-2.8,0.2-4.2c-0.6-1.4-0.4-5-0.4-5l-4.6,2.6c0,0-0.6-4.2-2-7s-1.8-5-1.8-5
			l-3.2,2.2c0,0-1-3-2-4.2s-3.4-7.4-3.4-7.4l-3,2l-1.4-4.2l-1.8-9.3c0,0-1.4,3.9-2.2,6.3s-5.9,6.7-5.9,6.7l-3-2.8l-5.2,11.7l-3.9-3
			l-4.4,14.1l-2.6-4.2L987,80.9l-1.8-3.2l-1.4,6.7l-2.6-3.2L979.7,95l-3.9-2.4l-0.2,9.1l-2.8-3.2v13.5l-5-1.3v11.9l-2.6-1.4l2,7.6
			l-3.4-1.6l2.6,13.1l-3.4-1.3l3,7.2l-4.2-1.4l2.6,15.7l-4.6-2l3.7,10l-1.6-0.6l1.8,6.7l-2.8-1l5.6,12.4h-3l8.5,10.9l-4.1-0.2
			l11.3,12.2l-3.9,0.8l14.3,8l-3.4,2l11.3,2.2l-1.8,1.6c0,0,2.4,0.2,5.9,1.4c3.4,1.3,3,3,3,3l2.2,1.6l-0.2,54.8l-3-1.8l-0.8-10.9
			l0.6-10.5h-2l-0.8-9.8l-2,3.2l-0.4-6.8l-2.4,2.6L994,244l-1.8,1.4l-4.4-8.3l-1.3,2.4l-5-7.6l-0.4,3.7l-6.8-6.5l-0.8,3.2l-8.9-8.7
			l0.4,3.4l-4.6-4.8l0.2,2.6l-6.7-4.8l-0.8,4.2c0,0-2.8-3-4.1-4.4c-1.3-1.4-5-2.2-5-2.2l-0.2,3.4l-4.4-3.7l0.2,4.1l-4.4-3.7l0.2,3
			c0,0-2-1.6-3.4-1.8c-1.3,0-5-1-5-1l1,4.4c0,0-1.8-2-3.2-2.2c-1.4-0.2-2.6,0.2-4.1,0c-1.6-0.2-5.9-1.8-5.9-1.8l-0.6,5.2l-5.6-3.7
			l1,3.2l-6.1-2.6l1.3,3.9l-4.8-1.3l-0.2,3c0,0-2-1.4-3.2-1.3c-1.3,0.2-4.1-0.8-4.1-0.8l1,4.4c0,0-3.4-0.4-5.9,0
			c-2.4,0.4-4.2,0.2-4.2,0.2l1,3.2c0,0-2.6,0.2-3.9,0.6c-1.3,0.4-6.5,1-6.5,1l1,2.8h-3.7l-7.4-0.8c0,0,2.6,2.2,4.4,3.4
			c1.8,1.3,3.9,6.3,3.9,6.3l-2.8,1.8l7.8,7l-3.2,2.2l10,7l-3.9,1.3l7.6,4.4l-3,0.8l4.8,2.8l-3,1.3l10.5,4.6l-2.6,2.5l7,2.4l-3,1.6
			l10.5,3.4l-2.6,2.4l9.1,2.8l-1.8,1.8l6.5,0.2l-1.8,2.4l10.7,1l-1.6,2.6l6.3-0.8l-2,3.2l12.6,1.8l-2.6,3.2l8.7-0.4l-0.8,1.3h5.6
			l-1.4,2l10.9-1.6l-0.6,2.4l10.2-4.2l-1,3.2l12.1-6.1l-0.2,3.4l9.5-9.6l0.8,3.2l4.2-8.7l0.8,1.8c0,0,0.8-1.8,2.4-4.4
			c1.6-2.6,5,0.8,5,0.8v83.7l-2.4-1.6l-2-2.2l-2.4-2.6l-0.2-6.8l0.8-7.8l-1.8,0.2l-0.6-7.2l-1.8,2.4l-0.2-5l-2.2,2l-1.3-4.8l-1.6,1
			l-3.7-6.1l-1,1.8l-4.2-5.6l-0.4,2.8l-6.1-4.6l-0.8,2.4l-7.6-6.5l0.2,2.6l-4.1-3.7v1.8l-5.9-3.4l-0.8,3.2c0,0-2.4-2.2-3.4-3.2
			c-1-1-4.4-1.6-4.4-1.6L950,326l-3.9-2.6v3l-3.9-2.6l0.2,2.2c0,0-1.8-1.3-2.8-1.3c-1.3,0-4.4-0.6-4.4-0.6l0.8,3.2
			c0,0-1.6-1.4-2.8-1.6c-1.3-0.2-2.2,0.2-3.7,0c-1.5-0.2-5.2-1.3-5.2-1.3l-0.8,3.9l-5-2.6l0.8,2.4l-5.2-1.8l1,2.8l-4.2-0.8l-0.2,2.4
			c0,0-1.8-1-2.8-0.8c-1,0.2-3.4-0.6-3.4-0.6l0.8,3.2c0,0-3-0.2-5.2,0s-3.9,0.2-3.9,0.2l0.8,2.4c0,0-2.2,0.2-3.2,0.6
			c-1,0.4-5.6,1-5.6,1l0.8,2.2l-3.2,0.2l-6.7-0.4c0,0,2.2,1.6,3.9,2.4c1.4,0.8,3.2,4.6,3.2,4.6l-2.4,1.4l6.7,5.2l-2.8,1.8l8.7,5
			l-3.4,1l6.7,3l-2.6,0.6l4.2,2l-2.8,1l9.1,3.2l-2.4,2l6.3,1.6l-2.8,1.3l9.3,2.2l-2.4,2l8,2l-1.6,1.4h5.6l-1.8,1.8l9.5,0.6l-1.4,2
			l5.6-0.8l-1.8,2.4l11.3,1l-2.2,2.4l7.6-0.4l-0.8,0.8h5l-1.4,1.6l9.6-1.4l-0.6,1.8l9.3-3.4l-1,2.4l10.7-4.8l-0.2,2.4l8.5-7.4
			l0.6,2.4l3.9-6.5l0.6,1.4c0,0-0.2-1.4,2.2-1.8c0.8-0.2,5.6,3.9,5.6,3.9l2,1.6v205.5l7.2-2.2l-0.8-201.1l-0.2-2.2l5.9-1l2.8,6.1
			l5,4.6l1.4-0.8l4.2,5.9l0.4-2.8l2.8,4.2l0.8-2.6l3.7,3.4l0.8-1.4l6.3,3.7l-0.2-2l6.5,3l-1-2.4l7.4,1.6l-0.6-2.2l9.6,2.4l-1.6-2
			l5.2,1.4l-1-1.6l6.7,0.6l-1-3c0,0,3.2,1,4.6,1.4s4.4-0.4,4.4-0.4l-1-2.2l4.6,0.6l-1.6-2.4l4.6,0.6l-1.4-1.8c0,0,2.2,0.4,3-0.2
			c1-0.4,4.1-1.3,4.1-1.3l-2.4-2.4c0,0,2,0.6,3.2,0.2c1-0.2,1.8-1,3-1.4s5-1,5-1l-1.4-3.7l5.4,0.2l-2-1.6l5.4-0.6l-2.2-2l4.1-1l-1-2
			c0,0,2,0.2,2.8-0.4c0.8-0.6,3.2-0.8,3.2-0.8l-2.4-2.4c0,0,2.6-1,4.2-2c1.6-1.3,3-1.6,3-1.6l-2-1.6c0,0,1.8-1,2.4-1.8
			c0.6-0.8,4.2-3,4.2-3l-1.8-1.4l2.6-1.4l5.9-2.2c0,0-2.8-0.4-4.4-0.6c-1.8-0.2-5.2-2.6-5.2-2.6l1.4-2l-8.5-1.6l1.4-2.6l-10-0.8
			l2.4-2.2h-7.2l1.8-1.6h-4.6l1.8-2l-9.3,0.8l1-2.6l-6.1,1l1.6-2l-8.9,1.6l1-2.6l-7.6,1.6l0.6-1.8l-4.8,2.2l0.6-2.2l-8,3.2l0.2-2.2
			l-4.2,2.8l0.4-2.8l-9.8,3.7l0.6-3l-6.1,3.4l0.2-1l-4.2,2l0.2-1.8l-7.4,5l-0.4-1.8l-5.9,6.5l-0.4-2.4l-6.5,8.3l-1-2.2l-3.2,9.5
			l-1.8-1.8l0.2,7l-1.4-0.8c0,0,0.2,1.4,0,3.7c-0.2,2.2-0.2,1.3-0.2,1.3l-0.8,0.4l-2.4,0.2l-0.4-85l4.6-0.2l3.9,11.7l6.1,6.1l1.6-1
			l5.2,7.8l0.2-3.7l3.4,5.6l0.8-3.4l4.2,4.6l1-2l7.4,4.8l-0.2-2.6l7.6,4.1l-1.3-3.2l8.9,2.2l-0.8-3l11.5,3.2l-1.8-2.8l6.1,2l-1.3-2
			l7.8,1l-1.3-3.9c0,0,3.9,1.4,5.4,1.8c1.6,0.6,5.2-0.4,5.2-0.4l-1.4-2.8l5.4,1l-2-3.4l5.4,1l-1.6-2.4c0,0,2.4,0.4,3.7,0
			c1-0.6,4.6-1.4,4.6-1.4l-2.8-3.2c0,0,2.4,0.8,3.7,0.4s2-1.3,3.4-1.8c1.4-0.6,5.9-1.3,5.9-1.3l-1.8-4.6l6.5,0.4l-2.2-2.2l6.3-0.6
			l-2.8-2.8l4.6-1.3l-1.3-2.8c0,0,2.4,0.2,3.2-0.4c1-0.8,3.9-1,3.9-1l-2.8-3.2c0,0,3-1.3,5-2.6c1.8-1.4,3.7-2.2,3.7-2.2l-2.2-2.2
			c0,0,2-1.3,2.8-2.2c0.8-0.9,5-3.9,5-3.9l-2.2-2l3-1.6L1157.3,266.7z"/>
		<path fill="#096637" d="M959.2,445.8l1.6-3l-10.5-2.6l1.8-3.7l-12.4-1.4l3-3l-9.1-0.2l2.2-2.2l-5.6-0.2l2.2-2.6l-11.7,1l1.3-3.7
			l-7.6,1.3l2-2.8l-11.1,2.2l1.3-3.7l-9.6,2l0.6-2.4l-5.9,3l0.6-3l-10,4.2l0.2-3l-5.2,3.9l0.4-3.9l-12.4,4.8l0.8-4.2l-7.6,4.6
			l0.2-1.4l-5.2,2.6l0.4-2.6l-9.3,6.8l-0.6-2.4l-7.2,8.9l-0.6-3.4l-7.8,11.5l-1.4-3.2l-3.9,13.3l-2.2-2.4l0.4,9.8l-1.6-1.4
			c0,0,0.2,2.2,0,5.2c-0.2,3-1.8,3-1.8,3l-0.8-1l-1.4-58.9l3.4-3l11.5-4.8l-0.8-3.9l13.1-3l-0.8-2.6l11.7-4.4l-4.6-1.6l8.3-2.8
			l-4.2-2l7.2-4.2l-2.4-1.8l8.3-8.5l-3.4-0.6l7.2-9.1l-4.6,0.8l5.2-11.1l-4.2,0.2l7.2-14.3l-4.2,1.6l4.2-7.6l-3,1l3.2-10.2l-5.4,0.4
			c0,0,2.6-4.6,3.9-6.7c1.3-2,0.8-7,0.8-7l-4.2,0.8l2.8-6.8L867,302l2.8-6.8l-3.7,1.4c0,0,1.3-3,0.8-4.8c-0.4-1.8-0.8-6.8-0.8-6.8
			l-5,2.8c0,0,1.8-3,1.6-4.8c0-1.8-1.3-3.2-1.4-5.2c-0.2-2.2,0-8.3,0-8.3l-6.7,1l2.2-8.7l-3.4,2.4l0.8-8.7l-4.2,2.8l-0.4-6.7
			l-3.9,0.8c0,0,1-3,0.2-4.6c-0.6-1.6-0.4-5.4-0.4-5.4l-5,2.8c0,0-0.8-4.6-2.2-7.6c-1.4-3-1.8-5.4-1.8-5.4l-3.4,2.4
			c0,0-1.3-3.2-2.2-4.6c-1-1.4-3.9-7.8-3.9-7.8l-3.2,2.2l-1.4-4.6l-2-9.8c0,0-1.6,4.2-2.4,6.8c-1,2.6-6.3,7-6.3,7l-3.2-3l-5.6,12.4
			l-4.1-3.2l-4.6,15.3l-2.8-4.6l-2.4,11.3l-2-3.4l-1.6,7l-2.8-3.7l-1.6,15l-4.1-2.6l-0.2,9.8l-3-3.4v14.7l-4.1-2.6v12.6l-2.8-1.6
			l2.2,8.3l-3.7-1.6l2.8,14.1l-3.9-1.3l3.4,7.6l-4.6-1.6l2.8,16.9l-4.8-2.2l3.9,10.9l-1.8-0.6l2,7.2l-3-1.3l6.1,13.5h-3.2l9.1,11.7
			l-4.4-0.2l12.1,13.3l-4.2,0.8l15.5,8.7l-3.7,2l12.1,2.4l-2,1.8c0,0,2.6,0.2,6.5,1.4c3.9,1.1,3.4,3.2,3.4,3.2l2.4,1.6l-0.2,58.9
			l-3.4-2l-0.8-11.7l0.6-11.3h-2.2l-0.8-10.5l-2.2,3.4l-0.4-7.4l-2.6,2.8l-1.6-6.8l-2,1.4l-4.8-8.9l-1.3,2.6l-5.4-8.3l-0.4,3.9
			l-7.4-7l-0.8,3.4l-9.5-9.5l0.4,3.9l-5-5.2l0.2,2.8l-7.2-5.2l-0.8,4.6c0,0-3-3.4-4.4-4.8c-1.4-1.4-5.4-2.4-5.4-2.4l-0.2,3.7
			l-4.8-3.9l0.2,4.4l-4.8-3.9l0.2,3.2c0,0-2.2-1.8-3.7-1.8s-5.4-1-5.4-1l1,4.8c0,0-2-2-3.4-2.4c-1.4-0.4-2.8,0-4.4-0.2
			c-1.8-0.4-6.5-2-6.5-2l-0.8,5.6l-6.1-4.1l1,3.4l-6.5-2.8l1.3,4.2l-5.2-1.4l-0.2,3.4c0,0-2-1.6-3.4-1.4c-1.3,0.2-4.2-1-4.2-1l1,4.8
			c0,0-3.7-0.4-6.3,0c-2.6,0.4-4.6,0.2-4.6,0.2l1,3.4c0,0-2.8,0.2-4.1,0.6c-1.4,0.6-7,1.3-7,1.3l1,3.2h-3.9l-8-0.8
			c0,0,2.8,2.2,4.6,3.7c1.8,1.3,4.1,6.7,4.1,6.7l-3,1.8l8.5,7.6l-3.4,2.4l10.9,7.6l-4.2,1.3l8.3,4.6l-3.2,0.8l5.2,3l-3.4,1.4l11.3,5
			l-2.8,2.6l7.6,2.6l-3.2,1.6l11.3,3.7l-2.8,2.6l9.8,3l-1.8,2l6.8,0.2l-2,2.6l11.5,1.3l-1.8,2.8l6.7-0.8l-2.2,3.4l13.7,1.8l-2.8,3.4
			l9.3-0.4l-0.8,1.3l6.1,0.2l-1.6,2.2l11.9-1.6l-0.6,2.6l10.1-4.7l-1,3.4l12.9-6.5l-0.2,3.7l10-10.5l0.8,3.4l4.4-9.3l0.8,2
			c0,0,0.6-2,2.4-4.8c1.8-2.8,5.4,0.8,5.4,0.8l-0.4,116.7l7.8-2.4l-1.3-115l5-0.2l4.2,12.6l6.5,6.7l1.8-1l4.1,8.7l0.4-3.9l3.7,6.1
			l0.8-3.7l4.4,5l1-2l8,5.2l-0.2-2.8l8.3,4.4l-1.4-3.4l9.5,2.4l-0.8-3.2l12.2,3.7l-2-3l6.7,2l-1.4-2.2l8.5,1l-1.3-4.2
			c0,0,4.1,1.4,5.9,2c1.8,0.6,5.6-0.4,5.6-0.4l-1.4-3.2l5.9,1l-2.2-3.7l5.9,1l-1.6-2.6c0,0,2.6,0.6,3.9,0c1.3-0.6,5-1.6,5-1.6
			l-3-3.4c0,0,2.6,0.8,4.1,0.4c1.4-0.4,2.2-1.4,3.9-2c1.6-0.4,6.3-1.3,6.3-1.3l-2-5l7,0.4l-2.4-2.4l6.7-0.6l-3-3l5-1.3l-1.3-3
			c0,0,2.6,0.4,3.7-0.4c1-0.8,4.1-1.3,4.1-1.3l-3-3.4c0,0,3.4-1.4,5.4-2.8c2-1.4,3.9-2.2,3.9-2.2l-2.4-2.4c0,0,2.2-1.4,3-2.4
			c1-1,5.4-4.2,5.4-4.2l-2.2-2.2l3.2-1.8l7.2-3c0,0-3.4-0.6-5.6-0.8C963.7,449.3,959.2,445.8,959.2,445.8z"/>
	</g>
</g>
</svg>
